<?xml version="1.0" encoding="UTF-8"?>
<svg version="1.1" xmlns="http://www.w3.org/2000/svg" width="1024" height="1024">
<path d="M0 0 C337.92 0 675.84 0 1024 0 C1024 337.92 1024 675.84 1024 1024 C686.08 1024 348.16 1024 0 1024 C0 686.08 0 348.16 0 0 Z " fill="#FAFAFA" transform="translate(0,0)"/>
<path d="M0 0 C1.1599498 0.01525223 2.3198996 0.03050446 3.51499939 0.04621887 C9.52553785 0.24343761 13.22205247 0.71400022 17.77734375 4.76953125 C20.32563991 8.42208908 20.91887011 11.12856078 20.84765625 15.4765625 C20.83750488 16.28198486 20.82735352 17.08740723 20.81689453 17.91723633 C20.80384277 18.52849365 20.79079102 19.13975098 20.77734375 19.76953125 C21.70706889 19.76782251 21.70706889 19.76782251 22.65557635 19.76607925 C59.38121741 19.69896242 96.10684941 19.64748037 132.83253924 19.61633526 C137.24106142 19.61258309 141.64958347 19.60870013 146.05810547 19.60473633 C147.37460579 19.60355593 147.37460579 19.60355593 148.71770208 19.60235169 C162.93355967 19.58929352 177.14938091 19.56563741 191.36521693 19.53807286 C205.94918367 19.5100301 220.53313136 19.49335738 235.11712396 19.48726577 C244.11809562 19.48314698 253.11896453 19.47013252 262.11990456 19.44578185 C268.29003252 19.4299386 274.46010727 19.42512769 280.6302541 19.42902712 C284.19148651 19.43095087 287.75253922 19.42797711 291.31373978 19.41191483 C295.17403982 19.39463055 299.03410513 19.40056071 302.8944397 19.4087677 C304.58413232 19.39565991 304.58413232 19.39565991 306.30796015 19.38228732 C311.8746055 19.41438029 316.00146223 19.55907523 320.77734375 22.76953125 C323.58029476 25.62592836 324.22842073 27.73815131 324.27734375 31.70703125 C324.17218269 35.66809773 323.93864661 36.56153546 321.40234375 39.83203125 C316.84884209 43.19294914 313.2133846 42.92176486 307.71295166 42.92774963 C306.76112369 42.93268761 305.80929573 42.93762559 304.82862449 42.9427132 C301.61654576 42.95815385 298.40448715 42.96646807 295.19238281 42.97485352 C292.89549584 42.98443031 290.59861063 42.99444027 288.30172729 43.00485229 C282.02983633 43.0320133 275.75793783 43.05298365 269.48602009 43.07285428 C263.54922189 43.09255284 257.61244313 43.11670674 251.6756613 43.14077651 C239.85019358 43.18855722 228.02471355 43.23174314 216.19921875 43.2722168 C204.84438929 43.31108674 193.48957359 43.35249203 182.13476562 43.3972168 C181.09707206 43.40130321 181.09707206 43.40130321 180.03841498 43.40547217 C177.25363083 43.41644486 174.4688467 43.42742391 171.68406262 43.43841431 C160.07536955 43.4841582 148.46666858 43.52783778 136.85796642 43.57120395 C134.25650865 43.58093205 131.65505105 43.5907077 129.05359364 43.60053372 C92.96136177 43.73661199 56.86983412 43.79641166 20.77734375 43.76953125 C20.7930542 44.49543457 20.80876465 45.22133789 20.82495117 45.96923828 C20.8875473 49.27758913 20.92641287 52.58581506 20.96484375 55.89453125 C21.00254883 57.60769531 21.00254883 57.60769531 21.04101562 59.35546875 C21.13346283 69.95608145 21.13346283 69.95608145 17.77734375 74.76953125 C13.92277667 78.68014999 10.93253603 79.03111781 5.49658203 79.22363281 C2.9468525 79.22263702 0.39706342 79.20071173 -2.15234375 79.16015625 C-3.34545166 79.15612793 -4.53855957 79.15209961 -5.76782227 79.14794922 C-10.2112574 79.1270708 -14.65447277 79.07122543 -19.09765625 79.01953125 C-29.03890625 78.93703125 -38.98015625 78.85453125 -49.22265625 78.76953125 C-49.22265625 108.13953125 -49.22265625 137.50953125 -49.22265625 167.76953125 C-21.51913101 167.611275 -21.51913101 167.611275 6.18408203 167.40917969 C11.55249023 167.39111328 11.55249023 167.39111328 14.06881714 167.38775635 C15.8194282 167.38162979 17.57002279 167.36759396 19.32052612 167.347229 C21.97846622 167.31786342 24.63537853 167.31390991 27.29345703 167.31542969 C28.06817919 167.30103725 28.84290134 167.28664482 29.64109993 167.27181625 C33.21707095 167.29910763 35.93901061 167.83316201 39.27096558 169.14459229 C42.53899472 172.56721108 42.45939015 174.63000688 42.4571228 179.23614502 C42.42615509 180.22169373 42.39518738 181.20724243 42.36328125 182.22265625 C42.35479156 183.23801453 42.34630188 184.2533728 42.33755493 185.29949951 C42.30398382 188.54059226 42.22869438 191.77919139 42.15234375 195.01953125 C42.12224909 197.21741197 42.09487242 199.41533171 42.0703125 201.61328125 C42.00418102 206.99954784 41.90379612 212.38436143 41.77734375 217.76953125 C42.45834892 217.76253393 43.1393541 217.75553661 43.84099579 217.74832726 C60.47849307 217.57812166 77.11605799 217.41991529 93.75379181 217.27475548 C101.79995848 217.2042711 109.84605154 217.12985567 117.89208984 217.04589844 C124.91216007 216.97265706 131.93225486 216.90708422 138.95247889 216.85038722 C142.66313826 216.82016004 146.37367869 216.78631951 150.08421326 216.74326706 C184.36204125 216.35115973 213.12354224 219.37379344 238.90234375 244.33203125 C257.7770278 263.25269505 263.93936111 288.39435402 263.91778564 314.47410583 C263.92224233 316.18190557 263.92224233 316.18190557 263.92678905 317.92420632 C263.93542233 321.71827728 263.93697973 325.5123165 263.93847656 329.30639648 C263.942575 332.03563114 263.94811382 334.76486252 263.95352173 337.49409485 C263.96705242 344.8953672 263.97312166 352.29663409 263.97753239 359.69791675 C263.98030402 364.32842354 263.98454304 368.95892827 263.98903656 373.58943367 C264.00122287 386.43589236 264.0115231 399.28234941 264.01491165 412.12881374 C264.01513122 412.949614 264.01535078 413.77041427 264.015577 414.61608726 C264.01579528 415.43873797 264.01601356 416.26138868 264.01623845 417.1089682 C264.0166819 418.77568909 264.01712846 420.44240997 264.01757812 422.10913086 C264.01779955 422.93586408 264.01802098 423.7625973 264.01824912 424.61438305 C264.02219231 437.99311308 264.03963455 451.37178849 264.06293765 464.75049745 C264.08672596 478.52010904 264.09911691 492.28969331 264.10027957 506.05932575 C264.1011922 513.77673228 264.1068396 521.49406763 264.12509918 529.21145439 C264.14060161 535.78622191 264.14556154 542.36089624 264.13736108 548.93567859 C264.13348989 552.28192945 264.13588545 555.62784277 264.14841843 558.97409439 C264.26077947 590.86615584 260.33335372 617.00211571 238.77734375 641.76953125 C238.24882813 642.38183594 237.7203125 642.99414062 237.17578125 643.625 C223.82167662 657.99875302 203.35853039 667.9323557 183.80638523 668.86338375 C181.613748 668.90069178 179.42305645 668.90797116 177.23010349 668.90375233 C176.39107515 668.90610456 175.55204681 668.90845679 174.68759337 668.9108803 C171.87542043 668.91753857 169.06329403 668.91711304 166.25111389 668.91670227 C164.2146987 668.92000287 162.17828415 668.92372885 160.14187044 668.92784375 C154.54479569 668.93784951 148.94773166 668.94157825 143.35064924 668.94423306 C137.31427708 668.94814031 131.27791338 668.95771832 125.24154663 668.96644592 C111.35258066 668.98526441 97.46361551 668.99546439 83.57464048 669.0039066 C76.70719929 669.00811668 69.83975897 669.0133382 62.97231851 669.01859113 C39.45203496 669.03647957 15.93175116 669.05147424 -7.58853817 669.05891132 C-9.06449446 669.05938608 -10.54045075 669.05986196 -12.01640705 669.06033899 C-12.74832813 669.06057536 -13.4802492 669.06081174 -14.23434971 669.06105528 C-17.94244734 669.06225644 -21.65054496 669.0634719 -25.35864258 669.06469727 C-26.09451736 669.06493742 -26.83039215 669.06517757 -27.58856617 669.06542499 C-51.43836785 669.07331497 -75.28811976 669.09674148 -99.13789971 669.12925321 C-124.36880822 669.16358471 -149.59968762 669.18326554 -174.83061987 669.18655556 C-177.6027788 669.18697308 -180.37493772 669.18745264 -183.14709663 669.18797874 C-183.82965185 669.18810194 -184.51220707 669.18822513 -185.21544578 669.18835205 C-196.17930916 669.19067994 -207.14311453 669.20631681 -218.10695727 669.22682059 C-229.13707704 669.24712033 -240.16713684 669.25220403 -251.19727325 669.24304996 C-257.1678358 669.23850973 -263.13821074 669.24037573 -269.10874748 669.2598114 C-274.58234642 669.27747507 -280.05562133 669.27641915 -285.52922387 669.26091411 C-287.50169936 669.25854293 -289.47419748 669.26283589 -291.44663846 669.27474276 C-307.51937717 669.36570102 -321.78196864 667.44114654 -336.22265625 659.76953125 C-337.02703125 659.351875 -337.83140625 658.93421875 -338.66015625 658.50390625 C-359.25964194 647.01573154 -373.84360693 627.98354878 -380.59765625 605.51953125 C-383.39227662 595.22906 -384.52059662 585.09197534 -384.48335266 574.45585632 C-384.48909098 572.68613196 -384.48909098 572.68613196 -384.49494523 570.88065559 C-384.50341311 567.64162437 -384.50306675 564.40274022 -384.49876463 561.16370547 C-384.49628083 557.65642741 -384.50533197 554.14917513 -384.51280212 550.64190674 C-384.52550564 543.78443041 -384.52734825 536.92699332 -384.52500186 530.0695072 C-384.5232136 524.49116112 -384.52497919 518.91282687 -384.5292263 513.33448219 C-384.52982149 512.53835952 -384.53041668 511.74223684 -384.53102991 510.92198924 C-384.53224175 509.30428061 -384.53345588 507.68657199 -384.53467228 506.06886337 C-384.54553115 490.92175012 -384.54339322 475.77465917 -384.53728744 460.62754468 C-384.53212017 446.79681304 -384.54337164 432.96615188 -384.56238566 419.13543417 C-384.58179828 404.90472902 -384.59001403 390.67405716 -384.5862624 376.44333869 C-384.5843555 368.46564241 -384.58678792 360.48800608 -384.60097694 352.51032066 C-384.6129355 345.7184566 -384.61424581 338.92668939 -384.60218678 332.13482388 C-384.5963292 328.67568909 -384.59511109 325.21673106 -384.60718918 321.75760841 C-384.68170039 295.10523022 -384.68170039 295.10523022 -381.22265625 282.76953125 C-380.93285542 281.71311778 -380.6430546 280.65670431 -380.34447193 279.56827831 C-376.53465141 266.39329081 -369.39377834 254.86279542 -360.22265625 244.76953125 C-359.67222656 244.13789063 -359.12179687 243.50625 -358.5546875 242.85546875 C-344.2924586 227.43113231 -322.79945734 218.56583806 -302.05764771 217.39248657 C-296.40613723 217.18638668 -290.75608214 217.18905836 -285.1015625 217.1953125 C-282.98826477 217.18280117 -280.87497724 217.16844939 -278.76170349 217.15238953 C-273.22008117 217.1146411 -267.67863561 217.09924842 -262.13690186 217.08959961 C-253.39119373 217.06985149 -244.64558469 217.01267523 -235.90000534 216.96294785 C-232.67891824 216.94539346 -229.45782603 216.93051761 -226.23672485 216.915802 C-205.55860832 216.81059249 -184.89250258 216.34317006 -164.22265625 215.76953125 C-164.24990895 213.63019445 -164.27718015 211.49085789 -164.30453873 209.35152245 C-164.32752173 207.54081826 -164.35017061 205.7301098 -164.37249374 203.91939735 C-164.41888666 200.18326297 -164.4672169 196.44743835 -164.53430176 192.71160889 C-164.57954578 190.17595951 -164.60018892 187.64145305 -164.61328125 185.10546875 C-164.63374512 184.27249268 -164.65420898 183.4395166 -164.67529297 182.58129883 C-164.67852482 177.15663715 -163.86331113 174.06000362 -160.22265625 169.76953125 C-154.29769052 166.40671286 -147.01086673 166.62162968 -140.35961914 166.65600586 C-139.5955371 166.65588532 -138.83145506 166.65576479 -138.04421902 166.6556406 C-135.59455289 166.65638124 -133.14496484 166.66397039 -130.6953125 166.671875 C-129.17346229 166.67334705 -127.65161156 166.67436614 -126.12976074 166.67492676 C-120.51488481 166.68014911 -114.90001975 166.69411037 -109.28515625 166.70703125 C-96.72453125 166.72765625 -84.16390625 166.74828125 -71.22265625 166.76953125 C-71.22265625 137.72953125 -71.22265625 108.68953125 -71.22265625 78.76953125 C-91.07275464 78.8881927 -91.07275464 78.8881927 -110.92260742 79.03979492 C-113.4119427 79.04855713 -115.90128227 79.05620169 -118.390625 79.0625 C-120.32790466 79.08552185 -120.32790466 79.08552185 -122.30432129 79.10900879 C-124.16111511 79.10955261 -124.16111511 79.10955261 -126.05541992 79.11010742 C-127.12797531 79.11676926 -128.2005307 79.12343109 -129.30558777 79.1302948 C-132.73505974 78.70616061 -134.50068798 77.88748371 -137.22265625 75.76953125 C-140.08135773 71.8790225 -140.58368704 69.16203017 -140.515625 64.375 C-140.50595703 63.17294922 -140.49628906 61.97089844 -140.48632812 60.73242188 C-140.46119141 59.48654297 -140.43605469 58.24066406 -140.41015625 56.95703125 C-140.39662109 55.69181641 -140.38308594 54.42660156 -140.36914062 53.12304688 C-140.33383943 50.00477482 -140.28452444 46.88737083 -140.22265625 43.76953125 C-141.14920743 43.77180957 -141.14920743 43.77180957 -142.09447682 43.77413392 C-178.69485076 43.86362329 -215.29520854 43.93226587 -251.89566947 43.97379257 C-256.28917045 43.97879547 -260.68267122 43.98397275 -265.07617188 43.98925781 C-265.95084814 43.99030705 -266.82552441 43.9913563 -267.72670601 43.99243733 C-281.89407979 44.00984817 -296.06138872 44.04138959 -310.22872402 44.07814243 C-324.76296844 44.11553298 -339.29717887 44.13776311 -353.83146942 44.14588523 C-362.80176672 44.15137693 -371.77188073 44.16872926 -380.74212162 44.20119712 C-386.89123377 44.22232172 -393.040251 44.22873596 -399.18939681 44.22353676 C-402.73853289 44.22097175 -406.28734843 44.22493616 -409.83642769 44.24635315 C-413.68364285 44.26939983 -417.53043933 44.26149202 -421.37771606 44.25054932 C-422.50028687 44.26220068 -423.62285767 44.27385205 -424.77944577 44.28585649 C-430.8964779 44.23867644 -434.61156502 43.94119748 -439.22265625 39.76953125 C-441.9067427 35.74340158 -442.02876031 32.50136207 -441.22265625 27.76953125 C-439.29908752 24.19613242 -437.13443085 22.07345612 -433.22265625 20.76953125 C-431.57630501 20.67870705 -429.92647761 20.64577908 -428.27762318 20.64648342 C-426.7377111 20.64349685 -426.7377111 20.64349685 -425.16668969 20.64044994 C-424.03538037 20.64336278 -422.90407104 20.64627562 -421.73847961 20.64927673 C-420.5394355 20.64842231 -419.34039138 20.64756788 -418.1050126 20.64668757 C-414.77110773 20.64532233 -411.43726122 20.64845867 -408.10336339 20.65346563 C-404.51033552 20.65777541 -400.91730952 20.65632333 -397.32427979 20.65556335 C-391.09720239 20.65503846 -384.87013545 20.65818171 -378.64306068 20.66380119 C-369.63970475 20.67192079 -360.63635388 20.67453189 -351.63299467 20.67578918 C-337.02640439 20.67797898 -322.41981968 20.68463711 -307.81323242 20.6940918 C-293.6224775 20.70326778 -279.43172409 20.71034771 -265.2409668 20.71459961 C-264.36656526 20.71486233 -263.49216373 20.71512506 -262.59126518 20.71539574 C-258.20474421 20.71670076 -253.81822324 20.71796447 -249.43170226 20.71920764 C-213.02868298 20.729578 -176.62567005 20.74719435 -140.22265625 20.76953125 C-140.26072388 19.53323975 -140.26072388 19.53323975 -140.29956055 18.27197266 C-140.31929932 17.19093262 -140.33903809 16.10989258 -140.359375 14.99609375 C-140.39744263 13.38855225 -140.39744263 13.38855225 -140.4362793 11.74853516 C-140.21955188 8.72624031 -139.89969352 7.46861469 -138.03515625 5.14453125 C-132.30306344 0.30409732 -127.05689156 0.46219362 -119.84985352 0.43481445 C-118.80491226 0.42316254 -117.75997101 0.41151062 -116.68336487 0.39950562 C-113.21861344 0.36346071 -109.7539337 0.34160279 -106.2890625 0.3203125 C-103.85700391 0.29902706 -101.42495122 0.27705831 -98.99290466 0.25444031 C-93.87591291 0.20897286 -88.75892783 0.17023112 -83.6418457 0.13647461 C-77.17231334 0.09350169 -70.70300172 0.03654542 -64.2336216 -0.02488518 C-19.38634356 -0.44511047 -19.38634356 -0.44511047 0 0 Z " fill="#F4B84C" transform="translate(572.22265625,158.23046875)"/>
<path d="M0 0 C1.1599498 0.01525223 2.3198996 0.03050446 3.51499939 0.04621887 C9.52553785 0.24343761 13.22205247 0.71400022 17.77734375 4.76953125 C20.32563991 8.42208908 20.91887011 11.12856078 20.84765625 15.4765625 C20.83750488 16.28198486 20.82735352 17.08740723 20.81689453 17.91723633 C20.80384277 18.52849365 20.79079102 19.13975098 20.77734375 19.76953125 C21.70706889 19.76782251 21.70706889 19.76782251 22.65557635 19.76607925 C59.38121741 19.69896242 96.10684941 19.64748037 132.83253924 19.61633526 C137.24106142 19.61258309 141.64958347 19.60870013 146.05810547 19.60473633 C147.37460579 19.60355593 147.37460579 19.60355593 148.71770208 19.60235169 C162.93355967 19.58929352 177.14938091 19.56563741 191.36521693 19.53807286 C205.94918367 19.5100301 220.53313136 19.49335738 235.11712396 19.48726577 C244.11809562 19.48314698 253.11896453 19.47013252 262.11990456 19.44578185 C268.29003252 19.4299386 274.46010727 19.42512769 280.6302541 19.42902712 C284.19148651 19.43095087 287.75253922 19.42797711 291.31373978 19.41191483 C295.17403982 19.39463055 299.03410513 19.40056071 302.8944397 19.4087677 C304.58413232 19.39565991 304.58413232 19.39565991 306.30796015 19.38228732 C311.8746055 19.41438029 316.00146223 19.55907523 320.77734375 22.76953125 C323.58029476 25.62592836 324.22842073 27.73815131 324.27734375 31.70703125 C324.17218269 35.66809773 323.93864661 36.56153546 321.40234375 39.83203125 C316.84884209 43.19294914 313.2133846 42.92176486 307.71295166 42.92774963 C306.76112369 42.93268761 305.80929573 42.93762559 304.82862449 42.9427132 C301.61654576 42.95815385 298.40448715 42.96646807 295.19238281 42.97485352 C292.89549584 42.98443031 290.59861063 42.99444027 288.30172729 43.00485229 C282.02983633 43.0320133 275.75793783 43.05298365 269.48602009 43.07285428 C263.54922189 43.09255284 257.61244313 43.11670674 251.6756613 43.14077651 C239.85019358 43.18855722 228.02471355 43.23174314 216.19921875 43.2722168 C204.84438929 43.31108674 193.48957359 43.35249203 182.13476562 43.3972168 C181.09707206 43.40130321 181.09707206 43.40130321 180.03841498 43.40547217 C177.25363083 43.41644486 174.4688467 43.42742391 171.68406262 43.43841431 C160.07536955 43.4841582 148.46666858 43.52783778 136.85796642 43.57120395 C134.25650865 43.58093205 131.65505105 43.5907077 129.05359364 43.60053372 C92.96136177 43.73661199 56.86983412 43.79641166 20.77734375 43.76953125 C20.7930542 44.49543457 20.80876465 45.22133789 20.82495117 45.96923828 C20.8875473 49.27758913 20.92641287 52.58581506 20.96484375 55.89453125 C21.00254883 57.60769531 21.00254883 57.60769531 21.04101562 59.35546875 C21.13346283 69.95608145 21.13346283 69.95608145 17.77734375 74.76953125 C13.92277667 78.68014999 10.93253603 79.03111781 5.49658203 79.22363281 C2.9468525 79.22263702 0.39706342 79.20071173 -2.15234375 79.16015625 C-3.34545166 79.15612793 -4.53855957 79.15209961 -5.76782227 79.14794922 C-10.2112574 79.1270708 -14.65447277 79.07122543 -19.09765625 79.01953125 C-29.03890625 78.93703125 -38.98015625 78.85453125 -49.22265625 78.76953125 C-49.22265625 108.13953125 -49.22265625 137.50953125 -49.22265625 167.76953125 C-21.51913101 167.611275 -21.51913101 167.611275 6.18408203 167.40917969 C11.55249023 167.39111328 11.55249023 167.39111328 14.06881714 167.38775635 C15.8194282 167.38162979 17.57002279 167.36759396 19.32052612 167.347229 C21.97846622 167.31786342 24.63537853 167.31390991 27.29345703 167.31542969 C28.06817919 167.30103725 28.84290134 167.28664482 29.64109993 167.27181625 C33.21707095 167.29910763 35.93901061 167.83316201 39.27096558 169.14459229 C42.53899472 172.56721108 42.45939015 174.63000688 42.4571228 179.23614502 C42.42615509 180.22169373 42.39518738 181.20724243 42.36328125 182.22265625 C42.35479156 183.23801453 42.34630188 184.2533728 42.33755493 185.29949951 C42.30398382 188.54059226 42.22869438 191.77919139 42.15234375 195.01953125 C42.12224909 197.21741197 42.09487242 199.41533171 42.0703125 201.61328125 C42.00418102 206.99954784 41.90379612 212.38436143 41.77734375 217.76953125 C42.45834892 217.76253393 43.1393541 217.75553661 43.84099579 217.74832726 C60.47849307 217.57812166 77.11605799 217.41991529 93.75379181 217.27475548 C101.79995848 217.2042711 109.84605154 217.12985567 117.89208984 217.04589844 C124.91216007 216.97265706 131.93225486 216.90708422 138.95247889 216.85038722 C142.66313826 216.82016004 146.37367869 216.78631951 150.08421326 216.74326706 C184.36204125 216.35115973 213.12354224 219.37379344 238.90234375 244.33203125 C257.7770278 263.25269505 263.93936111 288.39435402 263.91778564 314.47410583 C263.92224233 316.18190557 263.92224233 316.18190557 263.92678905 317.92420632 C263.93542233 321.71827728 263.93697973 325.5123165 263.93847656 329.30639648 C263.942575 332.03563114 263.94811382 334.76486252 263.95352173 337.49409485 C263.96705242 344.8953672 263.97312166 352.29663409 263.97753239 359.69791675 C263.98030402 364.32842354 263.98454304 368.95892827 263.98903656 373.58943367 C264.00122287 386.43589236 264.0115231 399.28234941 264.01491165 412.12881374 C264.01513122 412.949614 264.01535078 413.77041427 264.015577 414.61608726 C264.01579528 415.43873797 264.01601356 416.26138868 264.01623845 417.1089682 C264.0166819 418.77568909 264.01712846 420.44240997 264.01757812 422.10913086 C264.01779955 422.93586408 264.01802098 423.7625973 264.01824912 424.61438305 C264.02219231 437.99311308 264.03963455 451.37178849 264.06293765 464.75049745 C264.08672596 478.52010904 264.09911691 492.28969331 264.10027957 506.05932575 C264.1011922 513.77673228 264.1068396 521.49406763 264.12509918 529.21145439 C264.14060161 535.78622191 264.14556154 542.36089624 264.13736108 548.93567859 C264.13348989 552.28192945 264.13588545 555.62784277 264.14841843 558.97409439 C264.26077947 590.86615584 260.33335372 617.00211571 238.77734375 641.76953125 C238.24882813 642.38183594 237.7203125 642.99414062 237.17578125 643.625 C223.82167662 657.99875302 203.35853039 667.9323557 183.80638523 668.86338375 C181.613748 668.90069178 179.42305645 668.90797116 177.23010349 668.90375233 C176.39107515 668.90610456 175.55204681 668.90845679 174.68759337 668.9108803 C171.87542043 668.91753857 169.06329403 668.91711304 166.25111389 668.91670227 C164.2146987 668.92000287 162.17828415 668.92372885 160.14187044 668.92784375 C154.54479569 668.93784951 148.94773166 668.94157825 143.35064924 668.94423306 C137.31427708 668.94814031 131.27791338 668.95771832 125.24154663 668.96644592 C111.35258066 668.98526441 97.46361551 668.99546439 83.57464048 669.0039066 C76.70719929 669.00811668 69.83975897 669.0133382 62.97231851 669.01859113 C39.45203496 669.03647957 15.93175116 669.05147424 -7.58853817 669.05891132 C-9.06449446 669.05938608 -10.54045075 669.05986196 -12.01640705 669.06033899 C-12.74832813 669.06057536 -13.4802492 669.06081174 -14.23434971 669.06105528 C-17.94244734 669.06225644 -21.65054496 669.0634719 -25.35864258 669.06469727 C-26.09451736 669.06493742 -26.83039215 669.06517757 -27.58856617 669.06542499 C-51.43836785 669.07331497 -75.28811976 669.09674148 -99.13789971 669.12925321 C-124.36880822 669.16358471 -149.59968762 669.18326554 -174.83061987 669.18655556 C-177.6027788 669.18697308 -180.37493772 669.18745264 -183.14709663 669.18797874 C-183.82965185 669.18810194 -184.51220707 669.18822513 -185.21544578 669.18835205 C-196.17930916 669.19067994 -207.14311453 669.20631681 -218.10695727 669.22682059 C-229.13707704 669.24712033 -240.16713684 669.25220403 -251.19727325 669.24304996 C-257.1678358 669.23850973 -263.13821074 669.24037573 -269.10874748 669.2598114 C-274.58234642 669.27747507 -280.05562133 669.27641915 -285.52922387 669.26091411 C-287.50169936 669.25854293 -289.47419748 669.26283589 -291.44663846 669.27474276 C-307.51937717 669.36570102 -321.78196864 667.44114654 -336.22265625 659.76953125 C-337.02703125 659.351875 -337.83140625 658.93421875 -338.66015625 658.50390625 C-359.25964194 647.01573154 -373.84360693 627.98354878 -380.59765625 605.51953125 C-383.39227662 595.22906 -384.52059662 585.09197534 -384.48335266 574.45585632 C-384.48909098 572.68613196 -384.48909098 572.68613196 -384.49494523 570.88065559 C-384.50341311 567.64162437 -384.50306675 564.40274022 -384.49876463 561.16370547 C-384.49628083 557.65642741 -384.50533197 554.14917513 -384.51280212 550.64190674 C-384.52550564 543.78443041 -384.52734825 536.92699332 -384.52500186 530.0695072 C-384.5232136 524.49116112 -384.52497919 518.91282687 -384.5292263 513.33448219 C-384.52982149 512.53835952 -384.53041668 511.74223684 -384.53102991 510.92198924 C-384.53224175 509.30428061 -384.53345588 507.68657199 -384.53467228 506.06886337 C-384.54553115 490.92175012 -384.54339322 475.77465917 -384.53728744 460.62754468 C-384.53212017 446.79681304 -384.54337164 432.96615188 -384.56238566 419.13543417 C-384.58179828 404.90472902 -384.59001403 390.67405716 -384.5862624 376.44333869 C-384.5843555 368.46564241 -384.58678792 360.48800608 -384.60097694 352.51032066 C-384.6129355 345.7184566 -384.61424581 338.92668939 -384.60218678 332.13482388 C-384.5963292 328.67568909 -384.59511109 325.21673106 -384.60718918 321.75760841 C-384.68170039 295.10523022 -384.68170039 295.10523022 -381.22265625 282.76953125 C-380.93285542 281.71311778 -380.6430546 280.65670431 -380.34447193 279.56827831 C-376.53465141 266.39329081 -369.39377834 254.86279542 -360.22265625 244.76953125 C-359.67222656 244.13789063 -359.12179687 243.50625 -358.5546875 242.85546875 C-344.2924586 227.43113231 -322.79945734 218.56583806 -302.05764771 217.39248657 C-296.40613723 217.18638668 -290.75608214 217.18905836 -285.1015625 217.1953125 C-282.98826477 217.18280117 -280.87497724 217.16844939 -278.76170349 217.15238953 C-273.22008117 217.1146411 -267.67863561 217.09924842 -262.13690186 217.08959961 C-253.39119373 217.06985149 -244.64558469 217.01267523 -235.90000534 216.96294785 C-232.67891824 216.94539346 -229.45782603 216.93051761 -226.23672485 216.915802 C-205.55860832 216.81059249 -184.89250258 216.34317006 -164.22265625 215.76953125 C-164.24990895 213.63019445 -164.27718015 211.49085789 -164.30453873 209.35152245 C-164.32752173 207.54081826 -164.35017061 205.7301098 -164.37249374 203.91939735 C-164.41888666 200.18326297 -164.4672169 196.44743835 -164.53430176 192.71160889 C-164.57954578 190.17595951 -164.60018892 187.64145305 -164.61328125 185.10546875 C-164.63374512 184.27249268 -164.65420898 183.4395166 -164.67529297 182.58129883 C-164.67852482 177.15663715 -163.86331113 174.06000362 -160.22265625 169.76953125 C-154.29769052 166.40671286 -147.01086673 166.62162968 -140.35961914 166.65600586 C-139.5955371 166.65588532 -138.83145506 166.65576479 -138.04421902 166.6556406 C-135.59455289 166.65638124 -133.14496484 166.66397039 -130.6953125 166.671875 C-129.17346229 166.67334705 -127.65161156 166.67436614 -126.12976074 166.67492676 C-120.51488481 166.68014911 -114.90001975 166.69411037 -109.28515625 166.70703125 C-96.72453125 166.72765625 -84.16390625 166.74828125 -71.22265625 166.76953125 C-71.22265625 137.72953125 -71.22265625 108.68953125 -71.22265625 78.76953125 C-91.07275464 78.8881927 -91.07275464 78.8881927 -110.92260742 79.03979492 C-113.4119427 79.04855713 -115.90128227 79.05620169 -118.390625 79.0625 C-120.32790466 79.08552185 -120.32790466 79.08552185 -122.30432129 79.10900879 C-124.16111511 79.10955261 -124.16111511 79.10955261 -126.05541992 79.11010742 C-127.12797531 79.11676926 -128.2005307 79.12343109 -129.30558777 79.1302948 C-132.73505974 78.70616061 -134.50068798 77.88748371 -137.22265625 75.76953125 C-140.08135773 71.8790225 -140.58368704 69.16203017 -140.515625 64.375 C-140.50595703 63.17294922 -140.49628906 61.97089844 -140.48632812 60.73242188 C-140.46119141 59.48654297 -140.43605469 58.24066406 -140.41015625 56.95703125 C-140.39662109 55.69181641 -140.38308594 54.42660156 -140.36914062 53.12304688 C-140.33383943 50.00477482 -140.28452444 46.88737083 -140.22265625 43.76953125 C-141.14920743 43.77180957 -141.14920743 43.77180957 -142.09447682 43.77413392 C-178.69485076 43.86362329 -215.29520854 43.93226587 -251.89566947 43.97379257 C-256.28917045 43.97879547 -260.68267122 43.98397275 -265.07617188 43.98925781 C-265.95084814 43.99030705 -266.82552441 43.9913563 -267.72670601 43.99243733 C-281.89407979 44.00984817 -296.06138872 44.04138959 -310.22872402 44.07814243 C-324.76296844 44.11553298 -339.29717887 44.13776311 -353.83146942 44.14588523 C-362.80176672 44.15137693 -371.77188073 44.16872926 -380.74212162 44.20119712 C-386.89123377 44.22232172 -393.040251 44.22873596 -399.18939681 44.22353676 C-402.73853289 44.22097175 -406.28734843 44.22493616 -409.83642769 44.24635315 C-413.68364285 44.26939983 -417.53043933 44.26149202 -421.37771606 44.25054932 C-422.50028687 44.26220068 -423.62285767 44.27385205 -424.77944577 44.28585649 C-430.8964779 44.23867644 -434.61156502 43.94119748 -439.22265625 39.76953125 C-441.9067427 35.74340158 -442.02876031 32.50136207 -441.22265625 27.76953125 C-439.29908752 24.19613242 -437.13443085 22.07345612 -433.22265625 20.76953125 C-431.57630501 20.67870705 -429.92647761 20.64577908 -428.27762318 20.64648342 C-426.7377111 20.64349685 -426.7377111 20.64349685 -425.16668969 20.64044994 C-424.03538037 20.64336278 -422.90407104 20.64627562 -421.73847961 20.64927673 C-420.5394355 20.64842231 -419.34039138 20.64756788 -418.1050126 20.64668757 C-414.77110773 20.64532233 -411.43726122 20.64845867 -408.10336339 20.65346563 C-404.51033552 20.65777541 -400.91730952 20.65632333 -397.32427979 20.65556335 C-391.09720239 20.65503846 -384.87013545 20.65818171 -378.64306068 20.66380119 C-369.63970475 20.67192079 -360.63635388 20.67453189 -351.63299467 20.67578918 C-337.02640439 20.67797898 -322.41981968 20.68463711 -307.81323242 20.6940918 C-293.6224775 20.70326778 -279.43172409 20.71034771 -265.2409668 20.71459961 C-264.36656526 20.71486233 -263.49216373 20.71512506 -262.59126518 20.71539574 C-258.20474421 20.71670076 -253.81822324 20.71796447 -249.43170226 20.71920764 C-213.02868298 20.729578 -176.62567005 20.74719435 -140.22265625 20.76953125 C-140.26072388 19.53323975 -140.26072388 19.53323975 -140.29956055 18.27197266 C-140.31929932 17.19093262 -140.33903809 16.10989258 -140.359375 14.99609375 C-140.39744263 13.38855225 -140.39744263 13.38855225 -140.4362793 11.74853516 C-140.21955188 8.72624031 -139.89969352 7.46861469 -138.03515625 5.14453125 C-132.30306344 0.30409732 -127.05689156 0.46219362 -119.84985352 0.43481445 C-118.80491226 0.42316254 -117.75997101 0.41151062 -116.68336487 0.39950562 C-113.21861344 0.36346071 -109.7539337 0.34160279 -106.2890625 0.3203125 C-103.85700391 0.29902706 -101.42495122 0.27705831 -98.99290466 0.25444031 C-93.87591291 0.20897286 -88.75892783 0.17023112 -83.6418457 0.13647461 C-77.17231334 0.09350169 -70.70300172 0.03654542 -64.2336216 -0.02488518 C-19.38634356 -0.44511047 -19.38634356 -0.44511047 0 0 Z M164.65033948 238.77134061 C163.21369765 238.77218755 161.77705584 238.77306737 160.34041405 238.77397537 C159.53761102 238.77446536 158.73480799 238.77495535 157.90767759 238.77546018 C146.82696044 238.78232494 135.74624379 238.7899459 124.66552734 238.79785156 C123.54110977 238.79865306 122.41669219 238.79945455 121.25820136 238.80028033 C92.03049249 238.82130549 62.80279597 238.84833493 33.57510376 238.88616943 C32.91244861 238.88702694 32.24979347 238.88788445 31.56705786 238.88876795 C17.17798244 238.90741932 2.78890835 238.92696129 -11.60016457 238.9474522 C-18.64604048 238.9574814 -25.69191665 238.9673172 -32.73779297 238.97705078 C-33.43885136 238.97802259 -34.13990975 238.97899439 -34.86221233 238.97999565 C-57.59007022 239.01140914 -80.31791622 239.02987262 -103.04579207 239.04162372 C-127.09516047 239.05412833 -151.14447292 239.08139157 -175.19380701 239.12414432 C-189.5856061 239.14925539 -203.97731745 239.16265027 -218.36913876 239.16096082 C-228.23543253 239.16093104 -238.1016369 239.17557789 -247.96789582 239.20169553 C-253.65682112 239.21632451 -259.34556307 239.22455862 -265.03450394 239.21533394 C-270.24956226 239.20702083 -275.46425281 239.2172737 -280.67925672 239.24186787 C-282.55877644 239.24753112 -284.43833125 239.24656787 -286.31784017 239.2380437 C-307.88300872 239.1486709 -326.51834352 244.24221149 -342.33984375 259.859375 C-353.3320983 271.66049356 -360.28014348 286.60338155 -360.38087463 302.88272095 C-360.39066471 304.09142538 -360.40045479 305.30012981 -360.41054153 306.54546165 C-360.41629574 307.86286654 -360.42204994 309.18027142 -360.42797852 310.53759766 C-360.4375676 311.95544518 -360.44756737 313.37328998 -360.45794296 314.79113197 C-360.48504098 318.6678668 -360.50604806 322.5446138 -360.52592874 326.42139149 C-360.54817484 330.57072302 -360.57579967 334.72001949 -360.60258484 338.86932373 C-360.66526319 348.77983938 -360.71834335 358.69039763 -360.7703495 368.60097408 C-360.79002738 372.31355779 -360.81046479 376.02613713 -360.83094704 379.73871648 C-360.96525188 404.08451144 -361.08227792 428.43036091 -361.18763602 452.77629745 C-361.21375994 458.79479967 -361.24123189 464.81329447 -361.26947021 470.83178711 C-361.34602413 487.24820951 -361.41289736 503.66456897 -361.44566059 520.08114433 C-361.44837594 521.43696977 -361.451098 522.79279519 -361.4538269 524.14862061 C-361.4551556 524.81281435 -361.4564843 525.47700809 -361.45785326 526.16132891 C-361.46785069 530.79811949 -361.48566489 535.43484028 -361.50637817 540.07159424 C-361.53353365 546.25834291 -361.54599993 552.44494536 -361.54679298 558.63175201 C-361.54939846 560.86025441 -361.55700182 563.0887581 -361.57025719 565.3172226 C-361.68701241 585.96947456 -359.5454604 605.01509573 -346.22265625 621.76953125 C-345.68898438 622.46691406 -345.1553125 623.16429687 -344.60546875 623.8828125 C-333.28972918 637.82445336 -317.51370836 644.16878213 -300.22265625 646.76953125 C-293.46653676 647.41229462 -286.68447994 647.3122425 -279.90512085 647.27746582 C-277.91695534 647.28208582 -275.92879325 647.28844606 -273.94063818 647.2963748 C-268.52794446 647.31293993 -263.11553597 647.3048806 -257.70284176 647.29242992 C-251.84592783 647.28332896 -245.98906079 647.29737397 -240.13215637 647.30834961 C-228.67902062 647.32608513 -217.22599004 647.32231721 -205.77285026 647.31069905 C-196.46133807 647.30164629 -187.149852 647.30034342 -177.83833694 647.30479431 C-176.84342671 647.30525262 -176.84342671 647.30525262 -175.82841727 647.30572019 C-173.13551912 647.30696568 -170.44262098 647.3082393 -167.74972286 647.30955925 C-142.52686149 647.32177487 -117.30405731 647.31073329 -92.08120477 647.28917166 C-69.70286892 647.27018708 -47.32462413 647.27189379 -24.94628906 647.29101562 C0.23553563 647.31246142 25.41730988 647.32091269 50.59914243 647.30856657 C53.2863136 647.30728382 55.97348478 647.30603246 58.66065598 647.30479431 C59.32223558 647.304478 59.98381519 647.30416169 60.66544266 647.3038358 C70.62917525 647.29929759 80.59287115 647.30461035 90.55659866 647.31471252 C101.89118318 647.32595257 113.22565694 647.32285007 124.56022884 647.30158955 C130.33845837 647.29110686 136.11650352 647.28690992 141.89473152 647.30018616 C147.19212314 647.3121732 152.48916078 647.30544397 157.78652065 647.28427595 C159.69473027 647.27983658 161.60297028 647.28201553 163.51116009 647.2917791 C185.03215227 647.393381 204.37721536 642.98182119 220.27734375 627.53125 C234.03169743 612.33698742 240.27082918 594.52364289 240.17175293 574.14578247 C240.18088959 572.34414983 240.18088959 572.34414983 240.19021082 570.50612056 C240.20386179 567.21228586 240.20432804 563.91877294 240.19883585 560.6249249 C240.19614425 557.05697862 240.2107369 553.48909382 240.22293091 549.9211731 C240.24389681 542.94684997 240.24853091 535.97261013 240.24674302 528.9982592 C240.2454311 523.32506089 240.24926136 517.65188838 240.25666809 511.97869492 C240.25876747 510.33937896 240.26086507 508.70006299 240.26296091 507.06074703 C240.26400444 506.24461027 240.26504797 505.42847352 240.26612312 504.58760534 C240.28498927 489.18248193 240.28398622 473.77740623 240.27715379 458.37227605 C240.27157902 444.305533 240.29240739 430.23897211 240.32551426 416.17227162 C240.35931498 401.69744314 240.37441179 387.22270178 240.36979723 372.74783313 C240.36755924 364.63373299 240.37269734 356.51980125 240.39768982 348.40573502 C240.41878547 341.49856066 240.42221341 334.5916471 240.40339023 327.68446173 C240.3942835 324.16647553 240.39293152 320.64897451 240.41374588 317.13102722 C240.52292665 294.27789652 238.2081872 275.91862461 221.46484375 258.89453125 C216.36642875 253.90951128 211.2056334 249.93216734 204.77734375 246.76953125 C203.95234375 246.32222656 203.12734375 245.87492188 202.27734375 245.4140625 C193.47497891 240.9473863 183.43771811 238.66250433 173.55514014 238.7392242 C172.76484025 238.74356246 171.97454036 238.74790072 171.16029198 238.75237045 C168.99018271 238.76799849 166.82049407 238.77222055 164.65033948 238.77134061 Z " fill="#030403" transform="translate(572.22265625,158.23046875)"/>
<path d="M0 0 C0.69984646 -0.00367669 1.39969292 -0.00735338 2.12074685 -0.01114148 C4.47749823 -0.02219826 6.83420555 -0.02602553 9.190979 -0.02983093 C10.87610007 -0.0360941 12.56121974 -0.04274077 14.24633789 -0.04974365 C18.83324808 -0.0671675 23.42014784 -0.07770929 28.00708294 -0.08594918 C30.87189351 -0.09109664 33.73670082 -0.0971725 36.60150909 -0.10346031 C45.56202547 -0.12251667 54.52253357 -0.13674659 63.48306632 -0.14507228 C73.83157555 -0.15484589 84.17987095 -0.18116678 94.52830482 -0.22157317 C102.52327907 -0.25172048 110.51819198 -0.26653986 118.51322198 -0.26985329 C123.28995507 -0.27220546 128.06645983 -0.28118736 132.84313202 -0.30631447 C137.33785713 -0.32957587 141.83220329 -0.33383626 146.32697296 -0.32355309 C147.97572591 -0.32305713 149.62449738 -0.32939507 151.27319336 -0.34310913 C153.52665861 -0.36080322 155.77876024 -0.35373552 158.03222656 -0.34057617 C159.29248531 -0.34296453 160.55274406 -0.34535288 161.85119247 -0.34781361 C167.29753098 0.44070411 170.31921009 2.88791011 173.58258057 7.20967102 C175.74388754 10.97194613 176.39581192 13.63329572 176.41725159 17.89587402 C176.42798454 19.36140213 176.42798454 19.36140213 176.43893433 20.85653687 C176.44162323 21.92721909 176.44431213 22.99790131 176.44708252 24.10102844 C176.45365372 25.22978394 176.46022491 26.35853943 176.46699524 27.52149963 C176.48674119 31.26521366 176.49839416 35.00888754 176.50836182 38.75263977 C176.51243734 40.03071314 176.51651287 41.30878651 176.5207119 42.62558937 C176.53942665 48.6932451 176.5539905 54.76087649 176.56232387 60.82855338 C176.57208669 67.82077902 176.59838219 74.81268729 176.63882476 81.80480117 C176.67269426 87.86977321 176.68447475 93.93461249 176.68852806 99.99967384 C176.69339804 102.5748389 176.70502364 105.15000047 176.72356606 107.72510338 C176.74792527 111.33243894 176.74699765 114.93894823 176.74005127 118.54634094 C176.75926636 120.13718254 176.75926636 120.13718254 176.77886963 121.76016235 C176.73472501 128.06109448 175.94322472 132.91205618 172.27008057 138.14717102 C167.51575661 142.66957674 164.00302696 143.27203808 157.57849121 143.28761292 C156.8948301 143.29058404 156.21116899 143.29355516 155.50679088 143.29661632 C153.21075271 143.30530354 150.91476669 143.30681159 148.61871338 143.30830383 C146.974476 143.31293203 145.33023969 143.3179567 143.68600464 143.323349 C139.2147809 143.33647583 134.74357219 143.34291865 130.27233219 143.34735966 C127.47869985 143.35029026 124.68507162 143.35439507 121.89144135 143.35886383 C113.1503715 143.37254024 104.40931105 143.38220588 95.66823125 143.38606572 C85.57900187 143.39054533 75.48990804 143.4080881 65.40071988 143.43706632 C57.6018856 143.45868823 49.80308943 143.46877029 42.00422549 143.47010684 C37.34656741 143.47115461 32.68903673 143.47705634 28.03141022 143.49492645 C23.64833802 143.51141568 19.26548887 143.51355852 14.8823967 143.50478745 C13.27599617 143.50401749 11.66958361 143.50835427 10.06321335 143.5182457 C7.86507957 143.53098425 5.66773349 143.52507872 3.46960449 143.5146637 C1.62679335 143.51686354 1.62679335 143.51686354 -0.25324631 143.51910782 C-5.03225711 143.00784607 -9.00997955 141.65468805 -12.69085693 138.42842102 C-13.15749756 137.84060852 -13.62413818 137.25279602 -14.10491943 136.64717102 C-14.58702881 136.05935852 -15.06913818 135.47154602 -15.56585693 134.86592102 C-17.66412304 131.76780999 -17.8575544 129.06268121 -17.87036133 125.43643188 C-17.87607147 124.4678273 -17.88178162 123.49922272 -17.88766479 122.50126648 C-17.88878265 121.439935 -17.88990051 120.37860352 -17.89105225 119.28511047 C-17.89601715 118.16610855 -17.90098206 117.04710663 -17.90609741 115.89419556 C-17.92073189 112.18294159 -17.92752385 108.47173039 -17.93304443 104.76045227 C-17.93879562 102.18315632 -17.94455336 99.60586038 -17.95031738 97.02856445 C-17.95948712 92.310689 -17.96578539 87.59283067 -17.96881413 82.87494785 C-17.97328895 75.94333983 -17.99081007 69.01192959 -18.01981473 62.08038169 C-18.04409585 56.06773677 -18.05176144 50.05518489 -18.05348969 44.04248619 C-18.0565141 41.48966077 -18.06453548 38.93683614 -18.07767487 36.38404274 C-18.09476453 32.80794515 -18.09284742 29.23232629 -18.08636475 25.65620422 C-18.09557953 24.6049939 -18.10479431 23.55378357 -18.11428833 22.47071838 C-18.07822989 16.10803434 -17.87459429 9.51792047 -13.27794266 4.59080982 C-8.62945171 0.60439651 -6.01718104 0.02042844 0 0 Z " fill="#79D2F4" transform="translate(291.72991943359375,461.8528289794922)"/>
<path d="M0 0 C1.05082804 -0.00445668 1.05082804 -0.00445668 2.12288493 -0.0090034 C4.4819749 -0.01770934 6.84101424 -0.01920024 9.20011902 -0.02069092 C10.88686227 -0.02531777 12.57360448 -0.03034225 14.26034546 -0.03573608 C18.85132502 -0.04887532 23.44228995 -0.05530806 28.03328538 -0.05974674 C30.90009843 -0.06267515 33.76690746 -0.06677953 36.63371849 -0.07125092 C45.59904074 -0.08493016 54.56435383 -0.0945946 63.5296858 -0.09845281 C73.88665608 -0.10293407 84.24349443 -0.12048336 94.60042459 -0.1494534 C102.60047961 -0.17105574 110.60049747 -0.18115632 118.60058135 -0.18249393 C123.38115008 -0.18354304 128.16159486 -0.18947335 132.94213295 -0.20731354 C137.43927185 -0.2237691 141.93619328 -0.225962 146.43335152 -0.21717453 C148.08413016 -0.21640279 149.73492038 -0.22076488 151.38566971 -0.23063278 C153.63929051 -0.24331457 155.89213675 -0.23749658 158.14575195 -0.22705078 C159.4069325 -0.22851734 160.66811304 -0.2299839 161.96751118 -0.2314949 C167.38168164 0.37949624 170.74095973 3.11485137 174.26335144 7.14044189 C175.24227541 10.0772138 175.39566733 11.98722111 175.41052246 15.04772949 C175.42125542 16.56591026 175.42125542 16.56591026 175.4322052 18.11476135 C175.4348941 19.22441757 175.43758301 20.33407379 175.44035339 21.47735596 C175.44692459 22.64673203 175.45349579 23.81610809 175.46026611 25.0209198 C175.48001252 28.89929552 175.49166694 32.77765771 175.50163269 36.65606689 C175.5056813 37.99288707 175.50979825 39.32970704 175.51398277 40.66652679 C175.53302997 46.94828386 175.54726139 53.23002921 175.55559474 59.51180959 C175.56536267 66.75477238 175.59167214 73.9974292 175.63209563 81.2402842 C175.66229273 86.84380734 175.67706704 92.44724296 175.68037575 98.05084586 C175.68272243 101.39521281 175.69361443 104.73899351 175.71683693 108.08332062 C175.7411574 111.81777863 175.74027571 115.55143691 175.73332214 119.28594971 C175.75253723 120.93828865 175.75253723 120.93828865 175.7721405 122.62400818 C175.72877019 129.01604997 175.24219626 133.03616918 171.26335144 138.14044189 C166.77099511 142.07586977 162.94939242 142.72581016 157.15934753 142.68634033 C156.36223547 142.69666385 155.56512341 142.70698736 154.74385643 142.71762371 C152.09129809 142.74715208 149.43949967 142.74851873 146.78678894 142.74981689 C144.89381011 142.76508601 143.00084436 142.78205737 141.1078949 142.8006134 C136.00925759 142.84538675 130.91080706 142.86536759 125.81200409 142.879673 C120.51365052 142.89765146 115.21542743 142.93487012 109.91716003 142.96929932 C101.2637009 143.02262317 92.61028391 143.06043441 83.95671082 143.08917236 C74.86225537 143.11986484 65.76843382 143.17856639 56.67429924 143.26007271 C49.56140044 143.32366814 42.44852429 143.37356873 35.33543587 143.41044426 C31.21905469 143.43191191 27.10291112 143.45890128 22.98667908 143.50042725 C19.152731 143.53833331 15.31918345 143.55660004 11.48505402 143.5596447 C10.09754777 143.5639499 8.71004189 143.57504075 7.32265472 143.59372139 C-0.47416618 143.6943367 -6.12128902 143.46328655 -12.73664856 139.14044189 C-16.4151423 135.1789871 -17.85771089 132.73096076 -17.88381958 127.39137268 C-17.89097488 126.38904099 -17.89813019 125.38670929 -17.90550232 124.35400391 C-17.90819122 123.25010315 -17.91088013 122.14620239 -17.91365051 121.0088501 C-17.92022171 119.84937363 -17.92679291 118.68989716 -17.93356323 117.49528503 C-17.95333349 113.64393047 -17.96496768 109.79261498 -17.97492981 105.94122314 C-17.97900534 104.62788687 -17.98308086 103.31455059 -17.98727989 101.96141624 C-18.00633582 95.72664215 -18.02056402 89.4918799 -18.02889186 83.25708228 C-18.0386557 76.06617879 -18.0649508 68.87558383 -18.10539275 61.684789 C-18.13559212 56.12374849 -18.15036448 50.5627962 -18.15367287 45.00167531 C-18.15601976 41.68193614 -18.16691422 38.36260107 -18.19013405 35.04293251 C-18.21445749 31.33470709 -18.21357214 27.62728698 -18.20661926 23.91900635 C-18.21942932 22.82522675 -18.23223938 21.73144714 -18.24543762 20.60452271 C-18.20179512 14.21616554 -17.54384931 10.33446421 -13.73664856 5.14044189 C-8.93712436 0.79801524 -6.41854566 0.01515259 0 0 Z " fill="#79D2F5" transform="translate(573.7366485595703,461.85955810546875)"/>
<path d="M0 0 C0.71703411 -0.00367669 1.43406822 -0.00735338 2.17283064 -0.01114148 C4.5761296 -0.02215643 6.97938529 -0.02601851 9.38270569 -0.02983093 C11.10602454 -0.03609748 12.82934205 -0.04274445 14.55265808 -0.04974365 C20.21482912 -0.07077218 25.87700037 -0.08114821 31.53919983 -0.09111023 C33.49159319 -0.09515891 35.4439864 -0.09927586 37.39637947 -0.10346031 C46.57421545 -0.12251312 55.75204339 -0.13674126 64.92989534 -0.14507228 C75.50470469 -0.15483089 86.07930395 -0.18111405 96.65403932 -0.22157317 C104.83854593 -0.25180596 113.02299259 -0.26654813 121.20755392 -0.26985329 C126.09011349 -0.27219654 130.97244866 -0.28106153 135.85494804 -0.30631447 C140.4555987 -0.32972434 145.0558793 -0.33377691 149.65657425 -0.32355309 C151.33625207 -0.32306066 153.01594891 -0.32929358 154.69556999 -0.34310913 C166.39216044 -0.43385802 179.47716101 -0.32429106 188.38685608 8.39717102 C195.97138422 15.89551134 200.05629268 23.40345018 200.19915771 34.17471313 C200.2013179 35.08013351 200.20347809 35.98555389 200.20570374 36.91841125 C200.22077217 38.37123505 200.22077217 38.37123505 200.23614502 39.85340881 C200.26700647 43.05418847 200.28404534 46.25488328 200.30091858 49.45576477 C200.31966035 51.70138232 200.33923592 53.94699305 200.35960388 56.19259644 C200.4109738 62.11682472 200.45051675 68.04107662 200.48774719 73.96540833 C200.52735988 79.91212569 200.57891468 85.85873793 200.62904358 91.80537415 C200.72512894 103.58026189 200.81695165 115.35511057 200.87099457 127.13027573 C200.88746978 130.26389739 200.9115599 133.39741699 200.93537903 136.5309906 C200.94609455 138.59453653 200.95646269 140.65808431 200.96644592 142.72163391 C200.97975165 144.13252997 200.97975165 144.13252997 200.99332619 145.57192898 C201.03350288 158.10983894 198.65402348 168.13347657 189.74232483 177.36982727 C181.74873176 184.87318295 174.53042629 187.26249524 163.5953064 187.28761292 C162.87121761 187.29058404 162.14712882 187.29355516 161.40109795 187.29661632 C158.9800791 187.30527267 156.55910987 187.30680897 154.13807678 187.30830383 C152.3998911 187.31293422 150.66170644 187.31795917 148.92352295 187.323349 C144.20429021 187.33645471 139.48507169 187.34291452 134.7658236 187.34735966 C131.81503309 187.35029364 128.86424644 187.35439909 125.91345787 187.35886383 C116.67422641 187.37253462 107.4350038 187.38220304 98.19576293 187.38606572 C87.54343169 187.39054406 76.89122891 187.40808335 66.23893672 187.43706632 C57.99670695 187.45871061 49.75451325 187.46877149 41.51225537 187.47010684 C36.5935215 187.471153 31.67490846 187.47702035 26.75620461 187.49492645 C22.12604672 187.51145443 17.49609988 187.51353976 12.86592293 187.50478745 C11.17209049 187.50401957 9.47824647 187.50832671 7.7844429 187.5182457 C-6.51681925 187.59704333 -17.11922608 186.06935473 -28.11314392 176.14717102 C-35.8592712 167.11002253 -37.56212824 158.15186769 -37.51719666 146.57173157 C-37.52405991 145.33002197 -37.53092316 144.08831238 -37.53799438 142.80897522 C-37.55310235 139.42226784 -37.5547719 136.03611359 -37.549052 132.64941382 C-37.54594771 129.81178569 -37.55206657 126.97420665 -37.55809075 124.13658553 C-37.57210995 117.43540076 -37.57059752 110.73434354 -37.55918884 104.03315735 C-37.54772024 97.14504271 -37.56176775 90.25731802 -37.58858532 83.36925477 C-37.61082072 77.4334865 -37.61736185 71.49783991 -37.61150891 65.562033 C-37.60815554 62.02657817 -37.61044483 58.49137297 -37.62775993 54.9559536 C-37.64625612 51.00741472 -37.6319616 47.05934628 -37.61485291 43.11079407 C-37.62935486 41.37960075 -37.62935486 41.37960075 -37.64414978 39.61343384 C-37.53500494 27.52724952 -33.87261581 18.15037387 -25.48814392 9.46357727 C-18.17388351 2.67418277 -9.81359441 0.03264469 0 0 Z M-12.42564392 28.70967102 C-14.85548913 32.21944743 -15.23997742 34.86212517 -15.26031494 39.02322388 C-15.26747025 40.0283754 -15.27462555 41.03352692 -15.28199768 42.06913757 C-15.28468658 43.1710141 -15.28737549 44.27289063 -15.29014587 45.40815735 C-15.29671707 46.56938614 -15.30328827 47.73061493 -15.31005859 48.92703247 C-15.32980297 52.77775636 -15.34145595 56.62844125 -15.35142517 60.47920227 C-15.3555007 61.79286963 -15.35957623 63.10653698 -15.36377525 64.46001244 C-15.38282059 70.6942471 -15.39705331 76.92846997 -15.40538722 83.16272813 C-15.41515936 90.35363133 -15.44148059 97.54422668 -15.48188812 104.73502141 C-15.51206744 110.29691572 -15.52685777 115.85872185 -15.53016824 121.42069644 C-15.53251658 124.74094769 -15.5434264 128.06079491 -15.56662941 131.38097572 C-15.5909211 135.08690159 -15.59007363 138.79202035 -15.58311462 142.4980011 C-15.59592468 143.59380493 -15.60873474 144.68960876 -15.62193298 145.81861877 C-15.58017225 151.91456546 -15.23747094 155.53749893 -11.11314392 160.14717102 C-5.84642574 164.12408067 -2.27381589 165.27210553 4.25062561 165.27656555 C4.89994993 165.27828105 5.54927425 165.27999655 6.21827507 165.28176403 C8.40209739 165.28611595 10.58584504 165.28311377 12.76966858 165.27998352 C14.33900481 165.28121414 15.90834081 165.28278426 17.47767639 165.28466797 C22.65575372 165.28860352 27.83378709 165.28099934 33.01185608 165.27217102 C33.89458946 165.27090084 34.77732285 165.26963066 35.68680573 165.26832199 C47.05431067 165.25193746 58.4217149 165.21968188 69.78915215 165.17761707 C76.97015373 165.15172147 84.15113152 165.13689012 91.33216858 165.12519836 C100.58098349 165.10915995 109.82948727 165.07199103 119.07812309 165.01186752 C124.03137219 164.97993728 128.98434084 164.95601508 133.93769836 164.9521637 C138.61475778 164.94796736 143.29108232 164.91994961 147.96791077 164.87386513 C149.68871299 164.8609223 151.40960258 164.85640396 153.13044739 164.86098289 C155.49034771 164.86587523 157.84803094 164.83998019 160.20765686 164.80659485 C161.2276134 164.81953425 161.2276134 164.81953425 162.26817513 164.83273506 C167.7048481 164.7031183 171.08325799 162.83937922 174.88685608 159.14717102 C178.86821346 153.77691414 178.31037968 147.85109852 178.27503967 141.4379425 C178.28029663 140.26491577 178.28555359 139.09188904 178.29096985 137.88331604 C178.30415818 134.01149627 178.29543601 130.14008862 178.28529358 126.26826477 C178.28596181 123.57596505 178.29022156 120.88367264 178.29399109 118.19137573 C178.29944175 112.55167688 178.29227444 106.91209607 178.27796936 101.27241516 C178.26163614 94.75804235 178.26693881 88.24395113 178.28344858 81.72958511 C178.29707374 76.12855862 178.29897834 70.52761677 178.29113257 64.92657906 C178.28646265 61.58468841 178.2869954 58.24303625 178.29574203 54.9011364 C178.30335221 51.17623158 178.29175775 47.45186937 178.27503967 43.727005 C178.28414871 42.07094994 178.28414871 42.07094994 178.29344177 40.38143921 C178.23699611 33.60009791 177.45833489 30.04008468 172.88685608 24.89717102 C169.21505218 21.68434261 165.72336435 22.01592303 161.03668213 22 C159.9856308 21.99448497 159.9856308 21.99448497 158.91334611 21.98885852 C156.55970077 21.97782405 154.20609959 21.97397827 151.85243225 21.97016907 C150.16716369 21.9639043 148.48189652 21.95725749 146.79663086 21.95025635 C142.21391197 21.93284952 137.63120352 21.92229571 133.04845977 21.91405082 C130.18582144 21.90890056 127.32318635 21.90282488 124.46055031 21.89653969 C115.50537672 21.87748949 106.55021138 21.86325732 97.59502143 21.85492772 C87.25501229 21.84515136 76.915217 21.81882074 66.57528323 21.77842683 C58.58453507 21.74828039 50.59384826 21.73346029 42.60304433 21.73014671 C37.82967952 21.72779479 33.05654322 21.7188158 28.28323936 21.69368553 C23.79260478 21.67042513 19.30234949 21.66616333 14.8116703 21.67644691 C13.16452906 21.67694286 11.51736926 21.67060507 9.87028503 21.65689087 C7.61906238 21.63919675 5.36920469 21.64626442 3.11798096 21.65942383 C1.85902102 21.65703547 0.60006109 21.65464712 -0.69704914 21.65218639 C-5.90495632 22.4068007 -8.96022722 24.86961468 -12.42564392 28.70967102 Z " fill="#030403" transform="translate(571.1131439208984,439.8528289794922)"/>
<path d="M0 0 C0.71915081 -0.00297112 1.43830162 -0.00594224 2.17924488 -0.0090034 C4.58955029 -0.01767637 6.99980595 -0.01919748 9.41012573 -0.02069092 C11.13831183 -0.02532018 12.8664969 -0.03034499 14.59468079 -0.03573608 C19.29124619 -0.04885399 23.98779729 -0.05530418 28.68437815 -0.05974674 C31.62058994 -0.06267922 34.55679783 -0.06678442 37.49300766 -0.07125092 C46.68525618 -0.08492594 55.87749578 -0.09459185 65.06975377 -0.09845281 C75.67002487 -0.10292988 86.2701668 -0.1204615 96.87039864 -0.1494534 C105.07014577 -0.17109879 113.26985664 -0.18115866 121.46963203 -0.18249393 C126.36378883 -0.18354016 131.2578242 -0.18940892 136.15195084 -0.20731354 C140.75993483 -0.22384302 145.36770676 -0.22592612 149.97570992 -0.21717453 C151.66147875 -0.21640669 153.34725921 -0.22071333 155.03299904 -0.23063278 C170.23002832 -0.3147692 181.27704488 1.88963289 192.6791687 12.51544189 C201.24148422 21.53362143 202.1744837 32.4858959 202.04953003 44.38043213 C202.04488739 45.58634003 202.04024475 46.79224792 202.03546143 48.03469849 C202.02029365 51.32202931 201.9958839 54.60911767 201.96632218 57.89634585 C201.94268548 60.64961907 201.92530283 63.40291814 201.90782374 66.15623623 C201.86637881 72.65603101 201.81412816 79.15567743 201.75509644 85.65533447 C201.69456479 92.34107857 201.65231173 99.02676183 201.61907178 105.71269268 C201.58978722 111.47185713 201.54906331 117.23086483 201.49930781 122.98988873 C201.46977565 126.42122903 201.4444555 129.85246241 201.43018532 133.28390312 C201.41109445 137.1132254 201.3732808 140.94193259 201.33078003 144.77105713 C201.32907303 145.8949736 201.32736603 147.01889008 201.3256073 148.17686462 C201.15634749 159.72431664 197.90391671 168.55789407 190.05026245 177.12091064 C182.37891111 184.38932232 173.1747349 187.25288668 162.78475952 187.28761292 C162.0711034 187.2912896 161.35744727 187.29496629 160.6221652 187.29875439 C158.23035176 187.30976881 155.83858181 187.31363131 153.44674683 187.31744385 C151.73165754 187.32371038 150.01656961 187.33035735 148.30148315 187.33735657 C142.66697126 187.35838335 137.03245915 187.36876021 131.3979187 187.37872314 C129.45540859 187.38277174 127.51289862 187.38688869 125.57038879 187.39107323 C116.4400752 187.41012479 107.30976967 187.42435381 98.17944002 187.4326852 C87.65669072 187.44244663 77.13415239 187.46873772 66.61147738 187.50918609 C58.46859962 187.53940689 50.32578212 187.55415987 42.18284941 187.55746621 C37.3243546 187.55981061 32.46608516 187.56869088 27.60765076 187.59392738 C23.03080511 187.61731653 18.45433147 187.62139803 13.87744141 187.611166 C12.20540627 187.61067309 10.53335215 187.6169205 8.8613739 187.63072205 C-3.70766666 187.72859681 -15.13555038 186.66339426 -25.09817505 178.18341064 C-33.97432046 169.27319173 -37.43776483 159.67779145 -37.53991699 147.22380066 C-37.5338443 146.12846512 -37.52777161 145.03312958 -37.52151489 143.90460205 C-37.52677185 142.72272812 -37.53202881 141.54085419 -37.53744507 140.32316589 C-37.5505775 136.44180831 -37.5419294 132.56086568 -37.5317688 128.67950439 C-37.53243842 125.96485059 -37.53670119 123.250204 -37.54046631 120.53555298 C-37.54590739 114.85497606 -37.53877734 109.17451656 -37.52444458 103.49395752 C-37.50813692 96.95578314 -37.51339938 90.41788976 -37.5299238 83.87972224 C-37.54360479 78.23774195 -37.54542578 72.59584551 -37.53760779 66.95385396 C-37.53296529 63.59670966 -37.53341356 60.23980127 -37.54221725 56.88264847 C-37.54989157 53.13326674 -37.53814261 49.38441349 -37.52151489 45.6350708 C-37.52758759 44.54378372 -37.53366028 43.45249664 -37.53991699 42.32814026 C-37.43833232 29.87561347 -34.94544701 19.38370417 -26.2817688 10.17169189 C-18.64283581 2.98926885 -10.35987532 0.02391551 0 0 Z M-12.4458313 29.14044189 C-14.7383657 33.21605861 -15.25742096 36.34559084 -15.27377319 40.9848938 C-15.27948334 41.95776337 -15.28519348 42.93063293 -15.29107666 43.9329834 C-15.29219452 44.99386169 -15.29331238 46.05473999 -15.29446411 47.14776611 C-15.29942902 48.27012665 -15.30439392 49.39248718 -15.30950928 50.54885864 C-15.32412273 54.26428844 -15.3309311 57.97967557 -15.3364563 61.69512939 C-15.34220782 64.27578737 -15.34796555 66.85644533 -15.35372925 69.43710327 C-15.36289368 74.15747581 -15.36919535 78.87783127 -15.372226 83.59821117 C-15.37670683 90.53831892 -15.39425977 97.47822974 -15.42322659 104.41827762 C-15.44747223 110.43680479 -15.45517144 116.45523897 -15.45690155 122.47381973 C-15.45992983 125.03108925 -15.46796423 127.58835791 -15.48108673 130.14559555 C-15.49813103 133.72199202 -15.49627076 137.29790807 -15.48977661 140.87432861 C-15.49899139 141.93115845 -15.50820618 142.98798828 -15.5177002 144.07684326 C-15.48137807 150.45869901 -14.89917032 155.07940891 -10.44973755 160.00372314 C-9.58155396 160.72108643 -9.58155396 160.72108643 -8.6958313 161.45294189 C-8.11962036 161.94407471 -7.54340942 162.43520752 -6.94973755 162.94122314 C-3.02579746 165.53186746 1.09499016 165.26975918 5.6852417 165.28088379 C6.3704628 165.28385491 7.0556839 165.28682603 7.76166928 165.28988719 C10.05693539 165.29855641 12.35214924 165.30008092 14.64743042 165.30157471 C16.29343782 165.30620408 17.93944414 165.3112289 19.58544922 165.31661987 C24.0565466 165.32973294 28.52762898 165.3361865 32.99874258 165.34063053 C35.792205 165.34356254 38.58566333 165.34766755 41.37912369 165.3521347 C50.1196541 165.36580569 58.86017515 165.37547475 67.60071552 165.3793366 C77.68994482 165.38381892 87.77903875 165.40137655 97.86822689 165.43033719 C105.66791495 165.45194889 113.46756491 165.46204057 121.26728261 165.46337771 C125.92545281 165.46442595 130.58349569 165.47033793 135.24163437 165.48819733 C139.6230752 165.50466954 144.00429288 165.50683768 148.38575363 165.49805832 C149.99257505 165.49728753 151.59940842 165.50163615 153.20619965 165.51151657 C155.40244144 165.52422829 157.59789186 165.51836421 159.79412842 165.50793457 C161.02229216 165.50940113 162.25045589 165.51086769 163.51583672 165.51237869 C168.44459091 164.96529514 171.71628523 163.35473556 175.1166687 159.76544189 C177.882199 155.61714645 179.11438283 152.13716754 179.13409424 147.15122986 C179.14262421 146.17146179 179.15115417 145.19169373 179.15994263 144.18223572 C179.15903625 143.11874405 179.15812988 142.05525238 179.15719604 140.95953369 C179.16391327 139.83048615 179.17063049 138.7014386 179.17755127 137.53817749 C179.19655079 133.80529378 179.20045655 130.0725897 179.2026062 126.33966064 C179.20903294 123.74280219 179.21576121 121.14594446 179.22277832 118.54908752 C179.23475613 113.10433974 179.23854433 107.65966313 179.23727417 102.21490479 C179.23607361 95.9351643 179.25716161 89.65576798 179.2887615 83.37611455 C179.31813949 77.32072869 179.32524826 71.26552863 179.32405472 65.21006203 C179.32641256 62.64048673 179.33524633 60.0709088 179.35071945 57.50137901 C179.3703539 53.90380834 179.36455022 50.3071191 179.35250854 46.70953369 C179.36374756 45.65211472 179.37498657 44.59469574 179.38656616 43.50523376 C179.33323492 37.22277493 178.54141016 32.355447 174.8666687 27.14044189 C170.14014076 22.75152309 167.5108612 22.0149111 161.13674927 21.99327087 C160.43690281 21.98959419 159.73705635 21.9859175 159.01600242 21.9821294 C156.65925104 21.97107261 154.30254372 21.96724535 151.94577026 21.96343994 C150.2606492 21.95717677 148.57552953 21.9505301 146.89041138 21.94352722 C142.30350118 21.92610338 137.71660143 21.91556159 133.12966633 21.90732169 C130.26485576 21.90217423 127.40004845 21.89609837 124.53524017 21.88981056 C115.5747238 21.87075421 106.61421569 21.85652429 97.65368295 21.84819859 C87.30517372 21.83842498 76.95687832 21.81210409 66.60844445 21.7716977 C58.6134702 21.74155039 50.61855729 21.72673102 42.62352729 21.72341758 C37.8467942 21.72106541 33.07028944 21.71208351 28.29361725 21.68695641 C23.79889214 21.66369501 19.30454598 21.65943462 14.80977631 21.66971779 C13.16102336 21.67021374 11.51225189 21.6638758 9.86355591 21.65016174 C7.61009066 21.63246766 5.35798903 21.63953535 3.10452271 21.6526947 C1.84426395 21.65030635 0.5840052 21.647918 -0.71444321 21.64545727 C-6.1287307 22.42933466 -9.15925012 24.87676901 -12.4458313 29.14044189 Z " fill="#030403" transform="translate(289.1333312988281,439.85955810546875)"/>
<path d="M0 0 C53.46 0 106.92 0 162 0 C162 8.58 162 17.16 162 26 C81.81 26.495 81.81 26.495 0 27 C0 18.09 0 9.18 0 0 Z " fill="#535855" transform="translate(431,348)"/>
<path d="M0 0 C38.28 0 76.56 0 116 0 C116 10.56 116 21.12 116 32 C77.72 32 39.44 32 0 32 C0 21.44 0 10.88 0 0 Z " fill="#545855" transform="translate(454,182)"/>
<path d="M0 0 C1.98 0 3.96 0 6 0 C6.33 3.96 6.66 7.92 7 12 C7.33 12 7.66 12 8 12 C8.32871094 13.90458984 8.32871094 13.90458984 8.6640625 15.84765625 C11.14907712 29.58020874 14.45066495 42.2459668 22.21484375 54.0703125 C23 56 23 56 22 61 C14.74 61 7.48 61 0 61 C0 40.87 0 20.74 0 0 Z " fill="#F4F4F4" transform="translate(181,733)"/>
<path d="M0 0 C0.8340033 -0.00095673 1.66800659 -0.00191345 2.52728271 -0.00289917 C4.28218664 -0.00357747 6.03709313 -0.00174767 7.79199219 0.00244141 C10.48898878 0.0078217 13.18582088 0.00247078 15.8828125 -0.00390625 C17.58854204 -0.00324594 19.29427147 -0.00196574 21 0 C21.81035706 -0.00202423 22.62071411 -0.00404846 23.45562744 -0.00613403 C29.11940611 0.01784361 29.11940611 0.01784361 30.234375 1.1328125 C32.3197932 1.2566759 34.40937641 1.31080317 36.49829102 1.33813477 C37.15192627 1.34803436 37.80556152 1.35793396 38.47900391 1.36813354 C40.64872564 1.39982884 42.8184693 1.42453742 44.98828125 1.44921875 C46.48901452 1.46978137 47.9897419 1.49077765 49.49046326 1.51219177 C53.44749193 1.56748405 57.40457349 1.61686161 61.36169434 1.66503906 C65.3967766 1.715202 69.43178172 1.77091518 73.46679688 1.82617188 C81.38925777 1.9338409 89.31178304 2.03526629 97.234375 2.1328125 C97.234375 2.4628125 97.234375 2.7928125 97.234375 3.1328125 C59.614375 3.1328125 21.994375 3.1328125 -16.765625 3.1328125 C-11.49079211 -0.38374276 -6.13583097 -0.01548169 0 0 Z " fill="#E5E5E5" transform="translate(456.765625,155.8671875)"/>
<path d="M0 0 C20.13 0 40.26 0 61 0 C61 0.33 61 0.66 61 1 C55.15085233 1.14475611 49.30165153 1.28705843 43.45239258 1.42724609 C41.46930393 1.47510101 39.48623036 1.52358585 37.50317383 1.57275391 C25.99951551 1.85751231 14.507581 2.08115837 3 2 C2.67 2.66 2.34 3.32 2 4 C1.34 4 0.68 4 0 4 C0 2.68 0 1.36 0 0 Z " fill="#EEEFF0" transform="translate(243,204)"/>
<path d="M0 0 C18.48 0 36.96 0 56 0 C55.34 0.33 54.68 0.66 54 1 C54 1.66 54 2.32 54 3 C52.33388095 3.042721 50.66617115 3.04063832 49 3 C48.505 2.505 48.505 2.505 48 2 C46.49683231 1.8775669 44.98811833 1.82223715 43.48022461 1.79467773 C42.51930405 1.77473251 41.55838348 1.75478729 40.56834412 1.73423767 C39.523564 1.71752518 38.47878387 1.70081268 37.40234375 1.68359375 C36.33834854 1.66281265 35.27435333 1.64203156 34.17811584 1.62062073 C30.7646456 1.55500746 27.35109571 1.49618577 23.9375 1.4375 C21.62954891 1.39432597 19.321606 1.35071206 17.01367188 1.30664062 C11.34253318 1.19931416 5.67131448 1.09757008 0 1 C0 0.67 0 0.34 0 0 Z " fill="#72C7E9" transform="translate(596,602)"/>
<path d="M0 0 C0.33 0 0.66 0 1 0 C1.16858098 2.0831793 1.33479255 4.16655044 1.5 6.25 C1.5928125 7.41015625 1.685625 8.5703125 1.78125 9.765625 C1.94404644 12.17268658 2 14.58743951 2 17 C1.34 17 0.68 17 0 17 C-0.144375 18.216875 -0.28875 19.43375 -0.4375 20.6875 C-0.82780953 23.82670377 -1.32351856 26.9075134 -2 30 C-2.99 30 -3.98 30 -5 30 C-4.01 23.07 -3.02 16.14 -2 9 C-1.67 9 -1.34 9 -1 9 C-0.67 6.03 -0.34 3.06 0 0 Z " fill="#EFF0F0" transform="translate(837,732)"/>
<path d="M0 0 C0 1.98 0 3.96 0 6 C-3.96 6 -7.92 6 -12 6 C-11.67 4.35 -11.34 2.7 -11 1 C-7.26562152 0.12132271 -3.83225427 -0.08912219 0 0 Z " fill="#F3F4F5" transform="translate(499,238)"/>
<path d="M0 0 C-1.0106678 3.03200339 -1.63493157 3.99878825 -4 6 C-4.99 6.33 -5.98 6.66 -7 7 C-6.67 7.66 -6.34 8.32 -6 9 C-7.98 9 -9.96 9 -12 9 C-12.33 9.66 -12.66 10.32 -13 11 C-12.84817368 8.34303932 -12.52675976 6.55765476 -10.66796875 4.58984375 C-6.82990799 1.38679061 -5.02497429 0 0 0 Z " fill="#7ED5ED" transform="translate(289,462)"/>
<path d="M0 0 C0.98613281 0.04833984 1.97226562 0.09667969 2.98828125 0.14648438 C4.53708984 0.2305957 4.53708984 0.2305957 6.1171875 0.31640625 C7.15746094 0.36861328 8.19773437 0.42082031 9.26953125 0.47460938 C11.84403866 0.60451571 14.41818046 0.73948877 16.9921875 0.87890625 C16.6621875 1.53890625 16.3321875 2.19890625 15.9921875 2.87890625 C8.7321875 2.87890625 1.4721875 2.87890625 -6.0078125 2.87890625 C-6.3378125 2.21890625 -6.6678125 1.55890625 -7.0078125 0.87890625 C-4.45798817 -0.39600591 -2.84315826 -0.14705991 0 0 Z " fill="#89E5F9" transform="translate(579.0078125,602.12109375)"/>
<path d="M0 0 C0.33 0.66 0.66 1.32 1 2 C1.66 2.33 2.32 2.66 3 3 C3 3.66 3 4.32 3 5 C4.093125 5.680625 5.18625 6.36125 6.3125 7.0625 C6.92738281 7.44535156 7.54226562 7.82820312 8.17578125 8.22265625 C10.17133075 9.31112074 10.17133075 9.31112074 13 8 C13.33 7.34 13.66 6.68 14 6 C14.66 6.33 15.32 6.66 16 7 C15.34 8.65 14.68 10.3 14 12 C15.32 12.66 16.64 13.32 18 14 C10.88988798 12.91606278 4.20938083 9.36352367 -0.6875 4.125 C-1.120625 3.42375 -1.55375 2.7225 -2 2 C-1.34 2 -0.68 2 0 2 C0 1.34 0 0.68 0 0 Z " fill="#F2C655" transform="translate(237,786)"/>
<path d="M0 0 C0.66 0.66 1.32 1.32 2 2 C4.85644346 2.38259821 7.68904624 2.50658238 10.56640625 2.65625 C11.36949219 2.7696875 12.17257812 2.883125 13 3 C13.33 3.66 13.66 4.32 14 5 C7.4 5 0.8 5 -6 5 C-3 3 -3 3 -1 3 C-0.67 2.01 -0.34 1.02 0 0 Z " fill="#87E2F7" transform="translate(297,600)"/>
<path d="M0 0 C0.33 0 0.66 0 1 0 C2.05556451 5.7626003 1.94831638 11.1059076 1.5625 16.9375 C1.51029297 17.81212891 1.45808594 18.68675781 1.40429688 19.58789062 C1.2757979 21.72564632 1.13877359 23.86288669 1 26 C1.66 26.33 2.32 26.66 3 27 C1.02 27.99 1.02 27.99 -1 29 C-1.33 27.02 -1.66 25.04 -2 23 C-1.67 23 -1.34 23 -1 23 C-0.67 15.41 -0.34 7.82 0 0 Z " fill="#EAAD48" transform="translate(773,570)"/>
<path d="M0 0 C0.66 1.32 1.32 2.64 2 4 C2.99 4 3.98 4 5 4 C4.9278125 4.71542969 4.855625 5.43085937 4.78125 6.16796875 C5.06090779 9.78853839 6.3432338 11.42397383 8.5 14.3125 C9.1496875 15.19550781 9.799375 16.07851563 10.46875 16.98828125 C10.9740625 17.65214844 11.479375 18.31601562 12 19 C11.67 19.66 11.34 20.32 11 21 C0 7.46735395 0 7.46735395 0 0 Z " fill="#F1CF58" transform="translate(216,760)"/>
<path d="M0 0 C0.66 0.66 1.32 1.32 2 2 C4.21072977 2.24253813 4.21072977 2.24253813 6.625 2.125 C7.44226563 2.10695313 8.25953125 2.08890625 9.1015625 2.0703125 C9.72804688 2.04710937 10.35453125 2.02390625 11 2 C10.67 2.66 10.34 3.32 10 4 C7.23434618 4.92188461 5.61716298 5.11785222 2.76953125 5.09765625 C1.96708984 5.09443359 1.16464844 5.09121094 0.33789062 5.08789062 C-0.49548828 5.07951172 -1.32886719 5.07113281 -2.1875 5.0625 C-3.03248047 5.05798828 -3.87746094 5.05347656 -4.74804688 5.04882812 C-6.83206155 5.03705403 -8.91603977 5.0191189 -11 5 C-11 4.67 -11 4.34 -11 4 C-7.7 3.67 -4.4 3.34 -1 3 C-0.67 2.01 -0.34 1.02 0 0 Z " fill="#8EE8F9" transform="translate(449,600)"/>
<path d="M0 0 C5.59282842 1.36410449 8.91193811 4.15383526 13 8 C10 9 10 9 6 9 C5.7525 8.443125 5.505 7.88625 5.25 7.3125 C3.78393985 4.60028873 1.97010529 2.36412635 0 0 Z " fill="#F4CB57" transform="translate(777,406)"/>
<path d="M0 0 C0.33 0 0.66 0 1 0 C1 1.98 1 3.96 1 6 C1.66 6 2.32 6 3 6 C3 7.65 3 9.3 3 11 C2.67 11 2.34 11 2 11 C1.67 14.96 1.34 18.92 1 23 C0.67 23 0.34 23 0 23 C0 15.41 0 7.82 0 0 Z " fill="#71CAF2" transform="translate(557,490)"/>
<path d="M0 0 C3.21236808 1.07078936 3.86817512 1.72509432 5.9375 4.25 C6.45441406 4.87519531 6.97132813 5.50039063 7.50390625 6.14453125 C7.99761719 6.75683594 8.49132812 7.36914062 9 8 C9.78375 8.969375 10.5675 9.93875 11.375 10.9375 C11.91125 11.618125 12.4475 12.29875 13 13 C12.67 13.66 12.34 14.32 12 15 C11.40832031 14.32453125 10.81664062 13.6490625 10.20703125 12.953125 C9.41683594 12.06109375 8.62664063 11.1690625 7.8125 10.25 C7.03519531 9.36828125 6.25789062 8.4865625 5.45703125 7.578125 C3.11544754 5.12113732 0.69841735 3.05137234 -2 1 C-1.34 0.67 -0.68 0.34 0 0 Z " fill="#F4CE57" transform="translate(754,442)"/>
<path d="M0 0 C2.97 0.495 2.97 0.495 6 1 C3.17493137 3.9297008 0.21203935 6.50174717 -3 9 C-2.5020163 5.26512223 -2.12508244 3.18762365 0 0 Z " fill="#F0F2F0" transform="translate(227,384)"/>
<path d="M0 0 C2.97 0.495 2.97 0.495 6 1 C6.33 2.65 6.66 4.3 7 6 C6.01 6.33 5.02 6.66 4 7 C2 5.1875 2 5.1875 0 3 C0 2.01 0 1.02 0 0 Z " fill="#E7E6E7" transform="translate(809,399)"/>
<path d="M0 0 C0.33 0.66 0.66 1.32 1 2 C1.66 2 2.32 2 3 2 C2.67 3.65 2.34 5.3 2 7 C0.02 6.34 -1.96 5.68 -4 5 C-3 2 -3 2 0 0 Z " fill="#F7C251" transform="translate(241,409)"/>
<path d="M0 0 C1.04449911 3.13349732 0.93423645 3.98968256 0 7 C-0.99 6.34 -1.98 5.68 -3 5 C-3.99 5 -4.98 5 -6 5 C-5.67 3.68 -5.34 2.36 -5 1 C-3.35 0.67 -1.7 0.34 0 0 Z M-1 3 C0 5 0 5 0 5 Z " fill="#F0F1F1" transform="translate(799,384)"/>
<path d="M0 0 C0.66 0.33 1.32 0.66 2 1 C3.32860925 1.35169068 4.66158328 1.68770276 6 2 C6 2.66 6 3.32 6 4 C4.03852126 5.38938077 2.03833424 6.7260411 0 8 C-0.79953138 4.71303767 -1.09658936 3.28976808 0 0 Z " fill="#F3F4F3" transform="translate(215,392)"/>
<path d="M0 0 C0.66 0.99 1.32 1.98 2 3 C0.49776416 7.20626034 -2.28550034 8.73900021 -6 11 C-4.18690997 7.22272911 -2.0926741 3.62730178 0 0 Z " fill="#EFC753" transform="translate(486,606)"/>
<path d="M0 0 C0.144375 0.598125 0.28875 1.19625 0.4375 1.8125 C0.8872439 3.56150404 1.42892341 5.28677023 2 7 C2.34227417 8.33106622 2.67751743 9.66400079 3 11 C1.35 11 -0.3 11 -2 11 C-2.19622241 6.78121808 -1.80230168 3.82989106 0 0 Z " fill="#ECEBEC" transform="translate(829,769)"/>
<path d="M0 0 C4 4.75 4 4.75 4 7 C4.66 7.33 5.32 7.66 6 8 C4.02 8 2.04 8 0 8 C-0.79953138 4.71303767 -1.09658936 3.28976808 0 0 Z " fill="#F3F4F5" transform="translate(525,316)"/>
<path d="M0 0 C0.99 0 1.98 0 3 0 C3.33 1.98 3.66 3.96 4 6 C2.68 6.33 1.36 6.66 0 7 C-0.38133299 5.0085944 -0.71325582 3.00720923 -1 1 C-0.67 0.67 -0.34 0.34 0 0 Z " fill="#F4F3F3" transform="translate(820,408)"/>
<path d="M0 0 C0.33 0.66 0.66 1.32 1 2 C1.66 2 2.32 2 3 2 C3.33 1.34 3.66 0.68 4 0 C4 0.99 4 1.98 4 3 C1.36 3 -1.28 3 -4 3 C-4 3.99 -4 4.98 -4 6 C-5.32 6.33 -6.64 6.66 -8 7 C-7.67 5.68 -7.34 4.36 -7 3 C-3.535 2.505 -3.535 2.505 0 2 C0 1.34 0 0.68 0 0 Z " fill="#E8E8E8" transform="translate(421,321)"/>
<path d="M0 0 C0.33 0.66 0.66 1.32 1 2 C1.66 2.33 2.32 2.66 3 3 C3 3.66 3 4.32 3 5 C4.96147874 6.38938077 6.96166576 7.7260411 9 9 C8.01 9.495 8.01 9.495 7 10 C5.68388323 9.04663979 4.37221039 8.08714226 3.0625 7.125 C2.33160156 6.59132813 1.60070312 6.05765625 0.84765625 5.5078125 C-1 4 -1 4 -2 2 C-1.34 2 -0.68 2 0 2 C0 1.34 0 0.68 0 0 Z " fill="#F5D159" transform="translate(237,786)"/>
<path d="M0 0 C0.66 0.66 1.32 1.32 2 2 C1.34 2 0.68 2 0 2 C0 1.34 0 0.68 0 0 Z M-1 2 C-0.01 2.99 0.98 3.98 2 5 C0.68 5 -0.64 5 -2 5 C-1.67 4.01 -1.34 3.02 -1 2 Z M-3 5 C-2.01 5.66 -1.02 6.32 0 7 C-1.65 7.66 -3.3 8.32 -5 9 C-4.34 7.68 -3.68 6.36 -3 5 Z " fill="#EFEFEE" transform="translate(822,784)"/>
<path d="M0 0 C0.66 0.33 1.32 0.66 2 1 C0.35 3.64 -1.3 6.28 -3 9 C-3.66 8.67 -4.32 8.34 -5 8 C-5 6.35 -5 4.7 -5 3 C-4.360625 2.87625 -3.72125 2.7525 -3.0625 2.625 C-2.0415625 2.315625 -2.0415625 2.315625 -1 2 C-0.67 1.34 -0.34 0.68 0 0 Z " fill="#0D0A06" transform="translate(223,424)"/>
<path d="M0 0 C0.66 1.32 1.32 2.64 2 4 C1.54625 4.598125 1.0925 5.19625 0.625 5.8125 C-0.63295913 7.50590652 -1.82984724 9.24477086 -3 11 C-3 8.69 -3 6.38 -3 4 C-2.01 3.67 -1.02 3.34 0 3 C0 2.01 0 1.02 0 0 Z " fill="#F3F5F4" transform="translate(833,763)"/>
<path d="M0 0 C2.52845528 1.26422764 2.76422764 2.52845528 4 5 C2.02 5 0.04 5 -2 5 C-2.33 5.66 -2.66 6.32 -3 7 C-2.25 2.25 -2.25 2.25 0 0 Z " fill="#86DAF2" transform="translate(279,466)"/>
<path d="M0 0 C-0.59861742 2.35171131 -1.26924352 4.6859378 -2 7 C-2.99 7.495 -2.99 7.495 -4 8 C-4.33 5.69 -4.66 3.38 -5 1 C-3 0 -3 0 0 0 Z " fill="#F6CA57" transform="translate(257,457)"/>
<path d="M0 0 C0.99 0.33 1.98 0.66 3 1 C2.34 1.66 1.68 2.32 1 3 C0.3574765 5.06874034 0.3574765 5.06874034 0 7 C2.31 7 4.62 7 7 7 C7 7.33 7 7.66 7 8 C4.36 8 1.72 8 -1 8 C-1.04241723 5.66705225 -1.04092937 3.33297433 -1 1 C-0.67 0.67 -0.34 0.34 0 0 Z " fill="#F1F2F2" transform="translate(672,366)"/>
<path d="M0 0 C0.66 0 1.32 0 2 0 C2.33 0.99 2.66 1.98 3 3 C1.0625 5.6875 1.0625 5.6875 -1 8 C-2 6 -2 6 -1.0625 2.875 C-0.5365625 1.451875 -0.5365625 1.451875 0 0 Z " fill="#EEF0EF" transform="translate(409,326)"/>
<path d="M0 0 C1.65 0 3.3 0 5 0 C4.2884375 1.0828125 4.2884375 1.0828125 3.5625 2.1875 C2.05847097 4.89475226 1.43400818 6.96194275 1 10 C0.67 10 0.34 10 0 10 C0 6.7 0 3.4 0 0 Z " fill="#E7E7E7" transform="translate(896,183)"/>
<path d="M0 0 C2.31 0.33 4.62 0.66 7 1 C6.34 1.66 5.68 2.32 5 3 C5.33 3.66 5.66 4.32 6 5 C3.03 4.505 3.03 4.505 0 4 C0 2.68 0 1.36 0 0 Z " fill="#F1F3F4" transform="translate(258,827)"/>
<path d="M0 0 C1.37562854 1.28965176 2.70766393 2.62689293 4 4 C4 4.66 4 5.32 4 6 C3.01 6.33 2.02 6.66 1 7 C0 6 0 6 -0.0625 2.9375 C-0.041875 1.968125 -0.02125 0.99875 0 0 Z " fill="#FAC654" transform="translate(793,418)"/>
<path d="M0 0 C-3.31070838 1.00109515 -6.30084769 1.10356134 -9.75 1.0625 C-10.73484375 1.05347656 -11.7196875 1.04445312 -12.734375 1.03515625 C-13.48203125 1.02355469 -14.2296875 1.01195312 -15 1 C-15 0.34 -15 -0.32 -15 -1 C-13.25181409 -1.22304441 -11.50129677 -1.4278645 -9.75 -1.625 C-8.77546875 -1.74101562 -7.8009375 -1.85703125 -6.796875 -1.9765625 C-3.86570607 -2.00112537 -2.45471036 -1.5312717 0 0 Z " fill="#070809" transform="translate(734,180)"/>
<path d="M0 0 C1.32 0.33 2.64 0.66 4 1 C0.535 3.97 0.535 3.97 -3 7 C-1.125 1.125 -1.125 1.125 0 0 Z " fill="#F6D058" transform="translate(544,447)"/>
<path d="M0 0 C2.475 0.495 2.475 0.495 5 1 C5 1.66 5 2.32 5 3 C5.66 3.66 6.32 4.32 7 5 C5.68 5.33 4.36 5.66 3 6 C2.01 4.02 1.02 2.04 0 0 Z " fill="#ECECEC" transform="translate(823,419)"/>
</svg>
