<?xml version="1.0" encoding="UTF-8"?>
<svg version="1.1" xmlns="http://www.w3.org/2000/svg" width="1024" height="1024">
<path d="M0 0 C4.79945759 3.20232716 7.62285817 7.37063976 10.8125 12.0625 C11.88090115 13.60589069 12.94991103 15.14886016 14.01953125 16.69140625 C14.79031006 17.80926514 14.79031006 17.80926514 15.57666016 18.94970703 C17.3445706 21.49634715 19.16406403 24.00204939 21 26.5 C24.29682254 31.00929033 27.53068429 35.5602756 30.75 40.125 C31.25321777 40.83712646 31.75643555 41.54925293 32.27490234 42.28295898 C34.9917734 46.13250345 37.69033296 49.9936026 40.3671875 53.87109375 C40.9127832 54.65661621 41.45837891 55.44213867 42.02050781 56.25146484 C43.07486058 57.77010502 44.12386588 59.29247442 45.16699219 60.81884766 C46.39466028 62.58179241 47.69098983 64.29658122 49 66 C49.66 66 50.32 66 51 66 C51.114646 66.58322021 51.22929199 67.16644043 51.34741211 67.76733398 C52.05136107 70.17571903 52.98134733 71.69153333 54.44140625 73.72265625 C55.18680664 74.76873047 55.18680664 74.76873047 55.94726562 75.8359375 C56.48029297 76.57070312 57.01332031 77.30546875 57.5625 78.0625 C58.10970703 78.82691406 58.65691406 79.59132813 59.22070312 80.37890625 C62.75116274 85.30242119 66.31753845 90.20005771 69.89453125 95.08984375 C72.52448051 98.72493132 75.10615437 102.39280997 77.6875 106.0625 C82.39625527 112.75620193 87.17123195 119.39853881 91.97851562 126.02172852 C96.90702804 132.83097429 101.72220584 139.71754874 106.50732422 146.62817383 C107.06564941 147.43150146 107.62397461 148.2348291 108.19921875 149.0625 C108.69252686 149.77535156 109.18583496 150.48820313 109.6940918 151.22265625 C111.01919824 153.11996187 111.01919824 153.11996187 113 155 C113.9586168 156.48659345 114.8918196 157.98961798 115.8125 159.5 C119.71565037 165.7252778 124.01504592 171.63276228 128.38012695 177.54101562 C137.05819023 189.37320365 137.05819023 189.37320365 136.91015625 193.51171875 C135.06073343 198.25885475 133.541404 201.2751576 129 204 C122.66754392 206.11081869 115.6749948 205 109 205 C109 277.93 109 350.86 109 426 C112.96 425.67 116.92 425.34 121 425 C121 423.92516357 121 422.85032715 121 421.74291992 C121 409.82861328 121 397.91430664 121 386 C120.98839844 384.69933594 120.97679687 383.39867187 120.96484375 382.05859375 C120.95555646 380.5182302 120.94644818 378.97786556 120.9375 377.4375 C120.92912109 376.65697266 120.92074219 375.87644531 120.91210938 375.07226562 C120.88688917 369.22622166 120.88688917 369.22622166 122 367 C121.01 367 120.02 367 119 367 C119.33 366.01 119.66 365.02 120 364 C120 364.66 120 365.32 120 366 C120.66 366 121.32 366 122 366 C121.9278125 365.46117187 121.855625 364.92234375 121.78125 364.3671875 C121.00685172 357.50515829 120.8276568 350.64889286 120.75 343.75 C120.72873047 342.80366699 120.70746094 341.85733398 120.68554688 340.88232422 C120.6533611 334.35436005 121.23807634 329.17109754 125.6875 324.0625 C129.18541548 322.45534965 132.17344376 322.80867219 136 323 C136.33 322.34 136.66 321.68 137 321 C137 321.66 137 322.32 137 323 C151.19 323 165.38 323 180 323 C180.33 322.34 180.66 321.68 181 321 C181 321.66 181 322.32 181 323 C181.886875 322.896875 182.77375 322.79375 183.6875 322.6875 C187 323 187 323 189.8125 325 C194.46944829 331.38667194 193.0928584 340.58704027 193 348.1875 C192.97439955 350.30593734 192.95339893 352.42443639 192.9375 354.54296875 C192.92009766 355.9355188 192.92009766 355.9355188 192.90234375 357.35620117 C192.94489554 360.41688641 192.94489554 360.41688641 194 365 C200.6 365 207.2 365 214 365 C213.814375 363.63875 213.62875 362.2775 213.4375 360.875 C212.89140126 354.81251254 213.02530111 348.8234049 213.25 342.75 C213.27634521 341.80366699 213.30269043 340.85733398 213.32983398 339.88232422 C213.58033978 334.24817597 214.23067174 329.95460388 217 325 C224.96490257 320.06176041 234.09799077 321.95926406 243 323 C243 322.34 243 321.68 243 321 C243.66 321.33 244.32 321.66 245 322 C246.66565749 322.15222973 248.33656496 322.24917215 250.0078125 322.31640625 C250.99394531 322.35830078 251.98007812 322.40019531 252.99609375 322.44335938 C254.02863281 322.48267578 255.06117188 322.52199219 256.125 322.5625 C257.16527344 322.60568359 258.20554687 322.64886719 259.27734375 322.69335938 C261.85142528 322.7996288 264.42560508 322.90166583 267 323 C267 322.34 267 321.68 267 321 C269.08573846 321.22906954 271.16863641 321.48409892 273.25 321.75 C274.41015625 321.88921875 275.5703125 322.0284375 276.765625 322.171875 C280.38233724 323.09789311 281.69491338 324.12413003 284 327 C285.55495698 330.10991396 285.24076956 333.43344049 285.31640625 336.8515625 C285.33718735 337.62559418 285.35796844 338.39962585 285.37937927 339.19711304 C285.44483448 341.67298392 285.50374087 344.14896202 285.5625 346.625 C285.60568907 348.30209448 285.64930348 349.97917807 285.69335938 351.65625 C285.80051171 355.77072308 285.90179045 359.88530414 286 364 C286.66 363.67 287.32 363.34 288 363 C288 363.66 288 364.32 288 365 C294.6 365 301.2 365 308 365 C307.67 364.34 307.34 363.68 307 363 C306.93049459 361.45976004 306.91547643 359.91665012 306.9375 358.375 C306.94652344 357.55773437 306.95554687 356.74046875 306.96484375 355.8984375 C306.98224609 354.95871094 306.98224609 354.95871094 307 354 C307.33 354 307.66 354 308 354 C308.19814261 347.91591528 308.19814261 347.91591528 307 342 C307.33 342 307.66 342 308 342 C307.95875 340.824375 307.9175 339.64875 307.875 338.4375 C307.90240211 333.27677022 308.41097823 328.85385874 311.875 324.8125 C316.58727748 322.07937906 320.97301976 322.57235894 326.3125 322.75 C327.33923828 322.76804687 328.36597656 322.78609375 329.42382812 322.8046875 C331.95017885 322.85168937 334.47460469 322.91737728 337 323 C337 322.34 337 321.68 337 321 C337.66 321.33 338.32 321.66 339 322 C341.48377973 322.06244868 343.939392 322.06707174 346.421875 322.02734375 C347.93749765 322.01468976 349.45312278 322.00232938 350.96875 321.99023438 C353.35619831 321.96548763 355.74351778 321.93759106 358.13085938 321.90405273 C360.43620586 321.87368147 362.74139111 321.85601802 365.046875 321.83984375 C366.10657501 321.81965431 366.10657501 321.81965431 367.18768311 321.79905701 C371.5154721 321.77735532 375.01505841 322.29232538 379 324 C383.96317856 328.96317856 384.11006426 333.76517255 384.14663696 340.43513489 C384.14618378 341.27420883 384.14573059 342.11328278 384.14526367 342.9777832 C384.15030159 344.32022598 384.15030159 344.32022598 384.15544128 345.68978882 C384.1649269 348.64346715 384.16689326 351.59708864 384.16796875 354.55078125 C384.17118319 356.60955325 384.1745474 358.66832503 384.17805481 360.72709656 C384.18404024 365.04194671 384.18589533 369.35677685 384.18530273 373.67163086 C384.18520119 379.18944937 384.19884793 384.70713897 384.21607494 390.22492695 C384.22721652 394.47753992 384.22922127 398.73012196 384.22869301 402.98274803 C384.22987008 405.01642488 384.23427648 407.0501026 384.24202538 409.08376503 C384.25186797 411.93394512 384.24893028 414.78384826 384.24291992 417.6340332 C384.24853943 418.46703445 384.25415894 419.30003571 384.25994873 420.15827942 C384.22668405 426.3939889 383.93171581 432.5514494 379.94140625 437.609375 C378.76384766 438.66898438 378.76384766 438.66898438 377.5625 439.75 C374.22392232 442.80226128 374.22392232 442.80226128 371.33984375 446.265625 C370.89769531 446.83796875 370.45554687 447.4103125 370 448 C369.34 448 368.68 448 368 448 C367.10747852 451.82238342 366.87436171 455.36098788 366.87301636 459.28239441 C366.87019653 460.54850052 366.86737671 461.81460663 366.86447144 463.11907959 C366.86641553 464.51452651 366.86846369 465.90997329 366.87060547 467.30541992 C366.86924989 468.78072655 366.86746907 470.25603285 366.86529541 471.7313385 C366.86074096 475.7310576 366.86250216 479.73075087 366.8656745 483.73047042 C366.86820692 487.91490355 366.86585822 492.09933448 366.86428833 496.2837677 C366.86246983 503.30726519 366.86486522 510.33075216 366.86962891 517.35424805 C366.87507727 525.48122981 366.87330343 533.60818652 366.8678025 541.73516768 C366.86326987 548.71019111 366.86262137 555.68520698 366.86524117 562.66023141 C366.8668023 566.82748438 366.86700205 570.99472555 366.86370468 575.16197777 C366.86082359 579.07634218 366.86280606 582.99067413 366.86859894 586.90503502 C366.86992498 588.3442123 366.86953505 589.7833923 366.86733627 591.22256851 C366.86461888 593.18123021 366.86862476 595.13989786 366.87301636 597.09855652 C366.87339338 598.19637042 366.87377041 599.29418432 366.87415886 600.42526531 C366.82605459 602.98795672 366.82605459 602.98795672 368 605 C367.34 605 366.68 605 366 605 C366.33 605.99 366.66 606.98 367 608 C367.08143566 609.4473765 367.10752861 610.89826835 367.09765625 612.34790039 C367.09435303 613.2221315 367.0910498 614.09636261 367.08764648 614.99708557 C367.07934814 615.9377739 367.0710498 616.87846222 367.0625 617.84765625 C367.05871338 618.81529404 367.05492676 619.78293182 367.05102539 620.77989197 C367.03879572 623.87413952 367.02016238 626.96829456 367 630.0625 C366.97349693 634.13671617 366.95345947 638.21088669 366.9375 642.28515625 C366.92920166 643.2278688 366.92090332 644.17058136 366.91235352 645.14186096 C366.90905029 646.01293991 366.90574707 646.88401886 366.90234375 647.78149414 C366.89710693 648.54965958 366.89187012 649.31782501 366.88647461 650.10926819 C366.88115588 652.08964676 366.88115588 652.08964676 368 654 C367.86426962 656.04013207 367.7268277 658.080175 367.57788086 660.11938477 C367.04189108 667.88717868 367.04189108 667.88717868 369.90625 674.875 C372.49904827 677.11568986 375.17685953 679.05983334 378 681 C386.49684898 688.47951968 393.9888913 697.81463022 399 708 C399.66 708.66 400.32 709.32 401 710 C401.67846751 711.5030336 402.29551405 713.03422597 402.875 714.578125 C403.22046875 715.49207031 403.5659375 716.40601563 403.921875 717.34765625 C404.27765625 718.30542969 404.6334375 719.26320313 405 720.25 C405.35578125 721.19230469 405.7115625 722.13460937 406.078125 723.10546875 C411.09747901 736.45919788 413.07235381 748.5290233 413.6875 762.75 C413.76013062 764.34775269 413.76013062 764.34775269 413.83422852 765.9777832 C414.47984426 783.56018911 414.47984426 783.56018911 410 789 C406.25479362 791.69017959 403.68555329 792.37468561 399.10190743 792.37259549 C397.91096861 792.37933737 396.72002979 792.38607925 395.49300191 792.39302543 C394.18576068 792.38514439 392.87851945 792.37726335 391.53166485 792.36914349 C390.12226755 792.37136242 388.71287181 792.3748982 387.30348071 792.37963298 C383.41347039 792.38885889 379.52369446 792.37929937 375.63370156 792.36679858 C371.40825679 792.35651288 367.18283625 792.36360513 362.95738679 792.36853105 C355.54623387 792.37475953 348.13515311 792.36980861 340.72400856 792.35761642 C329.7038612 792.33953727 318.68375948 792.3386066 307.66359999 792.34124239 C289.12742128 792.34518754 270.5912746 792.3351468 252.05510521 792.31719017 C233.69667592 792.29945123 215.33825996 792.28789478 196.97982216 792.28463173 C195.26889261 792.2843224 195.26889261 792.2843224 193.52339882 792.28400682 C187.73098666 792.28299185 181.93857449 792.28208769 176.14616231 792.2812262 C135.09718831 792.27492161 94.04823175 792.2547002 52.99926758 792.22631836 C13.11580498 792.19877415 -26.76765285 792.17751886 -66.65112305 792.16479492 C-67.88007343 792.16440034 -69.10902382 792.16400576 -70.37521512 792.16359923 C-82.71661512 792.15964374 -95.05801516 792.15581629 -107.39941524 792.15208265 C-132.54123537 792.1444736 -157.6830552 792.13600985 -182.82487488 792.12702942 C-183.98090581 792.12661755 -185.13693675 792.12620568 -186.32799892 792.12578133 C-263.55200653 792.09817002 -340.77600447 792.05063334 -418 792 C-418 791.34 -418 790.68 -418 790 C-418.78375 789.773125 -419.5675 789.54625 -420.375 789.3125 C-423 788 -423 788 -424.13818359 785.80395508 C-425.09005991 782.7069864 -425.31840019 780.06079352 -425.4140625 776.82421875 C-425.45273437 775.66728516 -425.49140625 774.51035156 -425.53125 773.31835938 C-425.5621875 772.12017578 -425.593125 770.92199219 -425.625 769.6875 C-425.66367187 768.46998047 -425.70234375 767.25246094 -425.7421875 765.99804688 C-425.83628002 762.99884772 -425.92192209 759.99965177 -426 757 C-426.66 756.67 -427.32 756.34 -428 756 C-427.53335938 755.67515625 -427.06671875 755.3503125 -426.5859375 755.015625 C-424.17890519 751.95644108 -424.10433154 748.50274862 -423.625 744.75 C-420.9688932 726.97738983 -414.47162951 709.43896425 -402.46875 695.8203125 C-400.7906839 694.13040939 -400.7906839 694.13040939 -401 692 C-399.09259685 689.82011068 -397.5089443 688.2395032 -394.875 687 C-391.63280078 685.27082708 -391.11559146 682.34677439 -390 679 C-388.33333333 678.33333333 -386.66666667 677.66666667 -385 677 C-380.49938878 673.89953163 -380.49938878 673.89953163 -378.125 669.1875 C-378.063125 668.1046875 -378.063125 668.1046875 -378 667 C-378.66 666.67 -379.32 666.34 -380 666 C-379.67 665.67 -379.34 665.34 -379 665 C-378.95919217 663.00041636 -378.95745644 660.99954746 -379 659 C-379.66 659 -380.32 659 -381 659 C-380.67 657.68 -380.34 656.36 -380 655 C-379.67 655.33 -379.34 655.66 -379 656 C-378.19274786 650.34923504 -377.96782332 645.49141111 -378.84375 639.84765625 C-379 638 -379 638 -378 636 C-378.66 635.34 -379.32 634.68 -380 634 C-379.34 633.67 -378.68 633.34 -378 633 C-378.2784375 631.5459375 -378.2784375 631.5459375 -378.5625 630.0625 C-378.706875 629.051875 -378.85125 628.04125 -379 627 C-378.67 626.67 -378.34 626.34 -378 626 C-378.1018371 624.08575543 -378.1018371 624.08575543 -378.4375 621.9375 C-378.623125 620.638125 -378.80875 619.33875 -379 618 C-378.34 618 -377.68 618 -377 618 C-377.55991668 609.76205996 -377.55991668 609.76205996 -380 602 C-379.34 602 -378.68 602 -378 602 C-378 601.34 -378 600.68 -378 600 C-378.66 599.67 -379.32 599.34 -380 599 C-379.34 599 -378.68 599 -378 599 C-378.495 597.515 -378.495 597.515 -379 596 C-378.67558396 594.33157466 -378.34060811 592.66519519 -378 591 C-377.7496423 587.37464024 -377.7496423 587.37464024 -378 584 C-378.66 583.34 -379.32 582.68 -380 582 C-379.34 582 -378.68 582 -378 582 C-378 581.34 -378 580.68 -378 580 C-378.99 579.34 -379.98 578.68 -381 578 C-380 577 -379 576 -378 575 C-377.73752861 570.45049584 -378.00455663 567.11560195 -380 563 C-379.34 563 -378.68 563 -378 563 C-378.165 561.88625 -378.33 560.7725 -378.5 559.625 C-379 556 -379 556 -379 554 C-379.020625 553.05125 -379.04125 552.1025 -379.0625 551.125 C-379 548 -379 548 -378.4375 545.875 C-377.84291623 544.0131445 -377.84291623 544.0131445 -378.5 542.25 C-379.13690994 539.38390528 -378.61543076 536.89982897 -378.1875 534.02734375 C-377.93077221 531.25147451 -378.49275168 528.72645971 -379 526 C-378.67 525.01 -378.34 524.02 -378 523 C-377.5982661 517.85056722 -377.5982661 517.85056722 -379 513 C-378.34 513 -377.68 513 -377 513 C-377.33 512.34 -377.66 511.68 -378 511 C-378.08934406 509.58026727 -378.11758978 508.15642209 -378.11352539 506.73388672 C-378.11344986 505.85312469 -378.11337433 504.97236267 -378.11329651 504.06491089 C-378.10813522 503.11278717 -378.10297394 502.16066345 -378.09765625 501.1796875 C-378.0962413 500.20589142 -378.09482635 499.23209534 -378.09336853 498.22879028 C-378.08775973 495.11082927 -378.07520573 491.9929394 -378.0625 488.875 C-378.05748613 486.76432395 -378.05292303 484.65364678 -378.04882812 482.54296875 C-378.03778745 477.36195479 -378.02104073 472.18098248 -378 467 C-378.66 466.67 -379.32 466.34 -380 466 C-379.34 466 -378.68 466 -378 466 C-378.185625 465.484375 -378.37125 464.96875 -378.5625 464.4375 C-379 462 -379 462 -378.4375 458.5 C-377.98939362 454.91514898 -378.15045961 453.93750532 -380 451 C-380 450.34 -380 449.68 -380 449 C-381.55687943 447.50399645 -381.55687943 447.50399645 -383.5625 445.9375 C-388.49112913 441.76307391 -393.08772972 436.82454056 -396 431 C-396.10392187 429.64544215 -396.14805864 428.28603156 -396.16062927 426.92755127 C-396.1706749 426.07522919 -396.18072052 425.2229071 -396.19107056 424.34475708 C-396.19690155 423.40759857 -396.20273254 422.47044006 -396.20874023 421.50488281 C-396.22341591 420.02660507 -396.22341591 420.02660507 -396.23838806 418.51846313 C-396.26838007 415.24669758 -396.28973812 411.97497302 -396.30859375 408.703125 C-396.31516558 407.58712669 -396.3217374 406.47112839 -396.32850838 405.32131195 C-396.36111878 399.41409065 -396.38556547 393.50688753 -396.4050293 387.59960938 C-396.4228472 382.70676474 -396.45767365 377.81449589 -396.50756836 372.921875 C-396.56769887 367.01915285 -396.5984956 361.11696497 -396.60820198 355.21395111 C-396.61677016 352.96364888 -396.63562155 350.71336142 -396.6649456 348.46323395 C-396.70379621 345.31241956 -396.70490257 342.16369177 -396.69702148 339.01269531 C-396.71702209 338.08363373 -396.73702271 337.15457214 -396.75762939 336.19735718 C-396.70648701 331.64087636 -396.4006793 328.82750837 -393.20881653 325.42854309 C-389.53543234 322.10006472 -385.78559383 322.03338657 -381 322 C-380.01060425 321.97745148 -379.0212085 321.95490295 -378.00183105 321.93167114 C-370.60720776 321.82168389 -363.20998856 321.93400326 -355.81542969 322.0222168 C-353.09779536 322.05296149 -350.38089085 322.06648515 -347.66308594 322.06518555 C-343.72796916 322.06337004 -339.79418837 322.10990483 -335.859375 322.16015625 C-334.64473572 322.15419937 -333.43009644 322.14824249 -332.1786499 322.1421051 C-324.06849119 322.30545283 -324.06849119 322.30545283 -321.13000488 324.21554565 C-316.67375913 329.1697619 -316.87461022 334.53652013 -316.90234375 340.83203125 C-316.90717773 342.77045898 -316.90717773 342.77045898 -316.91210938 344.74804688 C-316.92046335 346.10286526 -316.92892828 347.45768297 -316.9375 348.8125 C-316.94252 350.18684735 -316.94708203 351.56119645 -316.95117188 352.93554688 C-316.96294332 356.29040924 -316.97938717 359.64518221 -317 363 C-313.96522694 364.51738653 -310.82209908 364.06209531 -307.5 364 C-300.27027027 363.86486486 -300.27027027 363.86486486 -298 365 C-295.71637873 361.3580571 -295.71954583 358.20957077 -295.65625 353.96875 C-295.6343158 352.95935364 -295.6343158 352.95935364 -295.61193848 351.92956543 C-295.56558914 349.78643665 -295.53130103 347.64339818 -295.5 345.5 C-295.45877071 342.67674495 -295.40509128 339.85413182 -295.34375 337.03125 C-295.32505859 335.77892578 -295.30636719 334.52660156 -295.28710938 333.23632812 C-295.01809488 330.20396741 -294.7272728 328.47388129 -293 326 C-291.35636866 325.27840576 -289.68949614 324.60648579 -288 324 C-287.67 323.34 -287.34 322.68 -287 322 C-279.84671058 321.94921845 -272.69346781 321.91423207 -265.54003906 321.89013672 C-263.1074042 321.88008987 -260.67478138 321.86645006 -258.2421875 321.84912109 C-254.74215723 321.82481533 -251.24228688 321.81350356 -247.7421875 321.8046875 C-246.65759247 321.79436493 -245.57299744 321.78404236 -244.45553589 321.77340698 C-232.29029344 321.77160638 -232.29029344 321.77160638 -227.6875 326.25 C-223.81993276 332.55270216 -224.64401749 340.93273821 -224.375 348.125 C-224.3234375 349.30449219 -224.271875 350.48398437 -224.21875 351.69921875 C-224.15300781 353.39884766 -224.15300781 353.39884766 -224.0859375 355.1328125 C-224.0247876 356.67799561 -224.0247876 356.67799561 -223.96240234 358.25439453 C-224 361 -224 361 -225 365 C-219.06 365 -213.12 365 -207 365 C-207 364.34 -207 363.68 -207 363 C-206.01 363 -205.02 363 -204 363 C-204.02094727 361.99622314 -204.04189453 360.99244629 -204.06347656 359.95825195 C-204.13606694 356.22174434 -204.18186811 352.48529863 -204.21972656 348.74829102 C-204.23979892 347.13327542 -204.2670633 345.51833211 -204.30175781 343.90356445 C-204.35047215 341.57745499 -204.37301154 339.25230907 -204.390625 336.92578125 C-204.41127014 336.20787918 -204.43191528 335.48997711 -204.45318604 334.75032043 C-204.4547987 331.11889168 -204.09434219 329.14769694 -202.12084961 326.05810547 C-199.75963142 323.76674259 -198.52521418 323.26387307 -195.3125 322.8125 C-192.99080727 322.50130204 -192.99080727 322.50130204 -191 322 C-190.67 321.34 -190.34 320.68 -190 320 C-189.01 320.33 -188.02 320.66 -187 321 C-187.33 321.66 -187.66 322.32 -188 323 C-187.07779663 322.75987183 -187.07779663 322.75987183 -186.13696289 322.51489258 C-181.6937299 321.78559237 -177.30485067 321.79682949 -172.80859375 321.76171875 C-171.82633316 321.753647 -170.84407257 321.74557526 -169.83204651 321.73725891 C-167.76020046 321.72345998 -165.68833208 321.71271919 -163.61645508 321.70483398 C-161.49529372 321.69326786 -159.3741625 321.67274388 -157.25317383 321.64331055 C-154.18811267 321.60078315 -151.12391268 321.58448991 -148.05859375 321.57421875 C-147.1106041 321.55671066 -146.16261444 321.53920258 -145.18589783 321.52116394 C-138.63791265 321.54282219 -138.63791265 321.54282219 -135.43383789 323.83911133 C-129.15167462 333.30674747 -131.86800211 351.00631758 -131.90234375 362.0859375 C-131.90421375 363.88196778 -131.90563489 365.67799857 -131.90663147 367.47402954 C-131.91041091 372.15264345 -131.92020094 376.83122525 -131.93133545 381.50982666 C-131.94164909 386.30342169 -131.9461502 391.09702202 -131.95117188 395.890625 C-131.96182831 405.2604306 -131.97884826 414.63021261 -132 424 C-127.71 424.66 -123.42 425.32 -119 426 C-119.6558188 421.15909592 -119.6558188 421.15909592 -120.625 416.375 C-121 414 -121 414 -120.4375 411.4375 C-119.90582878 408.47533176 -120.65853342 407.59909149 -122 405 C-121.5 401.5 -121.5 401.5 -120 400 C-119.35908683 389.74226059 -119.35908683 389.74226059 -122 380 C-121.34 379.67 -120.68 379.34 -120 379 C-120 375.04 -120 371.08 -120 367 C-120.66 367 -121.32 367 -122 367 C-122 366.34 -122 365.68 -122 365 C-121.34 365 -120.68 365 -120 365 C-119.67 364.01 -119.34 363.02 -119 362 C-119.99 361.67 -120.98 361.34 -122 361 C-121.649375 360.38125 -121.29875 359.7625 -120.9375 359.125 C-120.628125 358.42375 -120.31875 357.7225 -120 357 C-120.33 356.34 -120.66 355.68 -121 355 C-120.74443892 352.98745646 -120.48551893 350.97446167 -120.15625 348.97265625 C-119.85409036 346.78748054 -119.85409036 346.78748054 -121 344 C-120.34 344 -119.68 344 -119 344 C-119.16371094 343.36876221 -119.32742188 342.73752441 -119.49609375 342.0871582 C-120.17842071 337.90691382 -120.10292687 333.83309394 -120.0625 329.60546875 C-120.05682007 328.24619011 -120.05682007 328.24619011 -120.05102539 326.85945129 C-120.03474529 322.99730824 -120.00666942 319.13527267 -119.97949219 315.27319336 C-119.9613092 312.44645689 -119.94927475 309.61973805 -119.9375 306.79296875 C-119.92920166 305.93124557 -119.92090332 305.0695224 -119.91235352 304.1816864 C-119.89166358 299.0197064 -120.2906594 294.11234894 -121 289 C-121 286 -121 286 -120 284 C-119.90427314 282.48805748 -119.86925935 280.97199973 -119.8671875 279.45703125 C-119.86525391 278.09288086 -119.86525391 278.09288086 -119.86328125 276.70117188 C-119.86714844 275.74791016 -119.87101562 274.79464844 -119.875 273.8125 C-119.87113281 272.87857422 -119.86726563 271.94464844 -119.86328125 270.98242188 C-119.87047173 265.87358581 -120.26615171 261.06230937 -121 256 C-120.84375 253.05078125 -120.84375 253.05078125 -120.5 250.3125 C-120.0662981 246.82809948 -120.09163831 244.37087345 -121 241 C-120.66666667 239 -120.33333333 237 -120 235 C-120.24556641 234.11828125 -120.24556641 234.11828125 -120.49609375 233.21875 C-121.18001029 230.20739655 -120.84265396 227.5713175 -120.5625 224.5 C-120.02940645 217.97985579 -119.89222432 211.53839097 -120 205 C-121.86205078 205.01740234 -121.86205078 205.01740234 -123.76171875 205.03515625 C-125.40364432 205.04453868 -127.04557153 205.0536384 -128.6875 205.0625 C-129.50412109 205.07087891 -130.32074219 205.07925781 -131.16210938 205.08789062 C-139.65223066 205.12226359 -139.65223066 205.12226359 -143 204 C-145.67811538 200.38092516 -146.82540011 198.04759936 -147.5625 193.625 C-146.79685265 188.6908282 -144.56766683 185.20941744 -142 181 C-141.48373047 179.93652344 -141.48373047 179.93652344 -140.95703125 178.8515625 C-139.71075524 176.44039993 -137.91437022 174.91437022 -136 173 C-134.52769544 170.70974847 -133.21657859 168.43315718 -132 166 C-131.27941406 165.31550781 -130.55882812 164.63101563 -129.81640625 163.92578125 C-126.260707 160.43632935 -123.67865522 156.323956 -120.9375 152.1875 C-116.7084933 145.90224822 -112.39364258 139.72139997 -107.8125 133.6875 C-103.74294577 128.32548916 -99.75497132 122.92137363 -95.86083984 117.43066406 C-92.97332989 113.35944724 -90.05748537 109.30994027 -87.12768555 105.26904297 C-77.34165226 92.58272487 -77.34165226 92.58272487 -69 79 C-68.34 79 -67.68 79 -67 79 C-66.74476563 78.27425781 -66.48953125 77.54851562 -66.2265625 76.80078125 C-64.93198926 73.8447016 -63.39544896 71.69435334 -61.375 69.1875 C-60.74335938 68.39730469 -60.11171875 67.60710937 -59.4609375 66.79296875 C-58.97882813 66.20128906 -58.49671875 65.60960937 -58 65 C-58.33 64.34 -58.66 63.68 -59 63 C-58.13375 62.690625 -58.13375 62.690625 -57.25 62.375 C-54.76346393 60.85545018 -53.73341766 59.22397498 -52.17773438 56.81005859 C-49.92513804 53.3480459 -47.50777543 49.99809771 -45.125 46.625 C-44.62097656 45.90828125 -44.11695313 45.1915625 -43.59765625 44.453125 C-40.54016207 40.12102327 -37.40086058 35.88819917 -34.09716797 31.73974609 C-32.73328491 29.91988069 -32.73328491 29.91988069 -33 27 C-32.01 26.67 -31.02 26.34 -30 26 C-28.36875396 24.08968777 -28.36875396 24.08968777 -26.8203125 21.703125 C-25.92119141 20.38828125 -25.92119141 20.38828125 -25.00390625 19.046875 C-24.38386719 18.12390625 -23.76382812 17.2009375 -23.125 16.25 C-10.16121854 -2.96368874 -10.16121854 -2.96368874 0 0 Z M308 356 C309 359 309 359 309 359 Z " fill="#020303" transform="translate(517,113)"/>
<path d="M0 0 C0.93245963 -0.00301597 1.86491927 -0.00603194 2.82563525 -0.0091393 C4.35256284 -0.00648509 4.35256284 -0.00648509 5.91033745 -0.00377727 C7.00121294 -0.0058299 8.09208844 -0.00788253 9.21602076 -0.00999737 C12.89692357 -0.01568318 16.57778916 -0.01420816 20.2586956 -0.0127914 C22.91424354 -0.01537413 25.56978843 -0.01834813 28.22533512 -0.0217948 C34.77471477 -0.02937668 41.32408627 -0.03156795 47.87346985 -0.03212385 C55.7169483 -0.03303731 63.5604192 -0.03970437 71.4038944 -0.04647068 C90.36286634 -0.06253543 109.32183747 -0.06843462 128.28081499 -0.07321942 C137.24959352 -0.07555503 146.21837142 -0.07915765 155.18714946 -0.0829148 C185.88742462 -0.0957511 216.58769943 -0.10646993 247.28797722 -0.1099174 C249.21541494 -0.11013904 251.14285266 -0.11036082 253.07029039 -0.11058275 C255.00239138 -0.11080339 256.93449237 -0.11102388 258.86659336 -0.1112442 C262.74273682 -0.11168676 266.61888027 -0.11213387 270.49502373 -0.11258388 C271.45608297 -0.11269327 272.4171422 -0.11280266 273.40732445 -0.11291536 C304.56671988 -0.11654565 335.72609204 -0.13246422 366.88547856 -0.15577424 C399.82770448 -0.18037292 432.7699171 -0.19409027 465.71215248 -0.19528532 C469.32880211 -0.19545677 472.94545174 -0.1956722 476.56210136 -0.19591975 C477.45262442 -0.19597552 478.34314748 -0.19603129 479.26065609 -0.19608875 C493.58934257 -0.1972392 507.91800517 -0.20826082 522.24668359 -0.22280681 C536.65105444 -0.23717668 551.05539469 -0.24040603 565.45977074 -0.23236683 C574.0154158 -0.22791279 582.57096205 -0.23176215 591.12659411 -0.24760534 C596.84596085 -0.25736592 602.56525847 -0.25616679 608.28462459 -0.24616911 C611.54058078 -0.2407848 614.79631014 -0.24170992 618.05225778 -0.25267783 C645.15658563 -0.33819408 666.31194652 4.9092904 686.46523857 24.2995255 C705.74872487 43.825741 710.89635833 64.89067062 712.25820732 92.1276505 C452.21820732 92.1276505 192.17820732 92.1276505 -75.74179268 92.1276505 C-75.74179268 77.90927701 -75.74179268 77.90927701 -74.61679268 71.8151505 C-74.41884102 70.74140172 -74.41884102 70.74140172 -74.21689034 69.64596105 C-70.6731806 51.97224477 -61.41321026 36.82065482 -48.74179268 24.1276505 C-47.99542549 23.36968175 -47.2490583 22.611713 -46.48007393 21.8307755 C-34.45800113 10.30548257 -17.07329793 0.01097995 0 0 Z " fill="#7BA777" transform="translate(192.741792678833,788.8723495006561)"/>
<path d="M0 0 C59.4 0 118.8 0 180 0 C180 147.51 180 295.02 180 447 C170.76 447 161.52 447 152 447 C151.97812622 442.36855957 151.97812622 442.36855957 151.95581055 437.64355469 C151.90533566 427.40960306 151.838718 417.17580153 151.76428509 406.94199753 C151.71967422 400.74096746 151.68039766 394.54000169 151.65356445 388.33886719 C151.62743888 382.34759554 151.58697119 376.35657257 151.53681374 370.36545563 C151.52020748 368.08671425 151.50865454 365.80792992 151.50238609 363.52913666 C151.44100379 343.25469945 149.60077059 325.56249799 135 310 C122.51277871 298.02840904 106.4688067 291.3923997 89.25 291.5 C87.67001221 291.50749268 87.67001221 291.50749268 86.05810547 291.51513672 C77.48710215 291.70624782 70.71049547 293.07201174 63 297 C62.10539062 297.44601562 61.21078125 297.89203125 60.2890625 298.3515625 C46.41363041 305.99372356 35.26687968 318.48861032 30.13922405 333.52397633 C28.25007948 340.08825443 27.55725063 346.07435596 27.56762695 352.88745117 C27.5574353 353.91318237 27.54724365 354.93891357 27.53674316 355.99572754 C27.50684393 359.34486517 27.49738262 362.69371573 27.48828125 366.04296875 C27.47141746 368.38138258 27.45326496 370.71978744 27.43388367 373.05818176 C27.38656235 379.18186642 27.35663752 385.30551468 27.33044434 391.42932129 C27.30054842 397.69058414 27.25404923 403.95172183 27.20898438 410.21289062 C27.12315453 422.47520903 27.05725551 434.73751485 27 447 C18.09 447 9.18 447 0 447 C0 299.49 0 151.98 0 0 Z " fill="#E8B462" transform="translate(422,317)"/>
<path d="M0 0 C76.89 0 153.78 0 233 0 C233 69.3 233 138.6 233 210 C223 207 223 207 220.12727737 206.06598186 C210.32762844 203.16801363 200.38885149 203.55871771 190.26855469 203.56762695 C188.18798749 203.55859783 186.1074256 203.5482678 184.02687073 203.53674316 C178.40997762 203.50928228 172.79318575 203.4999035 167.17623425 203.49388909 C161.29455276 203.48447695 155.41294605 203.4582713 149.53131104 203.43388367 C138.40757025 203.39029301 127.28384404 203.3617004 116.16004395 203.33856028 C101.11858313 203.30639788 86.07720912 203.25093724 71.03581429 203.19681454 C47.35723541 203.11222452 23.67869024 203.05865067 0 203 C0 136.01 0 69.02 0 0 Z " fill="#E8B462" transform="translate(626,561)"/>
<path d="M0 0 C76.89 0 153.78 0 233 0 C233 66.99 233 133.98 233 203 C217.94246094 203.02578125 202.88492188 203.0515625 187.37109375 203.078125 C177.82355475 203.10329567 168.27603584 203.12946788 158.72851562 203.16015625 C143.57918443 203.20866451 128.42992004 203.25312074 113.28051758 203.27099609 C102.24603439 203.28403495 91.21168742 203.31105666 80.17728096 203.35461307 C74.33891075 203.37717751 68.50070825 203.39291369 62.66229057 203.39188385 C57.15714503 203.39113428 51.65236952 203.40920409 46.14731979 203.44116783 C44.1363284 203.44962542 42.12529531 203.45144521 40.11429405 203.44580269 C28.34548416 203.41720221 18.22290277 204.34103149 7 208 C3.535 208.99 3.535 208.99 0 210 C0 140.7 0 71.4 0 0 Z " fill="#E8B462" transform="translate(164,561)"/>
<path d="M0 0 C0.66 0 1.32 0 2 0 C3.85543604 2.42280078 5.59528411 4.85625245 7.3125 7.375 C8.40268393 8.94728198 9.4938621 10.51887496 10.5859375 12.08984375 C11.43236816 13.3116333 11.43236816 13.3116333 12.29589844 14.55810547 C14.96543318 18.38341872 17.69909018 22.16132886 20.4375 25.9375 C20.97673096 26.68241699 21.51596191 27.42733398 22.0715332 28.19482422 C23.16700292 29.70807298 24.26278743 31.22109391 25.35888672 32.73388672 C28.61845318 37.23482333 31.8697262 41.74175435 35.12255859 46.24755859 C37.84069523 50.01207565 40.56081405 53.77512708 43.28515625 57.53515625 C48.54881928 64.80432269 53.78186072 72.09124885 58.9375 79.4375 C63.20880125 85.52125463 67.57507646 91.52713928 72 97.5 C76.92574736 104.14888391 81.76156492 110.85061849 86.50927734 117.62768555 C89.16521999 121.41469803 91.84658896 125.18038932 94.56640625 128.921875 C95.15993896 129.73841553 95.75347168 130.55495605 96.36499023 131.39624023 C97.51170119 132.97052215 98.66083493 134.54304306 99.81274414 136.11352539 C100.58992798 137.18074829 100.58992798 137.18074829 101.3828125 138.26953125 C101.84059082 138.89448486 102.29836914 139.51943848 102.77001953 140.16333008 C104 142 104 142 106 146 C36.7 146 -32.6 146 -104 146 C-100.08330684 140.12496026 -96.145942 134.33109645 -92 128.625 C-91.16577515 127.47269897 -91.16577515 127.47269897 -90.31469727 126.29711914 C-85.63693301 119.84780109 -80.90033125 113.44253729 -76.16210938 107.03759766 C-71.87027649 101.22028255 -67.68593826 95.33481076 -63.53881836 89.41381836 C-59.77056828 84.05027802 -55.902724 78.76630711 -52 73.5 C-47.06695656 66.84150346 -42.22761205 60.12765973 -37.46875 53.34375 C-33.8557063 48.19731906 -30.19039773 43.09120459 -26.5 38 C-20.69966391 29.9934011 -14.97791049 21.93383966 -9.29541016 13.84326172 C-8.1093709 12.15562576 -6.92008377 10.47027356 -5.73046875 8.78515625 C-5.09753906 7.88667969 -4.46460938 6.98820313 -3.8125 6.0625 C-3.28269531 5.31097656 -2.75289063 4.55945313 -2.20703125 3.78515625 C-0.95187191 2.01250834 -0.95187191 2.01250834 0 0 Z " fill="#E96545" transform="translate(511,148)"/>
<path d="M0 0 C10.23 0 20.46 0 31 0 C31.3125 15.125 31.3125 15.125 31.38793945 19.86376953 C31.42105225 21.10755371 31.45416504 22.35133789 31.48828125 23.6328125 C31.51446533 24.90012207 31.54064941 26.16743164 31.56762695 27.47314453 C32.14037996 32.14507564 33.48165648 35.62400119 37 38.8125 C40.27368346 40.75624955 42.94158674 41.13051756 46.66748047 41.16113281 C47.61211151 41.17074036 48.55674255 41.1803479 49.52999878 41.19024658 C50.54877106 41.19449646 51.56754333 41.19874634 52.6171875 41.203125 C54.19114792 41.21167511 54.19114792 41.21167511 55.79690552 41.22039795 C58.01775097 41.22984686 60.23861044 41.2363815 62.45947266 41.24023438 C65.85474112 41.24994208 69.24940482 41.28096784 72.64453125 41.3125 C74.80207974 41.31902995 76.95963256 41.32428045 79.1171875 41.328125 C80.63927322 41.3466452 80.63927322 41.3466452 82.19210815 41.36553955 C87.35783494 41.34923681 90.7386013 41.24178711 95 38 C95.66 38 96.32 38 97 38 C99.10085315 32.81789557 100.15039022 28.76535974 100.31640625 23.14453125 C100.3475779 22.15207649 100.3475779 22.15207649 100.37937927 21.13957214 C100.44464727 19.03065148 100.50365344 16.92160865 100.5625 14.8125 C100.60570689 13.38084685 100.64932188 11.94920596 100.69335938 10.51757812 C100.80107185 7.01184204 100.90031308 3.50601025 101 0 C108.26 0 115.52 0 123 0 C123.02578125 2.0728125 123.0515625 4.145625 123.078125 6.28125 C123.11988367 8.31350524 123.16178393 10.34576006 123.20751953 12.37792969 C123.23555071 13.77819961 123.25685316 15.17862251 123.27099609 16.57910156 C123.29412709 27.93465785 123.29412709 27.93465785 128 38 C133.30620682 41.55979456 138.23850416 41.45257564 144.40234375 41.43359375 C145.39827042 41.4388356 146.39419708 41.44407745 147.42030334 41.44947815 C149.52067129 41.45588425 151.62107517 41.4545797 153.72143555 41.44604492 C156.92366833 41.43753675 160.12411514 41.46631412 163.32617188 41.49804688 C165.3723953 41.49965919 167.41862187 41.49908078 169.46484375 41.49609375 C170.89170753 41.51294472 170.89170753 41.51294472 172.34739685 41.53013611 C178.40566588 41.46706335 182.15313209 40.75068742 187 37 C190.00472681 32.60128014 190.40309385 28.89025763 190.51171875 23.6328125 C190.52966995 22.95322479 190.54762115 22.27363708 190.56611633 21.57345581 C190.61986817 19.42403181 190.65399936 17.27482523 190.6875 15.125 C190.72070438 13.65882413 190.7551969 12.19267683 190.79101562 10.7265625 C190.87797743 7.15101656 190.93833745 3.57642773 191 0 C198.92 0 206.84 0 215 0 C215 26.4 215 52.8 215 80 C144.05 80 73.1 80 0 80 C0 53.6 0 27.2 0 0 Z " fill="#E9B463" transform="translate(145,459)"/>
<path d="M0 0 C7.59 0 15.18 0 23 0 C23.03738281 2.16820312 23.07476563 4.33640625 23.11328125 6.5703125 C23.15957911 8.68532015 23.21078236 10.8001566 23.26245117 12.91503906 C23.29557135 14.37749708 23.32364305 15.84007895 23.34643555 17.30273438 C23.38022175 19.41329403 23.4325438 21.52273186 23.48828125 23.6328125 C23.51446533 24.90012207 23.54064941 26.16743164 23.56762695 27.47314453 C24.20944594 32.70844493 25.64886335 35.73601647 29.50561523 39.34399414 C34.3734559 41.6508874 38.58741191 41.55569336 43.91015625 41.49609375 C44.95521835 41.49754898 46.00028046 41.49900421 47.07701111 41.50050354 C49.27996619 41.49884786 51.48293324 41.48732378 53.68579102 41.46655273 C57.05469928 41.43756712 60.42203591 41.44595775 63.79101562 41.45898438 C65.93490347 41.45274746 68.07878635 41.44435689 70.22265625 41.43359375 C71.73062523 41.43799721 71.73062523 41.43799721 73.26905823 41.44248962 C78.39962887 41.37335083 81.76211683 41.1986925 86 38 C86.66 38 87.32 38 88 38 C90.10085315 32.81789557 91.15039022 28.76535974 91.31640625 23.14453125 C91.3475779 22.15207649 91.3475779 22.15207649 91.37937927 21.13957214 C91.44464727 19.03065148 91.50365344 16.92160865 91.5625 14.8125 C91.60570689 13.38084685 91.64932188 11.94920596 91.69335938 10.51757812 C91.80107185 7.01184204 91.90031308 3.50601025 92 0 C99.92 0 107.84 0 116 0 C116.05607422 3.25230469 116.05607422 3.25230469 116.11328125 6.5703125 C116.15957911 8.68532015 116.21078236 10.8001566 116.26245117 12.91503906 C116.29557135 14.37749708 116.32364305 15.84007895 116.34643555 17.30273438 C116.38022175 19.41329403 116.4325438 21.52273186 116.48828125 23.6328125 C116.51446533 24.90012207 116.54064941 26.16743164 116.56762695 27.47314453 C117.14037996 32.14507564 118.48165648 35.62400119 122 38.8125 C125.22987325 40.73023724 127.86740054 41.13003241 131.54394531 41.16113281 C132.46210022 41.17074036 133.38025513 41.1803479 134.32623291 41.19024658 C135.3168573 41.19449646 136.30748169 41.19874634 137.328125 41.203125 C138.86167633 41.21167511 138.86167633 41.21167511 140.4262085 41.22039795 C142.5915829 41.22984797 144.75697168 41.23638194 146.92236328 41.24023438 C150.22323984 41.24992147 153.52348883 41.28093766 156.82421875 41.3125 C158.92968381 41.31903212 161.03515332 41.32428177 163.140625 41.328125 C164.6144162 41.3466452 164.6144162 41.3466452 166.11798096 41.36553955 C171.86071839 41.34702301 175.9462138 40.80309032 181 38 C186.67984869 31.60552983 185.67139438 23.16710494 185.75 15.0625 C185.77819227 13.60087654 185.80812421 12.13928554 185.83984375 10.67773438 C185.91656707 7.11817592 185.95743239 3.5607809 186 0 C195.24 0 204.48 0 214 0 C214 26.4 214 52.8 214 80 C143.38 80 72.76 80 0 80 C0 53.6 0 27.2 0 0 Z " fill="#E8B362" transform="translate(663,459)"/>
<path d="M0 0 C10.12957969 5.91284768 16.41465699 13.37785017 19.815238 24.8432579 C20.26906736 27.0293472 20.37305761 28.98364475 20.37025452 31.21490479 C20.37231651 32.48527588 20.37231651 32.48527588 20.37442017 33.78131104 C20.36902725 35.16235016 20.36902725 35.16235016 20.36352539 36.57128906 C20.36367142 37.54723022 20.36381744 38.52317139 20.3639679 39.52868652 C20.3632714 42.75352198 20.35549126 45.97829963 20.34765625 49.203125 C20.34579114 51.43943246 20.34436767 53.67574033 20.34336853 55.91204834 C20.33955071 61.79749683 20.32972666 67.68292064 20.31866455 73.56835938 C20.306636 80.63019297 20.30204469 87.69203482 20.29621124 94.75387573 C20.28651454 105.48176766 20.26735281 116.20960542 20.25 126.9375 C-4.5 126.9375 -29.25 126.9375 -54.75 126.9375 C-54.91043524 102.42210443 -54.91043524 102.42210443 -54.9453125 91.92773438 C-54.96917266 84.782349 -54.99732173 77.63716975 -55.05175781 70.49194336 C-55.09539509 64.72772279 -55.11917497 58.96372343 -55.12950897 53.19935036 C-55.13686828 51.00623915 -55.15123895 48.81313929 -55.17292023 46.62012291 C-55.32486681 30.60614287 -54.64371008 18.42781571 -43.1953125 6.2890625 C-31.70279451 -4.543598 -14.16288021 -7.17929555 0 0 Z " fill="#495A5A" transform="translate(528.75,636.0625)"/>
<path d="M0 0 C7.30787304 5.85847822 12.22019909 13.80256155 13.45651245 23.16847229 C13.91167591 28.34805159 13.86330902 33.55402006 13.89453125 38.75 C13.902603 40.03068863 13.91067474 41.31137726 13.91899109 42.63087463 C13.93394235 45.33309795 13.943818 48.03529571 13.95141602 50.73754883 C13.96249402 54.18169164 13.9969411 57.62519092 14.03658772 61.0691061 C14.06915409 64.37937698 14.07353823 67.68958143 14.08203125 71 C14.09953934 72.22730331 14.11704742 73.45460663 14.13508606 74.71910095 C14.11724193 81.78233433 13.5150355 86.46172118 9.65625 92.44140625 C6.00084455 95.83571131 3.53141446 97.55262187 -1.42285156 97.6184082 C-2.68491425 97.63766106 -2.68491425 97.63766106 -3.97247314 97.65730286 C-4.88390076 97.66468979 -5.79532837 97.67207672 -6.734375 97.6796875 C-7.671745 97.68775925 -8.60911499 97.69583099 -9.57489014 97.70414734 C-11.56211495 97.71799311 -13.54936359 97.72871306 -15.53662109 97.73657227 C-18.56784545 97.75375937 -21.5979719 97.79763789 -24.62890625 97.84179688 C-26.55988781 97.85192608 -28.49087865 97.86044147 -30.421875 97.8671875 C-31.32520569 97.88469559 -32.22853638 97.90220367 -33.15924072 97.92024231 C-38.68746121 97.9013038 -42.09250685 97.33002434 -46.34375 93.44140625 C-48.98389347 89.04336798 -49.72413215 85.77857355 -49.74780273 80.67675781 C-49.75466599 80.02870178 -49.76152924 79.38064575 -49.76860046 78.71295166 C-49.78679297 76.5857506 -49.78304037 74.4592929 -49.77734375 72.33203125 C-49.78191096 70.83998376 -49.78721813 69.34793837 -49.79322815 67.855896 C-49.80214576 64.73229416 -49.79975377 61.60894814 -49.78979492 58.48535156 C-49.77833846 54.50661275 -49.79847148 50.5287659 -49.82771206 46.5501442 C-49.84617565 43.46834816 -49.84576104 40.38676156 -49.84007454 37.30492401 C-49.83992239 35.83948266 -49.84587757 34.37402614 -49.85836601 32.908638 C-49.93044432 23.06067039 -48.96494816 15.1318605 -43.59375 6.69140625 C-32.0978006 -4.80454315 -14.38723217 -9.56750939 0 0 Z " fill="#020202" transform="translate(529.34375,350.55859375)"/>
<path d="M0 0 C59.4 0 118.8 0 180 0 C180 147.51 180 295.02 180 447 C170.76 447 161.52 447 152 447 C152 412.35 152 377.7 152 342 C152.33 342 152.66 342 153 342 C154.25541417 346.84502116 154.13340018 351.59736145 154.11352539 356.5637207 C154.11367142 357.52030075 154.11381744 358.4768808 154.1139679 359.46244812 C154.11327253 362.61691575 154.1054977 365.77132396 154.09765625 368.92578125 C154.09579074 371.11581897 154.09436746 373.3058571 154.09336853 375.49589539 C154.08955387 381.25474198 154.07973253 387.01356329 154.06866455 392.7723999 C154.05842786 398.6509975 154.05386607 404.52959918 154.04882812 410.40820312 C154.03810933 421.93881497 154.02052101 433.46940142 154 445 C161.92 445 169.84 445 178 445 C178 298.81 178 152.62 178 2 C119.59 2 61.18 2 1 2 C1 148.52 1 295.04 1 446 C0.67 446 0.34 446 0 446 C0 298.82 0 151.64 0 0 Z " fill="#EBD67B" transform="translate(422,317)"/>
<path d="M0 0 C0.33 0 0.66 0 1 0 C1 4.29 1 8.58 1 13 C259.72 13 518.44 13 785 13 C785 9.37 785 5.74 785 2 C785.33 2 785.66 2 786 2 C786.33 6.29 786.66 10.58 787 15 C526.96 15 266.92 15 -1 15 C-1 3 -1 3 0 0 Z " fill="#7FAE7E" transform="translate(118,866)"/>
<path d="M0 0 C10.23 0 20.46 0 31 0 C31 10.56 31 21.12 31 32 C30.67 32 30.34 32 30 32 C30 22.1 30 12.2 30 2 C20.76 2 11.52 2 2 2 C2 27.08 2 52.16 2 78 C71.96 78 141.92 78 214 78 C214 52.92 214 27.84 214 2 C207.07 2 200.14 2 193 2 C193.03480469 3.86785156 193.06960938 5.73570312 193.10546875 7.66015625 C193.13361444 10.12759515 193.16091376 12.59504381 193.1875 15.0625 C193.21263672 16.29162109 193.23777344 17.52074219 193.26367188 18.78710938 C193.33342443 27.41317552 192.69265466 33.22303017 187 40 C186.34 39.67 185.68 39.34 185 39 C185.639375 38.236875 186.27875 37.47375 186.9375 36.6875 C190.18340089 32.45799278 190.16762043 29.13328492 190.31640625 23.92578125 C190.3475779 22.90003242 190.3475779 22.90003242 190.37937927 21.8535614 C190.44466154 19.6733079 190.50366017 17.49293595 190.5625 15.3125 C190.60570553 13.83267014 190.64932047 12.35285217 190.69335938 10.87304688 C190.80109025 7.24881746 190.90032107 3.62449562 191 0 C198.92 0 206.84 0 215 0 C215 26.4 215 52.8 215 80 C144.05 80 73.1 80 0 80 C0 53.6 0 27.2 0 0 Z " fill="#FADA76" transform="translate(145,459)"/>
<path d="M0 0 C1.93084565 1.58605179 2.88290172 2.76580344 4 5 C4.08963847 6.48100811 4.11757925 7.96599424 4.11352539 9.44970703 C4.11344986 10.37051056 4.11337433 11.29131409 4.11329651 12.24002075 C4.10813522 13.23589203 4.10297394 14.23176331 4.09765625 15.2578125 C4.0962413 16.27600067 4.09482635 17.29418884 4.09336853 18.3432312 C4.087759 21.60385035 4.07520488 24.86440151 4.0625 28.125 C4.05748623 30.33203026 4.05292311 32.53906159 4.04882812 34.74609375 C4.03778647 40.16408881 4.02051543 45.58203286 4 51 C-0.95 51 -5.9 51 -11 51 C-11.09885488 44.37976445 -11.17146298 37.75995821 -11.21972656 31.13916016 C-11.23984556 28.88680539 -11.26714408 26.63450287 -11.30175781 24.38232422 C-11.35026209 21.14537669 -11.37296605 17.90911953 -11.390625 14.671875 C-11.41127014 13.66445251 -11.43191528 12.65703003 -11.45318604 11.61907959 C-11.45543255 4.62449285 -11.45543255 4.62449285 -9.10058594 1.39550781 C-5.54953786 -0.96360316 -4.13457795 -1.21012038 0 0 Z " fill="#485758" transform="translate(515,371)"/>
<path d="M0 0 C7.59 0 15.18 0 23 0 C23.03738281 2.16820312 23.07476563 4.33640625 23.11328125 6.5703125 C23.15957911 8.68532015 23.21078236 10.8001566 23.26245117 12.91503906 C23.29557135 14.37749708 23.32364305 15.84007895 23.34643555 17.30273438 C23.38022175 19.41329403 23.4325438 21.52273186 23.48828125 23.6328125 C23.51446533 24.90012207 23.54064941 26.16743164 23.56762695 27.47314453 C24.20952971 32.70912826 25.65025392 35.7361337 29.50561523 39.34619141 C34.37762016 41.65199462 38.58533777 41.53720983 43.91015625 41.4609375 C45.4777494 41.45956284 45.4777494 41.45956284 47.07701111 41.4581604 C49.27998412 41.45213407 51.48294931 41.43641735 53.68579102 41.41162109 C57.05450682 41.37508669 60.42212224 41.37060219 63.79101562 41.37109375 C65.93490532 41.36126284 68.07878759 41.34960595 70.22265625 41.3359375 C71.2279689 41.33371185 72.23328156 41.33148621 73.26905823 41.32919312 C74.21031052 41.31643341 75.15156281 41.30367371 76.12133789 41.29052734 C76.94485245 41.28290375 77.768367 41.27528015 78.61683655 41.26742554 C81.34373619 40.96142781 83.50464954 40.11614882 86 39 C85.67 39.99 85.34 40.98 85 42 C79.84937764 44.46047527 74.65619668 44.3222212 69.0703125 44.3359375 C68.1211496 44.3425943 67.17198669 44.3492511 66.19406128 44.35610962 C64.19205657 44.36620528 62.19001842 44.3709276 60.18798828 44.37060547 C57.1416829 44.37497606 54.09683046 44.41132155 51.05078125 44.44921875 C49.09896325 44.45508825 47.14713842 44.45905675 45.1953125 44.4609375 C44.29297882 44.47530853 43.39064514 44.48967957 42.46096802 44.50448608 C35.26004438 44.45302023 29.78820676 42.78820676 24.625 37.625 C21.57556846 32.6989952 20.74999221 28.2508176 20.8046875 22.5078125 C20.81113281 21.30898438 20.81757812 20.11015625 20.82421875 18.875 C20.84097656 17.6375 20.85773437 16.4 20.875 15.125 C20.88402344 13.86429687 20.89304687 12.60359375 20.90234375 11.3046875 C20.92584106 8.20304319 20.96170991 5.10149697 21 2 C14.4 2 7.8 2 1 2 C1 27.08 1 52.16 1 78 C70.63 78 140.26 78 212 78 C212 78.66 212 79.32 212 80 C142.04 80 72.08 80 0 80 C0 53.6 0 27.2 0 0 Z " fill="#F9DE7A" transform="translate(663,459)"/>
<path d="M0 0 C2 1.375 2 1.375 4 3 C4 3.66 4 4.32 4 5 C-65.3 5 -134.6 5 -206 5 C-202.69405783 1.69405783 -201.75672133 1.65009005 -197.29961377 1.61275607 C-196.51848979 1.6214946 -195.73736581 1.63023312 -194.93257141 1.63923645 C-193.68528481 1.63539154 -193.68528481 1.63539154 -192.41280049 1.63146895 C-189.61655802 1.62651348 -186.82085123 1.64305291 -184.0246582 1.65942383 C-182.02424126 1.66026972 -180.02382338 1.6597957 -178.02340698 1.65809631 C-172.58359436 1.65723346 -167.14397907 1.67490622 -161.70421243 1.69581819 C-156.02272297 1.71453662 -150.34122928 1.71633161 -144.65971375 1.71989441 C-133.89685743 1.7292291 -123.13409223 1.75386216 -112.37127608 1.78394288 C-100.11994093 1.81744259 -87.86860149 1.83396175 -75.61723197 1.84902918 C-50.41143741 1.88041046 -25.2057238 1.93319863 0 2 C0 1.34 0 0.68 0 0 Z " fill="#E76F4E" transform="translate(613,289)"/>
<path d="M0 0 C10.23 0 20.46 0 31 0 C31 10.56 31 21.12 31 32 C30.67 32 30.34 32 30 32 C30 22.1 30 12.2 30 2 C20.76 2 11.52 2 2 2 C2 27.08 2 52.16 2 78 C7.61257812 77.98839844 13.22515625 77.97679687 19.0078125 77.96484375 C22.58984493 77.95972678 26.17187277 77.95491227 29.75390625 77.95117188 C35.42400055 77.94522278 41.09407852 77.93822903 46.76416016 77.92456055 C51.34182793 77.91359609 55.91947815 77.90769481 60.49715805 77.90512276 C62.23280996 77.9032927 63.96846105 77.89971983 65.70410538 77.89426994 C75.85813089 77.86369059 85.87838208 78.09163317 96 79 C96 79.33 96 79.66 96 80 C64.32 80 32.64 80 0 80 C0 53.6 0 27.2 0 0 Z " fill="#F5D575" transform="translate(145,459)"/>
<path d="M0 0 C3.375 4.5 3.375 4.5 3.36076355 8.27740479 C3.36488754 9.12431885 3.36901154 9.97123291 3.3732605 10.84381104 C3.36247467 11.76450378 3.35168884 12.68519653 3.34057617 13.63378906 C3.34123329 15.09770081 3.34123329 15.09770081 3.34190369 16.59118652 C3.33981408 19.81620302 3.31647451 23.04069934 3.29296875 26.265625 C3.28737342 28.50192989 3.28310302 30.73823846 3.28010559 32.97454834 C3.26865194 38.86008865 3.23918005 44.74540682 3.20599365 50.63085938 C3.17530413 56.63668818 3.16160263 62.64255288 3.14648438 68.6484375 C3.114311 80.43240496 3.06153859 92.21614925 3 104 C-5.91 104 -14.82 104 -24 104 C-23.34 102.68 -22.68 101.36 -22 100 C-14.74 100.33 -7.48 100.66 0 101 C0 67.67 0 34.34 0 0 Z " fill="#C59753" transform="translate(446,660)"/>
<path d="M0 0 C9.24 0 18.48 0 28 0 C28 26.4 28 52.8 28 80 C27.34 80 26.68 80 26 80 C26 54.26 26 28.52 26 2 C18.08 2 10.16 2 2 2 C2.02320313 3.92585938 2.04640625 5.85171875 2.0703125 7.8359375 C2.08906636 10.34895447 2.10726697 12.86197562 2.125 15.375 C2.14175781 16.64601563 2.15851562 17.91703125 2.17578125 19.2265625 C2.18222656 20.43828125 2.18867187 21.65 2.1953125 22.8984375 C2.20578613 24.01911621 2.21625977 25.13979492 2.22705078 26.29443359 C2 29 2 29 0 31 C0 20.77 0 10.54 0 0 Z " fill="#E6CB70" transform="translate(849,459)"/>
<path d="M0 0 C3 3 3 3 3.36076355 5.10710144 C3.35410172 5.91762466 3.34743988 6.72814789 3.34057617 7.56323242 C3.34034958 8.48396042 3.34012299 9.40468842 3.33988953 10.35331726 C3.32440567 11.34402725 3.30892181 12.33473724 3.29296875 13.35546875 C3.28872391 14.37224197 3.28447906 15.3890152 3.28010559 16.43659973 C3.26329997 19.68716812 3.22564382 22.9371187 3.1875 26.1875 C3.17245562 28.38996501 3.15876679 30.59243973 3.14648438 32.79492188 C3.11339019 38.19685298 3.06159448 43.59832171 3 49 C-1.95 49 -6.9 49 -12 49 C-12 33.49 -12 17.98 -12 2 C-11.34 1.67 -10.68 1.34 -10 1 C-10 16.18 -10 31.36 -10 47 C-6.37 47 -2.74 47 1 47 C0.67 31.49 0.34 15.98 0 0 Z " fill="#546666" transform="translate(516,373)"/>
<path d="M0 0 C7.92 0 15.84 0 24 0 C24 26.4 24 52.8 24 80 C23.67 80 23.34 80 23 80 C23 54.26 23 28.52 23 2 C16.07 2 9.14 2 2 2 C2.03480469 3.86785156 2.06960938 5.73570312 2.10546875 7.66015625 C2.13361444 10.12759515 2.16091376 12.59504381 2.1875 15.0625 C2.21263672 16.29162109 2.23777344 17.52074219 2.26367188 18.78710938 C2.33342443 27.41317552 1.69265466 33.22303017 -4 40 C-4.66 39.67 -5.32 39.34 -6 39 C-5.360625 38.236875 -4.72125 37.47375 -4.0625 36.6875 C-0.81659911 32.45799278 -0.83237957 29.13328492 -0.68359375 23.92578125 C-0.66281265 23.2419487 -0.64203156 22.55811615 -0.62062073 21.8535614 C-0.55533846 19.6733079 -0.49633983 17.49293595 -0.4375 15.3125 C-0.39429447 13.83267014 -0.35067953 12.35285217 -0.30664062 10.87304688 C-0.19890975 7.24881746 -0.09967893 3.62449562 0 0 Z " fill="#FBE982" transform="translate(336,459)"/>
<path d="M0 0 C7.92 0 15.84 0 24 0 C24 10.56 24 21.12 24 32 C21.63991183 28.45986775 21.76536356 26.98878045 21.8046875 22.80078125 C21.81113281 21.59228516 21.81757812 20.38378906 21.82421875 19.13867188 C21.84097656 17.87603516 21.85773437 16.61339844 21.875 15.3125 C21.88402344 14.03826172 21.89304687 12.76402344 21.90234375 11.45117188 C21.92594278 8.30070146 21.96181421 5.15032738 22 2 C15.07 2 8.14 2 1 2 C1 11.24 1 20.48 1 30 C0.67 30 0.34 30 0 30 C0 20.1 0 10.2 0 0 Z " fill="#F9E17B" transform="translate(755,459)"/>
<path d="M0 0 C0.99 0.33 1.98 0.66 3 1 C3 7.93 3 14.86 3 22 C2.34 22.33 1.68 22.66 1 23 C-0.20272819 20.59454362 -0.10071472 19.05003047 -0.0625 16.375 C-0.05347656 15.55773437 -0.04445313 14.74046875 -0.03515625 13.8984375 C-0.02355469 13.27195312 -0.01195312 12.64546875 0 12 C0.33 12 0.66 12 1 12 C1.19814261 5.91591528 1.19814261 5.91591528 0 0 Z M1 14 C2 17 2 17 2 17 Z " fill="#1D1E1A" transform="translate(824,455)"/>
<path d="M0 0 C0.66 0 1.32 0 2 0 C3.7265625 2.1875 3.7265625 2.1875 5.625 5 C6.25664063 5.928125 6.88828125 6.85625 7.5390625 7.8125 C8.26222656 8.8953125 8.26222656 8.8953125 9 10 C8.67 10.66 8.34 11.32 8 12 C3 6.25 3 6.25 3 4 C2.01 4.66 1.02 5.32 0 6 C-0.99 5.67 -1.98 5.34 -3 5 C-1.625 2.5 -1.625 2.5 0 0 Z " fill="#EB7852" transform="translate(511,148)"/>
<path d="M0 0 C6.40140935 0.46555704 11.26769829 2.14711836 17 5 C13.275397 6.24153433 12.52247731 5.47452539 9 4 C7.0075675 3.62406934 5.0081326 3.28020455 3 3 C3 2.34 3 1.68 3 1 C2.01 0.67 1.02 0.34 0 0 Z " fill="#9ED39A" transform="translate(838,791)"/>
<path d="M0 0 C0.33 0 0.66 0 1 0 C1 1.98 1 3.96 1 6 C0.34 5.01 -0.32 4.02 -1 3 C-0.67 2.01 -0.34 1.02 0 0 Z " fill="#2A2B25" transform="translate(137,697)"/>
<path d="M0 0 C0.66 0.66 1.32 1.32 2 2 C1.67 2.99 1.34 3.98 1 5 C0.67 3.35 0.34 1.7 0 0 Z " fill="#2B2F29" transform="translate(96,832)"/>
<path d="M0 0 C0.33 0 0.66 0 1 0 C1 1.65 1 3.3 1 5 C0.67 5 0.34 5 0 5 C0 3.35 0 1.7 0 0 Z " fill="#2A2C23" transform="translate(824,461)"/>
<path d="M0 0 C1.65 0 3.3 0 5 0 C5 0.33 5 0.66 5 1 C3.35 1 1.7 1 0 1 C0 0.67 0 0.34 0 0 Z " fill="#3B3D35" transform="translate(168,434)"/>
<path d="M0 0 C0.66 0.33 1.32 0.66 2 1 C0.68 1.33 -0.64 1.66 -2 2 C-1.34 1.34 -0.68 0.68 0 0 Z " fill="#252521" transform="translate(403,248)"/>
<path d="M0 0 C1 4 1 4 1 4 Z " fill="#2D3128" transform="translate(931,868)"/>
<path d="M0 0 C1 4 1 4 1 4 Z " fill="#292A24" transform="translate(137,719)"/>
<path d="M0 0 C0.66 0.66 1.32 1.32 2 2 C1.01 1.67 0.02 1.34 -1 1 C-0.67 0.67 -0.34 0.34 0 0 Z " fill="#262624" transform="translate(633,536)"/>
<path d="M0 0 C1.485 0.99 1.485 0.99 3 2 C2.01 2 1.02 2 0 2 C0 1.34 0 0.68 0 0 Z " fill="#272723" transform="translate(627,536)"/>
<path d="M0 0 C1.485 0.99 1.485 0.99 3 2 C2.01 2 1.02 2 0 2 C0 1.34 0 0.68 0 0 Z " fill="#2A2924" transform="translate(393,536)"/>
<path d="M0 0 C0.33 0.99 0.66 1.98 1 3 C0.34 2.67 -0.32 2.34 -1 2 C-0.67 1.34 -0.34 0.68 0 0 Z " fill="#30312B" transform="translate(729,474)"/>
<path d="M0 0 C1.485 0.99 1.485 0.99 3 2 C2.01 2 1.02 2 0 2 C0 1.34 0 0.68 0 0 Z " fill="#3A3B34" transform="translate(866,433)"/>
<path d="M0 0 C0.66 0.33 1.32 0.66 2 1 C1.01 1 0.02 1 -1 1 C-0.67 0.67 -0.34 0.34 0 0 Z " fill="#3A3A33" transform="translate(871,433)"/>
<path d="M0 0 C0.33 0.66 0.66 1.32 1 2 C0.01 1.67 -0.98 1.34 -2 1 C-1.34 0.67 -0.68 0.34 0 0 Z " fill="#383A2F" transform="translate(271,433)"/>
<path d="M0 0 C1 4 1 4 1 4 Z " fill="#2A2A26" transform="translate(627,375)"/>
<path d="M0 0 C0.99 0.495 0.99 0.495 2 1 C1.67 1.66 1.34 2.32 1 3 C0.67 2.01 0.34 1.02 0 0 Z " fill="#262520" transform="translate(599,223)"/>
<path d="M0 0 C0.33 0.99 0.66 1.98 1 3 C0.34 2.67 -0.32 2.34 -1 2 C-0.67 1.34 -0.34 0.68 0 0 Z " fill="#292925" transform="translate(465,160)"/>
<path d="" fill="#2F352D" transform="translate(0,0)"/>
<path d="" fill="#2A3129" transform="translate(0,0)"/>
<path d="" fill="#2B2E27" transform="translate(0,0)"/>
<path d="M0 0 C0.33 0.66 0.66 1.32 1 2 C0.34 1.67 -0.32 1.34 -1 1 C-0.67 0.67 -0.34 0.34 0 0 Z " fill="#272822" transform="translate(903,799)"/>
<path d="M0 0 C0.99 0.495 0.99 0.495 2 1 C1.01 1.495 1.01 1.495 0 2 C0 1.34 0 0.68 0 0 Z " fill="#262A23" transform="translate(123,792)"/>
<path d="M0 0 C0.99 0.495 0.99 0.495 2 1 C1.01 1.495 1.01 1.495 0 2 C0 1.34 0 0.68 0 0 Z " fill="#262721" transform="translate(134,785)"/>
<path d="" fill="#292923" transform="translate(0,0)"/>
<path d="" fill="#2F2F29" transform="translate(0,0)"/>
<path d="M0 0 C0.99 0.495 0.99 0.495 2 1 C1.01 1.495 1.01 1.495 0 2 C0 1.34 0 0.68 0 0 Z " fill="#262723" transform="translate(635,534)"/>
<path d="M0 0 C3 1 3 1 3 1 Z " fill="#303129" transform="translate(293,476)"/>
<path d="" fill="#272724" transform="translate(0,0)"/>
<path d="" fill="#2B2E28" transform="translate(0,0)"/>
<path d="" fill="#292C24" transform="translate(0,0)"/>
<path d="" fill="#2B2C29" transform="translate(0,0)"/>
<path d="M0 0 C3 1 3 1 3 1 Z " fill="#3A3A33" transform="translate(876,434)"/>
<path d="M0 0 C0.66 0.66 1.32 1.32 2 2 C1.34 2 0.68 2 0 2 C0 1.34 0 0.68 0 0 Z " fill="#383930" transform="translate(350,433)"/>
<path d="M0 0 C3 1 3 1 3 1 Z " fill="#3A3D33" transform="translate(264,434)"/>
<path d="M0 0 C3 1 3 1 3 1 Z " fill="#393B34" transform="translate(254,434)"/>
<path d="M0 0 C3 1 3 1 3 1 Z " fill="#3D3F36" transform="translate(159,434)"/>
<path d="M0 0 C0.33 0.66 0.66 1.32 1 2 C0.34 1.67 -0.32 1.34 -1 1 C-0.67 0.67 -0.34 0.34 0 0 Z " fill="#393831" transform="translate(847,433)"/>
<path d="" fill="#272823" transform="translate(0,0)"/>
<path d="M0 0 C0.66 0 1.32 0 2 0 C1.67 0.66 1.34 1.32 1 2 C0.67 1.34 0.34 0.68 0 0 Z " fill="#2C2D27" transform="translate(371,315)"/>
<path d="M0 0 C0.66 0.66 1.32 1.32 2 2 C1.34 2 0.68 2 0 2 C0 1.34 0 0.68 0 0 Z " fill="#282823" transform="translate(443,192)"/>
<path d="M0 0 C0.66 0.66 1.32 1.32 2 2 C1.34 2 0.68 2 0 2 C0 1.34 0 0.68 0 0 Z " fill="#282824" transform="translate(468,160)"/>
<path d="" fill="#343A31" transform="translate(0,0)"/>
<path d="M0 0 C2 1 2 1 2 1 Z " fill="#363C34" transform="translate(911,907)"/>
<path d="M0 0 C2 1 2 1 2 1 Z " fill="#343930" transform="translate(814,906)"/>
<path d="" fill="#2E322A" transform="translate(0,0)"/>
<path d="" fill="#2D322A" transform="translate(0,0)"/>
<path d="" fill="#2B3028" transform="translate(0,0)"/>
<path d="" fill="#2B3028" transform="translate(0,0)"/>
<path d="" fill="#2C332A" transform="translate(0,0)"/>
<path d="" fill="#2D312A" transform="translate(0,0)"/>
<path d="" fill="#2B3029" transform="translate(0,0)"/>
<path d="" fill="#2C2E27" transform="translate(0,0)"/>
<path d="" fill="#2C3029" transform="translate(0,0)"/>
<path d="" fill="#2A2D25" transform="translate(0,0)"/>
<path d="" fill="#272D25" transform="translate(0,0)"/>
<path d="" fill="#282A24" transform="translate(0,0)"/>
<path d="M0 0 C2 1 2 1 2 1 Z " fill="#252620" transform="translate(136,784)"/>
<path d="" fill="#292824" transform="translate(0,0)"/>
<path d="" fill="#282923" transform="translate(0,0)"/>
<path d="M0 0 C2 1 2 1 2 1 Z " fill="#2E2F29" transform="translate(884,711)"/>
<path d="" fill="#2E2F28" transform="translate(0,0)"/>
<path d="" fill="#272A24" transform="translate(0,0)"/>
<path d="" fill="#2E2F27" transform="translate(0,0)"/>
<path d="" fill="#2C2D26" transform="translate(0,0)"/>
<path d="M0 0 C2 1 2 1 2 1 Z " fill="#2C2C25" transform="translate(136,680)"/>
<path d="" fill="#2C2C26" transform="translate(0,0)"/>
<path d="" fill="#2F3028" transform="translate(0,0)"/>
<path d="" fill="#31332A" transform="translate(0,0)"/>
<path d="M0 0 C2 1 2 1 2 1 Z " fill="#2E2F27" transform="translate(137,635)"/>
<path d="" fill="#2E2D29" transform="translate(0,0)"/>
<path d="M0 0 C2 1 2 1 2 1 Z " fill="#272822" transform="translate(636,537)"/>
<path d="" fill="#2E2F29" transform="translate(0,0)"/>
<path d="" fill="#242620" transform="translate(0,0)"/>
<path d="" fill="#272723" transform="translate(0,0)"/>
<path d="" fill="#272722" transform="translate(0,0)"/>
<path d="" fill="#252722" transform="translate(0,0)"/>
<path d="" fill="#272824" transform="translate(0,0)"/>
<path d="" fill="#252622" transform="translate(0,0)"/>
<path d="" fill="#272924" transform="translate(0,0)"/>
<path d="" fill="#262723" transform="translate(0,0)"/>
<path d="" fill="#282722" transform="translate(0,0)"/>
<path d="" fill="#272722" transform="translate(0,0)"/>
<path d="" fill="#30312A" transform="translate(0,0)"/>
<path d="M0 0 C2 1 2 1 2 1 Z " fill="#272621" transform="translate(395,476)"/>
<path d="M0 0 C2 1 2 1 2 1 Z " fill="#2F322C" transform="translate(217,476)"/>
<path d="" fill="#2E2F29" transform="translate(0,0)"/>
<path d="M0 0 C2 1 2 1 2 1 Z " fill="#32342E" transform="translate(803,473)"/>
<path d="" fill="#272624" transform="translate(0,0)"/>
<path d="" fill="#262722" transform="translate(0,0)"/>
<path d="" fill="#262722" transform="translate(0,0)"/>
<path d="M0 0 C2 1 2 1 2 1 Z " fill="#2C2C26" transform="translate(292,447)"/>
<path d="" fill="#2E302B" transform="translate(0,0)"/>
<path d="" fill="#272823" transform="translate(0,0)"/>
<path d="" fill="#282825" transform="translate(0,0)"/>
<path d="" fill="#262522" transform="translate(0,0)"/>
<path d="" fill="#363931" transform="translate(0,0)"/>
<path d="" fill="#33352E" transform="translate(0,0)"/>
<path d="M0 0 C2 1 2 1 2 1 Z " fill="#3C3C35" transform="translate(883,434)"/>
<path d="M0 0 C2 1 2 1 2 1 Z " fill="#393B33" transform="translate(880,434)"/>
<path d="M0 0 C2 1 2 1 2 1 Z " fill="#383830" transform="translate(694,434)"/>
<path d="" fill="#373931" transform="translate(0,0)"/>
<path d="" fill="#2E2F2B" transform="translate(0,0)"/>
<path d="M0 0 C2 1 2 1 2 1 Z " fill="#383B34" transform="translate(248,434)"/>
<path d="M0 0 C2 1 2 1 2 1 Z " fill="#3D3F35" transform="translate(150,434)"/>
<path d="M0 0 C2 1 2 1 2 1 Z " fill="#3E3D37" transform="translate(142,434)"/>
<path d="" fill="#36372F" transform="translate(0,0)"/>
<path d="" fill="#393931" transform="translate(0,0)"/>
<path d="M0 0 C2 1 2 1 2 1 Z " fill="#393B34" transform="translate(854,432)"/>
<path d="" fill="#282823" transform="translate(0,0)"/>
<path d="" fill="#282824" transform="translate(0,0)"/>
<path d="" fill="#282723" transform="translate(0,0)"/>
<path d="" fill="#282A25" transform="translate(0,0)"/>
<path d="" fill="#282A25" transform="translate(0,0)"/>
<path d="M0 0 C2 1 2 1 2 1 Z " fill="#262723" transform="translate(636,319)"/>
<path d="M0 0 C2 1 2 1 2 1 Z " fill="#222422" transform="translate(388,319)"/>
<path d="M0 0 C2 1 2 1 2 1 Z " fill="#292C27" transform="translate(375,318)"/>
<path d="" fill="#2B2C27" transform="translate(0,0)"/>
<path d="" fill="#2A2B27" transform="translate(0,0)"/>
<path d="" fill="#272722" transform="translate(0,0)"/>
<path d="M0 0 C2 1 2 1 2 1 Z " fill="#262521" transform="translate(411,240)"/>
<path d="" fill="#272622" transform="translate(0,0)"/>
<path d="" fill="#272521" transform="translate(0,0)"/>
<path d="" fill="#262622" transform="translate(0,0)"/>
<path d="M0 0 C2 1 2 1 2 1 Z " fill="#262621" transform="translate(450,186)"/>
<path d="" fill="#282723" transform="translate(0,0)"/>
<path d="M0 0 C2 1 2 1 2 1 Z " fill="#272823" transform="translate(559,168)"/>
<path d="" fill="#292B23" transform="translate(0,0)"/>
<path d="" fill="#2C2C28" transform="translate(0,0)"/>
<path d="" fill="#566054" transform="translate(0,0)"/>
<path d="" fill="#555E53" transform="translate(0,0)"/>
<path d="" fill="#535E51" transform="translate(0,0)"/>
<path d="" fill="#545F52" transform="translate(0,0)"/>
<path d="" fill="#525E51" transform="translate(0,0)"/>
<path d="" fill="#515C50" transform="translate(0,0)"/>
<path d="" fill="#515B4E" transform="translate(0,0)"/>
<path d="" fill="#50584D" transform="translate(0,0)"/>
<path d="" fill="#51594E" transform="translate(0,0)"/>
<path d="" fill="#4C5648" transform="translate(0,0)"/>
<path d="" fill="#4B574A" transform="translate(0,0)"/>
<path d="" fill="#485247" transform="translate(0,0)"/>
<path d="" fill="#465043" transform="translate(0,0)"/>
<path d="" fill="#454D42" transform="translate(0,0)"/>
<path d="" fill="#414B3E" transform="translate(0,0)"/>
<path d="" fill="#3E453B" transform="translate(0,0)"/>
<path d="" fill="#3E453A" transform="translate(0,0)"/>
<path d="" fill="#3D463C" transform="translate(0,0)"/>
<path d="" fill="#3C463B" transform="translate(0,0)"/>
<path d="" fill="#3D443A" transform="translate(0,0)"/>
<path d="" fill="#4D544A" transform="translate(0,0)"/>
<path d="" fill="#384135" transform="translate(0,0)"/>
<path d="" fill="#394236" transform="translate(0,0)"/>
<path d="" fill="#343D32" transform="translate(0,0)"/>
<path d="" fill="#363C33" transform="translate(0,0)"/>
<path d="" fill="#363B33" transform="translate(0,0)"/>
<path d="" fill="#343B32" transform="translate(0,0)"/>
<path d="" fill="#353831" transform="translate(0,0)"/>
<path d="" fill="#333930" transform="translate(0,0)"/>
<path d="" fill="#33392F" transform="translate(0,0)"/>
<path d="" fill="#353A31" transform="translate(0,0)"/>
<path d="" fill="#353A32" transform="translate(0,0)"/>
<path d="" fill="#353A31" transform="translate(0,0)"/>
<path d="" fill="#343A31" transform="translate(0,0)"/>
<path d="" fill="#353A31" transform="translate(0,0)"/>
<path d="" fill="#333B33" transform="translate(0,0)"/>
<path d="" fill="#343A30" transform="translate(0,0)"/>
<path d="" fill="#353A30" transform="translate(0,0)"/>
<path d="" fill="#343831" transform="translate(0,0)"/>
<path d="" fill="#313A30" transform="translate(0,0)"/>
<path d="" fill="#343C31" transform="translate(0,0)"/>
<path d="" fill="#31392F" transform="translate(0,0)"/>
<path d="" fill="#313931" transform="translate(0,0)"/>
<path d="" fill="#323930" transform="translate(0,0)"/>
<path d="" fill="#323931" transform="translate(0,0)"/>
<path d="" fill="#32382F" transform="translate(0,0)"/>
<path d="" fill="#32392F" transform="translate(0,0)"/>
<path d="" fill="#333830" transform="translate(0,0)"/>
<path d="" fill="#313A30" transform="translate(0,0)"/>
<path d="" fill="#323930" transform="translate(0,0)"/>
<path d="" fill="#333A30" transform="translate(0,0)"/>
<path d="" fill="#31382F" transform="translate(0,0)"/>
<path d="" fill="#30372D" transform="translate(0,0)"/>
<path d="" fill="#30372F" transform="translate(0,0)"/>
<path d="" fill="#313830" transform="translate(0,0)"/>
<path d="" fill="#32392F" transform="translate(0,0)"/>
<path d="" fill="#31392E" transform="translate(0,0)"/>
<path d="" fill="#323730" transform="translate(0,0)"/>
<path d="" fill="#31362C" transform="translate(0,0)"/>
<path d="" fill="#32362F" transform="translate(0,0)"/>
<path d="" fill="#33382F" transform="translate(0,0)"/>
<path d="" fill="#303831" transform="translate(0,0)"/>
<path d="" fill="#30362D" transform="translate(0,0)"/>
<path d="" fill="#2F352F" transform="translate(0,0)"/>
<path d="" fill="#2C352B" transform="translate(0,0)"/>
<path d="" fill="#2C3129" transform="translate(0,0)"/>
<path d="" fill="#2B322A" transform="translate(0,0)"/>
<path d="" fill="#2E332A" transform="translate(0,0)"/>
<path d="" fill="#2B3028" transform="translate(0,0)"/>
<path d="" fill="#2C302A" transform="translate(0,0)"/>
<path d="" fill="#485147" transform="translate(0,0)"/>
<path d="" fill="#2F332C" transform="translate(0,0)"/>
<path d="" fill="#2D3029" transform="translate(0,0)"/>
<path d="" fill="#2C312B" transform="translate(0,0)"/>
<path d="" fill="#2D322B" transform="translate(0,0)"/>
<path d="" fill="#2B2F28" transform="translate(0,0)"/>
<path d="" fill="#2C3126" transform="translate(0,0)"/>
<path d="" fill="#4B5249" transform="translate(0,0)"/>
<path d="" fill="#2C3127" transform="translate(0,0)"/>
<path d="" fill="#282B25" transform="translate(0,0)"/>
<path d="" fill="#292D28" transform="translate(0,0)"/>
<path d="" fill="#2A2F28" transform="translate(0,0)"/>
<path d="" fill="#2C2E27" transform="translate(0,0)"/>
<path d="" fill="#2A2A26" transform="translate(0,0)"/>
<path d="" fill="#242C24" transform="translate(0,0)"/>
<path d="" fill="#282B27" transform="translate(0,0)"/>
<path d="" fill="#292C25" transform="translate(0,0)"/>
<path d="" fill="#262922" transform="translate(0,0)"/>
<path d="" fill="#282B23" transform="translate(0,0)"/>
<path d="" fill="#282C26" transform="translate(0,0)"/>
<path d="" fill="#282A23" transform="translate(0,0)"/>
<path d="" fill="#292C24" transform="translate(0,0)"/>
<path d="" fill="#242722" transform="translate(0,0)"/>
<path d="" fill="#242823" transform="translate(0,0)"/>
<path d="" fill="#2A2C25" transform="translate(0,0)"/>
<path d="" fill="#262723" transform="translate(0,0)"/>
<path d="" fill="#272824" transform="translate(0,0)"/>
<path d="" fill="#282721" transform="translate(0,0)"/>
<path d="" fill="#252822" transform="translate(0,0)"/>
<path d="" fill="#242620" transform="translate(0,0)"/>
<path d="" fill="#252820" transform="translate(0,0)"/>
<path d="" fill="#282623" transform="translate(0,0)"/>
<path d="" fill="#272A23" transform="translate(0,0)"/>
<path d="" fill="#2B2923" transform="translate(0,0)"/>
<path d="" fill="#292B22" transform="translate(0,0)"/>
<path d="" fill="#2C2D26" transform="translate(0,0)"/>
<path d="" fill="#2A2924" transform="translate(0,0)"/>
<path d="" fill="#282924" transform="translate(0,0)"/>
<path d="" fill="#282923" transform="translate(0,0)"/>
<path d="" fill="#2F2E27" transform="translate(0,0)"/>
<path d="" fill="#272722" transform="translate(0,0)"/>
<path d="" fill="#292A23" transform="translate(0,0)"/>
<path d="" fill="#2E2D29" transform="translate(0,0)"/>
<path d="" fill="#2D2E27" transform="translate(0,0)"/>
<path d="" fill="#2B2B27" transform="translate(0,0)"/>
<path d="" fill="#292A24" transform="translate(0,0)"/>
<path d="" fill="#2C2E27" transform="translate(0,0)"/>
<path d="" fill="#393D36" transform="translate(0,0)"/>
<path d="" fill="#2A2C26" transform="translate(0,0)"/>
<path d="" fill="#2B2A26" transform="translate(0,0)"/>
<path d="" fill="#42473E" transform="translate(0,0)"/>
<path d="" fill="#2E2F29" transform="translate(0,0)"/>
<path d="" fill="#2C2D26" transform="translate(0,0)"/>
<path d="" fill="#2E2D26" transform="translate(0,0)"/>
<path d="" fill="#2D2C27" transform="translate(0,0)"/>
<path d="" fill="#2B2D26" transform="translate(0,0)"/>
<path d="" fill="#2A2A28" transform="translate(0,0)"/>
<path d="" fill="#30302A" transform="translate(0,0)"/>
<path d="" fill="#2E2D28" transform="translate(0,0)"/>
<path d="" fill="#2B2D27" transform="translate(0,0)"/>
<path d="" fill="#2C2E26" transform="translate(0,0)"/>
<path d="" fill="#2E2C27" transform="translate(0,0)"/>
<path d="" fill="#303129" transform="translate(0,0)"/>
<path d="" fill="#2A2C26" transform="translate(0,0)"/>
<path d="" fill="#2F312A" transform="translate(0,0)"/>
<path d="" fill="#2E2F29" transform="translate(0,0)"/>
<path d="" fill="#2C2D25" transform="translate(0,0)"/>
<path d="" fill="#30312B" transform="translate(0,0)"/>
<path d="" fill="#2E2D27" transform="translate(0,0)"/>
<path d="" fill="#2C2D26" transform="translate(0,0)"/>
<path d="" fill="#3C3F37" transform="translate(0,0)"/>
<path d="" fill="#2D2C26" transform="translate(0,0)"/>
<path d="" fill="#2E2E27" transform="translate(0,0)"/>
<path d="" fill="#2B2B25" transform="translate(0,0)"/>
<path d="" fill="#2B2A25" transform="translate(0,0)"/>
<path d="" fill="#2E2E2A" transform="translate(0,0)"/>
<path d="" fill="#2B2D27" transform="translate(0,0)"/>
<path d="" fill="#292A26" transform="translate(0,0)"/>
<path d="" fill="#292B24" transform="translate(0,0)"/>
<path d="" fill="#303027" transform="translate(0,0)"/>
<path d="" fill="#292D24" transform="translate(0,0)"/>
<path d="" fill="#292B24" transform="translate(0,0)"/>
<path d="" fill="#2A2E25" transform="translate(0,0)"/>
<path d="" fill="#2C2D27" transform="translate(0,0)"/>
<path d="" fill="#2D2F28" transform="translate(0,0)"/>
<path d="" fill="#292B25" transform="translate(0,0)"/>
<path d="" fill="#2D2D27" transform="translate(0,0)"/>
<path d="" fill="#2E2F26" transform="translate(0,0)"/>
<path d="" fill="#2D2E28" transform="translate(0,0)"/>
<path d="" fill="#2D2E26" transform="translate(0,0)"/>
<path d="" fill="#2B2C27" transform="translate(0,0)"/>
<path d="" fill="#2C2D28" transform="translate(0,0)"/>
<path d="" fill="#2C2D2A" transform="translate(0,0)"/>
<path d="" fill="#2C2E29" transform="translate(0,0)"/>
<path d="" fill="#2A2C29" transform="translate(0,0)"/>
<path d="" fill="#31302B" transform="translate(0,0)"/>
<path d="" fill="#2C2D29" transform="translate(0,0)"/>
<path d="" fill="#2D2F2A" transform="translate(0,0)"/>
<path d="" fill="#303129" transform="translate(0,0)"/>
<path d="" fill="#2F312B" transform="translate(0,0)"/>
<path d="" fill="#2F312A" transform="translate(0,0)"/>
<path d="" fill="#292924" transform="translate(0,0)"/>
<path d="" fill="#282A26" transform="translate(0,0)"/>
<path d="" fill="#242622" transform="translate(0,0)"/>
<path d="" fill="#272621" transform="translate(0,0)"/>
<path d="" fill="#252523" transform="translate(0,0)"/>
<path d="" fill="#262524" transform="translate(0,0)"/>
<path d="" fill="#292B23" transform="translate(0,0)"/>
<path d="" fill="#272520" transform="translate(0,0)"/>
<path d="" fill="#4F564B" transform="translate(0,0)"/>
<path d="" fill="#262721" transform="translate(0,0)"/>
<path d="" fill="#242621" transform="translate(0,0)"/>
<path d="" fill="#252422" transform="translate(0,0)"/>
<path d="" fill="#252621" transform="translate(0,0)"/>
<path d="" fill="#2D2F2A" transform="translate(0,0)"/>
<path d="" fill="#262423" transform="translate(0,0)"/>
<path d="" fill="#262623" transform="translate(0,0)"/>
<path d="" fill="#2D2E28" transform="translate(0,0)"/>
<path d="" fill="#262625" transform="translate(0,0)"/>
<path d="" fill="#252622" transform="translate(0,0)"/>
<path d="" fill="#252623" transform="translate(0,0)"/>
<path d="" fill="#262423" transform="translate(0,0)"/>
<path d="" fill="#252520" transform="translate(0,0)"/>
<path d="" fill="#262622" transform="translate(0,0)"/>
<path d="" fill="#272822" transform="translate(0,0)"/>
<path d="" fill="#262923" transform="translate(0,0)"/>
<path d="" fill="#272621" transform="translate(0,0)"/>
<path d="" fill="#31312A" transform="translate(0,0)"/>
<path d="" fill="#282924" transform="translate(0,0)"/>
<path d="" fill="#252622" transform="translate(0,0)"/>
<path d="" fill="#272520" transform="translate(0,0)"/>
<path d="" fill="#272723" transform="translate(0,0)"/>
<path d="" fill="#262520" transform="translate(0,0)"/>
<path d="" fill="#292821" transform="translate(0,0)"/>
<path d="" fill="#242723" transform="translate(0,0)"/>
<path d="" fill="#252520" transform="translate(0,0)"/>
<path d="" fill="#272724" transform="translate(0,0)"/>
<path d="" fill="#292922" transform="translate(0,0)"/>
<path d="" fill="#222521" transform="translate(0,0)"/>
<path d="" fill="#252822" transform="translate(0,0)"/>
<path d="" fill="#262823" transform="translate(0,0)"/>
<path d="" fill="#32332D" transform="translate(0,0)"/>
<path d="" fill="#32342C" transform="translate(0,0)"/>
<path d="" fill="#34332E" transform="translate(0,0)"/>
<path d="" fill="#30322C" transform="translate(0,0)"/>
<path d="" fill="#303029" transform="translate(0,0)"/>
<path d="" fill="#32332B" transform="translate(0,0)"/>
<path d="" fill="#303029" transform="translate(0,0)"/>
<path d="" fill="#32322C" transform="translate(0,0)"/>
<path d="" fill="#32322C" transform="translate(0,0)"/>
<path d="" fill="#272824" transform="translate(0,0)"/>
<path d="" fill="#2F2F29" transform="translate(0,0)"/>
<path d="" fill="#2E312B" transform="translate(0,0)"/>
<path d="" fill="#2D2F2B" transform="translate(0,0)"/>
<path d="" fill="#2F2D29" transform="translate(0,0)"/>
<path d="" fill="#2E3028" transform="translate(0,0)"/>
<path d="" fill="#2B2E28" transform="translate(0,0)"/>
<path d="" fill="#2F312B" transform="translate(0,0)"/>
<path d="" fill="#272724" transform="translate(0,0)"/>
<path d="" fill="#2D3029" transform="translate(0,0)"/>
<path d="" fill="#282723" transform="translate(0,0)"/>
<path d="" fill="#2C2F2C" transform="translate(0,0)"/>
<path d="" fill="#2F2E29" transform="translate(0,0)"/>
<path d="" fill="#272624" transform="translate(0,0)"/>
<path d="" fill="#252821" transform="translate(0,0)"/>
<path d="" fill="#2F302B" transform="translate(0,0)"/>
<path d="" fill="#2A2B25" transform="translate(0,0)"/>
<path d="" fill="#2C2C27" transform="translate(0,0)"/>
<path d="" fill="#2C2F2B" transform="translate(0,0)"/>
<path d="" fill="#2E2F29" transform="translate(0,0)"/>
<path d="" fill="#2B2E29" transform="translate(0,0)"/>
<path d="" fill="#2A2B26" transform="translate(0,0)"/>
<path d="" fill="#252723" transform="translate(0,0)"/>
<path d="" fill="#282924" transform="translate(0,0)"/>
<path d="" fill="#2E2D2A" transform="translate(0,0)"/>
<path d="" fill="#252623" transform="translate(0,0)"/>
<path d="" fill="#272825" transform="translate(0,0)"/>
<path d="" fill="#282725" transform="translate(0,0)"/>
<path d="" fill="#2B2B27" transform="translate(0,0)"/>
<path d="" fill="#2B2B26" transform="translate(0,0)"/>
<path d="" fill="#272823" transform="translate(0,0)"/>
<path d="" fill="#262823" transform="translate(0,0)"/>
<path d="" fill="#2B2B28" transform="translate(0,0)"/>
<path d="" fill="#262723" transform="translate(0,0)"/>
<path d="" fill="#262722" transform="translate(0,0)"/>
<path d="" fill="#2A2B27" transform="translate(0,0)"/>
<path d="" fill="#292A21" transform="translate(0,0)"/>
<path d="" fill="#262523" transform="translate(0,0)"/>
<path d="" fill="#2B2D27" transform="translate(0,0)"/>
<path d="" fill="#292924" transform="translate(0,0)"/>
<path d="" fill="#282723" transform="translate(0,0)"/>
<path d="" fill="#262823" transform="translate(0,0)"/>
<path d="" fill="#2B2923" transform="translate(0,0)"/>
<path d="" fill="#2A2C26" transform="translate(0,0)"/>
<path d="" fill="#282723" transform="translate(0,0)"/>
<path d="" fill="#2A2B27" transform="translate(0,0)"/>
<path d="" fill="#2C2C25" transform="translate(0,0)"/>
<path d="" fill="#282723" transform="translate(0,0)"/>
<path d="" fill="#282824" transform="translate(0,0)"/>
<path d="" fill="#272820" transform="translate(0,0)"/>
<path d="" fill="#272824" transform="translate(0,0)"/>
<path d="" fill="#302D26" transform="translate(0,0)"/>
<path d="" fill="#292724" transform="translate(0,0)"/>
<path d="" fill="#292924" transform="translate(0,0)"/>
<path d="" fill="#383832" transform="translate(0,0)"/>
<path d="" fill="#262824" transform="translate(0,0)"/>
<path d="" fill="#2E2E28" transform="translate(0,0)"/>
<path d="" fill="#2E2D2A" transform="translate(0,0)"/>
<path d="" fill="#2E2925" transform="translate(0,0)"/>
<path d="" fill="#2D2E2A" transform="translate(0,0)"/>
<path d="" fill="#2A2C28" transform="translate(0,0)"/>
<path d="" fill="#2D2E29" transform="translate(0,0)"/>
<path d="" fill="#2F2F2A" transform="translate(0,0)"/>
<path d="" fill="#383832" transform="translate(0,0)"/>
<path d="" fill="#2F312A" transform="translate(0,0)"/>
<path d="" fill="#2D2E27" transform="translate(0,0)"/>
<path d="" fill="#292926" transform="translate(0,0)"/>
<path d="" fill="#2F2F2B" transform="translate(0,0)"/>
<path d="" fill="#292B25" transform="translate(0,0)"/>
<path d="" fill="#36372E" transform="translate(0,0)"/>
<path d="" fill="#302F2A" transform="translate(0,0)"/>
<path d="" fill="#302F2B" transform="translate(0,0)"/>
<path d="" fill="#2F322B" transform="translate(0,0)"/>
<path d="" fill="#30322D" transform="translate(0,0)"/>
<path d="" fill="#31302A" transform="translate(0,0)"/>
<path d="" fill="#33352E" transform="translate(0,0)"/>
<path d="" fill="#33312C" transform="translate(0,0)"/>
<path d="" fill="#33332C" transform="translate(0,0)"/>
<path d="" fill="#36362E" transform="translate(0,0)"/>
<path d="" fill="#373B33" transform="translate(0,0)"/>
<path d="" fill="#3B3D33" transform="translate(0,0)"/>
<path d="" fill="#393D37" transform="translate(0,0)"/>
<path d="" fill="#3D3D33" transform="translate(0,0)"/>
<path d="" fill="#3D3D35" transform="translate(0,0)"/>
<path d="" fill="#3A3934" transform="translate(0,0)"/>
<path d="" fill="#383A2F" transform="translate(0,0)"/>
<path d="" fill="#3A3D33" transform="translate(0,0)"/>
<path d="" fill="#3B3C36" transform="translate(0,0)"/>
<path d="" fill="#3A3E33" transform="translate(0,0)"/>
<path d="" fill="#3B3E36" transform="translate(0,0)"/>
<path d="" fill="#393A33" transform="translate(0,0)"/>
<path d="" fill="#33342C" transform="translate(0,0)"/>
<path d="" fill="#31342C" transform="translate(0,0)"/>
<path d="" fill="#373832" transform="translate(0,0)"/>
<path d="" fill="#373B32" transform="translate(0,0)"/>
<path d="" fill="#37392F" transform="translate(0,0)"/>
<path d="" fill="#373B30" transform="translate(0,0)"/>
<path d="" fill="#393A32" transform="translate(0,0)"/>
<path d="" fill="#3A3B32" transform="translate(0,0)"/>
<path d="" fill="#353931" transform="translate(0,0)"/>
<path d="" fill="#393A33" transform="translate(0,0)"/>
<path d="" fill="#2E2E28" transform="translate(0,0)"/>
<path d="" fill="#303029" transform="translate(0,0)"/>
<path d="" fill="#363832" transform="translate(0,0)"/>
<path d="" fill="#393833" transform="translate(0,0)"/>
<path d="" fill="#36362E" transform="translate(0,0)"/>
<path d="" fill="#32332B" transform="translate(0,0)"/>
<path d="" fill="#373831" transform="translate(0,0)"/>
<path d="" fill="#3A3B32" transform="translate(0,0)"/>
<path d="" fill="#3A3A33" transform="translate(0,0)"/>
<path d="" fill="#3A3B35" transform="translate(0,0)"/>
<path d="" fill="#3B3C36" transform="translate(0,0)"/>
<path d="" fill="#3A3C33" transform="translate(0,0)"/>
<path d="" fill="#33362E" transform="translate(0,0)"/>
<path d="" fill="#33332D" transform="translate(0,0)"/>
<path d="" fill="#373A2F" transform="translate(0,0)"/>
<path d="" fill="#383932" transform="translate(0,0)"/>
<path d="" fill="#3E3E36" transform="translate(0,0)"/>
<path d="" fill="#36392F" transform="translate(0,0)"/>
<path d="" fill="#383C32" transform="translate(0,0)"/>
<path d="" fill="#3B3B33" transform="translate(0,0)"/>
<path d="" fill="#383833" transform="translate(0,0)"/>
<path d="" fill="#393832" transform="translate(0,0)"/>
<path d="" fill="#383B33" transform="translate(0,0)"/>
<path d="" fill="#3A3832" transform="translate(0,0)"/>
<path d="" fill="#353730" transform="translate(0,0)"/>
<path d="" fill="#373932" transform="translate(0,0)"/>
<path d="" fill="#363B34" transform="translate(0,0)"/>
<path d="" fill="#35372F" transform="translate(0,0)"/>
<path d="" fill="#2E2D29" transform="translate(0,0)"/>
<path d="" fill="#35352F" transform="translate(0,0)"/>
<path d="" fill="#383B30" transform="translate(0,0)"/>
<path d="" fill="#383830" transform="translate(0,0)"/>
<path d="" fill="#3B3D34" transform="translate(0,0)"/>
<path d="" fill="#373B34" transform="translate(0,0)"/>
<path d="" fill="#34342E" transform="translate(0,0)"/>
<path d="" fill="#34372F" transform="translate(0,0)"/>
<path d="" fill="#383933" transform="translate(0,0)"/>
<path d="" fill="#393A32" transform="translate(0,0)"/>
<path d="" fill="#3B3F33" transform="translate(0,0)"/>
<path d="" fill="#3C3E33" transform="translate(0,0)"/>
<path d="" fill="#3B3D35" transform="translate(0,0)"/>
<path d="" fill="#373733" transform="translate(0,0)"/>
<path d="" fill="#3A3A33" transform="translate(0,0)"/>
<path d="" fill="#2F322B" transform="translate(0,0)"/>
<path d="" fill="#363430" transform="translate(0,0)"/>
<path d="" fill="#373932" transform="translate(0,0)"/>
<path d="" fill="#393932" transform="translate(0,0)"/>
<path d="" fill="#353731" transform="translate(0,0)"/>
<path d="" fill="#2E312C" transform="translate(0,0)"/>
<path d="" fill="#2F322D" transform="translate(0,0)"/>
<path d="" fill="#373B31" transform="translate(0,0)"/>
<path d="" fill="#34372D" transform="translate(0,0)"/>
<path d="" fill="#34372F" transform="translate(0,0)"/>
<path d="" fill="#393B34" transform="translate(0,0)"/>
<path d="" fill="#3B3938" transform="translate(0,0)"/>
<path d="" fill="#282823" transform="translate(0,0)"/>
<path d="" fill="#565B53" transform="translate(0,0)"/>
<path d="" fill="#272924" transform="translate(0,0)"/>
<path d="" fill="#3A3E36" transform="translate(0,0)"/>
<path d="" fill="#282825" transform="translate(0,0)"/>
<path d="" fill="#292924" transform="translate(0,0)"/>
<path d="" fill="#282721" transform="translate(0,0)"/>
<path d="" fill="#2A2825" transform="translate(0,0)"/>
<path d="" fill="#292A23" transform="translate(0,0)"/>
<path d="" fill="#292926" transform="translate(0,0)"/>
<path d="" fill="#282922" transform="translate(0,0)"/>
<path d="" fill="#262825" transform="translate(0,0)"/>
<path d="" fill="#282925" transform="translate(0,0)"/>
<path d="" fill="#282924" transform="translate(0,0)"/>
<path d="" fill="#282925" transform="translate(0,0)"/>
<path d="" fill="#2C2A27" transform="translate(0,0)"/>
<path d="" fill="#272922" transform="translate(0,0)"/>
<path d="" fill="#282A25" transform="translate(0,0)"/>
<path d="" fill="#272824" transform="translate(0,0)"/>
<path d="" fill="#282925" transform="translate(0,0)"/>
<path d="" fill="#2A2B27" transform="translate(0,0)"/>
<path d="" fill="#2B2C25" transform="translate(0,0)"/>
<path d="" fill="#282823" transform="translate(0,0)"/>
<path d="" fill="#2A2D25" transform="translate(0,0)"/>
<path d="" fill="#494C44" transform="translate(0,0)"/>
<path d="" fill="#484C43" transform="translate(0,0)"/>
<path d="" fill="#2A2926" transform="translate(0,0)"/>
<path d="" fill="#292B25" transform="translate(0,0)"/>
<path d="" fill="#292823" transform="translate(0,0)"/>
<path d="" fill="#292925" transform="translate(0,0)"/>
<path d="" fill="#2A2B26" transform="translate(0,0)"/>
<path d="" fill="#2A2C27" transform="translate(0,0)"/>
<path d="" fill="#2A2C27" transform="translate(0,0)"/>
<path d="" fill="#292924" transform="translate(0,0)"/>
<path d="" fill="#272724" transform="translate(0,0)"/>
<path d="" fill="#282822" transform="translate(0,0)"/>
<path d="" fill="#282B23" transform="translate(0,0)"/>
<path d="" fill="#292B25" transform="translate(0,0)"/>
<path d="" fill="#60635B" transform="translate(0,0)"/>
<path d="" fill="#262722" transform="translate(0,0)"/>
<path d="" fill="#242624" transform="translate(0,0)"/>
<path d="" fill="#262620" transform="translate(0,0)"/>
<path d="" fill="#242621" transform="translate(0,0)"/>
<path d="" fill="#242522" transform="translate(0,0)"/>
<path d="" fill="#272823" transform="translate(0,0)"/>
<path d="" fill="#3F423B" transform="translate(0,0)"/>
<path d="" fill="#23241F" transform="translate(0,0)"/>
<path d="" fill="#292722" transform="translate(0,0)"/>
<path d="" fill="#252422" transform="translate(0,0)"/>
<path d="" fill="#272520" transform="translate(0,0)"/>
<path d="" fill="#2D2C28" transform="translate(0,0)"/>
<path d="" fill="#50554C" transform="translate(0,0)"/>
<path d="" fill="#292A26" transform="translate(0,0)"/>
<path d="" fill="#30312B" transform="translate(0,0)"/>
<path d="" fill="#2A2C27" transform="translate(0,0)"/>
<path d="" fill="#2C302A" transform="translate(0,0)"/>
<path d="" fill="#2D2E29" transform="translate(0,0)"/>
<path d="" fill="#2B2D28" transform="translate(0,0)"/>
<path d="" fill="#2B2F28" transform="translate(0,0)"/>
<path d="" fill="#595E56" transform="translate(0,0)"/>
<path d="" fill="#292825" transform="translate(0,0)"/>
<path d="" fill="#2B2B26" transform="translate(0,0)"/>
<path d="" fill="#282B25" transform="translate(0,0)"/>
<path d="" fill="#282A21" transform="translate(0,0)"/>
<path d="" fill="#52594F" transform="translate(0,0)"/>
<path d="" fill="#262720" transform="translate(0,0)"/>
<path d="" fill="#484A43" transform="translate(0,0)"/>
<path d="" fill="#282821" transform="translate(0,0)"/>
<path d="" fill="#232420" transform="translate(0,0)"/>
<path d="" fill="#272923" transform="translate(0,0)"/>
<path d="" fill="#242520" transform="translate(0,0)"/>
<path d="" fill="#252621" transform="translate(0,0)"/>
<path d="" fill="#282724" transform="translate(0,0)"/>
<path d="" fill="#262522" transform="translate(0,0)"/>
<path d="" fill="#61675D" transform="translate(0,0)"/>
<path d="" fill="#282823" transform="translate(0,0)"/>
<path d="" fill="#25201E" transform="translate(0,0)"/>
<path d="" fill="#262522" transform="translate(0,0)"/>
<path d="" fill="#5E655C" transform="translate(0,0)"/>
<path d="" fill="#252621" transform="translate(0,0)"/>
<path d="" fill="#262822" transform="translate(0,0)"/>
<path d="" fill="#23221F" transform="translate(0,0)"/>
<path d="" fill="#23231D" transform="translate(0,0)"/>
<path d="" fill="#252720" transform="translate(0,0)"/>
<path d="" fill="#383934" transform="translate(0,0)"/>
<path d="" fill="#4D5249" transform="translate(0,0)"/>
<path d="" fill="#242621" transform="translate(0,0)"/>
<path d="" fill="#26271F" transform="translate(0,0)"/>
<path d="" fill="#252522" transform="translate(0,0)"/>
<path d="" fill="#24241F" transform="translate(0,0)"/>
<path d="" fill="#242623" transform="translate(0,0)"/>
<path d="" fill="#2F302A" transform="translate(0,0)"/>
<path d="" fill="#272823" transform="translate(0,0)"/>
<path d="" fill="#272621" transform="translate(0,0)"/>
<path d="" fill="#252920" transform="translate(0,0)"/>
<path d="" fill="#25261F" transform="translate(0,0)"/>
<path d="" fill="#25241F" transform="translate(0,0)"/>
<path d="" fill="#282822" transform="translate(0,0)"/>
<path d="" fill="#262722" transform="translate(0,0)"/>
<path d="" fill="#272723" transform="translate(0,0)"/>
<path d="" fill="#232521" transform="translate(0,0)"/>
<path d="" fill="#262523" transform="translate(0,0)"/>
<path d="" fill="#252620" transform="translate(0,0)"/>
<path d="" fill="#292620" transform="translate(0,0)"/>
<path d="" fill="#272521" transform="translate(0,0)"/>
<path d="" fill="#282723" transform="translate(0,0)"/>
<path d="" fill="#262720" transform="translate(0,0)"/>
<path d="" fill="#4D5249" transform="translate(0,0)"/>
<path d="" fill="#272822" transform="translate(0,0)"/>
<path d="" fill="#262522" transform="translate(0,0)"/>
<path d="" fill="#282723" transform="translate(0,0)"/>
<path d="" fill="#282723" transform="translate(0,0)"/>
<path d="" fill="#272522" transform="translate(0,0)"/>
<path d="" fill="#272621" transform="translate(0,0)"/>
<path d="" fill="#282921" transform="translate(0,0)"/>
<path d="" fill="#292B23" transform="translate(0,0)"/>
<path d="" fill="#292822" transform="translate(0,0)"/>
<path d="" fill="#272523" transform="translate(0,0)"/>
<path d="" fill="#252723" transform="translate(0,0)"/>
<path d="" fill="#282822" transform="translate(0,0)"/>
<path d="" fill="#292724" transform="translate(0,0)"/>
<path d="" fill="#232422" transform="translate(0,0)"/>
<path d="" fill="#282924" transform="translate(0,0)"/>
<path d="" fill="#272620" transform="translate(0,0)"/>
<path d="" fill="#272821" transform="translate(0,0)"/>
<path d="" fill="#262521" transform="translate(0,0)"/>
<path d="" fill="#2A2B26" transform="translate(0,0)"/>
<path d="" fill="#2C2B27" transform="translate(0,0)"/>
<path d="" fill="#292925" transform="translate(0,0)"/>
<path d="" fill="#272521" transform="translate(0,0)"/>
<path d="" fill="#262723" transform="translate(0,0)"/>
<path d="" fill="#252621" transform="translate(0,0)"/>
<path d="" fill="#282723" transform="translate(0,0)"/>
<path d="" fill="#636862" transform="translate(0,0)"/>
<path d="" fill="#616861" transform="translate(0,0)"/>
<path d="" fill="#282722" transform="translate(0,0)"/>
<path d="" fill="#2B2825" transform="translate(0,0)"/>
<path d="" fill="#272723" transform="translate(0,0)"/>
<path d="" fill="#2A2A27" transform="translate(0,0)"/>
<path d="" fill="#252320" transform="translate(0,0)"/>
<path d="" fill="#2A2825" transform="translate(0,0)"/>
<path d="" fill="#5C605A" transform="translate(0,0)"/>
<path d="" fill="#535951" transform="translate(0,0)"/>
<path d="" fill="#272724" transform="translate(0,0)"/>
<path d="" fill="#292A24" transform="translate(0,0)"/>
<path d="" fill="#282824" transform="translate(0,0)"/>
<path d="" fill="#282B26" transform="translate(0,0)"/>
<path d="" fill="#292827" transform="translate(0,0)"/>
<path d="" fill="#2B2E25" transform="translate(0,0)"/>
<path d="" fill="#2B2A28" transform="translate(0,0)"/>
<path d="" fill="#2C2D27" transform="translate(0,0)"/>
<path d="" fill="#282C24" transform="translate(0,0)"/>
<path d="" fill="#2B2C2A" transform="translate(0,0)"/>
<path d="" fill="#262624" transform="translate(0,0)"/>
<path d="" fill="#2B2D28" transform="translate(0,0)"/>
<path d="" fill="#2D2D2B" transform="translate(0,0)"/>
<path d="" fill="#2F2E2B" transform="translate(0,0)"/>
<path d="" fill="#31322F" transform="translate(0,0)"/>
<path d="" fill="#2F322B" transform="translate(0,0)"/>
<path d="" fill="#30312B" transform="translate(0,0)"/>
<path d="" fill="#31352F" transform="translate(0,0)"/>
<path d="" fill="#555952" transform="translate(0,0)"/>
<path d="" fill="#60635D" transform="translate(0,0)"/>
<path d="" fill="#62655F" transform="translate(0,0)"/>
<path d="" fill="#53564F" transform="translate(0,0)"/>
<path d="" fill="#4D524B" transform="translate(0,0)"/>
<path d="" fill="#474A43" transform="translate(0,0)"/>
<path d="" fill="#5C625B" transform="translate(0,0)"/>
<path d="" fill="#656862" transform="translate(0,0)"/>
<path d="" fill="#646662" transform="translate(0,0)"/>
<path d="" fill="#626660" transform="translate(0,0)"/>
<path d="" fill="#5E615A" transform="translate(0,0)"/>
<path d="" fill="#4D524B" transform="translate(0,0)"/>
<path d="" fill="#585D55" transform="translate(0,0)"/>
<path d="" fill="#555B54" transform="translate(0,0)"/>
<path d="" fill="#555A53" transform="translate(0,0)"/>
<path d="" fill="#666864" transform="translate(0,0)"/>
<path d="" fill="#61645E" transform="translate(0,0)"/>
<path d="" fill="#555953" transform="translate(0,0)"/>
<path d="" fill="#565A55" transform="translate(0,0)"/>
<path d="" fill="#626761" transform="translate(0,0)"/>
<path d="" fill="#5F645E" transform="translate(0,0)"/>
</svg>
