<?xml version="1.0" encoding="UTF-8"?>
<svg version="1.1" xmlns="http://www.w3.org/2000/svg" width="1024" height="1024">
<path d="M0 0 C337.92 0 675.84 0 1024 0 C1024 337.92 1024 675.84 1024 1024 C686.08 1024 348.16 1024 0 1024 C0 686.08 0 348.16 0 0 Z " fill="#FAFAFA" transform="translate(0,0)"/>
<path d="M0 0 C1.38301348 -0.05344946 2.76597486 -0.1082611 4.14888591 -0.1642983 C7.91357371 -0.31165274 11.67869837 -0.43555809 15.44438732 -0.55419874 C17.85828237 -0.6321807 20.27184453 -0.71698642 22.68542862 -0.804039 C54.48320847 -1.95021835 86.29429175 -2.59385093 118.10812855 -3.09348679 C122.15517017 -3.15820659 126.2021887 -3.22420513 130.24919128 -3.2913208 C131.25471551 -3.30794515 132.26023974 -3.32456949 133.29623439 -3.3416976 C148.44234998 -3.59934706 163.57032291 -4.0811392 178.70622253 -4.68585205 C202.06224258 -5.60678377 225.4053867 -6.1913009 248.78068542 -6.20635986 C249.71915591 -6.2075859 250.6576264 -6.20881195 251.62453538 -6.21007514 C295.971908 -6.22017637 335.20286606 -5.79374786 368.59286499 26.9642334 C402.82365417 62.42425023 402.82365417 62.42425023 402.82365417 74.96551514 C403.48365417 74.96551514 404.14365417 74.96551514 404.82365417 74.96551514 C406.23381042 76.39471436 406.23381042 76.39471436 407.88615417 78.39520264 C411.97262185 83.19870579 416.35488014 87.64423493 420.82365417 92.09051514 C421.59193542 92.86266357 422.36021667 93.63481201 423.15177917 94.43035889 C427.07704925 98.34895333 431.04309849 102.13337013 435.31584167 105.67205811 C436.91315497 107.04229221 438.42058024 108.3949335 439.82365417 109.96551514 C439.82365417 110.62551514 439.82365417 111.28551514 439.82365417 111.96551514 C440.4155957 112.23279419 441.00753723 112.50007324 441.61741638 112.77545166 C443.85731858 113.983674 445.32793965 115.21628444 447.12345886 117.00653076 C447.74380005 117.62056763 448.36414124 118.23460449 449.00328064 118.86724854 C449.66072266 119.52873901 450.31816467 120.19022949 450.99552917 120.87176514 C451.67794678 121.55226929 452.36036438 122.23277344 453.0634613 122.93389893 C454.50144845 124.37052711 455.9369211 125.80967598 457.37004089 127.25115967 C459.57242446 129.46427942 461.7853035 131.66649986 463.99943542 133.86785889 C465.39460871 135.26435317 466.78916179 136.6614674 468.18302917 138.05926514 C468.84856812 138.72075562 469.51410706 139.38224609 470.19981384 140.06378174 C471.11141266 140.98483704 471.11141266 140.98483704 472.04142761 141.92449951 C472.58007446 142.46473755 473.11872131 143.00497559 473.6736908 143.56158447 C474.82365417 144.96551514 474.82365417 144.96551514 474.82365417 146.96551514 C475.81365417 147.29551514 476.80365417 147.62551514 477.82365417 147.96551514 C479.22380066 149.38470459 479.22380066 149.38470459 480.75724792 151.26629639 C485.31739655 156.6385755 490.28764675 161.57968312 495.27604675 166.54827881 C496.89009065 168.15693848 498.4986872 169.77090761 500.1068573 171.38543701 C501.14885437 172.42677357 502.19116145 173.46780005 503.23381042 174.50848389 C504.62805237 175.90103394 504.62805237 175.90103394 506.05046082 177.32171631 C508.75340322 180.04065353 508.75340322 180.04065353 511.9501375 182.10324943 C514.72476553 184.42254115 514.82002405 184.94695486 515.57344782 188.799101 C515.6039834 190.33428543 515.60149787 191.87033953 515.5731144 193.40556526 C515.58529657 194.6831537 515.58529657 194.6831537 515.59772485 195.986552 C515.61769451 198.85455967 515.59472263 201.72062731 515.57209778 204.58859253 C515.57757644 206.65985109 515.58567842 208.7311041 515.59618509 210.80234325 C515.61741544 216.50501846 515.60106481 222.20706931 515.57868409 227.90971756 C515.56103824 234.05580154 515.57787626 240.2018021 515.59040833 246.34788513 C515.60831359 257.6972999 515.59903094 269.04645682 515.57608069 280.39584065 C515.55501713 290.88361968 515.54592854 301.37132703 515.54867172 311.85912704 C515.54892381 312.90221558 515.54892381 312.90221558 515.549181 313.96637662 C515.54988549 316.78919093 515.55065351 319.61200522 515.55151215 322.43481949 C515.55944607 348.92763643 515.53399144 375.42032669 515.49245903 401.91310737 C515.4557432 425.44395497 515.44408811 448.97468103 515.45500183 472.5055542 C515.4556947 474.01558018 515.45638689 475.52560617 515.45707841 477.03563215 C515.4574204 477.78216283 515.45776239 478.52869352 515.45811475 479.29784634 C515.45982187 483.05588499 515.46146944 486.81392366 515.46305275 490.57196236 C515.46336691 491.31338361 515.46368107 492.05480487 515.46400475 492.81869343 C515.47198957 512.48257418 515.46102679 532.14644326 515.44403017 551.81031692 C515.4422161 553.92700136 515.4404048 556.0436858 515.4385997 558.16037024 C515.43739747 559.56451289 515.43618023 560.96865552 515.43494789 562.37279814 C515.42651057 572.15534924 515.42534643 581.93787733 515.42915888 591.72043089 C515.43404977 604.33299621 515.4254348 616.94542903 515.39473887 629.55797096 C515.38025785 635.63927051 515.37209079 641.72040002 515.38122559 647.80171394 C515.3893873 653.37076405 515.37902254 658.93946333 515.35397343 664.50846027 C515.34812487 666.52127101 515.34897288 668.53411491 515.35725959 670.5469171 C515.40815246 684.14514604 515.04532785 695.6869883 505.10099792 706.02020264 C496.76250501 713.14296331 487.73446535 714.12190226 477.1603632 714.09414959 C476.30880784 714.09590263 475.45725249 714.09765566 474.57989243 714.09946182 C471.72518133 714.10411539 468.87052131 714.10165797 466.01580811 714.09922791 C463.94894285 714.10109619 461.88207796 714.10339697 459.81521362 714.10609323 C454.13428148 714.11221529 448.45336404 714.11207716 442.77242935 714.11089885 C436.64623212 714.11069495 430.52003963 714.11621253 424.3938446 714.12095642 C412.39180036 714.12926541 400.38976237 714.13202431 388.387716 714.1325688 C378.63442204 714.13302838 368.88112967 714.1350869 359.12783623 714.13826942 C356.32018644 714.13916697 353.51253665 714.14005678 350.70488685 714.1409443 C349.65790481 714.14127587 349.65790481 714.14127587 348.58977161 714.14161414 C328.95863666 714.14776773 309.32750227 714.15171476 289.69636631 714.15127087 C288.95631718 714.15125529 288.21626805 714.15123971 287.45379319 714.15122366 C283.70292148 714.15114055 279.95204978 714.15104151 276.20117808 714.15093895 C275.08377286 714.15090903 275.08377286 714.15090903 273.94379379 714.15087851 C272.43735109 714.15083807 270.9309084 714.15079628 269.4244657 714.15075312 C245.98061803 714.15014021 222.53678482 714.15765011 199.09294128 714.17132568 C172.75435272 714.18668352 146.41577365 714.19529211 120.07718033 714.19436246 C117.26921618 714.19428783 114.46125203 714.19423912 111.65328789 714.19420815 C110.96189438 714.19419649 110.27050088 714.19418484 109.55815606 714.19417283 C98.42908288 714.19414205 87.30002226 714.20052939 76.17095282 714.20914041 C64.98863264 714.21761377 53.80633063 714.21843758 42.62400741 714.21203109 C36.56537888 714.20875887 30.50679586 714.2087345 24.44817162 714.21738434 C18.90352051 714.22521912 13.35895124 714.22384893 7.8143022 714.21510021 C5.80697959 714.21355856 3.79965097 714.21540627 1.79233546 714.22096028 C-0.9342803 714.2280057 -3.6606078 714.22273818 -6.38721371 714.21440411 C-7.16797373 714.21937229 -7.94873376 714.22434047 -8.75315318 714.2294592 C-18.86709516 714.16402588 -27.80484583 711.30123371 -35.36384583 704.46551514 C-42.8209836 696.39633476 -44.92840358 686.9256754 -44.7999649 676.22502708 C-44.80663292 675.10153866 -44.81330093 673.97805023 -44.820171 672.82051671 C-44.83636289 669.07050634 -44.81705912 665.32154692 -44.79780579 661.57156372 C-44.79935944 658.85007344 -44.808447 656.12861969 -44.81716585 653.40714419 C-44.83210775 647.49776003 -44.82857227 641.58861405 -44.81274796 635.67923546 C-44.78928169 626.89180735 -44.79454275 618.10455791 -44.80545685 609.31711362 C-44.82402752 593.62165926 -44.8143445 577.92631855 -44.79297922 562.23087348 C-44.77441595 548.49671743 -44.76600102 534.76259954 -44.76754761 521.02843094 C-44.76763928 520.11710453 -44.76773096 519.20577813 -44.76782541 518.26683577 C-44.76821857 514.56740567 -44.7686682 510.86797559 -44.7691968 507.1685455 C-44.77406668 472.47349274 -44.75141327 437.77850766 -44.71524058 403.08347593 C-44.68324248 372.26093854 -44.67119801 341.43845894 -44.67732239 310.61590576 C-44.67770923 308.63648821 -44.67809569 306.65707067 -44.67848176 304.67765312 C-44.6786731 303.69906468 -44.67886445 302.72047623 -44.67906159 301.71223359 C-44.68001594 296.78611378 -44.6809303 291.85999396 -44.68180084 286.93387413 C-44.68197464 285.9620182 -44.68214843 284.99016227 -44.68232749 283.98885615 C-44.68668264 258.22959172 -44.67666853 232.47033353 -44.66196299 206.71107352 C-44.66144284 205.7947498 -44.6609227 204.87842609 -44.6603868 203.93433499 C-44.65986746 203.0196873 -44.65934811 202.10503961 -44.65881303 201.16267533 C-44.65829529 200.24970548 -44.65777755 199.33673563 -44.65724412 198.39610003 C-44.65619603 196.55747622 -44.65513582 194.71885241 -44.6540634 192.88022862 C-44.64668312 180.06300694 -44.64459452 167.24579409 -44.6460574 154.42857055 C-44.64790307 137.91251566 -44.63983694 121.39651522 -44.61441594 104.88047813 C-44.60125239 96.14643451 -44.59623926 87.41247779 -44.60305448 78.67842639 C-44.60676646 72.84420394 -44.5995569 67.01006081 -44.5834621 61.17585955 C-44.57458939 57.85194989 -44.57203238 54.52836689 -44.57938927 51.20443122 C-44.58655545 47.62087841 -44.57531593 44.03783515 -44.55945587 40.45432091 C-44.56590768 39.42675757 -44.57235948 38.39919423 -44.57900679 37.34049261 C-44.4793551 25.36664635 -41.16838982 16.85215143 -32.62165833 8.43426514 C-23.65472527 1.11796155 -11.06147651 0.33007613 0 0 Z " fill="#FEFEFE" transform="translate(276.1763458251953,155.03448486328125)"/>
<path d="M0 0 C1.38301348 -0.05344946 2.76597486 -0.1082611 4.14888591 -0.1642983 C7.91357371 -0.31165274 11.67869837 -0.43555809 15.44438732 -0.55419874 C17.85828237 -0.6321807 20.27184453 -0.71698642 22.68542862 -0.804039 C54.48320847 -1.95021835 86.29429175 -2.59385093 118.10812855 -3.09348679 C122.15517017 -3.15820659 126.2021887 -3.22420513 130.24919128 -3.2913208 C131.25471551 -3.30794515 132.26023974 -3.32456949 133.29623439 -3.3416976 C148.44234998 -3.59934706 163.57032291 -4.0811392 178.70622253 -4.68585205 C202.06224258 -5.60678377 225.4053867 -6.1913009 248.78068542 -6.20635986 C249.71915591 -6.2075859 250.6576264 -6.20881195 251.62453538 -6.21007514 C295.971908 -6.22017637 335.20286606 -5.79374786 368.59286499 26.9642334 C402.82365417 62.42425023 402.82365417 62.42425023 402.82365417 74.96551514 C403.48365417 74.96551514 404.14365417 74.96551514 404.82365417 74.96551514 C406.23381042 76.39471436 406.23381042 76.39471436 407.88615417 78.39520264 C411.97262185 83.19870579 416.35488014 87.64423493 420.82365417 92.09051514 C421.59193542 92.86266357 422.36021667 93.63481201 423.15177917 94.43035889 C427.07704925 98.34895333 431.04309849 102.13337013 435.31584167 105.67205811 C436.91315497 107.04229221 438.42058024 108.3949335 439.82365417 109.96551514 C439.82365417 110.62551514 439.82365417 111.28551514 439.82365417 111.96551514 C440.4155957 112.23279419 441.00753723 112.50007324 441.61741638 112.77545166 C443.85731858 113.983674 445.32793965 115.21628444 447.12345886 117.00653076 C447.74380005 117.62056763 448.36414124 118.23460449 449.00328064 118.86724854 C449.66072266 119.52873901 450.31816467 120.19022949 450.99552917 120.87176514 C451.67794678 121.55226929 452.36036438 122.23277344 453.0634613 122.93389893 C454.50144845 124.37052711 455.9369211 125.80967598 457.37004089 127.25115967 C459.57242446 129.46427942 461.7853035 131.66649986 463.99943542 133.86785889 C465.39460871 135.26435317 466.78916179 136.6614674 468.18302917 138.05926514 C468.84856812 138.72075562 469.51410706 139.38224609 470.19981384 140.06378174 C471.11141266 140.98483704 471.11141266 140.98483704 472.04142761 141.92449951 C472.58007446 142.46473755 473.11872131 143.00497559 473.6736908 143.56158447 C474.82365417 144.96551514 474.82365417 144.96551514 474.82365417 146.96551514 C475.81365417 147.29551514 476.80365417 147.62551514 477.82365417 147.96551514 C479.22380066 149.38470459 479.22380066 149.38470459 480.75724792 151.26629639 C485.31739655 156.6385755 490.28764675 161.57968312 495.27604675 166.54827881 C496.89009065 168.15693848 498.4986872 169.77090761 500.1068573 171.38543701 C501.14885437 172.42677357 502.19116145 173.46780005 503.23381042 174.50848389 C504.62805237 175.90103394 504.62805237 175.90103394 506.05046082 177.32171631 C508.75340322 180.04065353 508.75340322 180.04065353 511.9501375 182.10324943 C514.72476553 184.42254115 514.82002405 184.94695486 515.57344782 188.799101 C515.6039834 190.33428543 515.60149787 191.87033953 515.5731144 193.40556526 C515.58529657 194.6831537 515.58529657 194.6831537 515.59772485 195.986552 C515.61769451 198.85455967 515.59472263 201.72062731 515.57209778 204.58859253 C515.57757644 206.65985109 515.58567842 208.7311041 515.59618509 210.80234325 C515.61741544 216.50501846 515.60106481 222.20706931 515.57868409 227.90971756 C515.56103824 234.05580154 515.57787626 240.2018021 515.59040833 246.34788513 C515.60831359 257.6972999 515.59903094 269.04645682 515.57608069 280.39584065 C515.55501713 290.88361968 515.54592854 301.37132703 515.54867172 311.85912704 C515.54892381 312.90221558 515.54892381 312.90221558 515.549181 313.96637662 C515.54988549 316.78919093 515.55065351 319.61200522 515.55151215 322.43481949 C515.55944607 348.92763643 515.53399144 375.42032669 515.49245903 401.91310737 C515.4557432 425.44395497 515.44408811 448.97468103 515.45500183 472.5055542 C515.4556947 474.01558018 515.45638689 475.52560617 515.45707841 477.03563215 C515.4574204 477.78216283 515.45776239 478.52869352 515.45811475 479.29784634 C515.45982187 483.05588499 515.46146944 486.81392366 515.46305275 490.57196236 C515.46336691 491.31338361 515.46368107 492.05480487 515.46400475 492.81869343 C515.47198957 512.48257418 515.46102679 532.14644326 515.44403017 551.81031692 C515.4422161 553.92700136 515.4404048 556.0436858 515.4385997 558.16037024 C515.43739747 559.56451289 515.43618023 560.96865552 515.43494789 562.37279814 C515.42651057 572.15534924 515.42534643 581.93787733 515.42915888 591.72043089 C515.43404977 604.33299621 515.4254348 616.94542903 515.39473887 629.55797096 C515.38025785 635.63927051 515.37209079 641.72040002 515.38122559 647.80171394 C515.3893873 653.37076405 515.37902254 658.93946333 515.35397343 664.50846027 C515.34812487 666.52127101 515.34897288 668.53411491 515.35725959 670.5469171 C515.40815246 684.14514604 515.04532785 695.6869883 505.10099792 706.02020264 C496.76250501 713.14296331 487.73446535 714.12190226 477.1603632 714.09414959 C476.30880784 714.09590263 475.45725249 714.09765566 474.57989243 714.09946182 C471.72518133 714.10411539 468.87052131 714.10165797 466.01580811 714.09922791 C463.94894285 714.10109619 461.88207796 714.10339697 459.81521362 714.10609323 C454.13428148 714.11221529 448.45336404 714.11207716 442.77242935 714.11089885 C436.64623212 714.11069495 430.52003963 714.11621253 424.3938446 714.12095642 C412.39180036 714.12926541 400.38976237 714.13202431 388.387716 714.1325688 C378.63442204 714.13302838 368.88112967 714.1350869 359.12783623 714.13826942 C356.32018644 714.13916697 353.51253665 714.14005678 350.70488685 714.1409443 C349.65790481 714.14127587 349.65790481 714.14127587 348.58977161 714.14161414 C328.95863666 714.14776773 309.32750227 714.15171476 289.69636631 714.15127087 C288.95631718 714.15125529 288.21626805 714.15123971 287.45379319 714.15122366 C283.70292148 714.15114055 279.95204978 714.15104151 276.20117808 714.15093895 C275.08377286 714.15090903 275.08377286 714.15090903 273.94379379 714.15087851 C272.43735109 714.15083807 270.9309084 714.15079628 269.4244657 714.15075312 C245.98061803 714.15014021 222.53678482 714.15765011 199.09294128 714.17132568 C172.75435272 714.18668352 146.41577365 714.19529211 120.07718033 714.19436246 C117.26921618 714.19428783 114.46125203 714.19423912 111.65328789 714.19420815 C110.96189438 714.19419649 110.27050088 714.19418484 109.55815606 714.19417283 C98.42908288 714.19414205 87.30002226 714.20052939 76.17095282 714.20914041 C64.98863264 714.21761377 53.80633063 714.21843758 42.62400741 714.21203109 C36.56537888 714.20875887 30.50679586 714.2087345 24.44817162 714.21738434 C18.90352051 714.22521912 13.35895124 714.22384893 7.8143022 714.21510021 C5.80697959 714.21355856 3.79965097 714.21540627 1.79233546 714.22096028 C-0.9342803 714.2280057 -3.6606078 714.22273818 -6.38721371 714.21440411 C-7.16797373 714.21937229 -7.94873376 714.22434047 -8.75315318 714.2294592 C-18.86709516 714.16402588 -27.80484583 711.30123371 -35.36384583 704.46551514 C-42.8209836 696.39633476 -44.92840358 686.9256754 -44.7999649 676.22502708 C-44.80663292 675.10153866 -44.81330093 673.97805023 -44.820171 672.82051671 C-44.83636289 669.07050634 -44.81705912 665.32154692 -44.79780579 661.57156372 C-44.79935944 658.85007344 -44.808447 656.12861969 -44.81716585 653.40714419 C-44.83210775 647.49776003 -44.82857227 641.58861405 -44.81274796 635.67923546 C-44.78928169 626.89180735 -44.79454275 618.10455791 -44.80545685 609.31711362 C-44.82402752 593.62165926 -44.8143445 577.92631855 -44.79297922 562.23087348 C-44.77441595 548.49671743 -44.76600102 534.76259954 -44.76754761 521.02843094 C-44.76763928 520.11710453 -44.76773096 519.20577813 -44.76782541 518.26683577 C-44.76821857 514.56740567 -44.7686682 510.86797559 -44.7691968 507.1685455 C-44.77406668 472.47349274 -44.75141327 437.77850766 -44.71524058 403.08347593 C-44.68324248 372.26093854 -44.67119801 341.43845894 -44.67732239 310.61590576 C-44.67770923 308.63648821 -44.67809569 306.65707067 -44.67848176 304.67765312 C-44.6786731 303.69906468 -44.67886445 302.72047623 -44.67906159 301.71223359 C-44.68001594 296.78611378 -44.6809303 291.85999396 -44.68180084 286.93387413 C-44.68197464 285.9620182 -44.68214843 284.99016227 -44.68232749 283.98885615 C-44.68668264 258.22959172 -44.67666853 232.47033353 -44.66196299 206.71107352 C-44.66144284 205.7947498 -44.6609227 204.87842609 -44.6603868 203.93433499 C-44.65986746 203.0196873 -44.65934811 202.10503961 -44.65881303 201.16267533 C-44.65829529 200.24970548 -44.65777755 199.33673563 -44.65724412 198.39610003 C-44.65619603 196.55747622 -44.65513582 194.71885241 -44.6540634 192.88022862 C-44.64668312 180.06300694 -44.64459452 167.24579409 -44.6460574 154.42857055 C-44.64790307 137.91251566 -44.63983694 121.39651522 -44.61441594 104.88047813 C-44.60125239 96.14643451 -44.59623926 87.41247779 -44.60305448 78.67842639 C-44.60676646 72.84420394 -44.5995569 67.01006081 -44.5834621 61.17585955 C-44.57458939 57.85194989 -44.57203238 54.52836689 -44.57938927 51.20443122 C-44.58655545 47.62087841 -44.57531593 44.03783515 -44.55945587 40.45432091 C-44.56590768 39.42675757 -44.57235948 38.39919423 -44.57900679 37.34049261 C-44.4793551 25.36664635 -41.16838982 16.85215143 -32.62165833 8.43426514 C-23.65472527 1.11796155 -11.06147651 0.33007613 0 0 Z M-20.17634583 29.96551514 C-20.4799389 32.01100599 -20.4799389 32.01100599 -20.43049616 34.4027766 C-20.43627187 35.34370113 -20.44204758 36.28462567 -20.44799832 37.25406307 C-20.44417353 38.29690757 -20.44034874 39.33975207 -20.43640804 40.41419792 C-20.44021371 41.51950361 -20.44401938 42.62480931 -20.44794038 43.76360911 C-20.45834459 47.51161113 -20.45433382 51.25946417 -20.45050049 55.00747681 C-20.45494811 57.70397705 -20.46018127 60.40046539 -20.46636921 63.09696114 C-20.47824661 68.98251814 -20.4825808 74.8680441 -20.48204803 80.75361252 C-20.48125669 89.50552281 -20.49178505 98.25739375 -20.5044636 107.00929355 C-20.52923856 124.45883246 -20.53799008 141.90836191 -20.54300009 159.35791599 C-20.54326127 160.26221076 -20.54352244 161.16650554 -20.54379153 162.09820318 C-20.54405181 163.00425557 -20.54431208 163.91030797 -20.54458024 164.84381649 C-20.54765898 174.87139516 -20.55416242 184.89897117 -20.56079292 194.926548 C-20.58044399 225.19621845 -20.59684673 255.46588604 -20.59966946 285.73556328 C-20.59976352 286.70432098 -20.59985758 287.67307869 -20.59995449 288.67119268 C-20.60033298 292.59737946 -20.60069698 296.52356623 -20.60105747 300.449753 C-20.60132919 303.4050396 -20.60160587 306.3603262 -20.60188293 309.31561279 C-20.60197096 310.29215111 -20.60205898 311.26868942 -20.60214967 312.2748198 C-20.60505604 342.96813327 -20.62715819 373.66138381 -20.66340637 404.35467529 C-20.70409698 438.81077242 -20.72782775 473.26682667 -20.72812897 507.72294915 C-20.7282258 511.39424968 -20.72839252 515.06555021 -20.72860909 518.73685074 C-20.7286532 519.64086846 -20.72869731 520.54488618 -20.72874276 521.47629838 C-20.72986449 536.04963068 -20.74730046 550.62290015 -20.77042841 565.19621219 C-20.79322635 579.83269264 -20.79752509 594.46908782 -20.78287911 609.10557948 C-20.77470348 617.80980219 -20.7805035 626.51375704 -20.80605995 635.21794748 C-20.82173968 641.02497113 -20.81940833 646.83180337 -20.80215323 652.63882218 C-20.79282477 655.95239124 -20.7942834 659.26533475 -20.8121193 662.57888447 C-20.83006964 666.14145409 -20.81764387 669.70262544 -20.79717159 673.26515007 C-20.80973497 674.30331224 -20.82229834 675.34147441 -20.83524242 676.41109604 C-20.85132712 681.96785176 -20.85132712 681.96785176 -17.95004421 686.50928795 C-17.03472375 686.98984292 -16.11940328 687.47039789 -15.17634583 687.96551514 C-14.41866201 688.37276658 -13.66097819 688.78001802 -12.88033426 689.19961041 C-9.21798578 690.23697062 -5.68611533 690.2414644 -1.9125309 690.21999073 C-1.07986737 690.22319721 -0.24720385 690.22640369 0.61069191 690.22970733 C3.4132246 690.23803799 6.2155453 690.23207232 9.01808167 690.22621155 C11.04268651 690.22923083 13.06729021 690.23311919 15.09189188 690.23780411 C20.66527313 690.24812162 26.23859032 690.24589276 31.81197691 690.24162352 C37.81890279 690.23916309 43.82581297 690.24816195 49.83273315 690.25566101 C61.60477934 690.26842911 73.37680756 690.27020492 85.14885806 690.26786075 C94.71485325 690.26602897 104.28084174 690.26778527 113.84683609 690.27208519 C115.22057736 690.27268759 116.59431863 690.27328879 117.9680599 690.27388879 C120.03809319 690.27479603 122.10812648 690.2757047 124.17815977 690.27662114 C143.42776588 690.28505241 162.67736946 690.28938518 181.92697716 690.28521442 C182.65285494 690.28505805 183.37873271 690.28490167 184.12660679 690.28474056 C187.80574262 690.28393476 191.48487844 690.28308899 195.16401426 690.28222726 C196.26006921 690.28197062 196.26006921 690.28197062 197.37826668 690.28170881 C198.85592675 690.28136215 200.33358682 690.28101362 201.81124689 690.28066322 C224.80498115 690.2753057 247.79867707 690.28323659 270.79240417 690.30169678 C296.61934291 690.32240722 322.44625789 690.33314131 348.2732054 690.32912129 C351.02641717 690.32872594 353.77962895 690.32836439 356.53284073 690.32802391 C357.21076315 690.32793318 357.88868557 690.32784245 358.5871511 690.32774897 C368.82650137 690.3265824 379.06582768 690.3332358 389.30517197 690.34383583 C400.94882097 690.35587725 412.59242652 690.3571803 424.23607801 690.34504566 C430.17914866 690.33914085 436.12211595 690.33810172 442.06517982 690.35004807 C447.50318919 690.36085234 452.94100823 690.35786877 458.37900849 690.34378638 C460.3486878 690.34112435 462.31838177 690.34355287 464.28804676 690.35152224 C466.96164795 690.36159087 469.63458277 690.35323835 472.30815697 690.34024525 C473.46002989 690.35120927 473.46002989 690.35120927 474.63517296 690.36239478 C480.40886256 690.3040811 484.9495003 689.07322798 489.69865417 685.59051514 C492.61131397 681.38333988 491.96382826 675.79903461 491.946702 670.88517284 C491.94843277 669.66595508 491.94843277 669.66595508 491.9501985 668.42210665 C491.95285408 665.68722199 491.94835167 662.95239571 491.94390869 660.21751404 C491.94434461 658.24154405 491.9452199 656.26557411 491.94649786 654.28960449 C491.94873877 648.8509416 491.944727 643.41229833 491.9397198 637.97363794 C491.93540973 632.1120487 491.93686212 626.25046061 491.93762207 620.38887024 C491.93814695 610.23031539 491.93500388 600.07176696 491.92938423 589.91321373 C491.92349377 579.25818524 491.91961856 568.60315993 491.91853142 557.94812965 C491.91846268 557.28579959 491.91839394 556.62346953 491.91832312 555.94106886 C491.91798479 552.57747219 491.9176834 549.21387551 491.91739624 545.85027883 C491.91529545 522.02174583 491.90855704 498.19321618 491.89909363 474.36468506 C491.88991027 451.21462014 491.88282613 428.06455613 491.87858582 404.91448975 C491.87845429 404.20098865 491.87832276 403.48748756 491.87818725 402.75236522 C491.87686874 395.58713816 491.87559292 388.42191109 491.87434839 381.25668402 C491.87181213 366.6601007 491.86899088 352.06351744 491.86599731 337.4669342 C491.86579138 336.46022832 491.86579138 336.46022832 491.86558128 335.43318495 C491.85637957 290.61062694 491.84051346 245.78807084 491.82365417 200.96551514 C490.74111878 200.9633153 490.74111878 200.9633153 489.63671398 200.96107101 C472.04104871 200.92394903 454.4455928 200.86486312 436.85008526 200.7816124 C428.34086496 200.74187667 419.83173642 200.70945651 411.32243347 200.69451904 C403.90195262 200.68147408 396.48167412 200.65443724 389.06130725 200.61090207 C385.1356473 200.58835086 381.21023631 200.57260062 377.28450584 200.57363129 C373.58172136 200.57438168 369.87948592 200.5562806 366.17684364 200.52434731 C364.18586155 200.51190281 362.19478694 200.51888266 360.20378113 200.5266571 C347.48563508 200.38041311 337.05360546 196.65943025 327.66349792 187.96551514 C319.83202593 179.7680865 315.73652412 170.37265601 315.66543579 159.04930115 C315.65075256 157.27201881 315.65075256 157.27201881 315.63577271 155.45883179 C315.63001724 154.16770477 315.62426178 152.87657776 315.61833191 151.54632568 C315.60874667 150.16629243 315.59873621 148.78626207 315.58833313 147.40623474 C315.56134793 143.66699923 315.5403039 139.92775117 315.52033114 136.18847251 C315.49843211 132.27801475 315.47106262 128.36759536 315.4442749 124.45716858 C315.39440093 117.05541894 315.34944249 109.65364795 315.30625254 102.25185663 C315.25683486 93.82382251 315.20193355 85.39582691 315.14657295 76.96783006 C315.03283421 59.6337607 314.92597757 42.29965556 314.82365417 24.96551514 C273.12351443 24.89688276 231.42338118 24.84400351 189.72319617 24.81231915 C184.8026619 24.80856693 179.88212773 24.80468397 174.96159363 24.80072021 C173.49217849 24.79953982 173.49217849 24.79953982 171.99307819 24.79833557 C156.1211163 24.78527352 140.24918692 24.76161528 124.37724433 24.73405675 C108.09713356 24.70602478 91.81703986 24.68934356 75.53690594 24.68324965 C65.48720786 24.67912862 55.4376017 24.66610201 45.38793191 24.64176574 C38.50110085 24.6259358 31.61431748 24.62110854 24.72746954 24.625011 C20.75118882 24.62693684 16.77506897 24.62393738 12.79881668 24.60789871 C9.15992107 24.59332768 5.52129493 24.59254439 1.88238706 24.60281845 C-0.0604775 24.60469139 -2.00333877 24.59172751 -3.94615763 24.57827121 C-5.09866663 24.58424436 -6.25117562 24.5902175 -7.43860912 24.59637165 C-8.43309667 24.59523249 -9.42758421 24.59409333 -10.45220774 24.59291965 C-14.62017977 25.16299632 -17.24389443 27.03306374 -20.17634583 29.96551514 Z " fill="#020404" transform="translate(276.1763458251953,155.03448486328125)"/>
<path d="M0 0 C6.88181705 5.64062978 13.0827554 11.94181269 19.36108398 18.23168945 C20.60327346 19.47252229 21.84567522 20.71314264 23.08827209 21.9535675 C26.44545827 25.3062135 29.79949635 28.66199214 33.15282321 32.01849771 C36.66402679 35.53223916 40.1776764 39.0435333 43.69093323 42.55522156 C49.58278282 48.44525507 55.47252749 54.33738723 61.36108398 60.23071289 C68.17748681 67.05257242 74.99750512 73.87080155 81.81938308 80.68718559 C87.67694035 86.54021379 93.53255788 92.39517722 99.38654 98.25178117 C102.88308103 101.74988417 106.38030131 105.24730089 109.87927055 108.74297523 C113.1622617 112.02309016 116.44282077 115.30561778 119.72147179 118.59007072 C120.92840839 119.79833562 122.13620793 121.00573919 123.34490585 122.21224213 C124.98680155 123.85142942 126.6256244 125.49362629 128.26365662 127.13667297 C129.64377001 128.51735191 129.64377001 128.51735191 131.05176449 129.92592335 C133 132 133 132 133 133 C117.88333059 133.0935806 102.76667457 133.16404631 87.64978027 133.20724869 C80.63019101 133.22784454 73.61078208 133.2559077 66.59130859 133.30175781 C59.81562596 133.3459943 53.04013071 133.36914603 46.26431274 133.37950897 C43.68076633 133.38689299 41.09723003 133.40131222 38.51376343 133.42292023 C34.89176383 133.45200644 31.27053532 133.45595364 27.6484375 133.45410156 C26.5831633 133.46848267 25.5178891 133.48286377 24.42033386 133.49768066 C17.83227812 133.46128975 13.66124298 132.41134032 8 129 C8 128.34 8 127.68 8 127 C7.34 127 6.68 127 6 127 C0.23329521 119.43119997 -0.28971401 112.94539803 -0.22705078 103.76220703 C-0.22734283 102.63967026 -0.22763489 101.51713348 -0.22793579 100.36058044 C-0.22654527 96.65957848 -0.21099687 92.95877919 -0.1953125 89.2578125 C-0.19158139 86.68806061 -0.18873488 84.11830729 -0.18673706 81.54855347 C-0.1798876 75.48195986 -0.16413337 69.41544958 -0.14403808 63.34888732 C-0.12165012 56.43957911 -0.11067838 49.53026735 -0.10064721 42.62093186 C-0.07976625 28.41391574 -0.0446084 14.20696045 0 0 Z " fill="#D5D8DC" transform="translate(614,200)"/>
<path d="M0 0 C1.73160186 -0.00874829 1.73160186 -0.00874829 3.49818558 -0.01767331 C4.76713655 -0.01389399 6.03608752 -0.01011467 7.34349155 -0.00622082 C8.70456657 -0.00924071 10.06563988 -0.01312938 11.42671019 -0.01781338 C15.17056823 -0.02812302 18.91433083 -0.02590405 22.65819681 -0.02163279 C26.69439858 -0.01917094 30.73057706 -0.02817297 34.76677036 -0.03567028 C42.67543134 -0.04843428 50.58405839 -0.05020887 58.49272793 -0.04787002 C64.91946299 -0.04608864 71.34618773 -0.04783262 77.77292156 -0.05209446 C78.6868052 -0.05268965 79.60068883 -0.05328484 80.54226591 -0.05389806 C82.39868112 -0.05510978 84.25509633 -0.05632392 86.11151154 -0.05754044 C103.52972688 -0.06842247 120.94792287 -0.06625031 138.3661393 -0.06015559 C154.3089858 -0.0549855 170.25177122 -0.06624313 186.19460564 -0.08525381 C202.55621176 -0.10461463 218.91778895 -0.11289132 235.27940661 -0.10913056 C244.46862457 -0.10721589 253.65779053 -0.10973195 262.84699917 -0.1238451 C270.66956706 -0.13573749 278.49205095 -0.13718791 286.31461995 -0.12505493 C290.30712215 -0.11915121 294.29947052 -0.11810782 298.29196262 -0.13005733 C301.94551519 -0.1408655 305.59878455 -0.13787371 309.25232358 -0.12379565 C311.20294028 -0.11987226 313.15356932 -0.13073707 315.10415691 -0.14209253 C316.2611659 -0.13488598 317.41817489 -0.12767944 318.61024475 -0.12025452 C319.60863953 -0.12030953 320.60703431 -0.12036455 321.63568348 -0.12042123 C325.70549558 0.43798247 328.35328755 2.18642889 331.1531992 5.13338184 C333.34798773 8.96544028 333.00420718 12.98111148 332.36804295 17.25447559 C330.26299703 20.81127731 329.28397487 21.94916495 325.36804295 23.25447559 C323.5180318 23.34971102 321.6647395 23.38540882 319.81228161 23.38869667 C318.64942123 23.39315451 317.48656085 23.39761236 316.28846228 23.40220529 C315.00492562 23.40202093 313.72138896 23.40183656 312.39895725 23.40164661 C311.02637197 23.40494541 309.65378765 23.40867101 308.28120458 23.41278809 C304.50091014 23.42281407 300.72063159 23.42652583 296.94032574 23.4291774 C292.86661827 23.43307857 288.79292341 23.4426569 284.71922398 23.45139027 C274.87832284 23.47115785 265.03742068 23.48122032 255.19650465 23.49011806 C250.56483427 23.49449964 245.93316503 23.49986671 241.30149555 23.50510693 C225.91009413 23.52211793 210.51869343 23.53661357 195.12728405 23.54385567 C191.13266721 23.54576562 187.13805038 23.54768595 183.14343357 23.54964161 C182.15056691 23.55012535 181.15770025 23.55060909 180.13474672 23.55110749 C164.03986212 23.5594133 147.94505171 23.58476006 131.85019954 23.61722229 C115.33494768 23.65026161 98.81973357 23.66830151 82.30444849 23.67149991 C73.02799877 23.67366769 63.75165731 23.6824556 54.47523975 23.70796108 C46.57761369 23.72962525 38.68012217 23.73773962 30.78246976 23.7279943 C26.75144388 23.72343738 22.72069586 23.72541618 18.68970776 23.74475574 C15.00089689 23.76230124 11.31256837 23.76146061 7.623753 23.74585845 C5.6541839 23.74233563 3.68461024 23.75857265 1.71511042 23.77546293 C0.54703455 23.76688203 -0.62104132 23.75830114 -1.82451344 23.74946022 C-3.33658865 23.75092543 -3.33658865 23.75092543 -4.87921083 23.75242025 C-8.38884548 23.11756194 -10.07509022 21.68873646 -12.63195705 19.25447559 C-14.48306289 15.55226393 -14.09650501 11.29540642 -13.63195705 7.25447559 C-10.26225581 1.47784489 -6.48094737 0.00562749 0 0 Z " fill="#32414E" transform="translate(352.6319570541382,566.7455244064331)"/>
<path d="M0 0 C1.74354252 -0.00761181 1.74354252 -0.00761181 3.52230811 -0.0153774 C4.8155614 -0.01587516 6.10881469 -0.01637292 7.44125748 -0.01688576 C8.81624166 -0.02089779 10.19122466 -0.02533557 11.56620622 -0.03016531 C15.3624186 -0.0421658 19.15861825 -0.04778729 22.95484591 -0.05234647 C27.04222358 -0.05828948 31.12958592 -0.06990259 35.21695328 -0.08063698 C45.09724804 -0.10519148 54.97754788 -0.11979289 64.85786378 -0.13269705 C67.64686864 -0.13640685 70.435873 -0.14038026 73.22487736 -0.14444971 C90.53070137 -0.16968482 107.83652614 -0.19174592 125.1423645 -0.20417786 C129.1534742 -0.20710774 133.16458387 -0.21006937 137.17569351 -0.21308327 C138.17268179 -0.21382932 139.16967007 -0.21457537 140.19687012 -0.21534403 C156.35333212 -0.22800199 172.50968417 -0.26122901 188.66609475 -0.3028851 C205.24004319 -0.34526864 221.81393528 -0.36886878 238.38793778 -0.37409842 C247.69909809 -0.37751669 257.01008662 -0.3893206 266.3211937 -0.42220116 C274.24999414 -0.45015377 282.17858763 -0.46122218 290.10743353 -0.4500057 C294.15470785 -0.44480661 298.20154845 -0.44778607 302.24876022 -0.47247124 C305.95254007 -0.49487361 309.65557239 -0.49429525 313.35936454 -0.47526737 C315.33699618 -0.47111996 317.31463169 -0.4916796 319.29215217 -0.51305425 C328.85618254 -0.42684092 328.85618254 -0.42684092 331.94187164 2.6125145 C332.51371059 3.44559946 333.08554955 4.27868443 333.67471695 5.13701439 C334.00471695 5.46701439 334.33471695 5.79701439 334.67471695 6.13701439 C335.22891224 11.04300551 335.41591417 14.92639226 332.79971695 19.19951439 C329.48718278 22.21976613 327.62504116 22.26345486 323.22638607 22.27123547 C322.06203335 22.27569331 320.89768062 22.28015115 319.69804448 22.28474408 C318.40770403 22.28455972 317.11736358 22.28437536 315.78792191 22.28418541 C314.41207488 22.28748317 313.03622882 22.29120855 311.660384 22.29532689 C307.86642865 22.30536488 304.07248912 22.30906656 300.27852237 22.3117162 C296.19184562 22.31561389 292.10518146 22.32519255 288.01851273 22.33392906 C278.14308163 22.35370796 268.26764949 22.36376119 258.39220354 22.37265685 C253.74508994 22.37703716 249.09797749 22.38240461 244.45086479 22.38764572 C229.0088916 22.40465893 213.56691913 22.41915423 198.12493801 22.42639446 C194.11605898 22.42830445 190.10717995 22.43022477 186.09830093 22.4321804 C185.10187816 22.43266414 184.10545538 22.43314789 183.07883797 22.43364628 C166.92892443 22.44195077 150.77908486 22.46729433 134.62920364 22.49976108 C118.05974285 22.53280061 101.49031969 22.55084038 84.92082578 22.5540387 C75.61306219 22.55620662 66.30540649 22.56499633 56.99767494 22.59049988 C49.07257641 22.61216444 41.14761196 22.62027827 33.22248717 22.6105331 C29.17729174 22.6059761 25.1323732 22.60795535 21.08721542 22.62729454 C17.38541226 22.64483977 13.68408974 22.6439996 9.98228208 22.62839725 C8.00570644 22.6248743 6.02912625 22.64111175 4.05261964 22.65800172 C2.88044367 22.64942083 1.7082677 22.64083994 0.50057125 22.63199902 C-1.01687371 22.63346423 -1.01687371 22.63346423 -2.56497413 22.63495904 C-6.07989979 22.00088565 -7.76537532 20.57544597 -10.32528305 18.13701439 C-12.18126601 14.42504848 -11.91620942 10.17818825 -11.32528305 6.13701439 C-8.88778305 3.07451439 -8.88778305 3.07451439 -6.32528305 1.13701439 C-4.60770834 -0.58056033 -2.34516712 0.00540348 0 0 Z " fill="#32404D" transform="translate(350.3252830505371,479.8629856109619)"/>
<path d="M0 0 C0.82244855 0.00018436 1.64489709 0.00036873 2.49226832 0.00055867 C3.35939157 -0.00311801 4.22651482 -0.0067947 5.11991453 -0.0105828 C8.04870546 -0.02166602 10.97746098 -0.02547131 13.90626979 -0.02927226 C15.99680135 -0.03553343 18.08733178 -0.04217991 20.17786098 -0.04918498 C25.87423292 -0.06662745 31.57059645 -0.07715562 37.26698852 -0.08539051 C40.82276312 -0.09053388 44.37853507 -0.09660991 47.93430781 -0.10290164 C59.0503256 -0.12196294 70.16633671 -0.13619195 81.28236771 -0.14451361 C94.13084064 -0.15428986 106.97914148 -0.18061568 119.82755375 -0.2210145 C129.74689207 -0.25113734 139.66618095 -0.26597885 149.58556414 -0.26929462 C155.51529999 -0.27164955 161.44485218 -0.28066741 167.37453914 -0.30575579 C172.95265039 -0.32897437 178.53045626 -0.33329475 184.10860324 -0.32299441 C186.15768708 -0.32249742 188.20678564 -0.32886569 190.25582385 -0.34255046 C193.05042136 -0.36017226 195.84391141 -0.35321117 198.63850856 -0.3400175 C199.45203422 -0.35098674 200.26555988 -0.36195599 201.10373783 -0.37325764 C204.87051765 -0.33023587 207.07029997 -0.01146595 210.27597117 2.03758889 C213.81366287 5.69085503 214.31935573 8.0619775 214.31935573 13.14772969 C214.10718616 16.43635797 213.17289716 17.29900857 210.81263423 19.73695356 C206.90688312 22.87964317 203.4163499 22.849863 198.55189967 22.78264791 C197.24586496 22.79434784 197.24586496 22.79434784 195.91344571 22.80628413 C193.00209196 22.82619409 190.09204681 22.81044351 187.18068385 22.79470235 C185.09103071 22.8014789 183.00138355 22.81038225 180.91174769 22.82125264 C175.24024447 22.84404781 169.56919599 22.83520849 163.89768481 22.81935722 C157.96274916 22.8066995 152.02785248 22.81843799 146.0929153 22.82628804 C136.12616937 22.83538494 126.15960869 22.82339549 116.19289088 22.79958516 C104.66953077 22.77237397 93.14661299 22.78118809 81.6232636 22.80871719 C71.73009859 22.83140596 61.83706675 22.83460942 51.94388413 22.82152385 C46.03487435 22.81372813 40.12607249 22.81269126 34.21707606 22.82920629 C28.66175638 22.84364823 23.10700705 22.83363376 17.55174899 22.804735 C15.51277624 22.7981228 13.47375549 22.80002411 11.43480182 22.81104833 C8.65149022 22.82470986 5.87000683 22.80758077 3.08681178 22.78264791 C2.27960956 22.79380152 1.47240734 22.80495512 0.64074445 22.81644672 C-3.41207887 22.74600812 -5.95350929 22.33501851 -9.18100286 19.77796918 C-11.68064427 17.14772969 -11.68064427 17.14772969 -12.44236302 14.42897969 C-12.24052943 6.86553117 -12.24052943 6.86553117 -9.24314427 3.02272969 C-8.39751927 2.40397969 -7.55189427 1.78522969 -6.68064427 1.14772969 C-4.87611869 -0.65679589 -2.4034319 0.01446153 0 0 Z " fill="#303E4B" transform="translate(350.68064427375793,654.8522703051567)"/>
<path d="M0 0 C0.90105469 0.00902344 1.80210937 0.01804687 2.73046875 0.02734375 C3.41753906 0.03894531 4.10460937 0.05054688 4.8125 0.0625 C4.8125 0.3925 4.8125 0.7225 4.8125 1.0625 C5.71081543 1.05726318 6.60913086 1.05202637 7.53466797 1.04663086 C10.86312499 1.02960275 14.19153581 1.01705663 17.52001953 1.00756836 C18.9614332 1.00253526 20.40284176 0.99570827 21.84423828 0.98706055 C23.91440085 0.97495017 25.98449601 0.96926153 28.0546875 0.96484375 C29.3010498 0.95960693 30.54741211 0.95437012 31.83154297 0.94897461 C34.8125 1.0625 34.8125 1.0625 36.8125 2.0625 C36.98083125 7.77316627 37.14131154 13.48398056 37.29467773 19.19506836 C37.34788397 21.1358832 37.403195 23.07664156 37.46069336 25.01733398 C37.54320442 27.81481758 37.61802008 30.61242018 37.69140625 33.41015625 C37.71844131 34.2708522 37.74547638 35.13154816 37.77333069 36.01832581 C37.79342697 36.83864792 37.81352325 37.65897003 37.83422852 38.50415039 C37.85421402 39.21696671 37.87419952 39.92978302 37.89479065 40.66419983 C37.78665217 43.81581588 37.25846811 46.94072324 36.8125 50.0625 C16.3525 50.0625 -4.1075 50.0625 -25.1875 50.0625 C-25.208125 42.328125 -25.22875 34.59375 -25.25 26.625 C-25.259104 24.18037354 -25.26820801 21.73574707 -25.27758789 19.21704102 C-25.28050691 17.29182999 -25.2830555 15.36661835 -25.28515625 13.44140625 C-25.29027222 12.43170776 -25.29538818 11.42200928 -25.30065918 10.38171387 C-25.30078003 9.4276062 -25.30090088 8.47349854 -25.30102539 7.49047852 C-25.303246 6.65774918 -25.30546661 5.82501984 -25.30775452 4.96705627 C-25.1875 3.0625 -25.1875 3.0625 -24.1875 2.0625 C-21.55841119 1.8507613 -18.94591938 1.68615621 -16.3125 1.5625 C-10.74648106 1.29838311 -5.52571978 -0.07176259 0 0 Z " fill="#F5F5F5" transform="translate(698.1875,868.9375)"/>
<path d="M0 0 C0.66 0 1.32 0 2 0 C2 0.66 2 1.32 2 2 C4.64 2 7.28 2 10 2 C10 17.84 10 33.68 10 50 C-9.47 50 -28.94 50 -49 50 C-49 34.16 -49 18.32 -49 2 C-39.99769757 0.8747122 -39.99769757 0.8747122 -36.75878906 0.87060547 C-35.66790985 0.86587723 -35.66790985 0.86587723 -34.55499268 0.86105347 C-33.42175568 0.86408981 -33.42175568 0.86408981 -32.265625 0.8671875 C-31.06495392 0.86575241 -31.06495392 0.86575241 -29.84002686 0.86428833 C-28.16271892 0.86361271 -26.48540827 0.86542352 -24.80810547 0.86962891 C-22.24310473 0.87501448 -19.67827683 0.86964843 -17.11328125 0.86328125 C-15.47656212 0.86394159 -13.83984309 0.86522183 -12.203125 0.8671875 C-11.43953674 0.86516327 -10.67594849 0.86313904 -9.88922119 0.86105347 C-6.45736888 0.87619072 -3.27946337 0.91581759 0 2 C0 1.34 0 0.68 0 0 Z " fill="#F5F5F5" transform="translate(478,869)"/>
<path d="M0 0 C0 20.46 0 40.92 0 62 C-1.32 61.67 -2.64 61.34 -4 61 C-5.125 55.25 -5.125 55.25 -4 53 C-4.66 53 -5.32 53 -6 53 C-5.92136719 51.83984375 -5.84273437 50.6796875 -5.76171875 49.484375 C-5.5593989 42.98851246 -5.40663312 37.22311325 -9.29296875 31.80078125 C-11.9689403 29.25143015 -14.91722484 27.03535711 -17.84033203 24.77880859 C-22.28280012 21.11977372 -26.26055555 16.95466628 -30.3125 12.875 C-31.1669873 12.03203369 -32.02147461 11.18906738 -32.90185547 10.32055664 C-33.69350098 9.53156982 -34.48514648 8.74258301 -35.30078125 7.9296875 C-36.01403564 7.22054199 -36.72729004 6.51139648 -37.4621582 5.78076172 C-39 4 -39 4 -39 2 C-34.25 1 -34.25 1 -32 1 C-29.68609234 0.93051439 -27.37230918 0.85686637 -25.05859375 0.78125 C-24.03428001 0.74795593 -24.03428001 0.74795593 -22.98927307 0.71398926 C-20.80533865 0.64296446 -18.6214186 0.57150948 -16.4375 0.5 C-14.25000909 0.42854628 -12.06251527 0.35718506 -9.87501526 0.28601074 C-7.89250013 0.2214811 -5.90999495 0.15664574 -3.92749023 0.09179688 C-1 0 -1 0 0 0 Z " fill="#F4F4F4" transform="translate(797,305)"/>
<path d="M0 0 C3.87923813 1.93961906 6.35416517 4.07534772 9.34039307 7.09315491 C9.86650547 7.61685289 10.39261787 8.14055088 10.93467307 8.6801185 C12.69593739 10.43574805 14.44996379 12.19843371 16.20410156 13.96118164 C17.46533722 15.22134439 18.72700571 16.48107408 19.98907471 17.74040222 C23.41481179 21.16129041 26.83426388 24.58839845 30.25249958 28.01678014 C33.82600113 31.5990573 37.40476566 35.1760694 40.98284912 38.75376892 C46.98840089 44.76025728 52.99006583 50.7706072 58.98925781 56.78344727 C65.93535382 63.7452866 72.88668059 70.70186753 79.84101892 77.65547282 C86.52193689 84.33578156 93.19999841 91.01893772 99.87645721 97.70370293 C102.72257856 100.55336401 105.56955593 103.40216587 108.41718292 106.25032234 C111.76508405 109.5992242 115.11043662 112.95065118 118.45378876 116.30409431 C119.68491401 117.53815277 120.91689945 118.77135373 122.14978027 120.00365829 C123.82469165 121.67808279 125.49651927 123.35552434 127.1675415 125.03382874 C127.66285441 125.52759304 128.15816731 126.02135734 128.66848969 126.53008419 C132 129.88582112 132 129.88582112 132 131 C116.84875812 131.0701289 101.69752373 131.12300718 86.54615593 131.15543652 C79.51085861 131.17089529 72.47566222 131.19196577 65.44042969 131.22631836 C58.65179614 131.25945098 51.86326757 131.27685069 45.07455826 131.28463173 C42.48378981 131.2901773 39.89302715 131.30100632 37.30230331 131.31719017 C33.67520465 131.33894818 30.04854008 131.34196752 26.42138672 131.34057617 C25.34892197 131.351362 24.27645721 131.36214783 23.17149353 131.3732605 C17.59532229 131.35009539 13.72740875 131.05773667 9 128 C9.495 127.01 9.495 127.01 10 126 C10.56159946 126.3250395 11.12319893 126.650079 11.70181656 126.98496819 C14.27115189 128.11975885 15.9742136 128.24672397 18.77093506 128.24050903 C19.72525295 128.24326403 20.67957085 128.24601902 21.66280746 128.2488575 C23.22915625 128.23806317 23.22915625 128.23806317 24.82714844 128.22705078 C26.50798712 128.22741239 26.50798712 128.22741239 28.22278214 128.2277813 C31.85172706 128.22628795 35.48046681 128.21105397 39.109375 128.1953125 C41.34912009 128.19237214 43.58886654 128.19033165 45.82861328 128.18920898 C54.13576314 128.17872087 62.44288358 128.1507985 70.75 128.125 C98.59375 128.063125 98.59375 128.063125 127 128 C85.75 86.75 44.5 45.5 2 3 C1.67 38.31 1.34 73.62 1 110 C0.67 110 0.34 110 0 110 C0 73.7 0 37.4 0 0 Z " fill="#E9EBEE" transform="translate(615,202)"/>
<path d="M0 0 C0.66 0.33 1.32 0.66 2 1 C2.62739631 9.9752527 2.62739631 9.9752527 0.125 14.0625 C-3.18964737 17.08467848 -5.04551894 17.12470116 -9.44668007 17.12304783 C-10.61063289 17.12503888 -11.77458572 17.12702993 -12.97380984 17.12908131 C-14.26366994 17.12616847 -15.55353004 17.12325563 -16.88247681 17.12025452 C-18.25776164 17.12069023 -19.63304639 17.12156515 -21.0083307 17.12284368 C-24.80054661 17.12508855 -28.59273449 17.12106746 -32.38494682 17.11606562 C-36.46947608 17.1117612 -40.55400366 17.11320754 -44.63853455 17.1139679 C-51.71959434 17.11449314 -58.80064494 17.11134633 -65.88170242 17.10573006 C-76.11981788 17.09761507 -86.35792888 17.09499984 -96.59604721 17.09374207 C-113.20531003 17.09155154 -129.81456796 17.08489145 -146.42382812 17.07543945 C-162.56152319 17.06626534 -178.69921692 17.0591845 -194.83691406 17.05493164 C-195.83105814 17.05466892 -196.82520222 17.05440619 -197.84947188 17.05413551 C-202.83662633 17.0528305 -207.82378079 17.05156679 -212.81093526 17.05032361 C-254.20729358 17.03995099 -295.60364651 17.02233267 -337 17 C-337 16.67 -337 16.34 -337 16 C-227.44 15.67 -117.88 15.34 -5 15 C-5.66 14.67 -6.32 14.34 -7 14 C-6 12 -6 12 -3 11 C-2.34 11.33 -1.68 11.66 -1 12 C0.26237731 9.47524538 0.09856404 7.68799534 0.0625 4.875 C0.04896484 3.50988281 0.04896484 3.50988281 0.03515625 2.1171875 C0.02355469 1.41851562 0.01195312 0.71984375 0 0 Z " fill="#030F1E" transform="translate(683,485)"/>
<path d="M0 0 C0.99 0.495 0.99 0.495 2 1 C2.62739631 9.9752527 2.62739631 9.9752527 0.125 14.0625 C-3.43266464 17.30625306 -5.63117885 17.12241352 -10.37744141 17.11352539 C-11.35811333 17.11374443 -11.35811333 17.11374443 -12.3585968 17.1139679 C-14.52295227 17.11327036 -16.68722204 17.1054854 -18.8515625 17.09765625 C-20.35086012 17.09579151 -21.85015834 17.09436787 -23.34945679 17.09336853 C-27.29831622 17.08954779 -31.24713896 17.07972128 -35.19598389 17.06866455 C-39.22440087 17.05844091 -43.25282378 17.05386887 -47.28125 17.04882812 C-55.18751685 17.03809862 -63.09375386 17.0210275 -71 17 C-71 16.67 -71 16.34 -71 16 C-49.22 15.67 -27.44 15.34 -5 15 C-5.99 14.505 -5.99 14.505 -7 14 C-6 12 -6 12 -3 11 C-2.01 11.495 -2.01 11.495 -1 12 C0.26237731 9.47524538 0.09856404 7.68799534 0.0625 4.875 C0.05347656 3.96492188 0.04445313 3.05484375 0.03515625 2.1171875 C0.02355469 1.41851562 0.01195312 0.71984375 0 0 Z " fill="#040E1D" transform="translate(683,485)"/>
<path d="M0 0 C1.32 0 2.64 0 4 0 C4 5.28 4 10.56 4 16 C2.02 16.99 2.02 16.99 0 18 C0 12.06 0 6.12 0 0 Z " fill="#F3F3F4" transform="translate(793,796)"/>
<path d="M0 0 C0.33 0 0.66 0 1 0 C1.20140476 3.62528568 0.85776765 5.86501708 -1 9 C-1.66 9 -2.32 9 -3 9 C-3 9.66 -3 10.32 -3 11 C-3.99 11 -4.98 11 -6 11 C-4.55662437 7.11398869 -2.98188088 2.98188088 0 0 Z " fill="#F5F4F5" transform="translate(791,846)"/>
<path d="M0 0 C0.66 0.33 1.32 0.66 2 1 C2.62518714 9.94364932 2.62518714 9.94364932 0.1875 14.0625 C-2 16 -2 16 -5 17 C-5 16.34 -5 15.68 -5 15 C-5.66 14.67 -6.32 14.34 -7 14 C-6 12 -6 12 -3 11 C-2.34 11.33 -1.68 11.66 -1 12 C0.26237731 9.47524538 0.09856404 7.68799534 0.0625 4.875 C0.05347656 3.96492188 0.04445313 3.05484375 0.03515625 2.1171875 C0.02355469 1.41851562 0.01195312 0.71984375 0 0 Z " fill="#1B2632" transform="translate(683,485)"/>
<path d="M0 0 C-1 3 -1 3 -2.8125 3.9375 C-5 4 -5 4 -7.25 2.1875 C-9 0 -9 0 -9 -2 C-5.08496436 -3.59501452 -3.33516624 -2.31608767 0 0 Z " fill="#E9E9E9" transform="translate(767,309)"/>
<path d="M0 0 C1.98 0.99 1.98 0.99 4 2 C4 1.34 4 0.68 4 0 C4.598125 0.185625 5.19625 0.37125 5.8125 0.5625 C8.16408762 1.22093687 8.16408762 1.22093687 11 0 C11.33 1.32 11.66 2.64 12 4 C4.65882353 5.34588235 4.65882353 5.34588235 1.5 3.6875 C0 2 0 2 0 0 Z " fill="#2B3945" transform="translate(341,497)"/>
<path d="M0 0 C1.32 0.66 2.64 1.32 4 2 C3.01 2.495 3.01 2.495 2 3 C1.64587656 4.32796291 1.31478446 5.66216607 1 7 C0.34 7.99 -0.32 8.98 -1 10 C-1.02689216 8.52093108 -1.04634621 7.04172517 -1.0625 5.5625 C-1.07410156 4.73878906 -1.08570313 3.91507813 -1.09765625 3.06640625 C-1 1 -1 1 0 0 Z " fill="#202B3C" transform="translate(340,660)"/>
<path d="M0 0 C0.99 0.99 1.98 1.98 3 3 C1.68 3.99 0.36 4.98 -1 6 C-1.66 5.34 -2.32 4.68 -3 4 C-3 3.01 -3 2.02 -3 1 C-2.01 0.67 -1.02 0.34 0 0 Z " fill="#F4F3F4" transform="translate(725,266)"/>
<path d="M0 0 C0 0.99 0 1.98 0 3 C0.66 3.33 1.32 3.66 2 4 C1.34 5.65 0.68 7.3 0 9 C-0.33 8.01 -0.66 7.02 -1 6 C-1.66 6 -2.32 6 -3 6 C-1.125 1.125 -1.125 1.125 0 0 Z " fill="#243240" transform="translate(342,570)"/>
<path d="M0 0 C0 1.65 0 3.3 0 5 C-1.9375 4.625 -1.9375 4.625 -4 4 C-4.33 3.34 -4.66 2.68 -5 2 C-2 0 -2 0 0 0 Z " fill="#F4F4F4" transform="translate(735,275)"/>
<path d="M0 0 C2.64 0 5.28 0 8 0 C7.67 1.98 7.34 3.96 7 6 C6.67 4.68 6.34 3.36 6 2 C3.03 1.505 3.03 1.505 0 1 C0 0.67 0 0.34 0 0 Z " fill="#F2F1F2" transform="translate(974,244)"/>
</svg>
