<?xml version="1.0" encoding="UTF-8"?>
<svg version="1.1" xmlns="http://www.w3.org/2000/svg" width="1024" height="1024">
<path d="M0 0 C0.33 0.99 0.66 1.98 1 3 C1.83144531 3 2.66289063 3 3.51953125 3 C16.11392405 3 16.11392405 3 20.81640625 3.03515625 C22.73176992 3.04446058 24.64713456 3.05356758 26.5625 3.0625 C27.53380859 3.07087891 28.50511719 3.07925781 29.50585938 3.08789062 C30.43333984 3.09111328 31.36082031 3.09433594 32.31640625 3.09765625 C33.16662354 3.10289307 34.01684082 3.10812988 34.89282227 3.11352539 C37.05756325 3.13723837 37.05756325 3.13723837 39 2 C39 2.66 39 3.32 39 4 C40.30747192 3.75443359 40.30747192 3.75443359 41.64135742 3.50390625 C47.63779961 2.65363157 53.69662246 2.89802378 59.73828125 2.9375 C61.75022697 2.94328422 63.76217272 2.94906302 65.77411938 2.95451355 C69.28693248 2.96540673 72.7997124 2.98292569 76.3125 3 C80.52466834 3.02038049 84.73681708 3.03958392 88.94902039 3.05102539 C91.56770045 3.05858137 94.18637198 3.07067158 96.80500793 3.08764648 C97.98350815 3.09094971 99.16200836 3.09425293 100.3762207 3.09765625 C101.4165596 3.10289307 102.4568985 3.10812988 103.52876282 3.11352539 C106.00350657 3.1672871 106.00350657 3.1672871 108 2 C110.33425788 2.3267961 112.66742506 2.66140041 115 3 C118.83876885 3.19970474 122.5119953 3.08286872 126.3125 2.4375 C129 2 129 2 132 3 C134.24867511 3.08378477 136.4997852 3.10729918 138.75 3.09765625 C139.40452148 3.0962413 140.05904297 3.09482635 140.73339844 3.09336853 C142.82231248 3.08778078 144.91111855 3.07524295 147 3.0625 C148.40624843 3.05748231 149.81249857 3.05291987 151.21875 3.04882812 C153.79690937 3.0406638 156.37498034 3.02929698 158.953125 3.01586914 C161.99186061 3.00004239 165.0242778 3.00049547 168.0625 3.0625 C170.93459792 3.21107035 170.93459792 3.21107035 173 2 C173 2.66 173 3.32 173 4 C174.485 3.505 174.485 3.505 176 3 C180.30839003 2.76191213 184.62324654 2.81480094 188.9375 2.8125 C190.11119141 2.80025391 191.28488281 2.78800781 192.49414062 2.77539062 C213.70342098 2.74021769 213.70342098 2.74021769 221.31640625 9.30859375 C229.05239566 17.08048102 230.20875543 25.41798332 230.26506424 36.15986311 C230.26027117 37.15533955 230.2554781 38.15081598 230.25053978 39.17645836 C230.25333746 40.26327243 230.25613513 41.3500865 230.25901759 42.46983433 C230.265969 46.10684904 230.25872258 49.74369454 230.2515564 53.38070679 C230.25369535 56.0165375 230.25663276 58.65235627 230.26055682 61.28818381 C230.26750779 67.01661584 230.26714331 72.74501062 230.26195335 78.47344398 C230.2542954 86.99199825 230.2581776 95.51051997 230.26457582 104.02907391 C230.27509703 118.36295622 230.27693427 132.69682677 230.27439499 147.03071213 C230.27097622 167.51109801 230.28434445 187.9914544 230.30116946 208.47183235 C230.30784983 216.69317921 230.31398884 224.91452651 230.32012367 233.13587379 C230.32114967 234.50590201 230.32114967 234.50590201 230.32219639 235.90360756 C230.33836995 257.63755936 230.34920839 279.37151299 230.35839844 301.10546875 C230.35880447 302.05627526 230.35921051 303.00708177 230.35962884 303.9867006 C230.36905748 326.17206198 230.37592321 348.35742235 230.37835693 370.54278564 C230.3784635 371.49710647 230.37857006 372.4514273 230.37867985 373.43466694 C230.37921302 378.24690591 230.37972777 383.05914489 230.38024123 387.87138386 C230.38034344 388.82247532 230.38044565 389.77356678 230.38055095 390.7534792 C230.38075651 392.67316805 230.38095907 394.5928569 230.38115862 396.51254575 C230.38453954 428.23114827 230.40145125 459.94972123 230.43326016 491.66830836 C230.43773343 496.14772407 230.44202329 500.62713993 230.44618607 505.10655594 C230.44700652 505.98811502 230.44782698 506.86967409 230.4486723 507.77794708 C230.46141846 521.9624336 230.45942677 536.14688175 230.45155162 550.33137027 C230.44386774 564.58614306 230.45027375 578.84085196 230.47119068 593.09561203 C230.48315403 601.56264239 230.48392931 610.02950283 230.46869816 618.49652884 C230.45960894 624.15538736 230.46503681 629.81411298 230.48214063 635.47295261 C230.49146167 638.6951215 230.49234148 641.91688841 230.47987001 645.13905649 C230.46738599 648.61697443 230.47957169 652.09398576 230.49777794 655.57185936 C230.48830253 656.56265346 230.47882713 657.55344756 230.46906459 658.57426572 C230.5364145 664.96500086 231.78397662 670.21519601 234.02440063 676.20075128 C237.20057154 685.31401294 237.3730833 695.0713401 237.625 704.625 C237.66149658 705.84904541 237.69799316 707.07309082 237.7355957 708.33422852 C237.83552463 711.88931129 237.92071036 715.44440367 238 719 C238.02336426 719.93408691 238.04672852 720.86817383 238.07080078 721.83056641 C238.6748573 748.16032412 238.6748573 748.16032412 232 757 C221.92129508 767.31867409 208.02944702 767.02115108 194.3869406 767.22493653 C188.76147124 767.26811998 183.13656224 767.2599429 177.51098633 767.24723816 C174.94680211 767.2488288 172.38261831 767.25129492 169.81843567 767.25455457 C164.26529859 767.26020683 158.71220257 767.25852151 153.15906715 767.2518692 C144.89546006 767.24199831 136.63188265 767.24369858 128.36827203 767.2476195 C114.43243873 767.25388721 100.49662239 767.25072753 86.56079102 767.24202538 C72.69197431 767.23336906 58.82316523 767.22850614 44.9543457 767.22869301 C44.08719878 767.22870065 43.22005185 767.2287083 42.32662775 767.22871618 C38.80440063 767.2287571 35.28217352 767.22882273 31.75994641 767.22892199 C-1.31938659 767.22982861 -34.39870818 767.21988967 -67.47803721 767.20449232 C-96.58382987 767.19099335 -125.68961438 767.1846258 -154.79541016 767.18530273 C-156.64976378 767.18534315 -158.50411741 767.18538351 -160.35847104 767.18542381 C-161.73385241 767.18545434 -161.73385241 767.18545434 -163.13701926 767.18548548 C-167.75706171 767.18558635 -172.37710416 767.18567692 -176.99714661 767.18575573 C-178.36561363 767.1857808 -178.36561363 767.1857808 -179.76172645 767.18580638 C-204.30602806 767.18617686 -228.8503287 767.18157432 -253.39462948 767.17542917 C-254.27559115 767.17520889 -255.15655283 767.17498862 -256.06421031 767.17476168 C-259.60398009 767.17387382 -263.14374987 767.17298518 -266.68351964 767.17207072 C-278.74420308 767.16897351 -290.80488572 767.16741423 -302.86556954 767.1669687 C-369.07429864 767.1641285 -435.28109203 767.10622664 -501.48807526 766.5833552 C-505.46418832 766.55205492 -509.44031481 766.52269263 -513.41644287 766.49335897 C-519.53800858 766.44756004 -525.65950501 766.39637929 -531.78098679 766.34049593 C-534.00226958 766.32075614 -536.22356598 766.30248383 -538.44487381 766.28579821 C-541.46135827 766.26262047 -544.47772603 766.23348848 -547.49414062 766.20265675 C-548.36358244 766.19716506 -549.23302425 766.19167336 -550.12881279 766.18601526 C-562.74935717 766.03711844 -562.74935717 766.03711844 -566.5625 762.875 C-567.7690625 761.451875 -567.7690625 761.451875 -569 760 C-569.51820313 759.43539062 -570.03640625 758.87078125 -570.5703125 758.2890625 C-575.15411391 753.21809379 -577.21565924 749.18224533 -577.35058594 742.20336914 C-577.39007355 740.49117943 -577.39007355 740.49117943 -577.43035889 738.74440002 C-577.4481842 737.52034958 -577.46600952 736.29629913 -577.484375 735.03515625 C-577.5084845 733.76909042 -577.53259399 732.5030246 -577.55743408 731.19859314 C-577.60569599 728.52305547 -577.65004216 725.84778918 -577.68798828 723.17211914 C-577.73707914 719.75456201 -577.80422633 716.33764103 -577.87673569 712.92051029 C-577.94356437 709.64639185 -577.99445854 706.3720323 -578.046875 703.09765625 C-578.08575836 701.26461693 -578.08575836 701.26461693 -578.12542725 699.39454651 C-578.13914368 698.24993454 -578.15286011 697.10532257 -578.16699219 695.92602539 C-578.19125275 694.42308678 -578.19125275 694.42308678 -578.21600342 692.88978577 C-577.97374505 689.64875008 -577.12518147 687.03980793 -576 684 C-575.321347 681.69098922 -574.65507967 679.378309 -574 677.0625 C-573.67 675.89847656 -573.34 674.73445312 -573 673.53515625 C-572.505 671.78525391 -572.505 671.78525391 -572 670 C-571.65439311 668.99024831 -571.30878622 667.98049662 -570.9527064 666.94014639 C-569.59273696 662.14043414 -569.72867978 657.37759652 -569.75669765 652.42250156 C-569.75468956 651.36398464 -569.75268147 650.30546773 -569.75061253 649.21487454 C-569.74630988 645.65600645 -569.75632287 642.09732228 -569.76622009 638.53846741 C-569.76606408 635.96582868 -569.76502595 633.39318988 -569.76317984 630.82055181 C-569.76057471 625.22077068 -569.76538477 619.62103405 -569.7750473 614.02126122 C-569.78937621 605.69376156 -569.79220454 597.3662858 -569.79262964 589.03877524 C-569.79365061 575.02633426 -569.80384496 561.0139141 -569.81910515 547.00148201 C-569.83416744 533.11602831 -569.84465016 519.23058266 -569.84918404 505.34512138 C-569.84946664 504.48145782 -569.84974924 503.61779426 -569.85004041 502.72795907 C-569.851445 498.34146621 -569.85275708 493.95497333 -569.8540265 489.56848042 C-569.86311843 458.48632146 -569.88072847 427.40417281 -569.90405273 396.32202148 C-569.9054603 394.44224496 -569.90686769 392.56246844 -569.9082749 390.68269192 C-569.9089725 389.75133133 -569.9096701 388.81997073 -569.91038884 387.86038709 C-569.91391744 383.1488274 -569.9174417 378.43726771 -569.92095947 373.72570801 C-569.92165793 372.79151157 -569.92235639 371.85731513 -569.92307602 370.8948097 C-569.93924361 349.21364712 -569.95286851 327.53248322 -569.96557617 305.85131836 C-569.96639535 304.45881549 -569.96639535 304.45881549 -569.96723107 303.03818124 C-569.97968277 281.83364644 -569.99093714 260.62911146 -569.99983311 239.42457485 C-570.0003962 238.08675216 -570.0003962 238.08675216 -570.00097066 236.72190274 C-570.00433761 228.69753316 -570.00765612 220.67316357 -570.0107208 212.64879387 C-570.01836215 192.64960555 -570.02896046 172.65042624 -570.04690962 152.6512443 C-570.05941247 138.70860059 -570.06866252 124.76595829 -570.07447498 110.82331014 C-570.07805715 102.54603955 -570.0845133 94.26878253 -570.09507113 85.99151784 C-570.10266299 79.80175939 -570.1049867 73.61200925 -570.10532434 67.42224639 C-570.10628717 64.92487796 -570.10895171 62.42750946 -570.11352562 59.93014503 C-570.18542169 19.09556498 -570.18542169 19.09556498 -563.30859375 11.01171875 C-556.33221133 4.20446075 -547.9750309 2.65199227 -538.44894409 2.6857605 C-537.43196442 2.70438141 -536.41498474 2.72300232 -535.3671875 2.7421875 C-534.29050812 2.74880402 -533.21382874 2.75542053 -532.10452271 2.76223755 C-528.69437818 2.78545516 -525.28490826 2.82912246 -521.875 2.875 C-518.45803372 2.91021651 -515.04110788 2.94101474 -511.62405396 2.96633911 C-509.50702831 2.98314106 -507.39003957 3.00613368 -505.27316284 3.03634644 C-499.72991492 3.09222002 -494.48852367 2.75252836 -489 2 C-487.66216607 2.31478446 -486.32796291 2.64587656 -485 3 C-483.5459375 2.7525 -483.5459375 2.7525 -482.0625 2.5 C-478.88719564 1.98158296 -477.10958497 2.36707562 -474 3 C-468.22808284 3.28565529 -462.68077973 3.10844482 -457 2 C-454.33333333 2 -451.66666667 2 -449 2 C-449 2.66 -449 3.32 -449 4 C-447.72898437 3.835 -446.45796875 3.67 -445.1484375 3.5 C-439.95724696 2.92252326 -434.84159936 2.92225634 -429.625 3 C-427.86724917 3.02551162 -426.10942603 3.0465436 -424.3515625 3.0625 C-423.58666504 3.07410156 -422.82176758 3.08570313 -422.03369141 3.09765625 C-419.79548568 3.08202924 -419.79548568 3.08202924 -417 2 C-414.99685534 2.31388307 -412.99721514 2.65036761 -411 3 C-408.62633528 3.08987149 -406.25035993 3.13013037 -403.875 3.125 C-402.07675781 3.12886719 -402.07675781 3.12886719 -400.2421875 3.1328125 C-397.61275204 3.02510069 -395.49158527 2.78094464 -393 2 C-393 2.66 -393 3.32 -393 4 C-392.39671875 3.84402344 -391.7934375 3.68804687 -391.171875 3.52734375 C-390.37265625 3.33269531 -389.5734375 3.13804687 -388.75 2.9375 C-387.96109375 2.74027344 -387.1721875 2.54304687 -386.359375 2.33984375 C-383.83883218 1.97678543 -382.41932927 2.3074077 -380 3 C-378.46120419 3.11291505 -376.91787911 3.17459967 -375.375 3.1875 C-374.59898437 3.20167969 -373.82296875 3.21585938 -373.0234375 3.23046875 C-370.77163007 3.18665836 -370.77163007 3.18665836 -369 1 C-368.67 1.66 -368.34 2.32 -368 3 C-366.35 2.67 -364.7 2.34 -363 2 C-363 2.66 -363 3.32 -363 4 C-361.906875 3.835 -360.81375 3.67 -359.6875 3.5 C-356 3 -356 3 -353 3 C-352.34 2.34 -351.68 1.68 -351 1 C-351 1.99 -351 2.98 -351 4 C-350.05125 3.79375 -349.1025 3.5875 -348.125 3.375 C-339.00364979 2.14536124 -331.18800503 5.60277823 -324 11 C-317.8599034 16.5076403 -313.41568048 24.72678775 -312.86412811 33.05050087 C-312.85897438 33.78299238 -312.85382065 34.51548389 -312.84851074 35.27017212 C-312.84016708 36.11631577 -312.83182343 36.96245941 -312.82322693 37.83424377 C-312.81904251 38.75470993 -312.81485809 39.67517609 -312.81054688 40.62353516 C-312.80225357 41.59982376 -312.79396027 42.57611237 -312.78541565 43.58198547 C-312.76801731 45.70394904 -312.7528499 47.8259318 -312.73963928 49.94792557 C-312.71854323 53.32213454 -312.69151635 56.69625046 -312.66296387 60.07040405 C-312.60327235 67.25523276 -312.55126492 74.44010696 -312.5 81.625 C-312.4404558 89.90777944 -312.37766968 98.19051514 -312.30812073 106.47321701 C-312.2819102 109.76855804 -312.26086474 113.06390422 -312.2401123 116.35928345 C-312.17244027 125.64089231 -312.0601782 134.92242024 -311.66992188 144.19677734 C-311.64851387 144.92083582 -311.62710587 145.64489429 -311.60504913 146.39089394 C-311.38749802 150.67432642 -310.67304214 153.6023262 -308 157 C-307.34 157 -306.68 157 -306 157 C-305.91169922 157.83684326 -305.82339844 158.67368652 -305.73242188 159.53588867 C-304.87897223 163.57242102 -303.23970357 166.84180574 -301.28125 170.42578125 C-300.9044812 171.13163864 -300.5277124 171.83749603 -300.13952637 172.56474304 C-298.93431557 174.818375 -297.7175036 177.06548968 -296.5 179.3125 C-295.7127477 180.77887089 -294.92628283 182.24566482 -294.140625 183.71289062 C-293.75156982 184.43805878 -293.36251465 185.16322693 -292.96166992 185.91036987 C-292.17230759 187.3834857 -291.38471958 188.85755361 -290.59887695 190.33255005 C-288.60124391 194.07093217 -286.56342977 197.77409094 -284.43359375 201.43896484 C-284.02008667 202.16971725 -283.60657959 202.90046967 -283.18054199 203.65336609 C-282.40793608 205.01751907 -281.61768296 206.37193021 -280.80480957 207.71247864 C-274.55217348 218.91339826 -276.88801109 234.63280067 -276.95540047 247.05051804 C-276.9729779 250.39717804 -276.98314724 253.74378915 -276.99131775 257.09048462 C-277.0156187 266.59601445 -277.05146922 276.10147737 -277.09594727 285.60693359 C-277.1227507 291.44444984 -277.13977583 297.2819291 -277.15081596 303.11949539 C-277.15701013 305.33542891 -277.16699581 307.55135529 -277.18089485 309.76725388 C-277.20014729 312.86099715 -277.20701142 315.95454466 -277.21118164 319.04833984 C-277.21994324 319.95652466 -277.22870483 320.86470947 -277.23773193 321.80041504 C-277.22543598 329.80569894 -276.13725735 335.29195742 -270.625 341.4375 C-266.47917606 346.17843296 -262.62209897 351.06305644 -258.875 356.125 C-253.70752232 363.07017797 -253.70752232 363.07017797 -248.4375 369.9375 C-247.53837891 371.09572266 -247.53837891 371.09572266 -246.62109375 372.27734375 C-245.01282326 374.25914897 -245.01282326 374.25914897 -242 375 C-242 375.66 -242 376.32 -242 377 C-241.08252487 376.96839783 -240.16504974 376.93679565 -239.21977234 376.90423584 C-217.68826538 376.19391876 -196.18750276 375.93999945 -174.64453125 376.078125 C-172.27082447 376.09110202 -169.89711635 376.10383701 -167.52340698 376.11633301 C-157.78961191 376.169695 -148.05598675 376.22573004 -138.32250977 376.32226562 C-132.26583193 376.38150329 -126.20943454 376.41655406 -120.15250206 376.43544769 C-117.87066904 376.44715485 -115.58886303 376.46791187 -113.30719948 376.49808502 C-110.15341406 376.53893342 -107.00093943 376.54896609 -103.84692383 376.55175781 C-102.91786224 376.57130524 -101.98880066 376.59085266 -101.03158569 376.61099243 C-96.51200148 376.58239234 -94.6348066 376.50404534 -90.99003601 373.61004639 C-89.74818022 371.98128128 -88.51984455 370.3420092 -87.3125 368.6875 C-86.879375 368.130625 -86.44625 367.57375 -86 367 C-85.34 367 -84.68 367 -84 367 C-83.75765625 366.43796875 -83.5153125 365.8759375 -83.265625 365.296875 C-81.7498937 362.54610337 -79.89611758 360.54211197 -77.75 358.25 C-73.55163451 353.65762466 -73.55163451 353.65762466 -69.5 348.9375 C-68.80390625 348.11572266 -68.80390625 348.11572266 -68.09375 347.27734375 C-65.12705038 341.10025133 -65.87748118 333.14389146 -65.98168945 326.43212891 C-66.00134201 324.54749568 -66.02097938 322.66286229 -66.04060364 320.77822876 C-66.05894729 319.2995677 -66.05894729 319.2995677 -66.07766151 317.7910347 C-66.13893268 312.51969383 -66.1690426 307.24812525 -66.20507812 301.9765625 C-66.25293583 295.29204803 -66.30977701 288.60794692 -66.39770508 281.92382812 C-66.46824935 276.49936178 -66.50898363 271.07536771 -66.53032494 265.65049362 C-66.54384497 263.5940796 -66.56815024 261.53770512 -66.60381508 259.48155594 C-66.94339023 239.35639566 -66.94339023 239.35639566 -60 230 C-58.96199393 228.3054481 -57.93457016 226.60432985 -56.921875 224.89453125 C-55.86706616 223.19897374 -54.80972017 221.50499228 -53.75 219.8125 C-52.91227051 218.45838013 -52.91227051 218.45838013 -52.05761719 217.0769043 C-49.41992601 212.82240612 -46.75236176 208.59818953 -43.96875 204.4375 C-43.27700684 203.38598755 -43.27700684 203.38598755 -42.57128906 202.31323242 C-41.72493666 201.03166222 -40.86352825 199.75983347 -39.98339844 198.5012207 C-34.48315702 190.10788949 -35.86067975 179.20276955 -35.90234375 169.5546875 C-35.9037587 168.30366241 -35.90517365 167.05263733 -35.90663147 165.76370239 C-35.91124907 162.47255224 -35.92019947 159.18145311 -35.93133545 155.89031982 C-35.94165075 152.51803199 -35.94615055 149.14573663 -35.95117188 145.7734375 C-35.96214794 139.18227208 -35.97884595 132.5911402 -36 126 C-36.66 125.67 -37.32 125.34 -38 125 C-37.34 125 -36.68 125 -36 125 C-36 114.11 -36 103.22 -36 92 C-36.66 91.67 -37.32 91.34 -38 91 C-37.34 91 -36.68 91 -36 91 C-36 83.08 -36 75.16 -36 67 C-36.66 67 -37.32 67 -38 67 C-38.33 66.01 -38.66 65.02 -39 64 C-38.01 63.34 -37.02 62.68 -36 62 C-36.33 61.34 -36.66 60.68 -37 60 C-36.93500356 57.02788996 -36.80884646 54.09009159 -36.625 51.125 C-36.57537109 50.26817627 -36.52574219 49.41135254 -36.47460938 48.52856445 C-35.37809514 30.08734645 -35.37809514 30.08734645 -34 23 C-33.34 23 -32.68 23 -32 23 C-31.773125 22.13375 -31.54625 21.2675 -31.3125 20.375 C-28.2424562 12.48060165 -22.4485765 8.56380629 -15 5 C-10.39384247 3.47189087 -5.86609964 2.68605809 -1 3 C-0.67 2.01 -0.34 1.02 0 0 Z " fill="#010101" transform="translate(682,129)"/>
<path d="M0 0 C37.62 0 75.24 0 114 0 C113.90976563 9.25933594 113.81953125 18.51867187 113.7265625 28.05859375 C113.7006099 33.95128526 113.67823968 39.84363663 113.671875 45.73632812 C113.6611311 55.07442166 113.63645193 64.41087482 113.51660156 73.74829102 C113.42934436 80.55167239 113.39250811 87.35324056 113.41372812 94.15717846 C113.42324918 97.75362093 113.4092244 101.34616115 113.33458328 104.94192314 C113.04172195 119.8298398 112.93066624 131.78959565 123.74344826 143.05628872 C124.94380761 144.21992552 126.15968185 145.36785226 127.39319992 146.49627876 C129.53736668 148.50289373 131.28758375 150.72793361 133.0625 153.0625 C135.29919325 155.96665308 137.61599484 158.65258272 140.17965698 161.26559448 C148.52525878 170.08844256 151.6329125 176.77752444 151.54837036 188.92337036 C151.49413234 190.74321291 151.43892386 192.56302675 151.3828125 194.3828125 C151.37335726 196.29611197 151.37013075 198.20945121 151.37277222 200.12277222 C151.36521444 205.10990502 151.28304533 210.09280353 151.18133545 215.07879639 C151.03318724 223.08955364 151.01100325 231.10205205 150.96938705 239.1139183 C150.94570948 241.89862374 150.89616419 244.68185261 150.84109497 247.46609497 C150.81847719 249.1728689 150.79607577 250.87964572 150.77392578 252.58642578 C150.75206711 253.35323166 150.73020844 254.12003754 150.70768738 254.91007996 C150.6658392 259.71277412 151.44918777 262.92625179 154 267 C157.41317676 269.92558008 160.5096408 270.53846957 165.00390625 270.3515625 C168.39677841 269.75399206 170.45211152 268.24456842 173 266 C175.49828562 261.45476889 175.34215717 256.89546605 175.40161133 251.84204102 C175.4195726 250.92745621 175.43753387 250.0128714 175.45603943 249.0705719 C175.51068726 246.04839182 175.54871481 243.02639391 175.58203125 240.00390625 C175.59987451 238.44830647 175.59987451 238.44830647 175.61807823 236.86128044 C175.67734822 231.36630292 175.72117849 225.87140895 175.75512695 220.3762207 C175.7862046 215.84886544 175.84874236 211.32366065 175.93969727 206.79711914 C176.04981588 201.31213048 176.10479788 195.82910516 176.12152672 190.34306145 C176.13670304 188.26388257 176.17051344 186.18474513 176.22416115 184.10620308 C176.5077607 172.47026457 176.16100415 164.14880794 168.14593983 155.21193027 C166.78471005 153.78782606 165.39335375 152.39268971 164 151 C162.87483518 149.63158212 161.76347426 148.25117416 160.6875 146.84375 C159.79219358 145.72874337 158.89637682 144.61414629 158 143.5 C153.42369088 137.79799616 148.89020527 132.06395613 144.38867188 126.30273438 C142.30006069 123.56002966 142.30006069 123.56002966 140 121 C139.90408801 119.43112365 139.87812004 117.85792208 139.87974548 116.28611755 C139.87768349 114.7568866 139.87768349 114.7568866 139.87557983 113.19676208 C139.87917511 112.068918 139.88277039 110.94107391 139.88647461 109.77905273 C139.88632858 108.59872467 139.88618256 107.41839661 139.8860321 106.20230103 C139.88661105 102.95657892 139.89164014 99.71089945 139.89860606 96.46518588 C139.90484038 93.07656968 139.90544346 89.68795272 139.90663147 86.29933167 C139.90974456 79.87844196 139.91795764 73.45756919 139.92798096 67.03668696 C139.94023691 59.01209143 139.94572473 50.98749317 139.95117188 42.96289062 C139.96092307 28.64191387 139.98095334 14.32097411 140 0 C160.46 0 180.92 0 202 0 C201.98195313 4.60710937 201.96390625 9.21421875 201.9453125 13.9609375 C201.96507215 16.94188741 201.98899545 19.9217141 202.02734375 22.90234375 C202.08737627 27.59778603 202.1348459 32.29007782 202.08935547 36.98583984 C201.90556035 58.2776867 204.18277021 72.97111727 216.14701843 91.12615967 C219.36104269 96.11087873 222.1788509 101.31990372 225.0625 106.5 C226.52308046 109.05864548 227.99119111 111.61277255 229.46118164 114.16601562 C230.22289673 115.56883789 230.22289673 115.56883789 231 117 C231.60818321 118.00880769 231.60818321 118.00880769 232.22865295 119.03799534 C236.08357941 125.88764008 236.65651671 131.3601958 236.43725586 139.12475586 C236.42525146 140.29538574 236.41324707 141.46601563 236.40087891 142.67211914 C236.37304654 145.20010295 236.33437598 147.72798626 236.28593254 150.2556591 C236.21378879 154.27359799 236.1797394 158.29004699 236.16004944 162.30848694 C236.0979083 173.72818698 235.99203685 185.14654457 235.79125977 196.56469727 C235.6805219 202.88598476 235.62158292 209.20569177 235.61707979 215.52796847 C235.61242323 218.86098494 235.57431679 222.18522543 235.48740959 225.51768303 C235.03844608 243.1172926 237.08062395 254.00153854 249.26143074 267.1014576 C251.88405951 269.96540558 254.20705122 273.04157968 256.5625 276.125 C257.43266462 277.22572587 258.30479412 278.32490395 259.1796875 279.421875 C264.55177618 286.20399129 269.75971037 293.11591954 275 300 C271.16176774 304.53501643 267.23838486 308.96685917 263.1875 313.3125 C258.84347567 317.9948628 254.53967749 322.70851904 250.28515625 327.47265625 C248.62208634 329.31198315 246.94606472 331.12909952 245.24609375 332.93359375 C232.36006784 346.65380873 224.38325227 358.5116643 224.7265625 377.66796875 C225.34430106 391.79338666 234.7252927 402.75709516 243.64404297 412.92871094 C249.40896432 419.52920763 255.25528029 426.36140795 256.4375 435.3125 C255.5798364 442.54137893 251.09889927 447.64750803 245.5859375 452.15625 C230.76745242 462.72169556 213.89386448 468.45664097 196.73178101 474.03137207 C167.19069386 483.62963635 141.30177276 496.69003294 118.296875 517.890625 C115.42383557 520.5291306 112.46635799 523.06183214 109.49609375 525.58984375 C107.88204282 526.94913951 107.88204282 526.94913951 107 529 C106.1335083 529.00364563 105.2670166 529.00729126 104.37426758 529.01104736 C96.13798943 529.04919076 87.90209672 529.10633647 79.66609192 529.18390274 C75.43363071 529.22311847 71.2013695 529.25543196 66.96875 529.27099609 C62.87061385 529.28633597 58.77302854 529.32107915 54.67514038 529.36830902 C53.12540524 529.38294682 51.57559138 529.39103067 50.02578735 529.39188385 C31.80927695 529.41196471 15.35145369 533.03608248 1 545 C0.34 544.67 -0.32 544.34 -1 544 C-0.67 364.48 -0.34 184.96 0 0 Z " fill="#AE7439" transform="translate(140,221)"/>
<path d="M0 0 C25.08 0 50.16 0 76 0 C76.56229136 29.98440977 76.56229136 29.98440977 76.70355415 44.97568607 C76.78063876 53.03015702 76.87790594 61.08256171 77.05615234 69.13549805 C77.19739029 75.51958273 77.28640226 81.90209727 77.31723893 88.28770119 C77.33522436 91.65888589 77.38399009 95.02208509 77.48022079 98.39245415 C78.00883429 117.70139035 74.37412142 130.43767854 63.61773872 146.54642296 C61.54334329 149.69259788 59.74396209 152.92567107 57.95703125 156.2421875 C57.42013672 157.20382812 56.88324219 158.16546875 56.33007812 159.15625 C55.30560063 160.99160737 54.2821884 162.82755971 53.25976562 164.6640625 C52.72673828 165.61796875 52.19371094 166.571875 51.64453125 167.5546875 C51.1264389 168.51400681 50.60834656 169.47332611 50.07455444 170.4617157 C48.63975079 173.01898705 47.03824549 175.33643446 45.2805481 177.68196106 C35.3420678 191.64207745 35.46382977 205.71271695 35.75294042 222.19125199 C35.80765427 225.9331977 35.80156203 229.67512728 35.80357361 233.41740417 C35.8154969 239.68202488 35.86858709 245.9451491 35.95043945 252.20922852 C36.04468174 259.43799993 36.08644049 266.6655323 36.0977698 273.89488107 C36.10992699 281.63317179 36.15260668 289.3710376 36.20823741 297.10912871 C36.22261705 299.32598749 36.23212915 301.54282662 36.24086189 303.75971413 C36.25951008 307.88565415 36.31326958 312.01041307 36.37133789 316.13598633 C36.37423828 317.35626526 36.37713867 318.57654419 36.38012695 319.83380127 C36.50015886 326.14588637 36.6778028 330.23546774 41 335 C44.0281958 337.3792967 47.24769379 337.36275446 51.0390625 337.25 C53.99124996 336.8736255 55.72135886 335.88801695 58 334 C60.52472346 330.43796337 61.36923644 328.06417931 61.29779053 323.71430969 C61.28865128 322.66799881 61.27951202 321.62168793 61.27009583 320.54367065 C61.24509506 319.40559967 61.2200943 318.26752869 61.19433594 317.0949707 C61.1804332 315.88754715 61.16653046 314.6801236 61.15220642 313.43611145 C61.12180329 310.81081165 61.08630641 308.1860552 61.04390717 305.5609684 C60.97941995 301.38227533 60.95116474 297.20381828 60.93096924 293.02470398 C60.92736916 292.31629453 60.92376909 291.60788507 60.92005992 290.87800866 C60.91270947 289.42891276 60.90541548 287.97981658 60.89817667 286.53072011 C60.84756983 276.8110212 60.77197488 267.09273435 60.60595703 257.37426758 C60.49408487 250.80892402 60.43810167 244.24549053 60.44165063 237.67916745 C60.44136478 234.21775721 60.41558896 230.76144442 60.32054901 227.30123329 C59.83869337 207.28210227 63.84848906 194.43139464 75.0281601 178.00380516 C78.42909663 172.8229836 81.34856185 167.37602938 84.3125 161.9375 C84.87220143 160.92902921 85.43190287 159.92055841 86.00856495 158.8815279 C87.05841409 156.98953274 88.09454953 155.08989873 89.12107849 153.18515015 C90.50338243 150.84186675 91.83271937 148.87609692 93.48841858 146.75552368 C103.08798422 133.79137437 102.40755957 119.91020105 102.21586847 104.41973376 C102.1810459 100.73750776 102.20366351 97.05559867 102.21969604 93.37330627 C102.24145803 86.42834928 102.2129757 79.48458318 102.165573 72.53979117 C102.10436703 63.13577372 102.12253352 53.73191168 102.13580322 44.32775974 C102.15459915 29.5511508 102.06887185 14.77706318 102 0 C137.97 0 173.94 0 211 0 C211 179.52 211 359.04 211 544 C207.37 541.69 203.74 539.38 200 537 C196.53748222 535.29128311 196.53748222 535.29128311 193.375 534.1875 C191.87066406 533.62095703 191.87066406 533.62095703 190.3359375 533.04296875 C181.30816542 530.22046858 173.0789648 529.69527524 163.66772461 529.68115234 C162.23783816 529.67183861 160.80795708 529.66166782 159.37808228 529.65071106 C155.52131153 529.62355967 151.66457701 529.60830608 147.80773616 529.59528303 C143.76782403 529.579587 139.72798516 529.55281762 135.68812561 529.5272522 C128.04922889 529.4805785 120.41031822 529.4437794 112.77135235 529.41057932 C104.06993366 529.37227703 95.36858875 529.32288826 86.66723239 529.27259517 C68.77820903 529.16944513 50.88914055 529.08013 33 529 C32.35603693 527.74172874 31.71551442 526.48169634 31.07641602 525.22094727 C30.71935074 524.5194606 30.36228546 523.81797394 29.99440002 523.0952301 C24.26408994 511.0212982 26.30830054 498.03775774 30.5625 485.9609375 C30.91828125 484.98205566 30.91828125 484.98205566 31.28125 483.98339844 C37.8889396 465.74940717 42.9084182 448.87180169 35 430 C19.66972109 398.03473759 -20.45710303 383.67781309 -51.65444946 372.63299561 C-60.97962344 369.35761314 -70.34640289 366.20761873 -79.7265625 363.09375 C-80.42414169 362.86205109 -81.12172089 362.63035217 -81.84043884 362.39163208 C-85.15662115 361.29172653 -88.47485804 360.19901522 -91.7980957 359.12060547 C-92.96687256 358.73791504 -94.13564941 358.35522461 -95.33984375 357.9609375 C-96.87692993 357.46279541 -96.87692993 357.46279541 -98.44506836 356.95458984 C-101 356 -101 356 -104 354 C-103.65964951 348.00983144 -101.77811315 344.78609841 -97.8125 340.5 C-97.28438721 339.90687012 -96.75627441 339.31374023 -96.2121582 338.70263672 C-94.49285024 336.78437776 -92.75059562 334.88972842 -91 333 C-90.39768555 332.34805664 -89.79537109 331.69611328 -89.17480469 331.02441406 C-86.16984928 327.78008356 -83.14912687 324.55114302 -80.1171875 321.33203125 C-77.25559521 318.2870469 -74.48504575 315.17702427 -71.76171875 312.0078125 C-69.89784706 309.88357735 -67.98347138 307.8099026 -66.06201172 305.73779297 C-62.12448894 301.48987084 -58.30587329 297.2155202 -54.6875 292.6875 C-50.36573937 287.31069835 -45.70593259 282.3014478 -40.9597168 277.30151367 C-40.10567261 276.40009644 -40.10567261 276.40009644 -39.234375 275.48046875 C-38.47979004 274.68999146 -38.47979004 274.68999146 -37.70996094 273.88354492 C-36.86353027 272.95119019 -36.86353027 272.95119019 -36 272 C-35.14940506 271.18535278 -34.29881012 270.37070557 -33.42243958 269.53137207 C-29.91918393 265.2767857 -30.38082099 260.90416319 -30.53100586 255.61450195 C-30.53979767 254.58100616 -30.54858948 253.54751038 -30.55764771 252.48269653 C-30.57887766 250.2416745 -30.6110571 248.0007353 -30.65293694 245.76000404 C-30.7155863 242.19603929 -30.74089212 238.63360555 -30.75526428 235.06913757 C-30.80049358 224.93645763 -30.89359177 214.80505481 -31.05786133 204.67358398 C-31.15583068 198.4676299 -31.19380043 192.26356703 -31.19601631 186.05687523 C-31.20840709 183.70829983 -31.24285501 181.35972009 -31.30113029 179.0118351 C-31.71646831 161.95310748 -28.74740099 151.34484194 -18 138 C-17.55950884 137.44997126 -17.11901768 136.89994251 -16.6651783 136.33324623 C-15.50200401 134.89065522 -14.33329213 133.45253444 -13.16430664 132.01464844 C4.23622804 110.13616621 1.18224732 83.69132009 0.63085938 57.08557129 C0.49557485 49.49490161 0.49007979 41.90307911 0.46190643 34.31140137 C0.40537605 22.87044562 0.18787477 11.44292928 0 0 Z " fill="#AD7438" transform="translate(673,221)"/>
<path d="M0 0 C3.44020271 0.08836513 6.88063183 0.09580652 10.32179427 0.11235571 C16.81825699 0.15563021 23.31136589 0.27016288 29.80636066 0.41124856 C37.20870468 0.56850408 44.61122107 0.64489626 52.01482332 0.71498466 C67.22596516 0.86077233 82.43398069 1.10652499 97.64267135 1.41951513 C97.64267135 3.41951513 97.64267135 3.41951513 95.64267135 5.54451513 C94.07181614 7.07565771 92.47821091 8.567172 90.84579635 10.03279638 C86.48513026 14.1056585 83.02825733 18.45116082 79.76767135 23.41951513 C79.38643111 23.98855566 79.00519088 24.55759619 78.61239791 25.14388037 C73.86704989 32.62323954 72.43981307 41.01156106 74.07235885 49.70857763 C76.66176408 59.01125571 82.79401512 64.24058047 90.88754439 68.96272802 C95.28136814 71.28598423 99.82398841 72.9336469 104.51767135 74.54451513 C105.56922408 74.91576513 106.62077682 75.28701513 107.70419478 75.66951513 C114.29100353 77.97499237 120.90985533 80.17577433 127.54110885 82.34920263 C160.78114462 93.24735609 160.78114462 93.24735609 175.64267135 100.41951513 C176.54034225 100.85118994 177.43801314 101.28286474 178.36288619 101.7276206 C210.28523351 117.28293152 210.28523351 117.28293152 216.15829635 133.29060888 C218.96504952 145.62674177 214.83569102 155.68464339 210.51474166 167.0454917 C203.66362801 185.69617174 202.38851676 202.88868139 209.9278276 221.61092138 C216.68766528 236.05324868 227.83655593 247.76292552 239.0762651 258.84529638 C239.64420287 259.40545446 240.21214065 259.96561255 240.79728866 260.54274511 C243.14221784 262.85113053 245.48954408 265.15689418 247.84701705 267.45247412 C257.94268008 277.29865387 268.0098473 287.5585967 274.08017135 300.48201513 C274.56453658 301.49340551 274.56453658 301.49340551 275.05868697 302.52522802 C280.59233618 314.45114737 280.64267135 323.62577446 280.64267135 337.41951513 C109.70267135 337.41951513 -61.23732865 337.41951513 -237.35732865 337.41951513 C-237.35732865 301.48985148 -229.88912836 267.90025941 -205.35732865 240.41951513 C-204.63803178 239.58033545 -203.9187349 238.74115576 -203.17764115 237.87654638 C-180.02978345 211.31005489 -150.13609055 197.28285618 -117.2806685 186.45491552 C-100.54661931 180.92841056 -83.68722214 174.96689866 -69.35732865 164.41951513 C-68.075356 163.5010581 -68.075356 163.5010581 -66.7674849 162.56404638 C-57.11665794 155.29327298 -49.38232212 146.33826821 -46.35732865 134.41951513 C-45.27382759 124.76389057 -46.05570496 116.26397507 -50.35732865 107.41951513 C-50.78143022 106.50685888 -51.20553178 105.59420263 -51.6424849 104.65389013 C-54.67210877 98.61152052 -58.36583204 93.93415366 -62.9784224 89.02498388 C-70.07422343 81.25339228 -76.46076479 73.59202605 -77.79482865 62.91951513 C-76.83167418 55.21427937 -72.56497049 50.07048058 -67.04482865 44.91951513 C-65.87760904 43.79383128 -64.71222954 42.66623616 -63.5487349 41.53670263 C-62.99459916 41.00141943 -62.44046342 40.46613623 -61.86953568 39.91463232 C-59.39135684 37.46446002 -57.15049481 34.83117381 -54.89639115 32.17732763 C-53.28792315 30.34024489 -51.59893997 28.63043726 -49.85732865 26.91951513 C-47.54348431 24.6413468 -45.35234333 22.31644102 -43.23232865 19.85701513 C-42.66269898 19.23521368 -42.09306931 18.61341223 -41.50617814 17.97276831 C-39.83738297 15.98991349 -38.51696966 14.13691954 -37.13340592 11.97173071 C-27.64581352 -1.64943573 -15.4045654 -0.46327679 0 0 Z " fill="#56CAEE" transform="translate(468.35732865333557,530.580484867096)"/>
<path d="M0 0 C14.91720336 -0.09373717 29.83438375 -0.16412238 44.75181961 -0.20724869 C51.67937356 -0.22781162 58.60674375 -0.25581092 65.53417969 -0.30175781 C72.22559876 -0.34611787 78.91678798 -0.36917043 85.60836029 -0.37950897 C88.15510808 -0.38687216 90.70184603 -0.40125046 93.24851227 -0.42292023 C96.82898589 -0.45216173 100.40868307 -0.45594722 103.98925781 -0.45410156 C105.03080017 -0.46848267 106.07234253 -0.48286377 107.14544678 -0.49768066 C120.97047646 -0.42109003 134.20358979 5.15527194 144.25 14.625 C164.72160758 36.33336607 159 60.5660844 159 91 C120.72 91 82.44 91 43 91 C42.67 84.73 42.34 78.46 42 72 C37.77213569 47.05560056 25.63978558 27.91953258 8.640625 9.8515625 C6.65396668 7.70620663 4.73178558 5.54432265 2.83496094 3.32177734 C2.30191345 2.69782074 1.76886597 2.07386414 1.21966553 1.43099976 C0.8171759 0.95876984 0.41468628 0.48653992 0 0 Z " fill="#62B057" transform="translate(733,777)"/>
<path d="M0 0 C0.8141863 0.00291284 1.6283726 0.00582568 2.46723121 0.00882679 C3.32563163 0.00797237 4.18403206 0.00711794 5.06844461 0.00623763 C7.96746169 0.00458018 10.86642191 0.01010849 13.76543373 0.01555592 C15.83452043 0.01583776 17.90360722 0.01568012 19.97269386 0.01511341 C25.60882722 0.01482532 31.24493949 0.02072398 36.88106793 0.02768737 C42.76410721 0.03391892 48.64714691 0.03452455 54.53018898 0.03571278 C65.67910687 0.03882668 76.82801501 0.04704087 87.97692859 0.05706227 C100.66594727 0.06822157 113.3549664 0.07373339 126.04398876 0.0787577 C152.1541863 0.08922343 178.26437449 0.10702435 204.37456459 0.12908131 C204.37456459 11.34908131 204.37456459 22.56908131 204.37456459 34.12908131 C134.74456459 34.12908131 65.11456459 34.12908131 -6.62543541 34.12908131 C-6.62543541 0.01798431 -6.62543541 0.01798431 0 0 Z " fill="#B0763A" transform="translate(679.6254354119301,159.8709186911583)"/>
<path d="M0 0 C26.18987307 -0.02311579 52.3797437 -0.04097757 78.5696249 -0.05181217 C90.72911869 -0.05697582 102.88860604 -0.06401983 115.0480957 -0.07543945 C125.64215968 -0.08538419 136.236219 -0.09185292 146.83028752 -0.09408849 C152.44349403 -0.09539596 158.0566872 -0.09848406 163.66988945 -0.10573006 C168.94666536 -0.11248696 174.22342235 -0.11461764 179.50020218 -0.11310768 C181.44291473 -0.11338416 183.38562788 -0.11539123 185.32833672 -0.11920547 C187.96858426 -0.12413758 190.60875916 -0.12300009 193.24900818 -0.12025452 C194.41775983 -0.12462378 194.41775983 -0.12462378 195.61012262 -0.12908131 C200.88587879 -0.11412121 200.88587879 -0.11412121 202 1 C202 11.89 202 22.78 202 34 C135.34 34 68.68 34 0 34 C0 22.78 0 11.56 0 0 Z " fill="#B0763A" transform="translate(140,160)"/>
<path d="M0 0 C1.09565277 0.00424484 2.19130554 0.00848969 3.32015991 0.01286316 C6.78401349 0.02951675 10.24726286 0.06714417 13.7109375 0.10546875 C16.07421029 0.12053279 18.43749229 0.13421817 20.80078125 0.14648438 C26.56270254 0.17937647 32.32427683 0.22944115 38.0859375 0.29296875 C37.55121826 1.34427979 37.01649902 2.39559082 36.46557617 3.47875977 C21.68737932 32.67536713 18.18426372 57.24485595 17.0859375 91.29296875 C-7.0040625 91.29296875 -31.0940625 91.29296875 -55.9140625 91.29296875 C-56.0171875 83.84734375 -56.1203125 76.40171875 -56.2265625 68.73046875 C-56.27208252 66.41329834 -56.31760254 64.09612793 -56.36450195 61.70874023 C-56.56105608 44.60347482 -54.39263061 31.70687683 -42.9140625 18.29296875 C-42.39328125 17.64972656 -41.8725 17.00648438 -41.3359375 16.34375 C-30.78665955 4.4891321 -15.3368575 -0.22788517 0 0 Z " fill="#62B157" transform="translate(187.9140625,776.70703125)"/>
<path d="M0 0 C0.90194092 0.26441895 1.80388184 0.52883789 2.7331543 0.80126953 C64.31588951 19.26611761 64.31588951 19.26611761 77.625 43.5625 C82.13317141 52.17055559 81.93737269 63.4380941 79.93359375 72.7890625 C75.13110594 87.05586728 65.38296493 96.23240961 52.625 103.5625 C51.64273438 104.12839844 50.66046875 104.69429687 49.6484375 105.27734375 C34.62346847 113.3381848 18.01214091 118.14750132 1.375 121.5625 C-0.12220581 121.87405029 -0.12220581 121.87405029 -1.6496582 122.19189453 C-19.37802517 125.57055621 -19.37802517 125.57055621 -26.5 121.8125 C-29.87585925 119.17052319 -31.08477875 117.41380608 -31.74609375 113.1953125 C-31.86542079 108.6889618 -31.69460175 106.12953536 -29.4375 102.125 C-23.42991743 97.09824723 -15.60891616 96.09453753 -8.0625 94.75 C11.11148533 91.08967541 36.29549356 85.74171942 50.125 70.875 C53.08158526 66.31693106 53.24102996 61.83499172 52.625 56.5625 C47.57512212 45.3649447 32.37241039 40.6768116 21.625 36.5625 C10.55463599 32.61909043 -0.63600223 28.99519192 -11.84594727 25.47143555 C-12.91643311 25.12894775 -13.98691895 24.78645996 -15.08984375 24.43359375 C-16.034646 24.13638428 -16.97944824 23.8391748 -17.95288086 23.53295898 C-21.96985654 21.9234964 -23.28715963 20.37820825 -25.375 16.5625 C-26.65665127 12.01549517 -26.76254567 8.6639456 -25.1875 4.1875 C-18.81679065 -5.03904457 -9.39753168 -2.79446556 0 0 Z " fill="#000102" transform="translate(501.375,627.4375)"/>
<path d="M0 0 C4.4125235 2.1661479 7.09058512 4.43862 9 9 C9.51313806 13.03179902 9.32305205 15.32580443 7.5625 19 C-8.94516946 38.32605205 -40.1233315 44.14129694 -64 48 C-65.06202637 48.17571533 -65.06202637 48.17571533 -66.14550781 48.35498047 C-76.46410411 49.98435994 -86.81649233 50.24857233 -97.25 50.375 C-98.51255615 50.40110352 -99.7751123 50.42720703 -101.07592773 50.45410156 C-112.2276412 50.47511846 -112.2276412 50.47511846 -117 46 C-119.88602816 42.53676621 -120.53457148 39.51239915 -120.35546875 34.9921875 C-119.60303782 30.77526689 -117.08495693 27.98324222 -114 25.1875 C-109.97113457 22.79536115 -106.06922649 22.86851854 -101.453125 22.82421875 C-78.96733381 22.46422456 -57.29847978 20.83668669 -36 13 C-34.96101562 12.62101563 -33.92203125 12.24203125 -32.8515625 11.8515625 C-27.83647475 9.89028146 -23.26732167 7.60493909 -18.68994141 4.79516602 C-12.56466831 1.05688729 -7.34064276 -1.82502168 0 0 Z " fill="#000102" transform="translate(603,781)"/>
<path d="M0 0 C35.97 0 71.94 0 109 0 C109 179.52 109 359.04 109 544 C105.37 541.69 101.74 539.38 98 537 C98.66 536.67 99.32 536.34 100 536 C101.98 537.32 103.96 538.64 106 540 C106.33 362.13 106.66 184.26 107 1 C72.35 1 37.7 1 2 1 C2.03480469 10.39855469 2.06960938 19.79710937 2.10546875 29.48046875 C2.12079381 35.42773684 2.13535948 41.37499065 2.14648438 47.32226562 C2.16429159 56.76608156 2.18523587 66.20981725 2.22631836 75.65356445 C2.25622307 82.53112371 2.27557555 89.40861793 2.28226548 96.2862404 C2.28617595 99.92780345 2.29536436 103.56918042 2.31719017 107.21068382 C2.34135964 111.27620061 2.34196931 115.34139403 2.34057617 119.40698242 C2.35675491 121.21743797 2.35675491 121.21743797 2.3732605 123.06446838 C2.36913651 124.17359589 2.36501251 125.28272339 2.36076355 126.42546082 C2.36352893 127.3868909 2.36629431 128.34832098 2.36914349 129.33888531 C1.93285212 132.48406164 0.78303005 134.40340043 -1 137 C-1.33 136.34 -1.66 135.68 -2 135 C-1.505 134.01 -1.505 134.01 -1 133 C-0.8948978 131.23911081 -0.85340863 129.47428133 -0.84178162 127.71029663 C-0.8319928 126.58846481 -0.82220398 125.466633 -0.81211853 124.31080627 C-0.80636307 123.0743486 -0.8006076 121.83789093 -0.79467773 120.56396484 C-0.78477814 119.26644791 -0.77487854 117.96893097 -0.76467896 116.63209534 C-0.73760021 113.06829766 -0.71660676 109.5044867 -0.69667697 105.94064283 C-0.6748357 102.21834856 -0.64743793 98.49609538 -0.62062073 94.77383423 C-0.57066865 87.7226042 -0.52573917 80.6713514 -0.48259836 73.62007678 C-0.42402453 64.09352114 -0.35772418 54.56701951 -0.29184818 45.04051208 C-0.18823416 30.02704442 -0.09497119 15.01353058 0 0 Z " fill="#DC9648" transform="translate(775,221)"/>
<path d="M0 0 C9.80895829 8.65496319 14.48783515 21.43917576 17 34 C17 39.61 17 45.22 17 51 C-153.94 51 -324.88 51 -501 51 C-501 33 -501 33 -500 27 C-499.67 27 -499.34 27 -499 27 C-499 34.26 -499 41.52 -499 49 C-329.05 49 -159.1 49 16 49 C14.01976734 32.16802236 11.22802985 19.84022832 2.671875 5.828125 C1 3 1 3 0 0 Z " fill="#72F3FC" transform="translate(732,817)"/>
<path d="M0 0 C0.33 0 0.66 0 1 0 C1.33 132 1.66 264 2 400 C-3.445 396.535 -3.445 396.535 -9 393 C-8.34 392.67 -7.68 392.34 -7 392 C-5.02 393.32 -3.04 394.64 -1 396 C-0.67 265.32 -0.34 134.64 0 0 Z " fill="#D49044" transform="translate(882,365)"/>
<path d="M0 0 C0.33 0 0.66 0 1 0 C1 14.19 1 28.38 1 43 C-37.28 43 -75.56 43 -115 43 C-115 36.4 -115 29.8 -115 23 C-114.67 23 -114.34 23 -114 23 C-113.08377246 29.18453592 -113 34.61666704 -113 41 C-75.71 41 -38.42 41 0 41 C0 27.47 0 13.94 0 0 Z " fill="#7EE06D" transform="translate(891,825)"/>
<path d="M0 0 C0.91257505 0.00184359 1.82515011 0.00368717 2.76537895 0.00558662 C4.3345356 0.00146263 4.3345356 0.00146263 5.93539238 -0.00274467 C7.08769341 0.00444588 8.23999443 0.01163643 9.42721367 0.01904488 C10.63694847 0.01875282 11.84668327 0.01846077 13.09307671 0.01815987 C16.41526325 0.01931656 19.7372029 0.02936439 23.05934572 0.04330778 C26.52936295 0.05578888 29.99938327 0.05698356 33.46941948 0.0593586 C40.04258826 0.0655811 46.61569072 0.08200227 53.18883026 0.10205758 C60.67119169 0.12439268 68.15355624 0.13540398 75.6359427 0.14544845 C91.02978371 0.16636787 106.4235585 0.20155874 121.81735039 0.24609566 C121.81735039 0.90609566 121.81735039 1.56609566 121.81735039 2.24609566 C118.855995 3.23321412 116.97513228 3.36297264 113.88987541 3.3461628 C112.87341942 3.34320198 111.85696342 3.34024117 110.80970573 3.33719063 C109.69533638 3.32888222 108.58096703 3.32057381 107.4328289 3.31201363 C105.67153648 3.30500435 105.67153648 3.30500435 103.8746624 3.29785347 C100.65357434 3.28459088 97.4325363 3.26709077 94.21147466 3.2486949 C90.84077167 3.23127997 87.47005077 3.22189109 84.09931755 3.21243477 C72.61651108 3.17899918 61.13377754 3.13735414 49.65109062 3.07470894 C43.30896405 3.04019061 36.96689142 3.01637874 30.62468094 3.00450051 C27.26877551 2.99772783 23.91309899 2.98526454 20.55728149 2.95947075 C16.8151758 2.9330779 13.07345341 2.9251062 9.3312664 2.92138863 C8.21892128 2.90903175 7.10657616 2.89667488 5.96052361 2.88394356 C4.94124779 2.88662239 3.92197197 2.88930122 2.87180901 2.89206123 C1.98709702 2.88799704 1.10238504 2.88393284 0.19086361 2.87974548 C-2.65329969 3.31874018 -4.04386525 4.36921292 -6.18264961 6.24609566 C-3.44929689 0.38891125 -3.44929689 0.38891125 0 0 Z " fill="#6EEBF7" transform="translate(444.18264961242676,531.7539043426514)"/>
<path d="M0 0 C4.8518774 4.04615047 9.42825519 8.28003286 13.88671875 12.75390625 C14.82315971 13.68891212 14.82315971 13.68891212 15.77851868 14.64280701 C17.08640265 15.95001552 18.39304494 17.25846744 19.69848633 18.56811523 C21.68914456 20.564149 23.68511048 22.55476338 25.68164062 24.54492188 C26.95865423 25.82259602 28.23535774 27.10058019 29.51171875 28.37890625 C30.39932137 29.26347252 30.39932137 29.26347252 31.30485535 30.16590881 C34.42216419 33.30083672 37.30947639 36.47978499 40 40 C39.505 40.99 39.505 40.99 39 42 C38.60208252 41.56655273 38.20416504 41.13310547 37.79418945 40.68652344 C35.97060853 38.70428965 34.14161623 36.72712663 32.3125 34.75 C31.68666016 34.06808594 31.06082031 33.38617187 30.41601562 32.68359375 C27.12493121 29.13404721 23.84698951 25.9597559 20 23 C18.64613064 21.34997172 17.31321858 19.6825613 16 18 C13.404167 15.35485066 10.75833865 12.76337297 8.10546875 10.17578125 C7.13278804 9.2213791 6.16013192 8.26695188 5.1875 7.3125 C4.68541016 6.82716797 4.18332031 6.34183594 3.66601562 5.84179688 C2.40582727 4.59875394 1.19808956 3.30300108 0 2 C0 1.34 0 0.68 0 0 Z " fill="#72E5ED" transform="translate(692,775)"/>
<path d="M0 0 C1.36626593 4.09879779 0.10507998 5.57962171 -1.625 9.5 C-4.56700792 16.40233686 -6.57685494 23.36891882 -8.35009766 30.65234375 C-8.53878418 31.420625 -8.7274707 32.18890625 -8.921875 32.98046875 C-9.08268555 33.66004639 -9.24349609 34.33962402 -9.40917969 35.03979492 C-10.05264876 37.1746764 -10.9524096 39.03563088 -12 41 C-12.33 38.69 -12.66 36.38 -13 34 C-12.34 34 -11.68 34 -11 34 C-10.92523438 33.40316406 -10.85046875 32.80632813 -10.7734375 32.19140625 C-9.82525901 25.93528738 -8.16817932 20.13381976 -6.0625 14.1875 C-5.68327393 13.11254272 -5.68327393 13.11254272 -5.29638672 12.01586914 C-3.78713645 7.85647608 -2.06368343 3.92407863 0 0 Z " fill="#83DD72" transform="translate(218,788)"/>
<path d="M0 0 C-0.66 0.33 -1.32 0.66 -2 1 C-2 1.66 -2 2.32 -2 3 C-3.258125 3.04125 -4.51625 3.0825 -5.8125 3.125 C-15.64910637 4.265923 -22.96351104 10.41971509 -29.90625 17.046875 C-32 19 -32 19 -35 21 C-30.26037967 10.71591815 -19.00134713 4.65626867 -8.77734375 0.77734375 C-5.73865792 -0.07314638 -3.14036333 -0.14954111 0 0 Z " fill="#88E277" transform="translate(178,778)"/>
<path d="M0 0 C0.33 0 0.66 0 1 0 C1 7.26 1 14.52 1 22 C3.97 22 6.94 22 10 22 C5.78370866 24.10814567 3.60209225 24.17700355 -1 24 C-1.18451025 7.1070615 -1.18451025 7.1070615 0 0 Z " fill="#6FE8F3" transform="translate(232,844)"/>
<path d="M0 0 C2.53541298 0.09086451 5.03554784 0.2370945 7.5625 0.4375 C8.62887695 0.51581055 8.62887695 0.51581055 9.71679688 0.59570312 C11.47821999 0.72574107 13.23916173 0.86226897 15 1 C14.67 1.99 14.34 2.98 14 4 C3.11 3.67 -7.78 3.34 -19 3 C-19 2.67 -19 2.34 -19 2 C-17.71222656 1.93941406 -16.42445313 1.87882813 -15.09765625 1.81640625 C-13.41925841 1.73201753 -11.74087364 1.6473687 -10.0625 1.5625 C-8.78729492 1.50352539 -8.78729492 1.50352539 -7.48632812 1.44335938 C-6.67744141 1.40146484 -5.86855469 1.35957031 -5.03515625 1.31640625 C-3.91185913 1.26141968 -3.91185913 1.26141968 -2.76586914 1.20532227 C-0.97538674 1.18228937 -0.97538674 1.18228937 0 0 Z " fill="#53C0E0" transform="translate(513,800)"/>
<path d="M0 0 C-7.23236667 2.50532963 -13.26515569 4.15166361 -21 4 C-19.66666667 3.33333333 -18.33333333 2.66666667 -17 2 C-16.09701172 1.49146484 -16.09701172 1.49146484 -15.17578125 0.97265625 C-12.69994649 -0.13413523 -10.63290458 -0.43950652 -7.9375 -0.6875 C-6.65166016 -0.81705078 -6.65166016 -0.81705078 -5.33984375 -0.94921875 C-3 -1 -3 -1 0 0 Z " fill="#6FE1EF" transform="translate(560,797)"/>
<path d="M0 0 C4.95 0.33 9.9 0.66 15 1 C15 1.33 15 1.66 15 2 C9.61509359 2.91657981 4.45769811 3.11138159 -1 3 C-0.67 2.01 -0.34 1.02 0 0 Z " fill="#55C1DF" transform="translate(521,830)"/>
<path d="M0 0 C0.33 0 0.66 0 1 0 C1.06058594 0.58007812 1.12117187 1.16015625 1.18359375 1.7578125 C1.66016561 6.20092863 2.21008666 10.59905423 3 15 C2.01 14.67 1.02 14.34 0 14 C0 9.38 0 4.76 0 0 Z " fill="#56C2E0" transform="translate(682,665)"/>
<path d="M0 0 C0.33 0.99 0.66 1.98 1 3 C0.34 2.67 -0.32 2.34 -1 2 C-0.67 1.34 -0.34 0.68 0 0 Z " fill="#1A1C18" transform="translate(113,145)"/>
<path d="M0 0 C0.33 0.66 0.66 1.32 1 2 C0.34 1.67 -0.32 1.34 -1 1 C-0.67 0.67 -0.34 0.34 0 0 Z " fill="#212C1E" transform="translate(116,892)"/>
<path d="" fill="#181916" transform="translate(0,0)"/>
<path d="" fill="#191915" transform="translate(0,0)"/>
<path d="" fill="#181A16" transform="translate(0,0)"/>
<path d="" fill="#191A16" transform="translate(0,0)"/>
<path d="" fill="#1A1B17" transform="translate(0,0)"/>
<path d="" fill="#1B1C19" transform="translate(0,0)"/>
<path d="" fill="#222A1E" transform="translate(0,0)"/>
<path d="" fill="#212E1F" transform="translate(0,0)"/>
<path d="" fill="#222B21" transform="translate(0,0)"/>
<path d="" fill="#1D271C" transform="translate(0,0)"/>
<path d="" fill="#1C211A" transform="translate(0,0)"/>
<path d="" fill="#1E221C" transform="translate(0,0)"/>
<path d="" fill="#181C16" transform="translate(0,0)"/>
<path d="" fill="#151715" transform="translate(0,0)"/>
<path d="" fill="#191913" transform="translate(0,0)"/>
<path d="" fill="#171A16" transform="translate(0,0)"/>
<path d="" fill="#191914" transform="translate(0,0)"/>
<path d="" fill="#171916" transform="translate(0,0)"/>
<path d="" fill="#191B16" transform="translate(0,0)"/>
<path d="" fill="#1A1B16" transform="translate(0,0)"/>
<path d="" fill="#191A16" transform="translate(0,0)"/>
<path d="M0 0 C2 1 2 1 2 1 Z " fill="#1B1C16" transform="translate(641,235)"/>
<path d="" fill="#1A1B17" transform="translate(0,0)"/>
<path d="" fill="#1B1B17" transform="translate(0,0)"/>
<path d="" fill="#1B1D19" transform="translate(0,0)"/>
<path d="" fill="#1A1C17" transform="translate(0,0)"/>
<path d="" fill="#1C1F1B" transform="translate(0,0)"/>
<path d="M0 0 C2 1 2 1 2 1 Z " fill="#1C1C18" transform="translate(894,132)"/>
<path d="" fill="#23251D" transform="translate(0,0)"/>
<path d="M0 0 C2 1 2 1 2 1 Z " fill="#20221C" transform="translate(671,131)"/>
<path d="" fill="#242620" transform="translate(0,0)"/>
<path d="M0 0 C2 1 2 1 2 1 Z " fill="#262620" transform="translate(175,131)"/>
<path d="" fill="#1F2A26" transform="translate(0,0)"/>
<path d="" fill="#242F28" transform="translate(0,0)"/>
<path d="" fill="#2A3527" transform="translate(0,0)"/>
<path d="" fill="#222A27" transform="translate(0,0)"/>
<path d="" fill="#1E251C" transform="translate(0,0)"/>
<path d="" fill="#212925" transform="translate(0,0)"/>
<path d="" fill="#263125" transform="translate(0,0)"/>
<path d="" fill="#222E22" transform="translate(0,0)"/>
<path d="" fill="#1F2B1E" transform="translate(0,0)"/>
<path d="" fill="#1E2820" transform="translate(0,0)"/>
<path d="" fill="#1F2A1C" transform="translate(0,0)"/>
<path d="" fill="#202C1F" transform="translate(0,0)"/>
<path d="" fill="#202B1E" transform="translate(0,0)"/>
<path d="" fill="#1F271D" transform="translate(0,0)"/>
<path d="" fill="#1E251E" transform="translate(0,0)"/>
<path d="" fill="#21291F" transform="translate(0,0)"/>
<path d="" fill="#1D261D" transform="translate(0,0)"/>
<path d="" fill="#1F261E" transform="translate(0,0)"/>
<path d="" fill="#20291F" transform="translate(0,0)"/>
<path d="" fill="#1D271B" transform="translate(0,0)"/>
<path d="" fill="#1E281C" transform="translate(0,0)"/>
<path d="" fill="#1F291E" transform="translate(0,0)"/>
<path d="" fill="#1D241D" transform="translate(0,0)"/>
<path d="" fill="#1F261B" transform="translate(0,0)"/>
<path d="" fill="#1F261D" transform="translate(0,0)"/>
<path d="" fill="#202820" transform="translate(0,0)"/>
<path d="" fill="#1D231C" transform="translate(0,0)"/>
<path d="" fill="#1F241A" transform="translate(0,0)"/>
<path d="" fill="#1D271E" transform="translate(0,0)"/>
<path d="" fill="#1F241B" transform="translate(0,0)"/>
<path d="" fill="#1A2017" transform="translate(0,0)"/>
<path d="" fill="#1B1E1A" transform="translate(0,0)"/>
<path d="" fill="#222A23" transform="translate(0,0)"/>
<path d="" fill="#252A25" transform="translate(0,0)"/>
<path d="" fill="#232823" transform="translate(0,0)"/>
<path d="" fill="#202820" transform="translate(0,0)"/>
<path d="" fill="#1A1B18" transform="translate(0,0)"/>
<path d="" fill="#1A1D19" transform="translate(0,0)"/>
<path d="" fill="#171A17" transform="translate(0,0)"/>
<path d="" fill="#1A1C18" transform="translate(0,0)"/>
<path d="" fill="#1C1C19" transform="translate(0,0)"/>
<path d="" fill="#1B1E18" transform="translate(0,0)"/>
<path d="" fill="#171915" transform="translate(0,0)"/>
<path d="" fill="#171A16" transform="translate(0,0)"/>
<path d="" fill="#181A16" transform="translate(0,0)"/>
<path d="" fill="#1A1A16" transform="translate(0,0)"/>
<path d="" fill="#171B14" transform="translate(0,0)"/>
<path d="" fill="#1C1B18" transform="translate(0,0)"/>
<path d="" fill="#1A1C15" transform="translate(0,0)"/>
<path d="" fill="#1A1B18" transform="translate(0,0)"/>
<path d="" fill="#252822" transform="translate(0,0)"/>
<path d="" fill="#151612" transform="translate(0,0)"/>
<path d="" fill="#1A1C17" transform="translate(0,0)"/>
<path d="" fill="#1B1A15" transform="translate(0,0)"/>
<path d="" fill="#1A1C16" transform="translate(0,0)"/>
<path d="" fill="#1A1A13" transform="translate(0,0)"/>
<path d="" fill="#1B1916" transform="translate(0,0)"/>
<path d="" fill="#191B16" transform="translate(0,0)"/>
<path d="" fill="#1B1817" transform="translate(0,0)"/>
<path d="" fill="#1C1C17" transform="translate(0,0)"/>
<path d="" fill="#161915" transform="translate(0,0)"/>
<path d="" fill="#1A1A16" transform="translate(0,0)"/>
<path d="" fill="#191B15" transform="translate(0,0)"/>
<path d="" fill="#1A1A15" transform="translate(0,0)"/>
<path d="" fill="#181915" transform="translate(0,0)"/>
<path d="" fill="#181913" transform="translate(0,0)"/>
<path d="" fill="#181914" transform="translate(0,0)"/>
<path d="" fill="#181815" transform="translate(0,0)"/>
<path d="" fill="#181715" transform="translate(0,0)"/>
<path d="" fill="#191916" transform="translate(0,0)"/>
<path d="" fill="#191A15" transform="translate(0,0)"/>
<path d="" fill="#181A15" transform="translate(0,0)"/>
<path d="" fill="#1A1B16" transform="translate(0,0)"/>
<path d="" fill="#1B1A18" transform="translate(0,0)"/>
<path d="" fill="#1B1C18" transform="translate(0,0)"/>
<path d="" fill="#1D1916" transform="translate(0,0)"/>
<path d="" fill="#191916" transform="translate(0,0)"/>
<path d="" fill="#181715" transform="translate(0,0)"/>
<path d="" fill="#181914" transform="translate(0,0)"/>
<path d="" fill="#1A1C17" transform="translate(0,0)"/>
<path d="" fill="#191D16" transform="translate(0,0)"/>
<path d="" fill="#1A1A16" transform="translate(0,0)"/>
<path d="" fill="#1B1B17" transform="translate(0,0)"/>
<path d="" fill="#181917" transform="translate(0,0)"/>
<path d="" fill="#1C1C18" transform="translate(0,0)"/>
<path d="" fill="#1B1915" transform="translate(0,0)"/>
<path d="" fill="#1C1C17" transform="translate(0,0)"/>
<path d="" fill="#1C1918" transform="translate(0,0)"/>
<path d="" fill="#1B1A18" transform="translate(0,0)"/>
<path d="" fill="#1A1B16" transform="translate(0,0)"/>
<path d="" fill="#1A1C17" transform="translate(0,0)"/>
<path d="" fill="#181B16" transform="translate(0,0)"/>
<path d="" fill="#1B1918" transform="translate(0,0)"/>
<path d="" fill="#1D1E18" transform="translate(0,0)"/>
<path d="" fill="#1A1A16" transform="translate(0,0)"/>
<path d="" fill="#1B1C18" transform="translate(0,0)"/>
<path d="" fill="#1B1C18" transform="translate(0,0)"/>
<path d="" fill="#1D1D18" transform="translate(0,0)"/>
<path d="" fill="#1E1B19" transform="translate(0,0)"/>
<path d="" fill="#1D1E19" transform="translate(0,0)"/>
<path d="" fill="#1E201C" transform="translate(0,0)"/>
<path d="" fill="#1C1E19" transform="translate(0,0)"/>
<path d="" fill="#1F201D" transform="translate(0,0)"/>
<path d="" fill="#20221B" transform="translate(0,0)"/>
<path d="" fill="#1D1E19" transform="translate(0,0)"/>
<path d="" fill="#1C1E18" transform="translate(0,0)"/>
<path d="" fill="#1E1D18" transform="translate(0,0)"/>
<path d="" fill="#1C1C19" transform="translate(0,0)"/>
<path d="" fill="#1B1C17" transform="translate(0,0)"/>
<path d="" fill="#1B1C19" transform="translate(0,0)"/>
<path d="" fill="#1D1F1B" transform="translate(0,0)"/>
<path d="" fill="#1B1B19" transform="translate(0,0)"/>
<path d="" fill="#191C18" transform="translate(0,0)"/>
<path d="" fill="#1D2119" transform="translate(0,0)"/>
<path d="" fill="#1E1F19" transform="translate(0,0)"/>
<path d="" fill="#1D1F1A" transform="translate(0,0)"/>
<path d="" fill="#1E1E1A" transform="translate(0,0)"/>
<path d="" fill="#23251D" transform="translate(0,0)"/>
<path d="" fill="#24221C" transform="translate(0,0)"/>
<path d="" fill="#23251D" transform="translate(0,0)"/>
<path d="" fill="#252521" transform="translate(0,0)"/>
<path d="" fill="#242621" transform="translate(0,0)"/>
<path d="" fill="#25251F" transform="translate(0,0)"/>
<path d="" fill="#262620" transform="translate(0,0)"/>
<path d="" fill="#252621" transform="translate(0,0)"/>
<path d="" fill="#23251F" transform="translate(0,0)"/>
<path d="" fill="#22241F" transform="translate(0,0)"/>
<path d="" fill="#232621" transform="translate(0,0)"/>
<path d="" fill="#22271F" transform="translate(0,0)"/>
<path d="" fill="#252621" transform="translate(0,0)"/>
<path d="" fill="#24231F" transform="translate(0,0)"/>
<path d="" fill="#232420" transform="translate(0,0)"/>
<path d="" fill="#1F201A" transform="translate(0,0)"/>
<path d="" fill="#20231D" transform="translate(0,0)"/>
<path d="" fill="#20221A" transform="translate(0,0)"/>
<path d="" fill="#21231D" transform="translate(0,0)"/>
<path d="" fill="#23251D" transform="translate(0,0)"/>
<path d="" fill="#252521" transform="translate(0,0)"/>
<path d="" fill="#21231D" transform="translate(0,0)"/>
<path d="" fill="#242520" transform="translate(0,0)"/>
<path d="" fill="#272522" transform="translate(0,0)"/>
<path d="" fill="#272723" transform="translate(0,0)"/>
<path d="" fill="#242821" transform="translate(0,0)"/>
<path d="" fill="#252721" transform="translate(0,0)"/>
<path d="" fill="#262821" transform="translate(0,0)"/>
<path d="" fill="#252520" transform="translate(0,0)"/>
<path d="" fill="#1F231C" transform="translate(0,0)"/>
<path d="" fill="#1B1C18" transform="translate(0,0)"/>
<path d="" fill="#1A1E1A" transform="translate(0,0)"/>
<path d="" fill="#21211C" transform="translate(0,0)"/>
<path d="" fill="#232621" transform="translate(0,0)"/>
<path d="" fill="#232321" transform="translate(0,0)"/>
<path d="" fill="#22231F" transform="translate(0,0)"/>
<path d="" fill="#24231F" transform="translate(0,0)"/>
<path d="" fill="#21221D" transform="translate(0,0)"/>
<path d="" fill="#21231B" transform="translate(0,0)"/>
<path d="" fill="#212221" transform="translate(0,0)"/>
<path d="" fill="#222420" transform="translate(0,0)"/>
<path d="" fill="#22261E" transform="translate(0,0)"/>
<path d="" fill="#212420" transform="translate(0,0)"/>
<path d="" fill="#232521" transform="translate(0,0)"/>
<path d="" fill="#1D201B" transform="translate(0,0)"/>
<path d="" fill="#1E211B" transform="translate(0,0)"/>
<path d="" fill="#1F211D" transform="translate(0,0)"/>
<path d="" fill="#21221F" transform="translate(0,0)"/>
<path d="" fill="#20261F" transform="translate(0,0)"/>
<path d="" fill="#23241F" transform="translate(0,0)"/>
<path d="" fill="#1E201B" transform="translate(0,0)"/>
<path d="" fill="#21221E" transform="translate(0,0)"/>
<path d="" fill="#24251E" transform="translate(0,0)"/>
<path d="" fill="#20221D" transform="translate(0,0)"/>
<path d="" fill="#22231F" transform="translate(0,0)"/>
<path d="" fill="#1E2219" transform="translate(0,0)"/>
<path d="" fill="#222520" transform="translate(0,0)"/>
<path d="" fill="#20201E" transform="translate(0,0)"/>
<path d="" fill="#1B1F18" transform="translate(0,0)"/>
<path d="" fill="#1D201B" transform="translate(0,0)"/>
<path d="" fill="#23281F" transform="translate(0,0)"/>
<path d="" fill="#252820" transform="translate(0,0)"/>
<path d="" fill="#1D221B" transform="translate(0,0)"/>
<path d="" fill="#1B211B" transform="translate(0,0)"/>
<path d="" fill="#191E19" transform="translate(0,0)"/>
<path d="" fill="#252B23" transform="translate(0,0)"/>
<path d="" fill="#262D24" transform="translate(0,0)"/>
<path d="" fill="#222821" transform="translate(0,0)"/>
<path d="" fill="#242A22" transform="translate(0,0)"/>
</svg>
