<?xml version="1.0" encoding="UTF-8"?>
<svg version="1.1" xmlns="http://www.w3.org/2000/svg" width="1024" height="1024">
<path d="M0 0 C337.92 0 675.84 0 1024 0 C1024 337.92 1024 675.84 1024 1024 C686.08 1024 348.16 1024 0 1024 C0 686.08 0 348.16 0 0 Z " fill="#F9FAFA" transform="translate(0,0)"/>
<path d="M0 0 C0.9835144 0.00310181 1.96702881 0.00620361 2.98034668 0.00939941 C42.84274685 0.15646929 82.93155859 5.35866156 120.8125 18.25 C121.61042969 18.51973633 122.40835937 18.78947266 123.23046875 19.06738281 C162.78196573 32.69661488 199.54513536 54.807339 231.8125 81.25 C232.7627002 82.02811035 233.71290039 82.8062207 234.69189453 83.60791016 C242.14910801 89.7804917 249.16357788 96.2854838 255.97998047 103.15673828 C257.5690836 104.75662829 259.16870375 106.34544414 260.76953125 107.93359375 C267.22753005 114.3829616 273.15509359 121.07510839 278.8125 128.25 C279.74128988 129.38461673 280.67191679 130.51773573 281.60546875 131.6484375 C338.13501461 201.91844394 362.74769149 293.14955572 354.24121094 382.49169922 C351.00455521 410.86588958 351.00455521 410.86588958 347.8125 417.25 C349.08673828 417.5903125 349.08673828 417.5903125 350.38671875 417.9375 C354.42337192 419.48403987 357.2855121 421.55743102 360.625 424.25 C361.54575317 424.98802856 361.54575317 424.98802856 362.48510742 425.7409668 C377.24708238 437.81929887 389.41737251 455.17731161 392.8125 474.25 C395.03060143 497.93558469 388.89830656 516.39934909 373.85546875 534.69921875 C357.36372022 554.20885596 336.58417304 567.35014493 313.74169922 578.31787109 C311.93522185 579.19070463 310.14092176 580.08861592 308.34765625 580.98828125 C222.48803665 623.00058105 111.2400975 626.50288846 17.28614426 626.43888092 C15.20883853 626.43747208 13.13153588 626.4375856 11.05422974 626.43768311 C-28.12837413 626.42408961 -67.3947566 625.49914911 -106.47265625 622.52978516 C-109.08697674 622.33288641 -111.70081057 622.14412721 -114.31640625 621.96630859 C-182.74538243 617.29417384 -256.19487782 605.9566447 -317.1875 573.25 C-317.86248535 572.8905127 -318.5374707 572.53102539 -319.23291016 572.16064453 C-347.72083499 556.88623961 -372.63425201 535.798567 -382.625 504.125 C-388.2390427 484.74018889 -385.2398712 464.91752211 -375.58984375 447.33984375 C-367.52146238 433.97831013 -354.67667228 423.88538054 -341.1875 416.25 C-340.5275 416.25 -339.8675 416.25 -339.1875 416.25 C-339.35765625 415.57839844 -339.5278125 414.90679688 -339.703125 414.21484375 C-348.45849772 378.12221684 -350.66505916 342.03464298 -345.1875 305.25 C-344.90589576 303.21879908 -344.62464665 301.18754889 -344.34375 299.15625 C-338.73227328 260.12745119 -327.5475598 221.04046002 -309.13623047 186.07080078 C-308.22348387 184.31906013 -307.34724828 182.54844241 -306.47265625 180.77734375 C-297.9465239 163.93030325 -286.87804166 148.0517342 -275.1875 133.25 C-274.5275 132.39921875 -273.8675 131.5484375 -273.1875 130.671875 C-269.10249787 125.4698801 -264.80537569 120.51071929 -260.34375 115.62890625 C-258.39134564 113.47489491 -256.50472641 111.27972274 -254.625 109.0625 C-251.78091658 105.79538358 -248.7129784 103.01637287 -245.41015625 100.22265625 C-242.77525036 97.88411939 -240.33784401 95.39389736 -237.875 92.875 C-233.48672678 88.41461366 -228.87681832 84.37935547 -223.98046875 80.484375 C-221.11907661 78.19526129 -218.34509843 75.82149975 -215.5625 73.4375 C-166.39073998 32.5032771 -105.1873741 9.67476565 -42.1875 2.25 C-41.46668243 2.1624646 -40.74586487 2.0749292 -40.00320435 1.98474121 C-26.64248125 0.38877366 -13.44850943 -0.07593512 0 0 Z " fill="#010303" transform="translate(508.1875,182.75)"/>
<path d="M0 0 C2.26404845 -0.00323262 4.52809671 -0.00659798 6.79214478 -0.01008606 C11.50987224 -0.01601708 16.22758158 -0.01793253 20.9453125 -0.01733398 C25.68395854 -0.01725325 30.42250682 -0.02412284 35.16113281 -0.0378418 C65.0804049 -0.12301268 94.86049307 0.33656769 124.7265625 2.16796875 C126.08300064 2.24931604 127.43944567 2.3305485 128.79589844 2.41165161 C136.79816088 2.89749043 144.7943065 3.44686493 152.7890625 4.04296875 C153.94914825 4.12856049 155.10923401 4.21415222 156.30447388 4.30233765 C174.41546925 5.64942374 192.40591114 7.30475701 210.39178467 9.84179688 C213.0025783 10.20652856 215.61467989 10.56080769 218.22705078 10.9140625 C348.70374796 28.60836163 348.70374796 28.60836163 390.7265625 66.16796875 C391.37109375 66.71839844 392.015625 67.26882813 392.6796875 67.8359375 C401.8061198 76.16072372 408.23048308 87.84041098 409.03515625 100.1796875 C409.68825091 116.11377352 404.19141014 127.8602377 393.7890625 139.91796875 C390.01282002 143.99024553 386.04465775 147.67852206 381.7265625 151.16796875 C380.911875 151.83183594 380.0971875 152.49570312 379.2578125 153.1796875 C339.48954535 184.29053694 288.65567767 197.81945931 239.8515625 206.85546875 C238.85157227 207.0457666 237.85158203 207.23606445 236.82128906 207.43212891 C212.86906558 211.69153981 188.29130032 213.10938527 164.07739258 215.33007812 C159.85113152 215.71773599 155.62530089 216.10989075 151.39956379 216.50321388 C148.07157066 216.81237268 144.74333586 217.1188663 141.41502953 217.42463303 C139.85761739 217.5680657 138.30028212 217.71233614 136.74303627 217.85756302 C117.15836028 219.68091314 97.76510396 220.35208895 78.09375 220.40625 C76.82098331 220.41032553 75.54821663 220.41440105 74.23688126 220.41860008 C68.1558301 220.43725242 62.07479845 220.45181954 55.9937247 220.46021205 C49.82675217 220.46887899 43.66003589 220.48782273 37.49316406 220.5246582 C2.30990656 220.73031578 -32.56078053 219.71096495 -67.6312561 216.65370178 C-73.71513103 216.12389542 -79.80286922 215.65424538 -85.89282417 215.20040321 C-143.74433016 210.86658244 -205.99287756 201.24534277 -258.2734375 175.16796875 C-259.02931152 174.79285156 -259.78518555 174.41773438 -260.56396484 174.03125 C-285.2155932 161.67644631 -310.94467006 144.53065494 -320.56640625 117.37890625 C-320.79972656 116.64929688 -321.03304687 115.9196875 -321.2734375 115.16796875 C-321.6859375 113.93046875 -322.0984375 112.69296875 -322.5234375 111.41796875 C-325.40286041 98.46056563 -322.67419008 87.53112336 -315.9609375 76.41796875 C-290.17574637 38.11937604 -223.61125266 26.77212056 -181.71789551 18.46420288 C-167.89858126 15.78542205 -153.98848175 13.61347361 -140.0859375 11.41796875 C-138.87835785 11.22719757 -137.6707782 11.03642639 -136.42660522 10.83987427 C-114.79273716 7.43962275 -93.1986929 4.21166329 -71.33959961 2.71484375 C-68.83709743 2.54304838 -66.33558488 2.36019958 -63.83398438 2.17578125 C-42.56687468 0.64237324 -21.31933611 0.00737444 0 0 Z " fill="#1E9BE7" transform="translate(469.2734375,564.83203125)"/>
<path d="M0 0 C0.53641113 0.39896484 1.07282227 0.79792969 1.62548828 1.20898438 C5.47074862 4.07304035 9.25547937 7.00551137 13 10 C13.52464844 10.41878418 14.04929687 10.83756836 14.58984375 11.26904297 C29.22205922 23.07945894 42.87491587 36.63893902 55 51 C55.51071045 51.60392578 56.0214209 52.20785156 56.54760742 52.83007812 C112.30795536 119.4170705 137.15622912 203.41215827 129.640625 289.7578125 C127.69152308 309.92543075 127.69152308 309.92543075 125 318 C120.6492201 316.58760583 116.31733299 315.15433752 112.0546875 313.4921875 C92.32959609 305.81509903 71.81907077 300.24458799 51.25024414 295.32504272 C49.83205233 294.98301901 48.41536104 294.63471314 47.00024414 294.28018188 C39.00380102 292.27705591 31.35799194 290.8253059 23.11328125 290.43359375 C3.01259314 289.20978868 3.01259314 289.20978868 -2.49407959 283.43249512 C-9.12438292 274.64004062 -12.61536734 263.73524868 -16.30908203 253.48095703 C-18.55045659 247.3670167 -21.50376581 241.74176145 -24.6875 236.0625 C-25.46395874 234.64964722 -25.46395874 234.64964722 -26.25610352 233.20825195 C-46.63819592 196.71871146 -77.81270113 154.05935647 -120.0625 142.0625 C-145.72242237 135.78268107 -171.05664146 142.60336871 -193.29296875 155.77734375 C-196 157 -196 157 -198.109375 157.01953125 C-200.93643829 155.49501985 -202.22746391 153.37050014 -204.0625 150.75 C-209.02450559 143.8510438 -214.40578538 137.39310909 -220 131 C-220.44601562 130.48937012 -220.89203125 129.97874023 -221.3515625 129.45263672 C-245.2422953 102.28740655 -276.11863806 79.33004661 -313 75 C-349.73498224 72.7072589 -384.12433945 85.61751924 -411.83740234 109.58935547 C-415.64984602 112.96727368 -419.33950365 116.45858628 -423 120 C-423.67417969 120.63421875 -424.34835937 121.2684375 -425.04296875 121.921875 C-429.30378929 126.0169428 -432.99264494 130.52963232 -436.69140625 135.1328125 C-438.15918158 136.95573482 -439.64439564 138.76485435 -441.15234375 140.5546875 C-458.62042398 161.33949182 -471.85278354 184.82245369 -484 209 C-484.37608398 209.74282227 -484.75216797 210.48564453 -485.13964844 211.25097656 C-501.79430926 244.38827824 -512.0011654 280.34187962 -517 317 C-519.8344443 314.1655557 -519.90256022 310.99780088 -520.5078125 307.1796875 C-520.70387589 305.98205276 -520.70387589 305.98205276 -520.90390015 304.76022339 C-521.32526811 302.13382819 -521.7281268 299.50520418 -522.125 296.875 C-522.26139893 295.97785278 -522.39779785 295.08070557 -522.53833008 294.15637207 C-525.10241637 276.9678091 -525.88597972 260.36213853 -525 243 C-524.95311035 242.05898438 -524.9062207 241.11796875 -524.85791016 240.1484375 C-523.49703155 216.82412321 -518.24287564 193.45327625 -512 171 C-511.56929199 169.45046631 -511.56929199 169.45046631 -511.12988281 167.86962891 C-504.68711846 145.0901037 -496.26869517 122.85060022 -485 102 C-484.39027344 100.85273438 -483.78054688 99.70546875 -483.15234375 98.5234375 C-475.21295437 84.07929173 -465.2056395 70.90563398 -455 58 C-454.29746094 57.1028125 -453.59492188 56.205625 -452.87109375 55.28125 C-438.88913829 37.77161886 -422.77109225 20.680093 -405 7 C-404.07960938 6.25105469 -403.15921875 5.50210938 -402.2109375 4.73046875 C-392.80820215 -2.78928988 -382.67821777 -9.10741833 -372.46435547 -15.4609375 C-370.46672466 -16.70851672 -368.48122522 -17.97066441 -366.50390625 -19.25 C-286.45444515 -70.27754493 -183.36992794 -75.14915033 0 0 Z " fill="#A5DBEF" transform="translate(709,270)"/>
<path d="M0 0 C13.76951256 10.05559823 26.36546454 21.59320546 36.9921875 34.94140625 C38.38381067 36.68217332 39.80290953 38.40160728 41.2578125 40.08984375 C56.61909658 58.03023641 69.05045557 79.28157356 79.18115234 100.57568359 C79.86176554 102.00394758 80.54981107 103.42868972 81.24462891 104.85009766 C86.59056345 115.82282635 90.87404657 127.06378098 94.75 138.625 C94.97395447 139.28719543 95.19790894 139.94939087 95.4286499 140.63165283 C96.06749263 142.53118457 96.69220627 144.43545009 97.31640625 146.33984375 C97.67806885 147.44320068 98.03973145 148.54655762 98.41235352 149.68334961 C99.14605655 152.52688217 99.24848605 154.77678454 99.1875 157.6875 C98.00671371 157.69114563 96.82592743 157.69479126 95.60935974 157.69854736 C19.06022969 157.48709628 19.06022969 157.48709628 -57.27429199 162.42254639 C-59.73839838 162.67976482 -62.20337449 162.9257243 -64.66894531 163.16845703 C-87.49849161 165.440337 -110.18036192 168.96361761 -132.8125 172.6875 C-134.04516602 172.88956055 -135.27783203 173.09162109 -136.54785156 173.29980469 C-163.36624611 177.77853054 -190.38737671 183.68245236 -216.140625 192.47265625 C-219.8125 193.6875 -219.8125 193.6875 -221.8125 193.6875 C-208.99232824 124.55321807 -174.62310133 45.38029144 -114.8125 3.6875 C-77.92630358 -20.94817133 -37.8221118 -25.27601639 0 0 Z " fill="#528C56" transform="translate(437.8125,384.3125)"/>
<path d="M0 0 C0.7007666 -0.0093457 1.4015332 -0.01869141 2.12353516 -0.02832031 C24.44426794 0.10819793 42.59605405 17.00370779 57.37109375 31.9543457 C63.19213602 38.01153404 68.33828125 44.49002785 73.3125 51.25 C73.78896973 51.88744141 74.26543945 52.52488281 74.75634766 53.18164062 C86.6088833 69.09957647 95.90521573 86.38083603 105.0625 103.9375 C105.37717224 104.53906921 105.69184448 105.14063843 106.01605225 105.76043701 C106.90626725 107.46662881 107.78923819 109.17659434 108.671875 110.88671875 C109.18202148 111.87373779 109.69216797 112.86075684 110.21777344 113.87768555 C111.3125 116.25 111.3125 116.25 111.3125 118.25 C109.04720294 118.06482676 106.78199035 117.87868068 104.5168457 117.69165039 C102.39567784 117.51658215 100.2744153 117.34265841 98.15307617 117.16967773 C92.19431571 116.67809987 86.2420776 116.15231487 80.29296875 115.5546875 C51.0391958 112.68584662 21.66870987 111.56806107 -7.6875 110.25 C-7.94313721 109.36688141 -8.19877441 108.48376282 -8.4621582 107.57388306 C-13.21120085 91.19594135 -18.11003123 75.00614266 -24.6875 59.25 C-25.02716797 58.43450684 -25.36683594 57.61901367 -25.71679688 56.77880859 C-31.18434241 43.82011478 -37.69688151 31.53025764 -44.61523438 19.29272461 C-45.6875 17.25 -45.6875 17.25 -46.6875 14.25 C-31.37404676 6.33388616 -17.52093432 0.15980005 0 0 Z " fill="#2D7E3E" transform="translate(569.6875,432.75)"/>
<path d="M0 0 C6.22166645 3.4001209 11.07648107 7.40759287 15.88671875 12.60546875 C17.51097766 14.50721329 17.51097766 14.50721329 19.62890625 15.42578125 C19.88671875 14.83539063 20.14453125 14.245 20.41015625 13.63671875 C25.98920485 3.51575237 39.14225195 -1.88311602 49.65185547 -5.08447266 C56.67422083 -7.04780411 63.03978837 -7.74883915 70.06640625 -5.44921875 C73.30039345 -3.08288665 74.91219838 -1.21363943 76.62890625 2.42578125 C77.0781572 7.00814091 76.20165128 9.71371986 73.31640625 13.30078125 C69.25448654 16.51253172 66.25694123 17.61106192 61.12890625 18.23828125 C51.08500549 19.83060698 41.20958155 23.33703453 34.62890625 31.42578125 C32.73803163 34.40849485 31.01970786 37.48026082 29.41699219 40.62670898 C28.08096227 43.1979695 27.04028319 45.13862402 24.63671875 46.81640625 C21.24609065 47.84546847 18.08793053 48.04921004 14.62890625 47.42578125 C10.2201292 44.78051502 8.24385911 41.96874715 5.69140625 37.55078125 C-0.51827124 26.83074979 -9.75453226 21.29796841 -21.37109375 17.42578125 C-23.16087342 17.27617118 -24.95303714 17.15394341 -26.74609375 17.05078125 C-31.0034698 16.68522056 -34.04601927 16.32181386 -37.37109375 13.42578125 C-39.88923961 9.20788693 -40.20173116 5.22686546 -39.37109375 0.42578125 C-31.80442909 -13.60165092 -11.09473675 -5.18097209 0 0 Z " fill="#020404" transform="translate(568.37109375,291.57421875)"/>
<path d="M0 0 C5.37515933 -0.02467759 10.75028585 -0.04284928 16.12548828 -0.05493164 C17.95492121 -0.05996737 19.78435009 -0.06679627 21.61376953 -0.07543945 C24.23991898 -0.08753824 26.86601532 -0.09323583 29.4921875 -0.09765625 C30.31306854 -0.10281754 31.13394958 -0.10797882 31.97970581 -0.11329651 C37.77225659 -0.11387171 37.77225659 -0.11387171 40 1 C42.17109458 4.25664188 42.46155311 5.99436347 42.96484375 9.8203125 C43.1237207 10.98852539 43.28259766 12.15673828 43.44628906 13.36035156 C43.60838867 14.60268555 43.77048828 15.84501953 43.9375 17.125 C44.28297785 19.66435982 44.63063152 22.20342458 44.98046875 24.7421875 C45.1511084 25.9806543 45.32174805 27.21912109 45.49755859 28.49511719 C46.48203771 35.36255268 47.71458586 42.18340989 49 49 C46.77691937 50.48907295 44.54731655 51.96622717 42.3125 53.4375 C41.68666016 53.85837891 41.06082031 54.27925781 40.41601562 54.71289062 C36.3112894 57.39922978 33.0155385 59 28 59 C27.67 59.66 27.34 60.32 27 61 C18.09 61 9.18 61 0 61 C-1.33709047 58.32581905 -1.07904171 56.34995607 -1.02172852 53.35693359 C-0.99158409 51.58532364 -0.99158409 51.58532364 -0.96083069 49.77792358 C-0.93379562 48.49769318 -0.90676056 47.21746277 -0.87890625 45.8984375 C-0.85529526 44.59170074 -0.83168427 43.28496399 -0.80735779 41.93862915 C-0.74450236 38.46315875 -0.67543996 34.98783816 -0.60510254 31.51251221 C-0.5344322 27.96674425 -0.46960747 24.42087001 -0.40429688 20.875 C-0.2752658 13.91655114 -0.1396799 6.95824302 0 0 Z " fill="#F4F4F5" transform="translate(120,550)"/>
<path d="M0 0 C3.05799604 3.39777338 4.84839841 5.68611958 5.375 10.25 C4.9269727 14.73027301 3.38073745 17.16063951 0 20 C-2.7106426 20.92277195 -4.97527262 21.52455606 -7.75 22 C-18.67396479 24.30513646 -24.94707146 28.93648209 -31.4921875 38.0859375 C-32.01039063 38.80007813 -32.52859375 39.51421875 -33.0625 40.25 C-33.52785156 40.91515625 -33.99320313 41.5803125 -34.47265625 42.265625 C-36.70708826 44.80293399 -38.81713778 45.77261059 -42.11328125 46.40625 C-46.40773264 46.5893172 -49.22910641 46.32980832 -52.625 43.5625 C-55.18439469 41.08509965 -57.22359272 38.37772541 -59.3125 35.5 C-64.71388157 28.37400879 -71.33379047 25.34721337 -79.8125 23 C-86.71522304 21.00569912 -86.71522304 21.00569912 -89.3125 18.3125 C-91.4912223 14.03574882 -92.07508962 10.70351711 -91 6 C-89.26440247 2.93718083 -87.19805823 0.59902912 -84 -1 C-71.87762658 -2.18349531 -61.65527994 0.14612034 -51.9375 7.625 C-50.61930182 8.74331784 -49.30642146 9.8679469 -48 11 C-46.67417461 12.00993308 -45.34296158 13.0129681 -44 14 C-43.23429688 13.23816406 -43.23429688 13.23816406 -42.453125 12.4609375 C-31.85693 2.4283699 -14.59789613 -7.22472148 0 0 Z " fill="#020303" transform="translate(716,370)"/>
<path d="M0 0 C0.83968323 -0.0007251 1.67936646 -0.0014502 2.54449463 -0.00219727 C4.95422738 -0.00196147 7.36374143 0.00675087 9.7734375 0.01953125 C10.49323792 0.02072464 11.21303833 0.02191803 11.95465088 0.02314758 C15.63226212 0.05751085 19.04787475 0.31603753 22.625 1.1875 C22.625 1.5175 22.625 1.8475 22.625 2.1875 C6.125 2.5175 -10.375 2.8475 -27.375 3.1875 C-28.035 4.5075 -28.695 5.8275 -29.375 7.1875 C-30.365 6.8575 -31.355 6.5275 -32.375 6.1875 C-32.375 5.8575 -32.375 5.5275 -32.375 5.1875 C-39.8 4.1975 -39.8 4.1975 -47.375 3.1875 C-47.375 2.8575 -47.375 2.5275 -47.375 2.1875 C-31.56049456 0.63939949 -15.88157371 -0.01364885 0 0 Z " fill="#A6CCD3" transform="translate(512.375,205.8125)"/>
<path d="M0 0 C1.22589844 0.01353516 1.22589844 0.01353516 2.4765625 0.02734375 C3.41628906 0.04474609 3.41628906 0.04474609 4.375 0.0625 C4.45582094 2.02016281 4.51410778 3.97876728 4.5625 5.9375 C4.59730469 7.02804688 4.63210938 8.11859375 4.66796875 9.2421875 C4.57128906 10.17289063 4.47460938 11.10359375 4.375 12.0625 C3.385 12.7225 2.395 13.3825 1.375 14.0625 C0.67632813 13.49660156 -0.02234375 12.93070312 -0.7421875 12.34765625 C-1.65226563 11.61417969 -2.56234375 10.88070312 -3.5 10.125 C-4.40492188 9.39410156 -5.30984375 8.66320312 -6.2421875 7.91015625 C-8.47002747 6.0588748 -8.47002747 6.0588748 -10.625 5.0625 C-10.625 4.4025 -10.625 3.7425 -10.625 3.0625 C-9.635 3.3925 -8.645 3.7225 -7.625 4.0625 C-7.295 3.0725 -6.965 2.0825 -6.625 1.0625 C-4.21954362 -0.14022819 -2.67503047 -0.03821472 0 0 Z " fill="#F4F4F5" transform="translate(729.625,243.9375)"/>
<path d="M0 0 C5.16933928 4.09243363 9.25416826 8.47246648 13.1875 13.75 C14.00963989 14.83752563 14.00963989 14.83752563 14.84838867 15.94702148 C20.91283418 24.0627403 26.48563848 32.50490252 32 41 C31.67 41.66 31.34 42.32 31 43 C28.36 39.04 25.72 35.08 23 31 C22.34 31.33 21.68 31.66 21 32 C20.01 32.495 20.01 32.495 19 33 C18.67 31.68 18.34 30.36 18 29 C18.99 29 19.98 29 21 29 C19.77190909 27.35444301 19.77190909 27.35444301 18 26 C15.83700789 26.22757731 15.83700789 26.22757731 14 27 C12.9375 24.8125 12.9375 24.8125 12 22 C12.2784375 21.27554687 12.556875 20.55109375 12.84375 19.8046875 C13.03465411 16.37795881 12.40476011 15.86494793 10.25390625 13.30078125 C9.03835705 11.95769902 7.80716099 10.62864921 6.5625 9.3125 C5.33064081 7.97893933 4.10256598 6.64186961 2.87890625 5.30078125 C2.05241577 4.42160034 2.05241577 4.42160034 1.20922852 3.5246582 C0 2 0 2 0 0 Z " fill="#59985D" transform="translate(468,413)"/>
<path d="M0 0 C0 0.99 0 1.98 0 3 C-1.32 3 -2.64 3 -4 3 C-4 3.66 -4 4.32 -4 5 C-9.61 5 -15.22 5 -21 5 C-21.33 5.66 -21.66 6.32 -22 7 C-22 6.34 -22 5.68 -22 5 C-24.97065509 5.34227572 -24.97065509 5.34227572 -28 6 C-28.33 6.66 -28.66 7.32 -29 8 C-31.475 7.01 -31.475 7.01 -34 6 C-34 6.66 -34 7.32 -34 8 C-34.66 8 -35.32 8 -36 8 C-36 7.34 -36 6.68 -36 6 C-36.66 5.67 -37.32 5.34 -38 5 C-34.56441956 2.70961304 -32.64659786 2.55253868 -28.57421875 2.1484375 C-26.66672852 1.95507812 -26.66672852 1.95507812 -24.72070312 1.7578125 C-24.05820557 1.6949707 -23.39570801 1.63212891 -22.71313477 1.56738281 C-20.70426909 1.37659263 -18.69690738 1.17380856 -16.68945312 0.96875 C-11.10115708 0.41528561 -5.62020036 -0.07997629 0 0 Z " fill="#EDEDED" transform="translate(670,800)"/>
<path d="M0 0 C1.18224668 3.54674003 0.89329634 5.97522995 0.5625 9.6875 C0.46066406 10.86699219 0.35882812 12.04648437 0.25390625 13.26171875 C0.17011719 14.16535156 0.08632813 15.06898438 0 16 C-2.9008605 15.64701919 -3.89516676 15.11271704 -5.921875 12.93359375 C-6.52515625 12.10988281 -7.1284375 11.28617187 -7.75 10.4375 C-8.67039062 9.19806641 -8.67039062 9.19806641 -9.609375 7.93359375 C-10.06828125 7.29550781 -10.5271875 6.65742188 -11 6 C-10.34 5.01 -9.68 4.02 -9 3 C-8.67 3.99 -8.34 4.98 -8 6 C-4.87802522 4.6910428 -4.87802522 4.6910428 -3 2 C-2.01 2 -1.02 2 0 2 C0 1.34 0 0.68 0 0 Z " fill="#F3F3F4" transform="translate(796,304)"/>
<path d="M0 0 C2.24435921 2.07266832 3.68404081 3.99211933 5.04296875 6.72265625 C5.56987305 7.77743164 5.56987305 7.77743164 6.10742188 8.85351562 C6.46384766 9.58248047 6.82027344 10.31144531 7.1875 11.0625 C7.55552734 11.79533203 7.92355469 12.52816406 8.30273438 13.28320312 C11 18.73278061 11 18.73278061 11 21 C8.36 20.67 5.72 20.34 3 20 C3 19.67 3 19.34 3 19 C4.65 18.67 6.3 18.34 8 18 C7.34 16.02 6.68 14.04 6 12 C4.02 12.33 2.04 12.66 0 13 C-0.33 13.99 -0.66 14.98 -1 16 C-1.625 14.1875 -1.625 14.1875 -2 12 C0 9 0 9 3 8 C3 7.34 3 6.68 3 6 C2.01 5.67 1.02 5.34 0 5 C-0.33 4.01 -0.66 3.02 -1 2 C-0.67 1.34 -0.34 0.68 0 0 Z " fill="#2C7E3F" transform="translate(670,530)"/>
<path d="M0 0 C1.98 0 3.96 0 6 0 C5.938125 1.299375 5.87625 2.59875 5.8125 3.9375 C5.78812858 9.05549789 7.12566102 13.28068221 9 18 C8.34 18.66 7.68 19.32 7 20 C5.62978206 17.23682377 4.28169824 14.46341522 2.9375 11.6875 C2.54755859 10.90181641 2.15761719 10.11613281 1.75585938 9.30664062 C1.39169922 8.54931641 1.02753906 7.79199219 0.65234375 7.01171875 C0.31195068 6.31522217 -0.02844238 5.61872559 -0.37915039 4.90112305 C-1 3 -1 3 0 0 Z " fill="#EEEEEF" transform="translate(826,367)"/>
<path d="M0 0 C0.66 0 1.32 0 2 0 C2 0.66 2 1.32 2 2 C2.66 2.33 3.32 2.66 4 3 C5.0703125 5.06640625 5.0703125 5.06640625 6.125 7.5625 C6.47820313 8.38878906 6.83140625 9.21507812 7.1953125 10.06640625 C7.46085938 10.70449219 7.72640625 11.34257812 8 12 C9.98 11.34 11.96 10.68 14 10 C13.67 11.98 13.34 13.96 13 16 C12.01 16 11.02 16 10 16 C10.30035156 16.68707031 10.60070312 17.37414062 10.91015625 18.08203125 C11.48056641 19.43361328 11.48056641 19.43361328 12.0625 20.8125 C12.44535156 21.70582031 12.82820312 22.59914063 13.22265625 23.51953125 C14 26 14 26 13 29 C11.30728752 25.35307438 9.61667035 21.70518566 7.92797852 18.05639648 C7.35335703 16.81557069 6.77816634 15.57500833 6.20239258 14.3347168 C5.37431191 12.55066379 4.5484552 10.76557906 3.72265625 8.98046875 C3.22515869 7.90692139 2.72766113 6.83337402 2.21508789 5.72729492 C1 3 1 3 0 0 Z " fill="#318843" transform="translate(534,467)"/>
<path d="M0 0 C2.475 0.99 2.475 0.99 5 2 C4.01 3.485 4.01 3.485 3 5 C3.66 5.33 4.32 5.66 5 6 C5.75 7.875 5.75 7.875 6 10 C5.01 11.485 5.01 11.485 4 13 C4 14.32 4 15.64 4 17 C4 18.66666667 4 20.33333333 4 22 C3.01 21.67 2.02 21.34 1 21 C0.25194283 13.97360585 -0.13794954 7.06608191 0 0 Z " fill="#F0F1F1" transform="translate(858,456)"/>
<path d="M0 0 C4.39361463 1.44569305 7.55204494 3.82328801 11 6.8125 C11.55453857 7.2866333 12.10907715 7.7607666 12.68041992 8.24926758 C19.11200751 13.83319054 25.0688489 19.89411777 31 26 C30.67 26.66 30.34 27.32 30 28 C28.62714844 26.60974609 28.62714844 26.60974609 27.2265625 25.19140625 C26.0261739 23.98163961 24.82564583 22.77201135 23.625 21.5625 C23.02171875 20.95083984 22.4184375 20.33917969 21.796875 19.70898438 C21.21679688 19.12568359 20.63671875 18.54238281 20.0390625 17.94140625 C19.50490723 17.40201416 18.97075195 16.86262207 18.42041016 16.30688477 C17.01347612 14.89153023 17.01347612 14.89153023 15 14 C15 13.34 15 12.68 15 12 C14.41347656 11.73445313 13.82695313 11.46890625 13.22265625 11.1953125 C10.28657138 9.61632837 8.11112943 7.5021205 5.68359375 5.2421875 C3.94636851 3.7031458 3.94636851 3.7031458 1 4 C0.67 2.68 0.34 1.36 0 0 Z " fill="#338A46" transform="translate(601,444)"/>
<path d="M0 0 C0.66 0.33 1.32 0.66 2 1 C2 3.97 2 6.94 2 10 C1.67 9.01 1.34 8.02 1 7 C0.0925 7.33 -0.815 7.66 -1.75 8 C-5 9 -5 9 -9 9 C-9 8.01 -9 7.02 -9 6 C-7.03125 4.39453125 -7.03125 4.39453125 -4.5 2.8125 C-3.6646875 2.28269531 -2.829375 1.75289062 -1.96875 1.20703125 C-1.3190625 0.80871094 -0.669375 0.41039062 0 0 Z " fill="#F1F2F2" transform="translate(855,741)"/>
<path d="M0 0 C0.99 0.33 1.98 0.66 3 1 C3.09706112 7.11485027 2.77040851 12.93303301 2 19 C1.01 18.34 0.02 17.68 -1 17 C-1.29296875 14.8359375 -1.29296875 14.8359375 -1.1875 12.375 C-1.16042969 11.55773437 -1.13335938 10.74046875 -1.10546875 9.8984375 C-1.05326172 8.95871094 -1.05326172 8.95871094 -1 8 C-1.66 7.67 -2.32 7.34 -3 7 C-2.67 6.34 -2.34 5.68 -2 5 C-1.34 5.33 -0.68 5.66 0 6 C-0.185625 5.38125 -0.37125 4.7625 -0.5625 4.125 C-1 2 -1 2 0 0 Z " fill="#A7DAE8" transform="translate(836,547)"/>
<path d="M0 0 C8.75 1.75 8.75 1.75 11 4 C10.67 4.66 10.34 5.32 10 6 C7.93359375 6.4140625 7.93359375 6.4140625 5.4375 6.625 C4.61121094 6.69976563 3.78492188 6.77453125 2.93359375 6.8515625 C1.97646484 6.92503906 1.97646484 6.92503906 1 7 C0.67 7.99 0.34 8.98 0 10 C0 6.7 0 3.4 0 0 Z " fill="#F5F5F5" transform="translate(182,753)"/>
<path d="M0 0 C0.33 0 0.66 0 1 0 C1.28100502 7.16562789 0.20443195 13.94546999 -1 21 C-3.84614024 18.15385976 -3.45579076 15.19630858 -3.625 11.375 C-3.68300781 10.31539062 -3.68300781 10.31539062 -3.7421875 9.234375 C-3.83647724 7.49001476 -3.91932891 5.74504309 -4 4 C-3.01 5.485 -3.01 5.485 -2 7 C-2 5.68 -2 4.36 -2 3 C-1.34 3 -0.68 3 0 3 C0 2.01 0 1.02 0 0 Z " fill="#B4E5EF" transform="translate(193,566)"/>
<path d="M0 0 C0.99 0.33 1.98 0.66 3 1 C3 1.99 3 2.98 3 4 C3.66386719 3.84402344 4.32773437 3.68804688 5.01171875 3.52734375 C5.89472656 3.33269531 6.77773438 3.13804687 7.6875 2.9375 C8.55761719 2.74027344 9.42773438 2.54304687 10.32421875 2.33984375 C13.16001276 1.97967721 15.24789982 2.29090031 18 3 C18 3.33 18 3.66 18 4 C17.37351562 4.04898438 16.74703125 4.09796875 16.1015625 4.1484375 C15.28429687 4.22320313 14.46703125 4.29796875 13.625 4.375 C12.81289063 4.44460938 12.00078125 4.51421875 11.1640625 4.5859375 C8.79665809 4.82892588 8.79665809 4.82892588 7 7 C4.3984375 6.9765625 4.3984375 6.9765625 1.375 6.625 C0.37210938 6.51414062 -0.63078125 6.40328125 -1.6640625 6.2890625 C-2.43492187 6.19367187 -3.20578125 6.09828125 -4 6 C-3.34 5.67 -2.68 5.34 -2 5 C-2 4.34 -2 3.68 -2 3 C-1.34 3 -0.68 3 0 3 C0 2.01 0 1.02 0 0 Z " fill="#1C94DD" transform="translate(596,776)"/>
<path d="M0 0 C0.66 0.33 1.32 0.66 2 1 C-0.64 5.95 -3.28 10.9 -6 16 C-6.33 15.34 -6.66 14.68 -7 14 C-6.06421005 11.64018187 -5.06652192 9.30368736 -4 7 C-5.32 7 -6.64 7 -8 7 C-8 5.02 -8 3.04 -8 1 C-6.33333333 1 -4.66666667 1 -3 1 C-3 1.99 -3 2.98 -3 4 C-2.34 4 -1.68 4 -1 4 C-0.67 2.68 -0.34 1.36 0 0 Z " fill="#AEE2F0" transform="translate(233,458)"/>
<path d="M0 0 C0.7425 0.37125 1.485 0.7425 2.25 1.125 C4.94283647 2.29515863 4.94283647 2.29515863 7.3125 1.125 C7.869375 0.75375 8.42625 0.3825 9 0 C9.33 0.99 9.66 1.98 10 3 C9.67 3.66 9.34 4.32 9 5 C9.62648438 5.13277344 10.25296875 5.26554688 10.8984375 5.40234375 C12.12433594 5.66724609 12.12433594 5.66724609 13.375 5.9375 C14.18710937 6.11152344 14.99921875 6.28554687 15.8359375 6.46484375 C18 7 18 7 20 8 C20 8.66 20 9.32 20 10 C13.98922864 8.36959185 7.98336072 6.72852643 2 5 C2 4.34 2 3.68 2 3 C1.34 2.67 0.68 2.34 0 2 C0 1.34 0 0.68 0 0 Z " fill="#ECEDED" transform="translate(611,192)"/>
<path d="M0 0 C2.31 0 4.62 0 7 0 C6.53328373 5.41390868 5.75702189 9.20517932 3 14 C2.34 14 1.68 14 1 14 C0.875 6.25 0.875 6.25 2 4 C3.32 4 4.64 4 6 4 C5.67 3.34 5.34 2.68 5 2 C2.47266765 1.34444881 2.47266765 1.34444881 0 1 C0 0.67 0 0.34 0 0 Z " fill="#EFEFEF" transform="translate(191,367)"/>
<path d="M0 0 C-0.66 1.32 -1.32 2.64 -2 4 C-2.99 3.67 -3.98 3.34 -5 3 C-5 2.67 -5 2.34 -5 2 C-12.425 1.01 -12.425 1.01 -20 0 C-20 -0.33 -20 -0.66 -20 -1 C-4.51162791 -3.00775194 -4.51162791 -3.00775194 0 0 Z " fill="#A1D2E1" transform="translate(485,209)"/>
<path d="M0 0 C0.33 0.66 0.66 1.32 1 2 C1.99 1.67 2.98 1.34 4 1 C6.00875442 1.27571139 8.01178687 1.60235737 10 2 C9.67 2.99 9.34 3.98 9 5 C6.49609375 5.94921875 6.49609375 5.94921875 3.4375 6.6875 C2.42558594 6.93886719 1.41367187 7.19023437 0.37109375 7.44921875 C-0.41136719 7.63097656 -1.19382812 7.81273437 -2 8 C-2.125 5.125 -2.125 5.125 -2 2 C-1.34 1.34 -0.68 0.68 0 0 Z " fill="#F2F2F2" transform="translate(402,191)"/>
<path d="M0 0 C3.465 1.98 3.465 1.98 7 4 C6.67 5.65 6.34 7.3 6 9 C3.03 8.505 3.03 8.505 0 8 C-0.79953138 4.71303767 -1.09658936 3.28976808 0 0 Z " fill="#F3F4F3" transform="translate(183,383)"/>
<path d="M0 0 C1.010625 0.78375 2.02125 1.5675 3.0625 2.375 C6.62633284 4.94241427 9.73556373 6.04267757 14 7 C13.34 7.66 12.68 8.32 12 9 C11.01 9 10.02 9 9 9 C8.67 9.66 8.34 10.32 8 11 C7.34 9.68 6.68 8.36 6 7 C2.83884224 8.36983503 2.0072908 8.9890638 0 12 C0 10.35 0 8.7 0 7 C0.99 6.67 1.98 6.34 3 6 C2.2575 5.071875 2.2575 5.071875 1.5 4.125 C0 2 0 2 0 0 Z " fill="#B2E4F3" transform="translate(625,386)"/>
<path d="M0 0 C0.33 0.66 0.66 1.32 1 2 C-2.96 7.94 -6.92 13.88 -11 20 C-11.33 19.34 -11.66 18.68 -12 18 C-11.525625 17.236875 -11.05125 16.47375 -10.5625 15.6875 C-8.87250644 12.78071108 -8.71794328 11.29066179 -9 8 C-7.88625 7.690625 -7.88625 7.690625 -6.75 7.375 C-3.20768823 5.60384411 -1.97553159 3.36572049 0 0 Z " fill="#B4E6F1" transform="translate(254,425)"/>
<path d="M0 0 C-0.33 0.99 -0.66 1.98 -1 3 C-1.66 3 -2.32 3 -3 3 C-3 3.66 -3 4.32 -3 5 C-2.46890625 4.77183594 -1.9378125 4.54367187 -1.390625 4.30859375 C-0.68421875 4.02113281 0.0221875 3.73367188 0.75 3.4375 C1.44609375 3.14746094 2.1421875 2.85742188 2.859375 2.55859375 C5.30012784 1.92168197 6.6403655 2.19751169 9 3 C7.25531628 3.70088156 5.50398839 4.38524009 3.75 5.0625 C2.77546875 5.44535156 1.8009375 5.82820312 0.796875 6.22265625 C-2.04007395 7.01113787 -3.29409552 7.02437812 -6 6 C-5.814375 5.38125 -5.62875 4.7625 -5.4375 4.125 C-4.76313824 1.95839822 -4.76313824 1.95839822 -6 0 C-2.25 -1.125 -2.25 -1.125 0 0 Z " fill="#57955B" transform="translate(226,569)"/>
<path d="M0 0 C1.39035371 4.17106112 -0.09769194 7.18206859 -1.4375 11.1875 C-1.68048828 11.93708984 -1.92347656 12.68667969 -2.17382812 13.45898438 C-2.77465056 15.30857501 -3.38629678 17.15464327 -4 19 C-5.08076966 15.75769101 -4.96290534 13.92785456 -4.625 10.5625 C-4.53476563 9.61503906 -4.44453125 8.66757812 -4.3515625 7.69140625 C-3.72950951 2.92924503 -3.72950951 2.92924503 -3 1 C-2.01 0.67 -1.02 0.34 0 0 Z " fill="#B3E7F3" transform="translate(204,525)"/>
<path d="M0 0 C1.64826111 2.96687001 2.44271087 5.65626525 3 9 C0.03 11.475 0.03 11.475 -3 14 C-4.125 7.25 -4.125 7.25 -3 5 C-2.01 5 -1.02 5 0 5 C-0.33 4.01 -0.66 3.02 -1 2 C-0.67 1.34 -0.34 0.68 0 0 Z " fill="#F0EFEF" transform="translate(124,681)"/>
<path d="M0 0 C3.86632036 0.52247572 5.31689273 1.29017437 8 4 C9.81036437 5.109019 9.81036437 5.109019 11.79296875 6.04296875 C12.50517578 6.39423828 13.21738281 6.74550781 13.95117188 7.10742188 C14.68916016 7.46384766 15.42714844 7.82027344 16.1875 8.1875 C16.93708984 8.55552734 17.68667969 8.92355469 18.45898438 9.30273438 C20.30332212 10.20728218 22.15131245 11.10437576 24 12 C21 13 21 13 18.73168945 12.10375977 C17.86761475 11.63768311 17.00354004 11.17160645 16.11328125 10.69140625 C14.7065918 9.94213867 14.7065918 9.94213867 13.27148438 9.17773438 C12.29501953 8.64470703 11.31855469 8.11167969 10.3125 7.5625 C9.32443359 7.03333984 8.33636719 6.50417969 7.31835938 5.95898438 C4.87394092 4.64820926 2.43493283 3.3282889 0 2 C0 1.34 0 0.68 0 0 Z " fill="#23B4F2" transform="translate(196,730)"/>
<path d="M0 0 C2.15341979 2.15341979 2.64111965 3.03923709 3 6 C1 9 1 9 -2.125 9.6875 C-3.07375 9.790625 -4.0225 9.89375 -5 10 C-3.66511872 6.40608886 -2.03977277 3.24509304 0 0 Z " fill="#F0F1F1" transform="translate(893,700)"/>
<path d="M0 0 C-0.639375 0.28875 -1.27875 0.5775 -1.9375 0.875 C-4.15206079 1.82823451 -4.15206079 1.82823451 -5 4 C-4.34 4.33 -3.68 4.66 -3 5 C-3.99 5.66 -4.98 6.32 -6 7 C-6.99 8.485 -6.99 8.485 -8 10 C-11 5.25 -11 5.25 -11 3 C-9.73581754 2.30034557 -8.46334598 1.61565237 -7.1875 0.9375 C-6.47980469 0.55464844 -5.77210938 0.17179687 -5.04296875 -0.22265625 C-3 -1 -3 -1 0 0 Z " fill="#328744" transform="translate(534,444)"/>
<path d="M0 0 C0.66 0 1.32 0 2 0 C2 0.66 2 1.32 2 2 C3.32 1.67 4.64 1.34 6 1 C6.33 2.32 6.66 3.64 7 5 C5.783125 4.855625 4.56625 4.71125 3.3125 4.5625 C-2.7787685 3.88136774 -8.88764914 3.44401931 -15 3 C-15 2.67 -15 2.34 -15 2 C-10.05 1.67 -5.1 1.34 0 1 C0 0.67 0 0.34 0 0 Z " fill="#B8EAF4" transform="translate(551,282)"/>
<path d="M0 0 C0.66 0.33 1.32 0.66 2 1 C2 1.66 2 2.32 2 3 C2.99 3 3.98 3 5 3 C6.125 7.75 6.125 7.75 5 10 C3.68 10 2.36 10 1 10 C0.63720544 8.71073008 0.28503302 7.41846728 -0.0625 6.125 C-0.35833984 5.04605469 -0.35833984 5.04605469 -0.66015625 3.9453125 C-1 2 -1 2 0 0 Z " fill="#F3F5F5" transform="translate(842,402)"/>
<path d="M0 0 C1.32 0.33 2.64 0.66 4 1 C4 5.29 4 9.58 4 14 C3.67 14 3.34 14 3 14 C3 10.7 3 7.4 3 4 C2.34 4 1.68 4 1 4 C1.33 5.65 1.66 7.3 2 9 C1.01 9.495 1.01 9.495 0 10 C-0.38922918 8.71254964 -0.76098036 7.41980403 -1.125 6.125 C-1.43824219 5.04605469 -1.43824219 5.04605469 -1.7578125 3.9453125 C-1.83773437 3.30335938 -1.91765625 2.66140625 -2 2 C-1.34 1.34 -0.68 0.68 0 0 Z " fill="#20A9EF" transform="translate(874,663)"/>
<path d="M0 0 C3 3 3 3 3.14453125 5.19140625 C3.03496094 5.97386719 2.92539062 6.75632812 2.8125 7.5625 C2.66748047 8.74005859 2.66748047 8.74005859 2.51953125 9.94140625 C2 12 2 12 0 14 C-0.66 13.67 -1.32 13.34 -2 13 C-1.34 8.71 -0.68 4.42 0 0 Z " fill="#E6E7E6" transform="translate(858,587)"/>
<path d="M0 0 C0.33 0.66 0.66 1.32 1 2 C1.61746094 1.9278125 2.23492187 1.855625 2.87109375 1.78125 C8.62108387 1.1511141 14.21646559 0.90671719 20 1 C20 1.33 20 1.66 20 2 C3.29157175 4.29612756 3.29157175 4.29612756 -5 4 C-4.0409375 3.8453125 -4.0409375 3.8453125 -3.0625 3.6875 C-2.381875 3.460625 -1.70125 3.23375 -1 3 C-0.67 2.01 -0.34 1.02 0 0 Z " fill="#5D9F60" transform="translate(363,544)"/>
<path d="M0 0 C3.37503669 1.1858237 5.64722731 2.27573689 8 5 C5.625 5.625 5.625 5.625 3 6 C2.34 5.34 1.68 4.68 1 4 C0.01 5.32 -0.98 6.64 -2 8 C-2.66 6.35 -3.32 4.7 -4 3 C-2.68 2.34 -1.36 1.68 0 1 C0 0.67 0 0.34 0 0 Z " fill="#219DE6" transform="translate(840,618)"/>
<path d="M0 0 C1.52489274 5.146513 1.42559979 9.14880043 -1 14 C-1.99 14.495 -1.99 14.495 -3 15 C-4.11658501 10.31034294 -3.80619523 7.46236469 -2 3 C-1.34 3 -0.68 3 0 3 C0 2.01 0 1.02 0 0 Z " fill="#EEEEEF" transform="translate(903,675)"/>
<path d="M0 0 C1.13732426 3.40401948 0.83989957 5.77456664 0.0625 9.25 C-0.13214844 10.14203125 -0.32679688 11.0340625 -0.52734375 11.953125 C-0.68332031 12.62859375 -0.83929688 13.3040625 -1 14 C-0.01 14.33 0.98 14.66 2 15 C1.34 15.66 0.68 16.32 0 17 C-0.99 17 -1.98 17 -3 17 C-3.40214229 10.83381819 -1.96818336 5.82254243 0 0 Z " fill="#5A995E" transform="translate(222,551)"/>
<path d="M0 0 C0.66 0 1.32 0 2 0 C2 0.66 2 1.32 2 2 C3.98 2.66 5.96 3.32 8 4 C8 4.33 8 4.66 8 5 C3.32798795 6.20568053 -1.21496292 6.09382426 -6 6 C-5.01 5.67 -4.02 5.34 -3 5 C-3 4.01 -3 3.02 -3 2 C-2.01 2 -1.02 2 0 2 C0 1.34 0 0.68 0 0 Z " fill="#5A995D" transform="translate(348,544)"/>
<path d="M0 0 C4.54822201 2.40490403 7.77351595 5.5367133 11.3125 9.1875 C11.86228516 9.74630859 12.41207031 10.30511719 12.97851562 10.88085938 C14.32363696 12.24937412 15.66246643 13.62406833 17 15 C16.67 15.66 16.34 16.32 16 17 C15.24074219 16.22914063 14.48148437 15.45828125 13.69921875 14.6640625 C12.69544634 13.65090904 11.69153268 12.63789552 10.6875 11.625 C10.18798828 11.11710937 9.68847656 10.60921875 9.17382812 10.0859375 C6.87457613 7.77145867 4.72478775 5.81652517 2 4 C2 3.34 2 2.68 2 2 C1.34 2 0.68 2 0 2 C0 1.34 0 0.68 0 0 Z " fill="#5A955D" transform="translate(451,396)"/>
<path d="M0 0 C1.67542976 0.28604898 3.34385343 0.61781233 5 1 C4.01 1.495 4.01 1.495 3 2 C3.33 2.763125 3.66 3.52625 4 4.3125 C5 7 5 7 5 10 C4.01 10 3.02 10 2 10 C1.01 7.03 0.02 4.06 -1 1 C-0.67 0.67 -0.34 0.34 0 0 Z " fill="#F0F3F2" transform="translate(835,386)"/>
<path d="M0 0 C0.33 0.66 0.66 1.32 1 2 C2.65 2 4.3 2 6 2 C6.103125 2.639375 6.20625 3.27875 6.3125 3.9375 C6.6528125 4.9584375 6.6528125 4.9584375 7 6 C7.99 6.33 8.98 6.66 10 7 C9.67 7.66 9.34 8.32 9 9 C5.37 7.35 1.74 5.7 -2 4 C-1.34 2.68 -0.68 1.36 0 0 Z " fill="#EFF0EF" transform="translate(656,208)"/>
<path d="M0 0 C1.32 0.66 2.64 1.32 4 2 C3.34 2 2.68 2 2 2 C2 2.66 2 3.32 2 4 C2.99 4.33 3.98 4.66 5 5 C4.34 5 3.68 5 3 5 C3 5.66 3 6.32 3 7 C-0.24271506 6.4409112 -1.93057424 5.5867822 -4 3 C-4 2.34 -4 1.68 -4 1 C-3.01 1.33 -2.02 1.66 -1 2 C-0.67 1.34 -0.34 0.68 0 0 Z " fill="#F0EFEF" transform="translate(867,600)"/>
<path d="M0 0 C0.33 0 0.66 0 1 0 C1.33776684 1.7491497 1.67003671 3.49936145 2 5.25 C2.185625 6.22453125 2.37125 7.1990625 2.5625 8.203125 C3 11 3 11 3 15 C2.34 15 1.68 15 1 15 C0.896875 14.21625 0.79375 13.4325 0.6875 12.625 C0.22404978 9.66954819 0.22404978 9.66954819 -3 8 C-3 7.01 -3 6.02 -3 5 C-2.34 5 -1.68 5 -1 5 C-0.67 3.35 -0.34 1.7 0 0 Z " fill="#E7E8E8" transform="translate(164,575)"/>
<path d="M0 0 C6.95041086 -0.26618595 13.23514355 0.3879491 20 2 C20 2.33 20 2.66 20 3 C14.72 3 9.44 3 4 3 C4 2.34 4 1.68 4 1 C2.68 0.67 1.36 0.34 0 0 Z " fill="#22B1F2" transform="translate(664,574)"/>
<path d="M0 0 C1.98 0 3.96 0 6 0 C6 2.64 6 5.28 6 8 C5.01 7.67 4.02 7.34 3 7 C2.3125 4.9375 2.3125 4.9375 2 3 C1.01 3 0.02 3 -1 3 C-0.67 2.01 -0.34 1.02 0 0 Z " fill="#F4F4F4" transform="translate(826,367)"/>
<path d="M0 0 C0.66 0 1.32 0 2 0 C2 0.66 2 1.32 2 2 C2.66 2 3.32 2 4 2 C3.01 5.3 2.02 8.6 1 12 C0.67 12 0.34 12 0 12 C0 8.04 0 4.08 0 0 Z " fill="#F4F4F4" transform="translate(59,982)"/>
<path d="M0 0 C5.445 1.485 5.445 1.485 11 3 C10.67 3.99 10.34 4.98 10 6 C9.46890625 5.79503906 8.9378125 5.59007812 8.390625 5.37890625 C7.68421875 5.10949219 6.9778125 4.84007812 6.25 4.5625 C5.55390625 4.29566406 4.8578125 4.02882813 4.140625 3.75390625 C2.10940997 3.03853307 0.0964709 2.48634348 -2 2 C-1.34 1.34 -0.68 0.68 0 0 Z " fill="#F1F2F2" transform="translate(229,773)"/>
<path d="M0 0 C1.875 0.1875 1.875 0.1875 4 1 C5.25 3.5625 5.25 3.5625 6 6 C3.36 6 0.72 6 -2 6 C-2.33 5.01 -2.66 4.02 -3 3 C-2.34 3 -1.68 3 -1 3 C-0.67 2.01 -0.34 1.02 0 0 Z " fill="#1FA6EC" transform="translate(684,768)"/>
<path d="M0 0 C7.75 -0.125 7.75 -0.125 10 1 C9.67 1.66 9.34 2.32 9 3 C4.545 2.01 4.545 2.01 0 1 C0 0.67 0 0.34 0 0 Z M4 3 C5.65 3 7.3 3 9 3 C8.01 3.495 8.01 3.495 7 4 C7 4.99 7 5.98 7 7 C5.35 6.67 3.7 6.34 2 6 C2.66 5.67 3.32 5.34 4 5 C4 4.34 4 3.68 4 3 Z " fill="#1D94D9" transform="translate(380,569)"/>
<path d="M0 0 C0.33 0.66 0.66 1.32 1 2 C0.22265625 4.1640625 0.22265625 4.1640625 -0.9375 6.625 C-1.31777344 7.44226563 -1.69804687 8.25953125 -2.08984375 9.1015625 C-2.54037109 10.04128906 -2.54037109 10.04128906 -3 11 C-3.66 11 -4.32 11 -5 11 C-5.66 12.65 -6.32 14.3 -7 16 C-7.33 15.34 -7.66 14.68 -8 14 C-6.75717988 11.54961707 -5.47117661 9.226675 -4.0625 6.875 C-3.48338867 5.88693359 -3.48338867 5.88693359 -2.89257812 4.87890625 C-1.93553422 3.248387 -0.96867185 1.62363816 0 0 Z " fill="#5A9C60" transform="translate(259,463)"/>
<path d="M0 0 C1.37432457 3.81756824 0.67975039 7.07255329 0 11 C-0.99 11.33 -1.98 11.66 -3 12 C-3.2954439 6.97745369 -2.98514628 4.10457614 0 0 Z " fill="#EFEFF0" transform="translate(165,470)"/>
<path d="M0 0 C0 1.98 0 3.96 0 6 C-3.77545388 4.90931332 -6.47043472 4.0916909 -9 1 C-5.846632 0.29925156 -3.27275026 0 0 0 Z " fill="#B2E5F3" transform="translate(439,352)"/>
<path d="M0 0 C2.3828125 0.0234375 2.3828125 0.0234375 5.125 0.375 C6.03507812 0.48585938 6.94515625 0.59671875 7.8828125 0.7109375 C8.93082031 0.85402344 8.93082031 0.85402344 10 1 C4.7826087 3.65217391 4.7826087 3.65217391 2 4 C-0.25 3.0625 -0.25 3.0625 -2 2 C-1.34 1.34 -0.68 0.68 0 0 Z " fill="#E8E8EA" transform="translate(306,793)"/>
<path d="M0 0 C3 1 3 1 5 4 C4.360625 4.103125 3.72125 4.20625 3.0625 4.3125 C2.381875 4.539375 1.70125 4.76625 1 5 C0.67 5.99 0.34 6.98 0 8 C-2 7 -2 7 -3 4 C-3.66 3.67 -4.32 3.34 -5 3 C-2.6875 1.4375 -2.6875 1.4375 0 0 Z " fill="#24A5EB" transform="translate(194,611)"/>
<path d="M0 0 C0.99 0.33 1.98 0.66 3 1 C3 3.97 3 6.94 3 10 C2.01 9.67 1.02 9.34 0 9 C0 8.34 0 7.68 0 7 C-0.99 7 -1.98 7 -3 7 C-2.67 6.34 -2.34 5.68 -2 5 C-1.34 5.33 -0.68 5.66 0 6 C-0.185625 5.38125 -0.37125 4.7625 -0.5625 4.125 C-1 2 -1 2 0 0 Z " fill="#9CCFDE" transform="translate(836,547)"/>
<path d="M0 0 C1.32 0 2.64 0 4 0 C3.125 4.75 3.125 4.75 2 7 C0.68 7 -0.64 7 -2 7 C-2 6.34 -2 5.68 -2 5 C-1.34 5 -0.68 5 0 5 C0 4.34 0 3.68 0 3 C-0.66 3 -1.32 3 -2 3 C-1 1 -1 1 0 0 Z " fill="#ADE3F2" transform="translate(211,498)"/>
<path d="M0 0 C0.33 0.66 0.66 1.32 1 2 C0.67 2.66 0.34 3.32 0 4 C0.66 4.33 1.32 4.66 2 5 C1.01 5.99 0.02 6.98 -1 8 C-1.33 7.34 -1.66 6.68 -2 6 C-2.66 7.32 -3.32 8.64 -4 10 C-4.66 10 -5.32 10 -6 10 C-4.6302836 6.00499382 -2.74277578 3.19990508 0 0 Z " fill="#B2E7F4" transform="translate(246,339)"/>
<path d="M0 0 C2.97 0 5.94 0 9 0 C9 0.33 9 0.66 9 1 C7.7934375 1.185625 7.7934375 1.185625 6.5625 1.375 C5.716875 1.58125 4.87125 1.7875 4 2 C3.67 2.66 3.34 3.32 3 4 C0.5625 4.75 0.5625 4.75 -2 5 C-2.66 4.34 -3.32 3.68 -4 3 C-3.01 2.67 -2.02 2.34 -1 2 C-0.67 1.34 -0.34 0.68 0 0 Z " fill="#20A6F1" transform="translate(377,570)"/>
<path d="M0 0 C1.98 0 3.96 0 6 0 C6 0.66 6 1.32 6 2 C6.99 2.33 7.98 2.66 9 3 C8.67 3.99 8.34 4.98 8 6 C7.34 6 6.68 6 6 6 C6 5.34 6 4.68 6 4 C4.68 4.33 3.36 4.66 2 5 C2 4.34 2 3.68 2 3 C1.34 2.67 0.68 2.34 0 2 C0 1.34 0 0.68 0 0 Z " fill="#AEE3F6" transform="translate(559,210)"/>
<path d="M0 0 C1.65 0 3.3 0 5 0 C3.64978174 4.41889613 1.73884332 6.34345343 -2 9 C-1.67 8.38125 -1.34 7.7625 -1 7.125 C0.14193235 5.08981656 0.14193235 5.08981656 0 3 C0 2.01 0 1.02 0 0 Z " fill="#22AAEE" transform="translate(863,696)"/>
<path d="M0 0 C0 0.33 0 0.66 0 1 C-4.40914783 2.10228696 -8.48382401 2.07654536 -13 2 C-12.67 2.99 -12.34 3.98 -12 5 C-13.32 5.33 -14.64 5.66 -16 6 C-15.67 4.35 -15.34 2.7 -15 1 C-9.9752761 0.37470103 -5.07471573 -0.13012092 0 0 Z " fill="#1E95D9" transform="translate(649,571)"/>
<path d="M0 0 C-0.56371414 3.26954202 -1.49962266 4.82575883 -4 7 C-4 6.01 -4 5.02 -4 4 C-5.98 4.66 -7.96 5.32 -10 6 C-7.35570758 3.077361 -4.105808 0 0 0 Z " fill="#59975E" transform="translate(343,377)"/>
<path d="M0 0 C4.75 0.75 4.75 0.75 7 3 C6.67 3.66 6.34 4.32 6 5 C4.35 5 2.7 5 1 5 C0.67 3.35 0.34 1.7 0 0 Z " fill="#EAEAED" transform="translate(186,754)"/>
<path d="M0 0 C2.97246802 2.54782974 4.41535288 5.45340883 6 9 C6 9.66 6 10.32 6 11 C3.36 10.67 0.72 10.34 -2 10 C-2 9.67 -2 9.34 -2 9 C-0.35 8.67 1.3 8.34 3 8 C2.505 7.05125 2.01 6.1025 1.5 5.125 C0 2 0 2 0 0 Z " fill="#338D46" transform="translate(675,540)"/>
<path d="M0 0 C0.99 0 1.98 0 3 0 C3.66 3.63 4.32 7.26 5 11 C4.67 10.34 4.34 9.68 4 9 C3.01 8.67 2.02 8.34 1 8 C-0.35439668 5.29120665 -0.06501451 2.99066732 0 0 Z " fill="#9DD2E5" transform="translate(185,500)"/>
<path d="M0 0 C0 6 0 6 -2.3125 8.6875 C-5 11 -5 11 -8 11 C-5.36 7.37 -2.72 3.74 0 0 Z " fill="#5D9B60" transform="translate(279,433)"/>
<path d="M0 0 C0.66 0 1.32 0 2 0 C2 1.65 2 3.3 2 5 C-2.625 7.125 -2.625 7.125 -6 6 C-5.38125 5.938125 -4.7625 5.87625 -4.125 5.8125 C-1.72238859 5.171081 -1.72238859 5.171081 -0.75 2.4375 C-0.5025 1.633125 -0.255 0.82875 0 0 Z " fill="#22A5EA" transform="translate(766,752)"/>
<path d="M0 0 C0 0.33 0 0.66 0 1 C-5.60563042 1.82622671 -10.42289352 2.06795656 -16 1 C-16 0.67 -16 0.34 -16 0 C-5.62642369 -2.66514806 -5.62642369 -2.66514806 0 0 Z " fill="#A0D6E4" transform="translate(734,556)"/>
<path d="M0 0 C0.598125 0.474375 1.19625 0.94875 1.8125 1.4375 C4.00382924 3.16465744 4.00382924 3.16465744 7 4 C6.2884375 4.8971875 6.2884375 4.8971875 5.5625 5.8125 C3.83534256 8.00382924 3.83534256 8.00382924 3 11 C2.49384702 9.73160474 1.99530901 8.46016898 1.5 7.1875 C1.2215625 6.47980469 0.943125 5.77210938 0.65625 5.04296875 C0 3 0 3 0 0 Z " fill="#318944" transform="translate(553,510)"/>
<path d="M0 0 C1.9375 0.6875 1.9375 0.6875 4 2 C4.75 4.625 4.75 4.625 5 7 C5.66 7 6.32 7 7 7 C7.33 6.34 7.66 5.68 8 5 C8 6.65 8 8.3 8 10 C3.79236776 8.4972742 2.1972242 5.76667005 0 2 C0 1.34 0 0.68 0 0 Z " fill="#B4E4EF" transform="translate(504,417)"/>
<path d="M0 0 C0.66 0.33 1.32 0.66 2 1 C1 4 1 4 -0.875 5.25 C-3 6 -3 6 -6 5 C-6 4.01 -6 3.02 -6 2 C-3.525 2.495 -3.525 2.495 -1 3 C-0.67 2.01 -0.34 1.02 0 0 Z " fill="#21A7EB" transform="translate(816,734)"/>
<path d="M0 0 C0.12375 0.78375 0.2475 1.5675 0.375 2.375 C0.79117993 5.14057822 0.79117993 5.14057822 3 7 C-0.20395416 7 -2.09399739 6.25664978 -5 5 C-4.34 4.67 -3.68 4.34 -3 4 C-3 3.01 -3 2.02 -3 1 C-1 0 -1 0 0 0 Z " fill="#F4F3F4" transform="translate(980,422)"/>
<path d="M0 0 C1.65 0 3.3 0 5 0 C5.5534764 2.07553648 6 3.84365964 6 6 C5.01 6.33 4.02 6.66 3 7 C3 6.01 3 5.02 3 4 C2.01 4 1.02 4 0 4 C0 2.68 0 1.36 0 0 Z " fill="#9CCEE1" transform="translate(707,391)"/>
<path d="M0 0 C3.7952131 1.49097658 5.61042731 3.75700849 8 7 C7.01 8.485 7.01 8.485 6 10 C5.34 10 4.68 10 4 10 C4.0825 9.278125 4.165 8.55625 4.25 7.8125 C3.92573441 4.16451206 2.42680413 2.65431702 0 0 Z " fill="#B4E9F7" transform="translate(564,318)"/>
<path d="M0 0 C-1 3 -1 3 -4 5 C-4.66 4.67 -5.32 4.34 -6 4 C-6 3.34 -6 2.68 -6 2 C-6.66 1.67 -7.32 1.34 -8 1 C-4.93251126 -0.86240388 -3.40254489 -1.2151946 0 0 Z " fill="#E7E9E9" transform="translate(824,762)"/>
<path d="M0 0 C0.33 0.99 0.66 1.98 1 3 C1.66 3.33 2.32 3.66 3 4 C2.34 4 1.68 4 1 4 C1.33 4.99 1.66 5.98 2 7 C-0.46800047 5.84826645 -2.04783565 4.95216435 -4 3 C-2.68 2.01 -1.36 1.02 0 0 Z " fill="#20A5EC" transform="translate(177,620)"/>
<path d="M0 0 C0.66 0.33 1.32 0.66 2 1 C0.16172132 4.15133488 -1.75972706 7.11964908 -4 10 C-4.33 8.02 -4.66 6.04 -5 4 C-3.35 2.68 -1.7 1.36 0 0 Z " fill="#58975F" transform="translate(315,394)"/>
<path d="M0 0 C4.75 0.75 4.75 0.75 7 3 C5.68 3.99 4.36 4.98 3 6 C0 2.25 0 2.25 0 0 Z " fill="#ADE3F4" transform="translate(274,392)"/>
<path d="M0 0 C0.66 0.33 1.32 0.66 2 1 C1.67 2.32 1.34 3.64 1 5 C0.34 5 -0.32 5 -1 5 C-1.33 5.99 -1.66 6.98 -2 8 C-2.99 7.67 -3.98 7.34 -5 7 C-3.35 4.69 -1.7 2.38 0 0 Z " fill="#B2E5F4" transform="translate(238,350)"/>
<path d="M0 0 C0.66 0 1.32 0 2 0 C2.33 0.99 2.66 1.98 3 3 C3.99 3.66 4.98 4.32 6 5 C1.6822542 4.49202991 -2.03302114 3.80317221 -6 2 C-2.25 0.875 -2.25 0.875 0 2 C0 1.34 0 0.68 0 0 Z " fill="#B3E7F1" transform="translate(419,346)"/>
<path d="M0 0 C0.12375 0.61875 0.2475 1.2375 0.375 1.875 C0.87197356 4.19120832 0.87197356 4.19120832 3 6 C0.36 6 -2.28 6 -5 6 C-3.35 4.02 -1.7 2.04 0 0 Z " fill="#F2F3F4" transform="translate(871,730)"/>
<path d="M0 0 C1.98 0.66 3.96 1.32 6 2 C5.67 2.99 5.34 3.98 5 5 C5.87483915 7.16715557 5.87483915 7.16715557 7 9 C3.26115668 6.34345343 1.35021826 4.41889613 0 0 Z " fill="#21ABEF" transform="translate(159,699)"/>
<path d="M0 0 C0.99 0 1.98 0 3 0 C3 0.66 3 1.32 3 2 C3.66 2.33 4.32 2.66 5 3 C6.0194119 3.98020375 7.02246356 4.97803008 8 6 C5.03 5.505 5.03 5.505 2 5 C2 4.34 2 3.68 2 3 C1.01 2.67 0.02 2.34 -1 2 C-0.67 1.34 -0.34 0.68 0 0 Z " fill="#AFE3F3" transform="translate(799,571)"/>
<path d="M0 0 C1.30048841 2.60097682 1.56471422 5.13955062 2 8 C1.01 8.495 1.01 8.495 0 9 C-0.66 8.34 -1.32 7.68 -2 7 C-2.99 7.495 -2.99 7.495 -4 8 C-2.87548273 5.0280615 -1.77706209 2.66559313 0 0 Z " fill="#5A9A5E" transform="translate(264,455)"/>
<path d="M0 0 C0.99 0 1.98 0 3 0 C3 0.66 3 1.32 3 2 C3.66 2.33 4.32 2.66 5 3 C4.01 3 3.02 3 2 3 C2 4.65 2 6.3 2 8 C1.01 7.67 0.02 7.34 -1 7 C-0.67 4.69 -0.34 2.38 0 0 Z " fill="#A1D3E1" transform="translate(195,448)"/>
<path d="M0 0 C3.82097239 0.53069061 6.06171403 1.49701566 9 4 C7.02 4.66 5.04 5.32 3 6 C3 4.68 3 3.36 3 2 C2.01 1.67 1.02 1.34 0 1 C0 0.67 0 0.34 0 0 Z " fill="#5C9C5F" transform="translate(414,373)"/>
<path d="M0 0 C0.99 0.66 1.98 1.32 3 2 C2.01 3.485 2.01 3.485 1 5 C-1.31 4.67 -3.62 4.34 -6 4 C-4.03617993 2.49440461 -2.21736634 1.10868317 0 0 Z " fill="#56975C" transform="translate(350,373)"/>
<path d="M0 0 C2.3431213 0.25561323 4.67843403 0.59270772 7 1 C7.33 1.66 7.66 2.32 8 3 C7.34 3 6.68 3 6 3 C5.67 3.66 5.34 4.32 5 5 C4.01 5 3.02 5 2 5 C2 3.68 2 2.36 2 1 C1.34 0.67 0.68 0.34 0 0 Z " fill="#B2E5F3" transform="translate(627,227)"/>
<path d="M0 0 C0.66 0.33 1.32 0.66 2 1 C-0.475 2.485 -0.475 2.485 -3 4 C-3.66 3.34 -4.32 2.68 -5 2 C-2.625 0.9375 -2.625 0.9375 0 0 Z M-5 4 C-4.01 4.33 -3.02 4.66 -2 5 C-2.99 5.99 -3.98 6.98 -5 8 C-5.66 7.34 -6.32 6.68 -7 6 C-6.34 6 -5.68 6 -5 6 C-5 5.34 -5 4.68 -5 4 Z " fill="#EBEBEC" transform="translate(807,767)"/>
<path d="M0 0 C0.66 1.32 1.32 2.64 2 4 C0.6875 7.125 0.6875 7.125 -1 10 C-1.33 10.66 -1.66 11.32 -2 12 C-2.66 11.34 -3.32 10.68 -4 10 C-2.68 6.7 -1.36 3.4 0 0 Z " fill="#EDEDEC" transform="translate(898,688)"/>
<path d="M0 0 C0.66 0.33 1.32 0.66 2 1 C0.7934375 1.6496875 0.7934375 1.6496875 -0.4375 2.3125 C-3.27846354 3.80474002 -3.27846354 3.80474002 -4 7 C-4.99 7 -5.98 7 -7 7 C-6.875 5.1875 -6.875 5.1875 -6 3 C-3.0625 1.1875 -3.0625 1.1875 0 0 Z " fill="#22ACEF" transform="translate(186,615)"/>
<path d="M0 0 C2.97 0.495 2.97 0.495 6 1 C6 1.66 6 2.32 6 3 C3.69 3.66 1.38 4.32 -1 5 C-0.67 3.35 -0.34 1.7 0 0 Z " fill="#22A5ED" transform="translate(785,596)"/>
<path d="M0 0 C1.98 0.495 1.98 0.495 4 1 C4 1.66 4 2.32 4 3 C4.66 3.66 5.32 4.32 6 5 C3.69 5 1.38 5 -1 5 C-1 4.34 -1 3.68 -1 3 C-0.34 3 0.32 3 1 3 C0.67 2.01 0.34 1.02 0 0 Z " fill="#B1E5F2" transform="translate(709,550)"/>
<path d="M0 0 C3 3.625 3 3.625 3 7 C1.35 7.33 -0.3 7.66 -2 8 C-1.34 5.36 -0.68 2.72 0 0 Z " fill="#A6D6E3" transform="translate(204,418)"/>
<path d="M0 0 C0.99 0.33 1.98 0.66 3 1 C3.33 3.31 3.66 5.62 4 8 C3.01 8.495 3.01 8.495 2 9 C1.34 6.03 0.68 3.06 0 0 Z " fill="#EBECEC" transform="translate(846,418)"/>
<path d="M0 0 C1.32 0.66 2.64 1.32 4 2 C3.34 3.65 2.68 5.3 2 7 C1.01 7 0.02 7 -1 7 C-0.67 4.69 -0.34 2.38 0 0 Z " fill="#EFEFF0" transform="translate(184,393)"/>
<path d="M0 0 C-0.99 1.485 -0.99 1.485 -2 3 C-4.625 3.1875 -4.625 3.1875 -7 3 C-6.67 2.01 -6.34 1.02 -6 0 C-3.50907189 -1.24546405 -2.58919267 -0.7767578 0 0 Z " fill="#B1E3F0" transform="translate(619,314)"/>
<path d="M0 0 C2.31 0.33 4.62 0.66 7 1 C5.74458443 3.51083114 4.49936512 3.87125446 2 5 C2 4.34 2 3.68 2 3 C1.01 2.67 0.02 2.34 -1 2 C-0.67 1.34 -0.34 0.68 0 0 Z " fill="#1F95DB" transform="translate(246,593)"/>
<path d="M0 0 C3.0916909 2.52956528 3.90931332 5.22454612 5 9 C4.34 8.67 3.68 8.34 3 8 C3 7.34 3 6.68 3 6 C2.01 5.67 1.02 5.34 0 5 C-0.33 4.01 -0.66 3.02 -1 2 C-0.67 1.34 -0.34 0.68 0 0 Z " fill="#328C46" transform="translate(670,530)"/>
<path d="M0 0 C0 2.83967231 -0.40267181 5.23735711 -1 8 C-2.32 7.67 -3.64 7.34 -5 7 C-3.35 4.69 -1.7 2.38 0 0 Z " fill="#5A9A5E" transform="translate(270,446)"/>
<path d="M0 0 C2 2 2 2 2.125 4.625 C2.08375 5.40875 2.0425 6.1925 2 7 C0.68 7.33 -0.64 7.66 -2 8 C-2.33 7.34 -2.66 6.68 -3 6 C-2.67 5.34 -2.34 4.68 -2 4 C-1.34 4 -0.68 4 0 4 C0 2.68 0 1.36 0 0 Z " fill="#B1E5F2" transform="translate(827,442)"/>
<path d="M0 0 C0 4.38968456 -2.12805101 5.76905739 -5 9 C-5 6.29745539 -4.96569331 4.49470772 -4 2 C-1.9375 0.75 -1.9375 0.75 0 0 Z " fill="#B6EBF4" transform="translate(268,407)"/>
<path d="M0 0 C-0.66 1.32 -1.32 2.64 -2 4 C-4.99332739 3.0022242 -5.94766315 2.2477975 -8 0 C-4.71023192 -1.09658936 -3.28696233 -0.79953138 0 0 Z " fill="#A0D3E6" transform="translate(596,409)"/>
<path d="M0 0 C0.99 0.99 1.98 1.98 3 3 C2.67 3.66 2.34 4.32 2 5 C1.67 4.67 1.34 4.34 1 4 C0.67 4.66 0.34 5.32 0 6 C-0.99 5.67 -1.98 5.34 -3 5 C-1.125 1.125 -1.125 1.125 0 0 Z " fill="#AFE3F5" transform="translate(797,369)"/>
<path d="M0 0 C0 2.62113708 -0.31292445 4.50935112 -1 7 C-2.65 7.33 -4.3 7.66 -6 8 C-2.25 2.25 -2.25 2.25 0 0 Z " fill="#B6E9F4" transform="translate(260,321)"/>
<path d="M0 0 C0 0.66 0 1.32 0 2 C-2.78823655 3.0326802 -3.8677274 3.04509293 -6.75 2.0625 C-7.4925 1.711875 -8.235 1.36125 -9 1 C-9 0.67 -9 0.34 -9 0 C-5.62182575 -0.84454356 -3.32534757 -1.10844919 0 0 Z " fill="#DFE0E0" transform="translate(724,793)"/>
<path d="M0 0 C5.75 -0.125 5.75 -0.125 8 1 C8 1.66 8 2.32 8 3 C2.25 3.125 2.25 3.125 0 2 C0 1.34 0 0.68 0 0 Z " fill="#ECEBEC" transform="translate(197,761)"/>
<path d="M0 0 C3.37503669 1.1858237 5.64722731 2.27573689 8 5 C6.35 5.33 4.7 5.66 3 6 C2.01 4.02 1.02 2.04 0 0 Z " fill="#21ADF1" transform="translate(840,618)"/>
<path d="M0 0 C2.97 0.33 5.94 0.66 9 1 C9 1.33 9 1.66 9 2 C4.545 2.495 4.545 2.495 0 3 C0 2.01 0 1.02 0 0 Z " fill="#24ABEF" transform="translate(734,584)"/>
<path d="M0 0 C5.75 0.75 5.75 0.75 8 3 C4.98968256 3.93423645 4.13349732 4.04449911 1 3 C0.67 2.01 0.34 1.02 0 0 Z " fill="#AFE3ED" transform="translate(637,231)"/>
<path d="M0 0 C0.99 0.33 1.98 0.66 3 1 C1.02 2.32 -0.96 3.64 -3 5 C-3 4.01 -3 3.02 -3 2 C-2.01 1.34 -1.02 0.68 0 0 Z M-4 5 C-4 8 -4 8 -4 8 Z " fill="#F4F3F5" transform="translate(808,768)"/>
<path d="M0 0 C3.68754757 0.49831724 5.60490662 1.10067643 8 4 C7.67 4.66 7.34 5.32 7 6 C3.535 4.02 3.535 4.02 0 2 C0 1.34 0 0.68 0 0 Z " fill="#23A8EB" transform="translate(196,730)"/>
<path d="M0 0 C-0.78375 0.28875 -1.5675 0.5775 -2.375 0.875 C-5.09671632 1.84912254 -5.09671632 1.84912254 -7 4 C-7.66 3.01 -8.32 2.02 -9 1 C-5.57367167 -0.61798838 -3.61944899 -1.34053666 0 0 Z " fill="#23A7E6" transform="translate(237,598)"/>
<path d="M0 0 C0.99 0 1.98 0 3 0 C3 0.66 3 1.32 3 2 C4.98 2.66 6.96 3.32 9 4 C6 5 6 5 2.8125 3.5625 C1.884375 3.046875 0.95625 2.53125 0 2 C0 1.34 0 0.68 0 0 Z " fill="#B5E5EF" transform="translate(822,581)"/>
<path d="M0 0 C1.65 0 3.3 0 5 0 C5.33 0.99 5.66 1.98 6 3 C5.34 3.66 4.68 4.32 4 5 C4 4.34 4 3.68 4 3 C2.68 3.33 1.36 3.66 0 4 C0 2.68 0 1.36 0 0 Z " fill="#1C90D4" transform="translate(364,571)"/>
<path d="M0 0 C2.29013653 3.4352048 2.17842973 4.985331 2 9 C1.67 8.01 1.34 7.02 1 6 C0.34 6 -0.32 6 -1 6 C-0.67 4.02 -0.34 2.04 0 0 Z " fill="#B9E9F5" transform="translate(832,462)"/>
<path d="M0 0 C0.66 0.33 1.32 0.66 2 1 C2 3.97 2 6.94 2 10 C0.04224922 7.06337384 -0.56073149 5.4262944 -1 2 C-0.67 1.34 -0.34 0.68 0 0 Z " fill="#EBECEC" transform="translate(842,402)"/>
<path d="M0 0 C4.41889613 1.35021826 6.34345343 3.26115668 9 7 C6 7 6 7 3.375 4.625 C1 2 1 2 0 0 Z " fill="#B1D9E2" transform="translate(648,398)"/>
<path d="M0 0 C1.32 0 2.64 0 4 0 C4 1.65 4 3.3 4 5 C3.01 5 2.02 5 1 5 C1 4.34 1 3.68 1 3 C0.34 2.34 -0.32 1.68 -1 1 C-0.67 0.67 -0.34 0.34 0 0 Z " fill="#B1E3F3" transform="translate(398,224)"/>
</svg>
