<?xml version="1.0" encoding="UTF-8"?>
<svg version="1.1" xmlns="http://www.w3.org/2000/svg" width="1024" height="1024">
<path d="M0 0 C7.0768621 3.53843105 9.20463457 9.04098017 11.69921875 16.19921875 C11.9391304 16.87547806 12.17904205 17.55173737 12.42622375 18.24848938 C12.92875973 19.66872917 13.42865278 21.08990664 13.92602539 22.51196289 C14.68953169 24.69330456 15.46226631 26.87121264 16.23632812 29.04882812 C16.72450329 30.43209947 17.21215223 31.81555665 17.69921875 33.19921875 C18.04601936 34.17733772 18.04601936 34.17733772 18.39982605 35.17521667 C20 39.7683929 20 39.7683929 20 42 C20.67869141 41.83540283 21.35738281 41.67080566 22.05664062 41.5012207 C27.44061581 40.58439082 32.90554585 40.97943554 38.34716797 41.13208008 C40.49320697 41.18732513 42.63861515 41.21587726 44.78515625 41.24414062 C46.15889781 41.27959764 47.53259922 41.31665367 48.90625 41.35546875 C50.14697266 41.38278076 51.38769531 41.41009277 52.66601562 41.43823242 C56.54507264 42.0918433 58.2133999 43.27934551 61 46 C63.10755368 49.34729114 63.84343443 52.37273363 63.765625 56.30859375 C61.32338615 64.89381092 51.5841961 72.68882413 45.265625 78.609375 C44.51796875 79.39828125 43.7703125 80.1871875 43 81 C42.36312256 81.56412598 41.72624512 82.12825195 41.07006836 82.70947266 C38.74682967 85.07496223 37.31257135 86.94135714 36 90 C36.14815879 95.52214402 37.57065084 100.58157674 39.0625 105.875 C39.80174585 108.65928939 40.51752681 111.44907671 41.22265625 114.2421875 C41.39369873 114.91179504 41.56474121 115.58140259 41.7409668 116.27130127 C43.43555892 123.20770907 44.43557954 129.90798253 41.375 136.5 C38.78163791 139.22985483 36.4165228 140.48154542 33 142 C32.67 142.66 32.34 143.32 32 144 C32.66 144.33 33.32 144.66 34 145 C34 145.99 34 146.98 34 148 C44.395 148.495 44.395 148.495 55 149 C55 149.66 55 150.32 55 151 C55.80011002 151.6997142 56.60022003 152.39942841 57.42457581 153.12034607 C60.60179389 156.6728826 60.9173067 159.50891171 61.20678711 164.07446289 C61.27516501 164.8627073 61.34354292 165.65095171 61.41399288 166.46308231 C61.55650539 168.13299043 61.68910111 169.80377089 61.81238937 171.47520828 C61.99377743 173.91625909 62.20343912 176.35295653 62.42410278 178.79074097 C62.7949163 182.91988718 63.14056561 187.05065026 63.47726631 191.18270683 C63.69773424 193.88619059 63.92168532 196.58936757 64.14646912 199.29249573 C64.7835794 206.96161947 65.41431543 214.63126431 66.04370117 222.30102539 C66.4319436 227.02932878 66.82376539 231.75732489 67.21772575 236.48515511 C67.43825628 239.14559307 67.65452996 241.80635603 67.8707428 244.46714783 C68.00547169 246.0867607 68.14042327 247.70635508 68.27563477 249.32592773 C68.33435257 250.0629744 68.39307037 250.80002106 68.4535675 251.55940247 C68.70782003 254.55675323 69.04417155 257.13251466 70 260 C70.04066994 261.42626437 70.0303877 262.85428056 69.98876953 264.28051758 C69.92537388 271.0622481 70.56949032 277.76370362 71.1796875 284.51171875 C71.30972001 285.98806502 71.43930266 287.46445097 71.56848145 288.94087219 C71.85038854 292.15504327 72.1347732 295.36898168 72.42108154 298.58276367 C73.13240924 306.57130295 73.83020679 314.56102909 74.52806473 322.55075455 C74.69824665 324.49899663 74.86857522 326.44722591 75.03904343 328.39544296 C76.61663375 346.43357498 78.14385155 364.47583673 79.65625 382.51953125 C79.71258055 383.19139709 79.7689111 383.86326293 79.82694864 384.55548835 C80.95933514 398.06202613 82.08873962 411.56881267 83.21615195 425.0757665 C83.69613432 430.82538298 84.17729432 436.57490053 84.6587677 442.32439232 C84.95375568 445.85162543 85.24734941 449.37897277 85.54089355 452.90632629 C85.7203847 455.05083833 85.89994608 457.19534449 86.07958984 459.33984375 C86.15851912 460.29313914 86.23744839 461.24643454 86.31876945 462.22861767 C86.78993713 467.83138785 87.35533925 473.41445192 88 479 C88.7206665 478.98428955 89.44133301 478.9685791 90.18383789 478.95239258 C93.47664415 478.88969513 96.76932438 478.85089905 100.0625 478.8125 C101.7630957 478.77479492 101.7630957 478.77479492 103.49804688 478.73632812 C109.76213251 478.6815402 114.58928691 478.68746516 120 482 C123.77147316 485.86689859 124.57617961 488.63976009 124.9765625 493.9765625 C125.03215836 494.65132629 125.08775421 495.32609009 125.14503479 496.02130127 C125.32212183 498.22158307 125.47388232 500.42279541 125.625 502.625 C125.7423941 504.15392469 125.8613058 505.68273357 125.98168945 507.21142578 C126.22290917 510.31282217 126.45364874 513.41472233 126.67529297 516.51757812 C126.96935576 520.62324429 127.29478871 524.72552161 127.62890625 528.828125 C127.81601926 531.17701062 128.00227024 533.52596512 128.1875 535.875 C128.2714502 536.92896973 128.35540039 537.98293945 128.44189453 539.06884766 C128.96017316 546.05721374 129.09102304 552.99355947 129 560 C129.66 560.33 130.32 560.66 131 561 C131 565.62 131 570.24 131 575 C133.145 574.95359375 135.29 574.9071875 137.5 574.859375 C139.60170125 574.82808648 141.70337552 574.80385208 143.80517578 574.78027344 C145.25418917 574.76028705 146.70312325 574.73308803 148.15185547 574.69824219 C163.29970646 574.34329599 163.29970646 574.34329599 170 579 C172.47979896 582.71969845 172.58506569 585.91700651 172.9375 590.25 C173.01613281 591.12374268 173.09476563 591.99748535 173.17578125 592.89770508 C173.68390861 598.71181764 174.11534883 604.53102375 174.53285217 610.35220337 C174.72356335 613.00872923 174.91737841 615.66501573 175.11157227 618.32128906 C175.37213515 621.88635706 175.61918037 625.45204592 175.85913086 629.01855469 C175.97858822 630.6829726 176.09844394 632.34736197 176.21875 634.01171875 C176.29217369 635.17603676 176.29217369 635.17603676 176.36708069 636.36387634 C176.56641019 640.63957509 176.56641019 640.63957509 179 644 C181.59154119 644.15134669 181.59154119 644.15134669 184.609375 643.90625 C186.32120972 643.8127124 186.32120972 643.8127124 188.06762695 643.71728516 C189.28281006 643.64558105 190.49799316 643.57387695 191.75 643.5 C216.78557157 642.32668867 216.78557157 642.32668867 223.75 647.0625 C228.23786697 652.92165966 228.29882874 660.38130026 228.2746582 667.5456543 C228.2823246 668.74748856 228.2823246 668.74748856 228.29014587 669.97360229 C228.30391195 672.5905529 228.30309593 675.20723652 228.30078125 677.82421875 C228.30467345 679.65786332 228.30900919 681.491507 228.31376648 683.32514954 C228.32119931 687.15372656 228.32095742 690.98221129 228.31567383 694.81079102 C228.30986281 699.70999099 228.3268637 704.60881492 228.3500185 709.50795269 C228.36476159 713.28868303 228.36562711 717.06932269 228.36250877 720.85007668 C228.36302103 722.65654054 228.36824073 724.46300961 228.37832069 726.26944542 C228.39068817 728.79405534 228.38389342 731.31793072 228.37231445 733.8425293 C228.37995819 734.58292953 228.38760193 735.32332977 228.39547729 736.08616638 C228.3477032 740.81034848 227.58734811 744.03754607 225 748 C221.41638811 751.386355 219.0999609 752.52090766 214.18838024 752.74290466 C213.03803307 752.79816755 211.8876859 752.85343044 210.70247972 752.91036797 C204.12846413 753.06951601 197.5612556 753.13029169 190.98591614 753.11352539 C189.40457288 753.11324479 187.8232295 753.1134095 186.24188632 753.11397648 C181.93110803 753.11426986 177.62035777 753.10836868 173.30958593 753.10140657 C168.64783919 753.0949985 163.98609128 753.09446083 159.32434082 753.0932312 C151.25855375 753.09035251 143.19277591 753.0839268 135.12699318 753.07516479 C123.46321558 753.06258695 111.79944137 753.05652881 100.13565811 753.05223143 C81.20656559 753.04517416 62.27747737 753.03437802 43.34838867 753.02050781 C42.21684058 753.01968 41.0852925 753.01885219 39.91945507 753.01799929 C31.88380331 753.01209643 23.84815165 753.00606071 15.8125 753 C6.6141765 752.99306675 -2.58414704 752.98620167 -11.7824707 752.97949219 C-12.91596981 752.97866406 -14.04946891 752.97783593 -15.21731647 752.97698271 C-34.09120356 752.96331521 -52.96509073 752.95354744 -71.83898145 752.94658184 C-83.48103562 752.94209415 -95.12307716 752.9340408 -106.76512543 752.92143703 C-114.72920297 752.91303561 -122.69327759 752.90812619 -130.65735926 752.90601182 C-135.25708487 752.90466207 -139.85679413 752.90162306 -144.45651436 752.89425278 C-148.66088421 752.88754099 -152.86523032 752.88535986 -157.06960503 752.88688838 C-158.59616117 752.88661531 -160.12271811 752.88462052 -161.64926948 752.8807956 C-163.71287633 752.87586197 -165.77639046 752.87699828 -167.8399992 752.87974548 C-168.98958038 752.87882369 -170.13916156 752.8779019 -171.32357854 752.87695217 C-173.97288597 752.81741631 -173.97288597 752.81741631 -176 754 C-176 753.34 -176 752.68 -176 752 C-176.52585693 752.16226074 -177.05171387 752.32452148 -177.59350586 752.49169922 C-180.60791913 753.12840495 -183.42187368 753.12980752 -186.50390625 753.1328125 C-187.79377441 753.13506836 -189.08364258 753.13732422 -190.41259766 753.13964844 C-191.7959012 753.13562303 -193.17920244 753.13072427 -194.5625 753.125 C-195.25752625 753.12278442 -195.95255249 753.12056885 -196.66864014 753.11828613 C-201.44610146 753.10035531 -206.22284422 753.0568637 -211 753 C-212.06750488 752.98743164 -213.13500977 752.97486328 -214.23486328 752.96191406 C-216.86660974 752.91792444 -219.49460973 752.84355112 -222.125 752.75 C-222.8682251 752.73598145 -223.6114502 752.72196289 -224.37719727 752.70751953 C-229.14198618 752.48140158 -231.64103136 751.37127256 -235 748 C-238.61235546 742.58146681 -238.12414523 735.86361941 -238.09765625 729.51416016 C-238.09619598 728.81394745 -238.09473572 728.11373474 -238.0932312 727.39230347 C-238.08945676 725.88858953 -238.08337432 724.38487989 -238.07516479 722.88118362 C-238.06230194 720.50243487 -238.05586144 718.1237424 -238.05102539 715.7449646 C-238.03965748 710.70495086 -238.0203815 705.66498427 -238 700.625 C-237.9763972 694.7617871 -237.95603763 688.89859994 -237.94406128 683.0353508 C-237.93757133 680.68984213 -237.92507035 678.34441388 -237.91235352 675.99893188 C-237.90872302 674.56911286 -237.90537104 673.13929309 -237.90234375 671.70947266 C-237.89710693 670.45897125 -237.89187012 669.20846985 -237.88647461 667.92007446 C-237.79666395 665.06323118 -237.79666395 665.06323118 -239 663 C-238.34 663 -237.68 663 -237 663 C-237.20625 662.154375 -237.4125 661.30875 -237.625 660.4375 C-238.07800334 656.28496941 -237.61212448 653.85508027 -236 650 C-232.42062782 645.77817641 -229.98927904 644.7326937 -224.5 644.1875 C-220.66877653 643.99933623 -216.83530151 643.8963432 -213 644 C-212.67 643.34 -212.34 642.68 -212 642 C-211.34 642.66 -210.68 643.32 -210 644 C-207.30997087 643.9560931 -204.73346804 643.81385759 -202.0625 643.5625 C-194.37264644 642.87578452 -194.37264644 642.87578452 -191 644 C-190.67 643.34 -190.34 642.68 -190 642 C-190 642.66 -190 643.32 -190 644 C-189.01 643.67 -188.02 643.34 -187 643 C-182.91334056 615.84116891 -182.91334056 615.84116891 -185 589 C-184.34 588.67 -183.68 588.34 -183 588 C-182.7525 586.9275 -182.505 585.855 -182.25 584.75 C-180.63796093 579.9138828 -179.19422967 578.79615311 -175 576 C-170.79327058 574.80230199 -166.725294 574.93135631 -162.375 575 C-157.09018312 575.13449213 -157.09018312 575.13449213 -152 574 C-150.10529184 573.9314505 -148.2083166 573.91519628 -146.3125 573.9375 C-145.31863281 573.94652344 -144.32476562 573.95554687 -143.30078125 573.96484375 C-142.16189453 573.98224609 -142.16189453 573.98224609 -141 574 C-140.34072895 565.67156236 -139.68833281 557.34262456 -139.04424286 549.01300049 C-138.74482522 545.14349424 -138.44321343 541.27418744 -138.13623047 537.40527344 C-137.83898189 533.65794329 -137.5479624 529.91017281 -137.26091003 526.16204834 C-137.15143261 524.74606703 -137.03986793 523.33024518 -136.92597961 521.91461182 C-136.12414243 511.92353362 -135.86887829 502.01686606 -136 492 C-135.67 492 -135.34 492 -135 492 C-134.773125 490.948125 -134.54625 489.89625 -134.3125 488.8125 C-133.04705582 484.65340679 -131.72496448 482.48330965 -128 480 C-124.63575033 479.46813619 -121.36442909 479.24966134 -117.9609375 479.140625 C-114.94224016 479.13122797 -114.94224016 479.13122797 -112 478 C-103.7826087 477.73913043 -103.7826087 477.73913043 -100 479 C-99.67 478.34 -99.34 477.68 -99 477 C-98.34 477 -97.68 477 -97 477 C-94.26464459 448.2911686 -94.26464459 448.2911686 -91.75 419.5625 C-91.67023926 418.63896729 -91.59047852 417.71543457 -91.50830078 416.76391602 C-90.97914194 410.16898372 -90.9226166 403.61413112 -91 397 C-90.34 397 -89.68 397 -89 397 C-89 389.08 -89 381.16 -89 373 C-88.67 373 -88.34 373 -88 373 C-88.01160156 372.28972656 -88.02320313 371.57945312 -88.03515625 370.84765625 C-88.04417969 369.92855469 -88.05320312 369.00945312 -88.0625 368.0625 C-88.07990234 366.68771484 -88.07990234 366.68771484 -88.09765625 365.28515625 C-88 363 -88 363 -87 362 C-86.75702457 360.14361823 -86.5781823 358.27881927 -86.42417908 356.41294861 C-86.32183456 355.19993576 -86.21949005 353.98692291 -86.11404419 352.7371521 C-86.00424972 351.38068305 -85.89454196 350.02420698 -85.78491211 348.66772461 C-85.66693039 347.24884338 -85.54854846 345.82999538 -85.42979431 344.41117859 C-85.10760329 340.54805396 -84.79104446 336.68448568 -84.47545695 332.82081676 C-84.14504511 328.78730404 -83.80950795 324.75421791 -83.47450256 320.72108459 C-82.84048686 313.07865018 -82.21111495 305.43584066 -81.58338982 297.79288727 C-80.86869882 289.09382137 -80.1488635 280.39518361 -79.42858493 271.69657886 C-77.9466449 253.79819125 -76.47120116 235.89927335 -75 218 C-75.66 218 -76.32 218 -77 218 C-76 216 -76 216 -75 215 C-74.76807135 213.48530552 -74.58784762 211.96245438 -74.4375 210.4375 C-74.35371094 209.61121094 -74.26992188 208.78492188 -74.18359375 207.93359375 C-74.12300781 207.29550781 -74.06242188 206.65742188 -74 206 C-74.66 205.67 -75.32 205.34 -76 205 C-75.01 205 -74.02 205 -73 205 C-73.01450195 204.34112793 -73.02900391 203.68225586 -73.04394531 203.00341797 C-73.14527515 194.44683676 -72.63736702 185.99203381 -71.93798828 177.47070312 C-71.74871747 175.10899672 -71.58344149 172.74629036 -71.41796875 170.3828125 C-71.29574524 168.86185996 -71.17209837 167.34102099 -71.046875 165.8203125 C-71.0018988 165.12334259 -70.95692261 164.42637268 -70.9105835 163.70828247 C-70.46908511 158.82092363 -69.02633709 155.82742632 -66 152 C-62.96055912 149.55156152 -60.5442427 148.844026 -56.75 148.4375 C-55.5125 148.293125 -54.275 148.14875 -53 148 C-52.67 147.34 -52.34 146.68 -52 146 C-48.7 146.33 -45.4 146.66 -42 147 C-41.67 145.35 -41.34 143.7 -41 142 C-42.3303125 141.6596875 -42.3303125 141.6596875 -43.6875 141.3125 C-47.95434135 139.62186475 -50.92493804 137.15012391 -53 133 C-53.72836772 125.2798841 -52.23086922 118.00076742 -50.5625 110.5 C-50.33240234 109.4171875 -50.10230469 108.334375 -49.86523438 107.21875 C-48.16363324 99.32726648 -48.16363324 99.32726648 -47 97 C-47.66 97 -48.32 97 -49 97 C-48.67 96.01 -48.34 95.02 -48 94 C-47.67 94.33 -47.34 94.66 -47 95 C-46.60172592 90.80981614 -46.60172592 90.80981614 -48.375 87.1875 C-50.00086797 85.93012827 -50.00086797 85.93012827 -52 85 C-52.67583834 83.67129207 -53.34141732 82.33734478 -54 81 C-55.31303902 79.3592883 -55.31303902 79.3592883 -56.828125 77.828125 C-57.65328613 76.96102905 -57.65328613 76.96102905 -58.49511719 76.07641602 C-59.07422852 75.47369873 -59.65333984 74.87098145 -60.25 74.25 C-72.19507539 61.54892794 -72.19507539 61.54892794 -74.125 55.4375 C-73.93678621 50.26162087 -72.00513379 47.092775 -68.38574219 43.31518555 C-64.86469592 41.37414213 -61.42868669 41.63020805 -57.515625 41.70703125 C-56.70003113 41.71127609 -55.88443726 41.71552094 -55.04412842 41.71989441 C-52.44574616 41.73665285 -49.84814681 41.77429903 -47.25 41.8125 C-45.48568831 41.82755054 -43.72136442 41.8412383 -41.95703125 41.85351562 C-37.63772035 41.88654699 -33.3189928 41.93830914 -29 42 C-28.76796875 40.79859375 -28.5359375 39.5971875 -28.296875 38.359375 C-26.83314448 31.8008351 -24.54547289 25.5557187 -22.25 19.25 C-21.83234375 18.04472656 -21.4146875 16.83945313 -20.984375 15.59765625 C-17.03840496 4.75826905 -12.23489779 -1.48301791 0 0 Z " fill="#020607" transform="translate(517,128)"/>
<path d="M0 0 C27.39 0 54.78 0 83 0 C85.25006473 16.87548544 85.25006473 16.87548544 85.73022461 22.63330078 C85.84063583 23.93571716 85.95104706 25.23813354 86.06480408 26.58001709 C86.17740054 27.9517754 86.28991148 29.32354073 86.40234375 30.6953125 C86.52541161 32.16345779 86.64879712 33.63157648 86.7724762 35.09967041 C87.09800641 38.97482044 87.4190117 42.85033206 87.73898315 46.72594452 C88.07471006 50.7831694 88.41462425 54.84004383 88.75390625 58.89697266 C90.24705944 76.77684799 91.72191562 94.65827193 93.15625 112.54296875 C94.28871091 126.63541089 95.44538639 140.72589458 96.60083008 154.81646729 C96.86162088 157.99737252 97.12187784 161.17832063 97.3815918 164.35931396 C98.81868572 181.9577366 100.29786025 199.55136695 101.86140442 217.13902283 C103.20695426 232.27955236 104.50499155 247.42402921 105.78979492 262.56982422 C106.05886218 265.74019628 106.32948294 268.91043051 106.60131836 272.08056641 C106.9376943 276.00343052 107.27160876 279.92649672 107.60372353 283.84972382 C107.72846091 285.31853198 107.85403993 286.78726894 107.98052025 288.25592804 C108.15499531 290.28402271 108.3259854 292.31241627 108.49682617 294.34082031 C108.64313728 296.05896942 108.64313728 296.05896942 108.79240417 297.81182861 C108.99146091 300.86886017 109 303.93649457 109 307 C64.78 307 20.56 307 -25 307 C-23.8528903 284.05780606 -23.8528903 284.05780606 -23.203125 276.7265625 C-23.0926458 275.42599411 -23.0926458 275.42599411 -22.97993469 274.09915161 C-22.82191866 272.24220478 -22.66242069 270.3853835 -22.50149536 268.52868652 C-22.04939121 263.30883389 -21.60961066 258.0879339 -21.16796875 252.8671875 C-21.07358017 251.75476685 -20.97919159 250.64234619 -20.88194275 249.49621582 C-19.84312666 237.21956616 -18.85922137 224.93858153 -17.87557983 212.65740967 C-14.61516468 171.96562337 -11.27393571 131.28058187 -7.6946106 90.61550903 C-6.16170779 73.17842453 -4.75576434 55.73202562 -3.39428711 38.28076172 C-3.31594131 37.28443222 -3.23759552 36.28810272 -3.15687561 35.26158142 C-3.01453771 33.45063296 -2.87349367 31.63958183 -2.73435974 29.8283844 C-1.94996471 19.87121755 -0.94740064 9.94770672 0 0 Z " fill="#EE903C" transform="translate(471,301)"/>
<path d="M0 0 C137.28 0 274.56 0 416 0 C416 19.8 416 39.6 416 60 C278.72 60 141.44 60 0 60 C0 40.2 0 20.4 0 0 Z " fill="#46A0AB" transform="translate(304,797)"/>
<path d="M0 0 C69.63 0 139.26 0 211 0 C216 63 216 63 216 72 C142.74 72 69.48 72 -6 72 C-4.28414382 47.97801346 -2.39636689 23.96366887 0 0 Z " fill="#EF923D" transform="translate(407,633)"/>
<path d="M0 0 C101.64 0 203.28 0 308 0 C310 33 310 33 310 43 C207.04 43 104.08 43 -2 43 C-2 28.65117117 -0.98722944 14.31482682 0 0 Z " fill="#47A0AA" transform="translate(358,729)"/>
<path d="M0 0 C2.44332967 3.66499451 3.68141403 7.36264115 5.125 11.5 C5.40214844 12.27214844 5.67929687 13.04429687 5.96484375 13.83984375 C6.35736328 14.95552734 6.35736328 14.95552734 6.7578125 16.09375 C6.9964502 16.77115234 7.23508789 17.44855469 7.48095703 18.14648438 C8 20 8 20 8 23 C16.58 22.67 25.16 22.34 34 22 C28.4452593 27.5547407 28.4452593 27.5547407 25.6328125 29.54296875 C19.27964614 33.98167376 19.27964614 33.98167376 15.203125 40.26953125 C15.41742404 43.05054839 16.13227076 45.33985707 17 48 C17.41969428 49.61473845 17.82887606 51.23222718 18.23046875 52.8515625 C19.41652341 57.58872652 20.69101717 62.29539014 22 67 C21.34 67 20.68 67 20 67 C18.66015625 65.63671875 18.66015625 65.63671875 17.0625 63.6875 C12.36032633 58.13853658 7.18055856 53.09624567 2 48 C-2.24646526 49.6965045 -5.21694674 52.73417229 -8.5 55.8125 C-9.06847656 56.33392578 -9.63695312 56.85535156 -10.22265625 57.39257812 C-13.4578012 60.3987859 -16.33153872 63.46167267 -19 67 C-19.66 66.67 -20.32 66.34 -21 66 C-20.65066406 64.80503906 -20.30132812 63.61007813 -19.94140625 62.37890625 C-19.48139084 60.77354634 -19.02177691 59.16807134 -18.5625 57.5625 C-18.21735352 56.3878418 -18.21735352 56.3878418 -17.86523438 55.18945312 C-15.49629197 47.22179272 -15.49629197 47.22179272 -15 39 C-16.70275001 36.23279807 -16.70275001 36.23279807 -19.4375 34.3125 C-20.35144531 33.57773438 -21.26539063 32.84296875 -22.20703125 32.0859375 C-23.12871094 31.39757812 -24.05039062 30.70921875 -25 30 C-25.80824219 29.37351563 -26.61648438 28.74703125 -27.44921875 28.1015625 C-29.27892388 26.702183 -31.12397583 25.3362742 -33 24 C-32.67 23.34 -32.34 22.68 -32 22 C-23.75 22.33 -15.5 22.66 -7 23 C-6.34 20.03 -5.68 17.06 -5 14 C-4.17052649 11.46382189 -3.29859782 8.94093619 -2.375 6.4375 C-1.92898438 5.21933594 -1.48296875 4.00117188 -1.0234375 2.74609375 C-0.68570313 1.83988281 -0.34796875 0.93367187 0 0 Z " fill="#EF973F" transform="translate(512,168)"/>
<path d="M0 0 C0.33 0 0.66 0 1 0 C1.3401041 2.95769101 1.67219996 5.91594015 2 8.875 C2.14308594 10.10863281 2.14308594 10.10863281 2.2890625 11.3671875 C2.37929688 12.1921875 2.46953125 13.0171875 2.5625 13.8671875 C2.68818359 14.98262939 2.68818359 14.98262939 2.81640625 16.12060547 C3.08961462 20.40547192 3 24.70643233 3 29 C-99.96 29 -202.92 29 -309 29 C-309 26.36 -309 23.72 -309 21 C-308.67 21 -308.34 21 -308 21 C-308 22.98 -308 24.96 -308 27 C-206.03 27 -104.06 27 1 27 C0.67 23.37 0.34 19.74 0 16 C-0.06206343 13.09294908 -0.09876117 10.21618282 -0.0625 7.3125 C-0.05798828 6.59900391 -0.05347656 5.88550781 -0.04882812 5.15039062 C-0.03730574 3.43355526 -0.0193863 1.71676457 0 0 Z " fill="#5CCED7" transform="translate(665,743)"/>
<path d="M0 0 C2.88682751 3.4461674 4.59543561 7.26225856 6.35546875 11.35546875 C6.66196854 12.05771072 6.96846832 12.7599527 7.28425598 13.48347473 C7.92789096 14.96081173 8.56901399 16.43924538 9.20776367 17.91870117 C10.18961156 20.19238978 11.17908324 22.46263884 12.16992188 24.73242188 C12.79471531 26.16907762 13.41907954 27.60592011 14.04296875 29.04296875 C14.3397905 29.72522018 14.63661224 30.40747162 14.94242859 31.11039734 C17 35.88296296 17 35.88296296 17 37 C6.11 37 -4.78 37 -16 37 C-5.04328018 10.49658314 -5.04328018 10.49658314 0 0 Z " fill="#F09A40" transform="translate(512,240)"/>
<path d="M0 0 C5.29012124 4.40843437 10.18808428 9.07559794 15 14 C15.66 13.01 16.32 12.02 17 11 C17.99 14.3 18.98 17.6 20 21 C19.34 21 18.68 21 18 21 C16.66015625 19.63671875 16.66015625 19.63671875 15.0625 17.6875 C11.4631011 13.42465257 7.5813202 9.5384439 3.55688477 5.68237305 C2.33509286 4.49090704 1.16284669 3.24906136 0 2 C0 1.34 0 0.68 0 0 Z " fill="#F5C656" transform="translate(514,214)"/>
<path d="M0 0 C1.13732426 3.40401948 0.83989957 5.77456664 0.0625 9.25 C-0.13214844 10.14203125 -0.32679688 11.0340625 -0.52734375 11.953125 C-0.68332031 12.62859375 -0.83929688 13.3040625 -1 14 C-0.01 13.01 0.98 12.02 2 11 C2.66 11.33 3.32 11.66 4 12 C3.50628906 12.48210937 3.01257813 12.96421875 2.50390625 13.4609375 C1.86324219 14.09257812 1.22257812 14.72421875 0.5625 15.375 C-0.07558594 16.00148437 -0.71367187 16.62796875 -1.37109375 17.2734375 C-3.07882176 18.91723061 -3.07882176 18.91723061 -4 21 C-4.66 20.67 -5.32 20.34 -6 20 C-5.19086128 17.04073674 -4.37711805 14.08275919 -3.5625 11.125 C-3.21735352 9.86236328 -3.21735352 9.86236328 -2.86523438 8.57421875 C-2.64287109 7.76855469 -2.42050781 6.96289062 -2.19140625 6.1328125 C-1.98717041 5.38918457 -1.78293457 4.64555664 -1.57250977 3.87939453 C-1 2 -1 2 0 0 Z " fill="#F1C656" transform="translate(497,214)"/>
<path d="M0 0 C1.88153009 2.82229513 3.00034705 5.27890171 4.1875 8.4375 C4.55230469 9.38496094 4.91710937 10.33242187 5.29296875 11.30859375 C6 14 6 14 5 18 C3.68 14.37 2.36 10.74 1 7 C0.01 7.99 -0.98 8.98 -2 10 C-1.54177532 6.53058454 -1.10868317 3.32604951 0 0 Z " fill="#F2C554" transform="translate(512,168)"/>
<path d="M0 0 C0.33 0 0.66 0 1 0 C1.99862699 7.36487404 2.10331031 14.57313685 2 22 C1.67 22 1.34 22 1 22 C1 20.02 1 18.04 1 16 C0.34 16 -0.32 16 -1 16 C-0.67 10.72 -0.34 5.44 0 0 Z " fill="#F7C756" transform="translate(569,488)"/>
<path d="M0 0 C0.33 0 0.66 0 1 0 C1.24867947 2.60364409 1.47457902 5.20589894 1.6875 7.8125 C1.79674805 8.91948242 1.79674805 8.91948242 1.90820312 10.04882812 C2.33135078 15.54974762 2.33135078 15.54974762 0.51953125 18.01171875 C-0.23263672 18.50091797 -0.23263672 18.50091797 -1 19 C-1.09507063 12.56688704 -1.15316726 6.34241995 0 0 Z " fill="#F8C454" transform="translate(450,560)"/>
<path d="M0 0 C1.5625 1.8125 1.5625 1.8125 3 4 C2.67 4.99 2.34 5.98 2 7 C1.67 6.34 1.34 5.68 1 5 C-0.65 7.97 -2.3 10.94 -4 14 C-5.305239 10.08428299 -4.32239848 8.96107003 -2.5625 5.3125 C-2.08941406 4.31863281 -1.61632812 3.32476562 -1.12890625 2.30078125 C-0.75636719 1.54152344 -0.38382812 0.78226563 0 0 Z " fill="#F5C656" transform="translate(512,240)"/>
<path d="M0 0 C0.33 0.66 0.66 1.32 1 2 C1.66 2 2.32 2 3 2 C2.50639991 6.27786748 1.95216435 9.09567131 0 13 C0 8.71 0 4.42 0 0 Z " fill="#F5B34C" transform="translate(470,312)"/>
<path d="M0 0 C0.33 0 0.66 0 1 0 C1 1.98 1 3.96 1 6 C0.67 6 0.34 6 0 6 C0 4.02 0 2.04 0 0 Z " fill="#243434" transform="translate(329,764)"/>
<path d="M0 0 C0.33 0 0.66 0 1 0 C1 1.98 1 3.96 1 6 C0.67 6 0.34 6 0 6 C0 4.02 0 2.04 0 0 Z " fill="#393731" transform="translate(434,419)"/>
<path d="M0 0 C0.33 0 0.66 0 1 0 C1 1.65 1 3.3 1 5 C0.67 5 0.34 5 0 5 C0 3.35 0 1.7 0 0 Z " fill="#273634" transform="translate(331,740)"/>
<path d="M0 0 C0.33 0 0.66 0 1 0 C1 1.65 1 3.3 1 5 C0.67 5 0.34 5 0 5 C0 3.35 0 1.7 0 0 Z " fill="#343833" transform="translate(377,664)"/>
<path d="M0 0 C0.33 1.32 0.66 2.64 1 4 C0.34 3.34 -0.32 2.68 -1 2 C-0.67 1.34 -0.34 0.68 0 0 Z " fill="#37362F" transform="translate(436,396)"/>
<path d="M0 0 C0 0.99 0 1.98 0 3 C-0.66 2.34 -1.32 1.68 -2 1 C-1.34 0.67 -0.68 0.34 0 0 Z " fill="#373531" transform="translate(442,328)"/>
<path d="M0 0 C0.99 0.33 1.98 0.66 3 1 C2.34 1 1.68 1 1 1 C0.67 1.66 0.34 2.32 0 3 C0 2.01 0 1.02 0 0 Z " fill="#2B2B29" transform="translate(551,273)"/>
<path d="M0 0 C0.33 1.32 0.66 2.64 1 4 C0.34 3.67 -0.32 3.34 -1 3 C-0.67 2.01 -0.34 1.02 0 0 Z " fill="#2D2E2C" transform="translate(473,270)"/>
<path d="M0 0 C1 4 1 4 1 4 Z " fill="#333633" transform="translate(376,675)"/>
<path d="M0 0 C1 4 1 4 1 4 Z " fill="#333733" transform="translate(378,656)"/>
<path d="M0 0 C1 4 1 4 1 4 Z " fill="#383932" transform="translate(644,639)"/>
<path d="M0 0 C1 4 1 4 1 4 Z " fill="#383730" transform="translate(433,433)"/>
<path d="M0 0 C0.99 1.485 0.99 1.485 2 3 C1.34 3 0.68 3 0 3 C0 2.01 0 1.02 0 0 Z " fill="#39342E" transform="translate(588,405)"/>
<path d="M0 0 C0.99 0.495 0.99 0.495 2 1 C1.67 1.66 1.34 2.32 1 3 C0.67 2.01 0.34 1.02 0 0 Z " fill="#35322D" transform="translate(587,389)"/>
<path d="M0 0 C0.66 0 1.32 0 2 0 C1.67 0.99 1.34 1.98 1 3 C0.67 2.01 0.34 1.02 0 0 Z " fill="#35342E" transform="translate(442,315)"/>
<path d="M0 0 C1 4 1 4 1 4 Z " fill="#30322F" transform="translate(466,232)"/>
<path d="M0 0 C0 3 0 3 0 3 Z " fill="#323632" transform="translate(449,195)"/>
<path d="M0 0 C0.66 0.66 1.32 1.32 2 2 C1.01 1.67 0.02 1.34 -1 1 C-0.67 0.67 -0.34 0.34 0 0 Z " fill="#393B39" transform="translate(500,128)"/>
<path d="M0 0 C0.99 0.33 1.98 0.66 3 1 C2.01 1.33 1.02 1.66 0 2 C0 1.34 0 0.68 0 0 Z " fill="#3A3C39" transform="translate(503,128)"/>
<path d="M0 0 C3 1 3 1 3 1 Z " fill="#304343" transform="translate(286,771)"/>
<path d="M0 0 C0.33 0.66 0.66 1.32 1 2 C0.34 1.67 -0.32 1.34 -1 1 C-0.67 0.67 -0.34 0.34 0 0 Z " fill="#353632" transform="translate(378,652)"/>
<path d="" fill="#363530" transform="translate(0,0)"/>
<path d="" fill="#37352F" transform="translate(0,0)"/>
<path d="" fill="#383732" transform="translate(0,0)"/>
<path d="" fill="#3A3731" transform="translate(0,0)"/>
<path d="" fill="#3A3730" transform="translate(0,0)"/>
<path d="M0 0 C0.66 0.66 1.32 1.32 2 2 C1.34 2 0.68 2 0 2 C0 1.34 0 0.68 0 0 Z " fill="#35332E" transform="translate(587,384)"/>
<path d="M0 0 C0.66 0 1.32 0 2 0 C1.67 0.66 1.34 1.32 1 2 C0.67 1.34 0.34 0.68 0 0 Z " fill="#35352E" transform="translate(441,323)"/>
<path d="" fill="#33322E" transform="translate(0,0)"/>
<path d="M0 0 C0.66 0 1.32 0 2 0 C1.67 0.66 1.34 1.32 1 2 C0.67 1.34 0.34 0.68 0 0 Z " fill="#2F312E" transform="translate(464,228)"/>
<path d="M0 0 C2 1 2 1 2 1 Z " fill="#304649" transform="translate(543,881)"/>
<path d="M0 0 C2 1 2 1 2 1 Z " fill="#2C4142" transform="translate(735,771)"/>
<path d="" fill="#273839" transform="translate(0,0)"/>
<path d="" fill="#263535" transform="translate(0,0)"/>
<path d="M0 0 C2 1 2 1 2 1 Z " fill="#263434" transform="translate(329,752)"/>
<path d="" fill="#273535" transform="translate(0,0)"/>
<path d="" fill="#293837" transform="translate(0,0)"/>
<path d="" fill="#2A3837" transform="translate(0,0)"/>
<path d="M0 0 C2 1 2 1 2 1 Z " fill="#2C3636" transform="translate(684,704)"/>
<path d="" fill="#31322E" transform="translate(0,0)"/>
<path d="" fill="#363430" transform="translate(0,0)"/>
<path d="" fill="#373935" transform="translate(0,0)"/>
<path d="" fill="#373833" transform="translate(0,0)"/>
<path d="" fill="#373A37" transform="translate(0,0)"/>
<path d="" fill="#3A3E3A" transform="translate(0,0)"/>
<path d="" fill="#383831" transform="translate(0,0)"/>
<path d="" fill="#373733" transform="translate(0,0)"/>
<path d="" fill="#393732" transform="translate(0,0)"/>
<path d="" fill="#393834" transform="translate(0,0)"/>
<path d="" fill="#383531" transform="translate(0,0)"/>
<path d="" fill="#383731" transform="translate(0,0)"/>
<path d="" fill="#37342F" transform="translate(0,0)"/>
<path d="" fill="#36332F" transform="translate(0,0)"/>
<path d="" fill="#38362F" transform="translate(0,0)"/>
<path d="" fill="#38342F" transform="translate(0,0)"/>
<path d="" fill="#373530" transform="translate(0,0)"/>
<path d="" fill="#393832" transform="translate(0,0)"/>
<path d="M0 0 C2 1 2 1 2 1 Z " fill="#3A3932" transform="translate(427,498)"/>
<path d="" fill="#3B3933" transform="translate(0,0)"/>
<path d="" fill="#3A3833" transform="translate(0,0)"/>
<path d="M0 0 C2 1 2 1 2 1 Z " fill="#3B3832" transform="translate(432,440)"/>
<path d="" fill="#35352F" transform="translate(0,0)"/>
<path d="" fill="#37362F" transform="translate(0,0)"/>
<path d="" fill="#393632" transform="translate(0,0)"/>
<path d="" fill="#363630" transform="translate(0,0)"/>
<path d="" fill="#37352F" transform="translate(0,0)"/>
<path d="" fill="#36342F" transform="translate(0,0)"/>
<path d="" fill="#37332E" transform="translate(0,0)"/>
<path d="" fill="#363430" transform="translate(0,0)"/>
<path d="M0 0 C2 1 2 1 2 1 Z " fill="#36342F" transform="translate(440,336)"/>
<path d="" fill="#35342E" transform="translate(0,0)"/>
<path d="" fill="#32322D" transform="translate(0,0)"/>
<path d="" fill="#323430" transform="translate(0,0)"/>
<path d="M0 0 C2 1 2 1 2 1 Z " fill="#30312C" transform="translate(561,275)"/>
<path d="M0 0 C2 1 2 1 2 1 Z " fill="#2F2F2B" transform="translate(556,275)"/>
<path d="M0 0 C2 1 2 1 2 1 Z " fill="#2E2F2B" transform="translate(553,275)"/>
<path d="M0 0 C2 1 2 1 2 1 Z " fill="#303130" transform="translate(460,275)"/>
<path d="M0 0 C2 1 2 1 2 1 Z " fill="#2F312D" transform="translate(564,274)"/>
<path d="M0 0 C2 1 2 1 2 1 Z " fill="#2E322F" transform="translate(470,271)"/>
<path d="M0 0 C2 1 2 1 2 1 Z " fill="#302F2B" transform="translate(555,215)"/>
<path d="M0 0 C2 1 2 1 2 1 Z " fill="#32332E" transform="translate(467,215)"/>
<path d="" fill="#363A38" transform="translate(0,0)"/>
<path d="M0 0 C2 1 2 1 2 1 Z " fill="#3A3E3D" transform="translate(441,184)"/>
<path d="M0 0 C2 1 2 1 2 1 Z " fill="#333531" transform="translate(560,168)"/>
<path d="M0 0 C2 1 2 1 2 1 Z " fill="#33302E" transform="translate(473,168)"/>
<path d="" fill="#30312D" transform="translate(0,0)"/>
<path d="" fill="#31322D" transform="translate(0,0)"/>
<path d="" fill="#343430" transform="translate(0,0)"/>
<path d="" fill="#353734" transform="translate(0,0)"/>
<path d="" fill="#434F50" transform="translate(0,0)"/>
<path d="" fill="#3F5154" transform="translate(0,0)"/>
<path d="" fill="#3F4F53" transform="translate(0,0)"/>
<path d="" fill="#3D5253" transform="translate(0,0)"/>
<path d="" fill="#3F5051" transform="translate(0,0)"/>
<path d="" fill="#3F5354" transform="translate(0,0)"/>
<path d="" fill="#3E5254" transform="translate(0,0)"/>
<path d="" fill="#42504F" transform="translate(0,0)"/>
<path d="" fill="#3E4F52" transform="translate(0,0)"/>
<path d="" fill="#434D4C" transform="translate(0,0)"/>
<path d="" fill="#434E4C" transform="translate(0,0)"/>
<path d="" fill="#3E504F" transform="translate(0,0)"/>
<path d="" fill="#3D5253" transform="translate(0,0)"/>
<path d="" fill="#3C4F51" transform="translate(0,0)"/>
<path d="" fill="#3C5051" transform="translate(0,0)"/>
<path d="" fill="#3D5052" transform="translate(0,0)"/>
<path d="" fill="#3B504F" transform="translate(0,0)"/>
<path d="" fill="#3C4E50" transform="translate(0,0)"/>
<path d="" fill="#3B4F4F" transform="translate(0,0)"/>
<path d="" fill="#3C4F50" transform="translate(0,0)"/>
<path d="" fill="#474F4E" transform="translate(0,0)"/>
<path d="" fill="#444E4E" transform="translate(0,0)"/>
<path d="" fill="#434F4F" transform="translate(0,0)"/>
<path d="" fill="#3A4D4F" transform="translate(0,0)"/>
<path d="" fill="#394E50" transform="translate(0,0)"/>
<path d="" fill="#3B4F50" transform="translate(0,0)"/>
<path d="" fill="#394E50" transform="translate(0,0)"/>
<path d="" fill="#3B4D50" transform="translate(0,0)"/>
<path d="" fill="#3B4B4D" transform="translate(0,0)"/>
<path d="" fill="#484F4F" transform="translate(0,0)"/>
<path d="" fill="#3A4D4D" transform="translate(0,0)"/>
<path d="" fill="#394C4E" transform="translate(0,0)"/>
<path d="" fill="#394C4E" transform="translate(0,0)"/>
<path d="" fill="#394D4D" transform="translate(0,0)"/>
<path d="" fill="#3A4E4E" transform="translate(0,0)"/>
<path d="" fill="#3A4E4E" transform="translate(0,0)"/>
<path d="" fill="#394C4D" transform="translate(0,0)"/>
<path d="" fill="#404E4E" transform="translate(0,0)"/>
<path d="" fill="#384B4B" transform="translate(0,0)"/>
<path d="" fill="#364C4E" transform="translate(0,0)"/>
<path d="" fill="#384B4C" transform="translate(0,0)"/>
<path d="" fill="#354B4B" transform="translate(0,0)"/>
<path d="" fill="#35494B" transform="translate(0,0)"/>
<path d="" fill="#344A4B" transform="translate(0,0)"/>
<path d="" fill="#304346" transform="translate(0,0)"/>
<path d="" fill="#314647" transform="translate(0,0)"/>
<path d="" fill="#304849" transform="translate(0,0)"/>
<path d="" fill="#324849" transform="translate(0,0)"/>
<path d="" fill="#324849" transform="translate(0,0)"/>
<path d="" fill="#32474B" transform="translate(0,0)"/>
<path d="" fill="#314749" transform="translate(0,0)"/>
<path d="" fill="#30464B" transform="translate(0,0)"/>
<path d="" fill="#314849" transform="translate(0,0)"/>
<path d="" fill="#324647" transform="translate(0,0)"/>
<path d="" fill="#32484A" transform="translate(0,0)"/>
<path d="" fill="#32484A" transform="translate(0,0)"/>
<path d="" fill="#32484A" transform="translate(0,0)"/>
<path d="" fill="#324549" transform="translate(0,0)"/>
<path d="" fill="#314648" transform="translate(0,0)"/>
<path d="" fill="#3B484A" transform="translate(0,0)"/>
<path d="" fill="#314748" transform="translate(0,0)"/>
<path d="" fill="#314648" transform="translate(0,0)"/>
<path d="" fill="#33474A" transform="translate(0,0)"/>
<path d="" fill="#304949" transform="translate(0,0)"/>
<path d="" fill="#304748" transform="translate(0,0)"/>
<path d="" fill="#304649" transform="translate(0,0)"/>
<path d="" fill="#314447" transform="translate(0,0)"/>
<path d="" fill="#30464A" transform="translate(0,0)"/>
<path d="" fill="#2F4549" transform="translate(0,0)"/>
<path d="" fill="#304749" transform="translate(0,0)"/>
<path d="" fill="#304446" transform="translate(0,0)"/>
<path d="" fill="#304647" transform="translate(0,0)"/>
<path d="" fill="#2E3F41" transform="translate(0,0)"/>
<path d="" fill="#2A3F41" transform="translate(0,0)"/>
<path d="" fill="#2F4143" transform="translate(0,0)"/>
<path d="" fill="#2F4044" transform="translate(0,0)"/>
<path d="" fill="#314444" transform="translate(0,0)"/>
<path d="" fill="#4C5252" transform="translate(0,0)"/>
<path d="" fill="#293A3B" transform="translate(0,0)"/>
<path d="" fill="#293939" transform="translate(0,0)"/>
<path d="" fill="#2A3B3C" transform="translate(0,0)"/>
<path d="" fill="#2F3F3F" transform="translate(0,0)"/>
<path d="" fill="#2D3D3C" transform="translate(0,0)"/>
<path d="" fill="#2F4041" transform="translate(0,0)"/>
<path d="" fill="#2F3C3D" transform="translate(0,0)"/>
<path d="" fill="#304040" transform="translate(0,0)"/>
<path d="" fill="#313F41" transform="translate(0,0)"/>
<path d="" fill="#324146" transform="translate(0,0)"/>
<path d="" fill="#304144" transform="translate(0,0)"/>
<path d="" fill="#273D40" transform="translate(0,0)"/>
<path d="" fill="#283E3F" transform="translate(0,0)"/>
<path d="" fill="#2C4143" transform="translate(0,0)"/>
<path d="" fill="#304342" transform="translate(0,0)"/>
<path d="" fill="#324244" transform="translate(0,0)"/>
<path d="" fill="#2B4144" transform="translate(0,0)"/>
<path d="" fill="#2A3F42" transform="translate(0,0)"/>
<path d="" fill="#273D3E" transform="translate(0,0)"/>
<path d="" fill="#283B3E" transform="translate(0,0)"/>
<path d="" fill="#273A3A" transform="translate(0,0)"/>
<path d="" fill="#293E3F" transform="translate(0,0)"/>
<path d="" fill="#2D4241" transform="translate(0,0)"/>
<path d="" fill="#2D4245" transform="translate(0,0)"/>
<path d="" fill="#314344" transform="translate(0,0)"/>
<path d="" fill="#283F3F" transform="translate(0,0)"/>
<path d="" fill="#29383B" transform="translate(0,0)"/>
<path d="" fill="#263638" transform="translate(0,0)"/>
<path d="" fill="#304044" transform="translate(0,0)"/>
<path d="" fill="#334245" transform="translate(0,0)"/>
<path d="" fill="#273E3F" transform="translate(0,0)"/>
<path d="" fill="#263839" transform="translate(0,0)"/>
<path d="" fill="#283B3C" transform="translate(0,0)"/>
<path d="" fill="#263C3D" transform="translate(0,0)"/>
<path d="" fill="#294145" transform="translate(0,0)"/>
<path d="" fill="#4F5454" transform="translate(0,0)"/>
<path d="" fill="#263535" transform="translate(0,0)"/>
<path d="" fill="#243736" transform="translate(0,0)"/>
<path d="" fill="#3C4949" transform="translate(0,0)"/>
<path d="" fill="#263838" transform="translate(0,0)"/>
<path d="" fill="#263434" transform="translate(0,0)"/>
<path d="" fill="#253334" transform="translate(0,0)"/>
<path d="" fill="#273635" transform="translate(0,0)"/>
<path d="" fill="#263535" transform="translate(0,0)"/>
<path d="" fill="#263537" transform="translate(0,0)"/>
<path d="" fill="#2B3835" transform="translate(0,0)"/>
<path d="" fill="#273637" transform="translate(0,0)"/>
<path d="" fill="#535757" transform="translate(0,0)"/>
<path d="" fill="#2A3A38" transform="translate(0,0)"/>
<path d="" fill="#545657" transform="translate(0,0)"/>
<path d="" fill="#545758" transform="translate(0,0)"/>
<path d="" fill="#2C3637" transform="translate(0,0)"/>
<path d="" fill="#2D3938" transform="translate(0,0)"/>
<path d="" fill="#2D3A3A" transform="translate(0,0)"/>
<path d="" fill="#2F3B39" transform="translate(0,0)"/>
<path d="" fill="#565857" transform="translate(0,0)"/>
<path d="" fill="#545658" transform="translate(0,0)"/>
<path d="" fill="#495250" transform="translate(0,0)"/>
<path d="" fill="#333F3E" transform="translate(0,0)"/>
<path d="" fill="#2F3A3A" transform="translate(0,0)"/>
<path d="" fill="#313C3C" transform="translate(0,0)"/>
<path d="" fill="#333B3B" transform="translate(0,0)"/>
<path d="" fill="#4A4F4E" transform="translate(0,0)"/>
<path d="" fill="#333735" transform="translate(0,0)"/>
<path d="" fill="#59595A" transform="translate(0,0)"/>
<path d="" fill="#353933" transform="translate(0,0)"/>
<path d="" fill="#2D312D" transform="translate(0,0)"/>
<path d="" fill="#32332F" transform="translate(0,0)"/>
<path d="" fill="#333631" transform="translate(0,0)"/>
<path d="" fill="#2F312D" transform="translate(0,0)"/>
<path d="" fill="#525754" transform="translate(0,0)"/>
<path d="" fill="#2E302D" transform="translate(0,0)"/>
<path d="" fill="#2F312D" transform="translate(0,0)"/>
<path d="" fill="#333632" transform="translate(0,0)"/>
<path d="" fill="#2F312E" transform="translate(0,0)"/>
<path d="" fill="#343832" transform="translate(0,0)"/>
<path d="" fill="#333831" transform="translate(0,0)"/>
<path d="" fill="#343531" transform="translate(0,0)"/>
<path d="" fill="#585959" transform="translate(0,0)"/>
<path d="" fill="#4F5151" transform="translate(0,0)"/>
<path d="" fill="#373732" transform="translate(0,0)"/>
<path d="" fill="#363834" transform="translate(0,0)"/>
<path d="" fill="#363934" transform="translate(0,0)"/>
<path d="" fill="#36372F" transform="translate(0,0)"/>
<path d="" fill="#595B59" transform="translate(0,0)"/>
<path d="" fill="#363835" transform="translate(0,0)"/>
<path d="" fill="#363A36" transform="translate(0,0)"/>
<path d="" fill="#373A34" transform="translate(0,0)"/>
<path d="" fill="#5B595A" transform="translate(0,0)"/>
<path d="" fill="#515251" transform="translate(0,0)"/>
<path d="" fill="#353530" transform="translate(0,0)"/>
<path d="" fill="#363731" transform="translate(0,0)"/>
<path d="" fill="#595A5A" transform="translate(0,0)"/>
<path d="" fill="#393833" transform="translate(0,0)"/>
<path d="" fill="#373A37" transform="translate(0,0)"/>
<path d="" fill="#4B4E4B" transform="translate(0,0)"/>
<path d="" fill="#373B39" transform="translate(0,0)"/>
<path d="" fill="#373832" transform="translate(0,0)"/>
<path d="" fill="#5A5B5A" transform="translate(0,0)"/>
<path d="" fill="#373631" transform="translate(0,0)"/>
<path d="" fill="#383B37" transform="translate(0,0)"/>
<path d="" fill="#575956" transform="translate(0,0)"/>
<path d="" fill="#535552" transform="translate(0,0)"/>
<path d="" fill="#3A3C3A" transform="translate(0,0)"/>
<path d="" fill="#363630" transform="translate(0,0)"/>
<path d="" fill="#393C39" transform="translate(0,0)"/>
<path d="" fill="#3D3F3B" transform="translate(0,0)"/>
<path d="" fill="#36362F" transform="translate(0,0)"/>
<path d="" fill="#393A35" transform="translate(0,0)"/>
<path d="" fill="#36352F" transform="translate(0,0)"/>
<path d="" fill="#35352E" transform="translate(0,0)"/>
<path d="" fill="#383633" transform="translate(0,0)"/>
<path d="" fill="#37342E" transform="translate(0,0)"/>
<path d="" fill="#373430" transform="translate(0,0)"/>
<path d="" fill="#363431" transform="translate(0,0)"/>
<path d="" fill="#3A3832" transform="translate(0,0)"/>
<path d="" fill="#393734" transform="translate(0,0)"/>
<path d="" fill="#3A3C35" transform="translate(0,0)"/>
<path d="" fill="#393A33" transform="translate(0,0)"/>
<path d="" fill="#3A3835" transform="translate(0,0)"/>
<path d="" fill="#393A35" transform="translate(0,0)"/>
<path d="" fill="#373531" transform="translate(0,0)"/>
<path d="" fill="#36342F" transform="translate(0,0)"/>
<path d="" fill="#5B5B5A" transform="translate(0,0)"/>
<path d="" fill="#383834" transform="translate(0,0)"/>
<path d="" fill="#4F4F4B" transform="translate(0,0)"/>
<path d="" fill="#393833" transform="translate(0,0)"/>
<path d="" fill="#5B5B5A" transform="translate(0,0)"/>
<path d="" fill="#5B5A59" transform="translate(0,0)"/>
<path d="" fill="#4E4C49" transform="translate(0,0)"/>
<path d="" fill="#5B5959" transform="translate(0,0)"/>
<path d="" fill="#383732" transform="translate(0,0)"/>
<path d="" fill="#373431" transform="translate(0,0)"/>
<path d="" fill="#595856" transform="translate(0,0)"/>
<path d="" fill="#35342F" transform="translate(0,0)"/>
<path d="" fill="#37352F" transform="translate(0,0)"/>
<path d="" fill="#37352F" transform="translate(0,0)"/>
<path d="" fill="#5C5D5B" transform="translate(0,0)"/>
<path d="" fill="#353631" transform="translate(0,0)"/>
<path d="" fill="#5C5C5B" transform="translate(0,0)"/>
<path d="" fill="#3A3730" transform="translate(0,0)"/>
<path d="" fill="#3A3731" transform="translate(0,0)"/>
<path d="" fill="#383731" transform="translate(0,0)"/>
<path d="" fill="#3A3730" transform="translate(0,0)"/>
<path d="" fill="#5C5B5C" transform="translate(0,0)"/>
<path d="" fill="#5B5C5B" transform="translate(0,0)"/>
<path d="" fill="#3A3830" transform="translate(0,0)"/>
<path d="" fill="#3A3A34" transform="translate(0,0)"/>
<path d="" fill="#5C5D5B" transform="translate(0,0)"/>
<path d="" fill="#39352F" transform="translate(0,0)"/>
<path d="" fill="#3C3A34" transform="translate(0,0)"/>
<path d="" fill="#393732" transform="translate(0,0)"/>
<path d="" fill="#5A5857" transform="translate(0,0)"/>
<path d="" fill="#5C5C5B" transform="translate(0,0)"/>
<path d="" fill="#5A5B58" transform="translate(0,0)"/>
<path d="" fill="#3A3833" transform="translate(0,0)"/>
<path d="" fill="#5B5A5B" transform="translate(0,0)"/>
<path d="" fill="#5D5C5C" transform="translate(0,0)"/>
<path d="" fill="#37352E" transform="translate(0,0)"/>
<path d="" fill="#3A3630" transform="translate(0,0)"/>
<path d="" fill="#5D5D5D" transform="translate(0,0)"/>
<path d="" fill="#3A3731" transform="translate(0,0)"/>
<path d="" fill="#37352F" transform="translate(0,0)"/>
<path d="" fill="#5C5C5A" transform="translate(0,0)"/>
<path d="" fill="#5A5958" transform="translate(0,0)"/>
<path d="" fill="#383731" transform="translate(0,0)"/>
<path d="" fill="#3A3734" transform="translate(0,0)"/>
<path d="" fill="#484642" transform="translate(0,0)"/>
<path d="" fill="#373632" transform="translate(0,0)"/>
<path d="" fill="#39352F" transform="translate(0,0)"/>
<path d="" fill="#5D5D5D" transform="translate(0,0)"/>
<path d="" fill="#37332D" transform="translate(0,0)"/>
<path d="" fill="#39342E" transform="translate(0,0)"/>
<path d="" fill="#393630" transform="translate(0,0)"/>
<path d="" fill="#34332D" transform="translate(0,0)"/>
<path d="" fill="#37352D" transform="translate(0,0)"/>
<path d="" fill="#383530" transform="translate(0,0)"/>
<path d="" fill="#35342F" transform="translate(0,0)"/>
<path d="" fill="#5D5C5B" transform="translate(0,0)"/>
<path d="" fill="#35342E" transform="translate(0,0)"/>
<path d="" fill="#5C5B5C" transform="translate(0,0)"/>
<path d="" fill="#5D5C5C" transform="translate(0,0)"/>
<path d="" fill="#35332E" transform="translate(0,0)"/>
<path d="" fill="#5D5B5B" transform="translate(0,0)"/>
<path d="" fill="#5D5C5C" transform="translate(0,0)"/>
<path d="" fill="#36332E" transform="translate(0,0)"/>
<path d="" fill="#5C5C5A" transform="translate(0,0)"/>
<path d="" fill="#37352F" transform="translate(0,0)"/>
<path d="" fill="#35332E" transform="translate(0,0)"/>
<path d="" fill="#363630" transform="translate(0,0)"/>
<path d="" fill="#36352F" transform="translate(0,0)"/>
<path d="" fill="#575655" transform="translate(0,0)"/>
<path d="" fill="#383630" transform="translate(0,0)"/>
<path d="" fill="#373432" transform="translate(0,0)"/>
<path d="" fill="#363530" transform="translate(0,0)"/>
<path d="" fill="#5E5C5B" transform="translate(0,0)"/>
<path d="" fill="#5B5C5A" transform="translate(0,0)"/>
<path d="" fill="#383431" transform="translate(0,0)"/>
<path d="" fill="#5C5B5D" transform="translate(0,0)"/>
<path d="" fill="#36332F" transform="translate(0,0)"/>
<path d="" fill="#393633" transform="translate(0,0)"/>
<path d="" fill="#36342C" transform="translate(0,0)"/>
<path d="" fill="#39352E" transform="translate(0,0)"/>
<path d="" fill="#37342A" transform="translate(0,0)"/>
<path d="" fill="#34312B" transform="translate(0,0)"/>
<path d="" fill="#373531" transform="translate(0,0)"/>
<path d="" fill="#565554" transform="translate(0,0)"/>
<path d="" fill="#38342E" transform="translate(0,0)"/>
<path d="" fill="#353531" transform="translate(0,0)"/>
<path d="" fill="#5C5C5B" transform="translate(0,0)"/>
<path d="" fill="#5C5C5B" transform="translate(0,0)"/>
<path d="" fill="#54524F" transform="translate(0,0)"/>
<path d="" fill="#36342E" transform="translate(0,0)"/>
<path d="" fill="#353530" transform="translate(0,0)"/>
<path d="" fill="#373530" transform="translate(0,0)"/>
<path d="" fill="#353530" transform="translate(0,0)"/>
<path d="" fill="#343330" transform="translate(0,0)"/>
<path d="" fill="#353433" transform="translate(0,0)"/>
<path d="" fill="#373431" transform="translate(0,0)"/>
<path d="" fill="#363531" transform="translate(0,0)"/>
<path d="" fill="#5D5C5C" transform="translate(0,0)"/>
<path d="" fill="#35352F" transform="translate(0,0)"/>
<path d="" fill="#36342E" transform="translate(0,0)"/>
<path d="" fill="#353430" transform="translate(0,0)"/>
<path d="" fill="#353431" transform="translate(0,0)"/>
<path d="" fill="#5A5957" transform="translate(0,0)"/>
<path d="" fill="#353631" transform="translate(0,0)"/>
<path d="" fill="#353432" transform="translate(0,0)"/>
<path d="" fill="#5C5C5B" transform="translate(0,0)"/>
<path d="" fill="#4F4F4B" transform="translate(0,0)"/>
<path d="" fill="#595756" transform="translate(0,0)"/>
<path d="" fill="#595959" transform="translate(0,0)"/>
<path d="" fill="#353532" transform="translate(0,0)"/>
<path d="" fill="#333532" transform="translate(0,0)"/>
<path d="" fill="#585855" transform="translate(0,0)"/>
<path d="" fill="#333734" transform="translate(0,0)"/>
<path d="" fill="#343432" transform="translate(0,0)"/>
<path d="" fill="#31332F" transform="translate(0,0)"/>
<path d="" fill="#353632" transform="translate(0,0)"/>
<path d="" fill="#32332F" transform="translate(0,0)"/>
<path d="" fill="#313230" transform="translate(0,0)"/>
<path d="" fill="#333433" transform="translate(0,0)"/>
<path d="" fill="#343532" transform="translate(0,0)"/>
<path d="" fill="#2D322F" transform="translate(0,0)"/>
<path d="" fill="#2E302B" transform="translate(0,0)"/>
<path d="" fill="#303230" transform="translate(0,0)"/>
<path d="" fill="#2E2E2C" transform="translate(0,0)"/>
<path d="" fill="#2E312A" transform="translate(0,0)"/>
<path d="" fill="#2C312D" transform="translate(0,0)"/>
<path d="" fill="#2F322F" transform="translate(0,0)"/>
<path d="" fill="#2E302C" transform="translate(0,0)"/>
<path d="" fill="#5C5D5C" transform="translate(0,0)"/>
<path d="" fill="#595A59" transform="translate(0,0)"/>
<path d="" fill="#545352" transform="translate(0,0)"/>
<path d="" fill="#5A5A59" transform="translate(0,0)"/>
<path d="" fill="#52524E" transform="translate(0,0)"/>
<path d="" fill="#4A4B46" transform="translate(0,0)"/>
<path d="" fill="#4E4E4C" transform="translate(0,0)"/>
<path d="" fill="#333233" transform="translate(0,0)"/>
<path d="" fill="#323431" transform="translate(0,0)"/>
<path d="" fill="#323431" transform="translate(0,0)"/>
<path d="" fill="#31332E" transform="translate(0,0)"/>
<path d="" fill="#33322C" transform="translate(0,0)"/>
<path d="" fill="#303331" transform="translate(0,0)"/>
<path d="" fill="#32322F" transform="translate(0,0)"/>
<path d="" fill="#30322E" transform="translate(0,0)"/>
<path d="" fill="#2F312C" transform="translate(0,0)"/>
<path d="" fill="#595959" transform="translate(0,0)"/>
<path d="" fill="#30332E" transform="translate(0,0)"/>
<path d="" fill="#2E2F2A" transform="translate(0,0)"/>
<path d="" fill="#2D2D29" transform="translate(0,0)"/>
<path d="" fill="#2F312D" transform="translate(0,0)"/>
<path d="" fill="#2C2D2A" transform="translate(0,0)"/>
<path d="" fill="#5A5A58" transform="translate(0,0)"/>
<path d="" fill="#313430" transform="translate(0,0)"/>
<path d="" fill="#31342F" transform="translate(0,0)"/>
<path d="" fill="#323330" transform="translate(0,0)"/>
<path d="" fill="#2F3531" transform="translate(0,0)"/>
<path d="" fill="#33322D" transform="translate(0,0)"/>
<path d="" fill="#313432" transform="translate(0,0)"/>
<path d="" fill="#363530" transform="translate(0,0)"/>
<path d="" fill="#333633" transform="translate(0,0)"/>
<path d="" fill="#353733" transform="translate(0,0)"/>
<path d="" fill="#393A37" transform="translate(0,0)"/>
<path d="" fill="#363836" transform="translate(0,0)"/>
<path d="" fill="#494A48" transform="translate(0,0)"/>
<path d="" fill="#383937" transform="translate(0,0)"/>
<path d="" fill="#3A3A39" transform="translate(0,0)"/>
<path d="" fill="#393A39" transform="translate(0,0)"/>
<path d="" fill="#3A3F3A" transform="translate(0,0)"/>
<path d="" fill="#383E38" transform="translate(0,0)"/>
<path d="" fill="#383835" transform="translate(0,0)"/>
<path d="" fill="#5C5B5B" transform="translate(0,0)"/>
<path d="" fill="#3E3F3C" transform="translate(0,0)"/>
<path d="" fill="#383A37" transform="translate(0,0)"/>
<path d="" fill="#3A3D3C" transform="translate(0,0)"/>
<path d="" fill="#3D3F3C" transform="translate(0,0)"/>
<path d="" fill="#3C3E3D" transform="translate(0,0)"/>
<path d="" fill="#575855" transform="translate(0,0)"/>
<path d="" fill="#3C3C3A" transform="translate(0,0)"/>
<path d="" fill="#373835" transform="translate(0,0)"/>
<path d="" fill="#383836" transform="translate(0,0)"/>
<path d="" fill="#353532" transform="translate(0,0)"/>
<path d="" fill="#363330" transform="translate(0,0)"/>
<path d="" fill="#363330" transform="translate(0,0)"/>
<path d="" fill="#33312F" transform="translate(0,0)"/>
<path d="" fill="#34332E" transform="translate(0,0)"/>
<path d="" fill="#343935" transform="translate(0,0)"/>
<path d="" fill="#363734" transform="translate(0,0)"/>
<path d="" fill="#393A39" transform="translate(0,0)"/>
<path d="" fill="#302F2C" transform="translate(0,0)"/>
<path d="" fill="#5A5B5A" transform="translate(0,0)"/>
<path d="" fill="#5B5D5C" transform="translate(0,0)"/>
<path d="" fill="#30302E" transform="translate(0,0)"/>
<path d="" fill="#2F3230" transform="translate(0,0)"/>
<path d="" fill="#2F302E" transform="translate(0,0)"/>
<path d="" fill="#31322F" transform="translate(0,0)"/>
<path d="" fill="#333430" transform="translate(0,0)"/>
<path d="" fill="#333432" transform="translate(0,0)"/>
<path d="" fill="#32322F" transform="translate(0,0)"/>
<path d="" fill="#323431" transform="translate(0,0)"/>
<path d="" fill="#333332" transform="translate(0,0)"/>
<path d="" fill="#333432" transform="translate(0,0)"/>
<path d="" fill="#31342F" transform="translate(0,0)"/>
<path d="" fill="#5B5C5B" transform="translate(0,0)"/>
<path d="" fill="#595A58" transform="translate(0,0)"/>
<path d="" fill="#363633" transform="translate(0,0)"/>
<path d="" fill="#383836" transform="translate(0,0)"/>
<path d="" fill="#363B37" transform="translate(0,0)"/>
<path d="" fill="#353733" transform="translate(0,0)"/>
<path d="" fill="#383A39" transform="translate(0,0)"/>
<path d="" fill="#393B38" transform="translate(0,0)"/>
<path d="" fill="#353836" transform="translate(0,0)"/>
<path d="" fill="#5C5D5A" transform="translate(0,0)"/>
<path d="" fill="#3A3C3A" transform="translate(0,0)"/>
<path d="" fill="#3B3C39" transform="translate(0,0)"/>
<path d="" fill="#505150" transform="translate(0,0)"/>
<path d="" fill="#555553" transform="translate(0,0)"/>
<path d="" fill="#595958" transform="translate(0,0)"/>
<path d="" fill="#505250" transform="translate(0,0)"/>
<path d="" fill="#5B5A5A" transform="translate(0,0)"/>
<path d="" fill="#5C5B5A" transform="translate(0,0)"/>
<path d="" fill="#585757" transform="translate(0,0)"/>
<path d="" fill="#555654" transform="translate(0,0)"/>
<path d="" fill="#525250" transform="translate(0,0)"/>
<path d="" fill="#595B5A" transform="translate(0,0)"/>
<path d="" fill="#5B5B5A" transform="translate(0,0)"/>
<path d="" fill="#5B595A" transform="translate(0,0)"/>
<path d="" fill="#5B5B5A" transform="translate(0,0)"/>
<path d="" fill="#5B5958" transform="translate(0,0)"/>
<path d="" fill="#555755" transform="translate(0,0)"/>
<path d="" fill="#5A5B59" transform="translate(0,0)"/>
<path d="" fill="#575958" transform="translate(0,0)"/>
<path d="" fill="#595959" transform="translate(0,0)"/>
<path d="" fill="#5A5A5C" transform="translate(0,0)"/>
<path d="" fill="#5C5A5C" transform="translate(0,0)"/>
<path d="" fill="#585855" transform="translate(0,0)"/>
<path d="" fill="#5B5B5B" transform="translate(0,0)"/>
<path d="" fill="#5B5A5A" transform="translate(0,0)"/>
<path d="" fill="#595859" transform="translate(0,0)"/>
<path d="" fill="#5A595A" transform="translate(0,0)"/>
<path d="" fill="#5B5B5B" transform="translate(0,0)"/>
<path d="" fill="#585857" transform="translate(0,0)"/>
<path d="" fill="#5B5A5B" transform="translate(0,0)"/>
<path d="" fill="#5A5A59" transform="translate(0,0)"/>
</svg>
