<?xml version="1.0" encoding="UTF-8"?>
<svg version="1.1" xmlns="http://www.w3.org/2000/svg" width="1024" height="1024">
<path d="M0 0 C2.125 1.6875 2.125 1.6875 2.94921875 3.39453125 C4.58919557 6.59275847 6.82341931 9.27140218 9.0625 12.0625 C10.06129186 13.3202379 11.05998711 14.57805253 12.05859375 15.8359375 C12.82405518 16.7964502 12.82405518 16.7964502 13.60498047 17.77636719 C15.95883516 20.73588767 18.29142054 23.7119865 20.625 26.6875 C21.54155148 27.85425716 22.4582185 29.02092357 23.375 30.1875 C28.875 37.1875 28.875 37.1875 30.24951172 38.93701172 C31.16763354 40.10544152 32.08592826 41.27373548 33.00439453 42.44189453 C35.27522369 45.33050506 37.54314946 48.22129548 39.8046875 51.1171875 C43.59396641 55.96344317 47.38857875 60.8017287 51.28515625 65.5625 C51.83059082 66.22910645 52.37602539 66.89571289 52.93798828 67.58251953 C53.95795287 68.82566844 54.9806581 70.06657906 56.00732422 71.30419922 C57.02875283 72.5480708 58.03357969 73.80570649 59.02398682 75.07441711 C60.6446988 77.09013733 62.3015424 79.01364236 64.01828003 80.94429016 C72.96714406 91.4053817 75.06292652 99.77167176 75.57421875 113.30078125 C75.68430113 115.13190775 75.79937444 116.96274024 75.91914368 118.79325867 C76.21814511 123.55609206 76.45271459 128.31983485 76.67205811 133.08691406 C76.90701809 137.96052117 77.20013496 142.83058723 77.49023438 147.70117188 C77.81438013 153.16771746 78.13318458 158.63390197 78.40470886 164.10334778 C78.44663361 164.92891678 78.48855835 165.75448578 78.53175354 166.60507202 C78.60908735 168.14476916 78.68308638 169.68463888 78.75311279 171.22468567 C78.90772377 174.26773644 79.15548844 176.77896531 80.125 179.6875 C80.16631729 181.35690517 80.15415919 183.02782286 80.11312866 184.69723511 C80.04567837 193.33869169 80.71368045 201.91651989 81.31494141 210.53173828 C81.44348695 212.41698861 81.57167072 214.30226363 81.69952393 216.18756104 C82.04754372 221.30455259 82.40055898 226.42118873 82.7544179 231.53777933 C83.13102154 236.99672906 83.50279597 242.45600777 83.87509155 247.91525269 C84.58722969 258.3476479 85.30338545 268.7797631 86.02110517 279.21177566 C86.89070639 291.85322234 87.7561598 304.494952 88.62109375 317.13671875 C88.7361971 318.81890542 88.7361971 318.81890542 88.85362577 320.53507566 C89.24048823 326.18898579 89.62728978 331.84290008 90.01403046 337.49681854 C90.32214702 342.00112578 90.63040707 346.50542317 90.93878937 351.00971222 C93.10945128 382.7167085 95.26427938 414.42472557 97.38616133 446.13502645 C97.58463686 449.09777214 97.7837366 452.06047526 97.98302078 455.02316666 C98.29119985 459.60602581 98.59771115 464.18899333 98.90283251 468.77205706 C99.0140671 470.43923905 99.12584859 472.10638466 99.23821974 473.77349043 C99.39079364 476.03890531 99.54129882 478.30444831 99.69125366 480.57003784 C99.77559851 481.83240202 99.85994335 483.0947662 99.9468441 484.39538383 C100.09696974 487.16953307 100.16163063 489.91051248 100.125 492.6875 C101.0325 492.501875 101.94 492.31625 102.875 492.125 C109.51749817 491.21674005 116.64185512 490.94929858 122.25 494.875 C126.55984738 501.33977107 126.39479784 507.48166715 126.3203125 514.9921875 C126.31606766 516.61086227 126.31606766 516.61086227 126.31173706 518.26223755 C126.3005766 521.69577299 126.2754793 525.12904391 126.25 528.5625 C126.23996487 530.89582956 126.23083995 533.22916322 126.22265625 535.5625 C126.20065079 541.270923 126.16721427 546.97919259 126.125 552.6875 C127.08539185 552.67178955 127.08539185 552.67178955 128.06518555 552.65576172 C130.98091671 552.61405185 133.89658495 552.58812637 136.8125 552.5625 C137.81990234 552.54574219 138.82730469 552.52898438 139.86523438 552.51171875 C141.32993164 552.50205078 141.32993164 552.50205078 142.82421875 552.4921875 C144.16746216 552.47647705 144.16746216 552.47647705 145.5378418 552.46044922 C149.74769932 552.82990921 152.39018018 553.95268018 155.375 556.9375 C158.45678442 561.78030408 158.24745113 566.94955186 158.22265625 572.56323242 C158.22119598 573.2225325 158.21973572 573.88183258 158.2182312 574.56111145 C158.21444713 575.98191779 158.20835404 577.40271953 158.20016479 578.82350731 C158.18733347 581.0721519 158.18086891 583.32073711 158.17602539 585.56941223 C158.16463604 590.33796829 158.14537678 595.10647499 158.125 599.875 C158.10139335 605.41270406 158.08101907 610.95038043 158.06906128 616.48812294 C158.06257921 618.70339824 158.0500752 620.91858785 158.03735352 623.13383484 C158.03372167 624.48920619 158.03036986 625.84457833 158.02734375 627.19995117 C158.02210693 628.3832048 158.01687012 629.56645844 158.01147461 630.78556824 C157.9925404 633.75495677 157.9925404 633.75495677 159.125 636.6875 C158.465 636.6875 157.805 636.6875 157.125 636.6875 C157.125 642.9575 157.125 649.2275 157.125 655.6875 C159.3215625 655.65269531 161.518125 655.61789062 163.78125 655.58203125 C165.96922514 655.55846555 168.15718479 655.54034669 170.34521484 655.52270508 C171.83649283 655.50785298 173.32772911 655.48756578 174.81884766 655.46118164 C202.07068213 654.99195694 227.16029595 663.04801336 248.125 680.6875 C249.8065689 682.33912998 251.47475251 684.00457434 253.125 685.6875 C253.68703125 686.19152344 254.2490625 686.69554687 254.828125 687.21484375 C265.67763059 697.10542839 273.88106264 712.78949419 277.19140625 727.0390625 C277.79803535 730.7003634 277.79803535 730.7003634 280.125 732.6875 C279.465 732.6875 278.805 732.6875 278.125 732.6875 C278.45097168 733.68402588 278.77694336 734.68055176 279.11279297 735.70727539 C280.23102041 739.63685065 280.3532004 743.27654976 280.3203125 747.37109375 C280.31606766 748.42164696 280.31606766 748.42164696 280.31173706 749.49342346 C280.30064885 751.7041317 280.27556703 753.91441671 280.25 756.125 C280.23995546 757.63475972 280.2308322 759.14452588 280.22265625 760.65429688 C280.20074714 764.33216597 280.16629758 768.0097916 280.125 771.6875 C286.18670409 771.01628138 286.18670409 771.01628138 292.125 769.6875 C292.125 770.3475 292.125 771.0075 292.125 771.6875 C292.805625 771.460625 293.48625 771.23375 294.1875 771 C298.28531006 770.56406276 300.53739944 771.73062697 304.125 773.6875 C306.67114252 775.907214 307.90316638 777.45026303 308.50390625 780.80078125 C308.7854049 786.20373917 307.78119745 789.50898863 304.125 793.6875 C300.35755762 794.94331413 296.83644278 794.8409008 292.91114807 794.84571838 C292.06190307 794.85065636 291.21265807 794.85559434 290.33767837 794.86068195 C287.47585335 794.87609982 284.61405091 794.88443262 281.75219727 794.89282227 C279.70041203 794.90240508 277.64862876 794.9124154 275.59684753 794.92282104 C269.97839537 794.95002114 264.35993486 794.97099664 258.74145246 794.99082303 C252.7541293 795.01288851 246.76682999 795.04024097 240.77952576 795.06687927 C230.61092272 795.11133762 220.44230999 795.15197954 210.27368164 795.19018555 C198.8305022 795.23320277 187.38735147 795.28092632 175.94420397 795.33169425 C162.29745053 795.39220407 148.65068543 795.44950607 135.00390625 795.50390625 C133.16036269 795.51125565 133.16036269 795.51125565 131.27957582 795.51875353 C102.06111577 795.63392374 72.84320943 795.70216783 43.62451172 795.67919922 C41.71695652 795.67791537 41.71695652 795.67791537 39.77086484 795.67660558 C27.5366716 795.66837062 15.30251232 795.65706739 3.0683465 795.62918711 C-1.34286089 795.61994582 -5.75406758 795.61450332 -10.16528201 795.60991406 C-12.21034056 795.60681322 -14.25539724 795.6018966 -16.30044675 795.59507251 C-19.07739232 795.58588267 -21.85428218 795.58266907 -24.63124084 795.58091736 C-25.44639253 795.57663603 -26.26154421 795.5723547 -27.10139745 795.56794363 C-31.11841606 795.47870362 -31.11841606 795.47870362 -34.875 796.6875 C-34.875 796.0275 -34.875 795.3675 -34.875 794.6875 C-126.285 794.6875 -217.695 794.6875 -311.875 794.6875 C-312.205 795.3475 -312.535 796.0075 -312.875 796.6875 C-312.875 796.0275 -312.875 795.3675 -312.875 794.6875 C-313.9475 794.605 -315.02 794.5225 -316.125 794.4375 C-320.18220568 793.62605886 -321.36959594 792.86743592 -323.875 789.6875 C-325.5996216 786.2382568 -325.24110104 782.46618569 -324.875 778.6875 C-323.66107861 775.83478472 -322.80643087 774.29964606 -320.22265625 772.6015625 C-316.99738778 771.34580073 -314.01189711 771.21147058 -310.5625 771 C-309.28761719 770.91363281 -308.01273438 770.82726562 -306.69921875 770.73828125 C-302.90368746 770.68788094 -299.60055121 771.04649313 -295.875 771.6875 C-295.89820313 770.41519531 -295.92140625 769.14289062 -295.9453125 767.83203125 C-296.16731808 750.43714321 -295.85396486 733.56582516 -289.99609375 717.03515625 C-288.77835243 713.76291525 -288.77835243 713.76291525 -288.47265625 710.49609375 C-287.73210671 707.01599494 -286.4686937 706.05887709 -283.875 703.6875 C-282.51136792 701.70803408 -281.18081356 699.7055755 -279.875 697.6875 C-266.60412698 678.00999863 -246.41002191 665.40847145 -223.875 658.6875 C-223.215 658.3575 -222.555 658.0275 -221.875 657.6875 C-206.51065562 654.53170513 -190.46958231 655.49653394 -174.875 655.6875 C-175.205 654.6975 -175.535 653.7075 -175.875 652.6875 C-175.97113766 650.10338167 -176.01144571 647.54650124 -176.00439453 644.96240234 C-176.00702301 643.783741 -176.00702301 643.783741 -176.00970459 642.58126831 C-176.01411185 639.97863568 -176.01118735 637.37607085 -176.0078125 634.7734375 C-176.00848627 632.96082547 -176.0094569 631.14821353 -176.01071167 629.33560181 C-176.01218745 625.53085472 -176.01003941 621.72613108 -176.00537109 617.92138672 C-175.99969824 613.06279296 -176.00293799 608.20425475 -176.00894356 603.34566307 C-176.01257323 599.59827259 -176.01139914 595.85089507 -176.00881577 592.10350418 C-176.00815188 590.31348285 -176.00895599 588.52346032 -176.01129532 586.7334404 C-176.0138587 584.21858403 -176.00992873 581.70381479 -176.00439453 579.18896484 C-176.00641876 578.4592749 -176.00844299 577.72958496 -176.01052856 576.9777832 C-175.94778119 561.44579217 -175.94778119 561.44579217 -170.875 555.6875 C-165.36472728 552.0169331 -159.90072346 552.14453247 -153.5 552 C-152.47777344 551.96583984 -151.45554687 551.93167969 -150.40234375 551.89648438 C-147.89333886 551.81441412 -145.38466535 551.74513124 -142.875 551.6875 C-142.875 550.82471436 -142.875 549.96192871 -142.875 549.07299805 C-142.875 539.27783203 -142.875 529.48266602 -142.875 519.6875 C-142.89820313 518.67300781 -142.92140625 517.65851562 -142.9453125 516.61328125 C-143.04714982 509.88474408 -142.81867682 504.12592947 -140.875 497.6875 C-140.875 496.6975 -140.875 495.7075 -140.875 494.6875 C-133.94076829 491.66754488 -128.36471867 489.76157234 -120.875 491.6875 C-120.215 492.0175 -119.555 492.3475 -118.875 492.6875 C-118.545 491.3675 -118.215 490.0475 -117.875 488.6875 C-117.545 489.3475 -117.215 490.0075 -116.875 490.6875 C-117.205 491.3475 -117.535 492.0075 -117.875 492.6875 C-117.215 492.6875 -116.555 492.6875 -115.875 492.6875 C-115.875 486.4175 -115.875 480.1475 -115.875 473.6875 C-115.215 473.6875 -114.555 473.6875 -113.875 473.6875 C-113.88515137 472.84487106 -113.89530273 472.00224213 -113.90576172 471.13407898 C-113.96444014 462.44836219 -113.60842472 453.8727767 -113 445.20703125 C-112.90973469 443.86012102 -112.82006793 442.51317057 -112.73095703 441.16618347 C-112.35708233 435.53298015 -111.97134063 429.90060069 -111.58398438 424.26831055 C-111.29974107 420.1232898 -111.0215265 415.97790466 -110.75 411.83203125 C-110.70637329 411.16633244 -110.66274658 410.50063362 -110.61779785 409.81476212 C-109.92595643 399.09070684 -109.6263586 388.4300171 -109.875 377.6875 C-109.545 377.6875 -109.215 377.6875 -108.875 377.6875 C-108.21816095 368.37707043 -107.56588174 359.0663354 -106.91924286 349.7551918 C-106.6187657 345.43054996 -106.31678475 341.10602461 -106.01123047 336.78173828 C-105.71579564 332.59984611 -105.42448943 328.41768405 -105.13591003 324.23531342 C-105.02572738 322.64862784 -104.91411753 321.06204064 -104.80097961 319.47556305 C-104.22169683 311.33943507 -103.74214391 303.26452434 -103.9342041 295.1005249 C-103.87736314 292.78381622 -103.48858365 290.90984489 -102.875 288.6875 C-102.78342406 286.85598121 -102.74496209 285.02129984 -102.75 283.1875 C-102.74742187 282.2490625 -102.74484375 281.310625 -102.7421875 280.34375 C-102.86107132 277.9660737 -103.19948278 275.96066904 -103.875 273.6875 C-102.885 273.6875 -101.895 273.6875 -100.875 273.6875 C-100.89113342 273.01168381 -100.90726685 272.33586761 -100.92388916 271.63957214 C-101.06451087 260.40727222 -100.237533 249.25155278 -99.484375 238.05078125 C-99.33793863 235.82602762 -99.1918693 233.60124981 -99.04614258 231.37644958 C-98.65787028 225.46670496 -98.26422088 219.55733167 -97.86888123 213.64805603 C-97.54336614 208.77889371 -97.21983073 203.90960058 -96.89621353 199.04031181 C-96.33466958 190.59132556 -95.77237933 182.14239097 -95.20648193 173.69369507 C-94.36866669 161.17719117 -93.54788689 148.65993312 -92.7621994 136.14005089 C-92.46565188 131.43848318 -92.16012312 126.7374931 -91.85510254 122.03646851 C-91.70293051 119.65638904 -91.55499207 117.27603474 -91.41149902 114.89541626 C-91.2180094 111.6950485 -91.00945399 108.49602228 -90.796875 105.296875 C-90.74708496 104.40407333 -90.69729492 103.51127167 -90.64599609 102.59141541 C-90.06679779 94.34113513 -87.45881944 88.82388591 -81.875 82.625 C-80.88067323 81.4862394 -79.88855073 80.34555102 -78.8984375 79.203125 C-78.3940918 78.62240234 -77.88974609 78.04167969 -77.37011719 77.44335938 C-74.99458971 74.65354984 -72.74581827 71.76953704 -70.5 68.875 C-65.83346831 62.86837101 -61.05296273 56.96275861 -56.20166016 51.10424805 C-53.95645011 48.36918031 -51.92850832 45.7781536 -50.125 42.72265625 C-49.7125 42.05105469 -49.3 41.37945312 -48.875 40.6875 C-48.215 40.6875 -47.555 40.6875 -46.875 40.6875 C-46.60042969 40.10355469 -46.32585937 39.51960938 -46.04296875 38.91796875 C-44.90994328 36.75423115 -43.66974129 34.93706601 -42.1875 33 C-41.65833984 32.30696777 -41.12917969 31.61393555 -40.58398438 30.89990234 C-40.02001953 30.16980957 -39.45605469 29.4397168 -38.875 28.6875 C-38.29556641 27.93291504 -37.71613281 27.17833008 -37.11914062 26.40087891 C-32.86253438 20.88812895 -28.46477207 15.51966748 -23.953125 10.21484375 C-22.19529941 8.07703706 -20.64211957 5.93428644 -19.125 3.625 C-13.81213077 -3.31124594 -7.4541944 -3.40300179 0 0 Z M-102.875 274.6875 C-101.875 276.6875 -101.875 276.6875 -101.875 276.6875 Z " fill="#010303" transform="translate(519.875,102.3125)"/>
<path d="M0 0 C38.28 0 76.56 0 116 0 C116.61337725 3.6802635 117.1444976 7.04119921 117.39031982 10.71435547 C117.45178192 11.61116531 117.51324402 12.50797516 117.5765686 13.43196106 C117.63992401 14.40058578 117.70327942 15.36921051 117.76855469 16.3671875 C117.87376938 17.92157784 117.87376938 17.92157784 117.98110962 19.50737 C118.21425543 22.96305916 118.44310397 26.41901866 118.671875 29.875 C118.83760301 32.34759007 119.00356269 34.82016462 119.16973877 37.29272461 C119.52122829 42.53178089 119.87082874 47.77095961 120.21875 53.01025391 C120.64725101 59.46283556 121.07925418 65.9151778 121.51257706 72.36743736 C123.10280704 96.05474425 124.67092803 119.74333295 126.17871094 143.43603516 C126.22851577 144.21850561 126.2783206 145.00097607 126.32963467 145.80715775 C126.53338823 149.00865915 126.73707838 152.21016458 126.94074869 155.41167128 C129.57118418 196.75643175 132.35894329 238.08940339 135.2027986 279.41998887 C136.18743932 293.73069127 137.16872309 308.04162427 138.14990067 322.35256445 C138.49104907 327.32746865 138.83282548 332.30232913 139.17520189 337.27714896 C139.38639901 340.34692267 139.59720837 343.41672293 139.80794334 346.4865284 C139.90410527 347.88603592 140.00043322 349.28553206 140.09695625 350.68501472 C140.77067854 360.45460635 141.38912302 370.22596829 142 380 C86.89 380 31.78 380 -25 380 C-25 365.37755523 -25 365.37755523 -24.56030273 359.15991211 C-24.51286958 358.47077445 -24.46543642 357.78163679 -24.4165659 357.07161617 C-24.25970178 354.80654894 -24.09659956 352.54197653 -23.93359375 350.27734375 C-23.81790627 348.62056584 -23.70268666 346.9637552 -23.58789062 345.30691528 C-23.33963598 341.7335872 -23.08888181 338.16044714 -22.83615112 334.58743286 C-22.13966308 324.73357013 -21.46120553 314.87845218 -20.78125 305.0234375 C-20.70931364 303.98279459 -20.63737728 302.94215168 -20.56326103 301.86997414 C-18.85190145 277.09654838 -17.25331819 252.31603141 -15.66070557 227.53473663 C-13.55652378 194.80160549 -11.42165592 162.07157246 -9.14437866 129.3500061 C-7.83880266 110.58442049 -6.59289361 91.81572618 -5.39453125 73.04296875 C-5.2563438 70.88151542 -5.11815512 68.72006218 -4.97996521 66.55860901 C-4.36841683 56.98460643 -3.75935491 47.41046138 -3.1583662 37.83578968 C-2.9111026 33.90610048 -2.66119283 29.97658245 -2.41069603 26.04709816 C-2.29414126 24.20844078 -2.17881541 22.36970505 -2.0647831 20.53088951 C-1.90791167 18.00248422 -1.74691198 15.47437332 -1.58496094 12.94628906 C-1.5402941 12.20914453 -1.49562727 11.47199999 -1.4496069 10.71251774 C-1.20859817 7.01965641 -0.73029399 3.65146994 0 0 Z " fill="#E3C38D" transform="translate(454,215)"/>
<path d="M0 0 C1.59948727 -0.00330372 3.19897371 -0.00703035 4.79845911 -0.01114148 C9.17858741 -0.02111157 13.558702 -0.02487017 17.93884003 -0.02753079 C22.66913753 -0.03144865 27.39942434 -0.0410258 32.12971497 -0.04974365 C43.54476049 -0.0694647 54.95980685 -0.07956801 66.37486514 -0.08847144 C71.75747459 -0.09286086 77.14008305 -0.09822591 82.52269173 -0.10346031 C100.42691182 -0.12046703 118.33113131 -0.13496029 136.23535824 -0.14220905 C140.8768406 -0.14411877 145.51832296 -0.14603913 150.1598053 -0.147995 C151.89011236 -0.14872061 151.89011236 -0.14872061 153.65537513 -0.14946087 C172.3341682 -0.15775795 191.01289716 -0.18309194 209.69166224 -0.21557567 C228.89094605 -0.24869111 248.09019732 -0.2666618 267.28950983 -0.26985329 C278.06025425 -0.27201406 288.83090513 -0.28069937 299.60162163 -0.30631447 C308.77562289 -0.32808266 317.94950789 -0.33604181 327.12353205 -0.32634769 C331.79820558 -0.3218209 336.4726395 -0.3235942 341.14727974 -0.34310913 C345.43912896 -0.36087018 349.73056608 -0.35963967 354.02242047 -0.34421184 C355.56284345 -0.34185524 357.10329596 -0.34605623 358.64367413 -0.35804049 C381.11151566 -0.52180586 402.03516485 5.36263494 419.27088928 20.14717102 C420.00823303 20.77236633 420.74557678 21.39756165 421.50526428 22.04170227 C432.35589798 32.03017322 438.42015555 45.89350237 441.27088928 60.14717102 C441.27088928 71.03717102 441.27088928 81.92717102 441.27088928 93.14717102 C267.69088928 93.14717102 94.11088928 93.14717102 -84.72911072 93.14717102 C-84.72911072 42.44399642 -84.72911072 42.44399642 -65.72911072 22.14717102 C-47.51911748 4.31293954 -24.6062682 -0.00461751 0 0 Z " fill="#66A76E" transform="translate(333.72911071777344,780.8528289794922)"/>
<path d="M0 0 C93.72 0 187.44 0 284 0 C284 26.4 284 52.8 284 80 C190.28 80 96.56 80 0 80 C0 53.6 0 27.2 0 0 Z " fill="#546762" transform="translate(369,679)"/>
<path d="M0 0 C0.71241852 -0.0065712 1.42483704 -0.0131424 2.15884399 -0.01991272 C4.52158714 -0.039657 6.88426664 -0.05131188 9.24707031 -0.0612793 C10.05415688 -0.06535482 10.86124344 -0.06943035 11.69278717 -0.07362938 C15.96608729 -0.09449676 20.23935525 -0.10879453 24.51269531 -0.11816406 C28.92230029 -0.12921901 33.33139932 -0.16360602 37.74082565 -0.20333576 C41.13467329 -0.2295114 44.52840069 -0.23785681 47.92234039 -0.24144554 C49.54741068 -0.24631051 51.17247564 -0.25792205 52.7974472 -0.27648354 C55.07630673 -0.3008922 57.35386165 -0.29990734 59.6328125 -0.29296875 C60.92805847 -0.29883499 62.22330444 -0.30470123 63.55780029 -0.31074524 C69.02573101 0.44747721 71.86724606 2.77804489 75.4188385 6.89123535 C77.51367684 11.04683141 77.63352874 14.16613787 77.5769043 18.74926758 C77.58500877 20.00896614 77.58500877 20.00896614 77.59327698 21.29411316 C77.60573777 24.05752297 77.58929114 26.8198855 77.57128906 29.58325195 C77.57144411 31.51086481 77.57293408 33.43847798 77.57569885 35.36608887 C77.57708166 39.40101954 77.56454451 43.43559423 77.54174805 47.47045898 C77.51336389 52.6354593 77.51610238 57.79986835 77.52883816 62.96491241 C77.53580212 66.94383774 77.52799783 70.92262707 77.51558113 74.90153503 C77.51107361 76.80567401 77.5107237 78.70982762 77.51464653 80.6139679 C77.51756578 83.27786043 77.50101785 85.94094593 77.47924805 88.60473633 C77.48374969 89.38725266 77.48825134 90.16976898 77.4928894 90.97599792 C77.42819385 95.75475289 76.69385151 99.02872324 74.07519531 103.17700195 C68.93995712 106.99551241 64.47462798 107.30341802 58.19873047 107.33813477 C57.17355568 107.34558212 57.17355568 107.34558212 56.12767029 107.35317993 C53.87318911 107.36775036 51.61877828 107.37459461 49.36425781 107.38012695 C47.79251098 107.38588217 46.22076415 107.39163986 44.64901733 107.3973999 C41.35552647 107.40789501 38.06205991 107.41374756 34.76855469 107.41723633 C30.55639038 107.42272105 26.34454931 107.44675469 22.13248634 107.47520828 C18.8861905 107.49386606 15.63997209 107.4990419 12.39362717 107.5005722 C10.84114183 107.50359166 9.28865762 107.5115963 7.73622513 107.52475739 C5.56071863 107.54188588 3.38599649 107.53992168 1.21044922 107.53344727 C-0.02546967 107.5370929 -1.26138855 107.54073853 -2.53475952 107.54449463 C-7.56832367 106.99883878 -10.81099326 105.38112242 -14.23730469 101.67700195 C-17.21726053 97.26225255 -17.07852401 93.26595106 -17.0859375 88.12890625 C-17.0909024 87.30905243 -17.09586731 86.48919861 -17.10098267 85.64450073 C-17.11559694 82.93006554 -17.12240527 80.21568879 -17.12792969 77.5012207 C-17.133682 75.61416116 -17.13943972 73.72710163 -17.14520264 71.84004211 C-17.15571071 67.88147713 -17.16155456 63.92293244 -17.16503906 59.96435547 C-17.17052161 54.89686093 -17.19454534 49.82963537 -17.22301102 44.76222515 C-17.24165367 40.86311566 -17.24684388 36.96407072 -17.24837494 33.06492043 C-17.25139861 31.19704532 -17.2594175 29.32917127 -17.27256012 27.46133995 C-17.28965371 24.84511351 -17.28773229 22.22954119 -17.28125 19.61328125 C-17.29046478 18.84475327 -17.29967957 18.07622528 -17.30917358 17.28440857 C-17.27210989 12.49856802 -16.46565768 9.23718278 -13.92480469 5.17700195 C-9.06552658 0.79179976 -6.49395073 0.04947729 0 0 Z " fill="#020404" transform="translate(480.9248046875,461.822998046875)"/>
<path d="M0 0 C72.93 0 145.86 0 221 0 C221 12.87 221 25.74 221 39 C148.07 39 75.14 39 0 39 C0 26.13 0 13.26 0 0 Z " fill="#7F7F7E" transform="translate(401,618)"/>
<path d="M0 0 C16.5 0 33 0 50 0 C50 19.8 50 39.6 50 60 C33.5 60 17 60 0 60 C0 40.2 0 20.4 0 0 Z " fill="#E3C28B" transform="translate(486,485)"/>
<path d="M0 0 C3.63733907 3.50766566 6.85163921 7.18284156 9.9375 11.1875 C10.40349609 11.78626953 10.86949219 12.38503906 11.34960938 13.00195312 C12.363327 14.30530436 13.37547621 15.60987667 14.38623047 16.91552734 C16.06816888 19.08805232 17.75427508 21.25728678 19.44140625 23.42578125 C21.22352989 25.71641661 23.00554501 28.00713396 24.78662109 30.29858398 C28.53650438 35.12259339 32.29218624 39.94193736 36.0625 44.75 C36.49111328 45.29785156 36.91972656 45.84570312 37.36132812 46.41015625 C39.45741068 49.07910182 41.59452999 51.69485528 43.80859375 54.265625 C46 57 46 57 46 59 C15.97 59 -14.06 59 -45 59 C-42.21121574 54.11962755 -40.11196255 50.70718121 -36.5625 46.625 C-32.46224305 41.8259408 -28.56605436 36.90268335 -24.75 31.875 C-20.01432247 25.63876936 -15.24772724 19.42898081 -10.4375 13.25 C-9.85387695 12.49960449 -9.27025391 11.74920898 -8.66894531 10.97607422 C-5.80384204 7.29726823 -2.92428783 3.63212278 0 0 Z " fill="#E3C38C" transform="translate(511,133)"/>
<path d="M0 0 C72.93 0 145.86 0 221 0 C221 12.87 221 25.74 221 39 C148.07 39 75.14 39 0 39 C0 26.13 0 13.26 0 0 Z M1 2 C1 13.55 1 25.1 1 37 C72.94 37 144.88 37 219 37 C219 25.45 219 13.9 219 2 C147.06 2 75.12 2 1 2 Z " fill="#969594" transform="translate(401,618)"/>
<path d="M0 0 C16.5 0 33 0 50 0 C50 19.8 50 39.6 50 60 C33.5 60 17 60 0 60 C0 40.2 0 20.4 0 0 Z M2 2 C2 20.81 2 39.62 2 59 C17.51 59 33.02 59 49 59 C49 40.19 49 21.38 49 2 C33.49 2 17.98 2 2 2 Z " fill="#F9EEBA" transform="translate(486,485)"/>
<path d="M0 0 C3.59527627 3.49880195 6.86455045 7.12489576 10.0625 11 C10.89910156 12.010625 11.73570312 13.02125 12.59765625 14.0625 C13.39042969 15.031875 14.18320312 16.00125 15 17 C15.76183594 17.9075 16.52367187 18.815 17.30859375 19.75 C19 22 19 22 19 24 C-11.03 24 -41.06 24 -72 24 C-69 19 -69 19 -67 18 C-67.33 18.99 -67.66 19.98 -68 21 C-40.61 21 -13.22 21 15 21 C7.52773162 11.47801348 7.52773162 11.47801348 0 2 C0 1.34 0 0.68 0 0 Z " fill="#F6E8B4" transform="translate(538,168)"/>
<path d="M0 0 C0.33 0.66 0.66 1.32 1 2 C-0.47169811 5.73584906 -0.47169811 5.73584906 -3 7 C-3.45375 7.9075 -3.9075 8.815 -4.375 9.75 C-5.94931976 12.89863952 -7.72399205 15.33157688 -10 18 C-11.32 17.67 -12.64 17.34 -14 17 C-13.32453125 16.19175781 -12.6490625 15.38351563 -11.953125 14.55078125 C-11.05205664 13.47137645 -10.15101648 12.39194811 -9.25 11.3125 C-8.8065625 10.78205078 -8.363125 10.25160156 -7.90625 9.70507812 C-5.23206912 6.49999369 -2.59593445 3.26917914 0 0 Z " fill="#E6D19D" transform="translate(491,159)"/>
<path d="M0 0 C0.33 0 0.66 0 1 0 C1.1170409 9.40228594 0.88495497 18.62895894 0 28 C-0.33 28 -0.66 28 -1 28 C-1.2260865 24.08414605 -1.42778506 20.16740577 -1.625 16.25 C-1.68945312 15.13882812 -1.75390625 14.02765625 -1.8203125 12.8828125 C-1.871875 11.81289063 -1.9234375 10.74296875 -1.9765625 9.640625 C-2.02893066 8.65610352 -2.08129883 7.67158203 -2.13525391 6.65722656 C-1.99441807 3.8903362 -1.42542979 2.34490497 0 0 Z " fill="#DBBD85" transform="translate(440,445)"/>
<path d="M0 0 C0.33 0 0.66 0 1 0 C1 4.95 1 9.9 1 15 C-2.70031458 10.06624722 -2.46799924 8.89679045 -2 3 C-1.34 2.01 -0.68 1.02 0 0 Z " fill="#CFB27F" transform="translate(450,293)"/>
<path d="M0 0 C0.68707555 2.49064888 1 4.37886292 1 7 C0.34 7 -0.32 7 -1 7 C-1.33 9.64 -1.66 12.28 -2 15 C-2.33 15 -2.66 15 -3 15 C-3.36263859 9.1977825 -2.25684543 5.36000789 0 0 Z " fill="#7DC988" transform="translate(253,827)"/>
<path d="M0 0 C3 3 3 3 3.375 6.4375 C3 10 3 10 0 14 C0 9.38 0 4.76 0 0 Z " fill="#D3B682" transform="translate(589,531)"/>
<path d="M0 0 C0 3.63 0 7.26 0 11 C-0.99 10.34 -1.98 9.68 -3 9 C-3.40843923 6.28796348 -3.13336867 3.7562858 -3 1 C-1 0 -1 0 0 0 Z " fill="#CFB785" transform="translate(439,475)"/>
<path d="M0 0 C0.99 0.33 1.98 0.66 3 1 C3 3.64 3 6.28 3 9 C2.01 9.495 2.01 9.495 1 10 C0.67 6.7 0.34 3.4 0 0 Z " fill="#D1B884" transform="translate(430,567)"/>
<path d="M0 0 C1 2 1 2 0.375 3.9375 C-1.35198322 6.52797483 -3.2734275 7.56496184 -6 9 C-4.47291037 5.56404834 -2.40072955 2.88087546 0 0 Z " fill="#EFE1B0" transform="translate(491,159)"/>
<path d="M0 0 C0.33 0 0.66 0 1 0 C1 1.98 1 3.96 1 6 C0.67 6 0.34 6 0 6 C0 4.02 0 2.04 0 0 Z " fill="#272B26" transform="translate(408,500)"/>
<path d="M0 0 C0.33 0 0.66 0 1 0 C1 1.98 1 3.96 1 6 C0.67 6 0.34 6 0 6 C0 4.02 0 2.04 0 0 Z " fill="#252A24" transform="translate(409,486)"/>
<path d="M0 0 C0.66 0 1.32 0 2 0 C2 1.65 2 3.3 2 5 C0 1.125 0 1.125 0 0 Z " fill="#212521" transform="translate(416,367)"/>
<path d="M0 0 C0.33 0 0.66 0 1 0 C1 1.65 1 3.3 1 5 C0.67 5 0.34 5 0 5 C0 3.35 0 1.7 0 0 Z " fill="#212521" transform="translate(418,352)"/>
<path d="M0 0 C0.66 0.66 1.32 1.32 2 2 C1.01 1.67 0.02 1.34 -1 1 C-0.67 0.67 -0.34 0.34 0 0 Z " fill="#2A362C" transform="translate(598,898)"/>
<path d="M0 0 C0.66 0.66 1.32 1.32 2 2 C1.01 2.495 1.01 2.495 0 3 C0 2.01 0 1.02 0 0 Z " fill="#2B352C" transform="translate(519,898)"/>
<path d="M0 0 C0.99 0.33 1.98 0.66 3 1 C2.01 1 1.02 1 0 1 C0 0.67 0 0.34 0 0 Z " fill="#28322A" transform="translate(797,898)"/>
<path d="M0 0 C0.99 0.495 0.99 0.495 2 1 C1.34 1.66 0.68 2.32 0 3 C0 2.01 0 1.02 0 0 Z " fill="#202A24" transform="translate(237,800)"/>
<path d="M0 0 C0 3 0 3 0 3 Z " fill="#1B231E" transform="translate(679,753)"/>
<path d="M0 0 C1 4 1 4 1 4 Z " fill="#1C231F" transform="translate(647,648)"/>
<path d="M0 0 C1 4 1 4 1 4 Z " fill="#252A25" transform="translate(403,579)"/>
<path d="M0 0 C1 4 1 4 1 4 Z " fill="#1F2420" transform="translate(607,384)"/>
<path d="M0 0 C0.66 0 1.32 0 2 0 C1.67 0.99 1.34 1.98 1 3 C0.67 2.01 0.34 1.02 0 0 Z " fill="#222521" transform="translate(558,150)"/>
<path d="M0 0 C0.66 0.66 1.32 1.32 2 2 C1.34 2 0.68 2 0 2 C0 1.34 0 0.68 0 0 Z " fill="#28352C" transform="translate(404,902)"/>
<path d="M0 0 C0.99 0.495 0.99 0.495 2 1 C1.01 1.495 1.01 1.495 0 2 C0 1.34 0 0.68 0 0 Z " fill="#29352C" transform="translate(743,899)"/>
<path d="" fill="#29352D" transform="translate(0,0)"/>
<path d="M0 0 C0.66 0.66 1.32 1.32 2 2 C1.34 2 0.68 2 0 2 C0 1.34 0 0.68 0 0 Z " fill="#27322A" transform="translate(215,898)"/>
<path d="M0 0 C3 1 3 1 3 1 Z " fill="#27332A" transform="translate(789,898)"/>
<path d="M0 0 C0.66 0 1.32 0 2 0 C1.67 0.66 1.34 1.32 1 2 C0.67 1.34 0.34 0.68 0 0 Z " fill="#29352D" transform="translate(653,898)"/>
<path d="M0 0 C3 1 3 1 3 1 Z " fill="#222823" transform="translate(631,592)"/>
<path d="M0 0 C3 1 3 1 3 1 Z " fill="#212520" transform="translate(623,592)"/>
<path d="M0 0 C0.66 0 1.32 0 2 0 C1.67 0.66 1.34 1.32 1 2 C0.67 1.34 0.34 0.68 0 0 Z " fill="#262C26" transform="translate(404,557)"/>
<path d="" fill="#272B25" transform="translate(0,0)"/>
<path d="" fill="#252B26" transform="translate(0,0)"/>
<path d="" fill="#212520" transform="translate(0,0)"/>
<path d="" fill="#222522" transform="translate(0,0)"/>
<path d="" fill="#242822" transform="translate(0,0)"/>
<path d="M0 0 C0.99 0.495 0.99 0.495 2 1 C1.01 1.495 1.01 1.495 0 2 C0 1.34 0 0.68 0 0 Z " fill="#232524" transform="translate(449,168)"/>
<path d="" fill="#28342C" transform="translate(0,0)"/>
<path d="" fill="#27352B" transform="translate(0,0)"/>
<path d="" fill="#29362E" transform="translate(0,0)"/>
<path d="" fill="#28352C" transform="translate(0,0)"/>
<path d="M0 0 C2 1 2 1 2 1 Z " fill="#283229" transform="translate(246,900)"/>
<path d="M0 0 C2 1 2 1 2 1 Z " fill="#28332B" transform="translate(806,899)"/>
<path d="M0 0 C2 1 2 1 2 1 Z " fill="#29352A" transform="translate(646,899)"/>
<path d="M0 0 C2 1 2 1 2 1 Z " fill="#2A352A" transform="translate(641,899)"/>
<path d="M0 0 C2 1 2 1 2 1 Z " fill="#2A352C" transform="translate(591,899)"/>
<path d="M0 0 C2 1 2 1 2 1 Z " fill="#29342C" transform="translate(582,899)"/>
<path d="M0 0 C2 1 2 1 2 1 Z " fill="#2A352C" transform="translate(558,899)"/>
<path d="M0 0 C2 1 2 1 2 1 Z " fill="#29342B" transform="translate(524,899)"/>
<path d="M0 0 C2 1 2 1 2 1 Z " fill="#29352D" transform="translate(359,899)"/>
<path d="" fill="#28312A" transform="translate(0,0)"/>
<path d="M0 0 C2 1 2 1 2 1 Z " fill="#29372F" transform="translate(572,898)"/>
<path d="M0 0 C2 1 2 1 2 1 Z " fill="#29352C" transform="translate(453,898)"/>
<path d="M0 0 C2 1 2 1 2 1 Z " fill="#29362E" transform="translate(331,898)"/>
<path d="" fill="#242D26" transform="translate(0,0)"/>
<path d="M0 0 C2 1 2 1 2 1 Z " fill="#222D26" transform="translate(819,872)"/>
<path d="M0 0 C2 1 2 1 2 1 Z " fill="#1C2421" transform="translate(804,872)"/>
<path d="M0 0 C2 1 2 1 2 1 Z " fill="#1B2521" transform="translate(214,872)"/>
<path d="" fill="#222A23" transform="translate(0,0)"/>
<path d="" fill="#212A23" transform="translate(0,0)"/>
<path d="" fill="#222B23" transform="translate(0,0)"/>
<path d="" fill="#222C24" transform="translate(0,0)"/>
<path d="M0 0 C2 1 2 1 2 1 Z " fill="#202821" transform="translate(232,800)"/>
<path d="M0 0 C2 1 2 1 2 1 Z " fill="#212821" transform="translate(760,776)"/>
<path d="M0 0 C2 1 2 1 2 1 Z " fill="#1E2722" transform="translate(273,768)"/>
<path d="M0 0 C2 1 2 1 2 1 Z " fill="#1E261E" transform="translate(731,761)"/>
<path d="" fill="#202621" transform="translate(0,0)"/>
<path d="" fill="#252A24" transform="translate(0,0)"/>
<path d="M0 0 C2 1 2 1 2 1 Z " fill="#222823" transform="translate(401,588)"/>
<path d="" fill="#222923" transform="translate(0,0)"/>
<path d="" fill="#282C26" transform="translate(0,0)"/>
<path d="" fill="#272B26" transform="translate(0,0)"/>
<path d="" fill="#272825" transform="translate(0,0)"/>
<path d="" fill="#262A25" transform="translate(0,0)"/>
<path d="" fill="#262B25" transform="translate(0,0)"/>
<path d="" fill="#262C26" transform="translate(0,0)"/>
<path d="" fill="#282C26" transform="translate(0,0)"/>
<path d="" fill="#222520" transform="translate(0,0)"/>
<path d="" fill="#232722" transform="translate(0,0)"/>
<path d="M0 0 C2 1 2 1 2 1 Z " fill="#222723" transform="translate(418,348)"/>
<path d="" fill="#222723" transform="translate(0,0)"/>
<path d="" fill="#232823" transform="translate(0,0)"/>
<path d="" fill="#232724" transform="translate(0,0)"/>
<path d="" fill="#202522" transform="translate(0,0)"/>
<path d="" fill="#222622" transform="translate(0,0)"/>
<path d="" fill="#232722" transform="translate(0,0)"/>
<path d="" fill="#242923" transform="translate(0,0)"/>
<path d="" fill="#272925" transform="translate(0,0)"/>
<path d="" fill="#232621" transform="translate(0,0)"/>
<path d="" fill="#282C28" transform="translate(0,0)"/>
<path d="" fill="#3D483F" transform="translate(0,0)"/>
<path d="" fill="#3B463D" transform="translate(0,0)"/>
<path d="" fill="#38473C" transform="translate(0,0)"/>
<path d="" fill="#38453B" transform="translate(0,0)"/>
<path d="" fill="#37473B" transform="translate(0,0)"/>
<path d="" fill="#39473B" transform="translate(0,0)"/>
<path d="" fill="#37453B" transform="translate(0,0)"/>
<path d="" fill="#38473A" transform="translate(0,0)"/>
<path d="" fill="#38483C" transform="translate(0,0)"/>
<path d="" fill="#38473B" transform="translate(0,0)"/>
<path d="" fill="#39463C" transform="translate(0,0)"/>
<path d="" fill="#37473C" transform="translate(0,0)"/>
<path d="" fill="#3D463F" transform="translate(0,0)"/>
<path d="" fill="#38453B" transform="translate(0,0)"/>
<path d="" fill="#37433A" transform="translate(0,0)"/>
<path d="" fill="#38463B" transform="translate(0,0)"/>
<path d="" fill="#3D483F" transform="translate(0,0)"/>
<path d="" fill="#3C473D" transform="translate(0,0)"/>
<path d="" fill="#364439" transform="translate(0,0)"/>
<path d="" fill="#364538" transform="translate(0,0)"/>
<path d="" fill="#36463A" transform="translate(0,0)"/>
<path d="" fill="#344339" transform="translate(0,0)"/>
<path d="" fill="#354338" transform="translate(0,0)"/>
<path d="" fill="#354338" transform="translate(0,0)"/>
<path d="" fill="#364339" transform="translate(0,0)"/>
<path d="" fill="#39443A" transform="translate(0,0)"/>
<path d="" fill="#334236" transform="translate(0,0)"/>
<path d="" fill="#3A443C" transform="translate(0,0)"/>
<path d="" fill="#333F36" transform="translate(0,0)"/>
<path d="" fill="#323F36" transform="translate(0,0)"/>
<path d="" fill="#314035" transform="translate(0,0)"/>
<path d="" fill="#324035" transform="translate(0,0)"/>
<path d="" fill="#434A44" transform="translate(0,0)"/>
<path d="" fill="#3B443C" transform="translate(0,0)"/>
<path d="" fill="#323C33" transform="translate(0,0)"/>
<path d="" fill="#2F3D33" transform="translate(0,0)"/>
<path d="" fill="#2F3D34" transform="translate(0,0)"/>
<path d="" fill="#2F3F34" transform="translate(0,0)"/>
<path d="" fill="#303F34" transform="translate(0,0)"/>
<path d="" fill="#2F3E34" transform="translate(0,0)"/>
<path d="" fill="#303C33" transform="translate(0,0)"/>
<path d="" fill="#2F3A32" transform="translate(0,0)"/>
<path d="" fill="#434943" transform="translate(0,0)"/>
<path d="" fill="#2D3C32" transform="translate(0,0)"/>
<path d="" fill="#2D3B31" transform="translate(0,0)"/>
<path d="" fill="#2E3A30" transform="translate(0,0)"/>
<path d="" fill="#2D3B30" transform="translate(0,0)"/>
<path d="" fill="#2E3C31" transform="translate(0,0)"/>
<path d="" fill="#2E3C31" transform="translate(0,0)"/>
<path d="" fill="#2C382F" transform="translate(0,0)"/>
<path d="" fill="#27372D" transform="translate(0,0)"/>
<path d="" fill="#27352C" transform="translate(0,0)"/>
<path d="" fill="#28342A" transform="translate(0,0)"/>
<path d="" fill="#29352B" transform="translate(0,0)"/>
<path d="" fill="#28342E" transform="translate(0,0)"/>
<path d="" fill="#27332B" transform="translate(0,0)"/>
<path d="" fill="#29352A" transform="translate(0,0)"/>
<path d="" fill="#27362C" transform="translate(0,0)"/>
<path d="" fill="#29342B" transform="translate(0,0)"/>
<path d="" fill="#28362B" transform="translate(0,0)"/>
<path d="" fill="#2A362C" transform="translate(0,0)"/>
<path d="" fill="#29362D" transform="translate(0,0)"/>
<path d="" fill="#29362E" transform="translate(0,0)"/>
<path d="" fill="#29372D" transform="translate(0,0)"/>
<path d="" fill="#28362E" transform="translate(0,0)"/>
<path d="" fill="#28352B" transform="translate(0,0)"/>
<path d="" fill="#29342D" transform="translate(0,0)"/>
<path d="" fill="#28332A" transform="translate(0,0)"/>
<path d="" fill="#29322A" transform="translate(0,0)"/>
<path d="" fill="#2A362D" transform="translate(0,0)"/>
<path d="" fill="#2B362C" transform="translate(0,0)"/>
<path d="" fill="#2A362E" transform="translate(0,0)"/>
<path d="" fill="#28352C" transform="translate(0,0)"/>
<path d="" fill="#28352D" transform="translate(0,0)"/>
<path d="" fill="#29342C" transform="translate(0,0)"/>
<path d="" fill="#253129" transform="translate(0,0)"/>
<path d="" fill="#2A362D" transform="translate(0,0)"/>
<path d="" fill="#2A342C" transform="translate(0,0)"/>
<path d="" fill="#2A352B" transform="translate(0,0)"/>
<path d="" fill="#28352B" transform="translate(0,0)"/>
<path d="" fill="#2A352D" transform="translate(0,0)"/>
<path d="" fill="#29352D" transform="translate(0,0)"/>
<path d="" fill="#27342C" transform="translate(0,0)"/>
<path d="" fill="#273229" transform="translate(0,0)"/>
<path d="" fill="#2A332A" transform="translate(0,0)"/>
<path d="" fill="#283429" transform="translate(0,0)"/>
<path d="" fill="#2A352C" transform="translate(0,0)"/>
<path d="" fill="#2B362D" transform="translate(0,0)"/>
<path d="" fill="#28342C" transform="translate(0,0)"/>
<path d="" fill="#2A372D" transform="translate(0,0)"/>
<path d="" fill="#27342B" transform="translate(0,0)"/>
<path d="" fill="#2A352C" transform="translate(0,0)"/>
<path d="" fill="#2A352B" transform="translate(0,0)"/>
<path d="" fill="#29352B" transform="translate(0,0)"/>
<path d="" fill="#29352E" transform="translate(0,0)"/>
<path d="" fill="#29352B" transform="translate(0,0)"/>
<path d="" fill="#2A352C" transform="translate(0,0)"/>
<path d="" fill="#29362C" transform="translate(0,0)"/>
<path d="" fill="#2C372C" transform="translate(0,0)"/>
<path d="" fill="#2A342C" transform="translate(0,0)"/>
<path d="" fill="#2A352B" transform="translate(0,0)"/>
<path d="" fill="#2A352D" transform="translate(0,0)"/>
<path d="" fill="#2A342B" transform="translate(0,0)"/>
<path d="" fill="#2B352C" transform="translate(0,0)"/>
<path d="" fill="#28332C" transform="translate(0,0)"/>
<path d="" fill="#2A362D" transform="translate(0,0)"/>
<path d="" fill="#28352C" transform="translate(0,0)"/>
<path d="" fill="#29342D" transform="translate(0,0)"/>
<path d="" fill="#2A352D" transform="translate(0,0)"/>
<path d="" fill="#2A362D" transform="translate(0,0)"/>
<path d="" fill="#28352C" transform="translate(0,0)"/>
<path d="" fill="#29372C" transform="translate(0,0)"/>
<path d="" fill="#29342C" transform="translate(0,0)"/>
<path d="" fill="#2B352B" transform="translate(0,0)"/>
<path d="" fill="#29362C" transform="translate(0,0)"/>
<path d="" fill="#29332B" transform="translate(0,0)"/>
<path d="" fill="#2A352D" transform="translate(0,0)"/>
<path d="" fill="#29352B" transform="translate(0,0)"/>
<path d="" fill="#28342C" transform="translate(0,0)"/>
<path d="" fill="#28332B" transform="translate(0,0)"/>
<path d="" fill="#29362C" transform="translate(0,0)"/>
<path d="" fill="#29342C" transform="translate(0,0)"/>
<path d="" fill="#2A352C" transform="translate(0,0)"/>
<path d="" fill="#29352C" transform="translate(0,0)"/>
<path d="" fill="#29352D" transform="translate(0,0)"/>
<path d="" fill="#29342C" transform="translate(0,0)"/>
<path d="" fill="#29342D" transform="translate(0,0)"/>
<path d="" fill="#2A362C" transform="translate(0,0)"/>
<path d="" fill="#29342D" transform="translate(0,0)"/>
<path d="" fill="#25302A" transform="translate(0,0)"/>
<path d="" fill="#28342B" transform="translate(0,0)"/>
<path d="" fill="#27342C" transform="translate(0,0)"/>
<path d="" fill="#27332B" transform="translate(0,0)"/>
<path d="" fill="#29342A" transform="translate(0,0)"/>
<path d="" fill="#29362D" transform="translate(0,0)"/>
<path d="" fill="#2A362E" transform="translate(0,0)"/>
<path d="" fill="#29352E" transform="translate(0,0)"/>
<path d="" fill="#2B372C" transform="translate(0,0)"/>
<path d="" fill="#29362D" transform="translate(0,0)"/>
<path d="" fill="#29362D" transform="translate(0,0)"/>
<path d="" fill="#29332C" transform="translate(0,0)"/>
<path d="" fill="#29352D" transform="translate(0,0)"/>
<path d="" fill="#29362D" transform="translate(0,0)"/>
<path d="" fill="#2C362D" transform="translate(0,0)"/>
<path d="" fill="#2B342C" transform="translate(0,0)"/>
<path d="" fill="#2B372F" transform="translate(0,0)"/>
<path d="" fill="#29362E" transform="translate(0,0)"/>
<path d="" fill="#2A382D" transform="translate(0,0)"/>
<path d="" fill="#2C372C" transform="translate(0,0)"/>
<path d="" fill="#2B362D" transform="translate(0,0)"/>
<path d="" fill="#28342E" transform="translate(0,0)"/>
<path d="" fill="#29352D" transform="translate(0,0)"/>
<path d="" fill="#2A382F" transform="translate(0,0)"/>
<path d="" fill="#2A362C" transform="translate(0,0)"/>
<path d="" fill="#29362F" transform="translate(0,0)"/>
<path d="" fill="#2A3630" transform="translate(0,0)"/>
<path d="" fill="#29362C" transform="translate(0,0)"/>
<path d="" fill="#2A332B" transform="translate(0,0)"/>
<path d="" fill="#253027" transform="translate(0,0)"/>
<path d="" fill="#263026" transform="translate(0,0)"/>
<path d="" fill="#424B43" transform="translate(0,0)"/>
<path d="" fill="#242E27" transform="translate(0,0)"/>
<path d="" fill="#242C26" transform="translate(0,0)"/>
<path d="" fill="#232C25" transform="translate(0,0)"/>
<path d="" fill="#232D26" transform="translate(0,0)"/>
<path d="" fill="#242D25" transform="translate(0,0)"/>
<path d="" fill="#1D2621" transform="translate(0,0)"/>
<path d="" fill="#1B231F" transform="translate(0,0)"/>
<path d="" fill="#1C2621" transform="translate(0,0)"/>
<path d="" fill="#39423B" transform="translate(0,0)"/>
<path d="" fill="#36413B" transform="translate(0,0)"/>
<path d="" fill="#444B46" transform="translate(0,0)"/>
<path d="" fill="#484C49" transform="translate(0,0)"/>
<path d="" fill="#222C24" transform="translate(0,0)"/>
<path d="" fill="#232C25" transform="translate(0,0)"/>
<path d="" fill="#212E25" transform="translate(0,0)"/>
<path d="" fill="#222A24" transform="translate(0,0)"/>
<path d="" fill="#232E26" transform="translate(0,0)"/>
<path d="" fill="#212722" transform="translate(0,0)"/>
<path d="" fill="#1F2824" transform="translate(0,0)"/>
<path d="" fill="#3F4640" transform="translate(0,0)"/>
<path d="" fill="#222A25" transform="translate(0,0)"/>
<path d="" fill="#202822" transform="translate(0,0)"/>
<path d="" fill="#1F2924" transform="translate(0,0)"/>
<path d="" fill="#2F3532" transform="translate(0,0)"/>
<path d="" fill="#484C48" transform="translate(0,0)"/>
<path d="" fill="#232D25" transform="translate(0,0)"/>
<path d="" fill="#1E2721" transform="translate(0,0)"/>
<path d="" fill="#212824" transform="translate(0,0)"/>
<path d="" fill="#202822" transform="translate(0,0)"/>
<path d="" fill="#1E2721" transform="translate(0,0)"/>
<path d="" fill="#222923" transform="translate(0,0)"/>
<path d="" fill="#232A26" transform="translate(0,0)"/>
<path d="" fill="#222922" transform="translate(0,0)"/>
<path d="" fill="#353D36" transform="translate(0,0)"/>
<path d="" fill="#252B24" transform="translate(0,0)"/>
<path d="" fill="#212B23" transform="translate(0,0)"/>
<path d="" fill="#212822" transform="translate(0,0)"/>
<path d="" fill="#202B22" transform="translate(0,0)"/>
<path d="" fill="#222B22" transform="translate(0,0)"/>
<path d="" fill="#1D2621" transform="translate(0,0)"/>
<path d="" fill="#232C22" transform="translate(0,0)"/>
<path d="" fill="#212823" transform="translate(0,0)"/>
<path d="" fill="#1E2522" transform="translate(0,0)"/>
<path d="" fill="#212A24" transform="translate(0,0)"/>
<path d="" fill="#232825" transform="translate(0,0)"/>
<path d="" fill="#3F4540" transform="translate(0,0)"/>
<path d="" fill="#202A23" transform="translate(0,0)"/>
<path d="" fill="#212922" transform="translate(0,0)"/>
<path d="" fill="#1E2620" transform="translate(0,0)"/>
<path d="" fill="#212720" transform="translate(0,0)"/>
<path d="" fill="#202823" transform="translate(0,0)"/>
<path d="" fill="#1F2A23" transform="translate(0,0)"/>
<path d="" fill="#1D2821" transform="translate(0,0)"/>
<path d="" fill="#3A413D" transform="translate(0,0)"/>
<path d="" fill="#353C36" transform="translate(0,0)"/>
<path d="" fill="#202922" transform="translate(0,0)"/>
<path d="" fill="#20251F" transform="translate(0,0)"/>
<path d="" fill="#1B241D" transform="translate(0,0)"/>
<path d="" fill="#1E2421" transform="translate(0,0)"/>
<path d="" fill="#1A211B" transform="translate(0,0)"/>
<path d="" fill="#20261D" transform="translate(0,0)"/>
<path d="" fill="#1D241F" transform="translate(0,0)"/>
<path d="" fill="#222823" transform="translate(0,0)"/>
<path d="" fill="#202621" transform="translate(0,0)"/>
<path d="" fill="#202921" transform="translate(0,0)"/>
<path d="" fill="#1D251F" transform="translate(0,0)"/>
<path d="" fill="#1D251E" transform="translate(0,0)"/>
<path d="" fill="#1F2720" transform="translate(0,0)"/>
<path d="" fill="#202723" transform="translate(0,0)"/>
<path d="" fill="#1B241E" transform="translate(0,0)"/>
<path d="" fill="#202822" transform="translate(0,0)"/>
<path d="" fill="#1B241C" transform="translate(0,0)"/>
<path d="" fill="#1C251C" transform="translate(0,0)"/>
<path d="" fill="#1C251E" transform="translate(0,0)"/>
<path d="" fill="#29322C" transform="translate(0,0)"/>
<path d="" fill="#1B251D" transform="translate(0,0)"/>
<path d="" fill="#383F3B" transform="translate(0,0)"/>
<path d="" fill="#1B231E" transform="translate(0,0)"/>
<path d="" fill="#1A231E" transform="translate(0,0)"/>
<path d="" fill="#424743" transform="translate(0,0)"/>
<path d="" fill="#434744" transform="translate(0,0)"/>
<path d="" fill="#1D2520" transform="translate(0,0)"/>
<path d="" fill="#464A47" transform="translate(0,0)"/>
<path d="" fill="#434644" transform="translate(0,0)"/>
<path d="" fill="#434844" transform="translate(0,0)"/>
<path d="" fill="#1E2420" transform="translate(0,0)"/>
<path d="" fill="#19221F" transform="translate(0,0)"/>
<path d="" fill="#494C49" transform="translate(0,0)"/>
<path d="" fill="#424543" transform="translate(0,0)"/>
<path d="" fill="#353D38" transform="translate(0,0)"/>
<path d="" fill="#363B36" transform="translate(0,0)"/>
<path d="" fill="#504F4F" transform="translate(0,0)"/>
<path d="" fill="#464A46" transform="translate(0,0)"/>
<path d="" fill="#434743" transform="translate(0,0)"/>
<path d="" fill="#3E443F" transform="translate(0,0)"/>
<path d="" fill="#1A241E" transform="translate(0,0)"/>
<path d="" fill="#222822" transform="translate(0,0)"/>
<path d="" fill="#222924" transform="translate(0,0)"/>
<path d="" fill="#494A49" transform="translate(0,0)"/>
<path d="" fill="#424541" transform="translate(0,0)"/>
<path d="" fill="#3A3D3B" transform="translate(0,0)"/>
<path d="" fill="#1E241E" transform="translate(0,0)"/>
<path d="" fill="#4B4D49" transform="translate(0,0)"/>
<path d="" fill="#504F4E" transform="translate(0,0)"/>
<path d="" fill="#3C3F3B" transform="translate(0,0)"/>
<path d="" fill="#3C3F3A" transform="translate(0,0)"/>
<path d="" fill="#1E231E" transform="translate(0,0)"/>
<path d="" fill="#1F241F" transform="translate(0,0)"/>
<path d="" fill="#4B4D4B" transform="translate(0,0)"/>
<path d="" fill="#353A35" transform="translate(0,0)"/>
<path d="" fill="#1D221F" transform="translate(0,0)"/>
<path d="" fill="#1C231F" transform="translate(0,0)"/>
<path d="" fill="#4F504E" transform="translate(0,0)"/>
<path d="" fill="#464844" transform="translate(0,0)"/>
<path d="" fill="#3F433F" transform="translate(0,0)"/>
<path d="" fill="#202721" transform="translate(0,0)"/>
<path d="" fill="#242823" transform="translate(0,0)"/>
<path d="" fill="#252E24" transform="translate(0,0)"/>
<path d="" fill="#282A26" transform="translate(0,0)"/>
<path d="" fill="#282B26" transform="translate(0,0)"/>
<path d="" fill="#272B26" transform="translate(0,0)"/>
<path d="" fill="#252B26" transform="translate(0,0)"/>
<path d="" fill="#222821" transform="translate(0,0)"/>
<path d="" fill="#242924" transform="translate(0,0)"/>
<path d="" fill="#262C25" transform="translate(0,0)"/>
<path d="" fill="#232823" transform="translate(0,0)"/>
<path d="" fill="#232823" transform="translate(0,0)"/>
<path d="" fill="#242925" transform="translate(0,0)"/>
<path d="" fill="#252B24" transform="translate(0,0)"/>
<path d="" fill="#50514E" transform="translate(0,0)"/>
<path d="" fill="#282D24" transform="translate(0,0)"/>
<path d="" fill="#242924" transform="translate(0,0)"/>
<path d="" fill="#242824" transform="translate(0,0)"/>
<path d="" fill="#242924" transform="translate(0,0)"/>
<path d="" fill="#393D38" transform="translate(0,0)"/>
<path d="" fill="#232722" transform="translate(0,0)"/>
<path d="" fill="#51514F" transform="translate(0,0)"/>
<path d="" fill="#252A24" transform="translate(0,0)"/>
<path d="" fill="#4C4C4A" transform="translate(0,0)"/>
<path d="" fill="#383A36" transform="translate(0,0)"/>
<path d="" fill="#4F4E4D" transform="translate(0,0)"/>
<path d="" fill="#272D29" transform="translate(0,0)"/>
<path d="" fill="#272D28" transform="translate(0,0)"/>
<path d="" fill="#494A47" transform="translate(0,0)"/>
<path d="" fill="#575755" transform="translate(0,0)"/>
<path d="" fill="#2B2F2A" transform="translate(0,0)"/>
<path d="" fill="#535251" transform="translate(0,0)"/>
<path d="" fill="#252928" transform="translate(0,0)"/>
<path d="" fill="#242B24" transform="translate(0,0)"/>
<path d="" fill="#282D25" transform="translate(0,0)"/>
<path d="" fill="#535252" transform="translate(0,0)"/>
<path d="" fill="#505251" transform="translate(0,0)"/>
<path d="" fill="#535452" transform="translate(0,0)"/>
<path d="" fill="#262C23" transform="translate(0,0)"/>
<path d="" fill="#262C25" transform="translate(0,0)"/>
<path d="" fill="#333833" transform="translate(0,0)"/>
<path d="" fill="#292E26" transform="translate(0,0)"/>
<path d="" fill="#262A25" transform="translate(0,0)"/>
<path d="" fill="#282B28" transform="translate(0,0)"/>
<path d="" fill="#282B25" transform="translate(0,0)"/>
<path d="" fill="#595758" transform="translate(0,0)"/>
<path d="" fill="#272A26" transform="translate(0,0)"/>
<path d="" fill="#272A25" transform="translate(0,0)"/>
<path d="" fill="#555554" transform="translate(0,0)"/>
<path d="" fill="#4A4D49" transform="translate(0,0)"/>
<path d="" fill="#252B26" transform="translate(0,0)"/>
<path d="" fill="#252D27" transform="translate(0,0)"/>
<path d="" fill="#292926" transform="translate(0,0)"/>
<path d="" fill="#282A25" transform="translate(0,0)"/>
<path d="" fill="#555352" transform="translate(0,0)"/>
<path d="" fill="#565555" transform="translate(0,0)"/>
<path d="" fill="#272C27" transform="translate(0,0)"/>
<path d="" fill="#282C27" transform="translate(0,0)"/>
<path d="" fill="#232825" transform="translate(0,0)"/>
<path d="" fill="#585858" transform="translate(0,0)"/>
<path d="" fill="#262A25" transform="translate(0,0)"/>
<path d="" fill="#545452" transform="translate(0,0)"/>
<path d="" fill="#272C27" transform="translate(0,0)"/>
<path d="" fill="#4B4C4A" transform="translate(0,0)"/>
<path d="" fill="#262B27" transform="translate(0,0)"/>
<path d="" fill="#2C302B" transform="translate(0,0)"/>
<path d="" fill="#4A4C49" transform="translate(0,0)"/>
<path d="" fill="#575757" transform="translate(0,0)"/>
<path d="" fill="#1E2423" transform="translate(0,0)"/>
<path d="" fill="#545352" transform="translate(0,0)"/>
<path d="" fill="#202421" transform="translate(0,0)"/>
<path d="" fill="#535253" transform="translate(0,0)"/>
<path d="" fill="#555454" transform="translate(0,0)"/>
<path d="" fill="#595657" transform="translate(0,0)"/>
<path d="" fill="#565454" transform="translate(0,0)"/>
<path d="" fill="#545352" transform="translate(0,0)"/>
<path d="" fill="#525251" transform="translate(0,0)"/>
<path d="" fill="#1E231E" transform="translate(0,0)"/>
<path d="" fill="#363935" transform="translate(0,0)"/>
<path d="" fill="#454745" transform="translate(0,0)"/>
<path d="" fill="#20261F" transform="translate(0,0)"/>
<path d="" fill="#1F241F" transform="translate(0,0)"/>
<path d="" fill="#5A5757" transform="translate(0,0)"/>
<path d="" fill="#525351" transform="translate(0,0)"/>
<path d="" fill="#242822" transform="translate(0,0)"/>
<path d="" fill="#232624" transform="translate(0,0)"/>
<path d="" fill="#212522" transform="translate(0,0)"/>
<path d="" fill="#545455" transform="translate(0,0)"/>
<path d="" fill="#212521" transform="translate(0,0)"/>
<path d="" fill="#212621" transform="translate(0,0)"/>
<path d="" fill="#232521" transform="translate(0,0)"/>
<path d="" fill="#232722" transform="translate(0,0)"/>
<path d="" fill="#222823" transform="translate(0,0)"/>
<path d="" fill="#242723" transform="translate(0,0)"/>
<path d="" fill="#434542" transform="translate(0,0)"/>
<path d="" fill="#212321" transform="translate(0,0)"/>
<path d="" fill="#232723" transform="translate(0,0)"/>
<path d="" fill="#232822" transform="translate(0,0)"/>
<path d="" fill="#585757" transform="translate(0,0)"/>
<path d="" fill="#525150" transform="translate(0,0)"/>
<path d="" fill="#50504F" transform="translate(0,0)"/>
<path d="" fill="#3D403B" transform="translate(0,0)"/>
<path d="" fill="#585756" transform="translate(0,0)"/>
<path d="" fill="#545354" transform="translate(0,0)"/>
<path d="" fill="#232722" transform="translate(0,0)"/>
<path d="" fill="#242823" transform="translate(0,0)"/>
<path d="" fill="#575655" transform="translate(0,0)"/>
<path d="" fill="#484A47" transform="translate(0,0)"/>
<path d="" fill="#535252" transform="translate(0,0)"/>
<path d="" fill="#525251" transform="translate(0,0)"/>
<path d="" fill="#343833" transform="translate(0,0)"/>
<path d="" fill="#494946" transform="translate(0,0)"/>
<path d="" fill="#535251" transform="translate(0,0)"/>
<path d="" fill="#454844" transform="translate(0,0)"/>
<path d="" fill="#212522" transform="translate(0,0)"/>
<path d="" fill="#262924" transform="translate(0,0)"/>
<path d="" fill="#585856" transform="translate(0,0)"/>
<path d="" fill="#262A26" transform="translate(0,0)"/>
<path d="" fill="#242622" transform="translate(0,0)"/>
<path d="" fill="#232621" transform="translate(0,0)"/>
<path d="" fill="#575856" transform="translate(0,0)"/>
<path d="" fill="#4C4B49" transform="translate(0,0)"/>
<path d="" fill="#494B49" transform="translate(0,0)"/>
<path d="" fill="#383B37" transform="translate(0,0)"/>
<path d="" fill="#3F413D" transform="translate(0,0)"/>
<path d="" fill="#4D4E4B" transform="translate(0,0)"/>
<path d="" fill="#232623" transform="translate(0,0)"/>
<path d="" fill="#252922" transform="translate(0,0)"/>
<path d="" fill="#383A35" transform="translate(0,0)"/>
<path d="" fill="#292D27" transform="translate(0,0)"/>
<path d="" fill="#323631" transform="translate(0,0)"/>
<path d="" fill="#242722" transform="translate(0,0)"/>
<path d="" fill="#252A23" transform="translate(0,0)"/>
<path d="" fill="#232623" transform="translate(0,0)"/>
<path d="" fill="#242824" transform="translate(0,0)"/>
<path d="" fill="#222723" transform="translate(0,0)"/>
<path d="" fill="#222821" transform="translate(0,0)"/>
<path d="" fill="#252924" transform="translate(0,0)"/>
<path d="" fill="#4C4D4B" transform="translate(0,0)"/>
<path d="" fill="#242621" transform="translate(0,0)"/>
<path d="" fill="#222523" transform="translate(0,0)"/>
<path d="" fill="#4B4C49" transform="translate(0,0)"/>
<path d="" fill="#232721" transform="translate(0,0)"/>
<path d="" fill="#252923" transform="translate(0,0)"/>
<path d="" fill="#232924" transform="translate(0,0)"/>
<path d="" fill="#575756" transform="translate(0,0)"/>
<path d="" fill="#353934" transform="translate(0,0)"/>
<path d="" fill="#3F413C" transform="translate(0,0)"/>
<path d="" fill="#4D4D4B" transform="translate(0,0)"/>
<path d="" fill="#212622" transform="translate(0,0)"/>
<path d="" fill="#494A45" transform="translate(0,0)"/>
<path d="" fill="#494B48" transform="translate(0,0)"/>
<path d="" fill="#212623" transform="translate(0,0)"/>
<path d="" fill="#272B24" transform="translate(0,0)"/>
<path d="" fill="#2F332F" transform="translate(0,0)"/>
<path d="" fill="#4C4F4D" transform="translate(0,0)"/>
<path d="" fill="#252822" transform="translate(0,0)"/>
<path d="" fill="#262821" transform="translate(0,0)"/>
<path d="" fill="#242A24" transform="translate(0,0)"/>
<path d="" fill="#262A25" transform="translate(0,0)"/>
<path d="" fill="#565454" transform="translate(0,0)"/>
<path d="" fill="#222725" transform="translate(0,0)"/>
<path d="" fill="#222723" transform="translate(0,0)"/>
<path d="" fill="#232725" transform="translate(0,0)"/>
<path d="" fill="#464944" transform="translate(0,0)"/>
<path d="" fill="#262925" transform="translate(0,0)"/>
<path d="" fill="#1D231F" transform="translate(0,0)"/>
<path d="" fill="#242622" transform="translate(0,0)"/>
<path d="" fill="#1D211F" transform="translate(0,0)"/>
<path d="" fill="#222621" transform="translate(0,0)"/>
<path d="" fill="#222521" transform="translate(0,0)"/>
<path d="" fill="#565656" transform="translate(0,0)"/>
<path d="" fill="#1F251E" transform="translate(0,0)"/>
<path d="" fill="#565857" transform="translate(0,0)"/>
<path d="" fill="#242A22" transform="translate(0,0)"/>
<path d="" fill="#252723" transform="translate(0,0)"/>
<path d="" fill="#252823" transform="translate(0,0)"/>
<path d="" fill="#212620" transform="translate(0,0)"/>
<path d="" fill="#1E2321" transform="translate(0,0)"/>
<path d="" fill="#252623" transform="translate(0,0)"/>
<path d="" fill="#252B25" transform="translate(0,0)"/>
<path d="" fill="#252520" transform="translate(0,0)"/>
<path d="" fill="#232622" transform="translate(0,0)"/>
<path d="" fill="#545353" transform="translate(0,0)"/>
<path d="" fill="#4D4F4C" transform="translate(0,0)"/>
<path d="" fill="#3C3F3B" transform="translate(0,0)"/>
<path d="" fill="#232724" transform="translate(0,0)"/>
<path d="" fill="#232A24" transform="translate(0,0)"/>
<path d="" fill="#212622" transform="translate(0,0)"/>
<path d="" fill="#262B26" transform="translate(0,0)"/>
<path d="" fill="#40413F" transform="translate(0,0)"/>
<path d="" fill="#1D231D" transform="translate(0,0)"/>
<path d="" fill="#232521" transform="translate(0,0)"/>
<path d="" fill="#232623" transform="translate(0,0)"/>
<path d="" fill="#565654" transform="translate(0,0)"/>
<path d="" fill="#424340" transform="translate(0,0)"/>
<path d="" fill="#4E4D4C" transform="translate(0,0)"/>
<path d="" fill="#272A26" transform="translate(0,0)"/>
<path d="" fill="#242824" transform="translate(0,0)"/>
<path d="" fill="#272923" transform="translate(0,0)"/>
<path d="" fill="#252822" transform="translate(0,0)"/>
<path d="" fill="#262927" transform="translate(0,0)"/>
<path d="" fill="#252927" transform="translate(0,0)"/>
<path d="" fill="#262C25" transform="translate(0,0)"/>
<path d="" fill="#434342" transform="translate(0,0)"/>
<path d="" fill="#262A25" transform="translate(0,0)"/>
<path d="" fill="#292D26" transform="translate(0,0)"/>
<path d="" fill="#272C28" transform="translate(0,0)"/>
<path d="" fill="#282D28" transform="translate(0,0)"/>
<path d="" fill="#282B27" transform="translate(0,0)"/>
<path d="" fill="#282B27" transform="translate(0,0)"/>
<path d="" fill="#3B3F3D" transform="translate(0,0)"/>
<path d="" fill="#434542" transform="translate(0,0)"/>
<path d="" fill="#4D4E4C" transform="translate(0,0)"/>
<path d="" fill="#2E322D" transform="translate(0,0)"/>
<path d="" fill="#2C312C" transform="translate(0,0)"/>
<path d="" fill="#3A3E3A" transform="translate(0,0)"/>
<path d="" fill="#363936" transform="translate(0,0)"/>
<path d="" fill="#555454" transform="translate(0,0)"/>
<path d="" fill="#565554" transform="translate(0,0)"/>
<path d="" fill="#4B4B4A" transform="translate(0,0)"/>
<path d="" fill="#525150" transform="translate(0,0)"/>
<path d="" fill="#444744" transform="translate(0,0)"/>
<path d="" fill="#3C3E3A" transform="translate(0,0)"/>
<path d="" fill="#494B47" transform="translate(0,0)"/>
<path d="" fill="#40423F" transform="translate(0,0)"/>
<path d="" fill="#515352" transform="translate(0,0)"/>
<path d="" fill="#575655" transform="translate(0,0)"/>
<path d="" fill="#565455" transform="translate(0,0)"/>
<path d="" fill="#555554" transform="translate(0,0)"/>
<path d="" fill="#535150" transform="translate(0,0)"/>
<path d="" fill="#454845" transform="translate(0,0)"/>
<path d="" fill="#4F4F4D" transform="translate(0,0)"/>
<path d="" fill="#525351" transform="translate(0,0)"/>
<path d="" fill="#4B4D4B" transform="translate(0,0)"/>
<path d="" fill="#4C4D4C" transform="translate(0,0)"/>
<path d="" fill="#555457" transform="translate(0,0)"/>
<path d="" fill="#585557" transform="translate(0,0)"/>
<path d="" fill="#484945" transform="translate(0,0)"/>
<path d="" fill="#4D4E4D" transform="translate(0,0)"/>
<path d="" fill="#51504F" transform="translate(0,0)"/>
<path d="" fill="#555555" transform="translate(0,0)"/>
<path d="" fill="#545252" transform="translate(0,0)"/>
<path d="" fill="#535251" transform="translate(0,0)"/>
<path d="" fill="#4C4C4C" transform="translate(0,0)"/>
<path d="" fill="#4D4D4D" transform="translate(0,0)"/>
<path d="" fill="#494B48" transform="translate(0,0)"/>
<path d="" fill="#565555" transform="translate(0,0)"/>
<path d="" fill="#545454" transform="translate(0,0)"/>
<path d="" fill="#4A4A49" transform="translate(0,0)"/>
<path d="" fill="#494C4A" transform="translate(0,0)"/>
<path d="" fill="#565556" transform="translate(0,0)"/>
<path d="" fill="#4B4C49" transform="translate(0,0)"/>
<path d="" fill="#525152" transform="translate(0,0)"/>
<path d="" fill="#535252" transform="translate(0,0)"/>
</svg>
