<?xml version="1.0" encoding="UTF-8"?>
<svg version="1.1" xmlns="http://www.w3.org/2000/svg" width="1024" height="1024">
<path d="M0 0 C337.92 0 675.84 0 1024 0 C1024 337.92 1024 675.84 1024 1024 C686.08 1024 348.16 1024 0 1024 C0 686.08 0 348.16 0 0 Z " fill="#FAFAFA" transform="translate(0,0)"/>
<path d="M0 0 C10.70327305 5.80610826 16.45915707 16.70169844 22.4375 26.8125 C23.88977738 29.25937321 25.3465229 31.70349697 26.80859375 34.14453125 C27.16388153 34.73807907 27.51916931 35.33162689 27.88522339 35.94316101 C30.53854219 40.33419958 33.42007509 44.51130295 36.40258789 48.68188477 C39.03039044 52.49527086 41.25387933 56.51662352 43.5 60.5625 C56.47881198 83.70104267 56.47881198 83.70104267 71.1875 105.75 C76.57330179 113.15048074 81.06680464 120.89390025 85.5390625 128.87109375 C89.7375744 136.34835986 94.07271944 143.7438946 98.4375 151.125 C99.05149155 152.16365707 99.05149155 152.16365707 99.67788696 153.22329712 C105.53828956 163.11155935 111.69418413 172.69927427 118.3125 182.1015625 C121.43715271 186.56253087 124.16822786 191.19173396 126.828125 195.9453125 C127.83801042 197.92597968 127.83801042 197.92597968 129 199 C131.38451182 199.52034378 131.38451182 199.52034378 134 199 C136.05289449 196.7918215 136.05289449 196.7918215 137.70703125 193.76953125 C138.37669922 192.65513672 139.04636719 191.54074219 139.73632812 190.39257812 C140.42893902 189.19953997 141.1209948 188.00617937 141.8125 186.8125 C143.17317708 184.52734375 144.53385417 182.2421875 145.89453125 179.95703125 C146.5770117 178.79581304 147.25922122 177.63443555 147.94116211 176.47290039 C149.97141726 173.02852877 152.07089753 169.63124878 154.1796875 166.234375 C156.93092369 161.78670579 159.53989211 157.29341413 162.05566406 152.7097168 C167.08268648 143.62143055 172.48220971 136.18940007 180 129 C180.67160156 128.34386719 181.34320312 127.68773437 182.03515625 127.01171875 C188.01010087 121.509517 193.39144937 120.55299121 201.26953125 120.765625 C211.27323683 121.62431217 217.60981118 127.93837054 223.9921875 135.296875 C233.31026022 147.43743448 240.20465581 161.56631454 247.32836914 175.04663086 C255.03707206 189.62483582 263.35899644 203.7132752 272.01025391 217.74902344 C274.99979892 222.6335365 277.91134805 227.56262761 280.8125 232.5 C284.90499898 239.45743799 289.02615894 246.39599994 293.1875 253.3125 C307.20900107 276.64090828 320.78441421 300.22859948 334.14453125 323.94140625 C336.45168526 328.03503653 338.78187933 332.11436731 341.125 336.1875 C343.81082097 340.86931002 346.4231477 345.58593285 349.00976562 350.32324219 C352.94176975 357.52295151 356.91930202 364.66480471 361.18139648 371.67504883 C365.19332367 378.2824736 369.09534757 384.95387091 373 391.625 C373.73321955 392.87704395 374.46645534 394.12907839 375.19970703 395.38110352 C377.84931169 399.90606922 380.49739321 404.43192586 383.14550781 408.95776367 C385.76277646 413.43070037 388.38076384 417.90321511 391 422.375 C391.36279053 422.99441467 391.72558105 423.61382935 392.09936523 424.25201416 C396.5315236 431.81701812 400.99848365 439.3580662 405.53125 446.86328125 C408.70299109 452.14905911 411.79326251 457.4829416 414.90145874 462.80621338 C415.26397736 463.42703796 415.62649597 464.04786255 416 464.6875 C416.36114899 465.30606873 416.72229797 465.92463745 417.09439087 466.56195068 C423.36931462 477.30091065 429.7797568 487.95229917 436.29101562 498.54956055 C452.02907044 524.26208742 452.02907044 524.26208742 450 535 C447.0861068 541.36701219 442.92188069 545.42452486 437 549 C433.92869433 550.02376856 431.8506068 550.1255345 428.63407636 550.12649983 C427.51106264 550.12925958 426.38804892 550.13201932 425.23100448 550.13486269 C423.98949701 550.13280737 422.74798954 550.13075205 421.46886063 550.12863445 C420.15056479 550.13038749 418.83226896 550.13214053 417.47402477 550.13394669 C413.7906852 550.13869728 410.1073702 550.1371684 406.42402938 550.13466892 C402.42591393 550.13304186 398.42780388 550.13717164 394.42969012 550.14057809 C387.41438168 550.14574327 380.39908014 550.14714736 373.38376999 550.14612198 C362.95180078 550.14460091 352.51983925 550.14875024 342.08787153 550.1539966 C322.37450408 550.16368326 302.66113922 550.16648134 282.94776967 550.16705366 C267.72717019 550.16751267 252.50657174 550.16956819 237.2859726 550.17275429 C232.90955567 550.17365179 228.53313875 550.1745416 224.15672183 550.17542917 C222.52487294 550.17576074 222.52487294 550.17576074 220.8600574 550.17609901 C190.24609737 550.18225596 159.6321377 550.1861993 129.01817703 550.18575573 C127.86322061 550.18574015 126.70826418 550.18572457 125.51830908 550.18570852 C119.66410886 550.18562541 113.80990864 550.18552637 107.95570841 550.18542381 C106.21161711 550.1853939 106.21161711 550.1853939 104.43229163 550.18536337 C102.08097136 550.18532294 99.72965109 550.18528114 97.37833082 550.18523798 C60.79062803 550.18462514 24.20293451 550.19213224 -12.38476562 550.20581055 C-53.46240693 550.22116098 -94.54004215 550.22977739 -135.61768651 550.22884732 C-139.99536085 550.22877269 -144.37303519 550.22872399 -148.75070953 550.22869301 C-149.82865545 550.22868135 -150.90660136 550.2286697 -152.0172123 550.22865769 C-169.38774082 550.22862688 -186.75826133 550.23502129 -204.12878746 550.24362527 C-221.57801763 550.25208965 -239.02723602 550.25310127 -256.4764671 550.24651595 C-266.85075953 550.2428121 -277.22501626 550.24467748 -287.59930492 550.25445829 C-294.52334539 550.26043619 -301.44735987 550.25918734 -308.37139912 550.25198779 C-312.32032099 550.24808767 -316.26917352 550.24738385 -320.21809062 550.25544515 C-323.80944221 550.26271254 -327.40066659 550.26080106 -330.99201247 550.25152128 C-332.89443184 550.24898376 -334.79685654 550.25627328 -336.69926214 550.26394406 C-345.00151766 550.22913251 -351.74751078 550.08350303 -358 544 C-362.39575774 538.0168853 -363.94051563 533.32914012 -363 526 C-360.93688107 519.42815488 -356.60495765 513.94715751 -352.6328125 508.41796875 C-345.72110754 498.70734783 -339.15950275 488.779254 -332.625 478.8125 C-331.4271622 476.99026391 -330.22924486 475.1680801 -329.03125 473.34594727 C-322.392658 463.23739835 -315.82491615 453.09024035 -309.375 442.86010742 C-305.8148812 437.22908829 -302.11757152 431.71461963 -298.31811523 426.24291992 C-288.01166044 411.3957153 -278.06200461 396.37659019 -268.87109375 380.8125 C-265.94792583 375.87532657 -262.89364286 371.0272082 -259.8125 366.1875 C-255.95645188 360.12500055 -252.17688766 354.02980666 -248.50976562 347.85131836 C-244.63366046 341.33866141 -240.60309824 334.92295672 -236.59277344 328.49243164 C-233.8555151 324.08011653 -231.20922879 319.67211759 -228.8125 315.0625 C-226.70197942 311.06492572 -224.23504928 307.44805841 -221.5625 303.8125 C-214.76439955 294.55562399 -208.86974617 284.72260427 -202.83544922 274.95947266 C-200.14590095 270.62285333 -197.4191208 266.31019787 -194.6875 262 C-191.90584973 257.6079933 -189.12752604 253.21452125 -186.38671875 248.796875 C-182.84057544 243.0821234 -179.29120783 237.38681585 -175.50976562 231.82397461 C-170.00446056 223.72430576 -164.96624684 215.3767857 -159.95483398 206.96411133 C-150.14996848 190.51001144 -140.02270982 174.25213195 -129.93310547 157.97167969 C-125.60771695 150.98993122 -121.30214607 143.99608953 -117 137 C-111.66014424 128.31640155 -106.30739795 119.64104112 -100.93579102 110.97705078 C-97.27855201 105.0748686 -93.63997842 99.16142678 -90.00683594 93.24438477 C-83.22207628 82.19713748 -76.37772452 71.19238912 -69.42675781 60.24902344 C-67.48183326 57.18320465 -65.54566876 54.11189202 -63.60913086 51.04077148 C-56.99761731 40.55740595 -50.36119185 30.08953479 -43.68041992 19.65014648 C-42.49693221 17.78369884 -41.32922398 15.90719893 -40.1730957 14.02368164 C-39.56941162 13.04778076 -38.96572754 12.07187988 -38.34375 11.06640625 C-37.80298828 10.18154541 -37.26222656 9.29668457 -36.70507812 8.38500977 C-34.08788737 4.72416548 -30.84526388 2.27544481 -27 0 C-26.37609375 -0.37511719 -25.7521875 -0.75023437 -25.109375 -1.13671875 C-17.98421144 -4.05275791 -7.16540706 -2.30750397 0 0 Z " fill="#195755" transform="translate(473,239)"/>
<path d="M0 0 C10.70327305 5.80610826 16.45915707 16.70169844 22.4375 26.8125 C23.88977738 29.25937321 25.3465229 31.70349697 26.80859375 34.14453125 C27.16388153 34.73807907 27.51916931 35.33162689 27.88522339 35.94316101 C30.53854219 40.33419958 33.42007509 44.51130295 36.40258789 48.68188477 C39.03039044 52.49527086 41.25387933 56.51662352 43.5 60.5625 C56.47881198 83.70104267 56.47881198 83.70104267 71.1875 105.75 C76.57330179 113.15048074 81.06680464 120.89390025 85.5390625 128.87109375 C89.7375744 136.34835986 94.07271944 143.7438946 98.4375 151.125 C99.05149155 152.16365707 99.05149155 152.16365707 99.67788696 153.22329712 C105.53828956 163.11155935 111.69418413 172.69927427 118.3125 182.1015625 C121.43715271 186.56253087 124.16822786 191.19173396 126.828125 195.9453125 C127.83801042 197.92597968 127.83801042 197.92597968 129 199 C131.38451182 199.52034378 131.38451182 199.52034378 134 199 C136.05289449 196.7918215 136.05289449 196.7918215 137.70703125 193.76953125 C138.37669922 192.65513672 139.04636719 191.54074219 139.73632812 190.39257812 C140.42893902 189.19953997 141.1209948 188.00617937 141.8125 186.8125 C143.17317708 184.52734375 144.53385417 182.2421875 145.89453125 179.95703125 C146.5770117 178.79581304 147.25922122 177.63443555 147.94116211 176.47290039 C149.97141726 173.02852877 152.07089753 169.63124878 154.1796875 166.234375 C156.93092369 161.78670579 159.53989211 157.29341413 162.05566406 152.7097168 C167.08268648 143.62143055 172.48220971 136.18940007 180 129 C180.67160156 128.34386719 181.34320312 127.68773437 182.03515625 127.01171875 C188.01010087 121.509517 193.39144937 120.55299121 201.26953125 120.765625 C211.27323683 121.62431217 217.60981118 127.93837054 223.9921875 135.296875 C233.31026022 147.43743448 240.20465581 161.56631454 247.32836914 175.04663086 C255.03707206 189.62483582 263.35899644 203.7132752 272.01025391 217.74902344 C274.99979892 222.6335365 277.91134805 227.56262761 280.8125 232.5 C284.90499898 239.45743799 289.02615894 246.39599994 293.1875 253.3125 C307.20900107 276.64090828 320.78441421 300.22859948 334.14453125 323.94140625 C336.45168526 328.03503653 338.78187933 332.11436731 341.125 336.1875 C343.81082097 340.86931002 346.4231477 345.58593285 349.00976562 350.32324219 C352.94176975 357.52295151 356.91930202 364.66480471 361.18139648 371.67504883 C365.19332367 378.2824736 369.09534757 384.95387091 373 391.625 C373.73321955 392.87704395 374.46645534 394.12907839 375.19970703 395.38110352 C377.84931169 399.90606922 380.49739321 404.43192586 383.14550781 408.95776367 C385.76277646 413.43070037 388.38076384 417.90321511 391 422.375 C391.36279053 422.99441467 391.72558105 423.61382935 392.09936523 424.25201416 C396.5315236 431.81701812 400.99848365 439.3580662 405.53125 446.86328125 C408.70299109 452.14905911 411.79326251 457.4829416 414.90145874 462.80621338 C415.26397736 463.42703796 415.62649597 464.04786255 416 464.6875 C416.36114899 465.30606873 416.72229797 465.92463745 417.09439087 466.56195068 C423.36931462 477.30091065 429.7797568 487.95229917 436.29101562 498.54956055 C452.02907044 524.26208742 452.02907044 524.26208742 450 535 C447.0861068 541.36701219 442.92188069 545.42452486 437 549 C433.92869433 550.02376856 431.8506068 550.1255345 428.63407636 550.12649983 C427.51106264 550.12925958 426.38804892 550.13201932 425.23100448 550.13486269 C423.98949701 550.13280737 422.74798954 550.13075205 421.46886063 550.12863445 C420.15056479 550.13038749 418.83226896 550.13214053 417.47402477 550.13394669 C413.7906852 550.13869728 410.1073702 550.1371684 406.42402938 550.13466892 C402.42591393 550.13304186 398.42780388 550.13717164 394.42969012 550.14057809 C387.41438168 550.14574327 380.39908014 550.14714736 373.38376999 550.14612198 C362.95180078 550.14460091 352.51983925 550.14875024 342.08787153 550.1539966 C322.37450408 550.16368326 302.66113922 550.16648134 282.94776967 550.16705366 C267.72717019 550.16751267 252.50657174 550.16956819 237.2859726 550.17275429 C232.90955567 550.17365179 228.53313875 550.1745416 224.15672183 550.17542917 C222.52487294 550.17576074 222.52487294 550.17576074 220.8600574 550.17609901 C190.24609737 550.18225596 159.6321377 550.1861993 129.01817703 550.18575573 C127.86322061 550.18574015 126.70826418 550.18572457 125.51830908 550.18570852 C119.66410886 550.18562541 113.80990864 550.18552637 107.95570841 550.18542381 C106.21161711 550.1853939 106.21161711 550.1853939 104.43229163 550.18536337 C102.08097136 550.18532294 99.72965109 550.18528114 97.37833082 550.18523798 C60.79062803 550.18462514 24.20293451 550.19213224 -12.38476562 550.20581055 C-53.46240693 550.22116098 -94.54004215 550.22977739 -135.61768651 550.22884732 C-139.99536085 550.22877269 -144.37303519 550.22872399 -148.75070953 550.22869301 C-149.82865545 550.22868135 -150.90660136 550.2286697 -152.0172123 550.22865769 C-169.38774082 550.22862688 -186.75826133 550.23502129 -204.12878746 550.24362527 C-221.57801763 550.25208965 -239.02723602 550.25310127 -256.4764671 550.24651595 C-266.85075953 550.2428121 -277.22501626 550.24467748 -287.59930492 550.25445829 C-294.52334539 550.26043619 -301.44735987 550.25918734 -308.37139912 550.25198779 C-312.32032099 550.24808767 -316.26917352 550.24738385 -320.21809062 550.25544515 C-323.80944221 550.26271254 -327.40066659 550.26080106 -330.99201247 550.25152128 C-332.89443184 550.24898376 -334.79685654 550.25627328 -336.69926214 550.26394406 C-345.00151766 550.22913251 -351.74751078 550.08350303 -358 544 C-362.39575774 538.0168853 -363.94051563 533.32914012 -363 526 C-360.93688107 519.42815488 -356.60495765 513.94715751 -352.6328125 508.41796875 C-345.72110754 498.70734783 -339.15950275 488.779254 -332.625 478.8125 C-331.4271622 476.99026391 -330.22924486 475.1680801 -329.03125 473.34594727 C-322.392658 463.23739835 -315.82491615 453.09024035 -309.375 442.86010742 C-305.8148812 437.22908829 -302.11757152 431.71461963 -298.31811523 426.24291992 C-288.01166044 411.3957153 -278.06200461 396.37659019 -268.87109375 380.8125 C-265.94792583 375.87532657 -262.89364286 371.0272082 -259.8125 366.1875 C-255.95645188 360.12500055 -252.17688766 354.02980666 -248.50976562 347.85131836 C-244.63366046 341.33866141 -240.60309824 334.92295672 -236.59277344 328.49243164 C-233.8555151 324.08011653 -231.20922879 319.67211759 -228.8125 315.0625 C-226.70197942 311.06492572 -224.23504928 307.44805841 -221.5625 303.8125 C-214.76439955 294.55562399 -208.86974617 284.72260427 -202.83544922 274.95947266 C-200.14590095 270.62285333 -197.4191208 266.31019787 -194.6875 262 C-191.90584973 257.6079933 -189.12752604 253.21452125 -186.38671875 248.796875 C-182.84057544 243.0821234 -179.29120783 237.38681585 -175.50976562 231.82397461 C-170.00446056 223.72430576 -164.96624684 215.3767857 -159.95483398 206.96411133 C-150.14996848 190.51001144 -140.02270982 174.25213195 -129.93310547 157.97167969 C-125.60771695 150.98993122 -121.30214607 143.99608953 -117 137 C-111.66014424 128.31640155 -106.30739795 119.64104112 -100.93579102 110.97705078 C-97.27855201 105.0748686 -93.63997842 99.16142678 -90.00683594 93.24438477 C-83.22207628 82.19713748 -76.37772452 71.19238912 -69.42675781 60.24902344 C-67.48183326 57.18320465 -65.54566876 54.11189202 -63.60913086 51.04077148 C-56.99761731 40.55740595 -50.36119185 30.08953479 -43.68041992 19.65014648 C-42.49693221 17.78369884 -41.32922398 15.90719893 -40.1730957 14.02368164 C-39.56941162 13.04778076 -38.96572754 12.07187988 -38.34375 11.06640625 C-37.80298828 10.18154541 -37.26222656 9.29668457 -36.70507812 8.38500977 C-34.08788737 4.72416548 -30.84526388 2.27544481 -27 0 C-26.37609375 -0.37511719 -25.7521875 -0.75023437 -25.109375 -1.13671875 C-17.98421144 -4.05275791 -7.16540706 -2.30750397 0 0 Z M37.75 184 C36.83244152 184.99918178 35.91589835 185.99929625 35 187 C33.71193206 188.27448073 32.41996823 189.5450311 31.125 190.8125 C27.91144184 194.02605816 24.88747231 197.34733718 21.921875 200.7890625 C19.60630829 203.4529055 17.24505244 206.07202793 14.875 208.6875 C14.06804687 209.57824219 13.26109375 210.46898437 12.4296875 211.38671875 C7.90285659 216.25560924 3.26757103 220.93517246 -2 225 C-2.80630859 225.62841797 -2.80630859 225.62841797 -3.62890625 226.26953125 C-10.27886716 230.47968548 -19.45385429 230.36818328 -27 229 C-30.8086523 227.33405712 -33.18356934 225.01462393 -36 222 C-36.90234375 221.13117188 -37.8046875 220.26234375 -38.734375 219.3671875 C-42.90419491 215.34929291 -46.89983203 211.1954962 -50.6875 206.8125 C-53.11292679 204.00991354 -55.54082725 201.21674555 -58.0625 198.5 C-58.97708984 197.49453125 -58.97708984 197.49453125 -59.91015625 196.46875 C-62.7981956 194.43902515 -64.50555323 194.6976941 -68 195 C-71.10784468 196.23549263 -71.10784468 196.23549263 -74.2421875 198.04296875 C-75.47004196 198.70579349 -76.69816297 199.36812464 -77.92651367 200.0300293 C-78.89069717 200.55782486 -78.89069717 200.55782486 -79.87435913 201.09628296 C-95.30850961 209.51458945 -111.17179978 216.25269535 -127.52758789 222.64013672 C-130.90173454 223.96151736 -134.27292059 225.28728317 -137.6328125 226.64453125 C-138.55852051 227.01553955 -139.48422852 227.38654785 -140.43798828 227.76879883 C-149.99413834 232.36110536 -155.41397348 241.4165934 -161 250 C-162.16605669 251.70874974 -163.33263833 253.41714151 -164.5 255.125 C-166.12471795 257.51694587 -167.07391576 259.22174728 -168 262 C-168.98375023 263.0159899 -169.98625962 264.01393183 -171 265 C-172.09260483 266.46896571 -173.15213506 267.96280029 -174.1875 269.47265625 C-174.79787109 270.36243164 -175.40824219 271.25220703 -176.03710938 272.16894531 C-176.68486328 273.12381836 -177.33261719 274.07869141 -178 275.0625 C-178.67353516 276.05475586 -179.34707031 277.04701172 -180.04101562 278.06933594 C-192.26056959 296.18938813 -202.93384535 315.21002515 -213.81054688 334.15332031 C-221.68697489 347.84786118 -229.87773599 361.27841042 -238.43505859 374.55761719 C-240.6785168 378.05895196 -242.87169128 381.59058487 -245.0625 385.125 C-249.2044979 391.78692505 -253.46711576 398.36629637 -257.75537109 404.93481445 C-262.27645134 411.86639209 -266.73670422 418.83563337 -271.1875 425.8125 C-275.84265443 433.10402264 -280.52930038 440.36695384 -285.35327148 447.54785156 C-294.15138673 460.65446366 -302.66090987 473.95432329 -311.06738281 487.31469727 C-316.91109609 496.55682669 -323.20112591 505.40345735 -329.875 514.0625 C-330.45507812 514.81982422 -331.03515625 515.57714844 -331.6328125 516.35742188 C-335.84800314 521.84800314 -335.84800314 521.84800314 -337 523 C-337.04080783 524.99958364 -337.04254356 527.00045254 -337 529 C-250.30578338 529.07307633 -163.61181322 528.99701355 -30.34375 528.78125 C-28.69248374 528.7784857 -27.04121749 528.77572148 -25.38995123 528.77295732 C15.12203592 528.70510629 55.63401891 528.63490962 96.14600027 528.56369197 C122.3868832 528.5175622 148.6277672 528.47210198 174.86865234 528.42724609 C175.74254765 528.42575204 176.61644295 528.42425798 177.51681993 528.42271865 C186.29911731 528.40770462 195.0814147 528.39270228 203.86371211 528.37770845 C221.72729745 528.34721008 239.59088265 528.31663415 257.45446777 528.28601074 C258.27438925 528.28460525 259.09431072 528.28319976 259.93907829 528.28175168 C313.9593878 528.18914259 367.97969417 528.09472473 422 528 C422.03502509 526.5654221 422.05996571 525.13059573 422.08067322 523.69573975 C422.09564818 522.89676144 422.11062315 522.09778313 422.1260519 521.27459335 C421.94039275 517.92439342 420.67437872 515.813851 418.87890625 513.015625 C418.19957031 511.93087891 417.52023437 510.84613281 416.8203125 509.72851562 C416.26972168 508.88027222 416.26972168 508.88027222 415.70800781 508.01489258 C414.12716212 505.57927163 412.59102713 503.11643159 411.05075073 500.6550293 C410.2441011 499.36727085 409.43509183 498.08098768 408.62380981 496.79614258 C404.78762229 490.7120717 401.15002611 484.52098181 397.54318237 478.29904175 C391.48539007 467.85195068 385.29549594 457.49290922 379 447.1875 C374.18044886 439.29762363 369.43073575 431.39041782 364.95581055 423.29956055 C362.65717551 419.14551503 360.27075025 415.06039895 357.8125 411 C352.03224557 401.44800435 346.44062996 391.78626597 340.82617188 382.13623047 C339.05875935 379.10091212 337.28793868 376.06761499 335.515625 373.03515625 C330.76104013 364.89827756 326.00683266 356.76168864 321.3125 348.58984375 C320.69455566 347.51428223 320.07661133 346.4387207 319.43994141 345.33056641 C318.19442854 343.1624994 316.9493074 340.9942073 315.70458984 338.82568359 C312.4555605 333.18593916 309.16252025 327.57764979 305.7890625 322.01171875 C305.44372971 321.44111221 305.09839691 320.87050568 304.74259949 320.28260803 C303.08583594 317.5476461 301.42159181 314.81767763 299.74633789 312.09399414 C298.85676392 310.63207642 298.85676392 310.63207642 297.94921875 309.140625 C297.42674561 308.29016602 296.90427246 307.43970703 296.3659668 306.56347656 C294.88264033 303.77975397 293.91744358 301.01292756 293 298 C292.34 298 291.68 298 291 298 C291 297.34 291 296.68 291 296 C290.1440625 295.82726562 289.288125 295.65453125 288.40625 295.4765625 C277.83680173 293.17242278 267.56336384 290.11261369 257.25 286.875 C256.17915161 286.53967255 256.17915161 286.53967255 255.08666992 286.1975708 C242.95467222 282.38987755 242.95467222 282.38987755 239.21777344 280.86376953 C236.18903312 279.68414786 235.03407735 279.77192107 232 281 C228.49653787 283.93838759 225.56294526 287.28068106 222.75 290.875 C217.27099631 297.63786264 209.49756619 302.82130734 202.36328125 307.7109375 C201.91339844 308.13632812 201.46351563 308.56171875 201 309 C201 309.99 201 310.98 201 312 C200.34 312 199.68 312 199 312 C200.27986227 316.28722337 201.90035342 319.73973724 204.3125 323.5 C208.13945015 329.55669084 211.8047192 335.7000618 215.4375 341.875 C220.5836116 350.60871184 225.76962379 359.31655988 231 368 C235.76720325 375.91547707 240.50848844 383.84449082 245.1875 391.8125 C250.33832472 400.58102621 255.5245115 409.30495908 261.0078125 417.87109375 C264.63415337 423.56658206 268.20763759 429.29596292 271.76635742 435.03393555 C272.62555765 436.40324871 273.49928731 437.76350708 274.3840332 439.11645508 C274.83351318 439.8102124 275.28299316 440.50396973 275.74609375 441.21875 C276.15529053 441.84072266 276.5644873 442.46269531 276.98608398 443.10351562 C278.75930407 446.42024417 278.93650847 449.25399947 279 453 C277 456 277 456 274.13671875 456.6171875 C272.99847656 456.70226562 271.86023438 456.78734375 270.6875 456.875 C269.55699219 456.97554687 268.42648437 457.07609375 267.26171875 457.1796875 C263.35969422 456.96472567 261.99084996 456.52011205 259 454 C256.7648308 451.14156632 254.88762984 448.09577971 253 445 C252.3915625 444.0095166 251.783125 443.0190332 251.15625 441.99853516 C249.45566384 439.20935454 247.76625018 436.4138207 246.08343506 433.6138916 C239.91568585 423.35897919 233.63845433 413.1859378 227.18310547 403.10888672 C218.00870254 388.78690273 209.02866548 374.34068163 200.1328125 359.84423828 C197.5521609 355.64289299 194.96468392 351.44578248 192.375 347.25 C191.83601074 346.37384033 191.29702148 345.49768066 190.74169922 344.5949707 C186.42319863 337.60371133 182.09216631 330.64675248 177.03125 324.1640625 C173.2793281 319.22565621 170.44749771 313.81731237 167.5 308.375 C162.41167329 299.13162412 157.04793905 290.16053172 151.31787109 281.30322266 C146.94667556 274.53229779 142.75036174 267.67325024 138.625 260.75 C133.32376993 251.86252112 127.97772868 243.00582453 122.5625 234.1875 C121.9245752 233.1449707 121.28665039 232.10244141 120.62939453 231.02832031 C111.06869954 213.1550274 111.06869954 213.1550274 95.875 201.1875 C95.25101318 200.95087646 94.62702637 200.71425293 93.98413086 200.47045898 C86.08315396 197.53955565 78.02774798 195.01740281 70.0168457 192.40722656 C62.70339399 189.99553429 55.61728767 187.35512045 48.66821289 184.03149414 C43.017487 181.33590599 43.017487 181.33590599 37.75 184 Z " fill="#010404" transform="translate(473,239)"/>
<path d="M0 0 C9.05253267 3.16838643 14.07567316 14.84477127 18.5625 22.8125 C19.785018 24.94483684 21.00898916 27.07634117 22.234375 29.20703125 C22.83056641 30.24682129 23.42675781 31.28661133 24.04101562 32.35791016 C26.40403003 36.44322449 28.84151667 40.47929328 31.3125 44.5 C31.75287598 45.21671875 32.19325195 45.9334375 32.64697266 46.671875 C34.01174946 48.88722231 35.38027987 51.10020604 36.75 53.3125 C37.23758789 54.10092285 37.72517578 54.8893457 38.22753906 55.70166016 C40.3386433 59.114859 42.45093232 62.5273202 44.56494141 65.9387207 C48.94988368 73.01503512 53.32225595 80.09901805 57.6875 87.1875 C58.36240479 88.2820752 59.03730957 89.37665039 59.73266602 90.50439453 C62.9795535 95.77771653 66.20758229 101.06051895 69.38671875 106.375 C75.60903332 116.75589049 82.01454402 126.87397684 89.13330078 136.66943359 C92.53483359 141.3850354 95.29042713 146.03941572 97.75 151.3125 C91.67988979 150.76439032 86.71280589 148.86353843 81.125 146.5 C63.29847638 138.51495431 63.29847638 138.51495431 44.4296875 139.390625 C39.84477239 141.46845376 36.68418638 144.90399792 33.25 148.5 C32.25782471 149.51537842 32.25782471 149.51537842 31.24560547 150.55126953 C27.48485755 154.42375049 23.83978901 158.37095848 20.34765625 162.48828125 C15.182784 168.38558037 9.43797657 173.72644588 3.4765625 178.8046875 C1.71388437 180.24186669 1.71388437 180.24186669 0.4609375 182.0078125 C-1.25 183.3125 -1.25 183.3125 -4.46875 183.96875 C-9.98952354 183.01059922 -12.19610707 179.94527446 -15.75 175.8125 C-16.37519531 175.11640625 -17.00039063 174.4203125 -17.64453125 173.703125 C-20.16303084 170.88741117 -22.63722878 168.03780933 -25.07519531 165.15209961 C-28.44402837 161.19920642 -31.71853913 157.88048877 -36 154.875 C-36.92296875 154.21628906 -37.8459375 153.55757812 -38.796875 152.87890625 C-44.24402375 149.40071095 -49.99375229 149.79177492 -56.25 150.3125 C-63.39452147 151.9311001 -69.69256928 155.52147582 -76.05639648 159.03051758 C-82.24776319 162.41066074 -88.64171481 165.27006022 -95.10913086 168.07885742 C-100.05933282 170.24785581 -104.76008737 172.63617597 -109.42431641 175.37036133 C-111.25 176.3125 -111.25 176.3125 -113.25 176.3125 C-111.36784898 164.60593429 -102.10529348 153.61545947 -95.83789062 143.80322266 C-93.82693258 140.64888779 -91.8313772 137.48500297 -89.8371582 134.32006836 C-87.85040678 131.16760571 -85.85867716 128.01830257 -83.86669922 124.86914062 C-82.73483031 123.0792084 -81.60370764 121.28880416 -80.47314453 119.49804688 C-78.63038676 116.58046904 -76.78426176 113.66504468 -74.9375 110.75 C-74.37498535 109.85821045 -73.8124707 108.9664209 -73.23291016 108.04760742 C-70.5020347 103.74388597 -67.70969258 99.51849023 -64.74609375 95.37109375 C-61.01335981 90.08835691 -57.81842204 84.55740721 -54.625 78.9375 C-49.72254058 70.42218525 -44.62700648 62.09706558 -39.21850586 53.89526367 C-34.94293533 47.40669966 -30.79501289 40.84613948 -26.6875 34.25 C-26.06133789 33.24686768 -25.43517578 32.24373535 -24.79003906 31.21020508 C-21.77165765 26.37191723 -18.76472822 21.52695679 -15.7734375 16.671875 C-14.70326811 14.94782783 -13.6329631 13.22386482 -12.5625 11.5 C-12.08159912 10.71165771 -11.60069824 9.92331543 -11.10522461 9.11108398 C-5.7723366 0.55503237 -5.7723366 0.55503237 0 0 Z " fill="#EDF1F4" transform="translate(461.25,261.6875)"/>
<path d="M0 0 C9.97889975 4.53199498 14.95325398 17.05452101 20.23925781 26.12695312 C27.34750449 38.28594012 34.93013915 50.0856338 42.68927002 61.83474731 C50.42638696 73.55267426 57.98063417 85.36380911 65.34521484 97.32080078 C67.00693398 100.01122655 68.68363373 102.69183191 70.36328125 105.37109375 C71.38842463 107.01797788 72.41318689 108.66509934 73.4375 110.3125 C73.90494629 111.05419434 74.37239258 111.79588867 74.85400391 112.56005859 C78 117.65790583 78 117.65790583 78 121 C70.63186047 119.6842608 63.91944796 117.21887604 56.96484375 114.53515625 C56.31467285 114.28451416 55.66450195 114.03387207 54.99462891 113.77563477 C53.62932137 113.24471897 52.26712945 112.70574008 50.90771484 112.15991211 C44.04727839 109.46237752 38.13494625 108.5878062 30.98046875 111.03125 C24.66004931 113.95211136 19.91757752 117.65481323 14.8984375 122.4140625 C11.23655047 125.68113692 7.40037753 128.60983614 3.4375 131.5 C2.74116455 132.02867676 2.0448291 132.55735352 1.32739258 133.10205078 C-3.46004379 136.53328084 -7.97420466 138.77488088 -14 138 C-19.59425394 134.31476447 -22.56295537 127.42295135 -25.875 121.75 C-27.19725682 119.50742332 -28.52019438 117.26524789 -29.84375 115.0234375 C-30.18175629 114.44868683 -30.51976257 113.87393616 -30.86801147 113.2817688 C-33.29067014 109.17018974 -35.7720718 105.09830023 -38.28125 101.0390625 C-38.96719238 99.92176758 -39.65313477 98.80447266 -40.35986328 97.65332031 C-41.67774457 95.50932832 -43.00392428 93.37040953 -44.33935547 91.23730469 C-50.10410609 81.79276048 -50.10410609 81.79276048 -50 76 C-49.171875 73.83984375 -49.171875 73.83984375 -47.75 71.9375 C-47.19183594 71.16664063 -46.63367188 70.39578125 -46.05859375 69.6015625 C-44.58314255 67.73695054 -43.07072341 65.90136238 -41.53515625 64.0859375 C-34.35030549 55.51508975 -29.53584365 46.53762217 -24.68359375 36.484375 C-18.17883371 23.0391742 -10.61904757 10.61904757 0 0 Z " fill="#EDF0F3" transform="translate(669,387)"/>
<path d="M0 0 C0.33 1.32 0.66 2.64 1 4 C87.4536507 4.7911048 173.90671806 5.06641287 303.58014013 5.03076916 C309.26232919 5.02806404 314.94451832 5.02558227 320.62670755 5.02324343 C321.43133827 5.022912 322.23596898 5.02258057 323.06498245 5.02223909 C323.87020485 5.02190748 324.67542725 5.02157587 325.50505032 5.02123421 C380.81745929 4.99844625 436.12986525 4.96593858 491.44226074 4.92095947 C493.17754667 4.91955093 494.91283259 4.91814239 496.64811851 4.91673386 C498.38375246 4.91532395 500.1193864 4.91391392 501.85502034 4.91250378 C504.45798651 4.91038933 507.06095268 4.90827549 509.66391885 4.90616344 C511.39730503 4.90475679 513.13069121 4.90334852 514.86407739 4.90193863 C543.45602118 4.87872571 572.04796274 4.86226619 600.63991464 4.85326203 C604.65990968 4.85198624 608.67990469 4.8506176 612.69989967 4.84918404 C613.4902679 4.84890269 614.28063613 4.84862134 615.0949549 4.84833147 C627.76191538 4.84359278 640.42885836 4.83146901 653.09581021 4.81629714 C665.71276836 4.80129349 678.32971459 4.79322398 690.94668182 4.79251044 C697.76716568 4.79191295 704.58761036 4.78801335 711.40808296 4.7750473 C717.63446469 4.76351062 723.86077933 4.76101821 730.08716915 4.76598949 C732.34672876 4.76614176 734.60629155 4.76285086 736.86584052 4.75591242 C739.9160353 4.74702148 742.96597462 4.75023201 746.01616955 4.75669765 C746.90871015 4.75115778 747.80125075 4.74561791 748.72083804 4.73991016 C754.77170901 4.77170901 754.77170901 4.77170901 757 7 C702.15149071 7.09617698 647.3029808 7.19199079 592.45446777 7.28601074 C591.22095229 7.28812535 591.22095229 7.28812535 589.9625173 7.29028267 C572.05610257 7.32097746 554.14968775 7.35161104 536.24327281 7.38218227 C527.45173264 7.39719224 518.66019248 7.41221563 509.86865234 7.42724609 C508.55691836 7.42948836 508.55691836 7.42948836 507.2186847 7.43177592 C481.00168799 7.4765968 454.78469261 7.52213657 428.56769811 7.56822447 C388.08953241 7.63937109 347.61136483 7.70934462 307.13319331 7.77710348 C305.4812391 7.77986893 303.82928488 7.78263582 302.17733067 7.78540415 C216.85458647 7.92837982 131.53200059 8.05393772 -2 8 C-2.125 5.125 -2.125 5.125 -2 2 C-1.34 1.34 -0.68 0.68 0 0 Z " fill="#113D3B" transform="translate(138,760)"/>
<path d="M0 0 C0.66 0 1.32 0 2 0 C3.625 2 3.625 2 5 4 C6.32 3.67 7.64 3.34 9 3 C15.93 3 22.86 3 30 3 C30 17.19 30 31.38 30 46 C29.01 46 28.02 46 27 46 C25.09440947 43.56196506 23.41691841 41.15942686 21.75 38.5625 C21.23856445 37.77931396 20.72712891 36.99612793 20.20019531 36.18920898 C15.59037947 29.05938797 11.15243321 21.82168619 6.75 14.5625 C6.08194336 13.46687744 5.41388672 12.37125488 4.72558594 11.24243164 C4.10973633 10.21496826 3.49388672 9.18750488 2.859375 8.12890625 C2.30733398 7.21181885 1.75529297 6.29473145 1.18652344 5.34985352 C0 3 0 3 0 0 Z " fill="#F5F6F6" transform="translate(519,303)"/>
<path d="M0 0 C20.46 0 40.92 0 62 0 C62 1.65 62 3.3 62 5 C42.2 5 22.4 5 2 5 C2 3.68 2 2.36 2 1 C1.34 0.67 0.68 0.34 0 0 Z " fill="#F4F4F4" transform="translate(795,791)"/>
<path d="M0 0 C20.13 0 40.26 0 61 0 C61 0.33 61 0.66 61 1 C57.37 1.33 53.74 1.66 50 2 C50.495 3.485 50.495 3.485 51 5 C34.17 5 17.34 5 0 5 C0 3.35 0 1.7 0 0 Z " fill="#F3F3F4" transform="translate(427,791)"/>
<path d="M0 0 C19.14 0 38.28 0 58 0 C58 1.65 58 3.3 58 5 C43.81 5 29.62 5 15 5 C15.99 4.67 16.98 4.34 18 4 C18 3.34 18 2.68 18 2 C12.06 1.67 6.12 1.34 0 1 C0 0.67 0 0.34 0 0 Z " fill="#F3F3F4" transform="translate(553,791)"/>
<path d="M0 0 C0.66 0.33 1.32 0.66 2 1 C-3.28968183 7.62564243 -9.37465101 12.75160607 -16 18 C-17.19130459 19.01639082 -18.3796889 20.03623743 -19.5625 21.0625 C-22 23 -22 23 -24 23 C-24 23.99 -24 24.98 -24 26 C-24.99 26.33 -25.98 26.66 -27 27 C-27.66 25.35 -28.32 23.7 -29 22 C-24.31253647 16.06154138 -19.50527801 11.8425519 -13 8 C-12.17371094 7.51144531 -11.34742188 7.02289062 -10.49609375 6.51953125 C-4.35416667 3 -4.35416667 3 -2 3 C-2 2.34 -2 1.68 -2 1 C-1.34 0.67 -0.68 0.34 0 0 Z " fill="#092D2B" transform="translate(698,525)"/>
<path d="M0 0 C0.66 0.66 1.32 1.32 2 2 C-3.5031753 11.99493475 -9.49150444 21.56735136 -15.83813477 31.04541016 C-17.33543752 33.28429803 -18.82129943 35.53050711 -20.30664062 37.77734375 C-21.26235114 39.21138404 -22.21870663 40.64499475 -23.17578125 42.078125 C-23.83674553 43.07951508 -23.83674553 43.07951508 -24.51106262 44.10113525 C-26.50601193 47.06339221 -27.99182781 48.99455187 -31 51 C-31 47.65745805 -30.48395336 46.81900983 -28.7265625 44.078125 C-28.23647705 43.30750732 -27.7463916 42.53688965 -27.24145508 41.74291992 C-26.7080249 40.92025635 -26.17459473 40.09759277 -25.625 39.25 C-25.08061279 38.39962158 -24.53622559 37.54924316 -23.9753418 36.6730957 C-20.24705435 30.86949094 -16.45062262 25.1122131 -12.60253906 19.38745117 C-8.30230103 12.98870398 -4.14598707 6.49938552 0 0 Z " fill="#CBCDCF" transform="translate(405,344)"/>
<path d="M0 0 C0.66 0 1.32 0 2 0 C3.59375 2.24609375 3.59375 2.24609375 5.5 5.4375 C5.84313232 6.00718506 6.18626465 6.57687012 6.53979492 7.16381836 C8.59959041 10.59711648 10.61973736 14.05379569 12.64453125 17.5078125 C13.3096875 18.64198608 13.3096875 18.64198608 13.98828125 19.79907227 C14.85741518 21.28464393 15.72340881 22.77205821 16.5859375 24.26147461 C18.21837113 27.06475946 19.80555131 29.74627857 21.78125 32.32421875 C23.43039465 34.59179264 23.22763218 36.26841385 23 39 C19.71403558 35.07488918 16.98934738 30.97130751 14.3125 26.625 C13.66982178 25.58629761 13.66982178 25.58629761 13.01416016 24.52661133 C12.12196116 23.08124895 11.23168199 21.63469984 10.34326172 20.18701172 C9.45217327 18.73619924 8.55799441 17.28728009 7.66064453 15.84033203 C6.39167417 13.7936513 5.1319977 11.74155025 3.875 9.6875 C3.48481689 9.0598877 3.09463379 8.43227539 2.69262695 7.78564453 C0 3.34418541 0 3.34418541 0 0 Z " fill="#E1E3E3" transform="translate(519,303)"/>
<path d="M0 0 C2.25 0.25 2.25 0.25 4 1 C3.01 1 2.02 1 1 1 C0.773125 1.7425 0.54625 2.485 0.3125 3.25 C-1.24928606 6.52231364 -3.12235056 7.86020939 -6 10 C-6.33 10.66 -6.66 11.32 -7 12 C-7.66 12 -8.32 12 -9 12 C-9.66 13.32 -10.32 14.64 -11 16 C-11.66 16 -12.32 16 -13 16 C-13.26731934 16.59329102 -13.53463867 17.18658203 -13.81005859 17.79785156 C-15.01584993 20.02933245 -16.2358095 21.4664799 -18.0390625 23.234375 C-18.61914062 23.80800781 -19.19921875 24.38164062 -19.796875 24.97265625 C-20.40015625 25.55917969 -21.0034375 26.14570313 -21.625 26.75 C-22.23601562 27.35199219 -22.84703125 27.95398438 -23.4765625 28.57421875 C-24.97988624 30.05405305 -26.48934856 31.52764676 -28 33 C-28.66 32.67 -29.32 32.34 -30 32 C-23.51917673 24.96130367 -17.02342401 17.93675226 -10.5 10.9375 C-9.91331543 10.30706787 -9.32663086 9.67663574 -8.72216797 9.02709961 C-7.63123841 7.85788648 -6.53752338 6.69126319 -5.44042969 5.52783203 C-4.19738369 4.20936053 -2.96486259 2.88098077 -1.734375 1.55078125 C-1.16203125 1.03902344 -0.5896875 0.52726562 0 0 Z " fill="#123B39" transform="translate(513,421)"/>
<path d="M0 0 C0.99 0 1.98 0 3 0 C3.86660295 6.24348033 1.02317566 9.58798246 -2.5 14.375 C-3.28697266 15.47908203 -3.28697266 15.47908203 -4.08984375 16.60546875 C-5.38096606 18.41303999 -6.68428315 20.21029425 -8 22 C-8.66 21.67 -9.32 21.34 -10 21 C-10.44921875 19.00390625 -10.44921875 19.00390625 -10.6875 16.5625 C-10.77386719 15.75941406 -10.86023438 14.95632813 -10.94921875 14.12890625 C-11 12 -11 12 -10 10 C-7.35139573 9.40644386 -4.70802678 9.25790731 -2 9 C-0.50178941 5.62902617 0 3.79557881 0 0 Z " fill="#F5F5F6" transform="translate(192,631)"/>
<path d="M0 0 C4.38290023 2.18771681 6.11595263 4.34548776 8.3125 8.6875 C8.82425781 9.68136719 9.33601562 10.67523438 9.86328125 11.69921875 C10.23839844 12.45847656 10.61351562 13.21773438 11 14 C6.02693484 13.50269348 2.36200187 12.44697666 -2 10 C-2.17942163 6.05272412 -2.09350689 3.4019487 0 0 Z " fill="#F0F2F3" transform="translate(548,399)"/>
<path d="M0 0 C0.66 0.99 1.32 1.98 2 3 C-3.83476996 11.13282181 -9.86514225 19.09257064 -16 27 C-16 23.80389448 -15.45328458 22.58282374 -14 19.8125 C-13.62875 19.09707031 -13.2575 18.38164063 -12.875 17.64453125 C-12.58625 17.10183594 -12.2975 16.55914063 -12 16 C-11.01 16 -10.02 16 -9 16 C-8.89558594 15.44570313 -8.79117188 14.89140625 -8.68359375 14.3203125 C-7.86013434 11.525256 -6.57969012 9.36037257 -5.0625 6.875 C-4.53785156 6.00617187 -4.01320312 5.13734375 -3.47265625 4.2421875 C-2 2 -2 2 0 0 Z " fill="#041211" transform="translate(154,734)"/>
<path d="M0 0 C0.66 0.33 1.32 0.66 2 1 C1.07058594 1.9178125 0.14117187 2.835625 -0.81640625 3.78125 C-9.33165836 12.20734008 -9.33165836 12.20734008 -17.3359375 21.11328125 C-20.69767296 24.92482638 -24.37098859 28.44505005 -28 32 C-28 29 -28 29 -26.27734375 27.01953125 C-25.11912109 25.92705078 -25.11912109 25.92705078 -23.9375 24.8125 C-21.0522065 22.02577242 -18.27680715 19.25108618 -15.6875 16.1875 C-10.79643529 10.47353104 -5.35397841 5.27485557 0 0 Z " fill="#8F9293" transform="translate(499,403)"/>
<path d="M0 0 C1.32 0.66 2.64 1.32 4 2 C3.34097701 5.57040303 1.83770842 8.17732255 -0.0625 11.25 C-0.61035156 12.14203125 -1.15820312 13.0340625 -1.72265625 13.953125 C-2.14417969 14.62859375 -2.56570313 15.3040625 -3 16 C-3.66 15.67 -4.32 15.34 -5 15 C-4.67 11.37 -4.34 7.74 -4 4 C-3.01 4.33 -2.02 4.66 -1 5 C-0.67 3.35 -0.34 1.7 0 0 Z " fill="#F0F1F1" transform="translate(370,344)"/>
<path d="M0 0 C-5.22736083 3.19764805 -10.49021113 6.33782429 -15.8125 9.375 C-16.68519531 9.87773437 -17.55789063 10.38046875 -18.45703125 10.8984375 C-21.19347639 12.08381005 -23.05166232 12.22231631 -26 12 C-21.75474648 8.69044729 -17.17945093 6.26860559 -12.4375 3.75 C-11.57447266 3.27820313 -10.71144531 2.80640625 -9.82226562 2.3203125 C-8.99275391 1.87945312 -8.16324219 1.43859375 -7.30859375 0.984375 C-6.55376709 0.57928711 -5.79894043 0.17419922 -5.02124023 -0.24316406 C-3 -1 -3 -1 0 0 Z " fill="#14413E" transform="translate(408,435)"/>
<path d="M0 0 C0.99 0 1.98 0 3 0 C3.66 1.65 4.32 3.3 5 5 C1.71368707 8.45062857 -1.2006152 11.142967 -6 12 C-5.45276317 8.62537285 -4.9451 6.91765 -3 4 C-2.34 3.67 -1.68 3.34 -1 3 C-0.67 2.01 -0.34 1.02 0 0 Z " fill="#E7E9EA" transform="translate(354,426)"/>
<path d="M0 0 C0.66 0 1.32 0 2 0 C2.66 2.31 3.32 4.62 4 7 C4.598125 7.061875 5.19625 7.12375 5.8125 7.1875 C8 8 8 8 9.875 10.3125 C11 13 11 13 10.1875 15.3125 C9.795625 15.869375 9.40375 16.42625 9 17 C8.34 17 7.68 17 7 17 C5.2734375 14.55078125 5.2734375 14.55078125 3.375 11.3125 C2.74335937 10.25675781 2.11171875 9.20101563 1.4609375 8.11328125 C0.01859843 5.03963355 -0.33361157 3.32993771 0 0 Z " fill="#EFF0F0" transform="translate(574,391)"/>
<path d="M0 0 C0 3.5184601 -0.81032941 4.70022623 -2.625 7.66796875 C-3.16640625 8.56064453 -3.7078125 9.45332031 -4.265625 10.37304688 C-4.83796875 11.30181641 -5.4103125 12.23058594 -6 13.1875 C-6.57234375 14.12787109 -7.1446875 15.06824219 -7.734375 16.03710938 C-9.15039252 18.36173814 -10.57244813 20.68244295 -12 23 C-12.66 22.67 -13.32 22.34 -14 22 C-11.93434834 16.83254988 -9.47844854 12.27819695 -6.4375 7.625 C-6.03853516 6.99722656 -5.63957031 6.36945313 -5.22851562 5.72265625 C-2.25655926 1.12827963 -2.25655926 1.12827963 0 0 Z " fill="#D9DDDD" transform="translate(373,396)"/>
<path d="M0 0 C4.15694874 3.61304891 6.55628398 8.02816639 9.25 12.75 C9.70890625 13.54277344 10.1678125 14.33554687 10.640625 15.15234375 C11.76605746 17.09840405 12.88561584 19.04759896 14 21 C13.01 21.33 12.02 21.66 11 22 C9.34218111 19.27794663 7.70095788 16.54624351 6.0625 13.8125 C5.59392578 13.04357422 5.12535156 12.27464844 4.64257812 11.48242188 C0.41386388 4.39400159 0.41386388 4.39400159 0 0 Z " fill="#7D8382" transform="translate(587,416)"/>
<path d="M0 0 C2.31 0 4.62 0 7 0 C6.01 1.485 6.01 1.485 5 3 C5 2.34 5 1.68 5 1 C3.35 1 1.7 1 0 1 C0 0.67 0 0.34 0 0 Z M2 2 C6.86099754 4.01144726 8.44457637 6.80370295 10.625 11.5 C11.62086796 14.03493663 12.46889131 16.34445655 13 19 C10.23877747 16.42169757 8.05264642 13.53582684 5.8125 10.5 C5.09707031 9.5409375 4.38164063 8.581875 3.64453125 7.59375 C2 5 2 5 2 2 Z " fill="#F1F2F2" transform="translate(692,367)"/>
<path d="M0 0 C4.01492371 3.70121123 6.46398289 8.41805326 9.25 13.0625 C9.8171875 13.98611328 10.384375 14.90972656 10.96875 15.86132812 C11.76539063 17.18487305 11.76539063 17.18487305 12.578125 18.53515625 C13.06700195 19.343479 13.55587891 20.15180176 14.05957031 20.98461914 C14.36991211 21.64969482 14.68025391 22.31477051 15 23 C14.67 23.66 14.34 24.32 14 25 C13.68546875 24.50628906 13.3709375 24.01257813 13.046875 23.50390625 C12.40492188 22.54291016 12.40492188 22.54291016 11.75 21.5625 C11.12351562 20.60537109 11.12351562 20.60537109 10.484375 19.62890625 C8.72751123 17.70097943 7.53910197 17.38520564 5 17 C5.22558594 16.28199219 5.45117188 15.56398438 5.68359375 14.82421875 C6.09430095 11.15827671 5.0842758 9.84287144 3.0625 6.8125 C0 2.1594533 0 2.1594533 0 0 Z " fill="#1A6360" transform="translate(875,727)"/>
<path d="M0 0 C0.8125 1.6875 0.8125 1.6875 1 4 C-1.02308535 6.89975567 -2.72013929 8.61881405 -6.1640625 9.64453125 C-10.1298656 10.24802303 -12.37358008 10.29403384 -16.0625 8.5625 C-16.701875 8.046875 -17.34125 7.53125 -18 7 C-14.39633235 5.19816618 -10.04514711 5.76078541 -6.06640625 5.671875 C-2.79561167 5.30498879 -2.79561167 5.30498879 -1.08984375 2.453125 C-0.73019531 1.64359375 -0.37054687 0.8340625 0 0 Z " fill="#0F3533" transform="translate(753,690)"/>
<path d="M0 0 C0.99 0.33 1.98 0.66 3 1 C4.1875 3.5625 4.1875 3.5625 5 6 C5.66 6 6.32 6 7 6 C11.98846225 11.59713403 13.76516651 16.60274505 14 24 C13.72671875 23.43667969 13.4534375 22.87335937 13.171875 22.29296875 C9.68007516 15.4606804 5.43438205 9.03631637 1.1015625 2.71484375 C0 1 0 1 0 0 Z " fill="#0F3232" transform="translate(739,664)"/>
<path d="M0 0 C0.78375 0.04125 1.5675 0.0825 2.375 0.125 C1.2532037 1.9186743 0.12745517 3.7098773 -1 5.5 C-1.62648437 6.49773438 -2.25296875 7.49546875 -2.8984375 8.5234375 C-5.01372439 11.71072498 -5.96209089 12.9040303 -9.625 14.125 C-9.625 13.135 -9.625 12.145 -9.625 11.125 C-8.305 10.795 -6.985 10.465 -5.625 10.125 C-5.02767181 7.36235711 -4.625 4.96467231 -4.625 2.125 C-2.625 0.125 -2.625 0.125 0 0 Z " fill="#F4F3F5" transform="translate(141.625,712.875)"/>
<path d="M0 0 C3.7952131 1.49097658 5.61042731 3.75700849 8 7 C7.01 7.495 7.01 7.495 6 8 C5.38125 7.67 4.7625 7.34 4.125 7 C1.58494029 5.80467778 0.58441461 6.07699478 -2 7 C-2.6875 5.1875 -2.6875 5.1875 -3 3 C-1.5625 1.25 -1.5625 1.25 0 0 Z " fill="#E4E7E8" transform="translate(669,387)"/>
<path d="M0 0 C0 0.99 0 1.98 0 3 C-2.41032251 4.20216334 -4.82683479 5.38674978 -7.25 6.5625 C-8.27287109 7.07586914 -8.27287109 7.07586914 -9.31640625 7.59960938 C-13.02168909 9.38030356 -15.07871478 10.3058334 -19 9 C-16.67607797 7.45071865 -14.73130052 6.36392183 -12.20703125 5.2734375 C-11.49482422 4.9640625 -10.78261719 4.6546875 -10.04882812 4.3359375 C-8.9418457 3.86027344 -8.9418457 3.86027344 -7.8125 3.375 C-6.68811523 2.88773437 -6.68811523 2.88773437 -5.54101562 2.390625 C-3.6951398 1.59113738 -1.84771816 0.79522047 0 0 Z " fill="#113935" transform="translate(351,459)"/>
<path d="M0 0 C0.99 0.33 1.98 0.66 3 1 C0.03 6.28 -2.94 11.56 -6 17 C-6.99 16.67 -7.98 16.34 -9 16 C-6.03 10.72 -3.06 5.44 0 0 Z " fill="#DEE2E3" transform="translate(655,404)"/>
<path d="M0 0 C3.97497544 3.40712181 5.86793788 7.32760855 8 12 C5.69 11.67 3.38 11.34 1 11 C0.83197949 9.54182203 0.66562857 8.0834516 0.5 6.625 C0.4071875 5.81289063 0.314375 5.00078125 0.21875 4.1640625 C0 2 0 2 0 0 Z " fill="#BCC0C1" transform="translate(551,401)"/>
<path d="M0 0 C0.33 0 0.66 0 1 0 C1.33 2.31 1.66 4.62 2 7 C1.34 7 0.68 7 0 7 C0 7.99 0 8.98 0 10 C-0.99 10.33 -1.98 10.66 -3 11 C-3.66 9.35 -4.32 7.7 -5 6 C-3.35830472 3.97945196 -1.69088222 1.97956942 0 0 Z " fill="#072724" transform="translate(674,541)"/>
<path d="M0 0 C0.99 0 1.98 0 3 0 C2.33333333 1.66666667 1.66666667 3.33333333 1 5 C0.690625 5.86625 0.38125 6.7325 0.0625 7.625 C-1.01866956 10.04173196 -2.02921364 11.27556194 -4 13 C-4.66 13.66 -5.32 14.32 -6 15 C-7 12 -7 12 -5.671875 9.08203125 C-5.03765625 8.00308594 -4.4034375 6.92414063 -3.75 5.8125 C-3.12609375 4.72582031 -2.5021875 3.63914062 -1.859375 2.51953125 C-1.24578125 1.68808594 -0.6321875 0.85664063 0 0 Z " fill="#E5E8EA" transform="translate(414,328)"/>
<path d="M0 0 C2.7256251 2.49918855 4.66851015 5.28514131 6.6875 8.375 C7.31011719 9.31085938 7.93273437 10.24671875 8.57421875 11.2109375 C10.06706574 14.13119161 10.3105781 15.77701976 10 19 C4.89949966 12.8065353 1.62489723 7.85366993 0 0 Z " fill="#DADBDC" transform="translate(532,323)"/>
<path d="M0 0 C0.66 0.66 1.32 1.32 2 2 C-0.64 6.62 -3.28 11.24 -6 16 C-6.99 16 -7.98 16 -9 16 C-7.56691865 12.04093183 -5.66858051 8.71281819 -3.375 5.1875 C-2.74335938 4.21167969 -2.11171875 3.23585938 -1.4609375 2.23046875 C-0.73777344 1.12638672 -0.73777344 1.12638672 0 0 Z " fill="#D9DCDD" transform="translate(405,344)"/>
<path d="M0 0 C0.66 0 1.32 0 2 0 C1.34097701 3.57040303 -0.16229158 6.17732255 -2.0625 9.25 C-2.61035156 10.14203125 -3.15820312 11.0340625 -3.72265625 11.953125 C-4.14417969 12.62859375 -4.56570312 13.3040625 -5 14 C-5.66 13.67 -6.32 13.34 -7 13 C-5.08277831 5.18363463 -5.08277831 5.18363463 -2 3 C-1.34 3 -0.68 3 0 3 C0 2.01 0 1.02 0 0 Z " fill="#F2F3F3" transform="translate(207,611)"/>
<path d="M0 0 C0.33 0.66 0.66 1.32 1 2 C-0.97905915 7.82076222 -4.1733834 12.2322091 -8 17 C-8.66 16.34 -9.32 15.68 -10 15 C-5.05 7.575 -5.05 7.575 0 0 Z " fill="#D2D7D9" transform="translate(383,378)"/>
<path d="M0 0 C0.33 0.66 0.66 1.32 1 2 C0.67 2.66 0.34 3.32 0 4 C0.66 4.33 1.32 4.66 2 5 C1.2575 5.33 0.515 5.66 -0.25 6 C-3.55130991 8.40095266 -4.47779217 10.5613917 -6.0078125 14.2578125 C-7 16 -7 16 -10 17 C-8.51364884 12.78345644 -6.38750841 9.37521395 -3.875 5.6875 C-3.15054688 4.61886719 -2.42609375 3.55023437 -1.6796875 2.44921875 C-0.84824219 1.23685547 -0.84824219 1.23685547 0 0 Z " fill="#1B6260" transform="translate(220,637)"/>
<path d="M0 0 C1.32 0.33 2.64 0.66 4 1 C4 2.65 4 4.3 4 6 C5.65 6 7.3 6 9 6 C9.33 6.99 9.66 7.98 10 9 C8.02 9.99 8.02 9.99 6 11 C0 3.6 0 3.6 0 0 Z " fill="#F3F4F2" transform="translate(565,378)"/>
<path d="M0 0 C0.85329541 3.09319586 1 5.79336115 1 9 C-0.32 9 -1.64 9 -3 9 C-4.57518451 10.74477633 -4.57518451 10.74477633 -5.75 13 C-6.17796875 13.7425 -6.6059375 14.485 -7.046875 15.25 C-7.36140625 15.8275 -7.6759375 16.405 -8 17 C-8.33 16.34 -8.66 15.68 -9 15 C-7.7796615 12.56816603 -6.51503995 10.26895497 -5.125 7.9375 C-4.74730469 7.28716797 -4.36960937 6.63683594 -3.98046875 5.96679688 C-1.18268327 1.18268327 -1.18268327 1.18268327 0 0 Z " fill="#1C6461" transform="translate(281,536)"/>
<path d="M0 0 C2.31 0 4.62 0 7 0 C6.25 2.9375 6.25 2.9375 5 6 C2.875 6.875 2.875 6.875 1 7 C0.67 4.69 0.34 2.38 0 0 Z " fill="#F2F4F3" transform="translate(873,673)"/>
<path d="M0 0 C0.99 0 1.98 0 3 0 C3.88229454 5.73491451 1.50103025 8.76938812 -1.6875 13.2421875 C-2.120625 13.82226562 -2.55375 14.40234375 -3 15 C-4 12 -4 12 -3.22265625 10.09765625 C-2.83980469 9.42605469 -2.45695313 8.75445313 -2.0625 8.0625 C-0.24192408 4.85952067 0 3.92163967 0 0 Z " fill="#ECEDEE" transform="translate(192,631)"/>
<path d="M0 0 C6.27 0.66 12.54 1.32 19 2 C19 3.32 19 4.64 19 6 C18.34 6 17.68 6 17 6 C17 5.34 17 4.68 17 4 C15.53626953 3.81824219 15.53626953 3.81824219 14.04296875 3.6328125 C12.77066406 3.46523438 11.49835937 3.29765625 10.1875 3.125 C8.29064453 2.88136719 8.29064453 2.88136719 6.35546875 2.6328125 C3 2 3 2 0 0 Z " fill="#0B2625" transform="translate(747,531)"/>
<path d="M0 0 C0.66 0.33 1.32 0.66 2 1 C1.67 1.99 1.34 2.98 1 4 C-0.45736087 4.19491452 -1.91594593 4.38069358 -3.375 4.5625 C-4.18710937 4.66691406 -4.99921875 4.77132812 -5.8359375 4.87890625 C-8 5 -8 5 -10 4 C-10 3.34 -10 2.68 -10 2 C-8.3603125 2.061875 -8.3603125 2.061875 -6.6875 2.125 C-2.91107771 2.32074666 -2.91107771 2.32074666 0 0 Z " fill="#E5E7EA" transform="translate(663,520)"/>
<path d="M0 0 C0.66 0.33 1.32 0.66 2 1 C1.62875 1.721875 1.2575 2.44375 0.875 3.1875 C-0.18974141 6.60988311 0.39660152 7.88228073 2 11 C1.01 11 0.02 11 -1 11 C-2.75 8.6875 -2.75 8.6875 -4 6 C-3.0022242 3.00667261 -2.2477975 2.05233685 0 0 Z " fill="#F3F2F4" transform="translate(751,456)"/>
<path d="M0 0 C5.24972347 4.10037573 9.20962911 8.52964787 13 14 C11.68 14.33 10.36 14.66 9 15 C8.443125 13.453125 8.443125 13.453125 7.875 11.875 C6.08370503 7.60877574 3.31543004 5.1680776 0 2 C0 1.34 0 0.68 0 0 Z " fill="#1B615E" transform="translate(416,440)"/>
<path d="M0 0 C1.32 0.66 2.64 1.32 4 2 C2.625 4 2.625 4 1 6 C0.34 6 -0.32 6 -1 6 C-1.66 7.65 -2.32 9.3 -3 11 C-3.66 10.01 -4.32 9.02 -5 8 C-3.35 5.36 -1.7 2.72 0 0 Z " fill="#070B0A" transform="translate(424,267)"/>
<path d="M0 0 C0.66 0.66 1.32 1.32 2 2 C-6.261959 7.74031891 -6.261959 7.74031891 -11 7 C-7.54319097 4.23455278 -3.85658398 2.15078722 0 0 Z " fill="#0E3836" transform="translate(393,440)"/>
<path d="M0 0 C0.33 0.99 0.66 1.98 1 3 C0.01 3.495 0.01 3.495 -1 4 C-0.67 2.68 -0.34 1.36 0 0 Z M-3 1 C-1.25372522 3.61941217 -0.61277612 5.03824877 0 8 C-3 9 -3 9 -6 8 C-4.125 2.125 -4.125 2.125 -3 1 Z " fill="#1A5F5D" transform="translate(266,566)"/>
<path d="M0 0 C0.99 0 1.98 0 3 0 C3 0.99 3 1.98 3 3 C3.33 3.66 3.66 4.32 4 5 C5 7 5 7 5 10 C4.34 10 3.68 10 3 10 C0.4606772 6.58168085 -0.3636198 4.24223102 0 0 Z " fill="#EFF0F0" transform="translate(756,472)"/>
<path d="M0 0 C0.66 0.66 1.32 1.32 2 2 C0.21326795 3.5058745 -1.57953508 5.0045485 -3.375 6.5 C-4.37273438 7.3353125 -5.37046875 8.170625 -6.3984375 9.03125 C-9 11 -9 11 -11 11 C-11 10.34 -11 9.68 -11 9 C-9.1015625 7.2734375 -9.1015625 7.2734375 -6.625 5.375 C-5.40683594 4.42753906 -5.40683594 4.42753906 -4.1640625 3.4609375 C-2 2 -2 2 0 2 C0 1.34 0 0.68 0 0 Z " fill="#B6BABB" transform="translate(687,503)"/>
<path d="M0 0 C0 0.99 0 1.98 0 3 C0.020625 3.86625 0.04125 4.7325 0.0625 5.625 C0 8 0 8 -1 9 C-2.65 9 -4.3 9 -6 9 C-4.02 6.03 -2.04 3.06 0 0 Z " fill="#E6E8EC" transform="translate(360,415)"/>
<path d="M0 0 C0.33 0.66 0.66 1.32 1 2 C0.29296875 4.09375 0.29296875 4.09375 -0.8125 6.5 C-1.16957031 7.2940625 -1.52664062 8.088125 -1.89453125 8.90625 C-3 11 -3 11 -5 13 C-5 11.35 -5 9.7 -5 8 C-4.34 8 -3.68 8 -3 8 C-3.061875 7.05125 -3.12375 6.1025 -3.1875 5.125 C-3.125625 4.09375 -3.06375 3.0625 -3 2 C-2.01 1.34 -1.02 0.68 0 0 Z " fill="#EEF0F0" transform="translate(163,678)"/>
<path d="M0 0 C1.32 0.33 2.64 0.66 4 1 C4.12375 1.5775 4.2475 2.155 4.375 2.75 C4.92515351 5.04214825 4.92515351 5.04214825 6.125 7.125 C6.41375 7.74375 6.7025 8.3625 7 9 C6.67 9.66 6.34 10.32 6 11 C4.9944239 9.54550599 3.99569565 8.08627557 3 6.625 C2.443125 5.81289063 1.88625 5.00078125 1.3125 4.1640625 C0 2 0 2 0 0 Z " fill="#1B6260" transform="translate(682,568)"/>
<path d="M0 0 C9.59453303 1.74259681 9.59453303 1.74259681 13 5 C11.88625 4.79375 10.7725 4.5875 9.625 4.375 C8.42875 4.25125 7.2325 4.1275 6 4 C5.34 4.66 4.68 5.32 4 6 C3.71125 5.38125 3.4225 4.7625 3.125 4.125 C2.06279958 1.86674235 2.06279958 1.86674235 0 0 Z " fill="#1D6360" transform="translate(542,432)"/>
<path d="M0 0 C3.33557632 2.9905167 5.15083921 5.93184627 7 10 C5.140625 9.75390625 5.140625 9.75390625 3 9 C1.734375 7.15234375 1.734375 7.15234375 0.75 4.9375 C0.41484375 4.20402344 0.0796875 3.47054688 -0.265625 2.71484375 C-0.50796875 2.14894531 -0.7503125 1.58304687 -1 1 C-0.67 0.67 -0.34 0.34 0 0 Z " fill="#515557" transform="translate(594,428)"/>
<path d="M0 0 C1.32 0.66 2.64 1.32 4 2 C4 2.66 4 3.32 4 4 C2.02 4.66 0.04 5.32 -2 6 C-2.33 5.01 -2.66 4.02 -3 3 C-2.01 2.01 -1.02 1.02 0 0 Z " fill="#F1F1F1" transform="translate(708,384)"/>
<path d="M0 0 C2.475 0.495 2.475 0.495 5 1 C5 3.64 5 6.28 5 9 C2.67527795 6.14693203 1.2491742 3.45925163 0 0 Z " fill="#ECEEED" transform="translate(558,367)"/>
<path d="M0 0 C0.99 0.33 1.98 0.66 3 1 C4.1875 3.5625 4.1875 3.5625 5 6 C5.66 6 6.32 6 7 6 C7.66 7.32 8.32 8.64 9 10 C8.01 10 7.02 10 6 10 C4.39453125 8.06640625 4.39453125 8.06640625 2.8125 5.5625 C2.28269531 4.73878906 1.75289062 3.91507813 1.20703125 3.06640625 C0 1 0 1 0 0 Z " fill="#123939" transform="translate(739,664)"/>
<path d="M0 0 C2.97 0.495 2.97 0.495 6 1 C5.34 2.65 4.68 4.3 4 6 C3.34 6 2.68 6 2 6 C1.67 6.66 1.34 7.32 1 8 C0.17361624 5.10765685 0 3.11257569 0 0 Z " fill="#EFF0F1" transform="translate(586,408)"/>
<path d="M0 0 C0.66 0.33 1.32 0.66 2 1 C2 1.99 2 2.98 2 4 C1.34 4 0.68 4 0 4 C-0.66 5.32 -1.32 6.64 -2 8 C-2.99 7.67 -3.98 7.34 -5 7 C-3.35 4.69 -1.7 2.38 0 0 Z " fill="#E7EAEB" transform="translate(661,396)"/>
<path d="M0 0 C2.0625 0.4375 2.0625 0.4375 4 1 C2.68 3.31 1.36 5.62 0 8 C-0.66 7.67 -1.32 7.34 -2 7 C-1.125 1.125 -1.125 1.125 0 0 Z " fill="#EFF0EF" transform="translate(434,245)"/>
<path d="M0 0 C1.98 0.495 1.98 0.495 4 1 C3.40072174 4.35595828 2.15377564 6.37801226 0 9 C-1.125 2.25 -1.125 2.25 0 0 Z " fill="#EFEFEF" transform="translate(331,408)"/>
<path d="M0 0 C0.66 0.33 1.32 0.66 2 1 C2.36923077 5.55384615 2.36923077 5.55384615 0.5 7.8125 C0.005 8.204375 -0.49 8.59625 -1 9 C-1.66 8.34 -2.32 7.68 -3 7 C-2.34 7 -1.68 7 -1 7 C-1.20625 6.401875 -1.4125 5.80375 -1.625 5.1875 C-2 3 -2 3 0 0 Z " fill="#F1F1F1" transform="translate(351,377)"/>
<path d="M0 0 C0.66 0 1.32 0 2 0 C4.04169485 2.90548882 5 4.40142046 5 8 C2.03 7.505 2.03 7.505 -1 7 C-0.01 5.68 0.98 4.36 2 3 C1.34 3 0.68 3 0 3 C0 2.01 0 1.02 0 0 Z " fill="#E4E4E5" transform="translate(742,500)"/>
<path d="M0 0 C1.33333333 1.33333333 2.66666667 2.66666667 4 4 C3.01 4.99 2.02 5.98 1 7 C0.01 6.67 -0.98 6.34 -2 6 C-2.33 5.01 -2.66 4.02 -3 3 C-2.01 2.67 -1.02 2.34 0 2 C0 1.34 0 0.68 0 0 Z " fill="#F3F3F5" transform="translate(764,481)"/>
<path d="M0 0 C0.41176754 3.60296594 0.1535853 4.78402067 -2 7.8125 C-2.66 8.534375 -3.32 9.25625 -4 10 C-4 9.01 -4 8.02 -4 7 C-4.33 6.01 -4.66 5.02 -5 4 C-1.125 0 -1.125 0 0 0 Z " fill="#EEEFEF" transform="translate(330,415)"/>
<path d="M0 0 C0.99 0 1.98 0 3 0 C3.66 0.66 4.32 1.32 5 2 C5.66 2 6.32 2 7 2 C7 2.66 7 3.32 7 4 C6.34 4 5.68 4 5 4 C5 4.99 5 5.98 5 7 C4.34 7 3.68 7 3 7 C2.01 4.69 1.02 2.38 0 0 Z " fill="#EDEFEE" transform="translate(714,403)"/>
<path d="M0 0 C3.08089673 2.77280706 4.68775452 5.06326356 6 9 C3.625 8.375 3.625 8.375 1 7 C-0.3125 3.875 -0.3125 3.875 -1 1 C-0.67 0.67 -0.34 0.34 0 0 Z " fill="#E3E6E8" transform="translate(540,385)"/>
<path d="M0 0 C0.66 0 1.32 0 2 0 C3.125 2.8125 3.125 2.8125 4 6 C3.01 7.485 3.01 7.485 2 9 C-1.07692308 4.56923077 -1.07692308 4.56923077 -0.6875 1.6875 C-0.460625 1.130625 -0.23375 0.57375 0 0 Z " fill="#F1F2F2" transform="translate(901,720)"/>
<path d="M0 0 C1 2 1 2 0.375 4.375 C-1.25561397 7.4879903 -3.15997255 8.98208576 -6 11 C-4.54955729 6.89041233 -2.48889248 3.56741255 0 0 Z " fill="#1C615F" transform="translate(177,703)"/>
<path d="M0 0 C1.33332095 2.6666419 0.67102033 4.16680303 0 7 C-0.99 7.33 -1.98 7.66 -3 8 C-3.33 8.66 -3.66 9.32 -4 10 C-4.66 9.67 -5.32 9.34 -6 9 C-4.02 6.03 -2.04 3.06 0 0 Z " fill="#1B6361" transform="translate(194,677)"/>
<path d="M0 0 C0.66 0.99 1.32 1.98 2 3 C-0.11070205 6.16605307 -1.73539027 7.19587357 -5 9 C-3.7508258 5.54074837 -2.32472205 2.85306797 0 0 Z " fill="#1A5F5D" transform="translate(294,516)"/>
<path d="M0 0 C0.99 0 1.98 0 3 0 C3 1.32 3 2.64 3 4 C1.35 4.33 -0.3 4.66 -2 5 C-1.34 3.35 -0.68 1.7 0 0 Z M-3 5 C-3 8 -3 8 -3 8 Z " fill="#0A0C0D" transform="translate(300,467)"/>
<path d="M0 0 C0 3.57575896 -1.08840607 5.05295935 -3 8 C-3.99 7.67 -4.98 7.34 -6 7 C-4.6875 4.0625 -4.6875 4.0625 -3 1 C-2.01 0.67 -1.02 0.34 0 0 Z " fill="#0B0F0D" transform="translate(636,394)"/>
<path d="M0 0 C1.65 0 3.3 0 5 0 C4.01 1.98 3.02 3.96 2 6 C1.01 5.01 0.02 4.02 -1 3 C-0.67 2.01 -0.34 1.02 0 0 Z " fill="#EEF0EF" transform="translate(341,393)"/>
<path d="M0 0 C0.33 0.99 0.66 1.98 1 3 C-0.8125 5.6875 -0.8125 5.6875 -3 8 C-3.66 8 -4.32 8 -5 8 C-3.375 2.25 -3.375 2.25 0 0 Z " fill="#090B0B" transform="translate(405,341)"/>
<path d="M0 0 C2.79872437 2.52788007 4.45773019 4.20411134 5 8 C3.35 7.67 1.7 7.34 0 7 C0 4.69 0 2.38 0 0 Z " fill="#1B615F" transform="translate(673,601)"/>
<path d="M0 0 C0.33 0.66 0.66 1.32 1 2 C1.99 2.33 2.98 2.66 4 3 C4 3.99 4 4.98 4 6 C3.01 6.33 2.02 6.66 1 7 C-0.0625 4.625 -0.0625 4.625 -1 2 C-0.67 1.34 -0.34 0.68 0 0 Z " fill="#061E1C" transform="translate(670,545)"/>
<path d="M0 0 C0.66 0 1.32 0 2 0 C2 2.97 2 5.94 2 9 C0.35 9 -1.3 9 -3 9 C-1.68 8.67 -0.36 8.34 1 8 C0.649375 7.05125 0.29875 6.1025 -0.0625 5.125 C-1 2 -1 2 0 0 Z M-2 4 C0 5 0 5 0 5 Z " fill="#F2F2F3" transform="translate(424,235)"/>
<path d="M0 0 C0.99 0.33 1.98 0.66 3 1 C3.96070434 3.88211302 4.10581883 5.69850044 4.0625 8.6875 C4.05347656 9.49574219 4.04445313 10.30398438 4.03515625 11.13671875 C4.02355469 11.75160156 4.01195312 12.36648438 4 13 C3.67 13 3.34 13 3 13 C2.8046875 10.98177083 2.609375 8.96354167 2.4140625 6.9453125 C2.13625251 4.77331755 2.13625251 4.77331755 0 3 C0 2.01 0 1.02 0 0 Z " fill="#2E3132" transform="translate(919,761)"/>
<path d="M0 0 C0.66 0 1.32 0 2 0 C2 0.66 2 1.32 2 2 C3.32 2 4.64 2 6 2 C5.67 3.65 5.34 5.3 5 7 C4.34 7 3.68 7 3 7 C0 2.61538462 0 2.61538462 0 0 Z " fill="#EDEFEE" transform="translate(738,445)"/>
<path d="M0 0 C1.32 0.33 2.64 0.66 4 1 C4.33 3.31 4.66 5.62 5 8 C4.34 8 3.68 8 3 8 C0.95830515 5.09451118 0 3.59857954 0 0 Z " fill="#ECEDEC" transform="translate(565,378)"/>
<path d="M0 0 C0.33 0.66 0.66 1.32 1 2 C1.66 2 2.32 2 3 2 C5.125 6.625 5.125 6.625 4 10 C0 4.5 0 4.5 0 0 Z " fill="#EBECEC" transform="translate(542,339)"/>
<path d="M0 0 C2 1 2 1 3 3 C2.34 3 1.68 3 1 3 C0.67 4.32 0.34 5.64 0 7 C-0.99 7 -1.98 7 -3 7 C-1.125 2.25 -1.125 2.25 0 0 Z " fill="#0A0E0C" transform="translate(411,287)"/>
<path d="M0 0 C0.66 0.33 1.32 0.66 2 1 C0.02 3.97 0.02 3.97 -2 7 C-2.66 6.67 -3.32 6.34 -4 6 C-3.6875 4.125 -3.6875 4.125 -3 2 C-2.01 1.34 -1.02 0.68 0 0 Z " fill="#EEF1EF" transform="translate(186,646)"/>
<path d="M0 0 C0.99 0 1.98 0 3 0 C2.25 2.4375 2.25 2.4375 1 5 C-1.125 5.8125 -1.125 5.8125 -3 6 C-2.01 4.02 -1.02 2.04 0 0 Z " fill="#DCDFE2" transform="translate(414,328)"/>
<path d="M0 0 C0.99 0.495 0.99 0.495 2 1 C1.01 1.495 1.01 1.495 0 2 C0 1.34 0 0.68 0 0 Z M-1 2 C-0.375 3.8125 -0.375 3.8125 0 6 C-0.99 7.485 -0.99 7.485 -2 9 C-2.99 8.67 -3.98 8.34 -5 8 C-3.68 6.02 -2.36 4.04 -1 2 Z " fill="#0E1010" transform="translate(270,514)"/>
<path d="M0 0 C3 0 3 0 5 1 C4.34 2.32 3.68 3.64 3 5 C2.01 4.67 1.02 4.34 0 4 C0 2.68 0 1.36 0 0 Z " fill="#F3F5F5" transform="translate(321,423)"/>
<path d="M0 0 C0.66 0.33 1.32 0.66 2 1 C0.625 3.5 0.625 3.5 -1 6 C-1.66 6 -2.32 6 -3 6 C-3.33 4.68 -3.66 3.36 -4 2 C-2.125 0.9375 -2.125 0.9375 0 0 Z " fill="#ECEEEE" transform="translate(381,333)"/>
</svg>
