<?xml version="1.0" encoding="UTF-8"?>
<svg version="1.1" xmlns="http://www.w3.org/2000/svg" width="1024" height="1024">
<path d="M0 0 C337.92 0 675.84 0 1024 0 C1024 337.92 1024 675.84 1024 1024 C686.08 1024 348.16 1024 0 1024 C0 686.08 0 348.16 0 0 Z " fill="#F9F9FA" transform="translate(0,0)"/>
<path d="M0 0 C0.62616211 0.3290332 1.25232422 0.65806641 1.89746094 0.99707031 C22.83165236 12.09122706 41.96474675 25.97314265 59.90625 41.37890625 C62.58419562 43.66947091 65.34529866 45.83372041 68.125 48 C73.67283675 52.50864019 78.69529011 57.51262716 83.75 62.5625 C84.55453613 63.36623047 85.35907227 64.16996094 86.18798828 64.99804688 C106.44342595 85.44216074 124.25633792 108.72598018 138 134 C138.6820752 135.23290771 138.6820752 135.23290771 139.37792969 136.49072266 C184.08079934 217.49707743 191.16107774 311.29166449 166.38964844 399.61376953 C164.99523902 404.43144642 163.52299686 409.22154017 162 414 C161.66911377 415.04994141 161.66911377 415.04994141 161.33154297 416.12109375 C154.60483425 436.95631506 143.65509848 457.53223696 132 476 C131.45448486 476.88002686 131.45448486 476.88002686 130.89794922 477.77783203 C125.13636956 487.07228528 118.88559985 496.01381462 112.50976562 504.89501953 C111.52081254 506.27386065 110.5350112 507.65496905 109.55273438 509.03857422 C103.4996358 517.56356402 97.16228257 525.36846444 90 533 C88.82688332 534.34858286 87.65966483 535.70233238 86.5 537.0625 C30.85874149 600.95175683 -55.96552434 635.81483419 -138.83496094 641.74072266 C-181.17744526 644.52366407 -222.60206486 638.56157945 -263 626 C-263.81758789 625.74637695 -264.63517578 625.49275391 -265.47753906 625.23144531 C-293.67731763 616.30172535 -320.41299619 602.2959118 -345 586 C-346.06541016 585.29593018 -346.06541016 585.29593018 -347.15234375 584.57763672 C-356.19437747 578.56855705 -364.9172823 572.2239937 -373.33056641 565.36083984 C-374.91391507 564.07017218 -376.50937232 562.79440073 -378.10546875 561.51953125 C-386.69881125 554.50534119 -394.52040582 546.69169722 -402.375 538.875 C-402.94940826 538.30585876 -403.52381653 537.73671753 -404.1156311 537.15032959 C-405.75751777 535.52010376 -407.39175732 533.88262213 -409.0234375 532.2421875 C-409.52585464 531.74372314 -410.02827179 531.24525879 -410.5459137 530.73168945 C-414 527.23055764 -414 527.23055764 -414 525 C-414.66 525 -415.32 525 -416 525 C-417.22998047 523.70922852 -417.22998047 523.70922852 -418.6171875 521.87890625 C-419.13547119 521.19973145 -419.65375488 520.52055664 -420.18774414 519.82080078 C-420.74453857 519.07556152 -421.30133301 518.33032227 -421.875 517.5625 C-422.45435303 516.79405762 -423.03370605 516.02561523 -423.63061523 515.23388672 C-459.93916608 466.81260974 -484.06735467 415.33154378 -494.3125 355.375 C-494.53353394 354.08299683 -494.53353394 354.08299683 -494.7590332 352.76489258 C-497.45438117 335.84278115 -498.37730607 318.99144779 -498.3125 301.875 C-498.31100952 300.8937616 -498.30951904 299.91252319 -498.3079834 298.90155029 C-498.26578587 283.39458815 -497.48696294 268.32912505 -495 253 C-494.71837148 251.10422286 -494.43712249 249.2083893 -494.15625 247.3125 C-491.77435698 231.97158328 -487.97356018 216.99483609 -484 202 C-483.78762695 201.17274414 -483.57525391 200.34548828 -483.35644531 199.49316406 C-475.86108931 170.37609262 -461.43355211 142.04347534 -445 117 C-444.24251465 115.83911865 -444.24251465 115.83911865 -443.46972656 114.65478516 C-434.01743546 100.26112711 -423.61359353 86.82783736 -411.9609375 74.14453125 C-410.17707266 72.19365117 -408.46047206 70.20251952 -406.75 68.1875 C-399.1795773 59.5053369 -390.81078485 51.41017949 -382 44 C-381.10667969 43.21753906 -380.21335937 42.43507813 -379.29296875 41.62890625 C-336.87555015 4.68160724 -285.82875881 -19.96950178 -231 -32 C-230.11634766 -32.19432617 -229.23269531 -32.38865234 -228.32226562 -32.58886719 C-152.08201251 -48.8773329 -68.69699887 -36.38147805 0 0 Z " fill="#8DCAE8" transform="translate(671,211)"/>
<path d="M0 0 C3.37021734 2.42993727 5.02562659 4.96683412 6 9 C5.51530316 13.75385554 4.04947092 17.54931407 2.0703125 21.87890625 C1.76858627 22.54620758 1.46686005 23.21350891 1.1559906 23.90103149 C0.49817125 25.35569864 -0.16248956 26.80908342 -0.82565308 28.26132202 C-2.66187417 32.2880852 -4.47008823 36.32735854 -6.27734375 40.3671875 C-6.66130814 41.22513412 -7.04527252 42.08308075 -7.44087219 42.96702576 C-11.90788003 52.98325734 -16.18296257 63.07957446 -20.4375 73.1875 C-20.83495422 74.13116425 -21.23240845 75.07482849 -21.64190674 76.04708862 C-27.75591659 90.57384631 -33.79388369 105.13179883 -39.81326294 119.69796753 C-45.18079427 132.68262199 -50.65733628 145.61599017 -56.21386719 158.52075195 C-61.19603045 170.09564374 -66.10722089 181.69956845 -71 193.3125 C-77.71474671 209.24882528 -84.47346998 225.16584074 -91.26052856 241.07150269 C-101.81202801 265.80192406 -112.27927756 290.56397667 -122.4609375 315.44921875 C-123.32981602 317.5714002 -124.19889894 319.69349761 -125.0682373 321.81549072 C-125.64675938 323.22775565 -126.22496687 324.64014948 -126.80285645 326.05267334 C-130.06156396 334.00975274 -133.38106051 341.93449972 -136.8359375 349.80859375 C-137.16110855 350.55008667 -137.4862796 351.29157959 -137.82130432 352.05554199 C-138.48499649 353.56850583 -139.14869792 355.0814656 -139.81240845 356.59442139 C-140.14243866 357.34701233 -140.47246887 358.09960327 -140.8125 358.875 C-141.14035492 359.62243469 -141.46820984 360.36986938 -141.80599976 361.13995361 C-148.48808846 376.42061494 -154.51396297 391.93682852 -160.41723633 407.53271484 C-160.76101822 408.4375209 -161.10480011 409.34232697 -161.45899963 410.27455139 C-162.0978136 411.95812146 -162.73292657 413.64310305 -163.36338806 415.32981873 C-168.75994197 429.56302869 -168.75994197 429.56302869 -174.625 434.4375 C-175.40101563 435.09621094 -176.17703125 435.75492188 -176.9765625 436.43359375 C-180.32816833 439.02817664 -182.70261227 439.16739971 -186.9296875 439.328125 C-189.7569195 438.8800354 -190.88887568 437.94909728 -193 436 C-194.48193359 433.05981445 -194.48193359 433.05981445 -195.8984375 429.36328125 C-196.16561081 428.67705688 -196.43278412 427.99083252 -196.70805359 427.28381348 C-197.60829633 424.96422731 -198.49124303 422.63841202 -199.375 420.3125 C-200.0200722 418.64295851 -200.66651622 416.97394652 -201.31420898 415.30541992 C-202.75183507 411.59878581 -204.18342437 407.8898893 -205.61181641 404.1796875 C-209.56968285 393.9175569 -213.60649512 383.68618536 -217.63204956 373.45046997 C-219.06382607 369.8091275 -220.49411251 366.16720274 -221.92407227 362.52514648 C-231.26210049 338.74864732 -240.60635393 314.96869349 -250.42700195 291.38623047 C-250.75659912 290.58975098 -251.08619629 289.79327148 -251.42578125 288.97265625 C-251.84984253 287.95570679 -251.84984253 287.95570679 -252.2824707 286.91821289 C-253.0126685 284.96613257 -253.53457959 283.0300252 -254 281 C-255.22674438 280.72893433 -255.22674438 280.72893433 -256.47827148 280.45239258 C-270.23961784 277.21992241 -283.60319181 272.73772566 -297.02975845 268.35087204 C-300.47645821 267.2260639 -303.92513344 266.10734983 -307.3737793 264.98852539 C-308.06561215 264.76405951 -308.75744501 264.53959364 -309.4702425 264.30832577 C-310.86925729 263.85441448 -312.26827748 263.40051986 -313.66730309 262.94664192 C-315.76468503 262.26593007 -317.8618363 261.58451166 -319.9589386 260.90293884 C-331.43051767 257.17593527 -342.92019866 253.50732765 -354.41662598 249.85769653 C-362.61553717 247.25240031 -370.80829809 244.62786039 -379 242 C-380.28245605 241.58914154 -380.28245605 241.58914154 -381.59082031 241.16998291 C-386.44080797 239.61495907 -391.2868622 238.04870275 -396.12704468 236.46340942 C-397.56451936 235.99416717 -399.00315608 235.52846731 -400.44302368 235.06661987 C-402.37803332 234.44508883 -404.30832146 233.80891374 -406.23828125 233.171875 C-407.31118408 232.8222168 -408.38408691 232.47255859 -409.48950195 232.11230469 C-412 231 -412 231 -414 228 C-414.60321137 223.81668997 -414.45950776 220.08830786 -412.8125 216.1875 C-408.7809726 211.32186348 -403.73748931 208.64817848 -398.19140625 205.875 C-397.43674576 205.49142838 -396.68208527 205.10785675 -395.90455627 204.71266174 C-394.29346115 203.89414969 -392.68113522 203.07805646 -391.06768799 202.26419067 C-386.84972773 200.13568533 -382.64155991 197.98802323 -378.43359375 195.83984375 C-377.60661987 195.41799301 -376.779646 194.99614227 -375.9276123 194.56150818 C-368.73467764 190.88344222 -361.63336997 187.05402414 -354.56274414 183.14648438 C-348.25729174 179.66710927 -341.89458509 176.31251029 -335.5 173 C-328.07334096 169.15213858 -320.7018317 165.22209896 -313.375 161.1875 C-304.8221968 156.48159082 -296.18149328 151.9620375 -287.5 147.5 C-278.17895926 142.70800104 -268.9190171 137.82659819 -259.73828125 132.76953125 C-251.20930633 128.08355375 -242.60651845 123.54131685 -234 119 C-223.64503145 113.53430965 -213.31549273 108.03097217 -203.04931641 102.3996582 C-195.8477037 98.45211255 -188.61600407 94.56224295 -181.375 90.6875 C-180.78798309 90.37320038 -180.20096619 90.05890076 -179.59616089 89.7350769 C-173.59918137 86.52424697 -167.59981131 83.31798101 -161.59457397 80.12261963 C-149.07638075 73.46047634 -136.61756083 66.71589476 -124.29296875 59.70043945 C-112.15805198 52.79722257 -99.8856843 46.1482508 -87.578125 39.55859375 C-74.93085488 32.78443763 -62.38331673 25.88099355 -49.95947266 18.70556641 C-44.55766676 15.59246494 -39.14328768 12.50132454 -33.72991943 9.40838623 C-31.84051167 8.32850985 -29.95169496 7.24760591 -28.06298828 6.16650391 C-26.90268437 5.50290329 -25.74236606 4.83932784 -24.58203125 4.17578125 C-23.55311768 3.58708252 -22.5242041 2.99838379 -21.46411133 2.3918457 C-15.18927379 -1.15247697 -7.0706229 -1.5282016 0 0 Z " fill="#EA3E3B" transform="translate(695,292)"/>
<path d="M0 0 C0.62616211 0.3290332 1.25232422 0.65806641 1.89746094 0.99707031 C22.83165236 12.09122706 41.96474675 25.97314265 59.90625 41.37890625 C62.58419562 43.66947091 65.34529866 45.83372041 68.125 48 C73.67283675 52.50864019 78.69529011 57.51262716 83.75 62.5625 C84.55453613 63.36623047 85.35907227 64.16996094 86.18798828 64.99804688 C106.44342595 85.44216074 124.25633792 108.72598018 138 134 C138.6820752 135.23290771 138.6820752 135.23290771 139.37792969 136.49072266 C184.08079934 217.49707743 191.16107774 311.29166449 166.38964844 399.61376953 C164.99523902 404.43144642 163.52299686 409.22154017 162 414 C161.66911377 415.04994141 161.66911377 415.04994141 161.33154297 416.12109375 C154.60483425 436.95631506 143.65509848 457.53223696 132 476 C131.45448486 476.88002686 131.45448486 476.88002686 130.89794922 477.77783203 C125.13636956 487.07228528 118.88559985 496.01381462 112.50976562 504.89501953 C111.52081254 506.27386065 110.5350112 507.65496905 109.55273438 509.03857422 C103.4996358 517.56356402 97.16228257 525.36846444 90 533 C88.82688332 534.34858286 87.65966483 535.70233238 86.5 537.0625 C30.85874149 600.95175683 -55.96552434 635.81483419 -138.83496094 641.74072266 C-181.17744526 644.52366407 -222.60206486 638.56157945 -263 626 C-263.81758789 625.74637695 -264.63517578 625.49275391 -265.47753906 625.23144531 C-293.67731763 616.30172535 -320.41299619 602.2959118 -345 586 C-346.06541016 585.29593018 -346.06541016 585.29593018 -347.15234375 584.57763672 C-356.19437747 578.56855705 -364.9172823 572.2239937 -373.33056641 565.36083984 C-374.91391507 564.07017218 -376.50937232 562.79440073 -378.10546875 561.51953125 C-386.69881125 554.50534119 -394.52040582 546.69169722 -402.375 538.875 C-402.94940826 538.30585876 -403.52381653 537.73671753 -404.1156311 537.15032959 C-405.75751777 535.52010376 -407.39175732 533.88262213 -409.0234375 532.2421875 C-409.52585464 531.74372314 -410.02827179 531.24525879 -410.5459137 530.73168945 C-414 527.23055764 -414 527.23055764 -414 525 C-414.66 525 -415.32 525 -416 525 C-417.22998047 523.70922852 -417.22998047 523.70922852 -418.6171875 521.87890625 C-419.13547119 521.19973145 -419.65375488 520.52055664 -420.18774414 519.82080078 C-420.74453857 519.07556152 -421.30133301 518.33032227 -421.875 517.5625 C-422.45435303 516.79405762 -423.03370605 516.02561523 -423.63061523 515.23388672 C-459.93916608 466.81260974 -484.06735467 415.33154378 -494.3125 355.375 C-494.53353394 354.08299683 -494.53353394 354.08299683 -494.7590332 352.76489258 C-497.45438117 335.84278115 -498.37730607 318.99144779 -498.3125 301.875 C-498.31100952 300.8937616 -498.30951904 299.91252319 -498.3079834 298.90155029 C-498.26578587 283.39458815 -497.48696294 268.32912505 -495 253 C-494.71837148 251.10422286 -494.43712249 249.2083893 -494.15625 247.3125 C-491.77435698 231.97158328 -487.97356018 216.99483609 -484 202 C-483.78762695 201.17274414 -483.57525391 200.34548828 -483.35644531 199.49316406 C-475.86108931 170.37609262 -461.43355211 142.04347534 -445 117 C-444.24251465 115.83911865 -444.24251465 115.83911865 -443.46972656 114.65478516 C-434.01743546 100.26112711 -423.61359353 86.82783736 -411.9609375 74.14453125 C-410.17707266 72.19365117 -408.46047206 70.20251952 -406.75 68.1875 C-399.1795773 59.5053369 -390.81078485 51.41017949 -382 44 C-381.10667969 43.21753906 -380.21335937 42.43507813 -379.29296875 41.62890625 C-336.87555015 4.68160724 -285.82875881 -19.96950178 -231 -32 C-230.11634766 -32.19432617 -229.23269531 -32.38865234 -228.32226562 -32.58886719 C-152.08201251 -48.8773329 -68.69699887 -36.38147805 0 0 Z M-223.4375 -9.3125 C-224.28228912 -9.13570709 -225.12707825 -8.95891418 -225.99746704 -8.77676392 C-239.29834575 -5.98143058 -252.25122573 -2.76589693 -265 2 C-266.08780762 2.40089844 -267.17561523 2.80179688 -268.29638672 3.21484375 C-276.60530636 6.30163545 -284.82921879 9.56440185 -293 13 C-293.8780127 13.36867188 -294.75602539 13.73734375 -295.66064453 14.1171875 C-319.31007252 24.33151321 -342.93254081 40.73650873 -362 58 C-362.65129883 58.58797363 -363.30259766 59.17594727 -363.97363281 59.78173828 C-375.81108449 70.54738287 -387.83172727 81.61749452 -398 94 C-398.61512451 94.74443359 -398.61512451 94.74443359 -399.24267578 95.50390625 C-414.81527736 114.41702011 -428.31689213 133.95960617 -439.02050781 156.00585938 C-439.97947594 157.95821522 -440.96446804 159.89467679 -441.9609375 161.828125 C-449.75006034 176.98434745 -456.85273647 192.54595461 -461.43945312 208.99121094 C-461.82035478 210.35621912 -462.21000463 211.71881007 -462.60742188 213.07910156 C-475.757897 258.12255142 -478.90710473 305.7947902 -471 352 C-470.80696289 353.14919922 -470.61392578 354.29839844 -470.41503906 355.48242188 C-466.89193973 375.6722686 -460.51545058 394.80793917 -453.68157959 414.07373047 C-453.06533265 415.8153579 -452.45722905 417.55986147 -451.85009766 419.3046875 C-444.71455763 439.72910136 -434.49626663 457.95825774 -422.43359375 475.86425781 C-421.18837356 477.71936445 -419.96285388 479.58459437 -418.75 481.4609375 C-411.57320534 492.48657769 -403.62408852 502.60257076 -394.6328125 512.18359375 C-392.31046815 514.66788199 -390.05612701 517.1949951 -387.8125 519.75 C-377.58850941 531.08767528 -366.90499992 541.63903484 -354.6484375 550.75732422 C-353.04492965 551.96612976 -351.47488881 553.21893357 -349.90625 554.47265625 C-287.73601893 604.00474691 -203.06904463 625.53624032 -124.88497925 616.97741699 C-112.78972878 615.60664492 -100.80603658 614.03515996 -89 611 C-88.06043457 610.75910645 -87.12086914 610.51821289 -86.15283203 610.27001953 C-78.72253789 608.3308042 -71.35410408 606.20918742 -64 604 C-62.99388672 603.70109863 -61.98777344 603.40219727 -60.95117188 603.09423828 C-44.83310835 598.24044358 -29.97849353 591.6399554 -15 584 C-14.02772461 583.51031738 -13.05544922 583.02063477 -12.05371094 582.51611328 C-1.61441153 577.25035046 8.53057131 571.89561595 18 565 C19.485 563.92298828 19.485 563.92298828 21 562.82421875 C31.23568627 555.26495555 40.91771161 547.20482891 50.23046875 538.546875 C52.44611902 536.50935176 54.69238877 534.55517586 57 532.625 C61.17132525 529.01972098 64.83369374 524.96611907 68.52539062 520.88134766 C71.10590987 518.02832419 73.73029398 515.26878973 76.48828125 512.5859375 C80.07733211 509.02393114 83.10982327 505.1759898 86.125 501.125 C87.25737547 499.61946286 88.39020109 498.11426421 89.5234375 496.609375 C90.09674805 495.84560547 90.67005859 495.08183594 91.26074219 494.29492188 C92.95592572 492.05815528 94.67854826 489.84619513 96.4140625 487.640625 C103.36787 478.77882228 109.51167677 469.8315545 115 460 C115.50031738 459.11924805 116.00063477 458.23849609 116.51611328 457.33105469 C124.12517204 443.9027722 130.72398078 430.50243946 136 416 C136.59758525 414.4088275 137.19524156 412.81768169 137.79296875 411.2265625 C146.34994878 388.04005843 151.44704633 364.41127399 155 340 C155.19118408 338.69554932 155.19118408 338.69554932 155.38623047 337.36474609 C156.73664887 327.95194859 157.63884993 318.50359725 158 309 C158.02868164 308.26281738 158.05736328 307.52563477 158.08691406 306.76611328 C158.85861777 283.19984497 155.74331493 259.87616717 150.63964844 236.90966797 C150.02482315 234.11291689 149.44914264 231.31082417 148.8828125 228.50390625 C141.39055502 192.29570219 126.53825768 156.17048669 105 126 C104.20104293 124.85340769 103.40291081 123.70624025 102.60546875 122.55859375 C97.38654204 115.09605408 91.88986052 107.95118279 86 101 C85.54367187 100.45875488 85.08734375 99.91750977 84.6171875 99.35986328 C62.85067651 73.57033071 38.49897753 51.6027979 10.01464844 33.30078125 C7.83499437 31.89346219 5.67192347 30.46234081 3.5078125 29.03125 C-20.89942568 13.05330268 -47.76594817 2.99924103 -76 -4 C-76.8775293 -4.22139648 -77.75505859 -4.44279297 -78.65917969 -4.67089844 C-88.30427099 -7.09552272 -97.98919146 -9.27991479 -107.75 -11.1875 C-108.52802979 -11.34234863 -109.30605957 -11.49719727 -110.10766602 -11.65673828 C-125.29933225 -14.5249748 -140.20143489 -15.3238424 -155.63671875 -15.26074219 C-158.73197227 -15.2500622 -161.82663941 -15.26067971 -164.921875 -15.2734375 C-184.83673441 -15.29116195 -203.9619765 -13.45045002 -223.4375 -9.3125 Z " fill="#020303" transform="translate(671,211)"/>
<path d="M0 0 C3.37021734 2.42993727 5.02562659 4.96683412 6 9 C5.51530316 13.75385554 4.04947092 17.54931407 2.0703125 21.87890625 C1.76858627 22.54620758 1.46686005 23.21350891 1.1559906 23.90103149 C0.49817125 25.35569864 -0.16248956 26.80908342 -0.82565308 28.26132202 C-2.66187417 32.2880852 -4.47008823 36.32735854 -6.27734375 40.3671875 C-6.66130814 41.22513412 -7.04527252 42.08308075 -7.44087219 42.96702576 C-11.90788003 52.98325734 -16.18296257 63.07957446 -20.4375 73.1875 C-20.83495422 74.13116425 -21.23240845 75.07482849 -21.64190674 76.04708862 C-27.75591659 90.57384631 -33.79388369 105.13179883 -39.81326294 119.69796753 C-45.18079427 132.68262199 -50.65733628 145.61599017 -56.21386719 158.52075195 C-61.19603045 170.09564374 -66.10722089 181.69956845 -71 193.3125 C-77.71474671 209.24882528 -84.47346998 225.16584074 -91.26052856 241.07150269 C-101.81202801 265.80192406 -112.27927756 290.56397667 -122.4609375 315.44921875 C-123.32981602 317.5714002 -124.19889894 319.69349761 -125.0682373 321.81549072 C-125.64675938 323.22775565 -126.22496687 324.64014948 -126.80285645 326.05267334 C-130.06156396 334.00975274 -133.38106051 341.93449972 -136.8359375 349.80859375 C-137.16110855 350.55008667 -137.4862796 351.29157959 -137.82130432 352.05554199 C-138.48499649 353.56850583 -139.14869792 355.0814656 -139.81240845 356.59442139 C-140.14243866 357.34701233 -140.47246887 358.09960327 -140.8125 358.875 C-141.14035492 359.62243469 -141.46820984 360.36986938 -141.80599976 361.13995361 C-148.48808846 376.42061494 -154.51396297 391.93682852 -160.41723633 407.53271484 C-160.76101822 408.4375209 -161.10480011 409.34232697 -161.45899963 410.27455139 C-162.0978136 411.95812146 -162.73292657 413.64310305 -163.36338806 415.32981873 C-168.75994197 429.56302869 -168.75994197 429.56302869 -174.625 434.4375 C-175.40101563 435.09621094 -176.17703125 435.75492188 -176.9765625 436.43359375 C-180.32816833 439.02817664 -182.70261227 439.16739971 -186.9296875 439.328125 C-189.7569195 438.8800354 -190.88887568 437.94909728 -193 436 C-194.48193359 433.05981445 -194.48193359 433.05981445 -195.8984375 429.36328125 C-196.16561081 428.67705688 -196.43278412 427.99083252 -196.70805359 427.28381348 C-197.60829633 424.96422731 -198.49124303 422.63841202 -199.375 420.3125 C-200.0200722 418.64295851 -200.66651622 416.97394652 -201.31420898 415.30541992 C-202.75183507 411.59878581 -204.18342437 407.8898893 -205.61181641 404.1796875 C-209.56968285 393.9175569 -213.60649512 383.68618536 -217.63204956 373.45046997 C-219.06382607 369.8091275 -220.49411251 366.16720274 -221.92407227 362.52514648 C-231.26210049 338.74864732 -240.60635393 314.96869349 -250.42700195 291.38623047 C-250.75659912 290.58975098 -251.08619629 289.79327148 -251.42578125 288.97265625 C-251.84984253 287.95570679 -251.84984253 287.95570679 -252.2824707 286.91821289 C-253.0126685 284.96613257 -253.53457959 283.0300252 -254 281 C-255.22674438 280.72893433 -255.22674438 280.72893433 -256.47827148 280.45239258 C-270.23961784 277.21992241 -283.60319181 272.73772566 -297.02975845 268.35087204 C-300.47645821 267.2260639 -303.92513344 266.10734983 -307.3737793 264.98852539 C-308.06561215 264.76405951 -308.75744501 264.53959364 -309.4702425 264.30832577 C-310.86925729 263.85441448 -312.26827748 263.40051986 -313.66730309 262.94664192 C-315.76468503 262.26593007 -317.8618363 261.58451166 -319.9589386 260.90293884 C-331.43051767 257.17593527 -342.92019866 253.50732765 -354.41662598 249.85769653 C-362.61553717 247.25240031 -370.80829809 244.62786039 -379 242 C-380.28245605 241.58914154 -380.28245605 241.58914154 -381.59082031 241.16998291 C-386.44080797 239.61495907 -391.2868622 238.04870275 -396.12704468 236.46340942 C-397.56451936 235.99416717 -399.00315608 235.52846731 -400.44302368 235.06661987 C-402.37803332 234.44508883 -404.30832146 233.80891374 -406.23828125 233.171875 C-407.31118408 232.8222168 -408.38408691 232.47255859 -409.48950195 232.11230469 C-412 231 -412 231 -414 228 C-414.60321137 223.81668997 -414.45950776 220.08830786 -412.8125 216.1875 C-408.7809726 211.32186348 -403.73748931 208.64817848 -398.19140625 205.875 C-397.43674576 205.49142838 -396.68208527 205.10785675 -395.90455627 204.71266174 C-394.29346115 203.89414969 -392.68113522 203.07805646 -391.06768799 202.26419067 C-386.84972773 200.13568533 -382.64155991 197.98802323 -378.43359375 195.83984375 C-377.60661987 195.41799301 -376.779646 194.99614227 -375.9276123 194.56150818 C-368.73467764 190.88344222 -361.63336997 187.05402414 -354.56274414 183.14648438 C-348.25729174 179.66710927 -341.89458509 176.31251029 -335.5 173 C-328.07334096 169.15213858 -320.7018317 165.22209896 -313.375 161.1875 C-304.8221968 156.48159082 -296.18149328 151.9620375 -287.5 147.5 C-278.17895926 142.70800104 -268.9190171 137.82659819 -259.73828125 132.76953125 C-251.20930633 128.08355375 -242.60651845 123.54131685 -234 119 C-223.64503145 113.53430965 -213.31549273 108.03097217 -203.04931641 102.3996582 C-195.8477037 98.45211255 -188.61600407 94.56224295 -181.375 90.6875 C-180.78798309 90.37320038 -180.20096619 90.05890076 -179.59616089 89.7350769 C-173.59918137 86.52424697 -167.59981131 83.31798101 -161.59457397 80.12261963 C-149.07638075 73.46047634 -136.61756083 66.71589476 -124.29296875 59.70043945 C-112.15805198 52.79722257 -99.8856843 46.1482508 -87.578125 39.55859375 C-74.93085488 32.78443763 -62.38331673 25.88099355 -49.95947266 18.70556641 C-44.55766676 15.59246494 -39.14328768 12.50132454 -33.72991943 9.40838623 C-31.84051167 8.32850985 -29.95169496 7.24760591 -28.06298828 6.16650391 C-26.90268437 5.50290329 -25.74236606 4.83932784 -24.58203125 4.17578125 C-23.55311768 3.58708252 -22.5242041 2.99838379 -21.46411133 2.3918457 C-15.18927379 -1.15247697 -7.0706229 -1.5282016 0 0 Z M-52.875 46.875 C-54.94235692 48.08523591 -57.0100685 49.29486617 -59.078125 50.50390625 C-60.09068359 51.10348145 -61.10324219 51.70305664 -62.14648438 52.32080078 C-65.93689094 54.55132922 -69.77260475 56.69144656 -73.625 58.8125 C-75.0703527 59.61320869 -76.51566317 60.41399361 -77.9609375 61.21484375 C-79.640544 62.1433757 -81.3202408 63.07174432 -83 64 C-84.60536621 64.88776123 -84.60536621 64.88776123 -86.24316406 65.79345703 C-94.82382257 70.5379779 -103.41016611 75.27211321 -112 80 C-113.01739258 80.56041992 -114.03478516 81.12083984 -115.08300781 81.69824219 C-126.12022151 87.77228712 -137.21900698 93.70522307 -148.40258789 99.50537109 C-156.76218279 103.85075052 -165.0314429 108.35063138 -173.29296875 112.87890625 C-182.69432144 118.02963866 -192.14254803 123.09382116 -201.58642578 128.16601562 C-205.05727535 130.03077188 -208.52668655 131.89818682 -211.99609375 133.765625 C-224.27714443 140.37009737 -236.59713465 146.89083997 -248.98413086 153.29492188 C-256.6603278 157.27467356 -264.25676245 161.38615415 -271.83349609 165.55151367 C-278.34477652 169.12208317 -284.90685818 172.5832257 -291.5 176 C-301.79371379 181.33812376 -311.97857486 186.85921683 -322.14501953 192.43505859 C-348.84836663 207.07234736 -348.84836663 207.07234736 -360.26904297 212.64160156 C-362.98546663 213.96817513 -365.47743491 215.31828994 -368 217 C-368 217.99 -368 218.98 -368 220 C-360.8759339 222.33619039 -353.75079413 224.66908584 -346.625 227 C-345.53478546 227.35669769 -344.44457092 227.71339539 -343.32131958 228.0809021 C-328.66103385 232.8749898 -313.98539612 237.61686374 -299.28588867 242.28930664 C-295.06778881 243.63094969 -290.85330265 244.98310849 -286.6418457 246.34545898 C-284.59719799 247.00644054 -282.55252074 247.6673307 -280.5078125 248.328125 C-279.02981422 248.80609276 -279.02981422 248.80609276 -277.5219574 249.29371643 C-272.15661476 251.01888075 -266.77878772 252.6722652 -261.3634491 254.23335266 C-258.35278531 255.10753258 -255.35602907 256.02387159 -252.36062622 256.94882202 C-250.40140494 257.5358615 -248.42426722 258.06207728 -246.44702148 258.58520508 C-241.21707403 260.22819835 -238.00117825 261.54079376 -234.84350586 266.14306641 C-233.20839443 269.32289482 -231.9308056 272.60677231 -230.72915649 275.97116089 C-230.02870613 277.92012672 -229.27067698 279.83193725 -228.48120117 281.74633789 C-227.18785068 284.89288141 -225.94427476 288.05591865 -224.71835327 291.22927856 C-223.32791602 294.82750432 -221.91995763 298.41889905 -220.515625 302.01171875 C-220.22556076 302.75526108 -219.93549652 303.49880341 -219.63664246 304.26487732 C-216.53264154 312.2157507 -213.36355689 320.14019571 -210.1875 328.0625 C-209.61551597 329.4905423 -209.04357611 330.9186023 -208.47167969 332.34667969 C-206.97557797 336.08190259 -205.47860441 339.81677552 -203.98144531 343.55157471 C-201.0770186 350.79728849 -198.17398571 358.04355939 -195.27261353 365.29049683 C-194.2041789 367.95835317 -193.13470388 370.62579085 -192.06518555 373.29321289 C-191.411895 374.92462126 -190.75865353 376.55604928 -190.10546875 378.1875 C-189.80511719 378.93579575 -189.50476563 379.68409149 -189.1953125 380.45506287 C-188.06251234 383.2869184 -186.9647628 386.1057116 -186 389 C-183.69 389 -181.38 389 -179 389 C-176.00715676 383.18311909 -173.38157635 377.30085484 -170.91015625 371.24609375 C-170.52950012 370.32074829 -170.14884399 369.39540283 -169.75665283 368.4420166 C-168.94397097 366.46576239 -168.13259269 364.48897168 -167.32241821 362.51168823 C-165.18513005 357.29672583 -163.03689042 352.08627247 -160.890625 346.875 C-160.46570267 345.8424559 -160.04078033 344.8099118 -159.60298157 343.74607849 C-151.38007768 323.76778616 -142.97137021 303.8767215 -134.36968994 284.05880737 C-126.25443326 265.35521486 -118.34250657 246.56682157 -110.43212891 227.77587891 C-106.81652368 219.18784163 -103.19378146 210.60281672 -99.56994629 202.01824951 C-98.77305755 200.13047228 -97.97626399 198.24265486 -97.17956543 196.35479736 C-91.96813119 184.00652084 -86.73596239 171.6672754 -81.48522949 159.33566284 C-74.37024127 142.62563676 -67.32946911 125.88563635 -60.328125 109.12768555 C-56.22318775 99.30336621 -52.0985779 89.48819998 -47.9375 79.6875 C-46.69549262 76.75191051 -45.45497071 73.81570279 -44.21582031 70.87890625 C-43.37082152 68.87805771 -42.52365836 66.87812241 -41.67480469 64.87890625 C-40.37833143 61.81881329 -39.09395035 58.75390908 -37.8125 55.6875 C-37.42505615 54.77895264 -37.0376123 53.87040527 -36.63842773 52.93432617 C-36.28981689 52.09361572 -35.94120605 51.25290527 -35.58203125 50.38671875 C-35.27499268 49.65670654 -34.9679541 48.92669434 -34.65161133 48.17456055 C-33.908612 45.69501952 -33.88562953 43.57460639 -34 41 C-41.76332169 40.14146795 -46.33752111 42.91775867 -52.875 46.875 Z " fill="#020303" transform="translate(695,292)"/>
<path d="M0 0 C1.61949011 2.57213134 2.04408751 3.67669159 1.625 6.75 C1.41875 7.4925 1.2125 8.235 1 9 C1.66 9 2.32 9 3 9 C2.67 6.69 2.34 4.38 2 2 C2.99 1.67 3.98 1.34 5 1 C5.20979492 1.68175293 5.41958984 2.36350586 5.63574219 3.06591797 C11.82009746 22.92810507 19.60300749 41.4297529 29 60 C25.56632144 62.09352976 22.90636407 62.23437612 18.921875 62.1953125 C17.18164062 62.18564453 17.18164062 62.18564453 15.40625 62.17578125 C14.1996875 62.15902344 12.993125 62.14226563 11.75 62.125 C9.91695312 62.11146484 9.91695312 62.11146484 8.046875 62.09765625 C5.03105218 62.07409513 2.01562508 62.04119706 -1 62 C-1.02312764 54.06386213 -1.04091723 46.12773824 -1.05181217 38.19157505 C-1.05704008 34.50685502 -1.06413605 30.82215797 -1.07543945 27.13745117 C-1.08627162 23.58429169 -1.09227753 20.03115437 -1.09487724 16.47797966 C-1.0967309 15.11954334 -1.10035038 13.76110829 -1.10573006 12.40268135 C-1.11294475 10.50617777 -1.11340809 8.60965207 -1.11352539 6.71313477 C-1.115746 5.63169693 -1.11796661 4.55025909 -1.12025452 3.43605042 C-1 1 -1 1 0 0 Z " fill="#F4F4F4" transform="translate(183,611)"/>
<path d="M0 0 C11.55 0 23.1 0 35 0 C35 1.32 35 2.64 35 4 C35.99 4 36.98 4 38 4 C38.99 4.33 39.98 4.66 41 5 C39.57027802 7.85944396 37.91755291 7.92222963 34.92578125 8.953125 C33.87124756 9.32252197 32.81671387 9.69191895 31.73022461 10.07250977 C30.60237549 10.46108154 29.47452637 10.84965332 28.3125 11.25 C19.03908392 14.50765729 9.94362601 17.9201706 1 22 C-0.20029908 19.59940183 -0.11459743 18.10639351 -0.09765625 15.4296875 C-0.09515869 14.62257324 -0.09266113 13.81545898 -0.09008789 12.98388672 C-0.08098389 11.9579541 -0.07187988 10.93202148 -0.0625 9.875 C-0.041875 6.61625 -0.02125 3.3575 0 0 Z " fill="#F4F4F4" transform="translate(366,182)"/>
<path d="M0 0 C0.66 0.33 1.32 0.66 2 1 C1.67 1.99 1.34 2.98 1 4 C0.34 4 -0.32 4 -1 4 C-0.34 4.66 0.32 5.32 1 6 C1.22705078 8.06298828 1.22705078 8.06298828 1.1953125 10.5703125 C1.19031738 11.37742676 1.18532227 12.18454102 1.18017578 13.01611328 C1.15286377 14.55501221 1.15286377 14.55501221 1.125 16.125 C1.08375 19.38375 1.0425 22.6425 1 26 C-9.23 26 -19.46 26 -30 26 C-30 25.01 -30 24.02 -30 23 C-27.90871933 21.30347116 -25.85526563 19.80477645 -23.625 18.3125 C-22.33438078 17.42152161 -21.04532753 16.52827078 -19.7578125 15.6328125 C-19.11875977 15.18969727 -18.47970703 14.74658203 -17.82128906 14.29003906 C-13.72738952 11.39028502 -9.86600721 8.19335028 -6 5 C-5.35804688 4.47019531 -4.71609375 3.94039062 -4.0546875 3.39453125 C-2.69849415 2.26857538 -1.34829285 1.13540451 0 0 Z " fill="#F4F4F4" transform="translate(733,770)"/>
<path d="M0 0 C0.33 0 0.66 0 1 0 C1.07596188 6.780933 1.1285625 13.5617566 1.16479492 20.34301758 C1.17989676 22.65067648 1.20037969 24.95830661 1.22631836 27.26586914 C1.26263975 30.57966199 1.27971236 33.89307592 1.29296875 37.20703125 C1.30845261 38.2414888 1.32393646 39.27594635 1.33988953 40.3417511 C1.34022942 41.78290535 1.34022942 41.78290535 1.34057617 43.25317383 C1.34723801 44.09922684 1.35389984 44.94527985 1.36076355 45.81697083 C0.91854734 48.49288107 -0.00479309 49.24295747 -2 51 C-2.71447643 53.10332891 -2.71447643 53.10332891 -3 55 C-3.99 55 -4.98 55 -6 55 C-5.8594438 51.66642262 -5.71158198 48.33320611 -5.5625 45 C-5.52318359 44.06542969 -5.48386719 43.13085938 -5.44335938 42.16796875 C-5.19609347 36.72811877 -4.75680832 31.39305423 -4 26 C-3.34 26 -2.68 26 -2 26 C-2 22.37 -2 18.74 -2 15 C-1.67 15 -1.34 15 -1 15 C-0.67 10.05 -0.34 5.1 0 0 Z " fill="#F2F2F2" transform="translate(856,489)"/>
<path d="M0 0 C4.78861807 0.95772361 6.5270236 1.78648397 10.3125 4.5625 C11.19550781 5.20316406 12.07851563 5.84382812 12.98828125 6.50390625 C13.65214844 6.99761719 14.31601562 7.49132812 15 8 C14.67 9.32 14.34 10.64 14 12 C9.38 12 4.76 12 0 12 C0 8.04 0 4.08 0 0 Z " fill="#F3F3F3" transform="translate(305,784)"/>
<path d="M0 0 C0.99 0 1.98 0 3 0 C3.84888195 5.37625234 4.0024305 9.65370398 3 15 C2.01 15 1.02 15 0 15 C-1.82421875 12.8125 -1.82421875 12.8125 -3.6875 10 C-4.31011719 9.071875 -4.93273437 8.14375 -5.57421875 7.1875 C-6.04472656 6.465625 -6.51523437 5.74375 -7 5 C-6.67 4.34 -6.34 3.68 -6 3 C-4.35 3 -2.7 3 -1 3 C-0.67 2.01 -0.34 1.02 0 0 Z " fill="#F2F3F3" transform="translate(793,306)"/>
<path d="M0 0 C2.99177975 4.6331842 2.00296048 9.58907352 1.77734375 14.8828125 C1.88755859 16.42582031 1.88755859 16.42582031 2 18 C2.99 18.66 3.98 19.32 5 20 C3.80100302 23.0831351 2.52299523 26.06279492 1 29 C0.01 29 -0.98 29 -2 29 C-1.8594438 25.66642262 -1.71158198 22.33320611 -1.5625 19 C-1.52318359 18.06542969 -1.48386719 17.13085938 -1.44335938 16.16796875 C-1.19609347 10.72811877 -0.75680832 5.39305423 0 0 Z " fill="#EEEEEE" transform="translate(852,515)"/>
<path d="M0 0 C2.12070578 3.18105867 2.24886728 3.96436393 2.23046875 7.60546875 C2.22853516 8.50716797 2.22660156 9.40886719 2.22460938 10.33789062 C2.21236328 11.27826172 2.20011719 12.21863281 2.1875 13.1875 C2.18685547 14.10853516 2.18621094 15.02957031 2.18554688 15.97851562 C2.15089288 21.40379143 1.78842561 26.63239844 1 32 C0.67 32 0.34 32 0 32 C-1.21897826 26.29208592 -1.14788625 20.68048001 -1.125 14.875 C-1.12886719 13.88628906 -1.13273438 12.89757812 -1.13671875 11.87890625 C-1.13542969 10.92628906 -1.13414062 9.97367187 -1.1328125 8.9921875 C-1.13168457 8.12964355 -1.13055664 7.26709961 -1.12939453 6.37841797 C-1.00641915 4.11799126 -0.63145826 2.16777676 0 0 Z " fill="#89C5D8" transform="translate(827,496)"/>
<path d="M0 0 C0.33 1.32 0.66 2.64 1 4 C0.01 4.33 -0.98 4.66 -2 5 C-1.67 6.32 -1.34 7.64 -1 9 C-1.66 9 -2.32 9 -3 9 C-3.33 9.99 -3.66 10.98 -4 12 C-6.8125 14.75 -6.8125 14.75 -10 17 C-12.19921875 16.640625 -12.19921875 16.640625 -14 16 C-12.60770997 14.26797907 -11.21099444 12.53951516 -9.8125 10.8125 C-9.03519531 9.84957031 -8.25789063 8.88664062 -7.45703125 7.89453125 C-5.08191073 5.09649579 -2.62917223 2.5544533 0 0 Z " fill="#94D4EC" transform="translate(280,298)"/>
<path d="M0 0 C-1.28965176 1.37562854 -2.62689293 2.70766393 -4 4 C-4.66 4 -5.32 4 -6 4 C-6.12375 4.639375 -6.2475 5.27875 -6.375 5.9375 C-6.58125 6.618125 -6.7875 7.29875 -7 8 C-7.99 8.495 -7.99 8.495 -9 9 C-9 8.34 -9 7.68 -9 7 C-11.31 7.33 -13.62 7.66 -16 8 C-16 7.01 -16 6.02 -16 5 C-13.13879225 3.09252817 -10.64745007 1.99646294 -7.4375 0.8125 C-6.46683594 0.44769531 -5.49617187 0.08289063 -4.49609375 -0.29296875 C-2 -1 -2 -1 0 0 Z " fill="#F2F2F3" transform="translate(636,831)"/>
<path d="M0 0 C0.33 0.66 0.66 1.32 1 2 C0.34 2 -0.32 2 -1 2 C-1.103125 2.886875 -1.20625 3.77375 -1.3125 4.6875 C-2.02226833 8.10729287 -2.92673667 10.20906859 -5 13 C-5.99 13.33 -6.98 13.66 -8 14 C-8.671875 12.29296875 -8.671875 12.29296875 -9 10 C-7.890625 7.67578125 -7.890625 7.67578125 -6.25 5.3125 C-5.71890625 4.52488281 -5.1878125 3.73726562 -4.640625 2.92578125 C-3 1 -3 1 0 0 Z M-10 11 C-10 11.99 -10 12.98 -10 14 C-10.99 14.66 -11.98 15.32 -13 16 C-11.125 12.125 -11.125 12.125 -10 11 Z " fill="#F2F2F2" transform="translate(781,721)"/>
<path d="M0 0 C14.85 0 29.7 0 45 0 C45 0.33 45 0.66 45 1 C40.05 1 35.1 1 30 1 C29.67 1.66 29.34 2.32 29 3 C29 2.34 29 1.68 29 1 C28.0925 1.350625 27.185 1.70125 26.25 2.0625 C22.85682285 3.0413011 22.19911487 2.88910173 19 2 C17.48729395 1.85870882 15.97071872 1.75537183 14.453125 1.68359375 C13.60878906 1.64169922 12.76445312 1.59980469 11.89453125 1.55664062 C11.02183594 1.51732422 10.14914062 1.47800781 9.25 1.4375 C7.91775391 1.37272461 7.91775391 1.37272461 6.55859375 1.30664062 C4.37254037 1.20086385 2.18637911 1.09877454 0 1 C0 0.67 0 0.34 0 0 Z " fill="#FCFDFD" transform="translate(489,853)"/>
<path d="M0 0 C0.66 0.33 1.32 0.66 2 1 C-2.75 4 -2.75 4 -5 4 C-5 4.99 -5 5.98 -5 7 C-5.99 7.33 -6.98 7.66 -8 8 C-9.66710346 9.49985609 -9.66710346 9.49985609 -11 11 C-11.99 10.67 -12.98 10.34 -14 10 C-17.15020361 10.88319294 -17.15020361 10.88319294 -20 12 C-16.67964751 8.40742387 -12.72345526 6.50501712 -8.4375 4.25 C-7.65697266 3.82589844 -6.87644531 3.40179688 -6.07226562 2.96484375 C-5.32525391 2.56910156 -4.57824219 2.17335938 -3.80859375 1.765625 C-3.12595459 1.40243164 -2.44331543 1.03923828 -1.73999023 0.66503906 C-0.87869507 0.33584473 -0.87869507 0.33584473 0 0 Z " fill="#F1443F" transform="translate(500,417)"/>
<path d="M0 0 C1.09054687 0.02320313 2.18109375 0.04640625 3.3046875 0.0703125 C4.40039062 0.08835938 5.49609375 0.10640625 6.625 0.125 C7.46804688 0.14820313 8.31109375 0.17140625 9.1796875 0.1953125 C8.8496875 1.1853125 8.5196875 2.1753125 8.1796875 3.1953125 C5.45703125 4.14453125 5.45703125 4.14453125 2.1171875 4.8828125 C1.01246094 5.13417969 -0.09226562 5.38554687 -1.23046875 5.64453125 C-2.51244141 5.91716797 -2.51244141 5.91716797 -3.8203125 6.1953125 C-4.4453125 4.3203125 -4.4453125 4.3203125 -4.8203125 2.1953125 C-2.8203125 0.1953125 -2.8203125 0.1953125 0 0 Z " fill="#F2F3F3" transform="translate(411.8203125,181.8046875)"/>
<path d="M0 0 C0.93423645 3.01031744 1.04449911 3.86650268 0 7 C-0.66 7 -1.32 7 -2 7 C-2 10.3 -2 13.6 -2 17 C-2.33 16.34 -2.66 15.68 -3 15 C-5.7839183 16.39195915 -5.97898997 18.15575779 -7 21 C-8.06676357 17.80547317 -7.98898547 16.19831578 -6.6015625 13.14453125 C-6.12976563 12.08782227 -6.12976563 12.08782227 -5.6484375 11.00976562 C-5.31070313 10.28466797 -4.97296875 9.55957031 -4.625 8.8125 C-4.13 7.70745117 -4.13 7.70745117 -3.625 6.58007812 C-1.18147321 1.18147321 -1.18147321 1.18147321 0 0 Z " fill="#94D7ED" transform="translate(649,426)"/>
<path d="M0 0 C1.32 0 2.64 0 4 0 C4 0.66 4 1.32 4 2 C4.99 1.67 5.98 1.34 7 1 C9.39490986 0.93029948 11.79167691 0.91551997 14.1875 0.9375 C15.45980469 0.94652344 16.73210938 0.95554687 18.04296875 0.96484375 C19.50669922 0.98224609 19.50669922 0.98224609 21 1 C21 1.33 21 1.66 21 2 C19.97519531 2.12117188 18.95039062 2.24234375 17.89453125 2.3671875 C16.53381021 2.53610459 15.1731355 2.7053952 13.8125 2.875 C12.80219727 2.99294922 12.80219727 2.99294922 11.77148438 3.11328125 C7.89672516 3.60471413 4.54915277 4.35980901 1 6 C0.67 4.02 0.34 2.04 0 0 Z " fill="#92D3ED" transform="translate(672,289)"/>
<path d="M0 0 C1.07421875 1.76953125 1.07421875 1.76953125 2 4 C0.8125 7.6875 0.8125 7.6875 -1 11 C-1.99 11.33 -2.98 11.66 -4 12 C-5.20882096 14.00016466 -5.20882096 14.00016466 -6 16 C-5.52412884 9.97229862 -2.80277043 5.23321711 0 0 Z " fill="#95D6EC" transform="translate(666,385)"/>
<path d="M0 0 C-0.99 0.33 -1.98 0.66 -3 1 C-3 2.65 -3 4.3 -3 6 C-6.38391693 7.06351675 -7.5804634 7.21442982 -10.8125 5.5625 C-11.534375 5.046875 -12.25625 4.53125 -13 4 C-9.38656695 0.38656695 -4.97659681 -0.29274099 0 0 Z " fill="#93D4EC" transform="translate(426,208)"/>
<path d="M0 0 C5.12895153 0.7450477 10.13235018 2.25263853 15 4 C12.38058783 5.74627478 10.96175123 6.38722388 8 7 C8 6.34 8 5.68 8 5 C5.69 4.67 3.38 4.34 1 4 C1 3.34 1 2.68 1 2 C0.34 1.67 -0.32 1.34 -1 1 C-0.67 0.67 -0.34 0.34 0 0 Z " fill="#EBECEC" transform="translate(393,832)"/>
<path d="M0 0 C1.9673374 3.28926371 2.24447228 5.75571581 2.1875 9.5625 C2.18105469 10.51253906 2.17460938 11.46257813 2.16796875 12.44140625 C2 15 2 15 1 18 C0.34 18 -0.32 18 -1 18 C-1.11269443 11.8894576 -0.89604368 6.04829486 0 0 Z " fill="#E6E6E6" transform="translate(852,515)"/>
<path d="M0 0 C2.52588702 2.36292656 3.88820837 3.66462511 5 7 C4.67 7.99 4.34 8.98 4 10 C2.35 9.67 0.7 9.34 -1 9 C-0.67 6.03 -0.34 3.06 0 0 Z " fill="#F4F4F4" transform="translate(244,724)"/>
<path d="M0 0 C0.66 0.99 1.32 1.98 2 3 C2.66 3.33 3.32 3.66 4 4 C1.963006 5.29956591 -0.07907615 6.5896261 -2.125 7.875 C-2.69476562 8.23980469 -3.26453125 8.60460937 -3.8515625 8.98046875 C-7.46472705 11.2386966 -10.90886041 12.8186679 -15 14 C-12.73704795 11.48319114 -10.53151241 10.15778352 -7.5 8.6875 C-3.35847643 6.47868743 -1.58580409 4.54597172 0 0 Z " fill="#9EDEF0" transform="translate(572,345)"/>
<path d="M0 0 C5.00600922 0.54681024 8.97181067 2.24140333 13.375 4.5625 C14.01566406 4.89185547 14.65632812 5.22121094 15.31640625 5.56054688 C16.88138632 6.36639482 18.44124021 7.18218493 20 8 C19.01 8.495 19.01 8.495 18 9 C17.443125 8.690625 16.88625 8.38125 16.3125 8.0625 C13.15946578 6.6138086 10.42532653 6.86825667 7 7 C7 5.68 7 4.36 7 3 C4.69 2.34 2.38 1.68 0 1 C0 0.67 0 0.34 0 0 Z " fill="#9BDEEE" transform="translate(639,223)"/>
<path d="M0 0 C1 2 1 2 0.0625 5.125 C-0.288125 6.07375 -0.63875 7.0225 -1 8 C0.32 8.66 1.64 9.32 3 10 C2.01 10 1.02 10 0 10 C0 10.66 0 11.32 0 12 C-1.65 12.33 -3.3 12.66 -5 13 C-4.39254603 8.14036821 -2.27241033 4.2594482 0 0 Z " fill="#96D5EA" transform="translate(629,473)"/>
<path d="M0 0 C0.33 0 0.66 0 1 0 C1 5.61 1 11.22 1 17 C0.01 16.34 -0.98 15.68 -2 15 C-2.84379768 9.87370229 -2.46479466 4.62149 0 0 Z " fill="#84C0DC" transform="translate(198,517)"/>
<path d="M0 0 C1.31223496 3.93670488 0.24296256 6.12488144 -1 10 C-1.66 10 -2.32 10 -3 10 C-3.33 10.66 -3.66 11.32 -4 12 C-4 8.7 -4 5.4 -4 2 C-2.68 1.34 -1.36 0.68 0 0 Z " fill="#F4F3F3" transform="translate(186,414)"/>
<path d="M0 0 C0 4.05345102 -1.58160112 5.8215329 -4 9 C-7.47325181 10.1577506 -10.36067448 10.06866652 -14 10 C-13.44828125 9.75507812 -12.8965625 9.51015625 -12.328125 9.2578125 C-9.52360509 7.74261886 -7.21896877 5.88915874 -4.75 3.875 C-3.41195312 2.78832031 -3.41195312 2.78832031 -2.046875 1.6796875 C-1.03367187 0.84824219 -1.03367187 0.84824219 0 0 Z " fill="#6090A7" transform="translate(524,722)"/>
<path d="M0 0 C1.12642186 3.37926557 0.96344705 3.72928278 -0.43359375 6.79296875 C-0.75263672 7.50517578 -1.07167969 8.21738281 -1.40039062 8.95117188 C-1.74263672 9.68916016 -2.08488281 10.42714844 -2.4375 11.1875 C-2.77587891 11.93708984 -3.11425781 12.68667969 -3.46289062 13.45898438 C-4.2999411 15.30992698 -5.14885404 17.15549666 -6 19 C-7.08287842 15.75136475 -6.85269793 15.12655906 -6 12 C-6 10.68 -6 9.36 -6 8 C-5.01 7.67 -4.02 7.34 -3 7 C-1.28432339 3.49705129 -1.28432339 3.49705129 0 0 Z " fill="#F14641" transform="translate(599,480)"/>
<path d="M0 0 C4.455 0.99 4.455 0.99 9 2 C9 2.99 9 3.98 9 5 C8.21625 5.28875 7.4325 5.5775 6.625 5.875 C3.90328368 6.84912254 3.90328368 6.84912254 2 9 C2 5 2 5 3 4 C2.01 3.67 1.02 3.34 0 3 C0 2.01 0 1.02 0 0 Z " fill="#F0F0F1" transform="translate(416,839)"/>
<path d="M0 0 C2.68872443 2.35649699 3.9193851 4.63578765 5.25 7.9375 C5.78367187 9.21947266 5.78367187 9.21947266 6.328125 10.52734375 C7.04658772 13.17145366 6.91982605 14.45868571 6 17 C3 10.375 3 10.375 3 7 C0.525 6.01 0.525 6.01 -2 5 C-1.01 4.67 -0.02 4.34 1 4 C0.67 2.68 0.34 1.36 0 0 Z " fill="#98D8EA" transform="translate(467,641)"/>
<path d="M0 0 C0 4.95 0 9.9 0 15 C-0.99 15 -1.98 15 -3 15 C-3 10.38 -3 5.76 -3 1 C-1 0 -1 0 0 0 Z " fill="#84C1DA" transform="translate(199,496)"/>
<path d="M0 0 C0.33 0.66 0.66 1.32 1 2 C2.98 1.34 4.96 0.68 7 0 C4.19527484 3.29967665 0.83081791 5.08459104 -3 7 C-3.99 6.67 -4.98 6.34 -6 6 C-5.34 5.34 -4.68 4.68 -4 4 C-3.67 3.01 -3.34 2.02 -3 1 C-2.01 0.67 -1.02 0.34 0 0 Z " fill="#9ADBF0" transform="translate(340,471)"/>
<path d="M0 0 C0.99 0 1.98 0 3 0 C3 1.32 3 2.64 3 4 C0.1875 6.8125 0.1875 6.8125 -3 9 C-3.99 8.67 -4.98 8.34 -6 8 C-5.07456291 6.65826597 -4.13422595 5.32679841 -3.1875 4 C-2.66542969 3.2575 -2.14335938 2.515 -1.60546875 1.75 C-0.81076172 0.88375 -0.81076172 0.88375 0 0 Z " fill="#EDEEEE" transform="translate(786,711)"/>
<path d="M0 0 C0.66 0.66 1.32 1.32 2 2 C2.66 1.34 3.32 0.68 4 0 C3.43174347 5.54050113 1.37113483 10.03715966 -1 15 C-1.33 14.01 -1.66 13.02 -2 12 C-1.505 11.0409375 -1.505 11.0409375 -1 10.0625 C0.21175748 8.05584658 0.21175748 8.05584658 -0.3125 5.875 C-0.97944346 3.9478068 -0.97944346 3.9478068 -2 2 C-1.34 2 -0.68 2 0 2 C0 1.34 0 0.68 0 0 Z " fill="#EF4641" transform="translate(523,652)"/>
<path d="M0 0 C0.33 0.66 0.66 1.32 1 2 C1.66 2.33 2.32 2.66 3 3 C2.67 3.99 2.34 4.98 2 6 C2.33 6.66 2.66 7.32 3 8 C2.34 8.66 1.68 9.32 1 10 C0.01 10 -0.98 10 -2 10 C-3.39195915 5.82412255 -1.82323219 3.86525224 0 0 Z " fill="#F0F0F1" transform="translate(829,634)"/>
<path d="M0 0 C2.52259061 1.97420135 2.9929808 2.96745642 3.6875 6.1875 C3.790625 7.115625 3.89375 8.04375 4 9 C3.01 9 2.02 9 1 9 C-0.98 5.535 -0.98 5.535 -3 2 C-2.01 1.34 -1.02 0.68 0 0 Z " fill="#96D4EC" transform="translate(459,621)"/>
<path d="M0 0 C0.66 0 1.32 0 2 0 C1.52412884 6.02770138 -1.19722957 10.76678289 -4 16 C-5.27222115 13.45555769 -4.78641005 12.67379418 -4 10 C-3.814375 9.2575 -3.62875 8.515 -3.4375 7.75 C-3.293125 7.1725 -3.14875 6.595 -3 6 C-2.67 6.33 -2.34 6.66 -2 7 C-1.34 4.69 -0.68 2.38 0 0 Z " fill="#EF4542" transform="translate(605,463)"/>
<path d="M0 0 C0.99 0.33 1.98 0.66 3 1 C1.68 4.3 0.36 7.6 -1 11 C-1.66 10.67 -2.32 10.34 -3 10 C-3.625 7.4375 -3.625 7.4375 -4 5 C-3.01 4.34 -2.02 3.68 -1 3 C-0.67 2.01 -0.34 1.02 0 0 Z " fill="#EEEFEF" transform="translate(196,380)"/>
<path d="M0 0 C2 3 2 3 3.375 6 C4.98291477 8.96845803 6.17667449 10.24759106 9 12 C5.14304875 11.77960279 3.98383598 10.98453876 1.125 8.25 C-1 5 -1 5 -0.8125 2.125 C-0.544375 1.42375 -0.27625 0.7225 0 0 Z " fill="#95D5EA" transform="translate(499,720)"/>
<path d="M0 0 C2 1 2 1 3 2 C3 2.66 3 3.32 3 4 C4.32 3.67 5.64 3.34 7 3 C7 3.66 7 4.32 7 5 C8.32 5.66 9.64 6.32 11 7 C6.428721 6.45144652 2.32564205 5.58255197 -2 4 C-2 3.01 -2 2.02 -2 1 C-1.34 0.67 -0.68 0.34 0 0 Z " fill="#F14743" transform="translate(329,508)"/>
<path d="M0 0 C2.97 0.495 2.97 0.495 6 1 C3.84658594 3.34917898 1.78332063 4.82443004 -1.0625 6.25 C-1.75472656 6.60578125 -2.44695312 6.9615625 -3.16015625 7.328125 C-3.76730469 7.54984375 -4.37445313 7.7715625 -5 8 C-5.66 7.67 -6.32 7.34 -7 7 C-6.030625 6.401875 -5.06125 5.80375 -4.0625 5.1875 C-0.76947958 3.28872491 -0.76947958 3.28872491 0 0 Z " fill="#94D7EC" transform="translate(292,496)"/>
<path d="M0 0 C-2.26404542 1.36680153 -4.53501021 2.71844445 -6.8125 4.0625 C-7.45509766 4.45244141 -8.09769531 4.84238281 -8.75976562 5.24414062 C-10.4628915 6.24130759 -12.22945858 7.12812687 -14 8 C-14.99 7.67 -15.98 7.34 -17 7 C-16.360625 6.71125 -15.72125 6.4225 -15.0625 6.125 C-12.84793921 5.17176549 -12.84793921 5.17176549 -12 3 C-9.78515625 1.89453125 -9.78515625 1.89453125 -7.0625 0.8125 C-6.16660156 0.44769531 -5.27070313 0.08289063 -4.34765625 -0.29296875 C-2 -1 -2 -1 0 0 Z " fill="#9CDFEE" transform="translate(413,437)"/>
<path d="M0 0 C1.21386936 3.64160808 0.6674695 4.33165469 -0.9375 7.6875 C-1.31777344 8.49574219 -1.69804688 9.30398438 -2.08984375 10.13671875 C-2.39019531 10.75160156 -2.69054687 11.36648438 -3 12 C-3.33 12 -3.66 12 -4 12 C-4 10.35 -4 8.7 -4 7 C-4.99 7 -5.98 7 -7 7 C-6.67 6.34 -6.34 5.68 -6 5 C-5.01 5.33 -4.02 5.66 -3 6 C-2.67 5.01 -2.34 4.02 -2 3 C-1.34 2.01 -0.68 1.02 0 0 Z " fill="#F14641" transform="translate(655,347)"/>
<path d="M0 0 C3 3.75 3 3.75 3 6 C-2.53846154 5.38461538 -2.53846154 5.38461538 -4.875 3.4375 C-5.24625 2.963125 -5.6175 2.48875 -6 2 C-4.02 1.34 -2.04 0.68 0 0 Z " fill="#94D6EC" transform="translate(401,803)"/>
<path d="M0 0 C1 3 1 3 1 5 C0 6 -1 7 -2 8 C-2 8.66 -2 9.32 -2 10 C-3.32 10 -4.64 10 -6 10 C-4.6302836 6.00499382 -2.74277578 3.19990508 0 0 Z " fill="#EEEDEE" transform="translate(794,700)"/>
<path d="M0 0 C0.66 0.66 1.32 1.32 2 2 C1.875 4.5 1.875 4.5 1 7 C-0.9375 8.125 -0.9375 8.125 -3 9 C-3.66 9.99 -4.32 10.98 -5 12 C-5.33 11.01 -5.66 10.02 -6 9 C-4.75 7.125 -4.75 7.125 -3 5 C-1.98343919 3.34338239 -0.97934924 1.67888441 0 0 Z " fill="#F0F2F1" transform="translate(823,651)"/>
<path d="M0 0 C3.96 1.32 7.92 2.64 12 4 C7.80104745 5.04973814 5.20594226 4.72795155 1 4 C0.67 2.68 0.34 1.36 0 0 Z " fill="#97D6EB" transform="translate(359,547)"/>
<path d="M0 0 C1.46015291 0.28241641 2.91809793 0.57626614 4.375 0.875 C5.18710937 1.03742187 5.99921875 1.19984375 6.8359375 1.3671875 C9 2 9 2 11 4 C9.35 3.67 7.7 3.34 6 3 C6 3.66 6 4.32 6 5 C4.02 5.99 4.02 5.99 2 7 C1.7834375 5.824375 1.7834375 5.824375 1.5625 4.625 C1.12201075 2.03578982 1.12201075 2.03578982 0 0 Z " fill="#9BDBF0" transform="translate(298,528)"/>
<path d="M0 0 C1.99954746 -0.04254356 4.00041636 -0.04080783 6 0 C6.33 0.33 6.66 0.66 7 1 C8.66617115 1.04063832 10.33388095 1.042721 12 1 C12.33 1.99 12.66 2.98 13 4 C11.39482903 3.91266424 9.79078338 3.80447776 8.1875 3.6875 C6.84751953 3.60048828 6.84751953 3.60048828 5.48046875 3.51171875 C2.69396 2.93686419 1.75864246 2.1793144 0 0 Z " fill="#EAEBEB" transform="translate(556,173)"/>
<path d="M0 0 C0.66 0.33 1.32 0.66 2 1 C0.9024777 3.99324263 0.32317108 4.84610901 -2.625 6.25 C-3.40875 6.4975 -4.1925 6.745 -5 7 C-5.33 5.68 -5.66 4.36 -6 3 C-4.03533587 1.93224776 -2.03144641 0.93446535 0 0 Z " fill="#EFEEEF" transform="translate(663,817)"/>
<path d="M0 0 C6.75 0.75 6.75 0.75 9 3 C5.696686 3.88935377 2.37705625 4.46274105 -1 5 C-0.67 3.35 -0.34 1.7 0 0 Z " fill="#9AD8EF" transform="translate(428,570)"/>
<path d="M0 0 C0.66 0 1.32 0 2 0 C2 0.66 2 1.32 2 2 C2.99 2.33 3.98 2.66 5 3 C6.22393475 5.95784231 5.96516243 7.99727245 5 11 C4.67 10.01 4.34 9.02 4 8 C3.34 7.67 2.68 7.34 2 7 C1.26924352 4.6859378 0.59861742 2.35171131 0 0 Z " fill="#EDEEEE" transform="translate(833,400)"/>
<path d="M0 0 C1.0625 1.8125 1.0625 1.8125 2 4 C1.67 4.99 1.34 5.98 1 7 C-0.98 7 -2.96 7 -5 7 C-1.125 1.125 -1.125 1.125 0 0 Z " fill="#97D6EC" transform="translate(258,325)"/>
<path d="M0 0 C2.475 0.99 2.475 0.99 5 2 C4.79375 2.556875 4.5875 3.11375 4.375 3.6875 C3.89324118 6.65834605 4.87441848 8.25639505 6 11 C5.67 11.99 5.34 12.98 5 14 C4.16235732 12.04350603 3.33000941 10.08474444 2.5 8.125 C2.0359375 7.03445313 1.571875 5.94390625 1.09375 4.8203125 C0 2 0 2 0 0 Z " fill="#F34942" transform="translate(497,648)"/>
<path d="M0 0 C1.46015291 0.28241641 2.91809793 0.57626614 4.375 0.875 C5.18710937 1.03742187 5.99921875 1.19984375 6.8359375 1.3671875 C9 2 9 2 11 4 C8.03 3.505 8.03 3.505 5 3 C4.67 3.99 4.34 4.98 4 6 C3.01 5.34 2.02 4.68 1 4 C1.66 3.67 2.32 3.34 3 3 C2.01 2.01 1.02 1.02 0 0 Z " fill="#9BDFF0" transform="translate(403,562)"/>
<path d="M0 0 C1.125 1.75 1.125 1.75 2 4 C1.375 6.1875 1.375 6.1875 0 8 C-2.125 8.75 -2.125 8.75 -4 9 C-3.71125 8.443125 -3.4225 7.88625 -3.125 7.3125 C-1.9586747 4.91505355 -0.9660119 2.48403061 0 0 Z " fill="#F0F1F1" transform="translate(189,398)"/>
<path d="M0 0 C0.66 0.33 1.32 0.66 2 1 C1.67 2.65 1.34 4.3 1 6 C0.01 6 -0.98 6 -2 6 C-2.66 7.65 -3.32 9.3 -4 11 C-4.33 10.34 -4.66 9.68 -5 9 C-4.00390625 6.8359375 -4.00390625 6.8359375 -2.5625 4.375 C-2.08941406 3.55773437 -1.61632812 2.74046875 -1.12890625 1.8984375 C-0.75636719 1.27195312 -0.38382813 0.64546875 0 0 Z " fill="#9CDBED" transform="translate(243,346)"/>
<path d="M0 0 C-1.69179328 2.04219706 -2.63727666 2.91793306 -5.26171875 3.51171875 C-6.06222656 3.56972656 -6.86273438 3.62773437 -7.6875 3.6875 C-8.49574219 3.75324219 -9.30398438 3.81898438 -10.13671875 3.88671875 C-11.05904297 3.94279297 -11.05904297 3.94279297 -12 4 C-8.56269725 0.27625536 -5.01653969 -1.6721799 0 0 Z " fill="#98D9EB" transform="translate(404,216)"/>
<path d="M0 0 C0.66 0 1.32 0 2 0 C2 0.66 2 1.32 2 2 C2.69867188 1.97679687 3.39734375 1.95359375 4.1171875 1.9296875 C5.02726562 1.91164062 5.93734375 1.89359375 6.875 1.875 C8.23238281 1.84019531 8.23238281 1.84019531 9.6171875 1.8046875 C12 2 12 2 14 4 C9.05 3.67 4.1 3.34 -1 3 C-0.67 2.01 -0.34 1.02 0 0 Z " fill="#EEF0F0" transform="translate(465,170)"/>
<path d="M0 0 C2.97 0.99 5.94 1.98 9 3 C8.67 3.99 8.34 4.98 8 6 C6.35 5.67 4.7 5.34 3 5 C3 4.34 3 3.68 3 3 C2.01 3 1.02 3 0 3 C0 2.01 0 1.02 0 0 Z " fill="#EDEDED" transform="translate(382,827)"/>
<path d="M0 0 C1.98 0.66 3.96 1.32 6 2 C3 4 3 4 0 5 C0 5.66 0 6.32 0 7 C-1.32 6.67 -2.64 6.34 -4 6 C-3.34 6 -2.68 6 -2 6 C-2 5.01 -2 4.02 -2 3 C-1.34 3 -0.68 3 0 3 C0 2.01 0 1.02 0 0 Z " fill="#94D5EE" transform="translate(576,816)"/>
<path d="M0 0 C0.99 0.33 1.98 0.66 3 1 C4.125 6.625 4.125 6.625 3 10 C1.00902154 7.01353231 0.05875074 4.40312738 -1 1 C-0.67 0.67 -0.34 0.34 0 0 Z " fill="#ECECEC" transform="translate(828,383)"/>
<path d="M0 0 C2.64 0.33 5.28 0.66 8 1 C7.34 2.32 6.68 3.64 6 5 C4.02 4.01 2.04 3.02 0 2 C0 1.34 0 0.68 0 0 Z " fill="#E7E8E8" transform="translate(653,201)"/>
<path d="M0 0 C0.33 0 0.66 0 1 0 C1 3.3 1 6.6 1 10 C-0.32 9.34 -1.64 8.68 -3 8 C-2.01 5.36 -1.02 2.72 0 0 Z " fill="#F4F4F5" transform="translate(242,786)"/>
<path d="M0 0 C0 0.66 0 1.32 0 2 C-1.65 2.66 -3.3 3.32 -5 4 C-5.33 3.34 -5.66 2.68 -6 2 C-6.99 1.67 -7.98 1.34 -9 1 C-6.04335481 -0.4783226 -3.25770263 -0.06032783 0 0 Z " fill="#94D2EA" transform="translate(453,202)"/>
<path d="M0 0 C2 3 2 3 2 6 C-0.97 5.505 -0.97 5.505 -4 5 C-3.34 4.67 -2.68 4.34 -2 4 C-2 3.01 -2 2.02 -2 1 C-1.34 0.67 -0.68 0.34 0 0 Z " fill="#F4F3F3" transform="translate(979,422)"/>
<path d="M0 0 C2.7972908 2.06756277 3.02692273 3.14440371 3.6875 6.6875 C3.790625 7.780625 3.89375 8.87375 4 10 C3.67 9.01 3.34 8.02 3 7 C2.34 7 1.68 7 1 7 C-0.0625 4.625 -0.0625 4.625 -1 2 C-0.67 1.34 -0.34 0.68 0 0 Z " fill="#98DBED" transform="translate(804,393)"/>
<path d="M0 0 C-1.45537568 0.83848804 -2.91440373 1.67063934 -4.375 2.5 C-5.59316406 3.19609375 -5.59316406 3.19609375 -6.8359375 3.90625 C-9 5 -9 5 -11 5 C-11 4.01 -11 3.02 -11 2 C-9.54494642 1.47007308 -8.08581873 0.9513211 -6.625 0.4375 C-5.81289063 0.14746094 -5.00078125 -0.14257812 -4.1640625 -0.44140625 C-2 -1 -2 -1 0 0 Z " fill="#A0E2F5" transform="translate(600,336)"/>
<path d="M0 0 C0.96516243 3.00272755 1.22393475 5.04215769 0 8 C-0.99 8.33 -1.98 8.66 -3 9 C-2.5020163 5.26512223 -2.12508244 3.18762365 0 0 Z " fill="#98D9F0" transform="translate(575,601)"/>
<path d="M0 0 C0.93423645 3.01031744 1.04449911 3.86650268 0 7 C-0.66 7 -1.32 7 -2 7 C-2.33 7.99 -2.66 8.98 -3 10 C-3.33 9.34 -3.66 8.68 -4 8 C-3.22265625 6.0546875 -3.22265625 6.0546875 -2.0625 3.875 C-1.49208984 2.78832031 -1.49208984 2.78832031 -0.91015625 1.6796875 C-0.60980469 1.12539063 -0.30945313 0.57109375 0 0 Z " fill="#9EDEF0" transform="translate(649,426)"/>
<path d="M0 0 C0.33 1.98 0.66 3.96 1 6 C0.01 6.33 -0.98 6.66 -2 7 C-2.66 5.02 -3.32 3.04 -4 1 C-2 0 -2 0 0 0 Z " fill="#F3F4F4" transform="translate(829,377)"/>
<path d="M0 0 C-1.45537568 0.83848804 -2.91440373 1.67063934 -4.375 2.5 C-5.59316406 3.19609375 -5.59316406 3.19609375 -6.8359375 3.90625 C-9 5 -9 5 -11 5 C-11 4.01 -11 3.02 -11 2 C-9.54494642 1.47007308 -8.08581873 0.9513211 -6.625 0.4375 C-5.81289063 0.14746094 -5.00078125 -0.14257812 -4.1640625 -0.44140625 C-2 -1 -2 -1 0 0 Z " fill="#9DDEEE" transform="translate(542,368)"/>
<path d="M0 0 C3 0 3 0 5 1 C2.03 3.475 2.03 3.475 -1 6 C-1.66 5.67 -2.32 5.34 -3 5 C-1.6875 2.5 -1.6875 2.5 0 0 Z " fill="#9CDEF0" transform="translate(702,761)"/>
<path d="M0 0 C0.33 0.66 0.66 1.32 1 2 C1.66 2 2.32 2 3 2 C2.67 5.3 2.34 8.6 2 12 C1.67 12 1.34 12 1 12 C0.67 8.04 0.34 4.08 0 0 Z " fill="#88C3E0" transform="translate(198,477)"/>
<path d="M0 0 C0.33 0 0.66 0 1 0 C1.2165625 1.423125 1.2165625 1.423125 1.4375 2.875 C1.82935399 5.8934494 1.82935399 5.8934494 3 8 C3.66 8.33 4.32 8.66 5 9 C3.35 9.33 1.7 9.66 0 10 C0 6.7 0 3.4 0 0 Z " fill="#F2F2F3" transform="translate(980,357)"/>
<path d="M0 0 C0.66 0 1.32 0 2 0 C2 2.64 2 5.28 2 8 C1.01 8 0.02 8 -1 8 C-0.67 5.36 -0.34 2.72 0 0 Z " fill="#F3F3F3" transform="translate(57,358)"/>
<path d="M0 0 C2.31 0 4.62 0 7 0 C6.67 0.99 6.34 1.98 6 3 C4.35 3.33 2.7 3.66 1 4 C0.67 2.68 0.34 1.36 0 0 Z " fill="#ECECED" transform="translate(414,182)"/>
<path d="M0 0 C2.475 0.99 2.475 0.99 5 2 C5 2.99 5 3.98 5 5 C2.69 4.01 0.38 3.02 -2 2 C-1.34 1.34 -0.68 0.68 0 0 Z " fill="#E9EBEC" transform="translate(641,827)"/>
<path d="M0 0 C2 2 2 2 2 4 C1.34 4 0.68 4 0 4 C-0.33 4.66 -0.66 5.32 -1 6 C-1.99 6 -2.98 6 -4 6 C-3.67 4.68 -3.34 3.36 -3 2 C-2.01 2 -1.02 2 0 2 C0 1.34 0 0.68 0 0 Z " fill="#F2F2F2" transform="translate(814,669)"/>
<path d="M0 0 C0.33 0.66 0.66 1.32 1 2 C0.67 2.66 0.34 3.32 0 4 C0.66 4 1.32 4 2 4 C2.33 4.99 2.66 5.98 3 7 C1.35 6.67 -0.3 6.34 -2 6 C-2 3 -2 3 0 0 Z " fill="#EDEEF0" transform="translate(646,193)"/>
<path d="M0 0 C1.65 0.99 3.3 1.98 5 3 C2 5 2 5 -1 5 C-1.33 4.01 -1.66 3.02 -2 2 C-1.34 2 -0.68 2 0 2 C0 1.34 0 0.68 0 0 Z " fill="#F2F2F2" transform="translate(596,178)"/>
<path d="M0 0 C0 0.99 0 1.98 0 3 C-3.28976808 4.09658936 -4.71303767 3.79953138 -8 3 C-5.53387212 -0.1151089 -3.89156016 -0.31553191 0 0 Z " fill="#EAEAEA" transform="translate(547,851)"/>
<path d="M0 0 C2.97 0 5.94 0 9 0 C9.33 0.66 9.66 1.32 10 2 C9.67 2.66 9.34 3.32 9 4 C8.01 3.67 7.02 3.34 6 3 C6 2.67 6 2.34 6 2 C3.03 1.505 3.03 1.505 0 1 C0 0.67 0 0.34 0 0 Z " fill="#E2E3E2" transform="translate(528,852)"/>
<path d="M0 0 C1.5 1.375 1.5 1.375 3 3 C3 3.66 3 4.32 3 5 C0.69 4.34 -1.62 3.68 -4 3 C-2 1 -2 1 0 0 Z " fill="#ECEFEE" transform="translate(630,189)"/>
</svg>
