<?xml version="1.0" encoding="UTF-8"?>
<svg version="1.1" xmlns="http://www.w3.org/2000/svg" width="1024" height="1024">
<path d="M0 0 C1.20534387 0.62404567 2.40160763 1.2658401 3.58984375 1.921875 C4.26192871 2.27540039 4.93401367 2.62892578 5.62646484 2.99316406 C7.11883051 3.77932396 8.60760853 4.5723214 10.09326172 5.37109375 C12.68540394 6.75634287 15.2933255 8.10750827 17.90625 9.453125 C28.31409334 14.82188082 38.64114914 20.32698192 48.90698242 25.9621582 C56.98513744 30.39303588 65.11374161 34.72733666 73.24594116 39.05783081 C82.7330292 44.11507647 92.11985274 49.33317861 101.42163086 54.72436523 C102.30214111 55.23040283 103.18265137 55.73644043 104.08984375 56.2578125 C104.85425781 56.7017334 105.61867188 57.1456543 106.40625 57.60302734 C108.45204996 58.63393345 110.28957416 59.21835877 112.52734375 59.671875 C112.52734375 60.331875 112.52734375 60.991875 112.52734375 61.671875 C113.22682129 61.93669678 113.92629883 62.20151855 114.64697266 62.47436523 C117.7458662 63.76272536 120.65194345 65.25287801 123.61328125 66.83203125 C124.18767944 67.13789658 124.76207764 67.4437619 125.35388184 67.75889587 C127.20542359 68.74694162 129.05429976 69.73980351 130.90234375 70.734375 C131.53062073 71.07235107 132.15889771 71.41032715 132.80621338 71.75854492 C163.53248951 88.31275718 163.53248951 88.31275718 166.52734375 94.671875 C167.83015508 99.4412311 167.97830152 103.26594785 166.46484375 107.984375 C162.6980391 113.20929758 158.71327611 116.03965354 152.52734375 117.671875 C149.76635507 117.84552757 147.11242225 117.92954275 144.35546875 117.90234375 C143.21002594 117.90165642 143.21002594 117.90165642 142.04144287 117.9009552 C140.43793165 117.89794957 138.8344229 117.89011426 137.23095703 117.87768555 C134.77105442 117.85932806 132.31152676 117.85717681 129.8515625 117.85742188 C128.29036132 117.85250973 126.72916268 117.84668274 125.16796875 117.83984375 C124.43153137 117.83873093 123.69509399 117.8376181 122.93634033 117.83647156 C117.75957097 117.78798861 117.75957097 117.78798861 115.52734375 116.671875 C115.69032959 117.58267822 115.85331543 118.49348145 116.02124023 119.43188477 C116.77967003 124.77500636 116.65075166 130.12600432 116.625 135.51171875 C116.62287758 137.19485924 116.62287758 137.19485924 116.62071228 138.91200256 C116.61513775 142.47782108 116.60258991 146.04357562 116.58984375 149.609375 C116.58482546 152.0345043 116.58026313 154.45963459 116.57617188 156.88476562 C116.56517666 162.81382372 116.54846395 168.74284479 116.52734375 174.671875 C117.72746094 174.65616455 118.92757813 174.6404541 120.1640625 174.62426758 C124.64429941 174.56970044 129.1245073 174.53542793 133.60498047 174.50708008 C135.5389501 174.49205425 137.47288601 174.47162774 139.40673828 174.44555664 C142.19702511 174.40889909 144.98685886 174.39208632 147.77734375 174.37890625 C149.06064575 174.35568047 149.06064575 174.35568047 150.36987305 174.33198547 C157.39191583 174.33004564 163.0457339 175.40605731 168.40234375 180.296875 C172.694164 187.1132954 172.82277287 194.67418405 172.78613281 202.546875 C172.79138977 203.96093628 172.79138977 203.96093628 172.79675293 205.40356445 C172.80549351 208.49307813 172.7997483 211.58235934 172.79296875 214.671875 C172.7943176 216.83463586 172.79625997 218.99739642 172.79876709 221.16015625 C172.80170797 225.68232117 172.79745408 230.20440683 172.78808594 234.7265625 C172.7766921 240.50649323 172.78325712 246.28623818 172.79523087 252.06616211 C172.80247745 256.52898545 172.80014868 260.99176515 172.79497528 265.45458984 C172.79364653 267.58512392 172.79525921 269.71566204 172.79993439 271.84619141 C172.80504572 274.8298585 172.7972249 277.81322979 172.78613281 280.796875 C172.79018127 281.66675049 172.79422974 282.53662598 172.79840088 283.43286133 C172.75406337 289.91057189 172.35806543 296.54439214 169.02734375 302.234375 C167.52734375 303.671875 167.52734375 303.671875 165.52734375 303.671875 C165.52734375 304.331875 165.52734375 304.991875 165.52734375 305.671875 C156.83146369 310.68129215 143.96509904 308.82582248 134.27734375 308.796875 C132.3128125 308.80267578 132.3128125 308.80267578 130.30859375 308.80859375 C123.95614735 308.80216415 117.80433779 308.67555679 111.52734375 307.671875 C111.64769989 308.35802383 111.76805603 309.04417267 111.89205933 309.75111389 C113.5076304 319.52850089 114.41620507 329.33307227 115.30630112 339.1981678 C115.8363843 345.05618136 116.3834215 350.91261108 116.93066406 356.76904297 C117.05281973 358.07679341 117.1749754 359.38454386 117.30083275 360.7319231 C119.02350642 379.10634837 120.87113615 397.46864597 122.70703125 415.83203125 C122.8009229 416.77157638 122.89481455 417.71112151 122.9915514 418.67913771 C124.16192771 430.39070069 125.33467689 442.10202506 126.50856423 453.81323659 C127.20127799 460.72507505 127.89275908 467.63703599 128.58349609 474.54907227 C132.38344585 512.57289968 136.1891381 550.59624815 140.07611465 588.6112957 C140.37963535 591.58018302 140.68189151 594.54919458 140.98299789 597.51832771 C141.39168433 601.54699475 141.80513574 605.57515755 142.21923828 609.60327148 C142.39766706 611.36986146 142.39766706 611.36986146 142.57970047 613.17214012 C142.69069454 614.24350023 142.80168861 615.31486034 142.91604614 616.41868591 C143.01065691 617.34353004 143.10526768 618.26837416 143.20274544 619.22124386 C143.49916162 621.45910743 143.80805894 623.5314223 144.52734375 625.671875 C146.49377139 626.73232295 146.49377139 626.73232295 148.99609375 627.27734375 C149.94709961 627.53370605 150.89810547 627.79006836 151.87792969 628.05419922 C152.91723633 628.31990723 153.95654297 628.58561523 155.02734375 628.859375 C194.63207895 639.71528394 232.16446549 657.19471552 264.52734375 682.671875 C265.42582031 683.37699219 266.32429687 684.08210937 267.25 684.80859375 C272.56426516 689.0676523 277.67998204 693.52617505 282.71484375 698.109375 C283.29226318 698.62991455 283.86968262 699.1504541 284.46459961 699.68676758 C285.85894147 700.97298806 287.19870643 702.31789006 288.52734375 703.671875 C288.52734375 704.331875 288.52734375 704.991875 288.52734375 705.671875 C289.18734375 705.671875 289.84734375 705.671875 290.52734375 705.671875 C295.81647462 710.76243485 300.13857376 716.95469904 304.46484375 722.859375 C305.07021973 723.6836499 305.6755957 724.5079248 306.29931641 725.35717773 C319.52734375 743.54350417 319.52734375 743.54350417 319.52734375 747.671875 C320.18734375 748.001875 320.84734375 748.331875 321.52734375 748.671875 C322.38998679 750.34805112 323.17099927 752.06660526 323.91015625 753.80078125 C324.57724609 755.35249023 324.57724609 755.35249023 325.2578125 756.93554688 C325.94810547 758.5684668 325.94810547 758.5684668 326.65234375 760.234375 C327.12027344 761.32685547 327.58820312 762.41933594 328.0703125 763.54492188 C329.22856435 766.25144916 330.38060514 768.96045419 331.52734375 771.671875 C332.11032227 771.65157227 332.69330078 771.63126953 333.29394531 771.61035156 C341.22830326 771.45042415 347.58479225 773.27206104 354.40234375 777.421875 C361.44600611 784.87987044 363.84791325 793.02234146 363.79296875 803.1328125 C363.79583893 804.31781845 363.79583893 804.31781845 363.79876709 805.52676392 C363.80012084 807.18906983 363.79648132 808.85138661 363.78808594 810.51367188 C363.77740344 813.03279875 363.78799392 815.55120793 363.80078125 818.0703125 C363.79945895 819.69531405 363.79689511 821.32031516 363.79296875 822.9453125 C363.79701721 823.68623138 363.80106567 824.42715027 363.80523682 825.19052124 C363.72265945 834.58864381 361.85441744 842.51016606 355.52734375 849.671875 C346.92585408 856.99096076 338.81322353 857.97046415 327.8839283 857.92635059 C326.1233256 857.93116031 326.1233256 857.93116031 324.32715517 857.93606719 C321.06784066 857.94294022 317.8086733 857.9408628 314.54936131 857.93501147 C311.00395256 857.93084077 307.45856481 857.93824334 303.91316116 857.94416398 C297.6988462 857.95293061 291.4845642 857.95423645 285.2702446 857.95066071 C276.02929864 857.94535744 266.78838463 857.95144521 257.54744214 857.95974364 C240.08374122 857.97499468 222.62005478 857.97668758 205.1563486 857.97422061 C191.67213096 857.97238889 178.18791807 857.97414502 164.70370102 857.97844505 C162.76733431 857.97904745 160.8309676 857.97964865 158.89460089 857.98024866 C155.97678338 857.9811559 153.05896588 857.98206456 150.14114837 857.98298101 C123.00808045 857.99141223 95.87501432 857.99574506 68.74194527 857.99157429 C67.20721993 857.99133972 67.20721993 857.99133972 65.64149005 857.99110042 C60.45560539 857.99029462 55.26972074 857.98944885 50.08383609 857.98858712 C48.53890045 857.98833049 48.53890045 857.98833049 46.96275399 857.98806867 C44.87993013 857.98772202 42.79710627 857.98737349 40.71428241 857.98702308 C8.30153559 857.98166522 -24.11118403 857.98959748 -56.52392578 858.00805664 C-92.92920312 858.02876522 -129.33446361 858.03950156 -165.73974717 858.03548115 C-169.6202921 858.0350858 -173.50083705 858.03472425 -177.38138199 858.03438377 C-178.33688981 858.03429304 -179.29239763 858.03420231 -180.27686024 858.03410883 C-194.71106856 858.03294209 -209.14525989 858.03959695 -223.57946396 858.05019569 C-239.99206554 858.06223474 -256.40462964 858.06382159 -272.81723176 858.05140553 C-282.00471004 858.04476658 -291.19209874 858.0464318 -300.3795699 858.05999404 C-306.51492685 858.06822161 -312.65021652 858.06556307 -318.78556798 858.05401877 C-322.28234708 858.04774553 -325.77895106 858.0462047 -329.27572022 858.05788211 C-333.04316407 858.06793964 -336.81013396 858.05960692 -340.57755852 858.04660511 C-341.66212151 858.05391446 -342.7466845 858.0612238 -343.86411303 858.06875464 C-353.77779009 857.99757475 -362.30932385 855.85084786 -369.47265625 848.671875 C-376.69254218 838.94152112 -376.80038654 828.00546704 -376.73339844 816.38818359 C-376.72267856 814.17647894 -376.73334066 811.96558627 -376.74609375 809.75390625 C-376.75879937 798.09711697 -376.25153275 787.66354134 -367.73046875 778.875 C-363.29342852 774.87595086 -363.29342852 774.87595086 -360.3203125 774.13671875 C-359.71058594 773.98332031 -359.10085938 773.82992187 -358.47265625 773.671875 C-358.14265625 773.011875 -357.81265625 772.351875 -357.47265625 771.671875 C-352.52265625 771.671875 -347.57265625 771.671875 -342.47265625 771.671875 C-342.14265625 769.691875 -341.81265625 767.711875 -341.47265625 765.671875 C-340.65991211 763.45288086 -340.65991211 763.45288086 -339.6875 761.38671875 C-339.32599854 760.61545654 -338.96449707 759.84419434 -338.59204102 759.04956055 C-338.20201904 758.24429932 -337.81199707 757.43903809 -337.41015625 756.609375 C-337.00531006 755.76737549 -336.60046387 754.92537598 -336.18334961 754.05786133 C-332.7108227 746.95067938 -328.88597134 740.24630686 -324.47265625 733.671875 C-324.10060059 733.11725586 -323.72854492 732.56263672 -323.34521484 731.99121094 C-318.58324179 724.95625283 -313.4647812 718.27801281 -307.97265625 711.796875 C-307.45606445 711.18336182 -306.93947266 710.56984863 -306.40722656 709.93774414 C-305.14210941 708.47434663 -303.81266977 707.06701566 -302.47265625 705.671875 C-301.81265625 705.671875 -301.15265625 705.671875 -300.47265625 705.671875 C-300.2715625 705.13691406 -300.07046875 704.60195313 -299.86328125 704.05078125 C-297.88008084 700.65817155 -295.09909339 698.23178003 -292.22265625 695.609375 C-291.61019043 695.04371826 -290.99772461 694.47806152 -290.36669922 693.89526367 C-285.37319839 689.3461806 -280.15439329 685.13789542 -274.74121094 681.09936523 C-273.28521737 679.9994161 -271.87378916 678.84090535 -270.47265625 677.671875 C-270.47265625 677.011875 -270.47265625 676.351875 -270.47265625 675.671875 C-269.94414062 675.59582031 -269.415625 675.51976562 -268.87109375 675.44140625 C-265.52670465 674.36836936 -262.93680124 672.36615867 -260.09765625 670.359375 C-232.49479755 651.45411211 -200.9778295 638.58146409 -169.12109375 628.859375 C-167.78594785 628.44890449 -166.45090503 628.03809853 -165.1159668 627.62695312 C-161.90252047 626.63864761 -158.68809529 625.65367375 -155.47265625 624.671875 C-149.94020958 570.19373079 -144.4643876 515.71007283 -139.05705404 461.21937704 C-138.84761826 459.10899217 -138.63813496 456.99861203 -138.42863846 454.88823318 C-135.56302796 426.02023293 -132.7046211 397.15157444 -129.90234375 368.27734375 C-129.75769999 366.78804887 -129.75769999 366.78804887 -129.61013412 365.26866722 C-128.72959292 356.20212544 -127.85036496 347.13546761 -126.98041725 338.06790257 C-126.67905778 334.93086703 -126.37580125 331.79401681 -126.07211685 328.65720558 C-125.93527012 327.23850284 -125.79933918 325.8197114 -125.6644249 324.40082359 C-125.48332452 322.49632614 -125.2988833 320.59214724 -125.11425781 318.68798828 C-125.01356995 317.63749298 -124.91288208 316.58699768 -124.80914307 315.50466919 C-124.49407392 312.85218478 -124.0376776 310.28135882 -123.47265625 307.671875 C-124.78472046 307.77580566 -124.78472046 307.77580566 -126.12329102 307.88183594 C-135.46056064 308.56909224 -144.75624229 308.88801372 -154.1184082 308.91210938 C-156.43279963 308.92197149 -158.74635608 308.95321728 -161.06054688 308.984375 C-177.8440833 309.1059158 -177.8440833 309.1059158 -183.00732422 304.21948242 C-191.18325847 294.83551333 -188.60725726 278.21979898 -188.54782104 266.36194611 C-188.5348315 263.74712822 -188.52848726 261.13236213 -188.52368164 258.51751709 C-188.51238494 252.98561259 -188.49308327 247.4537523 -188.47265625 241.921875 C-188.44900562 235.46358311 -188.42868865 229.00531438 -188.41671753 222.54698944 C-188.41024481 219.97271997 -188.39775012 217.39852475 -188.38500977 214.82427979 C-188.38137956 213.2555752 -188.37802754 211.68686993 -188.375 210.11816406 C-188.36725052 209.04760269 -188.36725052 209.04760269 -188.35934448 207.95541382 C-188.35901668 204.90702845 -188.50002718 202.58976222 -189.47265625 199.671875 C-188.5447663 185.02576894 -188.5447663 185.02576894 -183.47265625 179.671875 C-179.03162247 176.31844133 -175.65400029 174.54241556 -170.09301758 174.55834961 C-168.75358093 174.55853088 -168.75358093 174.55853088 -167.38708496 174.55871582 C-166.4523938 174.56383179 -165.51770264 174.56894775 -164.5546875 174.57421875 C-163.6927478 174.57522583 -162.83080811 174.57623291 -161.94274902 174.57727051 C-158.7235379 174.58250178 -155.50434573 174.59646305 -152.28515625 174.609375 C-145.08703125 174.63 -137.88890625 174.650625 -130.47265625 174.671875 C-130.47265625 155.861875 -130.47265625 137.051875 -130.47265625 117.671875 C-131.79265625 117.671875 -133.11265625 117.671875 -134.47265625 117.671875 C-134.47265625 118.331875 -134.47265625 118.991875 -134.47265625 119.671875 C-135.36082031 119.34058594 -136.24898437 119.00929688 -137.1640625 118.66796875 C-143.83262489 116.76146751 -151.01330244 117.63271873 -157.86914062 117.83789062 C-165.08292047 117.9587454 -171.5077973 117.99696903 -177.3125 113.12890625 C-180.68991136 108.06879884 -182.07723501 103.71790209 -181.16796875 97.6328125 C-179.12880825 90.39798276 -172.93395789 86.75285872 -166.77832031 83.05200195 C-163.88471407 81.4450873 -160.96816812 79.8931323 -158.03515625 78.359375 C-155.91888406 77.23249689 -153.80300268 76.10488455 -151.6875 74.9765625 C-150.6444873 74.42323242 -149.60147461 73.86990234 -148.52685547 73.29980469 C-144.02789635 70.90179834 -139.55828601 68.45278951 -135.09765625 65.984375 C-134.34943604 65.57469482 -133.60121582 65.16501465 -132.83032227 64.74291992 C-130.09344476 63.22767238 -127.69670364 61.89592239 -125.47265625 59.671875 C-123.8141252 58.98521862 -122.14600774 58.32158032 -120.47265625 57.671875 C-118.61206045 56.7282154 -116.76519476 55.75720116 -114.9296875 54.765625 C-113.86556641 54.19199219 -112.80144531 53.61835938 -111.70507812 53.02734375 C-110.57650391 52.41503906 -109.44792969 51.80273438 -108.28515625 51.171875 C-107.10227619 50.53243617 -105.91933288 49.89311435 -104.73632812 49.25390625 C-97.58676613 45.385743 -90.46763696 41.46590421 -83.37329102 37.49755859 C-75.75058684 33.24506387 -68.05750818 29.1243779 -60.36743164 24.99536133 C-54.12478029 21.64227773 -47.89168237 18.27312363 -41.67529297 14.87158203 C-38.97101233 13.39265617 -36.2630536 11.920646 -33.5546875 10.44921875 C-30.22265012 8.63674731 -26.91046716 6.79395588 -23.609375 4.92578125 C-22.10559792 4.09091313 -20.60169875 3.25626486 -19.09765625 2.421875 C-18.1085022 1.84699341 -18.1085022 1.84699341 -17.09936523 1.26049805 C-11.17907318 -1.98527944 -6.49222456 -2.48296553 0 0 Z M-76.47265625 307.671875 C-72.37325082 311.80505852 -72.37325082 311.80505852 -67.8984375 315.51171875 C-67.2398877 316.01034424 -66.58133789 316.50896973 -65.90283203 317.02270508 C-65.20399902 317.54630615 -64.50516602 318.06990723 -63.78515625 318.609375 C-62.26764503 319.75704052 -60.75073844 320.90550589 -59.234375 322.0546875 C-58.45239746 322.64668945 -57.67041992 323.23869141 -56.86474609 323.84863281 C-52.91515975 326.85899317 -49.00876825 329.92431304 -45.09765625 332.984375 C-39.63034255 337.2537844 -34.12970222 341.43932224 -28.46484375 345.4453125 C-25.90659197 347.34897244 -23.44443188 349.31367614 -20.98046875 351.3359375 C-20.17673828 351.98691406 -19.37300781 352.63789063 -18.54492188 353.30859375 C-16.93500923 354.61656747 -15.33687641 355.9391987 -13.75195312 357.27734375 C-9.77903159 360.7702858 -9.77903159 360.7702858 -4.84375 361.39453125 C-1.78747023 359.17407099 1.19034643 356.90408248 4.08984375 354.484375 C10.06357797 349.60037794 16.14879041 344.90204276 22.33984375 340.296875 C29.71709259 334.80185815 37.01394764 329.21682788 44.26049805 323.55078125 C50.28906468 318.84157958 56.38154111 314.22699931 62.52734375 309.671875 C60.71361351 307.43759983 60.71361351 307.43759983 58.14166832 307.42577934 C57.1332268 307.42762293 56.12478527 307.42946651 55.08578491 307.43136597 C53.35255226 307.42724197 53.35255226 307.42724197 51.58430481 307.42303467 C49.67351387 307.4338205 49.67351387 307.4338205 47.72412109 307.44482422 C46.37408964 307.44538814 45.02405758 307.44507214 43.67402649 307.44393921 C40.00272099 307.44336395 36.33154544 307.45514608 32.66027021 307.46908712 C28.82589846 307.4815658 24.99152393 307.48276272 21.15713501 307.48513794 C13.8933579 307.49136115 6.6296408 307.5077833 -0.63410985 307.52783692 C-8.90243063 307.5501698 -17.17075423 307.56118277 -25.43909764 307.57122779 C-42.45031859 307.59214883 -59.46148108 307.6273411 -76.47265625 307.671875 Z M55.34863281 349.51660156 C51.64235361 352.34794743 47.93117861 355.17283131 44.21948242 357.99707031 C41.58450394 360.00335301 38.95232813 362.01327034 36.3203125 364.0234375 C33.35620246 366.28544417 30.38185678 368.53181367 27.390625 370.7578125 C26.78154297 371.21494629 26.17246094 371.67208008 25.54492188 372.14306641 C23.97655385 373.31934242 22.40259811 374.48815841 20.828125 375.65625 C18.56603098 377.63798262 17.74903742 378.99787426 16.52734375 381.671875 C27.88177577 390.54418419 39.27184738 399.34548435 50.88671875 407.875 C60.87451887 415.21107199 70.7723065 422.64774782 80.60107422 430.1953125 C83.56803359 432.46960531 86.54360715 434.73214684 89.52734375 436.984375 C90.47609375 437.70238281 91.42484375 438.42039062 92.40234375 439.16015625 C94.22850845 440.76848809 94.22850845 440.76848809 95.52734375 440.671875 C95.63326038 434.04696746 95.36518483 427.56950051 94.6875 420.98046875 C94.55788124 419.67348778 94.55788124 419.67348778 94.42564392 418.34010315 C94.24394192 416.52068202 94.05980268 414.70150273 93.87329102 412.88256836 C93.5874332 410.08579064 93.31179578 407.28812909 93.03710938 404.49023438 C92.85867577 402.7160851 92.67966086 400.94199417 92.5 399.16796875 C92.37649925 397.91033974 92.37649925 397.91033974 92.25050354 396.62730408 C92.18012405 392.83402454 92.18012405 392.83402454 90.52734375 389.671875 C90.48162109 388.24242895 90.49507433 386.81101642 90.53320312 385.38134766 C90.59081423 379.30862529 90.04171917 373.35783316 89.43359375 367.3203125 C89.32261353 366.18026764 89.2116333 365.04022278 89.09729004 363.8656311 C88.74515013 360.25892007 88.38635676 356.65290769 88.02734375 353.046875 C87.78601672 350.58728287 87.54512693 348.1276478 87.3046875 345.66796875 C86.7172944 339.66876503 86.12445143 333.67011919 85.52734375 327.671875 C77.70367191 327.671875 61.47911899 344.8298353 55.34863281 349.51660156 Z M-96.47265625 328.671875 C-98.18981934 332.10620118 -98.12728315 336.0439397 -98.50415039 339.828125 C-98.60183212 340.77795761 -98.69951385 341.72779022 -98.80015564 342.70640564 C-99.12342802 345.86116339 -99.4408332 349.01647915 -99.7578125 352.171875 C-99.98038453 354.36468514 -100.20316054 356.55747459 -100.4261322 358.75024414 C-100.89358206 363.35683372 -101.35805211 367.96371215 -101.82055664 372.57080078 C-102.41186933 378.45790139 -103.01122331 384.34415037 -103.61295414 390.23019409 C-104.07548241 394.76475653 -104.53330212 399.29978527 -104.9897747 403.83496094 C-105.20871969 406.0039006 -105.42919551 408.17268633 -105.65126228 410.34130859 C-105.9625235 413.38723153 -106.26732399 416.43373743 -106.57055664 419.48046875 C-106.66249298 420.36709702 -106.75442932 421.25372528 -106.84915161 422.16722107 C-107.42263515 428.01921145 -107.57457705 433.79334216 -107.47265625 439.671875 C-102.39209367 436.40292348 -97.65865424 432.77790984 -92.91015625 429.046875 C-91.29970792 427.78746785 -89.68902956 426.52835479 -88.078125 425.26953125 C-87.29228027 424.65480957 -86.50643555 424.04008789 -85.69677734 423.40673828 C-82.71776548 421.08304362 -79.72216334 418.78151041 -76.72265625 416.484375 C-73.01425733 413.6385017 -69.32334285 410.77342487 -65.65527344 407.87597656 C-58.97537085 402.59951259 -52.23749595 397.40150636 -45.47265625 392.234375 C-44.57611328 391.54778809 -43.67957031 390.86120117 -42.75585938 390.15380859 C-35.6299252 384.72356793 -35.6299252 384.72356793 -31.84765625 382.32421875 C-31.06390625 381.77894531 -30.28015625 381.23367188 -29.47265625 380.671875 C-29.47265625 380.011875 -29.47265625 379.351875 -29.47265625 378.671875 C-31.09769701 377.17677618 -31.09769701 377.17677618 -33.25 375.65234375 C-34.0651709 375.04874023 -34.8803418 374.44513672 -35.72021484 373.82324219 C-36.60789551 373.17516602 -37.49557617 372.52708984 -38.41015625 371.859375 C-40.2557116 370.49416967 -42.10075539 369.12827252 -43.9453125 367.76171875 C-44.87617676 367.0744873 -45.80704102 366.38725586 -46.76611328 365.67919922 C-50.65405673 362.79568207 -54.50542985 359.8659128 -58.34765625 356.921875 C-59.04004395 356.39198975 -59.73243164 355.86210449 -60.44580078 355.31616211 C-64.91889972 351.88480904 -69.35952318 348.41414868 -73.78515625 344.921875 C-78.19360944 341.44559188 -82.6202867 337.99660841 -87.09765625 334.609375 C-88.03867187 333.89652344 -88.9796875 333.18367188 -89.94921875 332.44921875 C-92.0814072 330.94744515 -94.10402215 329.74498857 -96.47265625 328.671875 Z M-15.09765625 402.921875 C-20.41292776 407.24570688 -25.78350628 411.4627648 -31.28515625 415.546875 C-39.42658679 421.60165739 -47.42538059 427.83169238 -55.42285156 434.07470703 C-61.8365096 439.0721047 -68.28898721 444.01940721 -74.76953125 448.9296875 C-75.51775146 449.4980835 -76.26597168 450.06647949 -77.03686523 450.65209961 C-78.48500363 451.75176644 -79.93490348 452.84911943 -81.38696289 453.94360352 C-86.26814906 457.65335168 -90.90570908 461.58228781 -95.47265625 465.671875 C-91.44284511 469.97933061 -87.02832355 473.33122005 -82.22265625 476.734375 C-81.03446289 477.58418945 -81.03446289 477.58418945 -79.82226562 478.45117188 C-73.85700182 482.71072085 -67.8656628 486.93384194 -61.87011719 491.15063477 C-56.7085884 494.78478453 -51.58430518 498.46796494 -46.47265625 502.171875 C-39.8893932 506.9415415 -33.27132641 511.65800835 -26.62329102 516.33691406 C-19.88237562 521.08172929 -13.17407365 525.8714936 -6.47265625 530.671875 C-0.22340072 526.58657408 5.84753274 522.31182796 11.83984375 517.859375 C12.66073486 517.25061523 13.48162598 516.64185547 14.32739258 516.01464844 C15.96526779 514.79945588 17.60257219 513.58349351 19.23925781 512.36669922 C21.29406032 510.84467201 23.357282 509.33535787 25.42578125 507.83203125 C26.52218408 507.02871225 27.61854227 506.22533231 28.71484375 505.421875 C29.65714844 504.73609375 30.59945312 504.0503125 31.5703125 503.34375 C32.21613281 502.79203125 32.86195313 502.2403125 33.52734375 501.671875 C33.52734375 501.011875 33.52734375 500.351875 33.52734375 499.671875 C34.06101562 499.59453125 34.5946875 499.5171875 35.14453125 499.4375 C38.42357044 498.38390708 40.91634405 496.4490766 43.65234375 494.421875 C44.2541748 493.98367432 44.85600586 493.54547363 45.47607422 493.09399414 C46.79168688 492.13604804 48.10557843 491.17573489 49.41796875 490.21337891 C51.61330089 488.60905864 53.81875043 487.01960201 56.02734375 485.43359375 C59.83206782 482.70116131 63.62827526 479.95734076 67.41796875 477.20410156 C68.77619926 476.21749801 70.13549241 475.23235486 71.49609375 474.24902344 C73.21991333 473.00089772 74.9372079 471.7443946 76.65234375 470.484375 C77.60367188 469.78957031 78.555 469.09476563 79.53515625 468.37890625 C80.19257812 467.81558594 80.85 467.25226563 81.52734375 466.671875 C81.52734375 466.011875 81.52734375 465.351875 81.52734375 464.671875 C79.90230299 463.17677618 79.90230299 463.17677618 77.75 461.65234375 C76.9350708 461.04890137 76.1201416 460.44545898 75.28051758 459.82373047 C74.39259521 459.17549316 73.50467285 458.52725586 72.58984375 457.859375 C70.74036388 456.49159035 68.89141386 455.12308898 67.04296875 453.75390625 C66.11162109 453.06635254 65.18027344 452.37879883 64.22070312 451.67041016 C60.39781567 448.83373896 56.61528102 445.94624642 52.83984375 443.046875 C52.15446533 442.5214209 51.46908691 441.9959668 50.76293945 441.45458984 C49.382255 440.39597306 48.00180147 439.33705503 46.62158203 438.27783203 C43.7353012 436.0645008 40.8450093 433.85643527 37.95483398 431.64819336 C28.99298191 424.80045013 20.04960759 417.92906181 11.1171875 411.04296875 C8.90943515 409.34128422 6.6998469 407.64203793 4.48828125 405.9453125 C2.65637923 404.53875976 0.8276026 403.1281133 -0.99609375 401.7109375 C-2.06730469 400.88722656 -2.06730469 400.88722656 -3.16015625 400.046875 C-3.76214844 399.58023437 -4.36414063 399.11359375 -4.984375 398.6328125 C-9.0068215 396.03564232 -12.06490686 400.41727736 -15.09765625 402.921875 Z M99.52734375 486.671875 C86.6543193 496.08094341 86.6543193 496.08094341 73.96484375 505.734375 C68.27376151 510.14478387 62.46112806 514.36736596 56.61230469 518.56567383 C50.94403281 522.63698932 45.32243375 526.76748 39.71484375 530.921875 C32.4175837 536.32233934 25.03933194 541.57397278 17.52734375 546.671875 C18.89782875 549.91821677 20.24683922 551.48031546 23.17578125 553.4140625 C23.9239209 553.91583008 24.67206055 554.41759766 25.44287109 554.93457031 C26.66031006 555.73266113 26.66031006 555.73266113 27.90234375 556.546875 C29.63227829 557.70458258 31.36141916 558.86347682 33.08984375 560.0234375 C33.98574219 560.62188477 34.88164063 561.22033203 35.8046875 561.83691406 C40.21149861 564.80692772 44.55638416 567.8638075 48.90234375 570.921875 C54.30393895 574.7152633 59.71243097 578.49614348 65.15234375 582.234375 C70.18255309 585.70746221 75.14179447 589.27038708 80.08984375 592.859375 C86.82614206 597.74224639 93.59548666 602.57528987 100.40234375 607.359375 C101.25256104 607.95967529 102.10277832 608.55997559 102.97875977 609.1784668 C103.77596436 609.73703369 104.57316895 610.29560059 105.39453125 610.87109375 C106.09690918 611.36440186 106.79928711 611.85770996 107.52294922 612.3659668 C109.46858791 613.63359425 111.43041112 614.67866847 113.52734375 615.671875 C112.82720448 603.05369331 111.60909032 590.49050197 110.37060547 577.91552734 C110.02402524 574.38809984 109.68372847 570.86010048 109.34375 567.33203125 C109.12407502 565.08590059 108.90403648 562.83980544 108.68359375 560.59375 C108.53198792 559.01421539 108.53198792 559.01421539 108.37731934 557.402771 C108.2805188 556.43035461 108.18371826 555.45793823 108.08398438 554.45605469 C108.00039673 553.60195007 107.91680908 552.74784546 107.83068848 551.86785889 C107.57206197 549.50029892 107.57206197 549.50029892 106.52734375 546.671875 C106.52813008 544.54236929 106.5319518 542.41279926 106.55487061 540.28341675 C106.50494697 535.54703666 105.9803279 530.8539479 105.50390625 526.14453125 C105.39766937 525.07440292 105.2914325 524.0042746 105.18197632 522.90171814 C104.95734964 520.65681489 104.73031285 518.41215162 104.50097656 516.16772461 C104.15103025 512.72143958 103.81547431 509.27393742 103.48046875 505.82617188 C103.2599897 503.64053654 103.03866573 501.45498624 102.81640625 499.26953125 C102.71735992 498.23627213 102.6183136 497.203013 102.51626587 496.13844299 C102.41631317 495.18662643 102.31636047 494.23480988 102.21337891 493.25415039 C102.12899567 492.41525772 102.04461243 491.57636505 101.95767212 490.71205139 C101.67577993 488.45634694 101.67577993 488.45634694 99.52734375 486.671875 Z M-113.47265625 488.671875 C-114.74497761 501.27818437 -116.0144684 513.88477548 -117.28054619 526.49171352 C-117.86879864 532.34837117 -118.4579521 538.20493498 -119.04931641 544.0612793 C-119.62215742 549.73454238 -120.19243375 555.4080584 -120.7610817 561.08174324 C-120.97624296 563.2242622 -121.19226089 565.36669535 -121.40923691 567.5090313 C-122.59137595 579.18715595 -123.70130269 590.8699166 -124.68408203 602.56665039 C-124.82600385 604.18930518 -124.82600385 604.18930518 -124.97079277 605.84474087 C-125.05190363 606.84066281 -125.13301449 607.83658476 -125.21658325 608.86268616 C-125.29044313 609.74480805 -125.36430302 610.62692995 -125.44040108 611.53578281 C-125.63751614 613.72604439 -125.63751614 613.72604439 -124.47265625 615.671875 C-123.48007812 614.92164063 -122.4875 614.17140625 -121.46484375 613.3984375 C-112.56145155 606.68472987 -103.5807194 600.1045204 -94.47265625 593.671875 C-93.15620299 592.73964972 -91.8397984 591.80735569 -90.5234375 590.875 C-79.53516147 583.09976139 -68.50432136 575.38535748 -57.47265625 567.671875 C-53.86819285 565.1514656 -50.26408257 562.63055228 -46.66015625 560.109375 C-45.84248779 559.53783691 -45.02481934 558.96629883 -44.18237305 558.37744141 C-39.59399281 555.16752612 -35.02358366 551.93468944 -30.47265625 548.671875 C-31.98654225 544.48250494 -34.9924929 542.57528495 -38.53515625 540.171875 C-39.14786377 539.74535645 -39.76057129 539.31883789 -40.3918457 538.87939453 C-41.71696369 537.95701011 -43.04445295 537.03802502 -44.37402344 536.12207031 C-47.98861939 533.62431555 -51.57220947 531.08268388 -55.16015625 528.546875 C-55.8763916 528.04244873 -56.59262695 527.53802246 -57.33056641 527.01831055 C-62.41784202 523.43268655 -67.45939113 519.79158042 -72.46875 516.09765625 C-74.40969527 514.63913111 -74.40969527 514.63913111 -76.47265625 513.671875 C-77.81877114 512.68914793 -79.14841231 511.68388082 -80.47265625 510.671875 C-81.60487132 509.81561571 -82.73775176 508.96023589 -83.87109375 508.10546875 C-84.50893799 507.62432617 -85.14678223 507.14318359 -85.80395508 506.64746094 C-89.35166371 503.97746161 -92.90960856 501.32136211 -96.47265625 498.671875 C-97.15440918 498.16479004 -97.83616211 497.65770508 -98.53857422 497.13525391 C-100.44779628 495.72193368 -102.36472995 494.31991878 -104.28515625 492.921875 C-105.15503174 492.27690063 -105.15503174 492.27690063 -106.04248047 491.61889648 C-109.39913844 489.1651522 -109.39913844 489.1651522 -113.47265625 488.671875 Z M-12.09765625 568.0234375 C-12.79391113 568.53793457 -13.49016602 569.05243164 -14.20751953 569.58251953 C-14.95501465 570.14825684 -15.70250977 570.71399414 -16.47265625 571.296875 C-18.09400177 572.49621285 -19.7164376 573.69407786 -21.33984375 574.890625 C-22.18256836 575.51453125 -23.02529297 576.1384375 -23.89355469 576.78125 C-28.08248246 579.85196721 -32.33740703 582.82627485 -36.59765625 585.796875 C-37.43288818 586.38049805 -38.26812012 586.96412109 -39.12866211 587.56542969 C-45.06145854 591.70456308 -51.02280531 595.80108183 -56.99267578 599.88647461 C-62.56416166 603.70994457 -68.03910643 607.65427143 -73.47265625 611.671875 C-69.81864597 612.88987843 -66.94946727 612.38982142 -63.22265625 611.89453125 C-61.67481183 611.70633635 -60.12669971 611.52033407 -58.57836914 611.33618164 C-57.74999542 611.23725616 -56.9216217 611.13833069 -56.06814575 611.03640747 C-20.70694045 606.92148726 15.2868833 607.0695582 50.6262207 611.39648438 C53.61095149 611.67981151 56.53106644 611.7187049 59.52734375 611.671875 C55.21312986 608.14051649 50.73574555 604.86768695 46.21484375 601.609375 C45.42086182 601.03646729 44.62687988 600.46355957 43.80883789 599.87329102 C38.09548382 595.76552077 32.32659175 591.74742162 26.51635742 587.77832031 C21.49225023 584.34429459 16.50104056 580.86601409 11.52734375 577.359375 C10.84534912 576.87976318 10.16335449 576.40015137 9.46069336 575.90600586 C8.80206299 575.44073486 8.14343262 574.97546387 7.46484375 574.49609375 C6.81902344 574.04024902 6.17320312 573.5844043 5.5078125 573.11474609 C4.11413716 572.09938351 2.74337575 571.05218914 1.390625 569.98291016 C0.69324219 569.43296387 -0.00414062 568.88301758 -0.72265625 568.31640625 C-1.3465625 567.81085205 -1.97046875 567.30529785 -2.61328125 566.78442383 C-6.34645018 564.55069867 -8.94121431 565.65022969 -12.09765625 568.0234375 Z " fill="#010000" transform="translate(518.47265625,100.328125)"/>
<path d="M0 0 C3.8023702 0.01132229 7.60445811 0.00465665 11.40681839 -0.00687695 C35.91923169 -0.06993159 60.32938228 0.74050027 84.65112305 4.07324219 C85.92995361 4.24500977 87.20878418 4.41677734 88.52636719 4.59375 C157.61919755 14.14500618 228.53368562 36.21347637 280.02612305 85.26074219 C280.8665918 86.03675781 281.70706055 86.81277344 282.57299805 87.61230469 C296.60364739 100.97270008 307.20045816 117.6529962 315.02612305 135.26074219 C113.72612305 135.26074219 -87.57387695 135.26074219 -294.97387695 135.26074219 C-285.32181933 115.95662694 -274.55409786 100.74260571 -259.97387695 85.26074219 C-259.04768555 84.27074219 -259.04768555 84.27074219 -258.1027832 83.26074219 C-244.42254129 69.08840524 -227.06244989 57.88284302 -209.97387695 48.26074219 C-209.31452148 47.88852539 -208.65516602 47.51630859 -207.97583008 47.1328125 C-165.47591866 23.37094592 -116.69990702 11.32276917 -68.78637695 4.44824219 C-68.0990448 4.3488736 -67.41171265 4.249505 -66.70355225 4.14712524 C-61.80139092 3.447775 -56.89197169 2.83635557 -51.97387695 2.26074219 C-51.20872772 2.16718445 -50.44357849 2.07362671 -49.65524292 1.97723389 C-33.12566337 0.00687033 -16.61888103 -0.04983605 0 0 Z " fill="#5BBC7C" transform="translate(501.973876953125,735.7392578125)"/>
<path d="M0 0 C99.66 0 199.32 0 302 0 C302 25.74 302 51.48 302 78 C202.34 78 102.68 78 0 78 C0 52.26 0 26.52 0 0 Z " fill="#F26649" transform="translate(359,303)"/>
<path d="M0 0 C0.97440558 -0.00500704 1.94881116 -0.01001407 2.95274419 -0.01517284 C4.5732184 -0.00814934 4.5732184 -0.00814934 6.22642946 -0.00098395 C7.37116694 -0.00389084 8.51590442 -0.00679772 9.69533092 -0.00979269 C12.8965837 -0.01586901 16.09768629 -0.0128944 19.29893342 -0.00623678 C22.77260326 -0.0011897 26.24625395 -0.00767269 29.71992111 -0.01272345 C35.81582828 -0.0199688 41.91170006 -0.01971426 48.00760889 -0.01462913 C57.07218574 -0.00708798 66.13673254 -0.01091919 75.20130916 -0.01704574 C91.38728093 -0.02759757 107.57323696 -0.02665636 123.75921024 -0.02088792 C137.92349405 -0.01586451 152.08777208 -0.01453979 166.2520566 -0.0169332 C167.19018564 -0.01708597 168.12831468 -0.01723874 169.09487187 -0.01739614 C172.9026701 -0.01801878 176.71046831 -0.01865558 180.51826653 -0.01931567 C216.26677059 -0.02543904 252.0152646 -0.01987825 287.76376712 -0.00912188 C319.55129661 0.00036993 351.33881008 -0.0004793 383.12633944 -0.01004386 C418.80783331 -0.02074408 454.4893183 -0.02500484 490.17081356 -0.01881933 C493.97183052 -0.01817786 497.77284749 -0.01755218 501.57386446 -0.0169332 C502.977812 -0.01669597 502.977812 -0.01669597 504.41012212 -0.01645395 C518.56841424 -0.01417526 532.72669994 -0.0168465 546.88499117 -0.02189231 C562.97731191 -0.02759865 579.06961438 -0.02620726 595.16193283 -0.01533082 C604.17753943 -0.00943903 613.19310652 -0.00910245 622.20871214 -0.01662317 C628.22074725 -0.0210869 634.23275049 -0.0183552 640.24478086 -0.00961363 C643.67692606 -0.00482762 647.10899237 -0.00328778 650.54113525 -0.0104256 C654.22733178 -0.01643382 657.91330699 -0.01034444 661.5994916 -0.00098395 C662.67980774 -0.00566629 663.76012388 -0.01034862 664.87317687 -0.01517284 C665.84758245 -0.0101658 666.82198804 -0.00515877 667.82592106 0 C668.66995268 0.00013552 669.5139843 0.00027104 670.38359264 0.00041066 C672.41296053 0.25069833 672.41296053 0.25069833 674.41296053 2.25069833 C674.8981128 6.35614652 674.78336049 10.4948619 674.78796053 14.62569833 C674.81245272 15.77554208 674.8369449 16.92538583 674.86217928 18.11007333 C674.86604647 19.21608895 674.86991365 20.32210458 674.87389803 21.46163583 C674.8821158 22.47532235 674.89033358 23.48900887 674.89880037 24.53341317 C674.23928333 28.22206878 673.50489526 29.08514935 670.41296053 31.25069833 C666.74997115 31.86460485 663.10935749 31.78469862 659.40304136 31.75126958 C658.26136091 31.75678375 657.11968046 31.76229791 655.94340363 31.76797917 C652.75987976 31.77927192 649.57696832 31.77253806 646.39347423 31.75836718 C642.93568914 31.74735231 639.47797421 31.75946287 636.02019459 31.76867467 C629.95524313 31.78160725 623.89043759 31.7795938 617.82548571 31.76789498 C608.80694704 31.7505464 599.78852362 31.75599899 590.76997907 31.76606189 C574.66553442 31.78327723 558.56115772 31.77769834 542.45671445 31.76270471 C528.36433523 31.74966839 514.2719796 31.74445397 500.17959452 31.74702287 C499.24590712 31.74718328 498.31221972 31.7473437 497.35023877 31.74750898 C493.56039526 31.74817253 489.77055175 31.74887493 485.98070826 31.74963432 C450.4083365 31.75666293 414.83600632 31.74115152 379.26364514 31.71501086 C347.63689021 31.69189284 316.01018099 31.68650783 284.38341951 31.69674325 C276.28500257 31.69934511 268.18658562 31.70193008 260.08816862 31.70434117 C259.09126029 31.70463862 258.09435197 31.70493607 257.0672343 31.70524253 C230.6650732 31.71285146 204.26291588 31.70645064 177.86075646 31.69564515 C175.02104932 31.69449731 172.18134219 31.69335413 169.34163505 31.69221833 C167.45772983 31.69146308 165.57382462 31.69069744 163.6899194 31.68992132 C149.60325623 31.68425484 135.51660487 31.68559843 121.42994165 31.69014955 C105.41893349 31.69524876 89.40796967 31.6894426 73.39697259 31.66925525 C64.42820887 31.65823902 55.45953225 31.65550327 46.49076582 31.66454378 C40.5087411 31.66974188 34.52679129 31.66412146 28.54478233 31.64949043 C25.1306114 31.6414433 21.71661722 31.63823661 18.30244695 31.648063 C14.63379861 31.65612568 10.96565405 31.64600809 7.29703856 31.63101506 C6.22473416 31.63775271 5.15242976 31.64449036 4.04763129 31.65143219 C2.58987103 31.63978202 2.58987103 31.63978202 1.10266107 31.62789649 C0.26297645 31.62746947 -0.57670818 31.62704245 -1.44183779 31.6266025 C-4.09907913 31.1609735 -4.9863215 30.39107814 -6.58703947 28.25069833 C-6.95935392 25.55514169 -6.95935392 25.55514169 -6.95032072 22.34054208 C-6.94967619 21.18618661 -6.94903166 20.03183114 -6.9483676 18.8424952 C-6.93225431 17.63657723 -6.91614103 16.43065927 -6.89953947 15.18819833 C-6.90276213 13.97841317 -6.90598478 12.76862802 -6.9093051 11.5221827 C-6.83846556 0.00109799 -6.83846556 0.00109799 0 0 Z " fill="#AB7A41" transform="translate(178.5870394706726,898.7493016719818)"/>
<path d="M0 0 C63.03 0 126.06 0 191 0 C191 19.8 191 39.6 191 60 C127.97 60 64.94 60 0 60 C0 40.2 0 20.4 0 0 Z " fill="#FED066" transform="translate(416,216)"/>
<path d="M0 0 C0.79736572 0.42112061 1.59473145 0.84224121 2.41625977 1.27612305 C3.3241626 1.75227051 4.23206543 2.22841797 5.16748047 2.71899414 C6.1377417 3.23671387 7.10800293 3.75443359 8.10766602 4.2878418 C9.12755615 4.82618652 10.14744629 5.36453125 11.19824219 5.91918945 C19.82753851 10.48893167 28.40111902 15.15999796 36.96313477 19.85424805 C43.05859781 23.19377802 49.17474587 26.49431947 55.29516602 29.7878418 C56.36541016 30.36381104 57.4356543 30.93978027 58.53833008 31.53320312 C64.43182107 34.70241873 70.3289233 37.8648354 76.22875977 41.0222168 C76.8575 41.35875778 77.48624023 41.69529877 78.1340332 42.04203796 C81.17038945 43.66715592 84.20722837 45.29135296 87.24487305 46.9140625 C93.41685048 50.2150901 99.56671233 53.5491005 105.67016602 56.9753418 C105.67016602 57.3053418 105.67016602 57.6353418 105.67016602 57.9753418 C32.74016602 57.9753418 -40.18983398 57.9753418 -115.32983398 57.9753418 C-112.26298097 54.90848878 -109.23430837 53.16119638 -105.44311523 51.2019043 C-104.7578627 50.84193863 -104.07261017 50.48197296 -103.36659241 50.11109924 C-101.89414797 49.33830327 -100.42040223 48.56798263 -98.94549561 47.79989624 C-95.83799889 46.18142038 -92.7369044 44.55086289 -89.63555908 42.92063904 C-88.07380692 42.09972456 -86.51175386 41.27938228 -84.94940186 40.45960999 C-78.50705135 37.07724346 -72.09690317 33.63945881 -65.70483398 30.1628418 C-64.75592285 29.6467334 -63.80701172 29.130625 -62.8293457 28.59887695 C-60.94376197 27.57281673 -59.05834302 26.54645362 -57.1730957 25.51977539 C-54.23030154 23.92127669 -51.2826989 22.33196803 -48.33374023 20.74487305 C-46.3115938 19.65504973 -44.28945836 18.56520604 -42.26733398 17.4753418 C-41.28772705 16.94884033 -40.30812012 16.42233887 -39.29882812 15.87988281 C-34.11143592 13.07726255 -28.9754347 10.20784476 -23.88452148 7.2331543 C-22.8378833 6.62536133 -21.79124512 6.01756836 -20.71289062 5.39135742 C-18.70985558 4.22301321 -16.7138314 3.04254066 -14.72607422 1.84838867 C-13.37944702 1.06431641 -13.37944702 1.06431641 -12.00561523 0.2644043 C-11.220979 -0.20271973 -10.43634277 -0.66984375 -9.62792969 -1.15112305 C-5.96268242 -2.54432975 -3.48274126 -1.53170544 0 0 Z " fill="#F2674A" transform="translate(517.329833984375,132.024658203125)"/>
<path d="M0 0 C3 3 3 3 8 14 C-193.3 14 -394.6 14 -602 14 C-601.01 12.68 -600.02 11.36 -599 10 C-599 10.66 -599 11.32 -599 12 C-399.68 12 -200.36 12 5 12 C2.525 7.545 2.525 7.545 0 3 C0 2.01 0 1.02 0 0 Z " fill="#74ECA3" transform="translate(809,857)"/>
<path d="M0 0 C99.66 0 199.32 0 302 0 C302 25.74 302 51.48 302 78 C202.34 78 102.68 78 0 78 C0 52.26 0 26.52 0 0 Z M2 2 C2 26.75 2 51.5 2 77 C100.67 77 199.34 77 301 77 C301 52.25 301 27.5 301 2 C202.33 2 103.66 2 2 2 Z " fill="#FE8F67" transform="translate(359,303)"/>
<path d="M0 0 C63.03 0 126.06 0 191 0 C191 19.8 191 39.6 191 60 C127.97 60 64.94 60 0 60 C0 40.2 0 20.4 0 0 Z M1 2 C1 20.48 1 38.96 1 58 C63.04 58 125.08 58 189 58 C189 39.52 189 21.04 189 2 C126.96 2 64.92 2 1 2 Z " fill="#DAC36C" transform="translate(416,216)"/>
<path d="M0 0 C0.33 0.66 0.66 1.32 1 2 C-0.98 2.99 -2.96 3.98 -5 5 C21.69413728 5.02333093 48.38827303 5.04098013 75.08241844 5.05181217 C87.47617305 5.05697471 99.86992133 5.06401662 112.26367188 5.07543945 C123.06247036 5.08538756 133.86126426 5.09185373 144.6600672 5.09408849 C150.3811758 5.09539538 156.10227129 5.09847988 161.8233757 5.10573006 C167.20275161 5.11249226 172.58210896 5.11461655 177.96148872 5.11310768 C179.94087004 5.11338392 181.92025194 5.11538786 183.89962959 5.11920547 C186.59207565 5.12414582 189.28445066 5.122997 191.97689819 5.12025452 C192.76871691 5.12316736 193.56053563 5.1260802 194.37634885 5.12908131 C198.31702554 5.2008283 198.31702554 5.2008283 202 4 C204.03144641 4.93446535 206.03533587 5.93224776 208 7 C208 7.33 208 7.66 208 8 C135.07 8 62.14 8 -13 8 C-10.20557081 5.20557081 -8.2983705 3.98752868 -4.8125 2.3125 C-3.91144531 1.87550781 -3.01039063 1.43851563 -2.08203125 0.98828125 C-1.39496094 0.66214844 -0.70789063 0.33601562 0 0 Z " fill="#E57153" transform="translate(415,182)"/>
<path d="M0 0 C27.21159887 -0.04010881 27.21159887 -0.04010881 38.80859375 -0.04882812 C46.72250031 -0.05480646 54.6363953 -0.06187989 62.55029297 -0.07543945 C68.9304352 -0.08630272 75.31056502 -0.09228416 81.69071579 -0.09487724 C84.12516856 -0.09672527 86.55962065 -0.10033397 88.99406815 -0.10573006 C92.40312417 -0.11298606 95.8121289 -0.113989 99.22119141 -0.11352539 C100.22820099 -0.11712067 101.23521057 -0.12071594 102.2727356 -0.12442017 C106.96471128 -0.11751306 111.38568307 0.02231251 116 1 C116 1.33 116 1.66 116 2 C78.38 2 40.76 2 2 2 C2 26.75 2 51.5 2 77 C22.46 77 42.92 77 64 77 C64 77.33 64 77.66 64 78 C42.88 78 21.76 78 0 78 C0 52.26 0 26.52 0 0 Z " fill="#FB8661" transform="translate(359,303)"/>
<path d="M0 0 C2.45703125 1.19140625 2.45703125 1.19140625 4.8125 2.5625 C5.60269531 3.01753906 6.39289062 3.47257813 7.20703125 3.94140625 C7.79871094 4.29074219 8.39039063 4.64007813 9 5 C8.01 5.495 8.01 5.495 7 6 C6.175 5.505 5.35 5.01 4.5 4.5 C-1.29186234 2.01777328 -7.04653976 3.40875256 -13 5 C-9.0173498 0.59812346 -5.8953302 -1.65069246 0 0 Z " fill="#F2805D" transform="translate(515,131)"/>
<path d="M0 0 C11.55 0 23.1 0 35 0 C35 0.33 35 0.66 35 1 C23.45 1 11.9 1 0 1 C0 0.67 0 0.34 0 0 Z " fill="#040302" transform="translate(487,959)"/>
<path d="M0 0 C10.56 0 21.12 0 32 0 C32 0.33 32 0.66 32 1 C21.44 1 10.88 1 0 1 C0 0.67 0 0.34 0 0 Z " fill="#040402" transform="translate(339,959)"/>
<path d="M0 0 C0.66 0.33 1.32 0.66 2 1 C0.6875 3 0.6875 3 -1 5 C-1.99 5 -2.98 5 -4 5 C-4.33 5.99 -4.66 6.98 -5 8 C-8.0625 9.1875 -8.0625 9.1875 -11 10 C-7.84778899 5.58690458 -4.44536093 2.99206986 0 0 Z " fill="#74DB9F" transform="translate(268,799)"/>
<path d="M0 0 C4.8274799 1.41292095 8.7162359 3.42974154 13 6 C13 6.66 13 7.32 13 8 C11.35 7.67 9.7 7.34 8 7 C8 6.34 8 5.68 8 5 C6.8553125 4.5978125 6.8553125 4.5978125 5.6875 4.1875 C3.12619116 3.05575888 1.80307062 2.08776599 0 0 Z " fill="#F17E5B" transform="translate(602,179)"/>
<path d="M0 0 C7.92 0 15.84 0 24 0 C24 0.33 24 0.66 24 1 C16.08 1 8.16 1 0 1 C0 0.67 0 0.34 0 0 Z " fill="#040403" transform="translate(527,959)"/>
<path d="M0 0 C7.59 0 15.18 0 23 0 C23 0.33 23 0.66 23 1 C15.41 1 7.82 1 0 1 C0 0.67 0 0.34 0 0 Z " fill="#040403" transform="translate(295,959)"/>
<path d="M0 0 C7.59 0 15.18 0 23 0 C23 0.33 23 0.66 23 1 C15.41 1 7.82 1 0 1 C0 0.67 0 0.34 0 0 Z " fill="#040402" transform="translate(269,959)"/>
<path d="M0 0 C7.26 0 14.52 0 22 0 C22 0.33 22 0.66 22 1 C14.74 1 7.48 1 0 1 C0 0.67 0 0.34 0 0 Z " fill="#040403" transform="translate(205,959)"/>
<path d="M0 0 C6.27 0 12.54 0 19 0 C19 0.33 19 0.66 19 1 C12.73 1 6.46 1 0 1 C0 0.67 0 0.34 0 0 Z " fill="#040403" transform="translate(572,959)"/>
<path d="M0 0 C4.95 0 9.9 0 15 0 C15 0.33 15 0.66 15 1 C10.05 1 5.1 1 0 1 C0 0.67 0 0.34 0 0 Z " fill="#040402" transform="translate(599,959)"/>
<path d="M0 0 C4.95 0 9.9 0 15 0 C15 0.33 15 0.66 15 1 C10.05 1 5.1 1 0 1 C0 0.67 0 0.34 0 0 Z " fill="#040402" transform="translate(439,959)"/>
<path d="M0 0 C4.62 0 9.24 0 14 0 C14 0.33 14 0.66 14 1 C9.38 1 4.76 1 0 1 C0 0.67 0 0.34 0 0 Z " fill="#040403" transform="translate(672,959)"/>
<path d="M0 0 C4.29 0 8.58 0 13 0 C13 0.33 13 0.66 13 1 C8.71 1 4.42 1 0 1 C0 0.67 0 0.34 0 0 Z " fill="#040402" transform="translate(640,959)"/>
<path d="M0 0 C4.29 0 8.58 0 13 0 C13 0.33 13 0.66 13 1 C8.71 1 4.42 1 0 1 C0 0.67 0 0.34 0 0 Z " fill="#040402" transform="translate(407,959)"/>
<path d="M0 0 C3.96 0 7.92 0 12 0 C12 0.33 12 0.66 12 1 C8.04 1 4.08 1 0 1 C0 0.67 0 0.34 0 0 Z " fill="#040302" transform="translate(711,959)"/>
<path d="M0 0 C3.96 0 7.92 0 12 0 C12 0.33 12 0.66 12 1 C8.04 1 4.08 1 0 1 C0 0.67 0 0.34 0 0 Z " fill="#040302" transform="translate(423,959)"/>
<path d="M0 0 C3.63 0 7.26 0 11 0 C11 0.33 11 0.66 11 1 C7.37 1 3.74 1 0 1 C0 0.67 0 0.34 0 0 Z " fill="#040402" transform="translate(552,959)"/>
<path d="M0 0 C3.3 0 6.6 0 10 0 C10 0.33 10 0.66 10 1 C6.7 1 3.4 1 0 1 C0 0.67 0 0.34 0 0 Z " fill="#050403" transform="translate(780,959)"/>
<path d="M0 0 C2.97 0 5.94 0 9 0 C9 0.33 9 0.66 9 1 C6.03 1 3.06 1 0 1 C0 0.67 0 0.34 0 0 Z " fill="#040503" transform="translate(688,959)"/>
<path d="M0 0 C2.97 0 5.94 0 9 0 C9 0.33 9 0.66 9 1 C6.03 1 3.06 1 0 1 C0 0.67 0 0.34 0 0 Z " fill="#040302" transform="translate(232,959)"/>
<path d="M0 0 C2.64 0 5.28 0 8 0 C8 0.33 8 0.66 8 1 C5.36 1 2.72 1 0 1 C0 0.67 0 0.34 0 0 Z " fill="#060404" transform="translate(811,959)"/>
<path d="M0 0 C2.64 0 5.28 0 8 0 C8 0.33 8 0.66 8 1 C5.36 1 2.72 1 0 1 C0 0.67 0 0.34 0 0 Z " fill="#050503" transform="translate(794,959)"/>
<path d="M0 0 C2.64 0 5.28 0 8 0 C8 0.33 8 0.66 8 1 C5.36 1 2.72 1 0 1 C0 0.67 0 0.34 0 0 Z " fill="#030302" transform="translate(380,959)"/>
<path d="M0 0 C2.64 0 5.28 0 8 0 C8 0.33 8 0.66 8 1 C5.36 1 2.72 1 0 1 C0 0.67 0 0.34 0 0 Z " fill="#030302" transform="translate(260,959)"/>
<path d="M0 0 C2.31 0 4.62 0 7 0 C7 0.33 7 0.66 7 1 C4.69 1 2.38 1 0 1 C0 0.67 0 0.34 0 0 Z " fill="#050403" transform="translate(767,959)"/>
<path d="M0 0 C2.31 0 4.62 0 7 0 C7 0.33 7 0.66 7 1 C4.69 1 2.38 1 0 1 C0 0.67 0 0.34 0 0 Z " fill="#040302" transform="translate(759,959)"/>
<path d="M0 0 C2.31 0 4.62 0 7 0 C7 0.33 7 0.66 7 1 C4.69 1 2.38 1 0 1 C0 0.67 0 0.34 0 0 Z " fill="#030302" transform="translate(751,959)"/>
<path d="M0 0 C2.31 0 4.62 0 7 0 C7 0.33 7 0.66 7 1 C4.69 1 2.38 1 0 1 C0 0.67 0 0.34 0 0 Z " fill="#040402" transform="translate(727,959)"/>
<path d="M0 0 C2.31 0 4.62 0 7 0 C7 0.33 7 0.66 7 1 C4.69 1 2.38 1 0 1 C0 0.67 0 0.34 0 0 Z " fill="#040402" transform="translate(703,959)"/>
<path d="M0 0 C2.31 0 4.62 0 7 0 C7 0.33 7 0.66 7 1 C4.69 1 2.38 1 0 1 C0 0.67 0 0.34 0 0 Z " fill="#040502" transform="translate(663,959)"/>
<path d="M0 0 C2.31 0 4.62 0 7 0 C7 0.33 7 0.66 7 1 C4.69 1 2.38 1 0 1 C0 0.67 0 0.34 0 0 Z " fill="#040402" transform="translate(564,959)"/>
<path d="M0 0 C2.31 0 4.62 0 7 0 C7 0.33 7 0.66 7 1 C4.69 1 2.38 1 0 1 C0 0.67 0 0.34 0 0 Z " fill="#040402" transform="translate(391,959)"/>
<path d="M0 0 C0.33 0 0.66 0 1 0 C1 2.31 1 4.62 1 7 C0.67 7 0.34 7 0 7 C0 4.69 0 2.38 0 0 Z " fill="#030302" transform="translate(386,225)"/>
<path d="M0 0 C1.98 0 3.96 0 6 0 C6 0.33 6 0.66 6 1 C4.02 1 2.04 1 0 1 C0 0.67 0 0.34 0 0 Z " fill="#040402" transform="translate(624,959)"/>
<path d="M0 0 C1.98 0 3.96 0 6 0 C6 0.33 6 0.66 6 1 C4.02 1 2.04 1 0 1 C0 0.67 0 0.34 0 0 Z " fill="#050402" transform="translate(592,959)"/>
<path d="M0 0 C1.98 0 3.96 0 6 0 C6 0.33 6 0.66 6 1 C4.02 1 2.04 1 0 1 C0 0.67 0 0.34 0 0 Z " fill="#030301" transform="translate(332,959)"/>
<path d="M0 0 C1.98 0 3.96 0 6 0 C6 0.33 6 0.66 6 1 C4.02 1 2.04 1 0 1 C0 0.67 0 0.34 0 0 Z " fill="#040402" transform="translate(325,959)"/>
<path d="M0 0 C1.98 0 3.96 0 6 0 C6 0.33 6 0.66 6 1 C4.02 1 2.04 1 0 1 C0 0.67 0 0.34 0 0 Z " fill="#060504" transform="translate(197,959)"/>
<path d="M0 0 C0.33 0 0.66 0 1 0 C1 1.98 1 3.96 1 6 C0.67 6 0.34 6 0 6 C0 4.02 0 2.04 0 0 Z " fill="#050504" transform="translate(620,609)"/>
<path d="M0 0 C0.33 0 0.66 0 1 0 C1 1.98 1 3.96 1 6 C0.67 6 0.34 6 0 6 C0 4.02 0 2.04 0 0 Z " fill="#040402" transform="translate(386,246)"/>
<path d="M0 0 C0.66 0 1.32 0 2 0 C2 1.65 2 3.3 2 5 C0 1.125 0 1.125 0 0 Z " fill="#040403" transform="translate(385,219)"/>
<path d="M0 0 C0.33 0 0.66 0 1 0 C1 1.65 1 3.3 1 5 C0.67 5 0.34 5 0 5 C0 3.35 0 1.7 0 0 Z " fill="#040303" transform="translate(386,240)"/>
<path d="M0 0 C4 1 4 1 4 1 Z " fill="#070806" transform="translate(847,959)"/>
<path d="M0 0 C4 1 4 1 4 1 Z " fill="#050604" transform="translate(840,959)"/>
<path d="M0 0 C4 1 4 1 4 1 Z " fill="#040403" transform="translate(775,959)"/>
<path d="M0 0 C4 1 4 1 4 1 Z " fill="#030403" transform="translate(743,959)"/>
<path d="M0 0 C4 1 4 1 4 1 Z " fill="#040503" transform="translate(735,959)"/>
<path d="M0 0 C4 1 4 1 4 1 Z " fill="#040302" transform="translate(615,959)"/>
<path d="M0 0 C4 1 4 1 4 1 Z " fill="#020402" transform="translate(471,959)"/>
<path d="M0 0 C4 1 4 1 4 1 Z " fill="#030402" transform="translate(463,959)"/>
<path d="M0 0 C4 1 4 1 4 1 Z " fill="#030303" transform="translate(399,959)"/>
<path d="M0 0 C4 1 4 1 4 1 Z " fill="#040402" transform="translate(375,959)"/>
<path d="M0 0 C4 1 4 1 4 1 Z " fill="#040302" transform="translate(247,959)"/>
<path d="M0 0 C4 1 4 1 4 1 Z " fill="#050503" transform="translate(191,959)"/>
<path d="M0 0 C0 3 0 3 0 3 Z " fill="#111010" transform="translate(140,916)"/>
<path d="M0 0 C0.99 0.495 0.99 0.495 2 1 C1.34 1.66 0.68 2.32 0 3 C0 2.01 0 1.02 0 0 Z " fill="#080807" transform="translate(192,832)"/>
<path d="M0 0 C1 4 1 4 1 4 Z " fill="#040403" transform="translate(626,673)"/>
<path d="M0 0 C1 4 1 4 1 4 Z " fill="#030202" transform="translate(481,475)"/>
<path d="M0 0 C0.66 0.66 1.32 1.32 2 2 C1.01 1.67 0.02 1.34 -1 1 C-0.67 0.67 -0.34 0.34 0 0 Z " fill="#020302" transform="translate(536,440)"/>
<path d="M0 0 C1 4 1 4 1 4 Z " fill="#030303" transform="translate(386,235)"/>
<path d="M0 0 C4 1 4 1 4 1 Z " fill="#060606" transform="translate(366,219)"/>
<path d="M0 0 C1 4 1 4 1 4 Z " fill="#0B0C0B" transform="translate(336,205)"/>
<path d="M0 0 C0.99 0.33 1.98 0.66 3 1 C2.01 1.33 1.02 1.66 0 2 C0 1.34 0 0.68 0 0 Z " fill="#0A0A0A" transform="translate(415,146)"/>
<path d="M0 0 C3 1 3 1 3 1 Z " fill="#060503" transform="translate(820,959)"/>
<path d="M0 0 C3 1 3 1 3 1 Z " fill="#050605" transform="translate(807,959)"/>
<path d="M0 0 C3 1 3 1 3 1 Z " fill="#040402" transform="translate(699,959)"/>
<path d="M0 0 C3 1 3 1 3 1 Z " fill="#040402" transform="translate(656,959)"/>
<path d="M0 0 C3 1 3 1 3 1 Z " fill="#040203" transform="translate(632,959)"/>
<path d="M0 0 C3 1 3 1 3 1 Z " fill="#040401" transform="translate(480,959)"/>
<path d="M0 0 C3 1 3 1 3 1 Z " fill="#030402" transform="translate(455,959)"/>
<path d="M0 0 C3 1 3 1 3 1 Z " fill="#030402" transform="translate(319,959)"/>
<path d="M0 0 C3 1 3 1 3 1 Z " fill="#040403" transform="translate(242,959)"/>
<path d="M0 0 C3 1 3 1 3 1 Z " fill="#040402" transform="translate(228,959)"/>
<path d="M0 0 C0.33 0.66 0.66 1.32 1 2 C0.34 1.67 -0.32 1.34 -1 1 C-0.67 0.67 -0.34 0.34 0 0 Z " fill="#0E0E0D" transform="translate(870,953)"/>
<path d="M0 0 C0.33 0.66 0.66 1.32 1 2 C0.34 1.67 -0.32 1.34 -1 1 C-0.67 0.67 -0.34 0.34 0 0 Z " fill="#0F120F" transform="translate(141,933)"/>
<path d="" fill="#101010" transform="translate(0,0)"/>
<path d="M0 0 C3 1 3 1 3 1 Z " fill="#070808" transform="translate(271,760)"/>
<path d="M0 0 C3 1 3 1 3 1 Z " fill="#040404" transform="translate(458,709)"/>
<path d="" fill="#050505" transform="translate(0,0)"/>
<path d="" fill="#060706" transform="translate(0,0)"/>
<path d="" fill="#050604" transform="translate(0,0)"/>
<path d="" fill="#040403" transform="translate(0,0)"/>
<path d="" fill="#010203" transform="translate(0,0)"/>
<path d="" fill="#060608" transform="translate(0,0)"/>
<path d="M0 0 C3 1 3 1 3 1 Z " fill="#030301" transform="translate(432,520)"/>
<path d="" fill="#040403" transform="translate(0,0)"/>
<path d="" fill="#040404" transform="translate(0,0)"/>
<path d="" fill="#030302" transform="translate(0,0)"/>
<path d="" fill="#030303" transform="translate(0,0)"/>
<path d="" fill="#030303" transform="translate(0,0)"/>
<path d="M0 0 C3 1 3 1 3 1 Z " fill="#060505" transform="translate(639,219)"/>
<path d="M0 0 C0.99 0.495 0.99 0.495 2 1 C1.01 1.495 1.01 1.495 0 2 C0 1.34 0 0.68 0 0 Z " fill="#0A0A09" transform="translate(404,152)"/>
<path d="M0 0 C2 1 2 1 2 1 Z " fill="#040503" transform="translate(828,959)"/>
<path d="M0 0 C2 1 2 1 2 1 Z " fill="#060503" transform="translate(804,959)"/>
<path d="M0 0 C2 1 2 1 2 1 Z " fill="#050504" transform="translate(791,959)"/>
<path d="M0 0 C2 1 2 1 2 1 Z " fill="#050402" transform="translate(740,959)"/>
<path d="M0 0 C2 1 2 1 2 1 Z " fill="#030303" transform="translate(724,959)"/>
<path d="M0 0 C2 1 2 1 2 1 Z " fill="#040502" transform="translate(636,959)"/>
<path d="M0 0 C2 1 2 1 2 1 Z " fill="#040402" transform="translate(524,959)"/>
<path d="M0 0 C2 1 2 1 2 1 Z " fill="#040402" transform="translate(484,959)"/>
<path d="M0 0 C2 1 2 1 2 1 Z " fill="#040501" transform="translate(476,959)"/>
<path d="M0 0 C2 1 2 1 2 1 Z " fill="#030303" transform="translate(468,959)"/>
<path d="M0 0 C2 1 2 1 2 1 Z " fill="#030303" transform="translate(460,959)"/>
<path d="M0 0 C2 1 2 1 2 1 Z " fill="#040303" transform="translate(404,959)"/>
<path d="M0 0 C2 1 2 1 2 1 Z " fill="#050403" transform="translate(372,959)"/>
<path d="M0 0 C2 1 2 1 2 1 Z " fill="#040402" transform="translate(252,959)"/>
<path d="" fill="#070806" transform="translate(0,0)"/>
<path d="M0 0 C2 1 2 1 2 1 Z " fill="#050402" transform="translate(718,744)"/>
<path d="M0 0 C2 1 2 1 2 1 Z " fill="#080606" transform="translate(341,730)"/>
<path d="M0 0 C2 1 2 1 2 1 Z " fill="#020101" transform="translate(394,712)"/>
<path d="M0 0 C2 1 2 1 2 1 Z " fill="#030403" transform="translate(452,710)"/>
<path d="M0 0 C2 1 2 1 2 1 Z " fill="#030102" transform="translate(571,709)"/>
<path d="M0 0 C2 1 2 1 2 1 Z " fill="#030202" transform="translate(551,707)"/>
<path d="" fill="#080808" transform="translate(0,0)"/>
<path d="" fill="#030203" transform="translate(0,0)"/>
<path d="M0 0 C2 1 2 1 2 1 Z " fill="#020300" transform="translate(594,688)"/>
<path d="M0 0 C2 1 2 1 2 1 Z " fill="#030404" transform="translate(522,674)"/>
<path d="" fill="#030403" transform="translate(0,0)"/>
<path d="" fill="#020203" transform="translate(0,0)"/>
<path d="" fill="#040505" transform="translate(0,0)"/>
<path d="M0 0 C2 1 2 1 2 1 Z " fill="#040301" transform="translate(528,616)"/>
<path d="" fill="#080909" transform="translate(0,0)"/>
<path d="" fill="#090908" transform="translate(0,0)"/>
<path d="" fill="#050606" transform="translate(0,0)"/>
<path d="" fill="#070807" transform="translate(0,0)"/>
<path d="" fill="#070908" transform="translate(0,0)"/>
<path d="" fill="#040404" transform="translate(0,0)"/>
<path d="M0 0 C2 1 2 1 2 1 Z " fill="#030403" transform="translate(416,533)"/>
<path d="" fill="#040405" transform="translate(0,0)"/>
<path d="" fill="#050605" transform="translate(0,0)"/>
<path d="M0 0 C2 1 2 1 2 1 Z " fill="#030302" transform="translate(483,481)"/>
<path d="" fill="#090707" transform="translate(0,0)"/>
<path d="M0 0 C2 1 2 1 2 1 Z " fill="#050504" transform="translate(469,467)"/>
<path d="" fill="#040304" transform="translate(0,0)"/>
<path d="" fill="#060707" transform="translate(0,0)"/>
<path d="" fill="#040303" transform="translate(0,0)"/>
<path d="M0 0 C2 1 2 1 2 1 Z " fill="#050504" transform="translate(523,451)"/>
<path d="" fill="#030402" transform="translate(0,0)"/>
<path d="M0 0 C2 1 2 1 2 1 Z " fill="#030302" transform="translate(591,438)"/>
<path d="" fill="#030202" transform="translate(0,0)"/>
<path d="M0 0 C2 1 2 1 2 1 Z " fill="#030202" transform="translate(569,416)"/>
<path d="" fill="#040303" transform="translate(0,0)"/>
<path d="" fill="#080808" transform="translate(0,0)"/>
<path d="" fill="#030402" transform="translate(0,0)"/>
<path d="M0 0 C2 1 2 1 2 1 Z " fill="#070705" transform="translate(662,219)"/>
<path d="M0 0 C2 1 2 1 2 1 Z " fill="#060505" transform="translate(373,219)"/>
<path d="M0 0 C2 1 2 1 2 1 Z " fill="#0E0E0E" transform="translate(337,192)"/>
<path d="M0 0 C2 1 2 1 2 1 Z " fill="#0E0E0C" transform="translate(356,179)"/>
<path d="" fill="#090909" transform="translate(0,0)"/>
<path d="M0 0 C2 1 2 1 2 1 Z " fill="#090908" transform="translate(449,128)"/>
<path d="M0 0 C2 1 2 1 2 1 Z " fill="#0D0D0D" transform="translate(441,128)"/>
<path d="M0 0 C2 1 2 1 2 1 Z " fill="#0A0908" transform="translate(464,120)"/>
<path d="M0 0 C2 1 2 1 2 1 Z " fill="#080809" transform="translate(479,112)"/>
<path d="" fill="#0C0F0E" transform="translate(0,0)"/>
<path d="" fill="#080806" transform="translate(0,0)"/>
<path d="" fill="#090807" transform="translate(0,0)"/>
<path d="" fill="#060606" transform="translate(0,0)"/>
<path d="" fill="#090605" transform="translate(0,0)"/>
<path d="" fill="#060603" transform="translate(0,0)"/>
<path d="" fill="#040603" transform="translate(0,0)"/>
<path d="" fill="#050505" transform="translate(0,0)"/>
<path d="" fill="#050403" transform="translate(0,0)"/>
<path d="" fill="#050503" transform="translate(0,0)"/>
<path d="" fill="#060503" transform="translate(0,0)"/>
<path d="" fill="#050504" transform="translate(0,0)"/>
<path d="" fill="#040502" transform="translate(0,0)"/>
<path d="" fill="#040401" transform="translate(0,0)"/>
<path d="" fill="#040402" transform="translate(0,0)"/>
<path d="" fill="#060506" transform="translate(0,0)"/>
<path d="" fill="#060605" transform="translate(0,0)"/>
<path d="" fill="#050704" transform="translate(0,0)"/>
<path d="" fill="#070805" transform="translate(0,0)"/>
<path d="" fill="#070806" transform="translate(0,0)"/>
<path d="" fill="#0A0A0A" transform="translate(0,0)"/>
<path d="" fill="#100D0D" transform="translate(0,0)"/>
<path d="" fill="#100E0D" transform="translate(0,0)"/>
<path d="" fill="#101211" transform="translate(0,0)"/>
<path d="" fill="#0E0F0D" transform="translate(0,0)"/>
<path d="" fill="#0E0F0E" transform="translate(0,0)"/>
<path d="" fill="#0E0F0E" transform="translate(0,0)"/>
<path d="" fill="#0D0E0D" transform="translate(0,0)"/>
<path d="" fill="#111110" transform="translate(0,0)"/>
<path d="" fill="#121311" transform="translate(0,0)"/>
<path d="" fill="#101111" transform="translate(0,0)"/>
<path d="" fill="#4F4D4E" transform="translate(0,0)"/>
<path d="" fill="#131211" transform="translate(0,0)"/>
<path d="" fill="#171514" transform="translate(0,0)"/>
<path d="" fill="#121313" transform="translate(0,0)"/>
<path d="" fill="#11110E" transform="translate(0,0)"/>
<path d="" fill="#10120F" transform="translate(0,0)"/>
<path d="" fill="#141314" transform="translate(0,0)"/>
<path d="" fill="#171513" transform="translate(0,0)"/>
<path d="" fill="#131313" transform="translate(0,0)"/>
<path d="" fill="#141312" transform="translate(0,0)"/>
<path d="" fill="#151613" transform="translate(0,0)"/>
<path d="" fill="#131212" transform="translate(0,0)"/>
<path d="" fill="#0E0E0D" transform="translate(0,0)"/>
<path d="" fill="#5A5B5B" transform="translate(0,0)"/>
<path d="" fill="#0A0A09" transform="translate(0,0)"/>
<path d="" fill="#0A0808" transform="translate(0,0)"/>
<path d="" fill="#0D0C0B" transform="translate(0,0)"/>
<path d="" fill="#0C0C0E" transform="translate(0,0)"/>
<path d="" fill="#090909" transform="translate(0,0)"/>
<path d="" fill="#090909" transform="translate(0,0)"/>
<path d="" fill="#090B0B" transform="translate(0,0)"/>
<path d="" fill="#0A0D0B" transform="translate(0,0)"/>
<path d="" fill="#080808" transform="translate(0,0)"/>
<path d="" fill="#0A0B09" transform="translate(0,0)"/>
<path d="" fill="#0B0A09" transform="translate(0,0)"/>
<path d="" fill="#080A07" transform="translate(0,0)"/>
<path d="" fill="#0D0B0A" transform="translate(0,0)"/>
<path d="" fill="#0B0B0A" transform="translate(0,0)"/>
<path d="" fill="#0F0F0F" transform="translate(0,0)"/>
<path d="" fill="#0D0C0B" transform="translate(0,0)"/>
<path d="" fill="#060607" transform="translate(0,0)"/>
<path d="" fill="#090809" transform="translate(0,0)"/>
<path d="" fill="#040706" transform="translate(0,0)"/>
<path d="" fill="#0D0C0D" transform="translate(0,0)"/>
<path d="" fill="#070906" transform="translate(0,0)"/>
<path d="" fill="#050707" transform="translate(0,0)"/>
<path d="" fill="#090A08" transform="translate(0,0)"/>
<path d="" fill="#0A0C0B" transform="translate(0,0)"/>
<path d="" fill="#050906" transform="translate(0,0)"/>
<path d="" fill="#090B08" transform="translate(0,0)"/>
<path d="" fill="#080806" transform="translate(0,0)"/>
<path d="" fill="#0A0A09" transform="translate(0,0)"/>
<path d="" fill="#0E0D0D" transform="translate(0,0)"/>
<path d="" fill="#080708" transform="translate(0,0)"/>
<path d="" fill="#090A09" transform="translate(0,0)"/>
<path d="" fill="#080708" transform="translate(0,0)"/>
<path d="" fill="#090A0A" transform="translate(0,0)"/>
<path d="" fill="#090908" transform="translate(0,0)"/>
<path d="" fill="#080709" transform="translate(0,0)"/>
<path d="" fill="#090808" transform="translate(0,0)"/>
<path d="" fill="#070907" transform="translate(0,0)"/>
<path d="" fill="#070707" transform="translate(0,0)"/>
<path d="" fill="#030705" transform="translate(0,0)"/>
<path d="" fill="#090807" transform="translate(0,0)"/>
<path d="" fill="#030403" transform="translate(0,0)"/>
<path d="" fill="#060706" transform="translate(0,0)"/>
<path d="" fill="#050506" transform="translate(0,0)"/>
<path d="" fill="#060505" transform="translate(0,0)"/>
<path d="" fill="#060505" transform="translate(0,0)"/>
<path d="" fill="#030305" transform="translate(0,0)"/>
<path d="" fill="#030103" transform="translate(0,0)"/>
<path d="" fill="#020202" transform="translate(0,0)"/>
<path d="" fill="#040302" transform="translate(0,0)"/>
<path d="" fill="#060503" transform="translate(0,0)"/>
<path d="" fill="#050705" transform="translate(0,0)"/>
<path d="" fill="#040403" transform="translate(0,0)"/>
<path d="" fill="#050503" transform="translate(0,0)"/>
<path d="" fill="#090907" transform="translate(0,0)"/>
<path d="" fill="#030303" transform="translate(0,0)"/>
<path d="" fill="#030200" transform="translate(0,0)"/>
<path d="" fill="#040303" transform="translate(0,0)"/>
<path d="" fill="#090608" transform="translate(0,0)"/>
<path d="" fill="#050504" transform="translate(0,0)"/>
<path d="" fill="#060404" transform="translate(0,0)"/>
<path d="" fill="#050405" transform="translate(0,0)"/>
<path d="" fill="#080909" transform="translate(0,0)"/>
<path d="" fill="#060503" transform="translate(0,0)"/>
<path d="" fill="#040307" transform="translate(0,0)"/>
<path d="" fill="#070807" transform="translate(0,0)"/>
<path d="" fill="#020402" transform="translate(0,0)"/>
<path d="" fill="#070907" transform="translate(0,0)"/>
<path d="" fill="#050504" transform="translate(0,0)"/>
<path d="" fill="#050604" transform="translate(0,0)"/>
<path d="" fill="#030403" transform="translate(0,0)"/>
<path d="" fill="#050505" transform="translate(0,0)"/>
<path d="" fill="#030604" transform="translate(0,0)"/>
<path d="" fill="#030303" transform="translate(0,0)"/>
<path d="" fill="#060504" transform="translate(0,0)"/>
<path d="" fill="#020403" transform="translate(0,0)"/>
<path d="" fill="#030303" transform="translate(0,0)"/>
<path d="" fill="#060404" transform="translate(0,0)"/>
<path d="" fill="#020200" transform="translate(0,0)"/>
<path d="" fill="#040505" transform="translate(0,0)"/>
<path d="" fill="#030405" transform="translate(0,0)"/>
<path d="" fill="#040303" transform="translate(0,0)"/>
<path d="" fill="#040303" transform="translate(0,0)"/>
<path d="" fill="#020203" transform="translate(0,0)"/>
<path d="" fill="#040304" transform="translate(0,0)"/>
<path d="" fill="#030404" transform="translate(0,0)"/>
<path d="" fill="#050503" transform="translate(0,0)"/>
<path d="" fill="#040202" transform="translate(0,0)"/>
<path d="" fill="#010404" transform="translate(0,0)"/>
<path d="" fill="#030202" transform="translate(0,0)"/>
<path d="" fill="#050404" transform="translate(0,0)"/>
<path d="" fill="#050504" transform="translate(0,0)"/>
<path d="" fill="#030302" transform="translate(0,0)"/>
<path d="" fill="#040303" transform="translate(0,0)"/>
<path d="" fill="#040303" transform="translate(0,0)"/>
<path d="" fill="#060505" transform="translate(0,0)"/>
<path d="" fill="#030403" transform="translate(0,0)"/>
<path d="" fill="#5E5E5D" transform="translate(0,0)"/>
<path d="" fill="#060605" transform="translate(0,0)"/>
<path d="" fill="#040403" transform="translate(0,0)"/>
<path d="" fill="#070605" transform="translate(0,0)"/>
<path d="" fill="#060605" transform="translate(0,0)"/>
<path d="" fill="#040303" transform="translate(0,0)"/>
<path d="" fill="#2E2E2E" transform="translate(0,0)"/>
<path d="" fill="#050605" transform="translate(0,0)"/>
<path d="" fill="#050806" transform="translate(0,0)"/>
<path d="" fill="#060506" transform="translate(0,0)"/>
<path d="" fill="#050505" transform="translate(0,0)"/>
<path d="" fill="#050405" transform="translate(0,0)"/>
<path d="" fill="#080807" transform="translate(0,0)"/>
<path d="" fill="#030303" transform="translate(0,0)"/>
<path d="" fill="#050402" transform="translate(0,0)"/>
<path d="" fill="#050402" transform="translate(0,0)"/>
<path d="" fill="#040304" transform="translate(0,0)"/>
<path d="" fill="#090808" transform="translate(0,0)"/>
<path d="" fill="#090A09" transform="translate(0,0)"/>
<path d="" fill="#070705" transform="translate(0,0)"/>
<path d="" fill="#090B08" transform="translate(0,0)"/>
<path d="" fill="#040605" transform="translate(0,0)"/>
<path d="" fill="#090809" transform="translate(0,0)"/>
<path d="" fill="#040604" transform="translate(0,0)"/>
<path d="" fill="#0D0D0A" transform="translate(0,0)"/>
<path d="" fill="#060907" transform="translate(0,0)"/>
<path d="" fill="#070605" transform="translate(0,0)"/>
<path d="" fill="#030301" transform="translate(0,0)"/>
<path d="" fill="#050405" transform="translate(0,0)"/>
<path d="" fill="#050504" transform="translate(0,0)"/>
<path d="" fill="#040403" transform="translate(0,0)"/>
<path d="" fill="#050605" transform="translate(0,0)"/>
<path d="" fill="#050403" transform="translate(0,0)"/>
<path d="" fill="#060605" transform="translate(0,0)"/>
<path d="" fill="#040301" transform="translate(0,0)"/>
<path d="" fill="#080907" transform="translate(0,0)"/>
<path d="" fill="#060607" transform="translate(0,0)"/>
<path d="" fill="#030504" transform="translate(0,0)"/>
<path d="" fill="#060406" transform="translate(0,0)"/>
<path d="" fill="#040405" transform="translate(0,0)"/>
<path d="" fill="#050406" transform="translate(0,0)"/>
<path d="" fill="#050503" transform="translate(0,0)"/>
<path d="" fill="#070506" transform="translate(0,0)"/>
<path d="" fill="#090A07" transform="translate(0,0)"/>
<path d="" fill="#070506" transform="translate(0,0)"/>
<path d="" fill="#060607" transform="translate(0,0)"/>
<path d="" fill="#060505" transform="translate(0,0)"/>
<path d="" fill="#020202" transform="translate(0,0)"/>
<path d="" fill="#020202" transform="translate(0,0)"/>
<path d="" fill="#040503" transform="translate(0,0)"/>
<path d="" fill="#030201" transform="translate(0,0)"/>
<path d="" fill="#060503" transform="translate(0,0)"/>
<path d="" fill="#030302" transform="translate(0,0)"/>
<path d="" fill="#060506" transform="translate(0,0)"/>
<path d="" fill="#040604" transform="translate(0,0)"/>
<path d="" fill="#070503" transform="translate(0,0)"/>
<path d="" fill="#060705" transform="translate(0,0)"/>
<path d="" fill="#030303" transform="translate(0,0)"/>
<path d="" fill="#040402" transform="translate(0,0)"/>
<path d="" fill="#030303" transform="translate(0,0)"/>
<path d="" fill="#080805" transform="translate(0,0)"/>
<path d="" fill="#060606" transform="translate(0,0)"/>
<path d="" fill="#030202" transform="translate(0,0)"/>
<path d="" fill="#070809" transform="translate(0,0)"/>
<path d="" fill="#040402" transform="translate(0,0)"/>
<path d="" fill="#080807" transform="translate(0,0)"/>
<path d="" fill="#040506" transform="translate(0,0)"/>
<path d="" fill="#060504" transform="translate(0,0)"/>
<path d="" fill="#050505" transform="translate(0,0)"/>
<path d="" fill="#040606" transform="translate(0,0)"/>
<path d="" fill="#080806" transform="translate(0,0)"/>
<path d="" fill="#050807" transform="translate(0,0)"/>
<path d="" fill="#010201" transform="translate(0,0)"/>
<path d="" fill="#080706" transform="translate(0,0)"/>
<path d="" fill="#0A0B0A" transform="translate(0,0)"/>
<path d="" fill="#040301" transform="translate(0,0)"/>
<path d="" fill="#030305" transform="translate(0,0)"/>
<path d="" fill="#070506" transform="translate(0,0)"/>
<path d="" fill="#060505" transform="translate(0,0)"/>
<path d="" fill="#040303" transform="translate(0,0)"/>
<path d="" fill="#090A0A" transform="translate(0,0)"/>
<path d="" fill="#050103" transform="translate(0,0)"/>
<path d="" fill="#030302" transform="translate(0,0)"/>
<path d="" fill="#060405" transform="translate(0,0)"/>
<path d="" fill="#020502" transform="translate(0,0)"/>
<path d="" fill="#010100" transform="translate(0,0)"/>
<path d="" fill="#0A0A09" transform="translate(0,0)"/>
<path d="" fill="#050503" transform="translate(0,0)"/>
<path d="" fill="#040303" transform="translate(0,0)"/>
<path d="" fill="#040403" transform="translate(0,0)"/>
<path d="" fill="#080907" transform="translate(0,0)"/>
<path d="" fill="#030403" transform="translate(0,0)"/>
<path d="" fill="#060602" transform="translate(0,0)"/>
<path d="" fill="#030301" transform="translate(0,0)"/>
<path d="" fill="#030402" transform="translate(0,0)"/>
<path d="" fill="#030302" transform="translate(0,0)"/>
<path d="" fill="#030303" transform="translate(0,0)"/>
<path d="" fill="#040304" transform="translate(0,0)"/>
<path d="" fill="#040201" transform="translate(0,0)"/>
<path d="" fill="#050404" transform="translate(0,0)"/>
<path d="" fill="#030305" transform="translate(0,0)"/>
<path d="" fill="#040304" transform="translate(0,0)"/>
<path d="" fill="#040303" transform="translate(0,0)"/>
<path d="" fill="#020202" transform="translate(0,0)"/>
<path d="" fill="#040301" transform="translate(0,0)"/>
<path d="" fill="#030305" transform="translate(0,0)"/>
<path d="" fill="#030302" transform="translate(0,0)"/>
<path d="" fill="#040405" transform="translate(0,0)"/>
<path d="" fill="#020302" transform="translate(0,0)"/>
<path d="" fill="#030302" transform="translate(0,0)"/>
<path d="" fill="#040304" transform="translate(0,0)"/>
<path d="" fill="#020403" transform="translate(0,0)"/>
<path d="" fill="#030402" transform="translate(0,0)"/>
<path d="" fill="#030403" transform="translate(0,0)"/>
<path d="" fill="#030605" transform="translate(0,0)"/>
<path d="" fill="#040303" transform="translate(0,0)"/>
<path d="" fill="#030301" transform="translate(0,0)"/>
<path d="" fill="#070707" transform="translate(0,0)"/>
<path d="" fill="#050504" transform="translate(0,0)"/>
<path d="" fill="#070908" transform="translate(0,0)"/>
<path d="" fill="#030505" transform="translate(0,0)"/>
<path d="" fill="#030303" transform="translate(0,0)"/>
<path d="" fill="#060303" transform="translate(0,0)"/>
<path d="" fill="#050605" transform="translate(0,0)"/>
<path d="" fill="#050402" transform="translate(0,0)"/>
<path d="" fill="#030402" transform="translate(0,0)"/>
<path d="" fill="#040706" transform="translate(0,0)"/>
<path d="" fill="#080807" transform="translate(0,0)"/>
<path d="" fill="#030402" transform="translate(0,0)"/>
<path d="" fill="#050908" transform="translate(0,0)"/>
<path d="" fill="#090807" transform="translate(0,0)"/>
<path d="" fill="#030403" transform="translate(0,0)"/>
<path d="" fill="#050405" transform="translate(0,0)"/>
<path d="" fill="#050806" transform="translate(0,0)"/>
<path d="" fill="#030402" transform="translate(0,0)"/>
<path d="" fill="#040504" transform="translate(0,0)"/>
<path d="" fill="#040303" transform="translate(0,0)"/>
<path d="" fill="#020203" transform="translate(0,0)"/>
<path d="" fill="#070706" transform="translate(0,0)"/>
<path d="" fill="#040404" transform="translate(0,0)"/>
<path d="" fill="#050604" transform="translate(0,0)"/>
<path d="" fill="#020302" transform="translate(0,0)"/>
<path d="" fill="#030302" transform="translate(0,0)"/>
<path d="" fill="#050404" transform="translate(0,0)"/>
<path d="" fill="#050704" transform="translate(0,0)"/>
<path d="" fill="#050403" transform="translate(0,0)"/>
<path d="" fill="#020401" transform="translate(0,0)"/>
<path d="" fill="#030302" transform="translate(0,0)"/>
<path d="" fill="#040605" transform="translate(0,0)"/>
<path d="" fill="#060705" transform="translate(0,0)"/>
<path d="" fill="#040302" transform="translate(0,0)"/>
<path d="" fill="#030203" transform="translate(0,0)"/>
<path d="" fill="#030303" transform="translate(0,0)"/>
<path d="" fill="#050404" transform="translate(0,0)"/>
<path d="" fill="#060405" transform="translate(0,0)"/>
<path d="" fill="#070503" transform="translate(0,0)"/>
<path d="" fill="#020301" transform="translate(0,0)"/>
<path d="" fill="#040503" transform="translate(0,0)"/>
<path d="" fill="#050201" transform="translate(0,0)"/>
<path d="" fill="#040405" transform="translate(0,0)"/>
<path d="" fill="#030403" transform="translate(0,0)"/>
<path d="" fill="#050303" transform="translate(0,0)"/>
<path d="" fill="#101010" transform="translate(0,0)"/>
<path d="" fill="#040503" transform="translate(0,0)"/>
<path d="" fill="#040605" transform="translate(0,0)"/>
<path d="" fill="#080505" transform="translate(0,0)"/>
<path d="" fill="#0C0D0D" transform="translate(0,0)"/>
<path d="" fill="#0E0F0E" transform="translate(0,0)"/>
<path d="" fill="#100F0F" transform="translate(0,0)"/>
<path d="" fill="#0E0D0E" transform="translate(0,0)"/>
<path d="" fill="#0F0F0D" transform="translate(0,0)"/>
<path d="" fill="#060606" transform="translate(0,0)"/>
<path d="" fill="#080908" transform="translate(0,0)"/>
<path d="" fill="#060705" transform="translate(0,0)"/>
<path d="" fill="#0C0908" transform="translate(0,0)"/>
<path d="" fill="#060606" transform="translate(0,0)"/>
<path d="" fill="#0A0908" transform="translate(0,0)"/>
<path d="" fill="#090808" transform="translate(0,0)"/>
<path d="" fill="#060907" transform="translate(0,0)"/>
<path d="" fill="#070706" transform="translate(0,0)"/>
<path d="" fill="#0D0C0B" transform="translate(0,0)"/>
<path d="" fill="#0A0B08" transform="translate(0,0)"/>
<path d="" fill="#0C0C0B" transform="translate(0,0)"/>
<path d="" fill="#0C0E0A" transform="translate(0,0)"/>
<path d="" fill="#090809" transform="translate(0,0)"/>
<path d="" fill="#0A0A08" transform="translate(0,0)"/>
<path d="" fill="#0A0C0C" transform="translate(0,0)"/>
<path d="" fill="#0F0D0A" transform="translate(0,0)"/>
<path d="" fill="#0A0A07" transform="translate(0,0)"/>
<path d="" fill="#070905" transform="translate(0,0)"/>
<path d="" fill="#070905" transform="translate(0,0)"/>
<path d="" fill="#060302" transform="translate(0,0)"/>
<path d="" fill="#060604" transform="translate(0,0)"/>
<path d="" fill="#040405" transform="translate(0,0)"/>
<path d="" fill="#040505" transform="translate(0,0)"/>
<path d="" fill="#010201" transform="translate(0,0)"/>
<path d="" fill="#040401" transform="translate(0,0)"/>
<path d="" fill="#040601" transform="translate(0,0)"/>
<path d="" fill="#333231" transform="translate(0,0)"/>
<path d="" fill="#050404" transform="translate(0,0)"/>
<path d="" fill="#070605" transform="translate(0,0)"/>
<path d="" fill="#040303" transform="translate(0,0)"/>
<path d="" fill="#050605" transform="translate(0,0)"/>
<path d="" fill="#060403" transform="translate(0,0)"/>
<path d="" fill="#050606" transform="translate(0,0)"/>
<path d="" fill="#040604" transform="translate(0,0)"/>
<path d="" fill="#0B0909" transform="translate(0,0)"/>
<path d="" fill="#0C0D0C" transform="translate(0,0)"/>
<path d="" fill="#0A0908" transform="translate(0,0)"/>
<path d="" fill="#060505" transform="translate(0,0)"/>
<path d="" fill="#050405" transform="translate(0,0)"/>
<path d="" fill="#0C0C0B" transform="translate(0,0)"/>
<path d="" fill="#0C0B0C" transform="translate(0,0)"/>
<path d="" fill="#0A0D0D" transform="translate(0,0)"/>
<path d="" fill="#0E0C0C" transform="translate(0,0)"/>
<path d="" fill="#0C0D0D" transform="translate(0,0)"/>
<path d="" fill="#0E0E0E" transform="translate(0,0)"/>
<path d="" fill="#0F0F0E" transform="translate(0,0)"/>
<path d="" fill="#0A0C0C" transform="translate(0,0)"/>
<path d="" fill="#100D0E" transform="translate(0,0)"/>
<path d="" fill="#0D100D" transform="translate(0,0)"/>
<path d="" fill="#101110" transform="translate(0,0)"/>
<path d="" fill="#111210" transform="translate(0,0)"/>
<path d="" fill="#131311" transform="translate(0,0)"/>
<path d="" fill="#0A0D09" transform="translate(0,0)"/>
<path d="" fill="#0F0F0E" transform="translate(0,0)"/>
<path d="" fill="#0B0A0A" transform="translate(0,0)"/>
<path d="" fill="#0D0B0B" transform="translate(0,0)"/>
<path d="" fill="#0C0B09" transform="translate(0,0)"/>
<path d="" fill="#0C0B0C" transform="translate(0,0)"/>
<path d="" fill="#0E0E0A" transform="translate(0,0)"/>
<path d="" fill="#0C0B0B" transform="translate(0,0)"/>
<path d="" fill="#070806" transform="translate(0,0)"/>
<path d="" fill="#0A0A08" transform="translate(0,0)"/>
<path d="" fill="#0C0D0E" transform="translate(0,0)"/>
<path d="" fill="#0F0F0D" transform="translate(0,0)"/>
<path d="" fill="#0C0909" transform="translate(0,0)"/>
<path d="" fill="#090A0A" transform="translate(0,0)"/>
<path d="" fill="#0D090A" transform="translate(0,0)"/>
<path d="" fill="#0D0D0D" transform="translate(0,0)"/>
<path d="" fill="#0B0B0A" transform="translate(0,0)"/>
<path d="" fill="#0D0C0B" transform="translate(0,0)"/>
<path d="" fill="#0A0A07" transform="translate(0,0)"/>
<path d="" fill="#0A0B0B" transform="translate(0,0)"/>
<path d="" fill="#0C0D0A" transform="translate(0,0)"/>
<path d="" fill="#080B09" transform="translate(0,0)"/>
<path d="" fill="#0D0F0C" transform="translate(0,0)"/>
<path d="" fill="#0A0909" transform="translate(0,0)"/>
<path d="" fill="#565556" transform="translate(0,0)"/>
<path d="" fill="#3C3D3B" transform="translate(0,0)"/>
<path d="" fill="#0D0C0A" transform="translate(0,0)"/>
<path d="" fill="#0C0B0B" transform="translate(0,0)"/>
<path d="" fill="#0D0E0D" transform="translate(0,0)"/>
<path d="" fill="#080708" transform="translate(0,0)"/>
<path d="" fill="#0C0C0A" transform="translate(0,0)"/>
<path d="" fill="#090A0A" transform="translate(0,0)"/>
<path d="" fill="#080809" transform="translate(0,0)"/>
<path d="" fill="#0B0D0A" transform="translate(0,0)"/>
<path d="" fill="#0C0C0C" transform="translate(0,0)"/>
<path d="" fill="#0C0B09" transform="translate(0,0)"/>
<path d="" fill="#0E0E0A" transform="translate(0,0)"/>
<path d="" fill="#060606" transform="translate(0,0)"/>
<path d="" fill="#0F0E0E" transform="translate(0,0)"/>
<path d="" fill="#0F110C" transform="translate(0,0)"/>
<path d="" fill="#110F0E" transform="translate(0,0)"/>
<path d="" fill="#0E0C0B" transform="translate(0,0)"/>
<path d="" fill="#080809" transform="translate(0,0)"/>
<path d="" fill="#0F0D0E" transform="translate(0,0)"/>
<path d="" fill="#0F0F0F" transform="translate(0,0)"/>
<path d="" fill="#110F0F" transform="translate(0,0)"/>
<path d="" fill="#0B0C0A" transform="translate(0,0)"/>
<path d="" fill="#0E100E" transform="translate(0,0)"/>
<path d="" fill="#0D100D" transform="translate(0,0)"/>
<path d="" fill="#0D0F0E" transform="translate(0,0)"/>
<path d="" fill="#767575" transform="translate(0,0)"/>
<path d="" fill="#716F71" transform="translate(0,0)"/>
<path d="" fill="#525050" transform="translate(0,0)"/>
<path d="" fill="#3F4140" transform="translate(0,0)"/>
<path d="" fill="#404040" transform="translate(0,0)"/>
<path d="" fill="#595858" transform="translate(0,0)"/>
<path d="" fill="#575758" transform="translate(0,0)"/>
</svg>
