<?xml version="1.0" encoding="UTF-8"?>
<svg version="1.1" xmlns="http://www.w3.org/2000/svg" width="1024" height="1024">
<path d="M0 0 C4.69611191 0.00864445 9.39222868 0.01111378 14.08834672 0.0145973 C25.3168714 0.02427074 36.54536925 0.04392341 47.77387768 0.06485805 C53.08773347 0.07452743 58.40159109 0.0830589 63.71544862 0.09170949 C81.40049772 0.12089203 99.08553959 0.15249878 116.77056909 0.19193017 C121.31928465 0.20204594 125.86800022 0.2121585 130.41671586 0.2222389 C132.11199093 0.22599921 132.11199093 0.22599921 133.84151398 0.22983549 C152.25804629 0.27021619 170.67455843 0.29324188 189.09112646 0.30921753 C208.06989035 0.32594867 227.04858241 0.35759222 246.02729714 0.40410155 C256.65632553 0.42978658 267.28527787 0.44897308 277.9143393 0.45147741 C286.93389508 0.45365406 295.95329827 0.46931478 304.97279443 0.5028099 C309.57123567 0.51947433 314.16945244 0.52964167 318.76792359 0.52250326 C322.97468693 0.51612433 327.18098226 0.52806582 331.3876624 0.55470816 C332.91010329 0.56110598 334.43259049 0.56074457 335.95502509 0.55299249 C338.02286928 0.54345076 340.08915004 0.55844203 342.15687585 0.57955682 C343.87979858 0.58264825 343.87979858 0.58264825 345.63752782 0.58580214 C350.60889911 1.37571404 354.43729069 4.17987609 357.62423539 8.02765882 C361.53006596 13.49582161 360.95238831 19.20916666 360.93084741 25.69427431 C360.93196497 27.1606204 360.93196497 27.1606204 360.93310511 28.65658966 C360.93441552 31.95199494 360.92857811 35.24734974 360.92284989 38.54274976 C360.92240432 40.92137327 360.92241591 43.29999689 360.92284691 45.6786204 C360.92283265 50.8604627 360.91978019 56.04229409 360.91410851 61.2241329 C360.90573692 68.92978415 360.90320542 76.63542935 360.90219004 84.34108472 C360.90169936 88.0132619 360.90100008 91.68543904 360.90024662 95.35761619 C360.90009479 96.09837293 360.89994296 96.83912967 360.89978653 97.60233358 C360.89856119 102.98235155 360.8962723 108.36236849 360.89349508 113.74238586 C360.88239896 135.42602699 360.88333328 157.10963822 360.89356042 178.79327962 C360.89471593 181.25335259 360.89583345 183.71342556 360.89693893 186.17349855 C360.90030398 193.65037814 360.90376663 201.12725769 360.90733 208.60413719 C360.91589861 226.58572412 360.92382662 244.56731109 360.92989945 262.54889905 C360.93034442 263.83899465 360.93034442 263.83899465 360.93079837 265.15515278 C360.9402732 293.0513817 360.92956516 320.94756269 360.90946927 348.84378447 C360.88893934 377.51956405 360.89151522 406.19525636 360.92215857 434.87102887 C360.92646787 438.9196242 360.9304983 442.96821976 360.93435121 447.01681554 C360.93549824 448.21202446 360.93549824 448.21202446 360.93666845 449.431379 C360.94827283 462.26220343 360.93523832 475.09289065 360.9128297 487.92369589 C360.89079652 500.81576366 360.89392816 513.70762746 360.92290874 526.59968332 C360.93934763 534.26117248 360.93620509 541.92207568 360.90517772 549.58352272 C360.88416146 555.30081719 360.89953175 561.01754848 360.92916261 566.73478343 C360.93544591 569.05037253 360.92982997 571.36602998 360.91127707 573.68155328 C360.88780505 576.82494458 360.90727565 579.96525369 360.93757653 583.10851991 C360.91197064 584.46341287 360.91197064 584.46341287 360.88584745 585.84567741 C361.00836623 591.95978115 362.70294272 595.00829079 366.97552418 599.36148597 C367.58147388 599.93194801 368.18742358 600.50241005 368.81173539 601.09015882 C369.72209713 601.98411888 369.72209713 601.98411888 370.65085001 602.89613875 C371.75992121 603.98483425 372.8709837 605.07150346 373.98361039 606.15656507 C376.88122453 609.22134926 379.38445445 612.58503774 381.91720414 615.95344007 C383.7948416 618.07110541 385.21169693 619.0466844 387.81173539 620.09015882 C387.81173539 620.75015882 387.81173539 621.41015882 387.81173539 622.09015882 C389.03674056 623.81121546 390.31938762 625.49132023 391.62423539 627.15265882 C401.4288507 639.94634194 409.70612302 653.63304012 416.81173539 668.09015882 C417.62577836 669.74144788 417.62577836 669.74144788 418.45626664 671.42609632 C421.89475913 678.92001398 424.33198512 686.63598317 426.68673539 694.52765882 C426.99756059 695.55898939 427.30838578 696.59031995 427.62862992 697.65290296 C431.1718611 709.9559561 431.1718611 709.9559561 428.37423539 716.40265882 C425.69377297 720.67585979 422.17201488 724.28285521 418.73751664 727.95344007 C416.77663227 729.93819001 416.77663227 729.93819001 415.81173539 732.09015882 C415.15173539 732.09015882 414.49173539 732.09015882 413.81173539 732.09015882 C413.56423539 732.66765882 413.31673539 733.24515882 413.06173539 733.84015882 C411.62873551 736.41955861 410.02748863 738.15137474 407.81173539 740.09015882 C407.15173539 740.09015882 406.49173539 740.09015882 405.81173539 740.09015882 C405.81173539 740.75015882 405.81173539 741.41015882 405.81173539 742.09015882 C404.26285037 743.50722384 402.64412005 744.84825378 400.99923539 746.15265882 C396.54487853 749.70046389 396.54487853 749.70046389 392.15939164 753.33234632 C384.77559449 759.57248767 376.9367854 764.8826907 368.81173539 770.09015882 C367.7972432 770.74629163 366.78275102 771.40242445 365.73751664 772.07844007 C322.95498073 799.09015882 322.95498073 799.09015882 310.81173539 799.09015882 C310.48173539 799.75015882 310.15173539 800.41015882 309.81173539 801.09015882 C306.82534734 802.18605066 303.84921424 803.15064576 300.81173539 804.09015882 C298.92990878 804.69569708 297.04811331 805.30133359 295.16680741 805.90848768 C240.18254077 823.60460129 183.33765664 835.14747101 125.6735518 839.49543226 C124.80649613 839.56149671 123.93944047 839.62756116 123.04611039 839.69562757 C122.29555375 839.74872083 121.54499711 839.80181409 120.77169633 839.85651624 C118.60048563 840.04851474 118.60048563 840.04851474 115.81173539 841.09015882 C114.21372151 841.13749892 112.61387497 841.13199435 111.01559281 841.09479749 C104.16312905 841.03330237 97.38226521 841.53342703 90.55001664 842.01594007 C73.36453011 843.17172309 56.1752985 843.7158604 38.95846391 844.15046155 C34.76989766 844.2563453 30.58172867 844.37353304 26.39354825 844.49361169 C23.10348456 844.58660969 19.81328006 844.67347252 16.52300286 844.75854909 C14.97740618 844.79927765 13.43185815 844.84190613 11.88637185 844.88662755 C4.2626099 845.10421591 -3.2330967 845.16397638 -10.82673812 844.33565748 C-14.24734379 843.98005948 -17.62388833 843.92713697 -21.06326461 843.87922132 C-22.5374782 843.85306654 -24.01168037 843.82626231 -25.48587203 843.79889905 C-26.25096084 843.78559553 -27.01604964 843.772292 -27.80432296 843.75858533 C-45.20409301 843.44162651 -62.5087304 842.4449647 -79.85818648 841.1062721 C-88.31509569 840.45907916 -96.69751262 839.83918272 -105.18826461 840.09015882 C-105.18826461 839.43015882 -105.18826461 838.77015882 -105.18826461 838.09015882 C-106.9246318 838.15203382 -106.9246318 838.15203382 -108.69607711 838.21515882 C-115.88275229 838.20398638 -122.96267831 837.0959257 -130.06326461 836.09015882 C-130.83448653 835.98200849 -131.60570846 835.87385816 -132.40030074 835.76243055 C-160.40928861 831.80315119 -188.29329529 826.78274043 -215.64627242 819.52839124 C-216.85509078 819.20846204 -218.06390914 818.88853284 -219.30935836 818.55890882 C-220.35535201 818.27467054 -221.40134566 817.99043226 -222.47903609 817.6975807 C-225.37603387 816.9443098 -225.37603387 816.9443098 -229.18826461 817.09015882 C-229.18826461 816.43015882 -229.18826461 815.77015882 -229.18826461 815.09015882 C-230.07856368 814.93450452 -230.07856368 814.93450452 -230.98684859 814.7757057 C-237.60500949 813.544899 -243.87892681 811.74628845 -250.25076461 809.59015882 C-251.26920455 809.24775159 -252.28764449 808.90534437 -253.33694625 808.55256116 C-261.34808125 805.81317923 -269.25425516 802.83168738 -277.12576461 799.71515882 C-278.21574752 799.28654554 -279.30573043 798.85793226 -280.42874312 798.4163307 C-281.43090865 798.0122096 -282.43307418 797.60808851 -283.46560836 797.19172132 C-284.7996672 796.65539075 -284.7996672 796.65539075 -286.16067672 796.10822523 C-288.18826461 795.09015882 -288.18826461 795.09015882 -289.18826461 793.09015882 C-290.84990808 792.73262582 -292.5176009 792.40284344 -294.18826461 792.09015882 C-296.35720992 791.13801038 -296.35720992 791.13801038 -298.51638961 789.98078382 C-299.31689742 789.5553932 -300.11740523 789.13000257 -300.94217086 788.69172132 C-302.17773726 788.02269788 -302.17773726 788.02269788 -303.43826461 787.34015882 C-304.65062789 786.69433851 -304.65062789 786.69433851 -305.88748336 786.03547132 C-308.32735035 784.7316064 -310.75922084 783.4140673 -313.18826461 782.09015882 C-313.98385787 781.65735609 -314.77945113 781.22455335 -315.59915328 780.77863538 C-325.54311632 775.31855239 -334.67805556 768.86227155 -343.59451461 761.87531507 C-345.98888721 759.99139169 -345.98888721 759.99139169 -348.40701461 759.58625257 C-349.28873336 759.34068616 -349.28873336 759.34068616 -350.18826461 759.09015882 C-350.89517884 757.77772044 -351.55667214 756.44045996 -352.18826461 755.09015882 C-353.57573931 753.74489937 -355.02189622 752.45924777 -356.50076461 751.21515882 C-380.30503698 730.27015506 -402.34560816 699.59531739 -405.18826461 667.09015882 C-405.38515972 661.08948286 -405.30710566 655.09163211 -405.18826461 649.09015882 C-405.84826461 649.09015882 -406.50826461 649.09015882 -407.18826461 649.09015882 C-405.99171369 642.08403833 -404.61761205 635.11442944 -403.18826461 628.15265882 C-403.02229781 627.32403333 -402.85633101 626.49540784 -402.68533492 625.64167249 C-402.43928512 624.45795057 -402.43928512 624.45795057 -402.18826461 623.25031507 C-402.04388961 622.54527845 -401.89951461 621.84024183 -401.75076461 621.11384046 C-401.140911 618.91979682 -400.25610122 617.09770179 -399.18826461 615.09015882 C-398.16027151 612.90601433 -397.14004481 610.71820501 -396.12576461 608.52765882 C-395.59853805 607.39199476 -395.07131148 606.2563307 -394.52810836 605.08625257 C-393.14608405 602.12796602 -393.14608405 602.12796602 -392.18826461 599.09015882 C-391.85826461 599.42015882 -391.52826461 599.75015882 -391.18826461 600.09015882 C-390.83377242 599.47011976 -390.47928023 598.8500807 -390.11404586 598.21125257 C-386.44251832 592.1038932 -382.36016459 586.70851611 -377.68826461 581.34015882 C-377.15499557 580.72712903 -376.62172652 580.11409925 -376.07229781 579.4824928 C-359.14184123 560.31871172 -338.21696053 546.64988724 -316.18826461 534.09015882 C-316.16126031 532.6319267 -316.14186674 531.17355207 -316.12576461 529.71515882 C-316.11416305 528.90304945 -316.10256148 528.09094007 -316.09060836 527.25422132 C-316.04360126 525.0407874 -316.04360126 525.0407874 -317.18826461 523.09015882 C-316.52826461 523.09015882 -315.86826461 523.09015882 -315.18826461 523.09015882 C-315.35052535 522.10950452 -315.51278609 521.12885023 -315.67996383 520.11847913 C-316.27313004 515.94682681 -316.33255747 511.84478448 -316.32107711 507.63703382 C-316.32203383 506.85499586 -316.32299056 506.07295789 -316.32397628 505.26722181 C-316.32465259 503.62681978 -316.32283688 501.98641499 -316.3186357 500.3460182 C-316.31325052 497.83358784 -316.31861411 495.32133389 -316.32498336 492.80890882 C-316.32432305 491.20995009 -316.32304285 489.61099148 -316.32107711 488.01203382 C-316.32310134 487.262021 -316.32512557 486.51200819 -316.32721114 485.73926771 C-316.31297458 482.58711904 -316.19266041 480.10334623 -315.18826461 477.09015882 C-315.84826461 477.09015882 -316.50826461 477.09015882 -317.18826461 477.09015882 C-317.18826461 476.43015882 -317.18826461 475.77015882 -317.18826461 475.09015882 C-316.52826461 475.09015882 -315.86826461 475.09015882 -315.18826461 475.09015882 C-315.22379439 474.43007825 -315.25932418 473.76999769 -315.29593062 473.08991468 C-315.45453834 470.06948366 -315.60273174 467.04862584 -315.75076461 464.02765882 C-315.83487594 462.47014905 -315.83487594 462.47014905 -315.92068648 460.88117445 C-316.17937085 455.44880267 -316.21234113 450.43811397 -315.18826461 445.09015882 C-315.84826461 444.76015882 -316.50826461 444.43015882 -317.18826461 444.09015882 C-316.52826461 444.09015882 -315.86826461 444.09015882 -315.18826461 444.09015882 C-315.18826461 440.13015882 -315.18826461 436.17015882 -315.18826461 432.09015882 C-315.84826461 431.76015882 -316.50826461 431.43015882 -317.18826461 431.09015882 C-316.52826461 431.09015882 -315.86826461 431.09015882 -315.18826461 431.09015882 C-315.29437057 429.96964124 -315.29437057 429.96964124 -315.40262008 428.82648695 C-316.12913749 420.44536164 -316.34398781 412.11742766 -316.3186357 403.71222913 C-316.31320017 401.56469875 -316.31865852 399.41737103 -316.32498336 397.26984632 C-316.32432366 395.88703336 -316.32304474 394.50422053 -316.32107711 393.12140882 C-316.31994918 391.8897096 -316.31882125 390.65801038 -316.31765914 389.38898695 C-316.20396718 386.49048549 -315.85978524 383.90427705 -315.18826461 381.09015882 C-315.84826461 381.09015882 -316.50826461 381.09015882 -317.18826461 381.09015882 C-317.68326461 379.60515882 -317.68326461 379.60515882 -318.18826461 378.09015882 C-317.52826461 377.43015882 -316.86826461 376.77015882 -316.18826461 376.09015882 C-315.89432622 373.09382051 -315.89432622 373.09382051 -315.96121383 369.52912366 C-315.96092177 368.85583524 -315.96062972 368.18254682 -315.96032882 367.48885572 C-315.96172413 365.25947228 -315.97729444 363.0304215 -315.99295211 360.80109632 C-315.99668153 359.25695959 -315.99952884 357.71282049 -316.00152755 356.16868055 C-316.00916961 352.10140439 -316.02882293 348.03427071 -316.05093551 343.96705091 C-316.07138165 339.81800232 -316.08052662 335.66893075 -316.09060836 331.51984632 C-316.11206836 323.37655171 -316.14621112 315.23337298 -316.18826461 307.09015882 C-316.84826461 306.76015882 -317.50826461 306.43015882 -318.18826461 306.09015882 C-317.19826461 306.09015882 -316.20826461 306.09015882 -315.18826461 306.09015882 C-315.37388961 304.81140882 -315.55951461 303.53265882 -315.75076461 302.21515882 C-316.31326461 298.34015882 -316.31326461 298.34015882 -315.18826461 296.09015882 C-315.84826461 295.76015882 -316.50826461 295.43015882 -317.18826461 295.09015882 C-317.06258101 294.18523695 -317.06258101 294.18523695 -316.93435836 293.26203382 C-316.83252242 292.46281507 -316.73068648 291.66359632 -316.62576461 290.84015882 C-316.52135055 290.05125257 -316.41693648 289.26234632 -316.30935836 288.44953382 C-316.07284624 286.1095908 -316.07284624 286.1095908 -316.72342086 283.98078382 C-317.39179099 281.26237086 -316.40365342 279.52093644 -315.18826461 277.09015882 C-316.17826461 276.76015882 -317.16826461 276.43015882 -318.18826461 276.09015882 C-317.52826461 275.43015882 -316.86826461 274.77015882 -316.18826461 274.09015882 C-315.90620176 271.03083287 -315.90620176 271.03083287 -316.00076461 267.59015882 C-316.00720992 266.42484632 -316.01365523 265.25953382 -316.02029586 264.05890882 C-315.98768522 261.1613388 -315.98768522 261.1613388 -317.18826461 259.09015882 C-316.52826461 259.09015882 -315.86826461 259.09015882 -315.18826461 259.09015882 C-315.93186134 253.53962596 -315.93186134 253.53962596 -317.18826461 248.09015882 C-316.52826461 248.09015882 -315.86826461 248.09015882 -315.18826461 248.09015882 C-316.17826461 245.61515882 -316.17826461 245.61515882 -317.18826461 243.09015882 C-316.52826461 243.09015882 -315.86826461 243.09015882 -315.18826461 243.09015882 C-315.35052535 242.09669446 -315.51278609 241.10323011 -315.67996383 240.07966077 C-316.24048647 236.13913098 -316.33292075 232.23343825 -316.32107711 228.25812757 C-316.32203383 227.54030607 -316.32299056 226.82248456 -316.32397628 226.0829109 C-316.32465193 224.57954797 -316.3228409 223.07618203 -316.3186357 221.57282484 C-316.31323894 219.26668823 -316.31862162 216.96074289 -316.32498336 214.65461195 C-316.32432324 213.18911672 -316.32304345 211.72362162 -316.32107711 210.25812757 C-316.32310134 209.56857481 -316.32512557 208.87902204 -316.32721114 208.16857374 C-316.30325426 203.32013813 -316.30325426 203.32013813 -315.18826461 201.09015882 C-315.84826461 201.09015882 -316.50826461 201.09015882 -317.18826461 201.09015882 C-317.00263961 200.51265882 -316.81701461 199.93515882 -316.62576461 199.34015882 C-316.14802914 196.88323357 -316.43097097 195.44618348 -317.18826461 193.09015882 C-316.52826461 193.09015882 -315.86826461 193.09015882 -315.18826461 193.09015882 C-315.18826461 191.44015882 -315.18826461 189.79015882 -315.18826461 188.09015882 C-315.84826461 187.76015882 -316.50826461 187.43015882 -317.18826461 187.09015882 C-316.52826461 187.09015882 -315.86826461 187.09015882 -315.18826461 187.09015882 C-315.18826461 185.11015882 -315.18826461 183.13015882 -315.18826461 181.09015882 C-315.84826461 180.76015882 -316.50826461 180.43015882 -317.18826461 180.09015882 C-316.52826461 180.09015882 -315.86826461 180.09015882 -315.18826461 180.09015882 C-315.35125045 179.12303968 -315.51423629 178.15592054 -315.68216109 177.15949476 C-316.30780845 172.75823701 -316.31428828 168.41916407 -316.28592086 163.98078382 C-316.28450591 163.13215772 -316.28309096 162.28353162 -316.28163314 161.40918958 C-316.27607537 158.71947549 -316.26354051 156.02984733 -316.25076461 153.34015882 C-316.24574327 151.51854546 -316.24118147 149.69693077 -316.23709273 147.87531507 C-316.22894627 144.5501025 -316.21829319 141.22492153 -316.20413375 137.89972913 C-316.19467849 135.62988589 -316.18826461 133.36002175 -316.18826461 131.09015882 C-315.54424299 109.43770793 -311.66277734 93.73492242 -295.34842086 78.35578382 C-291.59662135 75.09015882 -291.59662135 75.09015882 -289.18826461 75.09015882 C-288.85826461 74.43015882 -288.52826461 73.77015882 -288.18826461 73.09015882 C-281.0412821 69.8900174 -274.08664658 67.30032062 -266.18826461 68.09015882 C-265.85826461 67.43015882 -265.52826461 66.77015882 -265.18826461 66.09015882 C-264.52826461 66.42015882 -263.86826461 66.75015882 -263.18826461 67.09015882 C-261.07107688 66.99089136 -261.07107688 66.99089136 -258.75076461 66.65265882 C-255.07148742 66.17380726 -251.93310614 65.94752959 -248.25076461 66.65265882 C-245.34832995 67.26380114 -245.34832995 67.26380114 -243.18826461 66.59015882 C-241.18826461 66.09015882 -241.18826461 66.09015882 -238.25076461 66.59015882 C-235.15248045 67.09600113 -233.19712186 66.84237313 -230.18826461 66.09015882 C-229.52826461 66.09015882 -228.86826461 66.09015882 -228.18826461 66.09015882 C-228.18826461 66.75015882 -228.18826461 67.41015882 -228.18826461 68.09015882 C-227.31943648 67.93418226 -226.45060836 67.7782057 -225.55545211 67.61750257 C-224.40303023 67.42285413 -223.25060836 67.2282057 -222.06326461 67.02765882 C-220.92631148 66.83043226 -219.78935836 66.6332057 -218.61795211 66.43000257 C-215.18343933 66.08968069 -212.55971109 66.46766803 -209.18826461 67.09015882 C-206.50602398 67.04147875 -206.50602398 67.04147875 -203.93826461 66.71515882 C-203.08748336 66.62492445 -202.23670211 66.53469007 -201.36013961 66.44172132 C-199.1483534 66.19459748 -199.1483534 66.19459748 -197.18826461 65.09015882 C-197.18826461 66.08015882 -197.18826461 67.07015882 -197.18826461 68.09015882 C-196.15701461 67.71890882 -195.12576461 67.34765882 -194.06326461 66.96515882 C-189.85450506 66.01479376 -188.06662705 66.38746311 -184.18826461 68.09015882 C-183.85826461 67.43015882 -183.52826461 66.77015882 -183.18826461 66.09015882 C-182.19826461 66.09015882 -181.20826461 66.09015882 -180.18826461 66.09015882 C-180.18826461 66.75015882 -180.18826461 67.41015882 -180.18826461 68.09015882 C-176.4215892 67.84369073 -174.68514257 67.60949961 -172.02810836 64.83234632 C-171.0864482 63.41308851 -171.0864482 63.41308851 -170.12576461 61.96515882 C-169.1086943 60.47242445 -169.1086943 60.47242445 -168.07107711 58.94953382 C-167.44974898 58.00594007 -166.82842086 57.06234632 -166.18826461 56.09015882 C-157.5959691 43.55005187 -145.06776075 32.16584877 -132.18826461 24.09015882 C-131.09385055 23.38504163 -129.99943648 22.67992445 -128.87185836 21.95344007 C-115.23454116 13.34398543 -100.86301145 6.94210391 -85.18826461 3.09015882 C-83.9697046 2.75236266 -82.75114459 2.41456651 -81.49565852 2.0665341 C-77.35860444 1.03638305 -73.31142698 0.7469817 -69.05902457 0.67909181 C-68.29191552 0.65991034 -67.52480647 0.64072886 -66.7344517 0.62096613 C-64.21665191 0.56114902 -61.698836 0.51524708 -59.18072677 0.47048414 C-57.38790354 0.43269969 -55.59508622 0.39463431 -53.80227458 0.35630387 C-35.86881015 -0.00612668 -17.93636522 -0.03748311 0 0 Z " fill="#010101" transform="translate(497.1882646083832,94.90984117984772)"/>
<path d="M0 0 C2.24863677 0.00084794 4.49727436 0.00036788 6.74591064 -0.00132751 C12.80269548 -0.00218238 18.85929927 0.01536051 24.91604233 0.03639436 C31.26343601 0.05524651 37.6108346 0.0569183 43.95825195 0.06047058 C54.59655221 0.06871235 65.2347816 0.08740508 75.87304688 0.11425781 C86.82226232 0.1418664 97.77145982 0.16306652 108.72070312 0.17578125 C109.39753454 0.17656942 110.07436596 0.17735759 110.77170742 0.17816965 C114.1677454 0.18208524 117.56378351 0.18587625 120.9598217 0.18960536 C149.05789557 0.22061987 177.15589679 0.27360945 205.25390625 0.34057617 C202.15617833 3.50778584 198.95934906 6.09944215 195.37890625 8.71557617 C169.93536197 27.89732493 151.91049117 55.50280152 142.94140625 85.90307617 C142.57728638 87.12377808 142.57728638 87.12377808 142.20581055 88.36914062 C138.32150427 102.3001563 137.96062417 116.22085741 137.99320984 130.56739807 C137.99018356 132.47347743 137.98629171 134.37955557 137.98161727 136.2856316 C137.97139109 141.48490283 137.97350522 146.6841047 137.97779787 151.88338149 C137.9802747 157.50496949 137.97123943 163.12654121 137.96376038 168.74812317 C137.95104099 179.74308621 137.94921598 190.7380248 137.95156064 201.73299397 C137.95334591 210.66660768 137.9515897 219.600214 137.9473362 228.53382683 C137.94644341 230.44317905 137.94644341 230.44317905 137.94553259 232.39110405 C137.94432083 234.97710666 137.94310669 237.56310926 137.94189022 240.14911186 C137.93410987 257.49651949 137.93017932 274.84392223 137.93420696 292.19133091 C137.93436334 292.86870508 137.93451971 293.54607925 137.93468083 294.24397991 C137.93548656 297.67684241 137.93633233 301.1097049 137.93719413 304.54256738 C137.93736522 305.22429734 137.93753631 305.90602731 137.93771258 306.60841576 C137.93805923 307.98703233 137.93840776 309.36564889 137.93875817 310.74426546 C137.94412204 332.22243017 137.93616215 353.70055387 137.91772461 375.17871094 C137.89701692 399.32946145 137.88630999 423.48017885 137.8903001 447.63094085 C137.89221439 460.41215868 137.88970167 473.19333913 137.87558556 485.97455025 C137.86369916 496.84650999 137.86223653 507.71840929 137.87437572 518.59036983 C137.88028173 524.13846174 137.88131611 529.68644292 137.86937332 535.23452759 C137.85857434 540.31002431 137.86154607 545.38531704 137.87563501 550.46080398 C137.87829834 552.29961564 137.87586449 554.13844298 137.86789914 555.97723932 C137.85784046 558.47180727 137.86617411 560.96565957 137.87917614 563.4601984 C137.87186679 564.17814751 137.86455745 564.89609662 137.85702661 565.63580176 C137.90716392 570.25958883 138.83408275 573.40684874 141.25390625 577.34057617 C145.24456401 580.70980359 149.14536242 580.75451075 154.16015625 580.71166992 C155.72526235 580.72907495 157.29036647 580.74665903 158.85546875 580.7644043 C161.29268488 580.77439289 163.72975663 580.77809328 166.16699219 580.77636719 C181.19936468 580.79938532 194.73980618 582.40425546 206.18359375 593.15307617 C214.71382163 602.23246035 218.77733968 613.12152189 218.50390625 625.47729492 C217.59139588 635.92839031 213.18605872 647.1864578 205.25390625 654.34057617 C194.78826883 662.11457202 184.88247903 665.43244509 171.875 665.49829102 C170.80549606 665.50591209 170.80549606 665.50591209 169.71438599 665.51368713 C168.1757426 665.52433522 166.63708426 665.53297689 165.09841919 665.53980637 C162.65985211 665.55166715 160.22145647 665.57113573 157.78295898 665.59292603 C150.85308549 665.65431692 143.9232341 665.70860868 136.99316406 665.74194336 C132.74561012 665.76291887 128.49837723 665.79823647 124.25100708 665.84270096 C122.63717429 665.85682859 121.0232848 665.86557607 119.40939331 665.86875534 C117.15019201 665.8736792 114.89184029 665.89687102 112.6328125 665.92407227 C111.34963135 665.93215912 110.0664502 665.94024597 108.74438477 665.94857788 C104.32283561 666.44514009 100.8436408 667.74003211 97.67407227 670.93115234 C97.28920654 671.49294189 96.90434082 672.05473145 96.5078125 672.63354492 C96.06687256 673.2600293 95.62593262 673.88651367 95.17163086 674.53198242 C94.72440674 675.19069336 94.27718262 675.8494043 93.81640625 676.52807617 C92.85257227 677.8877908 91.88644022 679.24587949 90.91796875 680.60229492 C90.4580957 681.25117676 89.99822266 681.90005859 89.52441406 682.56860352 C81.75540522 693.40401208 72.32934299 700.2478971 59.25390625 703.34057617 C54.1685066 703.87038274 49.11207522 703.87969431 44.00537109 703.84228516 C42.5124511 703.84607755 41.01953464 703.85158513 39.52662659 703.85865784 C35.50804635 703.87250751 31.48989928 703.86151846 27.47134352 703.84494662 C23.24665031 703.83099628 19.02197972 703.83756729 14.79727173 703.84107971 C7.70787657 703.84377341 0.61865154 703.83037688 -6.47070312 703.80712891 C-14.6460315 703.78050391 -22.821076 703.77878175 -30.9964329 703.79051727 C-38.89123742 703.80132547 -46.78594009 703.79508549 -54.68073654 703.78096199 C-58.02738247 703.77523059 -61.37395318 703.77526226 -64.72060013 703.78002739 C-68.66556106 703.78482746 -72.61021418 703.77457129 -76.55511665 703.75307274 C-77.99576721 703.74754646 -79.4364476 703.74700094 -80.87709999 703.7520256 C-95.07687873 703.79531201 -106.27807883 701.20481106 -116.9375 691.30541992 C-121.55768603 686.32357549 -125.21126453 680.8019327 -128.7890625 675.03979492 C-132.01987878 670.58371897 -135.54891371 668.05298451 -140.74609375 666.34057617 C-143.91821006 666.04054376 -143.91821006 666.04054376 -147.33984375 666.06713867 C-148.61859375 666.04651367 -149.89734375 666.02588867 -151.21484375 666.00463867 C-153.87125176 665.97497975 -156.52695436 665.96049339 -159.18359375 665.94995117 C-172.63709283 665.70778819 -185.53014552 662.80085011 -195.7421875 653.52807617 C-205.56872624 643.04643485 -207.32521366 632.1907375 -207.078125 618.41088867 C-206.56509757 606.96383211 -201.00262298 598.94527415 -192.74609375 591.34057617 C-181.42799792 581.6869062 -167.9322579 580.76703022 -153.74609375 580.77807617 C-151.53069439 580.77445071 -149.31606811 580.76483679 -147.10083008 580.73731995 C-145.11291891 580.71309365 -143.12477721 580.71060452 -141.13671875 580.70947266 C-136.69071448 580.225752 -134.24564335 578.85815926 -131.12996912 575.70501614 C-129.22039178 572.44238058 -129.33307273 569.45666574 -129.36971283 565.7827301 C-129.36546171 565.01420825 -129.3612106 564.24568641 -129.35683066 563.45387602 C-129.34617227 560.86327865 -129.35697495 558.27320866 -129.36755371 555.68261719 C-129.36426465 553.81250715 -129.35965226 551.94239904 -129.35382605 550.07229519 C-129.34157409 544.92077261 -129.34799923 539.76941382 -129.35733104 534.61789131 C-129.36411027 529.06604932 -129.35360318 523.51423809 -129.345047 517.96240234 C-129.33246072 508.33479547 -129.33051453 498.7072335 -129.33540344 489.07962036 C-129.34220547 475.13784189 -129.32970339 461.19613121 -129.31189626 447.25436485 C-129.2832191 424.60732244 -129.26569034 401.96028964 -129.25732422 379.31323242 C-129.25694336 378.29638011 -129.25694336 378.29638011 -129.2565548 377.25898533 C-129.25270663 366.95284906 -129.24934722 356.64671264 -129.24609375 346.34057617 C-129.24263157 335.37833648 -129.23898396 324.41609689 -129.23486328 313.45385742 C-129.23448785 312.44120423 -129.23448785 312.44120423 -129.23410483 311.40809341 C-129.22541854 288.18494564 -129.20498209 264.96182408 -129.17538118 241.73869228 C-129.15823511 227.8424311 -129.15160122 213.94624087 -129.15868723 200.04997051 C-129.16288091 190.51300407 -129.15647063 180.9760822 -129.1418885 171.43912613 C-129.13386529 165.94406043 -129.13066022 160.44910538 -129.14071083 154.95404053 C-129.14985868 149.9100604 -129.14494782 144.86628472 -129.1294964 139.82232177 C-129.12634099 138.01052438 -129.12810306 136.19870923 -129.13566178 134.38692486 C-129.28510777 95.77154283 -117.40930328 61.07344711 -89.99609375 33.15307617 C-64.87227799 8.28176107 -34.65682162 -0.18471123 0 0 Z " fill="#5BCEED" transform="translate(456.74609375,126.659423828125)"/>
<path d="M0 0 C61.05 0 122.1 0 185 0 C185 155.43 185 310.86 185 471 C181.67961472 469.67184589 179.24718471 468.66485288 176.34765625 466.8203125 C175.66582275 466.39242432 174.98398926 465.96453613 174.28149414 465.52368164 C173.54922607 465.0621167 172.81695801 464.60055176 172.0625 464.125 C144.84280152 447.30979613 116.19221096 434.51993413 86 424 C85.02015137 423.65517578 84.04030273 423.31035156 83.03076172 422.95507812 C52.78663093 412.42735016 20.62655218 404.41932748 -11.17773438 400.47413635 C-12.43908203 400.31767136 -13.70042969 400.16120636 -15 400 C-15.09167227 355.09853353 -15.16209791 310.19707701 -15.20426132 265.29553531 C-15.20926379 259.98746935 -15.21444112 254.67940357 -15.21972656 249.37133789 C-15.2207758 248.31465354 -15.22182505 247.2579692 -15.22290608 246.16926412 C-15.24028362 229.08780843 -15.27180663 212.0064069 -15.30861118 194.92498329 C-15.34609452 177.3814524 -15.36825145 159.83794977 -15.37635398 142.29438049 C-15.38182645 131.48003067 -15.39907403 120.66583401 -15.43166587 109.85153136 C-15.45290514 102.42308754 -15.45917887 94.99472222 -15.45400551 87.56625029 C-15.45145829 83.28845375 -15.45520032 79.01092372 -15.4768219 74.73317528 C-15.60923788 47.13281834 -12.50668596 25.01337191 0 0 Z " fill="#F2CFA4" transform="translate(641,194)"/>
<path d="M0 0 C8.00858679 0.66738223 15.50607495 1.45997204 23.3125 3.0625 C24.37952148 3.28091553 25.44654297 3.49933105 26.54589844 3.72436523 C61.47449985 11.06017518 96.51429704 21.08033142 129 36 C130.15435547 36.52851562 131.30871094 37.05703125 132.49804688 37.6015625 C174.36565513 56.87957077 213.68826191 83.10468103 241 121 C241.39477539 121.53931152 241.78955078 122.07862305 242.19628906 122.63427734 C250.57207343 134.12254455 257.28612188 146.2829268 263.4375 159.0625 C263.87505615 159.96742188 264.3126123 160.87234375 264.76342773 161.8046875 C265.37359741 163.09439453 265.37359741 163.09439453 265.99609375 164.41015625 C266.35888428 165.17465088 266.7216748 165.93914551 267.09545898 166.72680664 C268.0632902 169.159054 268.64723783 171.40689818 269 174 C268.05859375 175.74609375 268.05859375 175.74609375 266.4375 177.4375 C265.78910156 178.11941406 265.14070312 178.80132813 264.47265625 179.50390625 C263.65667969 180.32761719 262.84070313 181.15132812 262 182 C260.95638937 183.09183475 259.91347143 184.18433184 258.87109375 185.27734375 C229.59786567 215.61945593 189.4327809 235.46337372 150 249 C149.0085498 249.34369629 148.01709961 249.68739258 146.99560547 250.04150391 C118.66781926 259.7670577 89.41597376 265.67669343 60 271 C58.71416016 271.23460937 57.42832031 271.46921875 56.10351562 271.7109375 C19.54987851 278.24867375 -17.92045858 281.38616538 -55 283 C-56.2571582 283.05639648 -57.51431641 283.11279297 -58.80957031 283.17089844 C-119.0225013 285.70791797 -180.1263161 285.27132023 -240 278 C-240.69430115 277.91598938 -241.38860229 277.83197876 -242.10394287 277.74542236 C-301.69644908 270.49605869 -363.56198937 259.67839904 -417 231 C-418.25396655 230.35824487 -419.50920007 229.71895992 -420.765625 229.08203125 C-437.91612607 220.30208402 -452.89197458 209.10202022 -467 196 C-467.60457031 195.44957031 -468.20914063 194.89914062 -468.83203125 194.33203125 C-488.7040126 175.48389906 -501.60717195 149.40082551 -502.4375 122 C-501.86339979 97.5528994 -488.95883579 77.89034888 -471.72265625 61.3828125 C-436.90746581 29.12662508 -386.62498498 13.31543525 -341.25 2.875 C-339.94881226 2.57493042 -339.94881226 2.57493042 -338.62133789 2.26879883 C-334.14814017 1.29467591 -330.72140804 1 -326 1 C-326 18.16 -326 35.32 -326 53 C-333.92 53.495 -333.92 53.495 -342 54 C-362.08016888 57.0464204 -380.41294708 66.603666 -392.93359375 82.8828125 C-396.95065451 88.94257524 -400.12900504 95.32968588 -403 102 C-403.38414062 102.88945313 -403.76828125 103.77890625 -404.1640625 104.6953125 C-410.1456021 122.0809089 -406.11297099 143.10603457 -398.4375 159.25 C-394.49929693 167.01887197 -389.23920237 172.99748968 -383 179 C-382.42894531 179.59039063 -381.85789062 180.18078125 -381.26953125 180.7890625 C-373.14507442 188.60023694 -360.97307487 193.97600296 -350 196 C-348.99839844 196.18949219 -347.99679687 196.37898437 -346.96484375 196.57421875 C-343.59432096 196.93617637 -340.50629554 197.00074841 -337.12890625 196.9296875 C-319.89549733 196.67817147 -319.89549733 196.67817147 -314.90234375 200.16015625 C-312.94758812 203.01401919 -311.48269894 205.87831763 -310 209 C-298.590264 224.46500362 -280.5985502 232.81709062 -262 236 C-256.89520486 236.40288325 -251.8063877 236.43206436 -246.68896484 236.41992188 C-245.20064669 236.4272822 -243.7123342 236.43587405 -242.22402954 236.44558716 C-238.21946758 236.46761129 -234.21511253 236.47074335 -230.21049833 236.46883965 C-226.8464844 236.468719 -223.48251283 236.47732171 -220.11851084 236.48561716 C-212.16800778 236.5047845 -204.21760967 236.50776031 -196.26708984 236.50097656 C-188.11624841 236.49434862 -179.96586097 236.51716516 -171.81511152 236.55429029 C-164.77339561 236.58517805 -157.73182426 236.59632661 -150.69004214 236.59245348 C-146.50378686 236.59040467 -142.31788476 236.59557024 -138.13169479 236.62034607 C-111.59438937 236.76496438 -86.48440458 235.52106043 -66.15698242 216.36669922 C-60.29190351 210.5388621 -55.5759721 203.86395816 -51 197 C-48.08906555 196.62818909 -48.08906555 196.62818909 -44.30981445 196.63110352 C-43.62160614 196.62733704 -42.93339783 196.62357056 -42.22433472 196.61968994 C-40.72547582 196.61324375 -39.22657607 196.61360035 -37.72771645 196.61987495 C-35.34141084 196.62898979 -32.95589072 196.6187511 -30.56962585 196.60325623 C-23.78332827 196.5632095 -16.99708945 196.56192839 -10.21069336 196.56420898 C-6.05847559 196.56426067 -1.90667183 196.54479033 2.2454319 196.51487541 C4.57119598 196.50420681 6.89611251 196.51609644 9.22184753 196.52870178 C29.745133 196.47749368 47.14964647 189.46015877 62 175 C75.41820527 160.05259317 81.86316119 141.90788977 81.33984375 121.8125 C79.65052759 102.86109107 71.6127637 87.07650332 58 74 C57.41734375 73.40960937 56.8346875 72.81921875 56.234375 72.2109375 C40.84244438 57.67411413 20.23912167 54.44565155 0 53 C0 35.51 0 18.02 0 0 Z " fill="#5BB87A" transform="translate(625,624)"/>
<path d="M0 0 C1.1276326 -0.00043808 1.1276326 -0.00043808 2.27804565 -0.00088501 C4.75083147 0.00050293 7.22331205 0.01603867 9.69604492 0.03173828 C11.4152561 0.03547032 13.13446941 0.03831639 14.85368347 0.04031372 C19.36971958 0.04793514 23.88562623 0.0675708 28.40161133 0.08972168 C33.01340992 0.11021225 37.62522951 0.1193223 42.23706055 0.12939453 C51.27943501 0.15081812 60.32171356 0.18493605 69.36401367 0.22705078 C68.6979691 5.12463042 67.76848255 9.76385881 66.48901367 14.53955078 C61.48844885 34.36336386 60.91309434 53.35117165 60.93127382 73.66716528 C60.93190357 78.05955723 60.91522303 82.45189007 60.90075684 86.84425354 C60.8780747 94.434683 60.86610378 102.02506689 60.86162758 109.61552811 C60.85514011 120.58974183 60.83215739 131.56387354 60.80528428 142.53805403 C60.76211523 160.34746064 60.7320922 178.15686377 60.71044922 195.96630859 C60.68940981 213.25571396 60.66210896 230.54509096 60.62646484 247.83447266 C60.62426602 248.90207505 60.62206719 249.96967744 60.61980174 251.06963141 C60.60873135 256.42604179 60.59753868 261.7824519 60.58628523 267.13886189 C60.4932402 311.50156648 60.42157749 355.86428691 60.36401367 400.22705078 C59.24091907 400.44114578 59.24091907 400.44114578 58.09513569 400.65956593 C54.67256066 401.3127374 51.25034132 401.96775455 47.828125 402.62280273 C46.6502668 402.84730354 45.4724086 403.07180435 44.25885773 403.30310822 C36.46010502 404.79762068 28.73061585 406.38409364 21.05151367 408.41455078 C19.4340625 408.83522827 19.4340625 408.83522827 17.78393555 409.2644043 C7.5401501 412.01687129 -2.45779011 415.43913864 -12.43408203 419.02661133 C-13.59383545 419.44209229 -14.75358887 419.85757324 -15.94848633 420.28564453 C-16.97586914 420.66003662 -18.00325195 421.03442871 -19.06176758 421.42016602 C-21.63598633 422.22705078 -21.63598633 422.22705078 -24.63598633 422.22705078 C-24.72751497 370.64124342 -24.7980114 319.05544425 -24.84024765 267.46957168 C-24.84525055 261.38124427 -24.85042783 255.29291702 -24.85571289 249.20458984 C-24.85676213 247.99249873 -24.85781137 246.78040762 -24.85889241 245.53158647 C-24.87630401 225.8981253 -24.90784587 206.26471091 -24.94459751 186.6312775 C-24.9819859 166.48990077 -25.00421774 146.34854855 -25.01234031 126.20713854 C-25.01783243 113.77591256 -25.03518725 101.34481881 -25.0676522 88.91363353 C-25.08877411 80.3924498 -25.09519163 71.87133457 -25.08999184 63.35012656 C-25.08742646 58.43169757 -25.09139615 53.51349986 -25.11280823 48.59511185 C-25.13226994 44.09187445 -25.13325878 39.58902395 -25.11958191 35.08576876 C-25.11789148 33.45709644 -25.12296894 31.8284 -25.13551906 30.19977516 C-25.26042473 12.9893949 -25.26042473 12.9893949 -18.67114258 6.20361328 C-18.02016602 5.75759766 -17.36918945 5.31158203 -16.69848633 4.85205078 C-16.05008789 4.39056641 -15.40168945 3.92908203 -14.73364258 3.45361328 C-9.81747329 0.5789817 -5.63661721 -0.05773309 0 0 Z " fill="#F2CFA4" transform="translate(238.635986328125,193.77294921875)"/>
<path d="M0 0 C5.68391696 4.84804682 5.68391696 4.84804682 6.546875 8.69140625 C6.97051252 15.45783892 4.9954934 21.8253495 3.08032227 28.24462891 C-0.81287766 41.67467071 -1.16833842 55.18097043 -1.13328552 69.04553223 C-1.13614627 70.84365412 -1.13988757 72.6417748 -1.14442402 74.43989325 C-1.15433111 79.340794 -1.15205146 84.24162256 -1.14769709 89.14252853 C-1.14520738 94.44307024 -1.15430607 99.7435936 -1.16207886 105.04412842 C-1.17408981 114.2159304 -1.17922996 123.38771505 -1.17996025 132.55952454 C-1.18128888 145.82784931 -1.19642553 159.09613213 -1.21545542 172.36444205 C-1.2462538 193.90441451 -1.27044169 215.44438803 -1.28833008 236.984375 C-1.28940276 238.27198312 -1.29047544 239.55959123 -1.29158062 240.88621777 C-1.30341063 255.26423213 -1.31361651 269.64224691 -1.32202148 284.02026367 C-1.32509578 289.24137371 -1.3281845 294.46248374 -1.33129883 299.68359375 C-1.33206417 300.97205116 -1.33282951 302.26050856 -1.33361804 303.58801013 C-1.34669217 325.05990216 -1.37131675 346.53176362 -1.40504223 368.00363302 C-1.42533915 381.24270805 -1.43562067 394.48171775 -1.43305302 407.72080845 C-1.43201921 416.7833548 -1.44163459 425.84584941 -1.45969205 434.90837771 C-1.46975013 440.13862343 -1.47485089 445.36875467 -1.46692467 450.59900665 C-1.45975724 455.38528558 -1.46630264 460.17134126 -1.48381007 464.95759171 C-1.4876989 466.69009244 -1.48650622 468.42261348 -1.47975319 470.15510541 C-1.47130561 472.50871509 -1.48128026 474.86156223 -1.49582577 477.21512604 C-1.49664022 478.52272589 -1.49745468 479.83032575 -1.49829382 481.17754984 C-2.11687559 487.14642964 -4.10501195 491.93688471 -8.875 495.8125 C-13.67425166 497.41225055 -18.34178963 497.78815788 -23.13671875 495.94140625 C-28.0681533 493.16120747 -30.12956561 490.22550604 -31.875 484.8125 C-32.24989682 481.19497657 -32.24989682 481.19497657 -32.24973011 477.25753403 C-32.25379084 476.52577202 -32.25785156 475.79401001 -32.26203534 475.04007339 C-32.27196636 472.59257977 -32.26056198 470.14566174 -32.2492218 467.69818115 C-32.25196295 465.92376475 -32.25601551 464.14934996 -32.26126546 462.3749392 C-32.27185421 457.50189267 -32.26372182 452.62902953 -32.25251496 447.75599098 C-32.2436752 442.49870634 -32.25211613 437.24144576 -32.25837708 431.98416138 C-32.26787077 421.68289781 -32.26125884 411.38170424 -32.24911413 401.08044586 C-32.23548847 389.07483643 -32.23713271 377.06924366 -32.23924746 365.06362846 C-32.24243862 343.62834213 -32.23076568 322.19308899 -32.21118164 300.7578125 C-32.19220557 279.98241157 -32.1850865 259.2070496 -32.19067383 238.43164062 C-32.1967423 215.80032946 -32.19653281 193.16903544 -32.185188 170.53772569 C-32.18398076 168.12022543 -32.18277477 165.70272517 -32.18157005 163.28522491 C-32.18066475 161.50118913 -32.18066475 161.50118913 -32.17974115 159.68111221 C-32.17587217 151.32475714 -32.17625178 142.96840846 -32.1781559 134.61205292 C-32.18028619 124.41038209 -32.17499176 114.20874526 -32.16054235 104.00708398 C-32.15333566 98.80783233 -32.14918909 93.60863001 -32.15378571 88.40937424 C-32.15790196 83.63699655 -32.1525851 78.8647201 -32.14015963 74.09235767 C-32.13726363 72.37824526 -32.13761698 70.66412311 -32.14180271 68.95001337 C-32.17510892 53.93090043 -31.75275717 38.41173834 -27.625 23.875 C-27.41029053 23.09632568 -27.19558105 22.31765137 -26.97436523 21.51538086 C-24.69141484 13.61135018 -22.03642374 5.97392374 -16.125 0.0625 C-10.68949228 -2.02807989 -5.4188915 -2.2382378 0 0 Z " fill="#000202" transform="translate(529.875,190.1875)"/>
<path d="M0 0 C3.27459047 1.60857076 5.14391724 2.91044012 7.375 5.75 C9.33086166 12.79110198 7.36006644 19.00828981 5.125 25.6875 C1.24402111 37.33972131 -0.30686168 48.75676319 -0.2515564 61.02546692 C-0.25452654 62.16207392 -0.25749667 63.29868092 -0.26055682 64.46973056 C-0.26813207 68.2387437 -0.26172964 72.007598 -0.25537109 75.77661133 C-0.25699645 78.4945818 -0.26168795 81.21254472 -0.26634216 83.93051147 C-0.27493561 89.76342908 -0.27679298 95.59631637 -0.27439499 101.42923927 C-0.27128487 109.87116929 -0.28297881 118.31303285 -0.29894479 126.75494608 C-0.32484873 140.46610068 -0.34489932 154.17725533 -0.35839844 167.88842773 C-0.35920881 168.70737802 -0.36001918 169.52632831 -0.3608541 170.37009528 C-0.37208865 182.00578568 -0.37736057 193.64147129 -0.38024123 205.27716639 C-0.38044522 206.09763263 -0.38064921 206.91809888 -0.38085938 207.76342773 C-0.38115928 208.99261645 -0.38115928 208.99261645 -0.38146524 210.24663726 C-0.38519919 223.91575377 -0.40428612 237.58479768 -0.43595374 251.25387782 C-0.4548475 259.67454247 -0.46084279 268.09502079 -0.45013656 276.51570078 C-0.44381381 282.28208576 -0.45186813 288.04833705 -0.47119068 293.81469271 C-0.48186188 297.13942152 -0.48385333 300.46355623 -0.47271919 303.78832436 C-0.46161237 307.39567974 -0.47501427 311.00215004 -0.49447632 314.60945129 C-0.48535166 315.65507368 -0.476227 316.70069607 -0.46682584 317.77800399 C-0.54673943 325.38907014 -2.20706762 330.61462742 -7.0625 336.5 C-11.63636323 338.83558973 -15.97257492 338.73085915 -21 338 C-25.52427549 335.81865289 -27.81003914 333.49518283 -30 329 C-30.95231497 326.1430551 -31.12608441 324.38027359 -31.12863445 321.41759396 C-31.1318589 320.4717544 -31.13508335 319.52591484 -31.1384055 318.55141348 C-31.1368569 317.51020127 -31.1353083 316.46898907 -31.13371277 315.39622498 C-31.13597833 314.29155209 -31.13824388 313.18687921 -31.14057809 312.04873139 C-31.14693493 308.32731761 -31.14608762 304.6059401 -31.14526367 300.88452148 C-31.14825433 298.22366193 -31.15162824 295.56280527 -31.15544128 292.90194702 C-31.16375772 286.40920664 -31.16649668 279.91647533 -31.16705366 273.42373007 C-31.1675289 268.13934333 -31.16958407 262.85495959 -31.17275429 257.57057381 C-31.18156804 242.57233341 -31.18617321 227.57410016 -31.18542381 212.57585716 C-31.18538386 211.76683259 -31.1853439 210.95780803 -31.18530273 210.12426758 C-31.18526185 209.31424784 -31.18522097 208.5042281 -31.18517885 207.6696623 C-31.18477346 194.57758492 -31.19431404 181.48553645 -31.2084411 168.39346742 C-31.22284823 154.93483578 -31.22970872 141.47621819 -31.22884732 128.01757866 C-31.22851657 120.46835077 -31.23120934 112.91915309 -31.24202538 105.36993217 C-31.25118817 98.93331881 -31.25325914 92.4967493 -31.24651595 86.0601322 C-31.24327796 82.78299017 -31.24420693 79.50594833 -31.2518692 76.22881126 C-31.37658868 19.15030783 -31.37658868 19.15030783 -14.75 2.125 C-10.31121573 -1.12142461 -5.23544084 -0.93039461 0 0 Z " fill="#000203" transform="translate(420,190)"/>
<path d="M0 0 C1.7917393 0.00561412 3.58348328 0.00987559 5.37522888 0.01286316 C10.02925954 0.0241693 14.68299707 0.05350886 19.33691406 0.0869751 C24.95395604 0.1234666 30.57109753 0.1369051 36.18822479 0.15433502 C44.66604994 0.18315877 53.14323543 0.24074375 61.62109375 0.29296875 C61.62109375 12.50296875 61.62109375 24.71296875 61.62109375 37.29296875 C9.48109375 37.29296875 -42.65890625 37.29296875 -96.37890625 37.29296875 C-92.63013207 32.79443973 -89.60516556 29.64369179 -84.94140625 26.41796875 C-84.33232422 25.99161133 -83.72324219 25.56525391 -83.09570312 25.12597656 C-57.68004447 7.6118973 -30.60158117 -0.28722252 0 0 Z " fill="#F1CFA5" transform="translate(764.37890625,126.70703125)"/>
<path d="M0 0 C4.62198193 1.80860162 6.53616693 4.77628616 9 9 C9.90747153 11.72241458 10.13502265 13.357531 10.16113281 16.16088867 C10.17074036 16.99573288 10.1803479 17.83057709 10.19024658 18.6907196 C10.19449646 19.59071182 10.19874634 20.49070404 10.203125 21.41796875 C10.20882507 22.34918045 10.21452515 23.28039215 10.22039795 24.23982239 C10.22984662 26.2126858 10.2363814 28.18556499 10.24023438 30.15844727 C10.24990699 33.1586514 10.28091801 36.15816072 10.3125 39.15820312 C10.31903371 41.07812095 10.32428273 42.99804366 10.328125 44.91796875 C10.3404718 45.80783981 10.3528186 46.69771088 10.36553955 47.61454773 C10.34144387 54.44401624 9.52784498 60.40733848 4.5625 65.5 C-0.67826451 67.70663769 -5.40442526 67.98877626 -11 67 C-15.00503685 64.98018867 -17.3146606 62.61833302 -19.06274414 58.49047852 C-20.26530091 54.01198042 -20.3055213 49.87036977 -20.30078125 45.25390625 C-20.30506638 44.32456772 -20.3093515 43.39522919 -20.31376648 42.43772888 C-20.31949154 40.47859509 -20.32002353 38.51944006 -20.31567383 36.56030273 C-20.31251391 33.57563765 -20.33599579 30.59196462 -20.36132812 27.60742188 C-20.36360143 25.69791791 -20.36430447 23.7884113 -20.36328125 21.87890625 C-20.372491 20.99328506 -20.38170074 20.10766388 -20.39118958 19.19520569 C-20.35050932 13.70264757 -19.62371158 9.85662431 -17 5 C-11.4720414 -0.12347383 -7.34509292 -0.6265956 0 0 Z " fill="#000202" transform="translate(409,586)"/>
<path d="M0 0 C0.33 0 0.66 0 1 0 C1 118.47 1 236.94 1 359 C-1.31 359 -3.62 359 -6 359 C-4.68 358.34 -3.36 357.68 -2 357 C-1.99739563 355.9043336 -1.99739563 355.9043336 -1.99473864 354.78653252 C-1.8916973 311.4888087 -1.78358202 268.19110009 -1.66888306 224.8934055 C-1.65511358 219.69391106 -1.64138647 214.4944165 -1.62768555 209.29492188 C-1.62495724 208.25980165 -1.62222894 207.22468143 -1.61941796 206.15819393 C-1.57535007 189.40048584 -1.53471395 172.6427711 -1.49534739 155.88505138 C-1.45487342 138.68846421 -1.41070848 121.49188937 -1.36312145 104.29532039 C-1.333877 93.68523423 -1.30750711 83.07514893 -1.28482103 72.46504669 C-1.26898579 65.18805259 -1.24956345 57.91107356 -1.22733159 50.63409622 C-1.21461312 46.43650588 -1.20346546 42.23892701 -1.19658089 38.04132271 C-1.19023643 34.19436644 -1.1793627 30.34744989 -1.1649667 26.50051557 C-1.16055853 25.11273342 -1.15777759 23.7249449 -1.15683801 22.33715607 C-1.1507846 14.82852729 -0.94470225 7.45389158 0 0 Z " fill="#F2E3BB" transform="translate(298,235)"/>
<path d="M0 0 C0.80217839 -0.0039821 1.60435677 -0.00796419 2.43084359 -0.01206696 C3.74407086 -0.00332844 3.74407086 -0.00332844 5.08382797 0.00558662 C6.01829561 0.00387777 6.95276325 0.00216892 7.91554809 0.00040829 C11.05405524 -0.00289205 14.19234971 0.00812614 17.33083725 0.01904488 C19.57770406 0.01960887 21.82457124 0.01929266 24.07143784 0.01815987 C30.17847636 0.0175849 36.28543669 0.02936253 42.39245701 0.04330778 C48.77195784 0.05579115 55.15146037 0.05698375 61.53097153 0.0593586 C72.24096922 0.06487305 82.95093265 0.07737439 93.66091537 0.09521675 C104.69216391 0.11357521 115.72340464 0.12773188 126.75466537 0.13623238 C127.77464152 0.13702055 127.77464152 0.13702055 128.81522325 0.13782464 C132.22650891 0.14043472 135.63779462 0.14296213 139.04908037 0.14544845 C167.34842277 0.16618135 195.64773394 0.20155593 223.94704819 0.24609566 C219.69704819 4.71038137 219.69704819 4.71038137 215.94704819 5.24609566 C216.27704819 4.58609566 216.60704819 3.92609566 216.94704819 3.24609566 C105.57204819 2.75109566 105.57204819 2.75109566 -8.05295181 2.24609566 C-3.55295181 -0.00390434 -3.55295181 -0.00390434 0 0 Z " fill="#63E4F2" transform="translate(438.05295181274414,126.75390434265137)"/>
<path d="M0 0 C0.66 0.33 1.32 0.66 2 1 C4.00156476 1.1059367 6.00668391 1.14666127 8.01101685 1.15821838 C9.29271759 1.1680072 10.57441833 1.17779602 11.8949585 1.18788147 C13.32336388 1.19378606 14.75176966 1.19959648 16.18017578 1.20532227 C17.67799146 1.21489808 19.17580441 1.22490798 20.6736145 1.23532104 C24.74772894 1.26240834 28.82185501 1.28339715 32.89600992 1.30332303 C37.15081825 1.32515904 41.40559057 1.35255937 45.66036987 1.37937927 C53.72095775 1.42933848 61.78156557 1.47426531 69.84219253 1.51740164 C79.0174206 1.56674646 88.19261256 1.62167479 97.36780572 1.67708123 C116.2451703 1.79095081 135.12256894 1.89777899 154 2 C154 2.66 154 3.32 154 4 C102.19 4 50.38 4 -3 4 C-2.01 2.68 -1.02 1.36 0 0 Z " fill="#FDF5D1" transform="translate(671,160)"/>
<path d="M0 0 C62.37 0 124.74 0 189 0 C187.68 1.32 186.36 2.64 185 4 C184.01 3.505 184.01 3.505 183 3 C183.33 2.67 183.66 2.34 184 2 C123.28 1.67 62.56 1.34 0 1 C0 0.67 0 0.34 0 0 Z " fill="#71F7FE" transform="translate(471,128)"/>
<path d="M0 0 C5.368884 6.69271842 5.75125565 14.70254957 5 23 C3.04107425 32.95892575 3.04107425 32.95892575 0 36 C-0.93423645 32.98968256 -1.04449911 32.13349732 0 29 C0.66 29 1.32 29 2 29 C2.19538118 19.13325025 2.38222795 9.65653116 0 0 Z " fill="#69DCE7" transform="translate(670,732)"/>
<path d="M0 0 C0.66 0.66 1.32 1.32 2 2 C-3.05352742 7.96348734 -8.41711741 13.53105379 -14 19 C-14.66 18.67 -15.32 18.34 -16 18 C-14.6415798 14.95667235 -13.11536976 12.87690849 -10.7421875 10.546875 C-10.11699219 9.928125 -9.49179687 9.309375 -8.84765625 8.671875 C-8.19667969 8.03765625 -7.54570312 7.4034375 -6.875 6.75 C-6.21628906 6.1003125 -5.55757813 5.450625 -4.87890625 4.78125 C-3.25703357 3.18288273 -1.6306719 1.58938103 0 0 Z " fill="#67DBED" transform="translate(374,153)"/>
<path d="M0 0 C0.66 0.33 1.32 0.66 2 1 C2.75 4.4375 2.75 4.4375 3 8 C2.34 8.66 1.68 9.32 1 10 C0.17340282 12.01952714 0.17340282 12.01952714 -0.5078125 14.3515625 C-0.90419922 15.62773437 -0.90419922 15.62773437 -1.30859375 16.9296875 C-1.71271484 18.26386719 -1.71271484 18.26386719 -2.125 19.625 C-2.40214844 20.5221875 -2.67929687 21.419375 -2.96484375 22.34375 C-3.64884026 24.56084214 -4.32696672 26.77956001 -5 29 C-5.33 29 -5.66 29 -6 29 C-5.56498166 22.47472483 -4.09734745 17.04267521 -1.921875 10.88671875 C-0.75170131 7.22248843 -0.29426999 3.82550987 0 0 Z " fill="#72E9F4" transform="translate(428,198)"/>
<path d="M0 0 C0.99386719 0.00902344 1.98773438 0.01804687 3.01171875 0.02734375 C4.15060547 0.04474609 4.15060547 0.04474609 5.3125 0.0625 C3.635467 2.10621546 2.77377163 2.98603251 0.12109375 3.42578125 C-0.66136719 3.40902344 -1.44382812 3.39226563 -2.25 3.375 C-3.03503906 3.37113281 -3.82007813 3.36726562 -4.62890625 3.36328125 C-6.6875 3.0625 -6.6875 3.0625 -8.6875 1.0625 C-5.53819107 0.01273036 -3.29935544 -0.03881595 0 0 Z " fill="#5DC8D9" transform="translate(405.6875,652.9375)"/>
<path d="M0 0 C-0.33 4.29 -0.66 8.58 -1 13 C-1.66 12.67 -2.32 12.34 -3 12 C-3 8.37 -3 4.74 -3 1 C-1 0 -1 0 0 0 Z " fill="#EED8B3" transform="translate(630,232)"/>
<path d="M0 0 C0.33 0 0.66 0 1 0 C1.33 5.61 1.66 11.22 2 17 C-0.31 17 -2.62 17 -5 17 C-4.35546875 16.82726562 -3.7109375 16.65453125 -3.046875 16.4765625 C-0.59554118 15.07017372 -0.59554118 15.07017372 -0.390625 11.5234375 C-0.32418219 10.141427 -0.2780748 8.7583219 -0.25 7.375 C-0.22035156 6.66859375 -0.19070313 5.9621875 -0.16015625 5.234375 C-0.08944643 3.49019953 -0.04245965 1.74509173 0 0 Z " fill="#F9F6DA" transform="translate(297,577)"/>
<path d="M0 0 C-2.51699845 2.51699845 -4.57554146 3.10964078 -8 4 C-10.375 3.625 -10.375 3.625 -12 3 C-10.35 2.67 -8.7 2.34 -7 2 C-7 1.34 -7 0.68 -7 0 C-3.86650268 -1.04449911 -3.01031744 -0.93423645 0 0 Z " fill="#F4E4C5" transform="translate(248,604)"/>
<path d="M0 0 C0.99 0 1.98 0 3 0 C2.67 4.95 2.34 9.9 2 15 C1.67 15 1.34 15 1 15 C0.67 10.05 0.34 5.1 0 0 Z " fill="#57C4DF" transform="translate(250,740)"/>
<path d="M0 0 C0 3 0 3 -2.5 5.6875 C-3.325 6.450625 -4.15 7.21375 -5 8 C-5.66 7.01 -6.32 6.02 -7 5 C-6.030625 4.360625 -5.06125 3.72125 -4.0625 3.0625 C-1.23963731 1.3034741 -1.23963731 1.3034741 0 0 Z " fill="#6DE0ED" transform="translate(417,647)"/>
<path d="M0 0 C1.98 0 3.96 0 6 0 C4.02 0.99 4.02 0.99 2 2 C1.34 1.34 0.68 0.68 0 0 Z " fill="#102018" transform="translate(552,939)"/>
<path d="M0 0 C1.65 0 3.3 0 5 0 C5 0.33 5 0.66 5 1 C3.35 1 1.7 1 0 1 C0 0.67 0 0.34 0 0 Z " fill="#0F1F17" transform="translate(456,939)"/>
<path d="M0 0 C0.66 0 1.32 0 2 0 C1.67 1.32 1.34 2.64 1 4 C0.67 2.68 0.34 1.36 0 0 Z " fill="#0C130D" transform="translate(91,769)"/>
<path d="M0 0 C0.33 0 0.66 0 1 0 C1 1.65 1 3.3 1 5 C0.67 5 0.34 5 0 5 C0 3.35 0 1.7 0 0 Z " fill="#0F0F0C" transform="translate(859,221)"/>
<path d="M0 0 C0.66 0 1.32 0 2 0 C2 0.66 2 1.32 2 2 C1.34 2 0.68 2 0 2 C0 1.34 0 0.68 0 0 Z " fill="#0A120D" transform="translate(178,875)"/>
<path d="M0 0 C1 4 1 4 1 4 Z " fill="#0F0E0C" transform="translate(859,571)"/>
<path d="M0 0 C1 4 1 4 1 4 Z " fill="#0F0E0C" transform="translate(859,476)"/>
<path d="M0 0 C4 1 4 1 4 1 Z " fill="#0B0F0E" transform="translate(319,161)"/>
<path d="M0 0 C0.66 0 1.32 0 2 0 C1.67 0.66 1.34 1.32 1 2 C0.67 1.34 0.34 0.68 0 0 Z " fill="#0E1D14" transform="translate(438,938)"/>
<path d="M0 0 C3 1 3 1 3 1 Z " fill="#0F1E18" transform="translate(619,935)"/>
<path d="M0 0 C3 1 3 1 3 1 Z " fill="#0E1E15" transform="translate(384,934)"/>
<path d="M0 0 C3 1 3 1 3 1 Z " fill="#0E1C14" transform="translate(369,932)"/>
<path d="M0 0 C0.66 0 1.32 0 2 0 C1.67 0.66 1.34 1.32 1 2 C0.67 1.34 0.34 0.68 0 0 Z " fill="#101F15" transform="translate(658,931)"/>
<path d="M0 0 C0.66 0 1.32 0 2 0 C1.67 0.66 1.34 1.32 1 2 C0.67 1.34 0.34 0.68 0 0 Z " fill="#0D1B13" transform="translate(357,930)"/>
<path d="M0 0 C3 1 3 1 3 1 Z " fill="#0C1913" transform="translate(325,925)"/>
<path d="" fill="#0A110C" transform="translate(0,0)"/>
<path d="" fill="#0B0C0B" transform="translate(0,0)"/>
<path d="" fill="#0E0C0B" transform="translate(0,0)"/>
<path d="" fill="#0E0C0A" transform="translate(0,0)"/>
<path d="" fill="#0F0C0B" transform="translate(0,0)"/>
<path d="M0 0 C0.66 0 1.32 0 2 0 C1.67 0.66 1.34 1.32 1 2 C0.67 1.34 0.34 0.68 0 0 Z " fill="#0C0D0B" transform="translate(179,535)"/>
<path d="" fill="#0F0E0C" transform="translate(0,0)"/>
<path d="" fill="#100F0B" transform="translate(0,0)"/>
<path d="M0 0 C0.99 0.495 0.99 0.495 2 1 C1.01 1.495 1.01 1.495 0 2 C0 1.34 0 0.68 0 0 Z " fill="#0F0F0B" transform="translate(179,452)"/>
<path d="" fill="#0F0E0C" transform="translate(0,0)"/>
<path d="" fill="#100C0B" transform="translate(0,0)"/>
<path d="M0 0 C0.33 0.66 0.66 1.32 1 2 C0.34 1.67 -0.32 1.34 -1 1 C-0.67 0.67 -0.34 0.34 0 0 Z " fill="#100F0C" transform="translate(180,324)"/>
<path d="M0 0 C0.99 0.495 0.99 0.495 2 1 C1.01 1.495 1.01 1.495 0 2 C0 1.34 0 0.68 0 0 Z " fill="#090B09" transform="translate(185,184)"/>
<path d="M0 0 C0.66 0.66 1.32 1.32 2 2 C1.34 2 0.68 2 0 2 C0 1.34 0 0.68 0 0 Z " fill="#0B0C0A" transform="translate(200,171)"/>
<path d="M0 0 C3 1 3 1 3 1 Z " fill="#0A0D0A" transform="translate(226,161)"/>
<path d="M0 0 C0.66 0 1.32 0 2 0 C1.67 0.66 1.34 1.32 1 2 C0.67 1.34 0.34 0.68 0 0 Z " fill="#0D100D" transform="translate(270,160)"/>
<path d="M0 0 C0.66 0 1.32 0 2 0 C1.67 0.66 1.34 1.32 1 2 C0.67 1.34 0.34 0.68 0 0 Z " fill="#0C0E0B" transform="translate(223,160)"/>
<path d="M0 0 C2 1 2 1 2 1 Z " fill="#0D1E17" transform="translate(459,942)"/>
<path d="M0 0 C2 1 2 1 2 1 Z " fill="#0F2019" transform="translate(488,940)"/>
<path d="M0 0 C2 1 2 1 2 1 Z " fill="#0F1F15" transform="translate(625,935)"/>
<path d="M0 0 C2 1 2 1 2 1 Z " fill="#0E1B13" transform="translate(710,923)"/>
<path d="M0 0 C2 1 2 1 2 1 Z " fill="#0C1711" transform="translate(317,923)"/>
<path d="M0 0 C2 1 2 1 2 1 Z " fill="#0D1912" transform="translate(314,923)"/>
<path d="M0 0 C2 1 2 1 2 1 Z " fill="#0E1714" transform="translate(289,917)"/>
<path d="M0 0 C2 1 2 1 2 1 Z " fill="#0C1811" transform="translate(282,915)"/>
<path d="M0 0 C2 1 2 1 2 1 Z " fill="#0C160F" transform="translate(748,914)"/>
<path d="M0 0 C2 1 2 1 2 1 Z " fill="#0C1912" transform="translate(761,911)"/>
<path d="" fill="#0B1711" transform="translate(0,0)"/>
<path d="M0 0 C2 1 2 1 2 1 Z " fill="#09130F" transform="translate(786,903)"/>
<path d="M0 0 C2 1 2 1 2 1 Z " fill="#0B1711" transform="translate(239,903)"/>
<path d="M0 0 C2 1 2 1 2 1 Z " fill="#0A110C" transform="translate(197,887)"/>
<path d="M0 0 C2 1 2 1 2 1 Z " fill="#0C1510" transform="translate(192,884)"/>
<path d="" fill="#0C1410" transform="translate(0,0)"/>
<path d="" fill="#0C140F" transform="translate(0,0)"/>
<path d="" fill="#0B130E" transform="translate(0,0)"/>
<path d="" fill="#0B120C" transform="translate(0,0)"/>
<path d="M0 0 C2 1 2 1 2 1 Z " fill="#0B0F0C" transform="translate(98,704)"/>
<path d="M0 0 C2 1 2 1 2 1 Z " fill="#090D0B" transform="translate(159,640)"/>
<path d="" fill="#0E0E0B" transform="translate(0,0)"/>
<path d="" fill="#0D0D0A" transform="translate(0,0)"/>
<path d="" fill="#0D0D0A" transform="translate(0,0)"/>
<path d="" fill="#100D0B" transform="translate(0,0)"/>
<path d="" fill="#0F0E0C" transform="translate(0,0)"/>
<path d="M0 0 C2 1 2 1 2 1 Z " fill="#0D0D0B" transform="translate(179,531)"/>
<path d="" fill="#0E0E0C" transform="translate(0,0)"/>
<path d="M0 0 C2 1 2 1 2 1 Z " fill="#0D0D0A" transform="translate(179,524)"/>
<path d="" fill="#0F0E0C" transform="translate(0,0)"/>
<path d="" fill="#0E0E0B" transform="translate(0,0)"/>
<path d="" fill="#0F0D0B" transform="translate(0,0)"/>
<path d="" fill="#0F0F0D" transform="translate(0,0)"/>
<path d="" fill="#110E0D" transform="translate(0,0)"/>
<path d="" fill="#120E0D" transform="translate(0,0)"/>
<path d="" fill="#110E0D" transform="translate(0,0)"/>
<path d="" fill="#0F0E0C" transform="translate(0,0)"/>
<path d="M0 0 C2 1 2 1 2 1 Z " fill="#0F0E0D" transform="translate(179,320)"/>
<path d="" fill="#0F0E0C" transform="translate(0,0)"/>
<path d="" fill="#0E0E0E" transform="translate(0,0)"/>
<path d="M0 0 C2 1 2 1 2 1 Z " fill="#0E0E0D" transform="translate(179,277)"/>
<path d="M0 0 C2 1 2 1 2 1 Z " fill="#0E0F0D" transform="translate(179,273)"/>
<path d="" fill="#0E0F0E" transform="translate(0,0)"/>
<path d="" fill="#0F0F0E" transform="translate(0,0)"/>
<path d="" fill="#0E0F0D" transform="translate(0,0)"/>
<path d="" fill="#0F0E0D" transform="translate(0,0)"/>
<path d="" fill="#100E0D" transform="translate(0,0)"/>
<path d="" fill="#0E0F0D" transform="translate(0,0)"/>
<path d="" fill="#0B0D0C" transform="translate(0,0)"/>
<path d="" fill="#080B0A" transform="translate(0,0)"/>
<path d="M0 0 C2 1 2 1 2 1 Z " fill="#0F0F0E" transform="translate(246,160)"/>
<path d="" fill="#0D0C0C" transform="translate(0,0)"/>
<path d="M0 0 C2 1 2 1 2 1 Z " fill="#060D0C" transform="translate(360,120)"/>
<path d="" fill="#0A1D14" transform="translate(0,0)"/>
<path d="" fill="#0E2016" transform="translate(0,0)"/>
<path d="" fill="#112218" transform="translate(0,0)"/>
<path d="" fill="#102018" transform="translate(0,0)"/>
<path d="" fill="#0E201A" transform="translate(0,0)"/>
<path d="" fill="#11241B" transform="translate(0,0)"/>
<path d="" fill="#122017" transform="translate(0,0)"/>
<path d="" fill="#112218" transform="translate(0,0)"/>
<path d="" fill="#112519" transform="translate(0,0)"/>
<path d="" fill="#112318" transform="translate(0,0)"/>
<path d="" fill="#112117" transform="translate(0,0)"/>
<path d="" fill="#0F2217" transform="translate(0,0)"/>
<path d="" fill="#101F16" transform="translate(0,0)"/>
<path d="" fill="#0E1D16" transform="translate(0,0)"/>
<path d="" fill="#112118" transform="translate(0,0)"/>
<path d="" fill="#0F1F16" transform="translate(0,0)"/>
<path d="" fill="#0E1C15" transform="translate(0,0)"/>
<path d="" fill="#101D15" transform="translate(0,0)"/>
<path d="" fill="#112017" transform="translate(0,0)"/>
<path d="" fill="#0D1C14" transform="translate(0,0)"/>
<path d="" fill="#101C13" transform="translate(0,0)"/>
<path d="" fill="#0E1E15" transform="translate(0,0)"/>
<path d="" fill="#0F1E16" transform="translate(0,0)"/>
<path d="" fill="#0F1C18" transform="translate(0,0)"/>
<path d="" fill="#0D1912" transform="translate(0,0)"/>
<path d="" fill="#0E1B13" transform="translate(0,0)"/>
<path d="" fill="#0F1E14" transform="translate(0,0)"/>
<path d="" fill="#0D1C14" transform="translate(0,0)"/>
<path d="" fill="#0E1E15" transform="translate(0,0)"/>
<path d="" fill="#0E1B13" transform="translate(0,0)"/>
<path d="" fill="#0E1A16" transform="translate(0,0)"/>
<path d="" fill="#0C1A15" transform="translate(0,0)"/>
<path d="" fill="#0E1B13" transform="translate(0,0)"/>
<path d="" fill="#0B1713" transform="translate(0,0)"/>
<path d="" fill="#101C15" transform="translate(0,0)"/>
<path d="" fill="#0D1D12" transform="translate(0,0)"/>
<path d="" fill="#0A1913" transform="translate(0,0)"/>
<path d="" fill="#0C1911" transform="translate(0,0)"/>
<path d="" fill="#0A1812" transform="translate(0,0)"/>
<path d="" fill="#0E1912" transform="translate(0,0)"/>
<path d="" fill="#0E1913" transform="translate(0,0)"/>
<path d="" fill="#0C1A13" transform="translate(0,0)"/>
<path d="" fill="#0E1910" transform="translate(0,0)"/>
<path d="" fill="#09160F" transform="translate(0,0)"/>
<path d="" fill="#0B1A13" transform="translate(0,0)"/>
<path d="" fill="#0D1612" transform="translate(0,0)"/>
<path d="" fill="#0D1813" transform="translate(0,0)"/>
<path d="" fill="#0D1712" transform="translate(0,0)"/>
<path d="" fill="#0E1D14" transform="translate(0,0)"/>
<path d="" fill="#0C1811" transform="translate(0,0)"/>
<path d="" fill="#0C150E" transform="translate(0,0)"/>
<path d="" fill="#0C1810" transform="translate(0,0)"/>
<path d="" fill="#0A160E" transform="translate(0,0)"/>
<path d="" fill="#0D160F" transform="translate(0,0)"/>
<path d="" fill="#0C1310" transform="translate(0,0)"/>
<path d="" fill="#0D160F" transform="translate(0,0)"/>
<path d="" fill="#0B150E" transform="translate(0,0)"/>
<path d="" fill="#0E1B12" transform="translate(0,0)"/>
<path d="" fill="#0B170F" transform="translate(0,0)"/>
<path d="" fill="#0B1410" transform="translate(0,0)"/>
<path d="" fill="#0A1511" transform="translate(0,0)"/>
<path d="" fill="#09170C" transform="translate(0,0)"/>
<path d="" fill="#0B160F" transform="translate(0,0)"/>
<path d="" fill="#091310" transform="translate(0,0)"/>
<path d="" fill="#0D1410" transform="translate(0,0)"/>
<path d="" fill="#0B150F" transform="translate(0,0)"/>
<path d="" fill="#0B140E" transform="translate(0,0)"/>
<path d="" fill="#09130E" transform="translate(0,0)"/>
<path d="" fill="#0C140F" transform="translate(0,0)"/>
<path d="" fill="#0B150C" transform="translate(0,0)"/>
<path d="" fill="#0B1410" transform="translate(0,0)"/>
<path d="" fill="#080F0B" transform="translate(0,0)"/>
<path d="" fill="#0A150C" transform="translate(0,0)"/>
<path d="" fill="#09100A" transform="translate(0,0)"/>
<path d="" fill="#0B130F" transform="translate(0,0)"/>
<path d="" fill="#0A160D" transform="translate(0,0)"/>
<path d="" fill="#09150F" transform="translate(0,0)"/>
<path d="" fill="#0A1610" transform="translate(0,0)"/>
<path d="" fill="#0A1510" transform="translate(0,0)"/>
<path d="" fill="#0A120D" transform="translate(0,0)"/>
<path d="" fill="#09130D" transform="translate(0,0)"/>
<path d="" fill="#0D1210" transform="translate(0,0)"/>
<path d="" fill="#0A120D" transform="translate(0,0)"/>
<path d="" fill="#09130E" transform="translate(0,0)"/>
<path d="" fill="#0A110B" transform="translate(0,0)"/>
<path d="" fill="#09130D" transform="translate(0,0)"/>
<path d="" fill="#09120E" transform="translate(0,0)"/>
<path d="" fill="#081009" transform="translate(0,0)"/>
<path d="" fill="#06120D" transform="translate(0,0)"/>
<path d="" fill="#0A130F" transform="translate(0,0)"/>
<path d="" fill="#0A100B" transform="translate(0,0)"/>
<path d="" fill="#0B130F" transform="translate(0,0)"/>
<path d="" fill="#0A110D" transform="translate(0,0)"/>
<path d="" fill="#0B110F" transform="translate(0,0)"/>
<path d="" fill="#0A120F" transform="translate(0,0)"/>
<path d="" fill="#0A0F0E" transform="translate(0,0)"/>
<path d="" fill="#0C140E" transform="translate(0,0)"/>
<path d="" fill="#0C120E" transform="translate(0,0)"/>
<path d="" fill="#090F0A" transform="translate(0,0)"/>
<path d="" fill="#0B120B" transform="translate(0,0)"/>
<path d="" fill="#0A120B" transform="translate(0,0)"/>
<path d="" fill="#09100C" transform="translate(0,0)"/>
<path d="" fill="#0D1510" transform="translate(0,0)"/>
<path d="" fill="#0A130E" transform="translate(0,0)"/>
<path d="" fill="#08110C" transform="translate(0,0)"/>
<path d="" fill="#091310" transform="translate(0,0)"/>
<path d="" fill="#0C140D" transform="translate(0,0)"/>
<path d="" fill="#0C1411" transform="translate(0,0)"/>
<path d="" fill="#09140D" transform="translate(0,0)"/>
<path d="" fill="#0D1610" transform="translate(0,0)"/>
<path d="" fill="#0C140F" transform="translate(0,0)"/>
<path d="" fill="#0A1510" transform="translate(0,0)"/>
<path d="" fill="#09120E" transform="translate(0,0)"/>
<path d="" fill="#0C130E" transform="translate(0,0)"/>
<path d="" fill="#0D150F" transform="translate(0,0)"/>
<path d="" fill="#0C120D" transform="translate(0,0)"/>
<path d="" fill="#0D140E" transform="translate(0,0)"/>
<path d="" fill="#09120F" transform="translate(0,0)"/>
<path d="" fill="#0C130E" transform="translate(0,0)"/>
<path d="" fill="#0D120E" transform="translate(0,0)"/>
<path d="" fill="#090F0D" transform="translate(0,0)"/>
<path d="" fill="#0A100C" transform="translate(0,0)"/>
<path d="" fill="#0A100B" transform="translate(0,0)"/>
<path d="" fill="#0A120F" transform="translate(0,0)"/>
<path d="" fill="#0E110E" transform="translate(0,0)"/>
<path d="" fill="#0A0D0B" transform="translate(0,0)"/>
<path d="" fill="#0D110F" transform="translate(0,0)"/>
<path d="" fill="#090E0B" transform="translate(0,0)"/>
<path d="" fill="#0B100D" transform="translate(0,0)"/>
<path d="" fill="#0B0F0B" transform="translate(0,0)"/>
<path d="" fill="#090D08" transform="translate(0,0)"/>
<path d="" fill="#0B100D" transform="translate(0,0)"/>
<path d="" fill="#090D09" transform="translate(0,0)"/>
<path d="" fill="#0C0D09" transform="translate(0,0)"/>
<path d="" fill="#0B0E0E" transform="translate(0,0)"/>
<path d="" fill="#0A0D0B" transform="translate(0,0)"/>
<path d="" fill="#0C0C0A" transform="translate(0,0)"/>
<path d="" fill="#070D0A" transform="translate(0,0)"/>
<path d="" fill="#090E09" transform="translate(0,0)"/>
<path d="" fill="#0C0E0A" transform="translate(0,0)"/>
<path d="" fill="#0B0D08" transform="translate(0,0)"/>
<path d="" fill="#0B0C0A" transform="translate(0,0)"/>
<path d="" fill="#080D0A" transform="translate(0,0)"/>
<path d="" fill="#0B0A0A" transform="translate(0,0)"/>
<path d="" fill="#0C0B0A" transform="translate(0,0)"/>
<path d="" fill="#0A0C09" transform="translate(0,0)"/>
<path d="" fill="#0B0F0C" transform="translate(0,0)"/>
<path d="" fill="#0C0C0B" transform="translate(0,0)"/>
<path d="" fill="#0B0F0C" transform="translate(0,0)"/>
<path d="" fill="#0C0F09" transform="translate(0,0)"/>
<path d="" fill="#0C0D0A" transform="translate(0,0)"/>
<path d="" fill="#0A0D0A" transform="translate(0,0)"/>
<path d="" fill="#0C0E0D" transform="translate(0,0)"/>
<path d="" fill="#0C0F0A" transform="translate(0,0)"/>
<path d="" fill="#0D0E0C" transform="translate(0,0)"/>
<path d="" fill="#0E0E0B" transform="translate(0,0)"/>
<path d="" fill="#0F0E0B" transform="translate(0,0)"/>
<path d="" fill="#0E0C0D" transform="translate(0,0)"/>
<path d="" fill="#0C0E0A" transform="translate(0,0)"/>
<path d="" fill="#0D0D0A" transform="translate(0,0)"/>
<path d="" fill="#0E0D0D" transform="translate(0,0)"/>
<path d="" fill="#0C0E0B" transform="translate(0,0)"/>
<path d="" fill="#0D0C0B" transform="translate(0,0)"/>
<path d="" fill="#0D0D0B" transform="translate(0,0)"/>
<path d="" fill="#0D0C09" transform="translate(0,0)"/>
<path d="" fill="#0E0E0B" transform="translate(0,0)"/>
<path d="" fill="#0E0E0C" transform="translate(0,0)"/>
<path d="" fill="#0A0C0D" transform="translate(0,0)"/>
<path d="" fill="#0F0F0B" transform="translate(0,0)"/>
<path d="" fill="#0B0C09" transform="translate(0,0)"/>
<path d="" fill="#0F0D0B" transform="translate(0,0)"/>
<path d="" fill="#0F0E0C" transform="translate(0,0)"/>
<path d="" fill="#0E0B09" transform="translate(0,0)"/>
<path d="" fill="#0F0D0C" transform="translate(0,0)"/>
<path d="" fill="#0F0E0D" transform="translate(0,0)"/>
<path d="" fill="#0D0D0B" transform="translate(0,0)"/>
<path d="" fill="#0D0D09" transform="translate(0,0)"/>
<path d="" fill="#0D0B0B" transform="translate(0,0)"/>
<path d="" fill="#0D0D0B" transform="translate(0,0)"/>
<path d="" fill="#0E0B0A" transform="translate(0,0)"/>
<path d="" fill="#0F0E0C" transform="translate(0,0)"/>
<path d="" fill="#0F0D0C" transform="translate(0,0)"/>
<path d="" fill="#100E0D" transform="translate(0,0)"/>
<path d="" fill="#0D0E09" transform="translate(0,0)"/>
<path d="" fill="#0F0F0C" transform="translate(0,0)"/>
<path d="" fill="#0C0F0B" transform="translate(0,0)"/>
<path d="" fill="#0C0E0B" transform="translate(0,0)"/>
<path d="" fill="#0D0D0C" transform="translate(0,0)"/>
<path d="" fill="#0C0C0D" transform="translate(0,0)"/>
<path d="" fill="#100E0C" transform="translate(0,0)"/>
<path d="" fill="#0F0F0C" transform="translate(0,0)"/>
<path d="" fill="#0D0D0B" transform="translate(0,0)"/>
<path d="" fill="#100E0D" transform="translate(0,0)"/>
<path d="" fill="#0E0D0A" transform="translate(0,0)"/>
<path d="" fill="#0F0E0C" transform="translate(0,0)"/>
<path d="" fill="#0C0D0B" transform="translate(0,0)"/>
<path d="" fill="#0E0E0B" transform="translate(0,0)"/>
<path d="" fill="#0E0E0D" transform="translate(0,0)"/>
<path d="" fill="#110C0B" transform="translate(0,0)"/>
<path d="" fill="#0D0D0C" transform="translate(0,0)"/>
<path d="" fill="#0E0E0B" transform="translate(0,0)"/>
<path d="" fill="#0F100D" transform="translate(0,0)"/>
<path d="" fill="#0D0C0B" transform="translate(0,0)"/>
<path d="" fill="#0D0B0B" transform="translate(0,0)"/>
<path d="" fill="#12100D" transform="translate(0,0)"/>
<path d="" fill="#0E0D0B" transform="translate(0,0)"/>
<path d="" fill="#100F0B" transform="translate(0,0)"/>
<path d="" fill="#0D0F0C" transform="translate(0,0)"/>
<path d="" fill="#0D100E" transform="translate(0,0)"/>
<path d="" fill="#100D0D" transform="translate(0,0)"/>
<path d="" fill="#0E100C" transform="translate(0,0)"/>
<path d="" fill="#0C0D0B" transform="translate(0,0)"/>
<path d="" fill="#0D0E0C" transform="translate(0,0)"/>
<path d="" fill="#0F0E0B" transform="translate(0,0)"/>
<path d="" fill="#110F0C" transform="translate(0,0)"/>
<path d="" fill="#100F0E" transform="translate(0,0)"/>
<path d="" fill="#0E100C" transform="translate(0,0)"/>
<path d="" fill="#0F0E0D" transform="translate(0,0)"/>
<path d="" fill="#110F0C" transform="translate(0,0)"/>
<path d="" fill="#0E0E0B" transform="translate(0,0)"/>
<path d="" fill="#100E0D" transform="translate(0,0)"/>
<path d="" fill="#0E0E0B" transform="translate(0,0)"/>
<path d="" fill="#100E0D" transform="translate(0,0)"/>
<path d="" fill="#110F0E" transform="translate(0,0)"/>
<path d="" fill="#100E0B" transform="translate(0,0)"/>
<path d="" fill="#100E0D" transform="translate(0,0)"/>
<path d="" fill="#0E0D0B" transform="translate(0,0)"/>
<path d="" fill="#0E0C0D" transform="translate(0,0)"/>
<path d="" fill="#0F100B" transform="translate(0,0)"/>
<path d="" fill="#0F0F0C" transform="translate(0,0)"/>
<path d="" fill="#110F0C" transform="translate(0,0)"/>
<path d="" fill="#0E100D" transform="translate(0,0)"/>
<path d="" fill="#110F0E" transform="translate(0,0)"/>
<path d="" fill="#0E0F0D" transform="translate(0,0)"/>
<path d="" fill="#13100D" transform="translate(0,0)"/>
<path d="" fill="#100E0E" transform="translate(0,0)"/>
<path d="" fill="#100E0D" transform="translate(0,0)"/>
<path d="" fill="#12100C" transform="translate(0,0)"/>
<path d="" fill="#110E0D" transform="translate(0,0)"/>
<path d="" fill="#100F0B" transform="translate(0,0)"/>
<path d="" fill="#0E0E0D" transform="translate(0,0)"/>
<path d="" fill="#0F110E" transform="translate(0,0)"/>
<path d="" fill="#0F0E0C" transform="translate(0,0)"/>
<path d="" fill="#0F0F0E" transform="translate(0,0)"/>
<path d="" fill="#120F0D" transform="translate(0,0)"/>
<path d="" fill="#0E0F0D" transform="translate(0,0)"/>
<path d="" fill="#0E0F0E" transform="translate(0,0)"/>
<path d="" fill="#0E0E0C" transform="translate(0,0)"/>
<path d="" fill="#0F0F0C" transform="translate(0,0)"/>
<path d="" fill="#0D0F0D" transform="translate(0,0)"/>
<path d="" fill="#0F0F0C" transform="translate(0,0)"/>
<path d="" fill="#120F0E" transform="translate(0,0)"/>
<path d="" fill="#0E0F0D" transform="translate(0,0)"/>
<path d="" fill="#100F0E" transform="translate(0,0)"/>
<path d="" fill="#120D0E" transform="translate(0,0)"/>
<path d="" fill="#0E0D0D" transform="translate(0,0)"/>
<path d="" fill="#0F100B" transform="translate(0,0)"/>
<path d="" fill="#0F0D0C" transform="translate(0,0)"/>
<path d="" fill="#10100C" transform="translate(0,0)"/>
<path d="" fill="#0E0E0B" transform="translate(0,0)"/>
<path d="" fill="#0F0E0B" transform="translate(0,0)"/>
<path d="" fill="#10100C" transform="translate(0,0)"/>
<path d="" fill="#0E0F0D" transform="translate(0,0)"/>
<path d="" fill="#0F0D0F" transform="translate(0,0)"/>
<path d="" fill="#0C0E0B" transform="translate(0,0)"/>
<path d="" fill="#0E0F0C" transform="translate(0,0)"/>
<path d="" fill="#0D0D0C" transform="translate(0,0)"/>
<path d="" fill="#120D0C" transform="translate(0,0)"/>
<path d="" fill="#100D0D" transform="translate(0,0)"/>
<path d="" fill="#0F0C0C" transform="translate(0,0)"/>
<path d="" fill="#10100C" transform="translate(0,0)"/>
<path d="" fill="#0E0F0D" transform="translate(0,0)"/>
<path d="" fill="#110E0D" transform="translate(0,0)"/>
<path d="" fill="#0E0E0C" transform="translate(0,0)"/>
<path d="" fill="#0C0E0C" transform="translate(0,0)"/>
<path d="" fill="#0F0F0C" transform="translate(0,0)"/>
<path d="" fill="#0E0F0B" transform="translate(0,0)"/>
<path d="" fill="#110E0E" transform="translate(0,0)"/>
<path d="" fill="#100F0C" transform="translate(0,0)"/>
<path d="" fill="#100E0C" transform="translate(0,0)"/>
<path d="" fill="#100F0D" transform="translate(0,0)"/>
<path d="" fill="#100C0C" transform="translate(0,0)"/>
<path d="" fill="#0F0E0B" transform="translate(0,0)"/>
<path d="" fill="#0F0D0B" transform="translate(0,0)"/>
<path d="" fill="#0F0E0C" transform="translate(0,0)"/>
<path d="" fill="#0E0C0A" transform="translate(0,0)"/>
<path d="" fill="#0E0E0C" transform="translate(0,0)"/>
<path d="" fill="#0F0E0C" transform="translate(0,0)"/>
<path d="" fill="#110F0E" transform="translate(0,0)"/>
<path d="" fill="#100E0A" transform="translate(0,0)"/>
<path d="" fill="#100D0C" transform="translate(0,0)"/>
<path d="" fill="#0F0D0C" transform="translate(0,0)"/>
<path d="" fill="#0F0E0D" transform="translate(0,0)"/>
<path d="" fill="#0E0E0D" transform="translate(0,0)"/>
<path d="" fill="#0E0F0A" transform="translate(0,0)"/>
<path d="" fill="#0D0F0C" transform="translate(0,0)"/>
<path d="" fill="#0F0F0D" transform="translate(0,0)"/>
<path d="" fill="#0E0E0C" transform="translate(0,0)"/>
<path d="" fill="#0E0E0B" transform="translate(0,0)"/>
<path d="" fill="#110F0E" transform="translate(0,0)"/>
<path d="" fill="#0C0E0B" transform="translate(0,0)"/>
<path d="" fill="#100D0C" transform="translate(0,0)"/>
<path d="" fill="#100E0D" transform="translate(0,0)"/>
<path d="" fill="#0D0F0F" transform="translate(0,0)"/>
<path d="" fill="#110F0D" transform="translate(0,0)"/>
<path d="" fill="#0D0F0E" transform="translate(0,0)"/>
<path d="" fill="#100D0F" transform="translate(0,0)"/>
<path d="" fill="#0F0E0D" transform="translate(0,0)"/>
<path d="" fill="#10100F" transform="translate(0,0)"/>
<path d="" fill="#0E0F0F" transform="translate(0,0)"/>
<path d="" fill="#0F110E" transform="translate(0,0)"/>
<path d="" fill="#0D100F" transform="translate(0,0)"/>
<path d="" fill="#120E0D" transform="translate(0,0)"/>
<path d="" fill="#0E0C0C" transform="translate(0,0)"/>
<path d="" fill="#110F0D" transform="translate(0,0)"/>
<path d="" fill="#0F0F0B" transform="translate(0,0)"/>
<path d="" fill="#10100D" transform="translate(0,0)"/>
<path d="" fill="#100F0F" transform="translate(0,0)"/>
<path d="" fill="#0D0D0D" transform="translate(0,0)"/>
<path d="" fill="#10110C" transform="translate(0,0)"/>
<path d="" fill="#0E0E0E" transform="translate(0,0)"/>
<path d="" fill="#100F0D" transform="translate(0,0)"/>
<path d="" fill="#0F0E0D" transform="translate(0,0)"/>
<path d="" fill="#0E0F0A" transform="translate(0,0)"/>
<path d="" fill="#0E0E0B" transform="translate(0,0)"/>
<path d="" fill="#110E0E" transform="translate(0,0)"/>
<path d="" fill="#0E100E" transform="translate(0,0)"/>
<path d="" fill="#110D0E" transform="translate(0,0)"/>
<path d="" fill="#0F100D" transform="translate(0,0)"/>
<path d="" fill="#0F0F0C" transform="translate(0,0)"/>
<path d="" fill="#110F0D" transform="translate(0,0)"/>
<path d="" fill="#0E110C" transform="translate(0,0)"/>
<path d="" fill="#110F0C" transform="translate(0,0)"/>
<path d="" fill="#0D0B0A" transform="translate(0,0)"/>
<path d="" fill="#0D0B0B" transform="translate(0,0)"/>
<path d="" fill="#0D0E0D" transform="translate(0,0)"/>
<path d="" fill="#110D0B" transform="translate(0,0)"/>
<path d="" fill="#110E0F" transform="translate(0,0)"/>
<path d="" fill="#120E0C" transform="translate(0,0)"/>
<path d="" fill="#0F0D0D" transform="translate(0,0)"/>
<path d="" fill="#0F0C0C" transform="translate(0,0)"/>
<path d="" fill="#100E0D" transform="translate(0,0)"/>
<path d="" fill="#0D0D09" transform="translate(0,0)"/>
<path d="" fill="#100E0C" transform="translate(0,0)"/>
<path d="" fill="#0C0B0A" transform="translate(0,0)"/>
<path d="" fill="#100C0C" transform="translate(0,0)"/>
<path d="" fill="#0B0D09" transform="translate(0,0)"/>
<path d="" fill="#0D0D0D" transform="translate(0,0)"/>
<path d="" fill="#0A0D0C" transform="translate(0,0)"/>
<path d="" fill="#090B0A" transform="translate(0,0)"/>
<path d="" fill="#0E0D0D" transform="translate(0,0)"/>
<path d="" fill="#0E0E0C" transform="translate(0,0)"/>
<path d="" fill="#0E0B0A" transform="translate(0,0)"/>
<path d="" fill="#0E100D" transform="translate(0,0)"/>
<path d="" fill="#0E0D0C" transform="translate(0,0)"/>
<path d="" fill="#0D130D" transform="translate(0,0)"/>
<path d="" fill="#0C110D" transform="translate(0,0)"/>
<path d="" fill="#0E130F" transform="translate(0,0)"/>
<path d="" fill="#0D100A" transform="translate(0,0)"/>
<path d="" fill="#0C0F0B" transform="translate(0,0)"/>
<path d="" fill="#0D0F0D" transform="translate(0,0)"/>
<path d="" fill="#0C100E" transform="translate(0,0)"/>
<path d="" fill="#0E110F" transform="translate(0,0)"/>
<path d="" fill="#0C0F0D" transform="translate(0,0)"/>
<path d="" fill="#0F0D0D" transform="translate(0,0)"/>
<path d="" fill="#0E0E0A" transform="translate(0,0)"/>
<path d="" fill="#0A100F" transform="translate(0,0)"/>
<path d="" fill="#06110B" transform="translate(0,0)"/>
<path d="" fill="#0E0D0A" transform="translate(0,0)"/>
<path d="" fill="#060B0A" transform="translate(0,0)"/>
<path d="" fill="#060C09" transform="translate(0,0)"/>
<path d="" fill="#060D0A" transform="translate(0,0)"/>
<path d="" fill="#080E0B" transform="translate(0,0)"/>
<path d="" fill="#0D0D0C" transform="translate(0,0)"/>
<path d="" fill="#070E0C" transform="translate(0,0)"/>
<path d="" fill="#060E09" transform="translate(0,0)"/>
<path d="" fill="#060D09" transform="translate(0,0)"/>
<path d="" fill="#050D0C" transform="translate(0,0)"/>
<path d="" fill="#060F0B" transform="translate(0,0)"/>
<path d="" fill="#0D0A0A" transform="translate(0,0)"/>
<path d="" fill="#050F0E" transform="translate(0,0)"/>
<path d="" fill="#080F0C" transform="translate(0,0)"/>
<path d="" fill="#070E0E" transform="translate(0,0)"/>
<path d="" fill="#0D0D0A" transform="translate(0,0)"/>
<path d="" fill="#061110" transform="translate(0,0)"/>
<path d="" fill="#06110D" transform="translate(0,0)"/>
<path d="" fill="#081515" transform="translate(0,0)"/>
<path d="" fill="#071613" transform="translate(0,0)"/>
<path d="" fill="#091614" transform="translate(0,0)"/>
<path d="" fill="#081612" transform="translate(0,0)"/>
<path d="" fill="#0E0E0C" transform="translate(0,0)"/>
<path d="" fill="#0B1617" transform="translate(0,0)"/>
<path d="" fill="#071613" transform="translate(0,0)"/>
<path d="" fill="#0C1815" transform="translate(0,0)"/>
<path d="" fill="#0C1815" transform="translate(0,0)"/>
<path d="" fill="#0D1C19" transform="translate(0,0)"/>
</svg>
